<svg xmlns="http://www.w3.org/2000/svg" width="189.379" height="65.763" viewBox="0 0 189.379 65.763">
  <g id="Grupo_1160571" data-name="Grupo 1160571" transform="translate(-1230.621 -386)">
    <rect id="Rectángulo_428868" data-name="Rectángulo 428868" width="189.379" height="49.429" rx="4" transform="translate(1230.621 394.422)" fill="#9fcdc8"/>
    <g id="Grupo_1160545" data-name="Grupo 1160545" transform="translate(1286.306 366.751)">
      <g id="Grupo_1160569" data-name="Grupo 1160569" transform="translate(1.137 24.458)">
        <g id="Grupo_1160568" data-name="Grupo 1160568">
          <g id="Grupo_1160545-2" data-name="Grupo 1160545" transform="translate(0.139 55.216)">
            <path id="Trazado_933308" data-name="Trazado 933308" d="M73.626,454.315H13.475A4.288,4.288,0,0,0,9.186,458.6H77.914a4.288,4.288,0,0,0-4.288-4.288Z" transform="translate(-9.186 -454.315)" fill="#00d43d"/>
          </g>
          <g id="Grupo_1160546" data-name="Grupo 1160546">
            <circle id="Elipse_11730" data-name="Elipse 11730" cx="10.416" cy="10.416" r="10.416" fill="#8ad8f6"/>
          </g>
          <g id="Grupo_1160547" data-name="Grupo 1160547" transform="translate(0 2.578)">
            <path id="Trazado_933309" data-name="Trazado 933309" d="M20.7,91.06a10.416,10.416,0,0,1-8.952-15.743A10.415,10.415,0,1,0,27.554,88.481,10.373,10.373,0,0,1,20.7,91.06Z" transform="translate(-8.186 -75.317)" fill="#54c9f3"/>
          </g>
          <g id="Grupo_1160548" data-name="Grupo 1160548" transform="translate(45.863 41.775)">
            <path id="Trazado_933310" data-name="Trazado 933310" d="M353.028,365.192a7.649,7.649,0,0,0-14.621-3.148v9.079h19.8v-.748A5.183,5.183,0,0,0,353.028,365.192Z" transform="translate(-338.407 -357.543)" fill="#54e072"/>
          </g>
          <g id="Grupo_1160549" data-name="Grupo 1160549" transform="translate(44.756 43.592)">
            <path id="Trazado_933311" data-name="Trazado 933311" d="M350.692,379.12H336.976a3.847,3.847,0,0,0-2.378-3.186v-5.309l-3.056,2.71v-.026h0v.026l-1.107.982v8.071h20.911v-.748A5.158,5.158,0,0,0,350.692,379.12Z" transform="translate(-330.435 -370.625)" fill="#00d43d"/>
          </g>
          <g id="Grupo_1160550" data-name="Grupo 1160550" transform="translate(52.131 23.089)">
            <path id="Trazado_933312" data-name="Trazado 933312" d="M396.126,227.811c-.116,0-.23.006-.343.016a4.135,4.135,0,0,0,.115-.969A4.066,4.066,0,0,0,393.154,223l-9.617,8.126.06,1.463a5.83,5.83,0,0,0,5.83,5.83H394.3a5.83,5.83,0,0,0,5.83-5.83v-.7A4.04,4.04,0,0,0,396.126,227.811Z" transform="translate(-383.537 -222.995)" fill="#00ca0f"/>
          </g>
          <g id="Grupo_1160551" data-name="Grupo 1160551" transform="translate(52.131 28.429)">
            <path id="Trazado_933313" data-name="Trazado 933313" d="M397.588,268.242h-6.754c-3.22,0-3.954-1.831-3.954-5.051l-.047-1.744-3.3,2.786.06,1.463a5.83,5.83,0,0,0,5.83,5.83H394.3a5.83,5.83,0,0,0,5.423-3.69,5.813,5.813,0,0,1-2.139.407Z" transform="translate(-383.536 -261.447)" fill="#00ae0c"/>
          </g>
          <g id="Grupo_1160552" data-name="Grupo 1160552" transform="translate(41.135 3.494)">
            <path id="Trazado_933314" data-name="Trazado 933314" d="M315.394,81.908s-11.031,7.211-11.031,15.93a11.417,11.417,0,0,0,11.031,11.031,11.041,11.041,0,0,0,11.031-11.031C326.426,89.119,315.394,81.908,315.394,81.908Z" transform="translate(-304.363 -81.908)" fill="#b6f600"/>
          </g>
          <g id="Grupo_1160553" data-name="Grupo 1160553" transform="translate(41.135 6.41)">
            <path id="Trazado_933315" data-name="Trazado 933315" d="M317.855,124.488a11.417,11.417,0,0,1-11.031-11.031c0-4.027,2.353-7.731,4.886-10.553-3.207,2.9-7.347,7.673-7.347,13.014a11.417,11.417,0,0,0,11.031,11.031,11.013,11.013,0,0,0,8.93-4.563A10.9,10.9,0,0,1,317.855,124.488Z" transform="translate(-304.363 -102.904)" fill="#abe700"/>
          </g>
          <g id="Grupo_1160554" data-name="Grupo 1160554" transform="translate(31.555 23.714)">
            <path id="Trazado_933316" data-name="Trazado 933316" d="M238.822,228.084a2.014,2.014,0,0,0-2.848,2.848l1.711,1.711,2.624-3.072Z" transform="translate(-235.384 -227.494)" fill="#4b6276"/>
          </g>
          <g id="Grupo_1160555" data-name="Grupo 1160555" transform="translate(42.729 23.714)">
            <path id="Trazado_933317" data-name="Trazado 933317" d="M317.326,228.084a2.014,2.014,0,0,1,2.848,2.848l-1.711,1.711-2.624-3.072Z" transform="translate(-315.839 -227.494)" fill="#4b6276"/>
          </g>
          <g id="Grupo_1160556" data-name="Grupo 1160556" transform="translate(3.146 33.303)">
            <path id="Trazado_933318" data-name="Trazado 933318" d="M41.279,296.538a6.272,6.272,0,0,0-6.272,6.272v9.326a2.083,2.083,0,0,1-2.083,2.083A2.083,2.083,0,0,0,30.84,316.3v.022a2.083,2.083,0,0,0,2.083,2.083,6.25,6.25,0,0,0,6.25-6.25v-2.083L49.59,296.538Z" transform="translate(-30.84 -296.538)" fill="#f69500"/>
          </g>
          <g id="Grupo_1160557" data-name="Grupo 1160557" transform="translate(16.666 46.795)">
            <path id="Trazado_933319" data-name="Trazado 933319" d="M132.334,397.9v-4.211l-4.148,1.095v7.283H135.5v-1A3.165,3.165,0,0,0,132.334,397.9Z" transform="translate(-128.186 -393.688)" fill="#f69500"/>
          </g>
          <g id="Grupo_1160558" data-name="Grupo 1160558" transform="translate(11.479 33.303)">
            <path id="Trazado_933320" data-name="Trazado 933320" d="M99.691,296.539a7.81,7.81,0,0,0-7.81,7.81v1.56l-1.042,4.167,2.083,8.333h6.25v-1.037a3.129,3.129,0,0,0-3.129-3.129v-3.116h13.546v7.283h7.491v-1.281a2.908,2.908,0,0,0-2.908-2.908l1.087-3.094a18.539,18.539,0,0,0,5.8-.606l4.163-3.692V296.539Z" transform="translate(-90.839 -296.539)" fill="#fcad42"/>
          </g>
          <g id="Grupo_1160561" data-name="Grupo 1160561" transform="translate(16.683 40.463)">
            <g id="Grupo_1160559" data-name="Grupo 1160559" transform="translate(0 4.298)">
              <path id="Trazado_933321" data-name="Trazado 933321" d="M141.853,379.04h-9.058l-4.487,3.116c.1,0,.189.005.282.013h13.263Z" transform="translate(-128.307 -379.04)" fill="#f69500"/>
            </g>
            <g id="Grupo_1160560" data-name="Grupo 1160560" transform="translate(18.129 0)">
              <path id="Trazado_933322" data-name="Trazado 933322" d="M260.8,352.4q-.441,0-.878-.009l-1.087,3.094c.364,0,1.087.035,1.087.035a18.54,18.54,0,0,0,5.8-.606l4.163-3.692v-3.129l-1.635,1.45A11.278,11.278,0,0,1,260.8,352.4Z" transform="translate(-258.839 -348.092)" fill="#f69500"/>
            </g>
          </g>
          <g id="Grupo_1160564" data-name="Grupo 1160564" transform="translate(11.479 34.184)">
            <g id="Grupo_1160562" data-name="Grupo 1160562">
              <path id="Trazado_933323" data-name="Trazado 933323" d="M95.05,311.371v-1.56a7.744,7.744,0,0,1,.694-3.338c.066-1.2.248-2.393.344-3.591a7.808,7.808,0,0,0-4.208,6.929v1.56l-1.042,4.167,2.083,8.333h3.115l-2.083-8.333Z" transform="translate(-90.839 -302.882)" fill="#f69500"/>
            </g>
            <g id="Grupo_1160563" data-name="Grupo 1160563" transform="translate(18.75 8.493)">
              <path id="Trazado_933324" data-name="Trazado 933324" d="M225.839,364.03h3.17v12.5h-3.17Z" transform="translate(-225.839 -364.03)" fill="#f69500"/>
            </g>
          </g>
          <g id="Grupo_1160565" data-name="Grupo 1160565" transform="translate(41.7 43.592)">
            <path id="Trazado_933325" data-name="Trazado 933325" d="M312.6,378.017v-7.392l-4.163,3.692v7.889h7.278v-1.074A3.115,3.115,0,0,0,312.6,378.017Z" transform="translate(-308.435 -370.625)" fill="#f69500"/>
          </g>
          <g id="Grupo_1160566" data-name="Grupo 1160566" transform="translate(33.358 24.957)">
            <path id="Trazado_933326" data-name="Trazado 933326" d="M257.741,247.742l-.558.4a4.412,4.412,0,0,1-5.123.006l-.569-.4-3.12-.878V242.7a6.253,6.253,0,1,1,12.505,0v4.164Z" transform="translate(-248.371 -236.448)" fill="#fcad42"/>
          </g>
          <g id="Grupo_1160567" data-name="Grupo 1160567" transform="translate(6.357 9.437)">
            <path id="Trazado_933327" data-name="Trazado 933327" d="M54.566,129.7l.016.016a2.082,2.082,0,0,0,2.944,0l.5-.5.5.5a2.082,2.082,0,1,0,2.944-2.944l-1.079-1.079a3.371,3.371,0,0,0-4.767,0l-1.062,1.062A2.082,2.082,0,0,0,54.566,129.7Z" transform="translate(-53.956 -124.704)" fill="#f05475"/>
          </g>
        </g>
      </g>
      <g id="Grupo_1160570" data-name="Grupo 1160570" transform="translate(0 19.249)">
        <path id="Trazado_933328" data-name="Trazado 933328" d="M67.908,104.865v-.012A6.236,6.236,0,0,0,62.7,98.711v-8.92h1.4a6.881,6.881,0,0,0,6.873-6.873,5.226,5.226,0,0,0-4.238-5.751A5.131,5.131,0,0,0,64.9,73.246a12.132,12.132,0,0,0,.541-3.586c-.226-9.694-11.111-16.483-12.076-17.179-2.894,1.55-15.588,11.724-11.208,21.8a7.315,7.315,0,0,0-4.273.487l-.962-.962A3.071,3.071,0,0,0,31.7,75.965c-.072,1.475,1.184,2.442,2.115,3.381a9.812,9.812,0,0,0-.311,3.155H14.769a7.3,7.3,0,0,0-2.127.316V72.062a11.463,11.463,0,1,0-2.084,0V83.84a7.31,7.31,0,0,0-3.1,5.977v9.329a1.043,1.043,0,0,1-1.042,1.042,3.155,3.155,0,0,0-2.763,4.608A5.6,5.6,0,0,0,0,109.751v1.042H57.564v-2.084H2.255A3.627,3.627,0,0,1,5.609,106.5H65.778a3.254,3.254,0,0,1,3.076,2.206H59.648v2.084H71.109v-1.042A5.338,5.338,0,0,0,67.908,104.865ZM64.648,77.19a12.519,12.519,0,0,1-.425,2.131c.172-.015,1.557-.139,1.695-.136a3.138,3.138,0,0,1,2.968,3.733A4.8,4.8,0,0,1,64.1,87.707H62.7V82.4H60.615v5.3h-1.4a4.846,4.846,0,0,1-4.849-4.789V81.693a12.076,12.076,0,0,0,9.659-6.357,3.066,3.066,0,0,1,.621,1.853Zm-4.033,12.6V94a8.677,8.677,0,0,0-6.247-3.018v-3.2a6.851,6.851,0,0,0,4.849,2.007h1.4ZM53.361,55c6,3.927,16.516,16.19,4.567,23.553h0a9.846,9.846,0,0,1-3.56,1.052v-6.9l4.76-4.76-1.474-1.474L54.368,69.76V63.933H52.284v5.813L49.068,66.53,47.595,68l4.69,4.69v6.9a9.9,9.9,0,0,1-3.637-1.121A3.083,3.083,0,1,0,44.375,74.1c-4.142-7.894,5.288-16.644,8.986-19.1ZM48.036,80.5a11.974,11.974,0,0,0,4.248,1.185v9.469A8.726,8.726,0,0,0,48.1,93.317S48.172,81.7,48.036,80.5Zm-.516-3.849-.687.687a7.261,7.261,0,0,0-1.3-1.447l.615-.615A.973.973,0,0,1,47.52,76.653Zm-6.73-.416a5.237,5.237,0,0,1,5.225,5.212v3.375l-2.551.714c-1.874,1.524-3.465,1.518-5.338,0l-2.536-.713V81.449A5.221,5.221,0,0,1,40.79,76.237Zm-5.344-.959.626.626a7.364,7.364,0,0,0-1.3,1.449l-.7-.7a.972.972,0,0,1,1.375-1.375ZM2.223,60.65A9.377,9.377,0,1,1,11.6,70.027,9.388,9.388,0,0,1,2.223,60.65Zm4.189,43.727a1.043,1.043,0,0,1-1.042-1.042v-.022a1.043,1.043,0,0,1,1.042-1.042,3.129,3.129,0,0,0,3.126-3.126V89.817a5.238,5.238,0,0,1,5.232-5.232H15.82a8.837,8.837,0,0,0-3.157,6.771v1.432l-1.042,4.424v1.956a5.216,5.216,0,0,1-5.21,5.21Zm5.053.043a7.33,7.33,0,0,0,1.464-1.982l.5,1.982Zm9.494-2.836a4.176,4.176,0,0,0-2.048-1.242V99.1a6.171,6.171,0,0,0,2.048-.721Zm1.082,2.794a4.142,4.142,0,0,0-.564-2.084H22a2.126,2.126,0,0,1,2.123,2.084Zm8.336.043H26.208v0a4.215,4.215,0,0,0-3.166-4.077V99.176h7.334Zm7.307-.043H32.46V92.916H30.376v4.177H22.593a6.332,6.332,0,0,0,1.531-4.134H22.041a4.139,4.139,0,0,1-4.134,4.134h-1.08v5.2h1.042a2.091,2.091,0,0,1,2.088,2.084h-4.4l-1.823-7.294,1.01-4.039V91.355a6.749,6.749,0,0,1,2.08-4.875v4.352h2.084V85.107a6.722,6.722,0,0,1,2.1-.5v6.226H23.1V84.585h2.1v6.247h2.084V84.585h2.066v6.247h2.084V84.585h2.075V86.4l3.707,1.043a5.586,5.586,0,0,0,7.165,0l1.637-.458v3.2a6.956,6.956,0,0,1-7.458,6.9l1.338-3.833-1.967-.687-3.392,9.721H36a1.756,1.756,0,0,1,1.681,2.084Zm4.2.043H39.767v-.446a3.771,3.771,0,0,0-2.388-3.5l.451-1.294h1.285a8.948,8.948,0,0,0,2.763-.437Zm7.253-.043H43.962V97.751a9.053,9.053,0,0,0,2.053-1.813v6.355h1.042a2.076,2.076,0,0,1,2.074,2.074Zm2.084.043a4.228,4.228,0,0,0-3.116-4.079V96.753a6.606,6.606,0,0,1,12.516,2.414h0c.013.166.021,1.544.021,1.544h1.042a4.148,4.148,0,0,1,4.12,3.709Z" transform="translate(0 -45.031)"/>
        <path id="Trazado_933329" data-name="Trazado 933329" d="M277.569,276.758V274h-2.083v1.412l-1.047.475-1.037-.473V274h-2.083v2.753l3.118,1.424Z" transform="translate(-233.637 -238.622)"/>
        <path id="Trazado_933330" data-name="Trazado 933330" d="M53.847,124.915a3.133,3.133,0,0,0,2.209-5.331l-1.079-1.079a4.417,4.417,0,0,0-6.24,0l-1.062,1.062a3.138,3.138,0,0,0,4.2,4.646A3.114,3.114,0,0,0,53.847,124.915Zm-4.68-2.383c-.967-1.05.418-1.845,1.043-2.553a2.332,2.332,0,0,1,3.294,0c.612.7,2.016,1.5,1.079,2.55a1.041,1.041,0,0,1-1.471,0l-1.238-1.238-1.238,1.238A1.04,1.04,0,0,1,49.168,122.532Z" transform="translate(-40.255 -103.609)"/>
        <path id="Trazado_933331" data-name="Trazado 933331" d="M91.072,87.052h2.083v2.083H91.072Z" transform="translate(-78.423 -77.635)"/>
        <path id="Trazado_933332" data-name="Trazado 933332" d="M61.072,87.052h2.083v2.083H61.072Z" transform="translate(-52.59 -77.635)"/>
        <path id="Trazado_933333" data-name="Trazado 933333" d="M31.072,109.552h2.083v2.083H31.072Z" transform="translate(-26.757 -97.01)"/>
        <path id="Trazado_933334" data-name="Trazado 933334" d="M121.072,109.552h2.083v2.083h-2.083Z" transform="translate(-104.257 -97.01)"/>
        <path id="Trazado_933335" data-name="Trazado 933335" d="M203.885,97.677h2.083a1.042,1.042,0,1,1,2.083,0h2.083a1.042,1.042,0,1,1,2.083,0H214.3a3.123,3.123,0,0,0-5.208-2.327,3.123,3.123,0,0,0-5.208,2.327Z" transform="translate(-175.568 -84.094)"/>
        <path id="Trazado_933336" data-name="Trazado 933336" d="M146.848,21.332a1.043,1.043,0,0,1,1.042,1.042h2.083a1.042,1.042,0,0,1,2.083,0h2.083a3.123,3.123,0,0,0-5.208-2.327,3.123,3.123,0,0,0-5.208,2.327h2.083A1.043,1.043,0,0,1,146.848,21.332Z" transform="translate(-123.762 -19.249)"/>
        <path id="Trazado_933337" data-name="Trazado 933337" d="M252.01,51.332a1.043,1.043,0,0,1,1.042,1.042h2.083a1.042,1.042,0,1,1,2.083,0H259.3a3.123,3.123,0,0,0-5.208-2.327,3.123,3.123,0,0,0-5.208,2.327h2.083A1.043,1.043,0,0,1,252.01,51.332Z" transform="translate(-214.318 -45.082)"/>
        <path id="Trazado_933339" data-name="Trazado 933339" d="M252.01,51.332a1.043,1.043,0,0,1,1.042,1.042h2.083a1.042,1.042,0,1,1,2.083,0H259.3a3.123,3.123,0,0,0-5.208-2.327,3.123,3.123,0,0,0-5.208,2.327h2.083A1.043,1.043,0,0,1,252.01,51.332Z" transform="translate(-278.318 -34.623)"/>
        <path id="Trazado_933338" data-name="Trazado 933338" d="M252.01,51.332a1.043,1.043,0,0,1,1.042,1.042h2.083a1.042,1.042,0,1,1,2.083,0H259.3a3.123,3.123,0,0,0-5.208-2.327,3.123,3.123,0,0,0-5.208,2.327h2.083A1.043,1.043,0,0,1,252.01,51.332Z" transform="translate(-167.318 -45.091)"/>
      </g>
    </g>
  </g>
</svg>
