<svg xmlns="http://www.w3.org/2000/svg" width="64" height="64" viewBox="0 0 64 64">
  <g id="Grupo_1185173" data-name="Grupo 1185173" transform="translate(-179.742 -3188)">
    <rect id="Rectángulo_439030" data-name="Rectángulo 439030" width="64" height="64" rx="5" transform="translate(179.742 3188)" fill="#fbbdb7"/>
    <g id="Grupo_1185172" data-name="Grupo 1185172" transform="translate(189.058 3199.678)">
      <g id="Grupo_1185170" data-name="Grupo 1185170" transform="translate(0.674 0.674)">
        <g id="Grupo_1185169" data-name="Grupo 1185169" transform="translate(0 0)">
          <path id="Trazado_951921" data-name="Trazado 951921" d="M55.214,60.5C55.214,71.164,48.2,78,37.529,78c-6.713,0-12.625-1.611-16.086-6.808a19.26,19.26,0,0,1-1.9-3.636,17.794,17.794,0,0,1-.27-3.636c0-2.19,0-7.714.673-9.677.574-1.676,1.663-4.68,1.663-4.68a19.425,19.425,0,0,1,3.609-3.944,18.537,18.537,0,0,0,2.972-1.13,19.211,19.211,0,0,1,4.037-1.823,8.675,8.675,0,0,0,1.983-1.193,18.217,18.217,0,0,1,3.318-.284A19.222,19.222,0,0,1,48.22,44.412C53.417,47.873,55.214,53.786,55.214,60.5Z" transform="translate(-18.216 -41.185)" fill="#8ac9fe"/>
          <path id="Trazado_951922" data-name="Trazado 951922" d="M70.17,77.081a19.2,19.2,0,0,1,3,7.7,19.329,19.329,0,0,1-19.082,22.306,19.223,19.223,0,0,1-10.691-3.227,19.319,19.319,0,0,0,33.66-2.671,7.044,7.044,0,0,1,.11-2.075,19.234,19.234,0,0,0,.723-5.945,19.279,19.279,0,0,0-.558-5.408,8.738,8.738,0,0,1-.122-2.267A19.387,19.387,0,0,0,70.17,77.081Z" transform="translate(-40.166 -73.854)" fill="#60b7ff"/>
          <g id="Grupo_1185166" data-name="Grupo 1185166" transform="translate(7.004 0.285)">
            <path id="Trazado_951923" data-name="Trazado 951923" d="M96.644,48.4l-.316,1.839A2.663,2.663,0,0,1,95.011,52.1l-1.615.91a1.774,1.774,0,0,0-.892,1.742l.235,2.115a1.451,1.451,0,0,1-2.632.99l-1.768-2.539a1.775,1.775,0,0,1-.274-1.41l.572-2.5a1.774,1.774,0,0,0-1.084-2.048L85.4,48.5a19.231,19.231,0,0,1,8.992-4.146l1.62,1.828A2.665,2.665,0,0,1,96.644,48.4Z" transform="translate(-85.399 -44.35)" fill="#bbec6c"/>
            <path id="Trazado_951924" data-name="Trazado 951924" d="M235.475,133.438a1.518,1.518,0,0,1-.2,2.3l-1.266.9a1.518,1.518,0,0,1-1.529.134l-.911-.431a1.518,1.518,0,0,1-.868-1.372v-.05a1.518,1.518,0,0,1,1.232-1.491l2.177-.418A1.518,1.518,0,0,1,235.475,133.438Z" transform="translate(-217.635 -125.016)" fill="#bbec6c"/>
            <path id="Trazado_951925" data-name="Trazado 951925" d="M273.14,167.776a15,15,0,0,1-1.307,7.1l-5.167-1.42a4.331,4.331,0,0,0-1.551-.082c-.024,0-.056.036-.079.035a4.945,4.945,0,0,0-3.034.917l-.04.029a1.7,1.7,0,0,1-2.053-.058l-1.485-1.194a1.775,1.775,0,0,1-.506-2.111l1.144-2.548a1.774,1.774,0,0,1,1.5-1.043l2.849-.192a2.456,2.456,0,0,0,2.261-2.066.181.181,0,0,0-.105-.195l-1.74-.76a1.923,1.923,0,0,1-.745-2.947l.86-1.1a2.816,2.816,0,0,1,2.709-1.038l1.612.284,3.394.944A18.079,18.079,0,0,1,273.14,167.776Z" transform="translate(-242.265 -148.747)" fill="#bbec6c"/>
          </g>
          <path id="Trazado_951926" data-name="Trazado 951926" d="M347.52,170.5a19.283,19.283,0,0,0-1.576-7.084l-4.04-.713a19.388,19.388,0,0,1-3.225,14.021c1.153-.08,7.112,2.387,7.112,2.387s.137-.307.2-.462A19.32,19.32,0,0,0,347.52,170.5Z" transform="translate(-308.903 -151.778)" fill="#b1dd50"/>
          <path id="Trazado_951927" data-name="Trazado 951927" d="M19.712,146.047a1.778,1.778,0,0,1-1.591,1.768,1.791,1.791,0,0,0-1.582,1.513l-.076.5a1.775,1.775,0,0,1-2.323,1.415l-1.127-.382a2.528,2.528,0,0,0-2.122.234l-2.06,1.235a19.346,19.346,0,0,1,2.065-17.993l.383,2.831a2.885,2.885,0,0,0,2.609,2.542l.045,0a2.949,2.949,0,0,1,2.149,1.228l1.472,2.071a9.273,9.273,0,0,0,1.536,1.68,1.779,1.779,0,0,1,.623,1.353Z" transform="translate(-7.5 -125.962)" fill="#bbec6c"/>
          <path id="Trazado_951928" data-name="Trazado 951928" d="M136.224,326.489l.285-1.97a1.993,1.993,0,0,1,.434-.981l.216-.262a1.992,1.992,0,0,0-.093-2.638l-1.33-1.4a1.993,1.993,0,0,0-1.928-.561l-2.859.715a1.992,1.992,0,0,0-1.449,1.447l-.194.772a1.992,1.992,0,0,0,.818,2.138l1.023.69a1.992,1.992,0,0,1,.784,1.046l.424,1.328q.014.044.03.087c.327.883,1.787.889,2.172.845C135,327.744,136.1,327.356,136.224,326.489Z" transform="translate(-118.299 -293.674)" fill="#bbec6c"/>
          <path id="Trazado_951929" data-name="Trazado 951929" d="M164.178,406.593a1.992,1.992,0,0,0,3.838-.412v0A19.4,19.4,0,0,1,164.178,406.593Z" transform="translate(-150.092 -373.363)" fill="#b1dd50"/>
          <g id="Grupo_1185168" data-name="Grupo 1185168" transform="translate(28.622 18.142)">
            <path id="Trazado_951930" data-name="Trazado 951930" d="M333.7,263.148l-1.915-.988-1.241-.794a10.151,10.151,0,0,1-4.68-8.551v-6.655a.36.36,0,0,1,.3-.355l1.133-.189a15.579,15.579,0,0,0,5.568-2.077l.842-.515a.36.36,0,0,1,.375,0l.842.515a15.577,15.577,0,0,0,4.933,1.958c.211.044.172.285.385.32l1.133.189a.36.36,0,0,1,.3.355l-.03,6.3a9.917,9.917,0,0,1-4.573,8.448l-2.983,2.044A.36.36,0,0,1,333.7,263.148Z" transform="translate(-325.859 -242.971)" fill="#f9f7f8"/>
            <path id="Trazado_951931" data-name="Trazado 951931" d="M400.109,271.362l-1.133-.189c-.213-.035-.424-.076-.635-.12v5.987a10.151,10.151,0,0,1-4.659,8.537l-3.156,2.03a.381.381,0,0,1-.4.019l2.08,1.331a.359.359,0,0,0,.388,0l3.156-2.03a10.151,10.151,0,0,0,4.659-8.537v-6.672A.36.36,0,0,0,400.109,271.362Z" transform="translate(-384.349 -268.528)" fill="#efedef"/>
            <g id="Grupo_1185167" data-name="Grupo 1185167" transform="translate(3.217 4.994)">
              <path id="Trazado_951932" data-name="Trazado 951932" d="M392.545,302.627a2.085,2.085,0,0,0,1.931,2.312,2.146,2.146,0,0,0,1.91-2.533c-.021-.29.189-.579.1-.86a8.36,8.36,0,0,0-1.889-2.977.179.179,0,0,0-.259,0,8.358,8.358,0,0,0-1.888,2.977C392.342,301.9,392.545,302.264,392.545,302.627Z" transform="translate(-389.652 -298.514)" fill="#b1dd50"/>
              <path id="Trazado_951933" data-name="Trazado 951933" d="M391,332.241a3.657,3.657,0,0,0-.176,1.081,2.558,2.558,0,0,0,2.2,2.582c1.283,0,2.27-1.523,2.179-2.8a3.821,3.821,0,0,0-.168-.861,6,6,0,0,0-1.78.847.4.4,0,0,1-.475,0A6.007,6.007,0,0,0,391,332.241Z" transform="translate(-388.199 -329.209)" fill="#9ed146"/>
              <path id="Trazado_951934" data-name="Trazado 951934" d="M365.781,343.231a1.84,1.84,0,0,1-.067,2.723,1.757,1.757,0,0,1-2.776-.059c-.1-.119-.353-.248-.435-.38a7.435,7.435,0,0,1-.86-3.451.179.179,0,0,1,.183-.183,7.388,7.388,0,0,1,3.481.879A2.876,2.876,0,0,1,365.781,343.231Z" transform="translate(-361.643 -337.983)" fill="#bbec6c"/>
              <path id="Trazado_951935" data-name="Trazado 951935" d="M374.565,352.1a3.2,3.2,0,0,0-.553-.438,2.038,2.038,0,0,1-2.8,2.754,3.424,3.424,0,0,0,.27.377,2.1,2.1,0,0,0,3.083.211A2.051,2.051,0,0,0,374.565,352.1Z" transform="translate(-370.348 -346.883)" fill="#b1dd50"/>
              <path id="Trazado_951936" data-name="Trazado 951936" d="M415.827,343.78a2.051,2.051,0,0,0-.438,2.252c.1.237.374.385.568.578a1.843,1.843,0,0,0,2.843-.3,6.018,6.018,0,0,0,1.111-3.552.179.179,0,0,0-.183-.183,3.724,3.724,0,0,0-.837-.043A5.409,5.409,0,0,0,415.827,343.78Z" transform="translate(-410.409 -338.564)" fill="#bbec6c"/>
              <path id="Trazado_951937" data-name="Trazado 951937" d="M421.51,341.882a9.329,9.329,0,0,0-.969.073,5.764,5.764,0,0,1-1.056,2.858,2.138,2.138,0,0,1-2.446.638,2.046,2.046,0,0,0,.442.652,2.1,2.1,0,0,0,3.083-.211,6.812,6.812,0,0,0,1.13-3.828A.179.179,0,0,0,421.51,341.882Z" transform="translate(-412.058 -337.983)" fill="#b1dd50"/>
            </g>
          </g>
        </g>
      </g>
      <g id="Grupo_1185171" data-name="Grupo 1185171" transform="translate(0 0)">
        <path id="Trazado_951938" data-name="Trazado 951938" d="M227.148,125.522l-2.177.418a2.227,2.227,0,0,0-.525,4.184l.911.431a2.194,2.194,0,0,0,2.208-.194l1.266-.9a2.192,2.192,0,0,0-1.683-3.94Zm1.254,2.227a.832.832,0,0,1-.352.614l-1.266.9a.844.844,0,0,1-.85.075l-.911-.431a.878.878,0,0,1,.2-1.641l2.177-.418a.843.843,0,0,1,.761.237.832.832,0,0,1,.239.666Z" transform="translate(-203.126 -117.229)"/>
        <path id="Trazado_951939" data-name="Trazado 951939" d="M129.4,311.95a2.671,2.671,0,0,0-2.58-.751l-2.859.715a2.662,2.662,0,0,0-1.939,1.936l-.194.772a2.674,2.674,0,0,0,1.095,2.861l1.023.69a1.322,1.322,0,0,1,.519.692l.424,1.328a2.652,2.652,0,0,0,2.532,1.857,2.718,2.718,0,0,0,.415-.032,2.652,2.652,0,0,0,2.233-2.254l.286-1.974a1.317,1.317,0,0,1,.287-.649l.216-.262a2.67,2.67,0,0,0-.125-3.531Zm.413,4.074-.216.262a2.666,2.666,0,0,0-.581,1.313l-.286,1.974a1.318,1.318,0,0,1-2.56.212l-.424-1.328a2.678,2.678,0,0,0-1.049-1.4l-1.023-.69a1.322,1.322,0,0,1-.541-1.414l.194-.772a1.316,1.316,0,0,1,.958-.957l2.859-.715a1.319,1.319,0,0,1,1.275.371l1.33,1.4A1.32,1.32,0,0,1,129.818,316.025Z" transform="translate(-110.804 -286.177)"/>
        <path id="Trazado_951940" data-name="Trazado 951940" d="M45.168,54.67l-1.132-.189a14.831,14.831,0,0,1-4.067-1.3,20.187,20.187,0,0,0-.2-2.377A.674.674,0,1,0,38.436,51c.067.468.115.942.146,1.417l-.715-.438a1.03,1.03,0,0,0-1.079,0l-.842.515a14.835,14.835,0,0,1-5.327,1.987l-1.133.189a1.031,1.031,0,0,0-.864,1.02v3.192a5.6,5.6,0,0,0-1.639.82,1.03,1.03,0,0,1-1.239-.036L24.26,58.473a1.1,1.1,0,0,1-.314-1.309l1.145-2.547a1.1,1.1,0,0,1,.93-.647l2.849-.193a3.123,3.123,0,0,0,2.9-2.812.674.674,0,0,0-.4-.685l-1.863-.813a1.249,1.249,0,0,1-.485-1.913l.86-1.1a2.137,2.137,0,0,1,2.061-.789l5.268.934.021,0c.193.47.369.947.523,1.432a.674.674,0,0,0,1.286-.408A20.018,20.018,0,0,0,23.805,34.05a.674.674,0,0,0-.256,1.324,18.67,18.67,0,0,1,13,9.737l-4.365-.774a3.482,3.482,0,0,0-3.358,1.286l-.86,1.1A2.6,2.6,0,0,0,28.97,50.7l1.352.59a1.777,1.777,0,0,1-1.544,1.138l-2.849.193a2.444,2.444,0,0,0-2.069,1.44l-1.145,2.547a2.45,2.45,0,0,0,.7,2.913L24.9,60.717a2.383,2.383,0,0,0,2.867.082,4.29,4.29,0,0,1,.856-.484v2.029a10.9,10.9,0,0,0,.082,1.334.674.674,0,0,0,1.338-.166,9.518,9.518,0,0,1-.072-1.168V55.956l.87-.145a16.176,16.176,0,0,0,5.809-2.167l.678-.415.678.415a16.179,16.179,0,0,0,5.809,2.167l.87.145v6.405a9.438,9.438,0,0,1-4.35,7.97l-2.986,1.921L34.34,70.327a9.463,9.463,0,0,1-3.484-3.984.674.674,0,1,0-1.223.569A10.831,10.831,0,0,0,30.8,68.855a18.465,18.465,0,0,1-10.812,3.455,18.666,18.666,0,0,1-17.131-11.3l1.557-.945A1.85,1.85,0,0,1,5.969,59.9l1.127.381A2.449,2.449,0,0,0,10.3,58.327l.076-.5a1.118,1.118,0,0,1,.987-.944,2.453,2.453,0,0,0,1.335-4.3,8.608,8.608,0,0,1-1.425-1.558L9.8,48.949a3.626,3.626,0,0,0-2.639-1.51,2.273,2.273,0,0,1-2.048-2l-.3-2.609a18.6,18.6,0,0,1,2.97-3.255l1.8.7a1.107,1.107,0,0,1,.672,1.27l-.572,2.5A2.453,2.453,0,0,0,10.063,46l1.769,2.539a2.125,2.125,0,0,0,3.856-1.45l-.235-2.116a1.1,1.1,0,0,1,.553-1.08l1.614-.91a3.323,3.323,0,0,0,1.65-2.341l.316-1.839a3.318,3.318,0,0,0-.791-2.778l-.781-.89a18.926,18.926,0,0,1,1.972-.1c.18,0,.361,0,.539.008a.674.674,0,1,0,.038-1.348c-.191-.005-.385-.008-.577-.008A19.994,19.994,0,0,0,1.194,46.852a.674.674,0,1,0,1.268.46,18.687,18.687,0,0,1,1.207-2.657l.109.943a3.627,3.627,0,0,0,3.268,3.185,2.279,2.279,0,0,1,1.66.948L10.177,51.8a9.96,9.96,0,0,0,1.648,1.8,1.1,1.1,0,0,1-.6,1.937,2.467,2.467,0,0,0-2.179,2.082l-.076.5A1.1,1.1,0,0,1,7.529,59L6.4,58.62a3.2,3.2,0,0,0-2.688.3l-1.352.82a18.56,18.56,0,0,1-1.013-6.063,18.809,18.809,0,0,1,.313-3.419.674.674,0,0,0-1.326-.246A20.166,20.166,0,0,0,0,53.672,19.989,19.989,0,0,0,31.68,69.884a10.826,10.826,0,0,0,1.933,1.58L36.791,73.5a1.037,1.037,0,0,0,1.117,0l3.156-2.03a10.781,10.781,0,0,0,4.969-9.1V55.689a1.031,1.031,0,0,0-.864-1.02Zm-28.741-19.3,1.358,1.547a1.978,1.978,0,0,1,.473,1.657l-.316,1.839a1.98,1.98,0,0,1-.983,1.395l-1.614.91a2.445,2.445,0,0,0-1.232,2.4l.235,2.116a.777.777,0,0,1-.772.862.777.777,0,0,1-.637-.333L11.17,45.23a1.1,1.1,0,0,1-.17-.874l.572-2.5a2.464,2.464,0,0,0-1.5-2.826L9.008,38.61a18.477,18.477,0,0,1,7.419-3.238Z" transform="translate(0 -33.685)"/>
        <path id="Trazado_951941" data-name="Trazado 951941" d="M359.5,299.522c.043-.043.084-.088.124-.133a2.727,2.727,0,0,0,3.978.133c1.568-1.568,1.518-4.582,1.515-4.71a.674.674,0,0,0-.659-.659,9.554,9.554,0,0,0-2.026.211,8.579,8.579,0,0,0-2.341-4,.674.674,0,0,0-.932,0,8.58,8.58,0,0,0-2.341,4,9.574,9.574,0,0,0-2.026-.212.674.674,0,0,0-.659.659c0,.127-.053,3.142,1.515,4.71a2.728,2.728,0,0,0,3.853,0Zm3.147-.954a1.376,1.376,0,0,1-1.946-1.946,5.238,5.238,0,0,1,3.038-1.092A5.236,5.236,0,0,1,362.645,298.568Zm-3.582-6c.2-.281.392-.528.561-.726a6.152,6.152,0,0,1,1.5,2.925,4.176,4.176,0,0,0-1.5,1.032,4.176,4.176,0,0,0-1.5-1.032,5,5,0,0,1,.946-2.2Zm-3.557,2.959a5.238,5.238,0,0,1,3.038,1.092,1.376,1.376,0,0,1-1.946,1.946A5.237,5.237,0,0,1,355.506,295.53Z" transform="translate(-322.291 -267.119)"/>
      </g>
    </g>
  </g>
</svg>
