<svg xmlns="http://www.w3.org/2000/svg" width="220" height="60" viewBox="0 0 220 60">
  <g id="Grupo_1185217" data-name="Grupo 1185217" transform="translate(-314.742 -861)">
    <g id="Grupo_1185001" data-name="Grupo 1185001">
      <rect id="Rectángulo_438963" data-name="Rectángulo 438963" width="60" height="60" rx="10" transform="translate(314.742 861)" fill="#9fcdc8"/>
      <g id="Grupo_1184998" data-name="Grupo 1184998" transform="translate(324.121 862.848)">
        <g id="Grupo_1184997" data-name="Grupo 1184997" transform="translate(0 8.387)">
          <path id="Trazado_949950" data-name="Trazado 949950" d="M41.469,8.838A.63.63,0,0,0,40.9,8.4a35.41,35.41,0,0,0-9.924,1.23,39.291,39.291,0,0,0-12.6,5.643.63.63,0,0,0,.72,1.035,38.016,38.016,0,0,1,12.191-5.457,41.214,41.214,0,0,1,5.066-.96c-.676.292-1.4.633-2.153,1.033a23.041,23.041,0,0,0-9.515,8.944,12.849,12.849,0,0,1-.264-2.469.63.63,0,0,0-1.26,0,10.968,10.968,0,0,0,.726,4.036c-.97,2.072-1.878,4.143-2.756,6.148q-.559,1.278-1.1,2.511a10.078,10.078,0,0,1-1.111-5.537.63.63,0,1,0-1.256-.1A11.106,11.106,0,0,0,19.4,31.5a66.4,66.4,0,0,1-3.327,6.58,17.2,17.2,0,0,1-1.509-6.694.63.63,0,0,0-1.26,0,18.528,18.528,0,0,0,1.971,7.959,13.363,13.363,0,0,1-4.086,4.21C6.6,38.578,6.151,29.234,14.162,20.582a29.675,29.675,0,0,1,2.971-2.79.63.63,0,0,0-.8-.975,30.976,30.976,0,0,0-3.1,2.909C4.787,28.852,5.263,38.8,10.109,44.249a20.254,20.254,0,0,1-9.5,3.019.63.63,0,0,0,.017,1.26H.647A21.032,21.032,0,0,0,11.02,45.153,9.819,9.819,0,0,0,17.2,46.967a20.868,20.868,0,0,0,10.227-2.993,16.207,16.207,0,0,0,7.273-8.9A27.171,27.171,0,0,0,35.88,23.3c-.781-7.7,2.126-11.168,5.384-13.775A.631.631,0,0,0,41.469,8.838ZM35.9,13.993a17.4,17.4,0,0,0-1.276,9.435,25.914,25.914,0,0,1-1.113,11.217A14.98,14.98,0,0,1,26.8,42.88a19.554,19.554,0,0,1-9.4,2.826,9.2,9.2,0,0,1-5.24-1.271,12.8,12.8,0,0,0,2.878-2.659H15.2a27.69,27.69,0,0,0,3.132-.186,14.635,14.635,0,0,0,6.377-2,.63.63,0,1,0-.7-1.049c-2.326,1.551-6.073,1.888-8.007,1.954a43.892,43.892,0,0,0,3.469-6.173,11.129,11.129,0,0,0,6.771-2.445.63.63,0,0,0-.786-.986,10.034,10.034,0,0,1-5.378,2.138c.727-1.572,1.453-3.232,2.2-4.942.387-.883.779-1.779,1.18-2.681l.137,0a8.328,8.328,0,0,0,4.921-1.772.63.63,0,0,0-.75-1.013,7.644,7.644,0,0,1-3.228,1.439c-.185.032-.355.052-.508.065q.551-1.223,1.127-2.45a21.72,21.72,0,0,1,9.594-9.625,28.514,28.514,0,0,1,3.618-1.611A13.742,13.742,0,0,0,35.9,13.993Z" transform="translate(0 -8.387)" fill="#128477"/>
        </g>
      </g>
    </g>
    <g id="Grupo_1185002" data-name="Grupo 1185002" transform="translate(-20)">
      <rect id="Rectángulo_438964" data-name="Rectángulo 438964" width="60" height="60" rx="10" transform="translate(414.742 861)" fill="#9fcdc8"/>
      <g id="Grupo_1185000" data-name="Grupo 1185000" transform="translate(422.683 831.042)">
        <g id="Grupo_1184999" data-name="Grupo 1184999" transform="translate(0.001 41.473)">
          <path id="Trazado_949951" data-name="Trazado 949951" d="M117.323,53.635c0-.285-.011-.575-.031-.864l1.841-6.872a1.293,1.293,0,0,0-1.583-1.583l-3.562.955a12.157,12.157,0,0,0-17.653,0l-3.562-.955A1.293,1.293,0,0,0,91.189,45.9l.469,1.752a.646.646,0,0,0,1.248-.335l-.469-1.752,7,1.875a4.182,4.182,0,0,1,2.3,6.505l-4.261-4.261a.646.646,0,0,0-.914.914l4.261,4.261a4.182,4.182,0,0,1-6.5-2.3l-.625-2.332a.646.646,0,1,0-1.248.335l.591,2.207c-.02.289-.031.579-.031.864a12.162,12.162,0,1,0,24.324,0Zm.561-8.071h0l-1.875,7a4.182,4.182,0,0,1-6.505,2.3l4.261-4.261a.646.646,0,0,0-.914-.914l-4.261,4.261a4.182,4.182,0,0,1,2.3-6.505l3.056-.819.009,0Zm-14.243,4.5a5.419,5.419,0,0,0-3.871-3.872l-1.989-.533a10.862,10.862,0,0,1,14.761,0l-1.989.533a5.476,5.476,0,0,0-2.885,8.677l-2.507,2.507-2.507-2.507A5.411,5.411,0,0,0,103.641,50.062ZM94.419,55.3a5.458,5.458,0,0,0,2.517,1.469,5.569,5.569,0,0,0,1.442.192,5.389,5.389,0,0,0,3.362-1.179l2.775,2.775v5.929A10.889,10.889,0,0,1,94.419,55.3Zm11.388,9.185V58.556l2.775-2.775a5.388,5.388,0,0,0,3.363,1.179,5.565,5.565,0,0,0,1.442-.192A5.458,5.458,0,0,0,115.9,55.3,10.889,10.889,0,0,1,105.807,64.485Z" transform="translate(-83.291 -41.473)" fill="#128477"/>
          <path id="Trazado_949952" data-name="Trazado 949952" d="M354.825,155.343a1.955,1.955,0,0,0-1.389-.573h-.009a3.847,3.847,0,0,0-3.821,3.839v.317a.646.646,0,1,0,1.292,0v-.317a2.552,2.552,0,0,1,2.534-2.547.672.672,0,0,1,.677.669v11.156a2.852,2.852,0,0,1-.841,2.03l-5.735,5.735a2.7,2.7,0,0,0-.8,1.92v3.112h-4.809V173a2.646,2.646,0,0,1,.78-1.884l6.4-6.4a.265.265,0,0,1,.373,0h0l0,0a2.131,2.131,0,0,1,0,3.01l-2.77,2.77a.646.646,0,0,0,.914.914l2.77-2.77a3.427,3.427,0,0,0,.5-4.2v-2.5a.646.646,0,1,0-1.292,0v1.441a1.562,1.562,0,0,0-1.414.426l-6.4,6.4a3.93,3.93,0,0,0-1.159,2.8v7.866a1.109,1.109,0,0,0,1.108,1.108h5.178a1.109,1.109,0,0,0,1.108-1.108v-3.3a1.413,1.413,0,0,1,.417-1.006l5.735-5.735a4.137,4.137,0,0,0,1.22-2.944V156.731A1.946,1.946,0,0,0,354.825,155.343Z" transform="translate(-311.286 -145.008)" fill="#128477"/>
          <path id="Trazado_949953" data-name="Trazado 949953" d="M13.608,170.2l-6.4-6.4a1.561,1.561,0,0,0-1.414-.426v-4.773a3.847,3.847,0,0,0-3.821-3.839H1.967A1.964,1.964,0,0,0,0,156.73v11.156a4.137,4.137,0,0,0,1.22,2.944l1.6,1.6a.646.646,0,1,0,.914-.914l-1.6-1.6a2.853,2.853,0,0,1-.841-2.03V156.73a.672.672,0,0,1,.677-.669A2.552,2.552,0,0,1,4.5,158.608v5.836a3.427,3.427,0,0,0,.5,4.2l2.77,2.77a.646.646,0,0,0,.914-.914l-2.77-2.77a2.144,2.144,0,0,1-.6-1.8,2.226,2.226,0,0,1,.306-.859c.123-.2.416-.6.674-.347l6.4,6.4a2.647,2.647,0,0,1,.78,1.884v7.682H8.665v-3.112a2.7,2.7,0,0,0-.8-1.92l-2-2a.646.646,0,1,0-.914.914l2,2a1.413,1.413,0,0,1,.417,1.006v3.3a1.109,1.109,0,0,0,1.108,1.108h5.178a1.109,1.109,0,0,0,1.108-1.108V173a3.931,3.931,0,0,0-1.159-2.8Z" transform="translate(-0.001 -145.007)" fill="#128477"/>
        </g>
      </g>
    </g>
    <g id="Grupo_1185003" data-name="Grupo 1185003" transform="translate(60)">
      <rect id="Rectángulo_438964-2" data-name="Rectángulo 438964" width="60" height="60" rx="10" transform="translate(414.742 861)" fill="#9fcdc8"/>
      <g id="Grupo_1185005" data-name="Grupo 1185005" transform="translate(332.201 869.118)">
        <g id="Grupo_1185004" data-name="Grupo 1185004" transform="translate(99.133 0)">
          <path id="Trazado_949954" data-name="Trazado 949954" d="M117.687,25.831a3.739,3.739,0,0,0,2.046-2.034c.032,0,.063,0,.095,0a3.105,3.105,0,0,0,3.1-3.2,3.8,3.8,0,0,0,2.043-4.931l.052-.049a3.106,3.106,0,0,0-.052-4.473,3.8,3.8,0,0,0-2.042-4.931,3.105,3.105,0,0,0-3.1-3.2c-.032,0-.063,0-.095,0A3.8,3.8,0,0,0,114.8.977a3.1,3.1,0,0,0-4.522,0A3.8,3.8,0,0,0,105.35,3.02c-.032,0-.063,0-.095,0a3.105,3.105,0,0,0-3.1,3.2,3.8,3.8,0,0,0-2.042,4.931,3.1,3.1,0,0,0,0,4.522,3.8,3.8,0,0,0,2.042,4.931,3.105,3.105,0,0,0,3.1,3.2c.032,0,.063,0,.095,0a3.739,3.739,0,0,0,2.046,2.034,3.815,3.815,0,0,0,1.463.295,3.7,3.7,0,0,0,1.423-.286,3.085,3.085,0,0,0,1.62.91V43.123a.641.641,0,0,0,1.282,0V26.75a3.084,3.084,0,0,0,1.62-.91,3.7,3.7,0,0,0,1.423.286,3.815,3.815,0,0,0,1.463-.295Zm3.429-3.848a1.824,1.824,0,0,1-2.83-.311l-2.777-4.364a4.947,4.947,0,0,0,.932-.932l4.364,2.777a1.824,1.824,0,0,1,.31,2.83Zm-12.2-8.575a3.621,3.621,0,1,1,3.621,3.621A3.626,3.626,0,0,1,108.92,13.408Zm-8.5,0a1.825,1.825,0,0,1,1.82-1.826,1.846,1.846,0,0,1,.4.044l5.048,1.122a4.79,4.79,0,0,0,0,1.319l-5.048,1.122a1.844,1.844,0,0,1-.4.044,1.825,1.825,0,0,1-1.82-1.825Zm24.253,0a1.826,1.826,0,0,1-1.82,1.825,1.846,1.846,0,0,1-.4-.044L117.4,14.068a4.789,4.789,0,0,0,0-1.319l5.048-1.122a1.845,1.845,0,0,1,.4-.044,1.825,1.825,0,0,1,1.82,1.825Zm-.888,4.655a2.479,2.479,0,0,1-1.159,1.269,3.094,3.094,0,0,0-1.126-1.261l-4.3-2.736,4.974,1.105a3.13,3.13,0,0,0,.678.075,3.088,3.088,0,0,0,1.01-.169A2.48,2.48,0,0,1,123.78,18.064ZM122.62,7.484a2.525,2.525,0,0,1,1.237,2.987,3.083,3.083,0,0,0-1.01-.17,3.13,3.13,0,0,0-.678.075L117.2,11.481l4.3-2.736A3.094,3.094,0,0,0,122.62,7.484Zm-.981-1.161a1.816,1.816,0,0,1-.834,1.34l-4.364,2.777a4.944,4.944,0,0,0-.932-.932l2.777-4.364a1.825,1.825,0,0,1,3.353,1.179ZM117.2,2.17a2.479,2.479,0,0,1,1.269,1.159A3.1,3.1,0,0,0,117.2,4.456l-2.736,4.3,1.105-4.974a3.1,3.1,0,0,0-.1-1.688,2.479,2.479,0,0,1,1.718.078Zm-9.31,0a2.479,2.479,0,0,1,1.718-.078,3.1,3.1,0,0,0-.1,1.688l.121.545a.641.641,0,1,0,1.252-.278L110.76,3.5a1.825,1.825,0,1,1,3.563,0L113.2,8.55a4.79,4.79,0,0,0-1.319,0l-.35-1.576a.641.641,0,1,0-1.252.278l.334,1.5-2.736-4.3a3.1,3.1,0,0,0-1.261-1.126,2.478,2.478,0,0,1,1.269-1.159Zm-3.919,2.663a1.824,1.824,0,0,1,2.83.311l2.777,4.364a4.947,4.947,0,0,0-.932.932l-4.364-2.777a1.824,1.824,0,0,1-.31-2.83ZM101.3,8.753a2.479,2.479,0,0,1,1.159-1.269,3.094,3.094,0,0,0,1.126,1.261l4.3,2.736-4.974-1.105a3.131,3.131,0,0,0-.678-.075,3.082,3.082,0,0,0-1.01.17A2.48,2.48,0,0,1,101.3,8.753Zm1.159,10.58a2.525,2.525,0,0,1-1.237-2.987,3.084,3.084,0,0,0,1.01.17,3.129,3.129,0,0,0,.678-.075l4.974-1.105-4.3,2.735a3.1,3.1,0,0,0-1.126,1.261Zm.981,1.161a1.816,1.816,0,0,1,.834-1.34l4.364-2.777a4.944,4.944,0,0,0,.932.932L106.8,21.672a1.825,1.825,0,0,1-3.353-1.179Zm4.443,4.153a2.479,2.479,0,0,1-1.269-1.159,3.1,3.1,0,0,0,1.261-1.126l2.736-4.3-1.105,4.974a3.1,3.1,0,0,0,.1,1.688,2.479,2.479,0,0,1-1.718-.078Zm4.655.888a1.825,1.825,0,0,1-1.781-2.22l1.122-5.048a4.79,4.79,0,0,0,1.319,0l1.122,5.048a1.825,1.825,0,0,1-1.781,2.22Zm2.938-.81a3.1,3.1,0,0,0,.1-1.688l-1.105-4.974,2.736,4.3a3.1,3.1,0,0,0,1.261,1.126,2.525,2.525,0,0,1-2.987,1.237Z" transform="translate(-99.133 0)" fill="#128477"/>
          <path id="Trazado_949955" data-name="Trazado 949955" d="M308.519,297.144a8.953,8.953,0,0,0-5.271,1.7.641.641,0,0,0,.75,1.04,7.667,7.667,0,0,1,3.3-1.362l-6.517,10.391v-2.751a7.7,7.7,0,0,1,1.294-4.283.641.641,0,0,0-1.067-.711,8.977,8.977,0,0,0-1.509,4.994v8.706a.641.641,0,0,0,1.282,0v-3.109a9.029,9.029,0,0,0,8.377-8.995v-4.979A.641.641,0,0,0,308.519,297.144ZM301.362,310.4l6.515-10.388v2.751A7.746,7.746,0,0,1,301.362,310.4Z" transform="translate(-282.374 -271.745)" fill="#128477"/>
          <path id="Trazado_949956" data-name="Trazado 949956" d="M101.141,297.144a.641.641,0,0,0-.641.641v4.98a8.956,8.956,0,0,0,.745,3.593.641.641,0,0,0,1.176-.511,7.68,7.68,0,0,1-.639-3.082v-2.751L108.3,310.4a7.664,7.664,0,0,1-4.34-2.261.641.641,0,1,0-.921.892,8.935,8.935,0,0,0,5.839,2.725v3.108a.641.641,0,1,0,1.282,0v-8.706A9.028,9.028,0,0,0,101.141,297.144Zm7.736,11.768-6.515-10.388a7.746,7.746,0,0,1,6.515,7.637Z" transform="translate(-100.383 -271.745)" fill="#128477"/>
          <path id="Trazado_949957" data-name="Trazado 949957" d="M233.2,131.719a2.351,2.351,0,1,0-2.351,2.351A2.353,2.353,0,0,0,233.2,131.719Zm-3.419,0a1.068,1.068,0,1,1,1.068,1.068A1.07,1.07,0,0,1,229.782,131.719Z" transform="translate(-217.442 -118.31)" fill="#128477"/>
        </g>
      </g>
    </g>
  </g>
</svg>
