<svg xmlns="http://www.w3.org/2000/svg" width="50" height="50" viewBox="0 0 50 50">
  <g id="Grupo_1185029" data-name="Grupo 1185029" transform="translate(-848.742 -1140)">
    <rect id="Rectángulo_438975" data-name="Rectángulo 438975" width="50" height="50" rx="10" transform="translate(848.742 1140)" fill="#128477"/>
    <g id="Grupo_1185028" data-name="Grupo 1185028" transform="translate(809.859 1146.74)">
      <path id="Trazado_949982" data-name="Trazado 949982" d="M80.182,128.853v3.287a2.834,2.834,0,0,0-1.641,1.486l-1.41,3.022a4.988,4.988,0,0,0,1.093,5.736l4.1,3.879v6.555a.713.713,0,0,0,.713.713h3.21a.713.713,0,1,0,0-1.426h-2.5v-6.149a.713.713,0,0,0-.223-.518l-4.32-4.09a3.563,3.563,0,0,1-.781-4.1l1.409-3.021a1.425,1.425,0,0,1,1.9-.691l7.046,3.285a3.573,3.573,0,0,1-4.373,1.109l-1.939-.9a.713.713,0,0,0-.6,1.293l1.939.9a4.957,4.957,0,0,0,2.611.441,8.714,8.714,0,0,1,2.33,5.956.713.713,0,1,0,1.426,0,10.126,10.126,0,0,0-2.227-6.364,4.973,4.973,0,0,0,2.494-2.449v0a2.845,2.845,0,0,0,2.859-.317,2.851,2.851,0,0,0,3.806,1.356,32.072,32.072,0,0,1-.846,3.656,23.593,23.593,0,0,0-1.1,6.607v3.994h-2.5a.713.713,0,0,0,0,1.427h3.21a.713.713,0,0,0,.713-.713v-4.707a22.118,22.118,0,0,1,1.045-6.231,23.592,23.592,0,0,0,1.1-6.607v-4.28a2.851,2.851,0,0,0-4.554-2.289,2.85,2.85,0,0,0-4.28-1.07,2.85,2.85,0,0,0-4.719-.665,2.851,2.851,0,0,0-4.993,1.884Zm14.265,2.14a1.427,1.427,0,0,1,2.853,0v4.28a1.427,1.427,0,1,1-2.853,0Zm-4.28-1.07a1.427,1.427,0,1,1,2.853,0v4.28a1.427,1.427,0,1,1-2.853,0Zm-4.28-1.07a1.427,1.427,0,0,1,2.853,0V134.2a2.836,2.836,0,0,0,.24,1.143L85.888,133.9Zm-4.28,0a1.427,1.427,0,0,1,2.853,0v4.385l-2.128-.992a2.853,2.853,0,0,0-.725-.227Z" transform="translate(-25.571 -117.013)" fill="#f3d02c"/>
      <path id="Trazado_949983" data-name="Trazado 949983" d="M247.427,3.281V.713a.713.713,0,0,0-1.427,0V3.281a.713.713,0,0,0,1.427,0Z" transform="translate(-182.83)" fill="#f3d02c"/>
      <path id="Trazado_949984" data-name="Trazado 949984" d="M143.138,37.312a.713.713,0,0,0,.261-.974l-1.07-1.854a.713.713,0,1,0-1.235.713l1.07,1.854A.713.713,0,0,0,143.138,37.312Z" transform="translate(-85.317 -31.693)" fill="#f3d02c"/>
      <path id="Trazado_949985" data-name="Trazado 949985" d="M52.052,112.163l-1.854-1.07a.713.713,0,0,0-.713,1.236l1.854,1.07a.713.713,0,0,0,.713-1.236Z" transform="translate(0 -103.081)" fill="#f3d02c"/>
      <path id="Trazado_949986" data-name="Trazado 949986" d="M337.329,37.052,338.4,35.2a.713.713,0,1,0-1.235-.713l-1.07,1.854a.713.713,0,1,0,1.236.713Z" transform="translate(-266.409 -31.694)" fill="#f3d02c"/>
      <path id="Trazado_949987" data-name="Trazado 949987" d="M417.948,113.4l1.854-1.07a.713.713,0,0,0-.713-1.236l-1.854,1.07a.713.713,0,0,0,.713,1.236Z" transform="translate(-341.52 -103.08)" fill="#f3d02c"/>
      <circle id="Elipse_11773" data-name="Elipse 11773" cx="0.713" cy="0.713" r="0.713" transform="translate(63.17 35.092)" fill="#f3d02c"/>
    </g>
  </g>
</svg>
