<svg xmlns="http://www.w3.org/2000/svg" width="50" height="50" viewBox="0 0 50 50">
  <g id="Grupo_1185027" data-name="Grupo 1185027" transform="translate(-382.742 -1684)">
    <rect id="Rectángulo_438975" data-name="Rectángulo 438975" width="50" height="50" rx="10" transform="translate(382.742 1684)" fill="#128477"/>
    <path id="Trazado_949988" data-name="Trazado 949988" d="M38.083,4.47a15.432,15.432,0,0,0-1.337-3.043.573.573,0,0,0-.606-.256,15.429,15.429,0,0,0-3.114,1.162,8.941,8.941,0,0,0-4.462,4.256,8.244,8.244,0,0,0-.257,5,15.933,15.933,0,0,0-3-2.607,23.208,23.208,0,0,0-2.6-3.991.562.562,0,0,0-.872.709,22.5,22.5,0,0,1,2.073,3.05l-5.118-1L13.928,1.122a7.927,7.927,0,0,1,1.417.145,9.7,9.7,0,0,1,4.389,2.262.562.562,0,0,0,.729-.855,10.809,10.809,0,0,0-4.9-2.51c-2.574-.5-5.577.158-8.684,1.913A22.433,22.433,0,0,0,2.948,4.884a.6.6,0,0,0-.067.771A22.926,22.926,0,0,0,5.4,9.611a17.57,17.57,0,0,0,2.656,2.73q-.393.329-.763.69a12.99,12.99,0,0,0,4.2,21.321.562.562,0,0,0,.423-1.041,11.862,11.862,0,0,1-2.43-1.337,6.331,6.331,0,0,0-.954-4.432c-.178-.277.354-1.367.672-2.018a10.534,10.534,0,0,0,.825-2.017,1.537,1.537,0,0,0-.547-1.684,4.147,4.147,0,0,0-1.336-.592,2.874,2.874,0,0,1-.734-.287A7.49,7.49,0,0,1,6.465,19.4a9.606,9.606,0,0,0-1.027-1.688,11.948,11.948,0,0,1,3.547-4.673,9.827,9.827,0,0,0,4.734,1.759c-1.986,1.539-2.628,3.5-1.71,5.391,1.072,2.2,3.279,1.852,5.226,1.542.337-.054.685-.109,1.019-.151.125-.016.163.018.188.041.426.379.414,2.19.4,3.513-.012,1.83-.024,3.558.657,4.445a1.715,1.715,0,0,0,1.411.684,2.832,2.832,0,0,0,1.109-.251c1.695-.726,3.456-2.91,3.188-4.638-.235-1.511-.39-2.509-.024-3.314.339-.745,1.158-1.434,2.77-2.314A11.865,11.865,0,0,1,15.066,34.1a.562.562,0,0,0-.123,1.117A13.061,13.061,0,0,0,25.46,31.6a12.981,12.981,0,0,0-2-20.162c.742-.529,1.3-.987,1.6-1.253a14.918,14.918,0,1,1-23.4,9.7A.562.562,0,0,0,.553,19.7,16.037,16.037,0,0,0,13.764,38.137a16.259,16.259,0,0,0,2.648.218A16.048,16.048,0,0,0,31.088,15.913a16.182,16.182,0,0,0,2.591-1.02,8.94,8.94,0,0,0,4.462-4.256,8.935,8.935,0,0,0-.057-6.166ZM5.471,19.92A7,7,0,0,0,6.7,21.805a3.223,3.223,0,0,0,1.125.5c1.1.338,1.226.5,1.12.938A9.808,9.808,0,0,1,8.2,25.031c-.58,1.187-1.128,2.308-.609,3.118a5.344,5.344,0,0,1,.85,2.981A11.975,11.975,0,0,1,4.977,19.013c.165.283.339.612.494.906ZM32.656,8.878l-1.6-3.87A10.516,10.516,0,0,1,33.506,3.35,15,15,0,0,1,35.281,2.6Zm3.661-5.84a15.072,15.072,0,0,1,.7,1.8,10.743,10.743,0,0,1,.509,2.709L33.787,9.087ZM29.6,7.027a5.351,5.351,0,0,1,.627-1.091l1.818,4.4-1.631,3.9a14.918,14.918,0,0,1-.728-1.85A8.038,8.038,0,0,1,29.6,7.027Zm3.6,6.849a14.928,14.928,0,0,1-1.719.728l1.693-4.047,4.309-1.778a5.421,5.421,0,0,1-.376,1.42A8.037,8.037,0,0,1,33.2,13.876Zm-20.261-.32c-.2-.039-.394-.086-.588-.14l6.219-4.558,5.121,1c-1.865,1.47-6.4,4.553-10.752,3.7ZM7.255,10.04A21.875,21.875,0,0,1,4.39,6.093l6.516,1.27Zm1.151-7.5,2.726,3.719L4.574,4.984a22.15,22.15,0,0,1,3.832-2.44Zm4.352,4.036L9.452,2.071a12.639,12.639,0,0,1,3.14-.869l4.572,6.237Zm-.35,1.077,4.66.908-5.981,4.384a11.625,11.625,0,0,1-3.031-2.1ZM27.654,18.628c-2.026,1.079-3.018,1.927-3.488,2.961-.505,1.11-.32,2.3-.064,3.952.151.973-1,2.784-2.519,3.433-.56.24-.96.212-1.187-.085-.446-.581-.434-2.34-.425-3.752.013-1.955.025-3.643-.781-4.36a1.324,1.324,0,0,0-1.073-.317c-.353.044-.712.1-1.058.156-2.065.329-3.365.461-4.038-.923-1.091-2.242,1.117-3.9,2.117-4.513a3.56,3.56,0,0,0,.568-.433,16.337,16.337,0,0,0,6.736-2.625,11.927,11.927,0,0,1,5.212,6.506Zm0,0" transform="translate(388.245 1689.822)" fill="#f3d02c"/>
  </g>
</svg>
