<svg xmlns="http://www.w3.org/2000/svg" width="50" height="50" viewBox="0 0 50 50">
  <g id="Grupo_1185026" data-name="Grupo 1185026" transform="translate(-382.742 -1684)">
    <rect id="Rectángulo_438975" data-name="Rectángulo 438975" width="50" height="50" rx="10" transform="translate(382.742 1684)" fill="#128477"/>
    <g id="Grupo_1185030" data-name="Grupo 1185030" transform="translate(304.54 1605.433)">
      <path id="Trazado_949989" data-name="Trazado 949989" d="M240.042,643.071c-.075,0-.148,0-.217-.009-2.322-.2-7.183-1.971-9.978-3.424a5.493,5.493,0,0,0-4.547-.218.738.738,0,1,1-.541-1.374,6.964,6.964,0,0,1,5.77.282,34.6,34.6,0,0,0,9.422,3.263c.473.04,2.106-.177,7.05-3.065,2.88-1.682,5.82-3.661,6.987-4.53a2.182,2.182,0,0,0,.631-.764c.166-.643.166-.9,0-1.2a1.44,1.44,0,0,0-1.78-.554l-9.158,4.138a.739.739,0,0,1-.608-1.346l9.156-4.141a2.912,2.912,0,0,1,3.679,1.182,2.877,2.877,0,0,1,.141,2.29,3.47,3.47,0,0,1-1.179,1.581c-1.2.889-4.195,2.908-7.124,4.62a46.577,46.577,0,0,1-4.423,2.323A8.9,8.9,0,0,1,240.042,643.071Z" transform="translate(-133.814 -520.319)" fill="#f3d02c"/>
      <path id="Trazado_949990" data-name="Trazado 949990" d="M230.2,608.009a3.029,3.029,0,0,1-1.016-.177l-4.62-1.646a.739.739,0,1,1,.5-1.392l4.618,1.645a1.5,1.5,0,0,0,1.616-.388c.024-.027.046-.05.064-.073a1.486,1.486,0,0,0,.369-1.233,1.543,1.543,0,0,0-.817-1.062,23.436,23.436,0,0,0-5.841-2.085,42.389,42.389,0,0,0-5.616-.923c-.454-.042-.854-.067-1.07-.067a22.312,22.312,0,0,0-4.623,1.069.739.739,0,0,1-.411-1.419c3.891-1.127,4.751-1.127,5.031-1.127s.695.026,1.2.073a44.006,44.006,0,0,1,5.82.955,24.818,24.818,0,0,1,6.216,2.23,3.027,3.027,0,0,1,1.556,2.087,2.971,2.971,0,0,1-.695,2.457c-.03.035-.064.075-.1.117A2.949,2.949,0,0,1,230.2,608.009Z" transform="translate(-122.868 -490.987)" fill="#f3d02c"/>
      <path id="Trazado_949991" data-name="Trazado 949991" d="M86.93,583.119a2.258,2.258,0,0,1-2.249-2.114l-.675-10.714a2.254,2.254,0,0,1,2.108-2.392l2.844-.18a2.258,2.258,0,0,1,2.393,2.109l.675,10.714a2.255,2.255,0,0,1-2.109,2.392l-2.843.18C87.025,583.118,86.977,583.119,86.93,583.119ZM89.1,569.192H89.05l-2.843.179a.778.778,0,0,0-.729.827l.675,10.715a.779.779,0,0,0,.825.727l2.843-.18a.778.778,0,0,0,.727-.825l-.673-10.714a.779.779,0,0,0-.776-.729Z" transform="translate(0 -461.022)" fill="#f3d02c"/>
      <path id="Trazado_949992" data-name="Trazado 949992" d="M229.613,100.219a6.851,6.851,0,0,1-4.922-2.013c-3.853-3.781-4.931-12.623-4.975-13a.739.739,0,0,1,.806-.821c.375.037,9.236.95,13.088,4.731a7.021,7.021,0,0,1,2,6.341,10.125,10.125,0,0,1-1.086,3.227.738.738,0,0,1-.257.261,10.074,10.074,0,0,1-3.2,1.144,8.463,8.463,0,0,1-1.452.129Zm-8.292-14.242c.382,2.342,1.61,8.432,4.4,11.174a5.4,5.4,0,0,0,3.9,1.583,8.426,8.426,0,0,0,3.713-.96,8.944,8.944,0,0,0,.822-2.585,5.521,5.521,0,0,0-1.582-5.016C229.781,87.43,223.67,86.315,221.321,85.977Z" transform="translate(-129.446)" fill="#f3d02c"/>
      <path id="Trazado_949993" data-name="Trazado 949993" d="M348.727,221.742a.739.739,0,0,1-.739-.732,14.335,14.335,0,0,0-1.468-5.8c-1.431-1.966-4.3-5.483-7.674-7.293a.739.739,0,1,1,.7-1.3c3.655,1.965,6.709,5.712,8.2,7.771a.752.752,0,0,1,.062.1A15.984,15.984,0,0,1,349.466,221a.739.739,0,0,1-.732.745Z" transform="translate(-242.711 -116.506)" fill="#f3d02c"/>
      <path id="Trazado_949994" data-name="Trazado 949994" d="M517.8,182.027h-.106a7.775,7.775,0,0,1-2.8-.607,12.745,12.745,0,0,1-3.541-2.254.739.739,0,0,1,.976-1.108c1.3,1.143,4.656,3.617,7.782,1.893,3.429-1.889,6.25-7.425,7.247-9.577-2.354-.307-8.539-.877-11.968,1.012a5.415,5.415,0,0,0-2.018,1.877.739.739,0,1,1-1.253-.782,6.865,6.865,0,0,1,2.558-2.388c4.729-2.606,13.508-1.1,13.882-1.035a.738.738,0,0,1,.554,1.006c-.143.349-3.56,8.575-8.288,11.18A6.2,6.2,0,0,1,517.8,182.027Z" transform="translate(-407.398 -80.297)" fill="#f3d02c"/>
      <path id="Trazado_949995" data-name="Trazado 949995" d="M511.55,270.959a.739.739,0,0,1-.458-1.318,27.866,27.866,0,0,1,10.088-5.014.738.738,0,1,1,.323,1.441,26.584,26.584,0,0,0-9.5,4.733A.735.735,0,0,1,511.55,270.959Z" transform="translate(-407.109 -171.906)" fill="#f3d02c"/>
      <path id="Trazado_949996" data-name="Trazado 949996" d="M357.528,512.884h-.034a.739.739,0,0,1-.7-.764v-.006a1.944,1.944,0,0,0-.277-1,3.525,3.525,0,0,1-.462-2.053c0-.046.005-.092.005-.138a2.469,2.469,0,0,0-2.64-2.243,3.167,3.167,0,0,0-.482.037,5.276,5.276,0,0,1-3.656-.8,2.925,2.925,0,0,0-1.582-.449,3.008,3.008,0,0,0-1.286.285,5.227,5.227,0,0,1-3.765.3,3.038,3.038,0,0,0-.877-.128,2.469,2.469,0,0,0-2.64,2.243,1.929,1.929,0,0,0,.148.739.739.739,0,0,1-1.365.565,3.4,3.4,0,0,1-.26-1.305,3.938,3.938,0,0,1,4.117-3.72,4.519,4.519,0,0,1,1.3.191,3.754,3.754,0,0,0,2.7-.223,4.488,4.488,0,0,1,1.92-.427,4.4,4.4,0,0,1,2.376.681,3.8,3.8,0,0,0,2.631.582,4.616,4.616,0,0,1,.712-.055,3.939,3.939,0,0,1,4.117,3.72c0,.082,0,.164-.009.246a2.051,2.051,0,0,0,.263,1.2,3.451,3.451,0,0,1,.48,1.747v.065A.739.739,0,0,1,357.528,512.884Z" transform="translate(-241.941 -400.247)" fill="#f3d02c"/>
    </g>
  </g>
</svg>
