<svg xmlns="http://www.w3.org/2000/svg" xmlns:xlink="http://www.w3.org/1999/xlink" width="400" height="350" viewBox="0 0 400 350">
  <defs>
    <clipPath id="clip-path">
      <rect id="Rectángulo_439010" data-name="Rectángulo 439010" width="302.649" height="257.712"/>
    </clipPath>
  </defs>
  <g id="Grupo_1185218" data-name="Grupo 1185218" transform="translate(-179.742 -2549)">
    <rect id="Rectángulo_439016" data-name="Rectángulo 439016" width="400" height="350" rx="20" transform="translate(179.742 2549)" fill="#e5f2f0"/>
    <g id="Grupo_1185162" data-name="Grupo 1185162">
      <rect id="Rectángulo_438994" data-name="Rectángulo 438994" width="331.907" height="211.676" transform="translate(214.242 2584)" fill="none" stroke="#336d4c" stroke-miterlimit="10" stroke-width="1.006"/>
      <g id="Grupo_1185114" data-name="Grupo 1185114" transform="translate(-248.442 2534.848)">
        <g id="Grupo_1185113" data-name="Grupo 1185113" transform="translate(477.184 24.67)" clip-path="url(#clip-path)">
          <path id="Trazado_950092" data-name="Trazado 950092" d="M1072.006,204.893h-65.658s.248-3.1,5.461-2.855c.248-5.089,7.447-8.192,12.164-4.1-3.475-8.564-1.365-14.894,4.592-15.515s9.929,5.585,11.047,9.433c3.6-3.848,4.344-.621,4.468,0,5.461-5.957,12.784-3.972,15.018-1.613s1.738,7.943,1.738,7.943,7.819-3.351,9.557.248-1.365,4.84-1.365,4.84S1071.634,202.783,1072.006,204.893Z" transform="translate(-780.316 -115.017)" fill="#fff"/>
          <path id="Trazado_950093" data-name="Trazado 950093" d="M666.727,274.473H601.069s.248-3.1,5.461-2.855c.248-5.089,7.447-8.192,12.164-4.1-3.475-8.564-1.365-14.894,4.592-15.514s9.929,5.585,11.047,9.433c3.6-3.848,4.344-.621,4.468,0,5.461-5.957,12.784-3.972,15.018-1.613s1.738,7.943,1.738,7.943,7.819-3.351,9.557.248-1.365,4.84-1.365,4.84S666.354,272.363,666.727,274.473Z" transform="translate(-548.152 -154.876)" fill="#fff"/>
          <path id="Trazado_950094" data-name="Trazado 950094" d="M851.795,81.967H809.864s.158-1.982,3.488-1.823c.158-3.25,4.756-5.231,7.768-2.616-2.219-5.469-.872-9.512,2.933-9.908s6.341,3.567,7.054,6.024c2.3-2.457,2.774-.4,2.853,0,3.488-3.8,8.164-2.536,9.591-1.03s1.11,5.073,1.11,5.073,4.993-2.14,6.1.158-.872,3.091-.872,3.091S851.557,80.619,851.795,81.967Z" transform="translate(-667.76 -49.258)" fill="#fff"/>
          <g id="Grupo_1185091" data-name="Grupo 1185091" transform="translate(155.994 188.294)">
            <path id="Trazado_950095" data-name="Trazado 950095" d="M845.488,523.82s33.71-59.975,93.263-58.3-36.425,46.974-36.425,46.974S945.54,522.6,962.556,534.35s-62.567,28.585-100.674,28.585C839.46,540.514,845.488,523.82,845.488,523.82Z" transform="translate(-843.739 -465.485)" fill="#7dbb77"/>
            <path id="Trazado_950096" data-name="Trazado 950096" d="M967.842,484.493s-58.059,10.468-87.874,30.757" transform="translate(-863.913 -476.374)" fill="none" stroke="#316007" stroke-miterlimit="10" stroke-width="1.036"/>
            <path id="Trazado_950097" data-name="Trazado 950097" d="M952.693,625.995s-75.281-15.18-110.31,1.5" transform="translate(-842.382 -553.81)" fill="none" stroke="#316007" stroke-miterlimit="10" stroke-width="1.036"/>
          </g>
          <g id="Grupo_1185092" data-name="Grupo 1185092" transform="translate(159.004 186.858)">
            <path id="Trazado_950098" data-name="Trazado 950098" d="M849.429,492.708s25.559-43.474,38.705-26.759-28.182,54.67-28.182,54.67,46.631,5.1,51.231,17.253S876.864,560.7,852.722,560.7C852.722,530.878,849.429,492.708,849.429,492.708Z" transform="translate(-849.429 -462.124)" fill="#569171"/>
            <path id="Trazado_950099" data-name="Trazado 950099" d="M895.553,484.493a65.688,65.688,0,0,0-27.3,29.619" transform="translate(-860.215 -474.938)" fill="none" stroke="#316007" stroke-miterlimit="10" stroke-width="1.036"/>
            <path id="Trazado_950100" data-name="Trazado 950100" d="M905.6,640.449a84.185,84.185,0,0,0-39.831-.27" transform="translate(-858.789 -562.833)" fill="none" stroke="#316007" stroke-miterlimit="10" stroke-width="1.036"/>
          </g>
          <g id="Grupo_1185093" data-name="Grupo 1185093" transform="translate(50.373 129.556)">
            <path id="Trazado_950101" data-name="Trazado 950101" d="M622.734,339.542s-3.221-10.3,2.031-11.46S629.563,335.345,622.734,339.542Z" transform="translate(-610.375 -327.972)" fill="#7dbb77"/>
            <path id="Trazado_950102" data-name="Trazado 950102" d="M647.352,384.113s-8.434-6.778-4.741-10.667S650.65,376.822,647.352,384.113Z" transform="translate(-621.786 -353.4)" fill="#7dbb77"/>
            <path id="Trazado_950103" data-name="Trazado 950103" d="M600.788,352.469s-8.434-6.778-4.741-10.667S604.086,345.178,600.788,352.469Z" transform="translate(-595.112 -335.272)" fill="#7dbb77"/>
            <path id="Trazado_950104" data-name="Trazado 950104" d="M639.751,423.287s-9.937,4.2-11.661-.889S634.829,416.932,639.751,423.287Z" transform="translate(-613.873 -379.859)" fill="#7dbb77"/>
            <path id="Trazado_950105" data-name="Trazado 950105" d="M651.789,395.622s1.035-12.3-15.4-19.693-12.615-24.885-11.579-28.586" transform="translate(-611.477 -339.069)" fill="none" stroke="#003f44" stroke-linecap="round" stroke-miterlimit="10" stroke-width="1.991"/>
            <path id="Trazado_950106" data-name="Trazado 950106" d="M614.327,369.829s-6.539-4.2-8.315-10.321" transform="translate(-601.356 -346.038)" fill="none" stroke="#003f44" stroke-linecap="round" stroke-miterlimit="10" stroke-width="1.991"/>
            <path id="Trazado_950107" data-name="Trazado 950107" d="M652.343,399.2s2.4-5.9-.807-11.235" transform="translate(-627.435 -362.337)" fill="none" stroke="#003f44" stroke-linecap="round" stroke-miterlimit="10" stroke-width="1.991"/>
            <path id="Trazado_950108" data-name="Trazado 950108" d="M656.44,426.918s-6.353,2.38-14.181-1.5" transform="translate(-622.12 -383.792)" fill="none" stroke="#003f44" stroke-linecap="round" stroke-miterlimit="10" stroke-width="1.991"/>
          </g>
          <g id="Grupo_1185094" data-name="Grupo 1185094" transform="translate(218.873 210.917)">
            <path id="Trazado_950109" data-name="Trazado 950109" d="M1097.572,530.311s8.023-7.212,4.1-10.893S1093.843,523.217,1097.572,530.311Z" transform="translate(-1050.584 -518.448)" fill="#7dbb77"/>
            <path id="Trazado_950110" data-name="Trazado 950110" d="M1050.14,556.778s10.712-1.527,9.52-6.756S1051.024,548.825,1050.14,556.778Z" transform="translate(-1024.275 -535.187)" fill="#7dbb77"/>
            <path id="Trazado_950111" data-name="Trazado 950111" d="M1106.33,553.316s10.712-1.527,9.52-6.756S1107.214,545.363,1106.33,553.316Z" transform="translate(-1056.463 -533.204)" fill="#7dbb77"/>
            <path id="Trazado_950112" data-name="Trazado 950112" d="M1034.32,592.963s6.4,8.683,10.483,5.184S1041.8,590.007,1034.32,592.963Z" transform="translate(-1015.212 -560.595)" fill="#7dbb77"/>
            <path id="Trazado_950113" data-name="Trazado 950113" d="M989.587,566.184s5.383-11.1,23.294-9.08,23.545-14.967,24.542-18.679" transform="translate(-989.587 -529.892)" fill="none" stroke="#003f44" stroke-linecap="round" stroke-miterlimit="10" stroke-width="1.991"/>
            <path id="Trazado_950114" data-name="Trazado 950114" d="M1083.77,563.883s7.769-.28,12.417-4.635" transform="translate(-1043.54 -541.82)" fill="none" stroke="#003f44" stroke-linecap="round" stroke-miterlimit="10" stroke-width="1.991"/>
            <path id="Trazado_950115" data-name="Trazado 950115" d="M1044.12,569.748s.952-6.3,6.426-9.252" transform="translate(-1020.826 -542.535)" fill="none" stroke="#003f44" stroke-linecap="round" stroke-miterlimit="10" stroke-width="1.991"/>
            <path id="Trazado_950116" data-name="Trazado 950116" d="M1017.69,583.534s4.249,5.288,12.964,5.941" transform="translate(-1005.686 -555.732)" fill="none" stroke="#003f44" stroke-linecap="round" stroke-miterlimit="10" stroke-width="1.991"/>
          </g>
          <path id="Trazado_950117" data-name="Trazado 950117" d="M831.86,278.394s-5.317-1.683-9.1-1.21.591,3.427.591,3.427Z" transform="translate(-674.266 -169.275)" fill="#c6724e"/>
          <g id="Grupo_1185096" data-name="Grupo 1185096" transform="translate(126.845 87.008)">
            <g id="Grupo_1185095" data-name="Grupo 1185095" transform="translate(0 0)">
              <path id="Trazado_950118" data-name="Trazado 950118" d="M781.622,267.85l-5.971-12.936a4.866,4.866,0,0,1-.393-2.773l1.8-11.855,3.194-1.475,3.194-1.475,10.191,6.318a4.865,4.865,0,0,1,1.855,2.1l5.971,12.936a4.091,4.091,0,0,1,.358,1.624,2.923,2.923,0,0,0,1.06,2.191,3.7,3.7,0,0,1,.926,1.265l8.6,18.632a2.974,2.974,0,0,1-1.454,3.947l-7.222,3.333-7.222,3.333a2.974,2.974,0,0,1-3.947-1.454l-8.6-18.632a3.7,3.7,0,0,1-.361-1.525,2.919,2.919,0,0,0-.98-2.228A4.087,4.087,0,0,1,781.622,267.85Z" transform="translate(-774.749 -233.505)" fill="#4ba4a1" opacity="0.29"/>
              <rect id="Rectángulo_439000" data-name="Rectángulo 439000" width="21.856" height="13.473" transform="translate(1.169 22.012) rotate(-24.779)" fill="#4ba4a1"/>
              <path id="Trazado_950119" data-name="Trazado 950119" d="M780.719,253.844a26.887,26.887,0,0,0,2.643,13.5l4.026,8.722a2.44,2.44,0,0,0,.464.677,4.439,4.439,0,0,1,1.41,2.778,2.48,2.48,0,0,0,.223,1.088l9.5,20.579s-1.553,1.459-2.4-.376l-8.939-19.366a1.3,1.3,0,0,1-.118-.466c-.042-.7-.262-2.762-1.383-3.365a1.259,1.259,0,0,1-.537-.587l-3.88-8.405a20.6,20.6,0,0,1-1.916-7.921A17.98,17.98,0,0,1,780.719,253.844Z" transform="translate(-777.38 -242.961)" fill="#fff6e0" opacity="0.24"/>
              <path id="Trazado_950120" data-name="Trazado 950120" d="M800.256,245.4a26.892,26.892,0,0,1,8.556,10.767l4.026,8.722a2.427,2.427,0,0,1,.214.792,4.439,4.439,0,0,0,1.2,2.875,2.475,2.475,0,0,1,.683.876l9.5,20.579s2.117-.235,1.27-2.07l-8.939-19.366a1.3,1.3,0,0,0-.278-.393c-.5-.483-1.932-1.991-1.663-3.236a1.258,1.258,0,0,0-.1-.79l-3.88-8.405a20.608,20.608,0,0,0-4.785-6.6A18,18,0,0,0,800.256,245.4Z" transform="translate(-789.101 -238.122)" fill="#236662" opacity="0.25"/>
              <path id="Trazado_950121" data-name="Trazado 950121" d="M777.783,264.568l17.126-7.905a.675.675,0,0,0,.329-.894h0a.675.675,0,0,0-.894-.329l-17.126,7.905a.676.676,0,0,0-.329.894h0A.675.675,0,0,0,777.783,264.568Z" transform="translate(-775.68 -243.839)" fill="#fff6e0" opacity="0.24"/>
              <path id="Trazado_950122" data-name="Trazado 950122" d="M797.189,302.327l15.9-7.341a.76.76,0,0,0,.37-1.006h0a.76.76,0,0,0-1.005-.37l-15.9,7.341a.76.76,0,0,0-.37,1.005h0A.76.76,0,0,0,797.189,302.327Z" transform="translate(-786.729 -265.701)" fill="#fff6e0" opacity="0.24"/>
              <path id="Trazado_950123" data-name="Trazado 950123" d="M779.344,240.288l3.194-1.474,3.194-1.475.886.549-7.431,3.43Z" transform="translate(-777.032 -233.506)" fill="#236662" opacity="0.25"/>
              <rect id="Rectángulo_439001" data-name="Rectángulo 439001" width="8.646" height="3.846" transform="translate(9.461 3.493) rotate(155.221)" fill="#4ba4a1"/>
              <rect id="Rectángulo_439002" data-name="Rectángulo 439002" width="1.88" height="3.846" transform="translate(3.319 6.331) rotate(155.221)" fill="#fff6e0" opacity="0.24"/>
              <rect id="Rectángulo_439003" data-name="Rectángulo 439003" width="2.372" height="3.846" transform="translate(9.461 3.491) rotate(155.221)" fill="#357c79"/>
            </g>
            <path id="Trazado_950124" data-name="Trazado 950124" d="M814.13,299.15a5.856,5.856,0,0,0,2.114,2.358c6,2.25,8.585,2.257,12.964,4.38l-1.03-2.231-1.8-3.917Z" transform="translate(-797.049 -268.914)" fill="#236662" opacity="0.25"/>
          </g>
          <g id="Grupo_1185097" data-name="Grupo 1185097" transform="translate(109.897 148.881)">
            <path id="Trazado_950125" data-name="Trazado 950125" d="M769.662,389.377l11.436,8.5a4.87,4.87,0,0,1,1.673,2.246l4.093,11.27-2.1,2.824-2.1,2.824-11.972-.667a4.867,4.867,0,0,1-2.633-.953l-11.436-8.5a4.092,4.092,0,0,1-1.092-1.254,2.921,2.921,0,0,0-1.979-1.416,3.711,3.711,0,0,1-1.419-.666l-16.472-12.24a2.974,2.974,0,0,1-.613-4.161l4.744-6.385,4.744-6.385a2.974,2.974,0,0,1,4.161-.613l16.472,12.24a3.705,3.705,0,0,1,1.048,1.166,2.921,2.921,0,0,0,1.927,1.486A4.1,4.1,0,0,1,769.662,389.377Z" transform="translate(-734.463 -373.214)" fill="#4ba4a1" opacity="0.29"/>
            <rect id="Rectángulo_439004" data-name="Rectángulo 439004" width="21.856" height="13.474" transform="matrix(0.596, -0.803, 0.803, 0.596, 22.244, 33.756)" fill="#4ba4a1"/>
            <path id="Trazado_950126" data-name="Trazado 950126" d="M798.525,409.693a26.887,26.887,0,0,0-8.783-10.582l-7.711-5.729a2.436,2.436,0,0,0-.732-.372,4.438,4.438,0,0,1-2.568-1.764,2.48,2.48,0,0,0-.718-.849l-18.193-13.518s.665-2.024,2.287-.819l17.12,12.721a1.305,1.305,0,0,1,.327.352c.37.591,1.553,2.3,2.826,2.292a1.26,1.26,0,0,1,.753.258l7.431,5.521a20.6,20.6,0,0,1,5.475,6.037A17.984,17.984,0,0,1,798.525,409.693Z" transform="translate(-748.989 -374.625)" fill="#fff6e0" opacity="0.24"/>
            <path id="Trazado_950127" data-name="Trazado 950127" d="M780.205,434.49a26.889,26.889,0,0,1-12.667-5.355l-7.711-5.729a2.44,2.44,0,0,1-.568-.593,4.439,4.439,0,0,0-2.43-1.95,2.477,2.477,0,0,1-1.02-.442L737.618,406.9s-1.746,1.22-.124,2.426l17.12,12.721a1.3,1.3,0,0,0,.432.211c.673.184,2.65.823,3.01,2.044a1.259,1.259,0,0,0,.464.646l7.431,5.521a20.612,20.612,0,0,0,7.36,3.5A17.962,17.962,0,0,0,780.205,434.49Z" transform="translate(-735.804 -392.512)" fill="#236662" opacity="0.25"/>
            <path id="Trazado_950128" data-name="Trazado 950128" d="M826.671,433.327l-11.25,15.141a.676.676,0,0,0,.139.943h0a.676.676,0,0,0,.942-.139l11.25-15.141a.676.676,0,0,0-.139-.942h0A.675.675,0,0,0,826.671,433.327Z" transform="translate(-780.764 -407.495)" fill="#fff6e0" opacity="0.24"/>
            <path id="Trazado_950129" data-name="Trazado 950129" d="M792.727,409.979l-10.446,14.059a.76.76,0,0,0,.156,1.06h0a.76.76,0,0,0,1.06-.156l10.446-14.059a.76.76,0,0,0-.156-1.06h0A.76.76,0,0,0,792.727,409.979Z" transform="translate(-761.77 -394.1)" fill="#fff6e0" opacity="0.24"/>
            <path id="Trazado_950130" data-name="Trazado 950130" d="M850.115,461.276l-2.1,2.824-2.1,2.823-1.041-.058,4.881-6.569Z" transform="translate(-797.714 -423.099)" fill="#236662" opacity="0.25"/>
            <rect id="Rectángulo_439005" data-name="Rectángulo 439005" width="8.646" height="3.846" transform="matrix(0.596, -0.803, 0.803, 0.596, 47.712, 44.472)" fill="#4ba4a1"/>
            <rect id="Rectángulo_439006" data-name="Rectángulo 439006" width="1.88" height="3.846" transform="matrix(0.596, -0.803, 0.803, 0.596, 51.745, 39.039)" fill="#fff6e0" opacity="0.24"/>
            <rect id="Rectángulo_439007" data-name="Rectángulo 439007" width="2.372" height="3.846" transform="matrix(0.596, -0.803, 0.803, 0.596, 47.713, 44.475)" fill="#357c79"/>
          </g>
          <path id="Trazado_950131" data-name="Trazado 950131" d="M589.025,465.272s-7.444-29.523-20.738-32-5.317,28.891-1.595,44.311c-22.333-20.206-46.261-17.074-9.039,25.494-20.737-6.352-70.9,41.327,30.75,41.327C608.168,516.4,589.025,465.272,589.025,465.272Z" transform="translate(-505.638 -258.656)" fill="#7dbb77"/>
          <path id="Trazado_950132" data-name="Trazado 950132" d="M546.675,638.613s25.16-4.817,62.031,12.173" transform="translate(-516.992 -376.006)" fill="none" stroke="#316007" stroke-miterlimit="10" stroke-width="1.036"/>
          <path id="Trazado_950133" data-name="Trazado 950133" d="M629.456,452.542S640.413,483.342,644.9,515" transform="translate(-564.413 -269.777)" fill="none" stroke="#316007" stroke-miterlimit="10" stroke-width="1.036"/>
          <path id="Trazado_950134" data-name="Trazado 950134" d="M570.327,525.653s13.825,6.837,22.865,17.315" transform="translate(-530.541 -311.658)" fill="none" stroke="#316007" stroke-miterlimit="10" stroke-width="1.036"/>
          <path id="Trazado_950135" data-name="Trazado 950135" d="M593.242,518.169s-20.738-52.392-38.816-55.683,10.635,38.007,10.635,38.007-15.952-7.091-29.777-5.318,23.574,41.376,65.758,48.693C593.242,524.066,593.242,518.169,593.242,518.169Z" transform="translate(-508.791 -275.366)" fill="#336d4c"/>
          <path id="Trazado_950136" data-name="Trazado 950136" d="M584.02,477.422s28.182,29.254,38.816,73.387" transform="translate(-538.385 -284.029)" fill="none" stroke="#213d04" stroke-miterlimit="10" stroke-width="1.036"/>
          <path id="Trazado_950137" data-name="Trazado 950137" d="M546.675,553.833s33.526,8.3,57.972,41.539" transform="translate(-516.992 -327.801)" fill="none" stroke="#213d04" stroke-miterlimit="10" stroke-width="1.036"/>
          <path id="Trazado_950138" data-name="Trazado 950138" d="M707.907,414.04l52.191,3.507-6.505,115.917H662.222l-6.505-115.917Z" transform="translate(-579.457 -247.721)" fill="#75a050"/>
          <path id="Trazado_950139" data-name="Trazado 950139" d="M655.717,418.46l42.068-2.827h20.246L760.1,418.46l-.235,4.187H678.9a7.8,7.8,0,0,1-14.388,0h-8.56Z" transform="translate(-579.457 -248.633)" fill="#437c5b" opacity="0.55"/>
          <path id="Trazado_950140" data-name="Trazado 950140" d="M922.745,413.989s-3.219,109.249-2.465,117.048h23.087V409.8Z" transform="translate(-730.946 -245.293)" fill="#03493f"/>
          <path id="Trazado_950141" data-name="Trazado 950141" d="M936.673,413.855s1.186,24.822,7.6,27.3l3.583,91.1h37.575l-1.773-87.2s1.064-20.56-.709-28.713S936.673,413.855,936.673,413.855Z" transform="translate(-740.402 -246.518)" fill="#055c51"/>
          <path id="Trazado_950142" data-name="Trazado 950142" d="M936.673,415.934s1.178-.15,3.152-.365a62.354,62.354,0,0,1,4.453,4.706c-1.1,9.3,0,22.963,0,22.963C937.859,440.756,936.673,415.934,936.673,415.934Z" transform="translate(-740.402 -248.597)" fill="#4ba4a1"/>
          <rect id="Rectángulo_439008" data-name="Rectángulo 439008" width="5.317" height="134.705" transform="matrix(-0.997, -0.071, 0.071, -0.997, 95.102, 165.195)" fill="#75a050"/>
          <rect id="Rectángulo_439009" data-name="Rectángulo 439009" width="10.46" height="134.705" transform="matrix(0.997, 0.071, -0.071, 0.997, 104.688, 30.838)" fill="#437c5b"/>
          <path id="Trazado_950143" data-name="Trazado 950143" d="M722.709,91.055s-7.515-3.226-12.123-2.871-8.33,2.852-6.735,4.084,5.367-1.071,9.241.7C717.321,93.5,722.709,91.055,722.709,91.055Z" transform="translate(-606.815 -61.038)" fill="#c6724e"/>
          <path id="Trazado_950144" data-name="Trazado 950144" d="M717.052,101.589s2.552,3.347,5.742,3.7a29.487,29.487,0,0,0,6.052,6.661l.7-9.834S725.135,98.6,717.052,101.589Z" transform="translate(-614.592 -68.042)" fill="#437c5b" opacity="0.55"/>
          <path id="Trazado_950145" data-name="Trazado 950145" d="M801.561,117.831s-21.8-6.837-28.713-9.4-41.12-13.2-42.361-14.082-6.381-.355-9.571.886-5.317,2.3-2.659,3.545,7.267.177,7.267.177.532,5.7,7.976,8.079c16.838,7.341,63.985,31.451,63.985,31.451Z" transform="translate(-614.593 -64.335)" fill="#e28e64"/>
          <path id="Trazado_950146" data-name="Trazado 950146" d="M809.541,143.009a8.921,8.921,0,0,1,8.921,8.921c0,.044-.006.086-.006.129-4.779-2.382-9.713-4.824-14.433-7.13A8.877,8.877,0,0,1,809.541,143.009Z" transform="translate(-664.413 -92.461)" fill="#c6724e"/>
          <path id="Trazado_950147" data-name="Trazado 950147" d="M919.9,151.531l-32.926-9.22s-7.09,13.881-2.836,27.558l21.978,15.567Z" transform="translate(-709.53 -92.061)" fill="#75a050"/>
          <path id="Trazado_950148" data-name="Trazado 950148" d="M889.675,173.79l-5.536-3.921c-4.254-13.677,2.836-27.558,2.836-27.558l6.7,1.877A66.449,66.449,0,0,0,889.675,173.79Z" transform="translate(-709.53 -92.061)" fill="#c7d6ba"/>
          <path id="Trazado_950149" data-name="Trazado 950149" d="M961.422,176.934s22.333,11.533,21.624,34.574-7.444,65.58-7.444,65.58-37.93,6.026-56.718-5.672c1.418-46.793,6.888-96.436,16.85-107.521A106.027,106.027,0,0,0,961.422,176.934Z" transform="translate(-730.212 -104.426)" fill="#89b764"/>
          <path id="Trazado_950150" data-name="Trazado 950150" d="M755.4,412.844H651.014a3.507,3.507,0,0,1-3.507-3.507h0a3.507,3.507,0,0,1,3.507-3.507H755.4a3.507,3.507,0,0,1,3.507,3.507h0A3.507,3.507,0,0,1,755.4,412.844Z" transform="translate(-574.754 -243.018)" fill="#75a050"/>
          <path id="Trazado_950151" data-name="Trazado 950151" d="M962.669,178.73v-1.919l-2.481.244s-6.463,6.58-6.26,16.063c4.014-1.772,6.833-1.772,9.888,0C964.39,183.812,962.669,178.73,962.669,178.73Z" transform="translate(-750.285 -111.824)" fill="#75a050"/>
          <path id="Trazado_950152" data-name="Trazado 950152" d="M942.092,89.381a5.813,5.813,0,0,1-4.652-1.456c-1.763-1.878-.277-4.474,2.32-3.1-3.024-4.183-1.485-7.846,2.028-4.572-3.054-6.537-1.66-9.093,1.628-10.175S949.871,75,949.871,75s-.935-3.909.525-5.032,5.3.34,5.081,4.958a25.648,25.648,0,0,1,10.531,5.645s.207-2.243,1.118-2.709,1.309,1.727.312,3.275c3.461-1.645,3.617.793,1.535,1.768,1.8,4.926,2.064,15.46-.861,19.935a19.675,19.675,0,0,1-7.019,6.465L959.1,86.295Z" transform="translate(-740.402 -50.412)" fill="#055c51"/>
          <path id="Trazado_950153" data-name="Trazado 950153" d="M953.074,97.037a6.031,6.031,0,0,0-3.99,2.465c-1.441,2.093-2.8,5.962-.785,12.325a55.264,55.264,0,0,1,2.351,17.481c-.133,3.317.917,5.489,10.563,1.081s9.552-12.357,9.062-18.558a60.881,60.881,0,0,1-.191-9.379A19.344,19.344,0,0,0,953.074,97.037Z" transform="translate(-746.478 -65.961)" fill="#e28e64"/>
          <path id="Trazado_950154" data-name="Trazado 950154" d="M966.889,113.252s4.395-2.017,7.507.335c1.8-.419-1.179-2.829-3.023-3.227S966.529,110.746,966.889,113.252Z" transform="translate(-757.695 -73.702)" fill="#055c51"/>
          <path id="Trazado_950155" data-name="Trazado 950155" d="M984.156,133.631l2.58,27.364-13.04,7.8-2.525-10.266.778-8.386Z" transform="translate(-760.165 -87.088)" fill="#e28e64"/>
          <path id="Trazado_950156" data-name="Trazado 950156" d="M971.5,168.209c9.944-3.83,12.2-15.059,12.2-15.059l-9.654,5.594-1.909,2.583Z" transform="translate(-760.353 -98.27)" fill="#380403" opacity="0.52"/>
          <path id="Trazado_950157" data-name="Trazado 950157" d="M947.406,119.454a16.02,16.02,0,0,1-.115-2.231,2.453,2.453,0,0,1,3.061,1.4A10.479,10.479,0,0,0,947.406,119.454Z" transform="translate(-746.483 -77.637)" fill="#055c51"/>
          <path id="Trazado_950158" data-name="Trazado 950158" d="M954.462,133.006a54.5,54.5,0,0,0-.527-9.228,7,7,0,0,1,3.667-1.427c6.338-.357,8.7,3.366,8.7,3.366s2.122-1.6,3.819-6.1c1.445-3.828,1.237-13.743,1.125-16.41a16.071,16.071,0,0,1,2.924,2.589,45.044,45.044,0,0,0-.083,9.734c.49,6.2.585,14.149-9.062,18.558S954.328,136.323,954.462,133.006Z" transform="translate(-750.29 -69.66)" fill="#055c51"/>
          <path id="Trazado_950159" data-name="Trazado 950159" d="M971.195,137.76c.157.705,1.281,1.056,2.511.783s2.1-1.067,1.944-1.772-1.281-1.056-2.511-.783S971.038,137.054,971.195,137.76Z" transform="translate(-760.168 -88.385)" fill="#af0808" opacity="0.32"/>
          <path id="Trazado_950160" data-name="Trazado 950160" d="M952.4,142.686q-.224-1.24-.519-2.518c1.057-.118,1.954.226,2.093.85S953.424,142.35,952.4,142.686Z" transform="translate(-749.112 -90.82)" fill="#af0808" opacity="0.32"/>
          <path id="Trazado_950161" data-name="Trazado 950161" d="M959.613,153.6a24.929,24.929,0,0,0,5.027-1.8c.627-.238,1.225.894-.958,1.879s-3.49.858-3.864.638S959.27,153.682,959.613,153.6Z" transform="translate(-753.438 -97.477)" fill="#fff"/>
          <path id="Trazado_950162" data-name="Trazado 950162" d="M998.442,127.582c1.308,1.443,3.787,1.327,5.537-.26s2.108-4.042.8-5.485-3.787-1.327-5.537.26S997.134,126.139,998.442,127.582Z" transform="translate(-775.335 -79.753)" fill="#e28e64"/>
          <path id="Trazado_950163" data-name="Trazado 950163" d="M1003.258,130.424a4.1,4.1,0,0,1,1.113-5.062,4.578,4.578,0,0,1,3.662-1.231,4.1,4.1,0,0,1-1.113,5.062A4.578,4.578,0,0,1,1003.258,130.424Z" transform="translate(-778.276 -81.624)" fill="#d66749"/>
          <g id="Grupo_1185098" data-name="Grupo 1185098" transform="translate(209.695 42.03)">
            <path id="Trazado_950164" data-name="Trazado 950164" d="M968.1,124.11a5.571,5.571,0,0,1,1.712-.822,5.393,5.393,0,0,1,1.914-.208c.161.021.324.029.483.064l.475.115c.156.047.3.119.454.177a1.982,1.982,0,0,1,.431.223,4.445,4.445,0,0,1,1.39,1.3,6.637,6.637,0,0,0-1.526-1.041,4.664,4.664,0,0,0-1.737-.464,6.627,6.627,0,0,0-1.814.117A9.775,9.775,0,0,0,968.1,124.11Z" transform="translate(-968.1 -123.066)" fill="#933d2a"/>
          </g>
          <g id="Grupo_1185099" data-name="Grupo 1185099" transform="translate(209.904 43.187)">
            <path id="Trazado_950165" data-name="Trazado 950165" d="M968.59,127.468a2.6,2.6,0,0,1,1.265-1.286,3.79,3.79,0,0,1,1.8-.406,4.629,4.629,0,0,1,1.77.39,7.177,7.177,0,0,1,.783.425,5.978,5.978,0,0,1,.68.577,6.9,6.9,0,0,1-.863-.124c-.28-.038-.552-.083-.818-.132a13.436,13.436,0,0,0-1.567-.141A6.1,6.1,0,0,0,968.59,127.468Z" transform="translate(-968.59 -125.776)" fill="#600e00"/>
          </g>
          <g id="Grupo_1185100" data-name="Grupo 1185100" transform="translate(202.231 44.651)">
            <path id="Trazado_950166" data-name="Trazado 950166" d="M953.915,129.739a8.01,8.01,0,0,0-1.734.106,3.18,3.18,0,0,0-.767.253c-.26.109-.495.276-.788.437a1.674,1.674,0,0,1,.522-.833,1.878,1.878,0,0,1,.909-.455,2.212,2.212,0,0,1,1,.027A1.86,1.86,0,0,1,953.915,129.739Z" transform="translate(-950.626 -129.203)" fill="#600e00"/>
          </g>
          <g id="Grupo_1185101" data-name="Grupo 1185101" transform="translate(204.587 43.471)">
            <path id="Trazado_950167" data-name="Trazado 950167" d="M956.373,126.988s2.27,5.173,1.081,9.24c-.432,1.128.825,1.573,2.557.3S957.941,128.551,956.373,126.988Z" transform="translate(-956.275 -126.754)" fill="#e28e64"/>
            <path id="Trazado_950168" data-name="Trazado 950168" d="M960.249,135.647c-1.185,1.833-3.359,1.4-2.927.268,1.189-4.067-1.179-9.474-1.179-9.474" transform="translate(-956.143 -126.441)" fill="none" stroke="#933d2a" stroke-miterlimit="10" stroke-width="0.679"/>
          </g>
          <g id="Grupo_1185102" data-name="Grupo 1185102" transform="translate(201.973 43.844)">
            <path id="Trazado_950169" data-name="Trazado 950169" d="M952.271,127.378c-.407.167-.779.294-1.143.456-.184.074-.362.16-.543.248s-.358.189-.564.279a1.842,1.842,0,0,1,.96-.871,2.222,2.222,0,0,1,.636-.166A1.572,1.572,0,0,1,952.271,127.378Z" transform="translate(-950.022 -127.313)" fill="#933d2a"/>
          </g>
          <path id="Trazado_950170" data-name="Trazado 950170" d="M950.792,131.193a6.506,6.506,0,0,1-.142-1.885,55.254,55.254,0,0,0-2.351-17.481c-2.02-6.362-.656-10.231.785-12.325a6.033,6.033,0,0,1,3.99-2.465A19.127,19.127,0,0,1,964.621,98.6C966.056,103.623,971.785,127.717,950.792,131.193Z" transform="translate(-746.478 -65.962)" fill="#fff" opacity="0.23"/>
          <path id="Trazado_950171" data-name="Trazado 950171" d="M972.985,318.5s7.077,6.912,14.493,3.811,23.732-32.677,24.732-42.185C992.414,292.981,972.985,318.5,972.985,318.5Z" transform="translate(-761.204 -171.01)" fill="#5d7f3c"/>
          <path id="Trazado_950172" data-name="Trazado 950172" d="M989.344,178.428s-4.772,11.22-12.263,16.033c7.752-1.923,9.817,2.331,9.817,2.331s7.152-4.632,7.861-11.533C993.483,183.831,989.344,178.428,989.344,178.428Z" transform="translate(-763.55 -112.75)" fill="#75a050"/>
          <path id="Trazado_950173" data-name="Trazado 950173" d="M958.666,215.961s-16.39,41.127-13.358,89.968" transform="translate(-745.135 -134.251)" fill="none" stroke="#5d7f3c" stroke-miterlimit="10" stroke-width="0.992"/>
          <path id="Trazado_950174" data-name="Trazado 950174" d="M976.128,293.065s2.167,12.311,20.094,21.742C999.413,305.737,982.007,293.249,976.128,293.065Z" transform="translate(-763.004 -178.42)" fill="#055c51"/>
          <path id="Trazado_950175" data-name="Trazado 950175" d="M889.653,285.891l-10.777,10.635s-37.628-13-47.317-15.6-17.724,1.654-18.2,5.435c-.472,1.891.945,3.072,3.072,2.836-.472,2.127,7.326.709,9.926,2.6s7.8,5.672,10.4,7.09,40.346,22.451,46.76,23.4,21.3-21.244,21.3-21.244S898.594,287.781,889.653,285.891Z" transform="translate(-669.712 -171.01)" fill="#e28e64"/>
          <line id="Línea_1093" data-name="Línea 1093" x2="7.388" y2="3.781" transform="translate(209.165 125.516)" fill="none" stroke="#ad5638" stroke-miterlimit="10" stroke-width="0.992"/>
          <path id="Trazado_950176" data-name="Trazado 950176" d="M820.677,298.828A16.435,16.435,0,0,1,828,296.937" transform="translate(-673.954 -180.638)" fill="none" stroke="#ad5638" stroke-miterlimit="10" stroke-width="0.992"/>
          <path id="Trazado_950177" data-name="Trazado 950177" d="M813.484,290.546s4.726-3.545,9.69-3.072" transform="translate(-669.834 -175.192)" fill="none" stroke="#ad5638" stroke-miterlimit="10" stroke-width="0.992"/>
          <path id="Trazado_950178" data-name="Trazado 950178" d="M965.807,349.527a12.512,12.512,0,0,1,9.525,4.387c-4.063,4.595-8.437,8.535-11.219,8.125-1.663-.245-5.434-1.842-10.15-4.1A12.544,12.544,0,0,1,965.807,349.527Z" transform="translate(-750.307 -210.764)" fill="#c6724e"/>
          <path id="Trazado_950179" data-name="Trazado 950179" d="M976.128,261.284s17.258,7.8,20.094,21.742c15.125-17.488,21.509-29.151,17.963-40.807S989.593,242.378,976.128,261.284Z" transform="translate(-763.004 -146.639)" fill="#75a050"/>
          <path id="Trazado_950180" data-name="Trazado 950180" d="M1002.307,299.013c-1.84,2.335-3.867,4.775-6.088,7.343-2.836-13.943-20.094-21.742-20.094-21.742,1.571-2.206,3.246-4.314,4.984-6.3C988.032,282.3,998.1,289.44,1002.307,299.013Z" transform="translate(-763.003 -169.969)" fill="#e6efdf"/>
          <path id="Trazado_950181" data-name="Trazado 950181" d="M674.893,404.738a7.8,7.8,0,1,0,7.8-7.8A7.8,7.8,0,0,0,674.893,404.738Z" transform="translate(-590.442 -237.924)" fill="#437c5b"/>
          <circle id="Elipse_11776" data-name="Elipse 11776" cx="4.094" cy="4.094" r="4.094" transform="translate(88.156 162.812)" fill="#75a050"/>
          <path id="Trazado_950182" data-name="Trazado 950182" d="M974.76,234.948a1.359,1.359,0,1,0,1.359-1.359A1.359,1.359,0,0,0,974.76,234.948Z" transform="translate(-762.221 -144.349)" fill="#5d7f3c"/>
          <circle id="Elipse_11777" data-name="Elipse 11777" cx="1.359" cy="1.359" r="1.359" transform="translate(209.012 103.907)" fill="#5d7f3c"/>
          <path id="Trazado_950183" data-name="Trazado 950183" d="M958.327,304.334a1.359,1.359,0,1,0,1.359-1.359A1.359,1.359,0,0,0,958.327,304.334Z" transform="translate(-752.807 -184.097)" fill="#5d7f3c"/>
          <circle id="Elipse_11778" data-name="Elipse 11778" cx="1.359" cy="1.359" r="1.359" transform="translate(201.738 152.637)" fill="#5d7f3c"/>
          <path id="Trazado_950184" data-name="Trazado 950184" d="M952.654,414.6a1.359,1.359,0,1,0,1.359-1.359A1.359,1.359,0,0,0,952.654,414.6Z" transform="translate(-749.557 -247.264)" fill="#5d7f3c"/>
          <path id="Trazado_950185" data-name="Trazado 950185" d="M926,426.585s17.547,8.427,51.564,3.82" transform="translate(-734.288 -254.907)" fill="none" stroke="#4ba4a1" stroke-miterlimit="10" stroke-width="0.992"/>
          <path id="Trazado_950186" data-name="Trazado 950186" d="M984.11,438.273s-1.369,16.2,13.379,17.97" transform="translate(-767.557 -261.603)" fill="none" stroke="#4ba4a1" stroke-miterlimit="10" stroke-width="0.992"/>
          <path id="Trazado_950187" data-name="Trazado 950187" d="M1015.48,438.751s.022,39.744.3,51.8,1.167,57.072,1.167,57.072" transform="translate(-785.547 -261.876)" fill="none" stroke="#4ba4a1" stroke-miterlimit="10" stroke-width="0.992"/>
          <line id="Línea_1094" data-name="Línea 1094" x1="8.824" y1="1.772" transform="translate(195.051 192.868)" fill="none" stroke="#4ba4a1" stroke-miterlimit="10" stroke-width="0.992"/>
          <path id="Trazado_950188" data-name="Trazado 950188" d="M1032.13,437.214l1.077,30.4h5.156" transform="translate(-795.085 -260.996)" fill="none" stroke="#4ba4a1" stroke-miterlimit="10" stroke-width="0.992"/>
          <g id="Grupo_1185112" data-name="Grupo 1185112" transform="translate(90.24 197.747)">
            <g id="Grupo_1185105" data-name="Grupo 1185105" transform="translate(23.109 18.029)">
              <g id="Grupo_1185103" data-name="Grupo 1185103" transform="translate(0 14.302)">
                <path id="Trazado_950189" data-name="Trazado 950189" d="M742.546,563.3v10.06l10.8.212s3.123-1.56,3.38-3.9-2.734-6.373-2.734-6.373Z" transform="translate(-742.546 -563.305)" fill="#336d4c"/>
              </g>
              <g id="Grupo_1185104" data-name="Grupo 1185104" transform="translate(5.385)">
                <path id="Trazado_950190" data-name="Trazado 950190" d="M765.118,551.521c1.489-2.547,6.239-10.645,6.239-10.645s.7-2.68-.73-4.5a30.7,30.7,0,0,1-2.187-3.426l3.32-3.126-11.271.522-5.336,9.829,3.459-2.027S766.807,546.988,765.118,551.521Z" transform="translate(-755.153 -529.823)" fill="#336d4c"/>
              </g>
            </g>
            <g id="Grupo_1185108" data-name="Grupo 1185108" transform="translate(0 13.802)">
              <g id="Grupo_1185106" data-name="Grupo 1185106" transform="translate(0.519)">
                <path id="Trazado_950191" data-name="Trazado 950191" d="M704.669,526.4l-7.707-6.472-7.1,8.132s-.812,3.391.813,5.1,6.641,2,6.641,2Z" transform="translate(-689.66 -519.927)" fill="#336d4c"/>
              </g>
              <g id="Grupo_1185107" data-name="Grupo 1185107" transform="translate(0 13.132)">
                <path id="Trazado_950192" data-name="Trazado 950192" d="M688.445,551c.989,2.779,4.138,11.625,4.138,11.625s1.6,2.258,3.917,2.332a30.311,30.311,0,0,1,4.036.531l.25,4.552,6.853-8.975-4.1-10.4-.668,3.956S690.833,555.215,688.445,551Z" transform="translate(-688.445 -550.67)" fill="#336d4c"/>
              </g>
            </g>
            <g id="Grupo_1185111" data-name="Grupo 1185111" transform="translate(6.575)">
              <g id="Grupo_1185109" data-name="Grupo 1185109" transform="translate(17.625 1.565)">
                <path id="Trazado_950193" data-name="Trazado 950193" d="M750.652,507.007l8.8-4.886-5.053-9.539s-2.881-1.971-5.055-1.06S745.1,497,745.1,497Z" transform="translate(-745.099 -491.281)" fill="#336d4c"/>
              </g>
              <g id="Grupo_1185110" data-name="Grupo 1185110">
                <path id="Trazado_950194" data-name="Trazado 950194" d="M726.029,487.9c-2.95-.065-12.333-.284-12.333-.284s-2.685.69-3.581,2.823a29.876,29.876,0,0,1-1.935,3.581l-4.343-1.389,5.93,9.607,11.186-.119-3.453-2.038S721.248,488.63,726.029,487.9Z" transform="translate(-703.837 -487.616)" fill="#336d4c"/>
              </g>
            </g>
          </g>
          <path id="Trazado_950195" data-name="Trazado 950195" d="M818.877,405.83h32.146a3.507,3.507,0,1,1,0,7.014l-6.505,115.917H814.441c.182-4.759.976-25.5,4.436-115.917C823.013,409.654,818.877,405.83,818.877,405.83Z" transform="translate(-670.382 -243.018)" fill="#437c5b" opacity="0.29"/>
          <path id="Trazado_950196" data-name="Trazado 950196" d="M718.467,412.631h38.272a1.418,1.418,0,0,0,1.414-1.414h0a1.418,1.418,0,0,0-1.414-1.414H718.467a1.418,1.418,0,0,0-1.414,1.414h0A1.417,1.417,0,0,0,718.467,412.631Z" transform="translate(-614.593 -245.294)" fill="#fff" opacity="0.23"/>
          <path id="Trazado_950197" data-name="Trazado 950197" d="M656.99,444.918s7.164-1.68,8.461,27.1,2.338,62.6,22.194,66.9,26.612,10.416,25.256,12.224h-49.95Z" transform="translate(-580.186 -265.399)" fill="#fff" opacity="0.23"/>
        </g>
      </g>
    </g>
  </g>
</svg>
