<svg xmlns="http://www.w3.org/2000/svg" xmlns:xlink="http://www.w3.org/1999/xlink" width="118" height="118" viewBox="0 0 118 118">
  <defs>
    <filter id="Trazado_895309" x="0" y="0" width="118" height="118" filterUnits="userSpaceOnUse">
      <feOffset dy="3" input="SourceAlpha"/>
      <feGaussianBlur stdDeviation="3" result="blur"/>
      <feFlood flood-opacity="0.161"/>
      <feComposite operator="in" in2="blur"/>
      <feComposite in="SourceGraphic"/>
    </filter>
  </defs>
  <g id="Grupo_1175622" data-name="Grupo 1175622" transform="translate(-736.294 -3014)">
    <g transform="matrix(1, 0, 0, 1, 736.29, 3014)" filter="url(#Trazado_895309)">
      <g id="Trazado_895309-2" data-name="Trazado 895309" transform="translate(9 6)" fill="#e9dea8">
        <path d="M 50.00019836425781 98.49961853027344 L 49.99980163574219 98.49961853027344 C 43.45171356201172 98.49961853027344 37.10028457641602 97.21750640869141 31.1219425201416 94.68887329101562 C 25.34679985046387 92.24620819091797 20.15988540649414 88.74897766113281 15.70525741577148 84.29434967041016 C 11.25064277648926 79.83973693847656 7.753414154052734 74.65280914306641 5.310742855072021 68.87766265869141 C 2.782114267349243 62.89931869506836 1.5 56.54790496826172 1.5 49.99980545043945 C 1.5 43.45170593261719 2.782114267349243 37.10029220581055 5.310742855072021 31.1219482421875 C 7.753414154052734 25.34680557250977 11.25064277648926 20.15989112854004 15.70525741577148 15.70526218414307 C 20.15988540649414 11.25064849853516 25.34679985046387 7.753419876098633 31.1219425201416 5.310748100280762 C 37.10028457641602 2.782119750976562 43.45169830322266 1.500005483627319 49.99980163574219 1.500005483627319 C 56.54830169677734 1.500005483627319 62.89971542358398 2.782119750976562 68.87805938720703 5.310748100280762 C 74.6531982421875 7.753419876098633 79.84011077880859 11.25064849853516 84.29474639892578 15.70526218414307 C 88.74935913085938 20.15989112854004 92.24658203125 25.34680557250977 94.68925476074219 31.1219482421875 C 97.21788787841797 37.10029220581055 98.5 43.45170593261719 98.5 49.99980545043945 C 98.5 56.54790496826172 97.21788787841797 62.89931869506836 94.68925476074219 68.87766265869141 C 92.24658203125 74.65280914306641 88.74935913085938 79.83973693847656 84.29474639892578 84.29434967041016 C 79.84011077880859 88.74897766113281 74.6531982421875 92.24620819091797 68.87805938720703 94.68887329101562 C 62.89971542358398 97.21750640869141 56.54828643798828 98.49961853027344 50.00019836425781 98.49961853027344 Z" stroke="none"/>
        <path d="M 49.99980163574219 3.000007629394531 C 43.65353775024414 3.000007629394531 37.49872207641602 4.24224853515625 31.70627593994141 6.692253112792969 C 26.10993957519531 9.059295654296875 21.08327484130859 12.44857788085938 16.76592254638672 16.76593017578125 C 12.44857025146484 21.08326721191406 9.059310913085938 26.10993194580078 6.692245483398438 31.70628356933594 C 4.24224853515625 37.49871444702148 3 43.65354537963867 3 49.99980545043945 C 3 56.34606552124023 4.24224853515625 62.50089645385742 6.692245483398438 68.29332733154297 C 9.059310913085938 73.88967895507812 12.44857025146484 78.91634368896484 16.76592254638672 83.23368072509766 C 21.08327484130859 87.55103302001953 26.10993957519531 90.94031524658203 31.70627593994141 93.30735778808594 C 37.49872207641602 95.75736236572266 43.65353775024414 96.99960327148438 50.00019836425781 96.99960327148438 C 56.34646224975586 96.99960327148438 62.50129318237305 95.75736236572266 68.29372406005859 93.30735778808594 C 73.89007568359375 90.94031524658203 78.91674041748047 87.55103302001953 83.23407745361328 83.23368072509766 C 87.55142974853516 78.91634368896484 90.94070434570312 73.88967895507812 93.30775451660156 68.29332733154297 C 95.75775146484375 62.50089645385742 97 56.34606552124023 97 49.99980545043945 C 97 43.65354537963867 95.75775146484375 37.49871444702148 93.30775451660156 31.70628356933594 C 90.94070434570312 26.10993194580078 87.55142974853516 21.08326721191406 83.23407745361328 16.76593017578125 C 78.91674041748047 12.44857788085938 73.89007568359375 9.059295654296875 68.29372406005859 6.692253112792969 C 62.50129318237305 4.24224853515625 56.34646224975586 3.000007629394531 50.00019836425781 3.000007629394531 L 49.99980163574219 3.000007629394531 M 49.99980163574219 7.62939453125e-06 L 50.00019836425781 7.62939453125e-06 C 77.61433410644531 7.62939453125e-06 100 22.38566589355469 100 49.99980545043945 C 100 77.61394500732422 77.61433410644531 99.99960327148438 50.00019836425781 99.99960327148438 L 49.99980163574219 99.99960327148438 C 22.38567352294922 99.99960327148438 0 77.61394500732422 0 49.99980545043945 C 0 22.38566589355469 22.38567352294922 7.62939453125e-06 49.99980163574219 7.62939453125e-06 Z" stroke="none" fill="#fff"/>
      </g>
    </g>
    <g id="Grupo_1175637" data-name="Grupo 1175637" transform="translate(752.845 3027.617)">
      <g id="Grupo_1175636" data-name="Grupo 1175636" transform="translate(5.855 55.623)">
        <path id="Trazado_938769" data-name="Trazado 938769" d="M29.464,61.42A1.464,1.464,0,0,1,28,59.956V39.464a1.464,1.464,0,0,1,2.928,0V59.956A1.464,1.464,0,0,1,29.464,61.42Z" transform="translate(7.13 -38)" fill="#ffb74f"/>
        <path id="Trazado_938770" data-name="Trazado 938770" d="M34.464,61.42A1.463,1.463,0,0,1,33,59.956V39.464a1.464,1.464,0,1,1,2.928,0V59.956A1.463,1.463,0,0,1,34.464,61.42Z" transform="translate(9.449 -38)" fill="#ffb74f"/>
        <path id="Trazado_938771" data-name="Trazado 938771" d="M39.464,61.42A1.463,1.463,0,0,1,38,59.956V39.464a1.464,1.464,0,0,1,2.928,0V59.956A1.463,1.463,0,0,1,39.464,61.42Z" transform="translate(11.768 -38)" fill="#ffb74f"/>
        <path id="Trazado_938772" data-name="Trazado 938772" d="M53.464,61.42A1.463,1.463,0,0,1,52,59.956V39.464a1.464,1.464,0,1,1,2.928,0V59.956A1.463,1.463,0,0,1,53.464,61.42Z" transform="translate(18.261 -38)" fill="#ffb74f"/>
        <path id="Trazado_938773" data-name="Trazado 938773" d="M5.464,61.42A1.464,1.464,0,0,1,4,59.956V39.464a1.464,1.464,0,0,1,2.928,0V59.956A1.464,1.464,0,0,1,5.464,61.42Z" transform="translate(-4 -38)" fill="#ffb74f"/>
        <path id="Trazado_938774" data-name="Trazado 938774" d="M19.464,61.42A1.464,1.464,0,0,1,18,59.956V39.464a1.464,1.464,0,0,1,2.928,0V59.956A1.464,1.464,0,0,1,19.464,61.42Z" transform="translate(2.493 -38)" fill="#ffb74f"/>
        <path id="Trazado_938775" data-name="Trazado 938775" d="M24.464,61.42A1.464,1.464,0,0,1,23,59.956V39.464a1.464,1.464,0,0,1,2.928,0V59.956A1.464,1.464,0,0,1,24.464,61.42Z" transform="translate(4.812 -38)" fill="#ffb74f"/>
      </g>
      <path id="Trazado_938776" data-name="Trazado 938776" d="M65.085,51.029a1.468,1.468,0,0,0-1.269-.752h-.01a1.467,1.467,0,0,0-1.269.733l-5.362,9.337L27.2,60.355,13.4,35.473A2.97,2.97,0,0,0,10.847,34H2.928A2.93,2.93,0,0,0,0,36.928v2.928a2.93,2.93,0,0,0,2.928,2.928l4.457-.007L21.2,67.658a2.959,2.959,0,0,0,2.54,1.473H60.629a2.943,2.943,0,0,0,2.541-1.465l5.27-9.149a1.46,1.46,0,0,0,.012-1.442Z" transform="translate(0 15.768)" fill="#00a6ff"/>
      <path id="Trazado_938777" data-name="Trazado 938777" d="M61.134,34H53.2a2.947,2.947,0,0,0-2.543,1.465l-5.533,9.617a1.461,1.461,0,0,0-.012,1.439l3.352,6.045a1.464,1.464,0,0,0,1.269.755h.012a1.463,1.463,0,0,0,1.268-.733l5.641-9.806h4.479a2.93,2.93,0,0,0,2.928-2.928V36.928A2.93,2.93,0,0,0,61.134,34Z" transform="translate(20.837 15.768)" fill="#00a6ff"/>
      <path id="Trazado_938778" data-name="Trazado 938778" d="M17.3,55.046l-3.894,7.026a2.994,2.994,0,0,1-2.562,1.493H2.928A2.936,2.936,0,0,1,0,60.638V57.71a2.936,2.936,0,0,1,2.928-2.928H7.392L12.281,46Z" transform="translate(0 21.333)" fill="#08f"/>
      <path id="Trazado_938779" data-name="Trazado 938779" d="M79.417,63.275V66.2a2.936,2.936,0,0,1-2.928,2.928H68.029A2.946,2.946,0,0,1,65.5,67.652c-8.048-14.485,6.149,11.06-13.818-24.869H21.73l-4.889,8.783L11.82,42.519l3.894-7.026A2.97,2.97,0,0,1,18.261,34H55.133a2.993,2.993,0,0,1,2.562,1.478L71.483,60.348h5.006A2.936,2.936,0,0,1,79.417,63.275Z" transform="translate(5.482 15.768)" fill="#08f"/>
      <circle id="Elipse_11753" data-name="Elipse 11753" cx="32" cy="32" r="32" transform="translate(10.449 0.449)" fill="#2ad628"/>
      <ellipse id="Elipse_11754" data-name="Elipse 11754" cx="26" cy="26.5" rx="26" ry="26.5" transform="translate(16.449 5.449)" fill="#fafbfb"/>
      <path id="Trazado_938780" data-name="Trazado 938780" d="M38.1,9a4.365,4.365,0,0,0-3.345,7.2l-2.51,6.331-2.509-6.323a4.376,4.376,0,1,0-3.346,1.575,4.453,4.453,0,0,0,.79-.079l3.49,8.8-2.714,6.842a1.463,1.463,0,0,0,.821,1.9,1.434,1.434,0,0,0,.54.1,1.464,1.464,0,0,0,1.361-.925l1.566-3.949,1.566,3.951a1.465,1.465,0,0,0,2.723-1.08L33.821,26.5l3.49-8.8A4.388,4.388,0,1,0,38.1,9ZM24.928,13.391a1.464,1.464,0,1,1,2.928,0,1.516,1.516,0,0,1-.643,1.221,1.474,1.474,0,0,1-2.285-1.221ZM38.1,14.855a1.457,1.457,0,0,1-.786-.218,1.538,1.538,0,0,1-.678-1.246A1.464,1.464,0,1,1,38.1,14.855Z" transform="translate(10.203 4.174)" fill="#2ad628"/>
      <path id="Trazado_938781" data-name="Trazado 938781" d="M44.783,26.464V38.8A26.052,26.052,0,0,1,36,44.878V26.464A1.468,1.468,0,0,1,37.464,25h5.855a1.468,1.468,0,0,1,1.464,1.464Z" transform="translate(16.696 11.594)" fill="#ffb74f"/>
      <path id="Trazado_938782" data-name="Trazado 938782" d="M24.783,26.464V44.878A26.052,26.052,0,0,1,16,38.8V26.464A1.468,1.468,0,0,1,17.464,25h5.855A1.468,1.468,0,0,1,24.783,26.464Z" transform="translate(7.42 11.594)" fill="#ffb74f"/>
      <path id="Trazado_938783" data-name="Trazado 938783" d="M29.171,23.391,31.064,21.5A1.463,1.463,0,0,0,30.029,19H11.381A24.9,24.9,0,0,0,11,23.391a26.137,26.137,0,0,0,1.026,7.319H27.1a1.46,1.46,0,0,0,1.035-.429l2.928-2.928a1.462,1.462,0,0,0,0-2.07Z" transform="translate(5.101 8.812)" fill="#08f"/>
      <path id="Trazado_938784" data-name="Trazado 938784" d="M53.111,19H34.464a1.463,1.463,0,0,0-1.035,2.5l1.893,1.893-1.893,1.893a1.462,1.462,0,0,0,0,2.07l2.928,2.928a1.457,1.457,0,0,0,1.035.429H52.465a26.015,26.015,0,0,0,1.028-7.319A24.749,24.749,0,0,0,53.111,19Z" transform="translate(15.304 8.812)" fill="#08f"/>
      <path id="Trazado_938785" data-name="Trazado 938785" d="M81.971,58.551A2.93,2.93,0,0,0,84.9,55.623V52.7a2.93,2.93,0,0,0-2.928-2.928H74.037a2.947,2.947,0,0,0-2.543,1.465l-4.242,7.373-2.029-3.658a32.209,32.209,0,1,0-45.888-.356L17.3,58.27l-3.9-7.029a2.966,2.966,0,0,0-2.553-1.473H2.928A2.93,2.93,0,0,0,0,52.7v2.928a2.93,2.93,0,0,0,2.928,2.928l2.928,0v17.57H2.928A2.93,2.93,0,0,0,0,79.043v2.928A2.93,2.93,0,0,0,2.928,84.9h7.919a2.979,2.979,0,0,0,2.567-1.5l3.886-7,3.9,7.028a2.958,2.958,0,0,0,2.54,1.474H60.629a2.943,2.943,0,0,0,2.541-1.465l3.974-6.9c1.092,1.966,2.355,4.239,3.828,6.893A2.956,2.956,0,0,0,73.51,84.9h8.461A2.93,2.93,0,0,0,84.9,81.971V79.043a2.93,2.93,0,0,0-2.928-2.928l-2.928,0V58.551ZM74.037,52.7h7.934v2.928H77.492a2.936,2.936,0,0,0-2.528,1.465L70.6,64.653l-1.7-3.056ZM72.263,67.639l3.853-6.7V74.583ZM42.449,2.928A29.275,29.275,0,1,1,13.174,32.2,29.309,29.309,0,0,1,42.449,2.928Zm8.783,73.19V63.178a31.983,31.983,0,0,0,4.391-1.6v14.54Zm-7.319,0V64.368a32.092,32.092,0,0,0,4.391-.506V76.117Zm-7.319,0V63.863a32.094,32.094,0,0,0,4.391.506V76.12Zm-7.319,0V61.576a31.989,31.989,0,0,0,4.391,1.6V76.123Zm-6.948-8.788,4.021-7.241V74.582Zm36.224-6.28,1.391,2.507c.265.479.524.944,2.184,3.933l-3.575,6.222ZM21.538,56.662q1.131.968,2.349,1.831l-3.233,5.824-1.679-3.027ZM12.265,67.327l-3.482,6.28V61.058ZM10.847,81.971H2.928V79.043H7.392a2.965,2.965,0,0,0,2.554-1.5l3.993-7.2,1.686,3.036Zm49.783,0-36.881.006L9.932,57.1a2.952,2.952,0,0,0-2.54-1.475H2.928V52.7l7.928-.007,13.8,24.883a2.966,2.966,0,0,0,2.553,1.473H57.175A2.94,2.94,0,0,0,59.7,77.578l4.081-7.095,1.7,3.065Zm21.342,0-8.455.007C63.479,63.905,63,63.052,62.5,62.144l-1.875-3.378q1.227-.843,2.371-1.79L74.427,77.568a2.959,2.959,0,0,0,2.553,1.475h4.991Z" transform="translate(0)" fill="#002d6b"/>
      <path id="Trazado_938786" data-name="Trazado 938786" d="M26.391,17.783a4.453,4.453,0,0,0,.79-.079l3.49,8.8-2.714,6.842a1.463,1.463,0,0,0,.821,1.9,1.434,1.434,0,0,0,.54.1,1.464,1.464,0,0,0,1.361-.925l1.566-3.949,1.566,3.951a1.465,1.465,0,0,0,2.723-1.08L33.821,26.5l3.49-8.8a4.387,4.387,0,1,0-3.6-4.312A4.39,4.39,0,0,0,34.757,16.2l-2.51,6.331-2.509-6.323a4.376,4.376,0,1,0-3.346,1.575ZM38.1,11.928a1.464,1.464,0,1,1-.786,2.709,1.538,1.538,0,0,1-.678-1.246A1.465,1.465,0,0,1,38.1,11.928Zm-11.71,0a1.466,1.466,0,0,1,1.464,1.464,1.516,1.516,0,0,1-.643,1.221,1.467,1.467,0,1,1-.821-2.685Z" transform="translate(10.203 4.174)" fill="#002d6b"/>
      <path id="Trazado_938787" data-name="Trazado 938787" d="M11.839,36.826a26.335,26.335,0,0,0,6.837,12.089,1.422,1.422,0,0,0,.2.195,26.472,26.472,0,0,0,6.048,4.463,1.38,1.38,0,0,0,.234.113,26.184,26.184,0,0,0,24.42-.023,1.136,1.136,0,0,0,.113-.054,26.5,26.5,0,0,0,6.119-4.5,1.406,1.406,0,0,0,.208-.2,26.343,26.343,0,0,0,6.836-12.086,1.436,1.436,0,0,0,.12-.464,26.348,26.348,0,1,0-51.257,0,1.447,1.447,0,0,0,.119.46Zm14.228-5.444,1.893,1.893L26.5,34.739H14.355a23.35,23.35,0,0,1-.427-4.391c0-.495.044-.978.075-1.464H26.5l-.429.429a1.462,1.462,0,0,0,0,2.07ZM18.319,43.949a23.335,23.335,0,0,1-3.2-6.282h3.2Zm2.928-6.282h2.928V49.7a23.507,23.507,0,0,1-2.928-2.386Zm27.383-8.354-.429-.429H60.693c.031.486.075.969.075,1.464a23.35,23.35,0,0,1-.427,4.391H48.2l-1.464-1.464,1.893-1.893a1.462,1.462,0,0,0,0-2.07Zm7.748,8.354h3.2a23.335,23.335,0,0,1-3.2,6.282Zm-2.928,0v9.645A23.639,23.639,0,0,1,50.522,49.7V37.667ZM37.348,6.928A23.449,23.449,0,0,1,60.341,25.956H44.667a1.463,1.463,0,0,0-1.035,2.5l1.893,1.893L43.632,32.24a1.462,1.462,0,0,0,0,2.07l2.928,2.928a1.457,1.457,0,0,0,1.035.429V51.375a23.131,23.131,0,0,1-20.493,0V37.667a1.46,1.46,0,0,0,1.035-.429l2.928-2.928a1.462,1.462,0,0,0,0-2.07l-1.893-1.893,1.893-1.893a1.463,1.463,0,0,0-1.035-2.5H14.355A23.449,23.449,0,0,1,37.348,6.928Z" transform="translate(5.101 1.855)" fill="#002d6b"/>
    </g>
  </g>
</svg>
