<svg xmlns="http://www.w3.org/2000/svg" xmlns:xlink="http://www.w3.org/1999/xlink" width="400.589" height="180" viewBox="0 0 400.589 180">
  <defs>
    <clipPath id="clip-path">
      <path id="AdobeStock_102592541" d="M19,0H400.589a0,0,0,0,1,0,0V180a0,0,0,0,1,0,0H19A19,19,0,0,1,0,161V19A19,19,0,0,1,19,0Z" fill="#fdf6d4"/>
    </clipPath>
    <clipPath id="clip-path-2">
      <rect id="Rectángulo_418973" data-name="Rectángulo 418973" width="253" height="179.159" fill="#fdf6d4" stroke="#af837f" stroke-width="1"/>
    </clipPath>
    <clipPath id="clip-path-3">
      <rect id="Rectángulo_434628" data-name="Rectángulo 434628" width="229.411" height="121.711" transform="translate(0 0)" fill="none"/>
    </clipPath>
  </defs>
  <g id="Grupo_1160431" data-name="Grupo 1160431" transform="translate(-180.102 -9685.379)">
    <g id="Grupo_1150391" data-name="Grupo 1150391" transform="translate(180.102 9685.379)">
      <g id="Grupo_1138744" data-name="Grupo 1138744" transform="translate(0 0)">
        <g id="Grupo_1098760" data-name="Grupo 1098760">
          <g id="Grupo_1097571" data-name="Grupo 1097571">
            <rect id="AdobeStock_579216799" width="400.589" height="180" fill="#fdf6d4"/>
          </g>
        </g>
      </g>
    </g>
    <g id="Grupo_1175705" data-name="Grupo 1175705" transform="translate(266.102 9714.379)">
      <g id="Grupo_1175704" data-name="Grupo 1175704" clip-path="url(#clip-path-3)">
        <path id="Trazado_943601" data-name="Trazado 943601" d="M1640.276,310.662a16.5,16.5,0,0,0-13.294,26.642h0a16.472,16.472,0,0,1,3.553,10.453l-.03,1.73a4.25,4.25,0,0,0,4.141,4.364l9.75.17a4.25,4.25,0,0,0,4.291-4.217l.03-1.73a16.472,16.472,0,0,1,3.915-10.323h0a16.5,16.5,0,0,0-12.356-27.09" transform="translate(-1433.55 -274.313)" fill="#ffc022"/>
        <path id="Trazado_943602" data-name="Trazado 943602" d="M1732.735,344.116a13.227,13.227,0,0,0-9.345-4.064.983.983,0,1,0-.034,1.966,11.361,11.361,0,0,1,11.149,11.545.983.983,0,0,0,1.966.034,13.228,13.228,0,0,0-3.735-9.482" transform="translate(-1520.877 -300.268)" fill="#fff"/>
        <path id="Trazado_943603" data-name="Trazado 943603" d="M1631.416,319.342a17.156,17.156,0,1,0-30.676,10.247l0,.006a15.9,15.9,0,0,1,3.413,10.037l-.03,1.73a4.957,4.957,0,0,0,2.77,4.547l-.039,2.25h-.075a.656.656,0,0,0-.005,1.311h.057l-.024,1.351h-.075a.656.656,0,0,0-.005,1.311h.057l-.021,1.209c0,.048,0,.1,0,.143h-.078a.656.656,0,0,0-.005,1.311h.018l.347,0a3.776,3.776,0,0,0,1.892,1.933l1.642,2.864a.655.655,0,0,0,.557.33l1.9.033,1.034.018,1.895.033a.655.655,0,0,0,.568-.31l1.741-2.805a3.7,3.7,0,0,0,2.264-2.923c.089-.019.174-.039.253-.06a.655.655,0,0,0-.209-1.288l.023-1.319q.123-.027.232-.055a.655.655,0,0,0-.209-1.288l.023-1.319c.082-.018.159-.036.232-.055a.655.655,0,0,0-.209-1.288l.02-1.141a4.956,4.956,0,0,0,2.927-4.448l.03-1.73a15.9,15.9,0,0,1,3.762-9.912l0-.005a17.084,17.084,0,0,0,4-10.713m-15.8,39.343-1.523-.027-1.033-.018-1.523-.027-.873-1.523,5.877.1Zm2.085-2.979a.66.66,0,0,0-.158.056,2.646,2.646,0,0,1-.849.123l-6.139-.107a2.649,2.649,0,0,1-.844-.153.661.661,0,0,0-.156-.061,2.509,2.509,0,0,1-1.019-.8c2.68-.055,7.647-.2,10.613-.577a2.431,2.431,0,0,1-1.451,1.517m1.565-2.852c-2.941.406-8.576.558-11.186.609,0-.033,0-.065,0-.1l.022-1.252c2.547-.047,8.047-.193,11.188-.6Zm.047-2.663c-2.942.406-8.58.558-11.188.609l.023-1.35c2.547-.047,8.047-.193,11.188-.6Zm.047-2.663c-2.942.406-8.58.558-11.188.609l.032-1.81a4.811,4.811,0,0,0,.711.066l9.75.17a4.825,4.825,0,0,0,.713-.041Zm9.718-22.851a15.784,15.784,0,0,1-2.668,4.54l0,0a17.217,17.217,0,0,0-4.065,10.729l-.03,1.73a3.6,3.6,0,0,1-3.624,3.573l-9.75-.17a3.6,3.6,0,0,1-3.5-3.7l.03-1.73a17.216,17.216,0,0,0-3.689-10.864l0,0a15.836,15.836,0,1,1,27.3-4.11" transform="translate(-1410.259 -266.571)"/>
        <path id="Trazado_943604" data-name="Trazado 943604" d="M1693.1,481.67l-1.168-.02.328-18.768c-.08,0-.161,0-.243,0l-1.557-.027-.238,0-.328,18.768-1.168-.02.329-18.853a5.633,5.633,0,0,1-4.251-2.587,3.349,3.349,0,0,1-.06-3.384,3.277,3.277,0,0,1,3-1.5,2.2,2.2,0,0,1,1.61.7,4.915,4.915,0,0,1,.935,3.225l-.043,2.476.234.005,1.567.027q.12,0,.238,0l.043-2.476a4.914,4.914,0,0,1,1.047-3.191,2.2,2.2,0,0,1,1.634-.646,3.28,3.28,0,0,1,2.943,1.6,3.349,3.349,0,0,1-.178,3.38,5.633,5.633,0,0,1-4.338,2.437Zm1.856-25.1a1.013,1.013,0,0,0-.76.3,3.833,3.833,0,0,0-.7,2.358v.019l-.042,2.387a4.422,4.422,0,0,0,3.32-1.864,2.2,2.2,0,0,0,.153-2.209,2.123,2.123,0,0,0-1.94-.995h-.026m-7.3-.127a2.1,2.1,0,0,0-1.911.927,2.2,2.2,0,0,0,.076,2.213,4.423,4.423,0,0,0,3.253,1.979l.042-2.388c0-.006,0-.013,0-.019a3.832,3.832,0,0,0-.622-2.38,1.019,1.019,0,0,0-.775-.33h-.062" transform="translate(-1487.26 -402.008)"/>
        <path id="Trazado_943605" data-name="Trazado 943605" d="M1650.881,234.018a.656.656,0,0,0,.368-.851l-2.415-6.1a.656.656,0,1,0-1.219.482l2.415,6.1a.656.656,0,0,0,.851.368" transform="translate(-1454.81 -200.133)"/>
        <path id="Trazado_943606" data-name="Trazado 943606" d="M1803.521,234.87a.654.654,0,0,0,.36-.349l2.607-6.023a.655.655,0,1,0-1.2-.521L1802.678,234a.655.655,0,0,0,.843.87" transform="translate(-1591.725 -200.955)"/>
        <path id="Trazado_943607" data-name="Trazado 943607" d="M1904,353.682l-6.1,2.415a.656.656,0,1,0,.483,1.219l6.1-2.415a.656.656,0,0,0-.483-1.219" transform="translate(-1675.489 -312.262)"/>
        <path id="Trazado_943608" data-name="Trazado 943608" d="M1898.149,508.746a.656.656,0,0,0-.521,1.2l6.023,2.607a.655.655,0,1,0,.521-1.2Z" transform="translate(-1675.265 -449.177)"/>
        <path id="Trazado_943609" data-name="Trazado 943609" d="M1525.335,352.571a.655.655,0,1,0,.521-1.2l-6.023-2.607a.655.655,0,1,0-.521,1.2Z" transform="translate(-1341.21 -307.91)"/>
        <path id="Trazado_943610" data-name="Trazado 943610" d="M1520.768,505.385l-6.1,2.415a.655.655,0,1,0,.482,1.219l6.1-2.415a.655.655,0,1,0-.482-1.219" transform="translate(-1337.09 -446.216)"/>
        <path id="Trazado_943611" data-name="Trazado 943611" d="M189.133,0H15.021A15.038,15.038,0,0,0,0,15.018v91.668a15.038,15.038,0,0,0,15.021,15.021H189.133a15.038,15.038,0,0,0,15.021-15.021V92.633h-2.028v14.054a13.008,13.008,0,0,1-12.994,12.993H15.021A13.008,13.008,0,0,1,2.028,106.687V15.018A13.008,13.008,0,0,1,15.021,2.025H189.133a13.008,13.008,0,0,1,12.994,12.993v9.712h2.028V15.018A15.038,15.038,0,0,0,189.133,0M6.812,4.654q.182-.145.37-.283-.187.138-.37.283M203.921,24.5h0V15.018A14.8,14.8,0,0,0,189.133.231H15.021A14.8,14.8,0,0,0,.234,15.018v91.668a14.8,14.8,0,0,0,14.787,14.787H189.133a14.8,14.8,0,0,0,14.787-14.787v0a14.8,14.8,0,0,1-14.787,14.787H15.021A14.8,14.8,0,0,1,.234,106.687V15.018A14.8,14.8,0,0,1,15.021.231H189.133a14.8,14.8,0,0,1,14.787,14.787Z" transform="translate(0 0.003)"/>
        <path id="Trazado_943612" data-name="Trazado 943612" d="M174.155,316.136a8.118,8.118,0,0,1-7.218-2.968,10.313,10.313,0,0,1-2.223-6.086q-.311-5.94,4.789-11.581a6.43,6.43,0,0,0,1.77-4.453q.018-.83-.035-1.841l-.12-2.3,5.787-.3.12,2.3q.284,5.42-2.242,8.193a15.9,15.9,0,0,0-3.644,6.055,11.036,11.036,0,0,0-.42,3.706,4.95,4.95,0,0,0,1.052,3.077,2.831,2.831,0,0,0,2.9.923,3.122,3.122,0,0,0,2.384-2.551,8.761,8.761,0,0,0,.347-2.168l5.624.688a10.435,10.435,0,0,1-2.072,6.157,7.912,7.912,0,0,1-3.794,2.594,10.515,10.515,0,0,1-3.01.557M176.7,282.6l-5.787.3-.3-5.818,5.787-.3Z" transform="translate(-145.428 -244.397)" fill="#1d1d1b"/>
        <path id="Trazado_943613" data-name="Trazado 943613" d="M361.046,225.057a10.807,10.807,0,0,1-1.723,6.968,7.51,7.51,0,0,1-3.838,2.934,10.881,10.881,0,0,1-3.193.6,9.111,9.111,0,0,1-5.723-1.389,9.432,9.432,0,0,1-3.151-3.6,15.151,15.151,0,0,1-1.556-5.369l5.491-.687a8.384,8.384,0,0,0,2.031,4.77,2.964,2.964,0,0,0,2.445.952,3.6,3.6,0,0,0,2.933-2.029,4.651,4.651,0,0,0,.449-2.574A7.073,7.073,0,0,0,352.789,221l-5.4-4.6a21.98,21.98,0,0,1-4.334-4.782,11.568,11.568,0,0,1-1.569-5.327q-.274-5.24,3.105-8.122a8.763,8.763,0,0,1,5.3-1.907,9.806,9.806,0,0,1,5.37,1.1,7.968,7.968,0,0,1,2.928,2.856,11.124,11.124,0,0,1,1.5,4.373l-5.489,1.3a6.7,6.7,0,0,0-1.54-3.6,2.835,2.835,0,0,0-2.346-.829,2.65,2.65,0,0,0-2.345,1.535,5.44,5.44,0,0,0-.526,2.852,8.462,8.462,0,0,0,2.547,5.24,19.136,19.136,0,0,0,2.7,2.315q2.109,1.579,2.788,2.218a19.692,19.692,0,0,1,3.528,4.052,16.329,16.329,0,0,1,.983,1.76,10.541,10.541,0,0,1,1.05,3.629" transform="translate(-301.516 -173.28)" fill="#1d1d1b"/>
        <path id="Trazado_943614" data-name="Trazado 943614" d="M548.6,218.215l-.944,8.892-6.026.316,4.512-38.708,7.961-.417,8.44,38.03-6.085.319-1.816-8.748Zm1.952-20.92L549.2,212.534l4.287-.225Z" transform="translate(-478.263 -166.267)" fill="#1d1d1b"/>
        <path id="Trazado_943615" data-name="Trazado 943615" d="M746.8,217.81l-2.012-38.4,8.666-.454a11.051,11.051,0,0,1,6.28,1.483,8.419,8.419,0,0,1,3.617,4.569,13.387,13.387,0,0,1,.765,4.044,9.027,9.027,0,0,1-1.727,6.293,5.823,5.823,0,0,1-1.942,1.606,6.733,6.733,0,0,1,3.429,2.737,11.332,11.332,0,0,1,1.516,3.728,15.191,15.191,0,0,1,.354,2.652,12.837,12.837,0,0,1-1.054,6.258,8.269,8.269,0,0,1-2.864,3.343,8.356,8.356,0,0,1-4.308,1.577Zm5.056-23.048,2.419-.127a3.55,3.55,0,0,0,3.475-2.823,7.526,7.526,0,0,0,.21-2.436,5.067,5.067,0,0,0-1.353-3.552,3.668,3.668,0,0,0-2.846-.987l-2.419.127Zm.891,16.994,2.419-.127a4.112,4.112,0,0,0,3.913-3.245,6.668,6.668,0,0,0,.273-2.409,7.287,7.287,0,0,0-1.47-4.621,3.956,3.956,0,0,0-3.316-1.177l-2.419.127Z" transform="translate(-657.655 -158.006)" fill="#1d1d1b"/>
        <rect id="Rectángulo_434627" data-name="Rectángulo 434627" width="5.795" height="38.419" transform="translate(111.665 20.153) rotate(-3)" fill="#1d1d1b"/>
        <path id="Trazado_943616" data-name="Trazado 943616" d="M1069.408,190.92l-.944,8.892-6.026.316,4.512-38.708,7.961-.417,8.44,38.03-6.085.319-1.816-8.748ZM1071.36,170l-1.351,15.239,4.287-.225Z" transform="translate(-938.137 -142.165)" fill="#1d1d1b"/>
        <path id="Trazado_943617" data-name="Trazado 943617" d="M1279.4,176.928a10.807,10.807,0,0,1-1.723,6.968,7.511,7.511,0,0,1-3.838,2.934,10.879,10.879,0,0,1-3.193.6,9.111,9.111,0,0,1-5.722-1.389,9.432,9.432,0,0,1-3.151-3.6,15.152,15.152,0,0,1-1.556-5.369l5.491-.687a8.383,8.383,0,0,0,2.031,4.77,2.963,2.963,0,0,0,2.445.952,3.6,3.6,0,0,0,2.933-2.028,4.651,4.651,0,0,0,.448-2.574,7.072,7.072,0,0,0-2.423-4.637l-5.4-4.6a21.98,21.98,0,0,1-4.334-4.782,11.566,11.566,0,0,1-1.569-5.327q-.275-5.24,3.105-8.122a8.763,8.763,0,0,1,5.3-1.907,9.806,9.806,0,0,1,5.37,1.1,7.969,7.969,0,0,1,2.928,2.856,11.125,11.125,0,0,1,1.5,4.373l-5.49,1.3a6.7,6.7,0,0,0-1.54-3.6,2.835,2.835,0,0,0-2.346-.829,2.65,2.65,0,0,0-2.345,1.535,5.439,5.439,0,0,0-.526,2.852,8.462,8.462,0,0,0,2.547,5.24,19.137,19.137,0,0,0,2.7,2.315q2.109,1.579,2.787,2.218a19.689,19.689,0,0,1,3.528,4.052,16.319,16.319,0,0,1,.983,1.76,10.539,10.539,0,0,1,1.05,3.629" transform="translate(-1112.429 -130.782)" fill="#1d1d1b"/>
        <path id="Trazado_943618" data-name="Trazado 943618" d="M509.177,608.21a9.016,9.016,0,0,1-.984,4.657,2.754,2.754,0,0,0,2.251.772l.282,5.389q-4.348.228-6.083-2.414a8.712,8.712,0,0,1-4.14,1.261,9.186,9.186,0,0,1-9.667-8.7l-1.1-20.944a9.183,9.183,0,1,1,18.341-.961Zm-7.106-20.752a3.168,3.168,0,0,0-1.1-2.291,3.246,3.246,0,0,0-2.409-.841,3.3,3.3,0,0,0-3.134,3.48l1.1,21.006a3.3,3.3,0,0,0,3.48,3.133,3.246,3.246,0,0,0,2.307-1.088,3.17,3.17,0,0,0,.857-2.394Z" transform="translate(-432.428 -510.857)"/>
        <path id="Trazado_943619" data-name="Trazado 943619" d="M696.309,607.6a9.109,9.109,0,0,1-9.633-8.645l-1.555-29.671,5.665-.3,1.552,29.609a3.168,3.168,0,0,0,1.1,2.291,3.244,3.244,0,0,0,2.408.841,3.3,3.3,0,0,0,3.134-3.48l-1.552-29.609,6.032-.316,1.555,29.671a8.732,8.732,0,0,1-2.354,6.633,8.964,8.964,0,0,1-6.353,2.973" transform="translate(-604.965 -501.829)"/>
        <path id="Trazado_943620" data-name="Trazado 943620" d="M887.85,597.634l-2.012-38.4,16.474-.863.3,5.818-10.686.56.549,10.472,7.808-.409.3,5.818-7.808.409.549,10.472,10.686-.56.3,5.818Z" transform="translate(-782.199 -493.046)"/>
        <path id="Trazado_943621" data-name="Trazado 943621" d="M1073.272,548.092a8.118,8.118,0,0,1,7.218,2.968,10.314,10.314,0,0,1,2.223,6.086q.311,5.94-4.789,11.581a6.431,6.431,0,0,0-1.771,4.453q-.018.83.035,1.841l.12,2.3-5.787.3-.12-2.3q-.284-5.42,2.242-8.193a15.9,15.9,0,0,0,3.643-6.056,11.035,11.035,0,0,0,.42-3.706,4.951,4.951,0,0,0-1.052-3.077,2.831,2.831,0,0,0-2.9-.922,3.122,3.122,0,0,0-2.384,2.551,8.755,8.755,0,0,0-.347,2.168l-5.624-.688a10.435,10.435,0,0,1,2.072-6.157,7.913,7.913,0,0,1,3.794-2.594,10.518,10.518,0,0,1,3.01-.557m-2.541,33.539,5.787-.3.3,5.818-5.787.3Z" transform="translate(-939.865 -483.952)"/>
        <path id="Trazado_943622" data-name="Trazado 943622" d="M961.128,96.769l4.765-.25-1.9,6.985-3.491.183Z" transform="translate(-848.125 -85.227)"/>
      </g>
    </g>
  </g>
</svg>
