<svg xmlns="http://www.w3.org/2000/svg" width="189.698" height="91" viewBox="0 0 189.698 91">
  <g id="Grupo_1177583" data-name="Grupo 1177583" transform="translate(-1230.051 -5172)">
    <rect id="Rectángulo_434639" data-name="Rectángulo 434639" width="189.698" height="55" transform="translate(1230.051 5190)" fill="#cee6e3"/>
    <g id="Grupo_1177582" data-name="Grupo 1177582" transform="translate(1227.61 5166.5)">
      <path id="Trazado_944665" data-name="Trazado 944665" d="M269.366,25.584a10.013,10.013,0,0,1,1.384-6.766,8.4,8.4,0,0,1,5.308-3.591c2.479-.528,7.389-1.84,9.228-4.227,0,0-.2,9.65-5.043,13.369,0,0-3.82,3.6-11.752,2.876Z" transform="translate(-169.251 -4.474)" fill="#90e080"/>
      <path id="Trazado_944666" data-name="Trazado 944666" d="M169.318,31.093a9.259,9.259,0,0,0-1.28-6.256,7.765,7.765,0,0,0-4.908-3.32c-2.292-.489-6.833-1.7-8.533-3.909,0,0,.185,8.923,4.662,12.362,0,0,3.532,3.326,10.866,2.659Z" transform="translate(-76.598 -9.85)" fill="#90e080"/>
      <path id="Trazado_944667" data-name="Trazado 944667" d="M216.495,82.812c-5.176-4.642-8.51-4.145-8.51-4.145a17.726,17.726,0,0,1,4,2.545c2.236,1.879,3.058,4.609,3.253,7.524a69.077,69.077,0,0,1-.659,13.046h4.545a69.081,69.081,0,0,1-.659-13.046c.2-2.914,1.017-5.644,3.253-7.524a17.731,17.731,0,0,1,4-2.545s-3.334-.5-8.51,4.145A.535.535,0,0,1,216.495,82.812Z" transform="translate(-120.028 -59.509)" fill="#629e49"/>
      <path id="Trazado_944668" data-name="Trazado 944668" d="M160.362,193.776l-3.109-7.441a18.8,18.8,0,0,1-.16-5.438l8.148-13.286a18.6,18.6,0,0,1,18.711-1.108s12.654,10.643,6.516,21.2-15.754,11.261-19.778,10.277S161.6,194.914,160.362,193.776Z" transform="translate(-78.525 -129.344)" fill="#5ca9ef"/>
      <path id="Trazado_944669" data-name="Trazado 944669" d="M198.761,175.261a18.578,18.578,0,0,1-23.589,27.273,18.576,18.576,0,1,0,23.589-27.273Z" transform="translate(-93.335 -138.102)" fill="#457ed1"/>
      <path id="Trazado_944670" data-name="Trazado 944670" d="M308.242,202.583h-4.591a1.723,1.723,0,0,0,0,3.422h6.725A18.582,18.582,0,0,0,308.242,202.583Z" transform="translate(-196.613 -160.328)" fill="#90e080"/>
      <path id="Trazado_944671" data-name="Trazado 944671" d="M320.993,205.92c-.025-.052-.051-.1-.077-.154q-.094-.189-.192-.375l-.086-.162q-.106-.2-.216-.388c-.024-.041-.046-.082-.07-.123q-.149-.255-.3-.505l-.019-.03q-.145-.231-.3-.458l-.09-.132q-.122-.178-.248-.354c-.033-.046-.066-.093-.1-.138q-.136-.186-.277-.369c-.025-.032-.049-.065-.075-.1s-.029-.036-.043-.053h-3.668a18.468,18.468,0,0,1,.737,3.422h5.067Z" transform="translate(-207.272 -160.327)" fill="#73b464"/>
      <path id="Trazado_944672" data-name="Trazado 944672" d="M177.659,288.868H167.78a1.608,1.608,0,0,1,0-3.194h2.766a2.054,2.054,0,0,0,0-4.081H158.5a18.566,18.566,0,0,0,6.829,11.355h12.329a2.054,2.054,0,0,0,0-4.081Z" transform="translate(-79.772 -224.604)" fill="#90e080"/>
      <path id="Trazado_944673" data-name="Trazado 944673" d="M191.256,325.432a1.939,1.939,0,0,0,1.818-2.04,2.064,2.064,0,0,0-1.072-1.86,18.6,18.6,0,0,1-16.787-.009c.049.069.1.14.147.208l.117.16q.21.282.43.556l.122.148q.187.226.379.448l.12.137q.234.261.478.515l.142.145q.21.213.427.42l.112.107q.258.242.526.473l.156.133q.244.207.494.406l.065.053Z" transform="translate(-93.37 -257.087)" fill="#73b464"/>
      <path id="Trazado_944674" data-name="Trazado 944674" d="M157.652,194.486h14.216a2.486,2.486,0,1,0,0-4.956H165.22a1.9,1.9,0,1,1,0-3.794h2.046a2.276,2.276,0,1,0,0-4.536H165.8A18.568,18.568,0,0,0,157.652,194.486Z" transform="translate(-79.082 -142.933)" fill="#90e080"/>
      <path id="Trazado_944675" data-name="Trazado 944675" d="M301.465,261.408c0-.205,0-.41-.011-.615h-7.609a1.874,1.874,0,1,0,0,3.749h1.4a1.464,1.464,0,1,1,0,2.928h-4.414a1.911,1.911,0,0,0,0,3.822h7.785A18.486,18.486,0,0,0,301.465,261.408Z" transform="translate(-185.872 -207.682)" fill="#90e080"/>
      <path id="Trazado_944676" data-name="Trazado 944676" d="M301.464,261.383c0-.2,0-.391-.011-.585h-7.512a18.455,18.455,0,0,1-1.322,3.291,1.865,1.865,0,0,0,1.225.457h1.4a1.464,1.464,0,0,1,0,2.928h-4.414a1.907,1.907,0,0,0-.535.078,18.711,18.711,0,0,1-1.327,1.413,1.906,1.906,0,0,0,1.863,2.331h7.785a18.59,18.59,0,0,0,.925-1.65l.013-.025q.274-.556.512-1.133l.02-.048q.234-.573.431-1.164l.015-.047q.088-.267.168-.538l.023-.078q.168-.578.3-1.172l.026-.12q.059-.277.112-.558l.006-.031c.035-.2.067-.394.1-.593.007-.045.013-.09.019-.136q.034-.242.061-.488c0-.043.01-.086.015-.129q.031-.3.053-.594c0-.037,0-.076.007-.114q.017-.247.027-.5c0-.056,0-.11.006-.166.006-.2.011-.4.011-.6v0C301.465,261.4,301.464,261.393,301.464,261.383Z" transform="translate(-185.872 -207.687)" fill="#73b464"/>
      <path id="Trazado_944677" data-name="Trazado 944677" d="M80.6,324.262a14.98,14.98,0,0,1-2.614-.856,8.908,8.908,0,0,1-4.949-5.686A26.972,26.972,0,0,0,71.3,312.9a2.518,2.518,0,0,0-1.231-.912,3.069,3.069,0,0,0-3.909,1.475q-.04.084-.072.164a2.029,2.029,0,0,0-.1,1.184l1.783,8.518q.048.2.1.4a11.259,11.259,0,0,0,6.1,7.178l4.393,2.081q.172.09.336.181a8.77,8.77,0,0,1,4.441,7.679V343a1.619,1.619,0,0,0,1.619,1.619H95.021A1.619,1.619,0,0,0,96.64,343V330.074a5.135,5.135,0,0,0-1.223-3.343l-.051-.059a10.993,10.993,0,0,0-4.675-3.123c-1.194-.418-2.423-.758-3.284-.978a7.349,7.349,0,0,1-2.7-1.332c-.675-.528-1.254-1.05-1.471-1.25a.719.719,0,0,0-.211-.136q-.128-.053-.253-.091a2.355,2.355,0,0,0-2.825,3.156,9.5,9.5,0,0,0,.651,1.341Z" transform="translate(-4.476 -249.146)" fill="#ffd4c5"/>
      <path id="Trazado_944678" data-name="Trazado 944678" d="M299.043,324.261a14.976,14.976,0,0,0,2.614-.856,8.908,8.908,0,0,0,4.948-5.686,26.983,26.983,0,0,1,1.732-4.817,2.518,2.518,0,0,1,1.231-.912,3.069,3.069,0,0,1,3.909,1.476c.027.056.051.111.072.164a2.029,2.029,0,0,1,.1,1.184l-1.782,8.518q-.048.2-.1.4a11.259,11.259,0,0,1-6.1,7.178l-4.394,2.08q-.172.09-.336.181a8.77,8.77,0,0,0-4.441,7.679V343a1.619,1.619,0,0,1-1.619,1.619H284.619A1.619,1.619,0,0,1,283,343V330.072a5.135,5.135,0,0,1,1.223-3.343l.051-.059a10.993,10.993,0,0,1,4.675-3.123c1.194-.418,2.423-.758,3.284-.978a7.351,7.351,0,0,0,2.7-1.333c.675-.528,1.254-1.05,1.471-1.25a.717.717,0,0,1,.211-.137q.128-.053.253-.091a2.355,2.355,0,0,1,2.825,3.156,9.509,9.509,0,0,1-.651,1.341Z" transform="translate(-181.053 -249.144)" fill="#ffd4c5"/>
      <g id="Grupo_1177581" data-name="Grupo 1177581" transform="translate(60.441 5.5)">
        <path id="Trazado_944679" data-name="Trazado 944679" d="M91.664,321.564a12.037,12.037,0,0,0-5.11-3.417c-1.243-.435-2.518-.786-3.369-1A6.284,6.284,0,0,1,80.859,316c-.647-.506-1.2-1-1.409-1.2a2.1,2.1,0,0,0-.852-.453,3.388,3.388,0,0,0-4.086,4.512c1.885,4.765,5.655,5.2,5.815,5.211a1.026,1.026,0,1,0,.215-2.04c-.11-.013-2.716-.369-4.122-3.925a1.373,1.373,0,0,1,.278-1.447,1.252,1.252,0,0,1,1.4-.313c.251.23.827.744,1.494,1.266a8.322,8.322,0,0,0,3.082,1.518c2.622.66,5.555,1.515,7.439,3.78a4.109,4.109,0,0,1,1.022,2.729v12.927a.594.594,0,0,1-.593.593H80.283a.594.594,0,0,1-.593-.593v-2.151a9.791,9.791,0,0,0-4.968-8.575c-.11-.085-4.537-2.176-4.789-2.294a10.184,10.184,0,0,1-5.637-6.872l-1.78-8.5a1.023,1.023,0,0,1,.095-.7,2.045,2.045,0,0,1,2.608-.962,1.546,1.546,0,0,1,.744.513,21.912,21.912,0,0,1,1.61,4.549,10.081,10.081,0,0,0,3.456,5.11,1.026,1.026,0,1,0,1.259-1.62A8.013,8.013,0,0,1,69.543,313c-1.516-4.85-1.6-5.507-3.573-6.4a4.1,4.1,0,0,0-5.306,2.206,3.045,3.045,0,0,0-.155,1.783l1.783,8.517c.035.154.075.307.114.456a12.252,12.252,0,0,0,6.65,7.837l4.375,2.072a7.739,7.739,0,0,1,4.209,6.942v2.152a2.648,2.648,0,0,0,2.644,2.644H90.545a2.648,2.648,0,0,0,2.645-2.644V325.639a6.163,6.163,0,0,0-1.526-4.075Z" transform="translate(-60.441 -250.211)" fill="#2f2f2f"/>
        <path id="Trazado_944680" data-name="Trazado 944680" d="M310.022,308.847a4.115,4.115,0,0,0-7.024-.892c-.168.262-.683,1.06-1.855,5.086a7.952,7.952,0,0,1-2.429,3.8,1.026,1.026,0,1,0,1.343,1.551,10,10,0,0,0,3.057-4.782,21.927,21.927,0,0,1,1.61-4.549,2.07,2.07,0,0,1,3.4.559,1,1,0,0,1,.046.586l-1.78,8.5a10.185,10.185,0,0,1-5.638,6.873c-.145.073-4.835,2.272-4.789,2.294A9.791,9.791,0,0,0,291,336.457v2.152a.594.594,0,0,1-.593.593H280.141a.594.594,0,0,1-.593-.593V325.681a4.111,4.111,0,0,1,1.022-2.729c1.887-2.266,4.815-3.119,7.44-3.78a8.322,8.322,0,0,0,3.082-1.518c.667-.521,1.242-1.036,1.495-1.266a1.323,1.323,0,0,1,1.68,1.76c-1.4,3.543-3.994,3.91-4.122,3.925a1.026,1.026,0,0,0,.214,2.04c.16-.016,3.931-.446,5.815-5.211a3.388,3.388,0,0,0-4.086-4.512,2.093,2.093,0,0,0-.851.451c-.208.192-.763.691-1.409,1.2a6.289,6.289,0,0,1-2.326,1.147c-.851.217-2.126.568-3.369,1-3.293,1.219-6.635,3.73-6.636,7.493v12.927a2.648,2.648,0,0,0,2.645,2.644H290.4a2.648,2.648,0,0,0,2.645-2.644v-2.152a7.739,7.739,0,0,1,4.209-6.942l4.374-2.072a12.233,12.233,0,0,0,6.764-8.294l1.782-8.517A3.047,3.047,0,0,0,310.022,308.847Z" transform="translate(-237.016 -250.254)" fill="#2f2f2f"/>
        <path id="Trazado_944681" data-name="Trazado 944681" d="M188.742,53.726a19.629,19.629,0,0,0-17.213-19.455c-.144-4.177-.152-9.349,2.945-11.782a16.7,16.7,0,0,1,3.767-2.4,1.026,1.026,0,0,0-.277-1.946,8.78,8.78,0,0,0-4.805,1.209,7.654,7.654,0,0,1,5.985-7.6,25.768,25.768,0,0,0,7.777-2.83c-.727,4.621-1.8,9.808-7.522,11.9a1.026,1.026,0,1,0,.724,1.92,12.106,12.106,0,0,0,3.65-2.059c5.142-3.989,5.4-13.723,5.411-14.136a1.026,1.026,0,0,0-1.838-.647c-1.177,1.528-4.323,2.931-8.63,3.85a9.484,9.484,0,0,0-5.953,4.035,10.957,10.957,0,0,0-1.627,6.768,23.67,23.67,0,0,0-2.19,1.7,22.454,22.454,0,0,0-2.973-2.2,9.119,9.119,0,0,0-7.1-9.382c-3.964-.846-6.856-2.133-7.934-3.532a1.026,1.026,0,0,0-1.838.648c.008.383.249,9.417,5.031,13.129a11.506,11.506,0,0,0,3.664,2.014,1.026,1.026,0,1,0,.687-1.933c-5.421-1.9-6.381-6.466-7.115-10.861a24.305,24.305,0,0,0,7.077,2.542,6.906,6.906,0,0,1,5.427,6.281,7.99,7.99,0,0,0-3.941-.807,1.026,1.026,0,0,0-.277,1.946,16.706,16.706,0,0,1,3.77,2.4c3.105,2.433,3.091,7.652,2.942,11.835-23.823,4.1-21.548,38.253,2.779,39A19.623,19.623,0,0,0,188.742,53.726ZM183.234,43.28q.492.662.923,1.371h-5c-.656-.032-.656-1.339,0-1.371ZM168.356,29.158a12.772,12.772,0,0,0-1.861-6.264c.45.346.921.735,1.41,1.173a1.558,1.558,0,0,0,2.083,0c.488-.438.959-.828,1.41-1.173-2.008,2.936-2.037,7.372-1.926,11.236-.349-.008-.7,0-1.05.01C168.479,32.34,168.458,30.667,168.356,29.158Zm-9.184,10.134,1.136,0a1.254,1.254,0,1,1,0,2.484h-2.046a2.926,2.926,0,1,0,0,5.845h6.647a1.466,1.466,0,1,1,0,2.9H151.885a17.584,17.584,0,0,1,7.287-11.236Zm9.969,31.984a17.442,17.442,0,0,1-7.946-1.9h8.815a3.075,3.075,0,0,0,0-6.132h-9.878c-.519-.037-.523-1.1,0-1.142H162.9c3.771-.167,3.771-5.965,0-6.132h-7.612a1.026,1.026,0,0,0,0,2.051H162.9a1.046,1.046,0,0,1,0,2.029h-2.766a2.629,2.629,0,0,0,0,5.245h9.878a1.046,1.046,0,0,1,0,2.029H158.054a17.56,17.56,0,0,1-6.424-14.741h13.278c4.934-.195,4.935-6.812,0-7.007h-6.647a.884.884,0,1,1,0-1.743h2.046a3.27,3.27,0,0,0,1.731-6.149,17.663,17.663,0,0,1,19.41,3.55h-2.288c-3.383.149-3.382,5.325,0,5.474h6.061a17.4,17.4,0,0,1,1.391,5.383H180.1a2.9,2.9,0,0,0,0,5.8h1.4a.438.438,0,1,1,0,.877h-4.414a2.937,2.937,0,0,0,0,5.873H179a1.026,1.026,0,1,0,0-2.051h-1.913a.885.885,0,1,1,0-1.77H181.5a2.49,2.49,0,0,0,0-4.979h-1.4a.849.849,0,0,1,0-1.7h6.589a17.57,17.57,0,0,1-17.544,17.14Z" transform="translate(-132.564 -5.5)" fill="#2f2f2f"/>
      </g>
    </g>
  </g>
</svg>
