<svg xmlns="http://www.w3.org/2000/svg" xmlns:xlink="http://www.w3.org/1999/xlink" width="1030" height="235.395" viewBox="0 0 1030 235.395">
  <defs>
    <clipPath id="clip-path">
      <rect id="Rectángulo_438999" data-name="Rectángulo 438999" width="148.071" height="89.712" transform="translate(1199.999 628) rotate(180)"/>
    </clipPath>
    <clipPath id="clip-path-2">
      <rect id="Rectángulo_438996" data-name="Rectángulo 438996" width="89.338" height="109.355"/>
    </clipPath>
    <clipPath id="clip-path-3">
      <rect id="Rectángulo_438997" data-name="Rectángulo 438997" width="145.683" height="66.068"/>
    </clipPath>
  </defs>
  <g id="Grupo_1185156" data-name="Grupo 1185156" transform="translate(-285 -6222.194)">
    <g id="Grupo_1185151" data-name="Grupo 1185151" transform="translate(115.001 5829.589)">
      <g id="Grupo_1185089" data-name="Grupo 1185089" clip-path="url(#clip-path)">
        <g id="Grupo_1185087" data-name="Grupo 1185087">
          <path id="Trazado_950088" data-name="Trazado 950088" d="M1105.5,661.012s104.932,3.748,113.217-18.561-26.732-9.822-26.732-9.822,53.927-24.55,43.675-39.7-31.183,3.021-31.183,3.021,35.709-29.064,21.75-44.236-38.35,26.981-38.35,26.981,15.584-35.162-5.382-31.592S1151.51,609.9,1151.51,609.9s4.929-40.979-16.283-31.109C1109.89,590.58,1105.5,661.012,1105.5,661.012Z" fill="#569171"/>
          <path id="Trazado_950089" data-name="Trazado 950089" d="M1105.5,661.012s54.934-18.852,80-56.383" fill="none" stroke="#316007" stroke-miterlimit="10" stroke-width="1.198"/>
        </g>
        <g id="Grupo_1185088" data-name="Grupo 1185088">
          <path id="Trazado_950090" data-name="Trazado 950090" d="M1109.18,665.746s67.024-40.1,63.172-57.38-20.661,4.68-20.661,4.68,23.736-37.138,11.209-42.448-18.245,14.5-18.245,14.5,10.537-32.588-4.314-36.413-13.028,32.355-13.028,32.355-4.493-28.255-16.138-17.546,6.054,51.734,6.054,51.734-13.5-27.577-22.748-12.835C1083.43,620,1109.18,665.746,1109.18,665.746Z" fill="#336d4c"/>
          <path id="Trazado_950091" data-name="Trazado 950091" d="M1109.18,665.746s26.669-33.988,27.139-67.557" fill="none" stroke="#316007" stroke-miterlimit="10" stroke-width="1.198"/>
        </g>
      </g>
    </g>
    <g id="Grupo_1185152" data-name="Grupo 1185152" transform="translate(285 5915.079)">
      <g id="Grupo_1185058" data-name="Grupo 1185058" transform="translate(28.574 477.832)">
        <g id="Grupo_1185041" data-name="Grupo 1185041" transform="translate(49.45 4.443)">
          <path id="Trazado_950019" data-name="Trazado 950019" d="M139.02,536.691l17.933-14.622S161.547,528.958,139.02,536.691Z" transform="translate(-139.02 -521.287)" fill="#417253"/>
          <path id="Trazado_950020" data-name="Trazado 950020" d="M139.02,536.08l17.933-14.622S151.131,515.572,139.02,536.08Z" transform="translate(-139.02 -520.675)" fill="#569171"/>
        </g>
        <line id="Línea_1084" data-name="Línea 1084" x1="60.432" y2="49.275" transform="translate(1.628 9.566)" fill="none" stroke="#055c51" stroke-miterlimit="10" stroke-width="0.854"/>
        <g id="Grupo_1185043" data-name="Grupo 1185043" transform="translate(38.972)">
          <g id="Grupo_1185042" data-name="Grupo 1185042">
            <path id="Trazado_950021" data-name="Trazado 950021" d="M124.171,535.779l2.341-23.02S134.631,514.381,124.171,535.779Z" transform="translate(-122.027 -512.759)" fill="#417253"/>
            <path id="Trazado_950022" data-name="Trazado 950022" d="M122.495,535.779l2.341-23.02S116.557,512.714,122.495,535.779Z" transform="translate(-120.351 -512.759)" fill="#569171"/>
          </g>
          <line id="Línea_1085" data-name="Línea 1085" x1="2.453" y2="20.995" transform="translate(1.396 6.257)" fill="none" stroke="#055c51" stroke-miterlimit="10" stroke-width="0.854"/>
        </g>
        <g id="Grupo_1185045" data-name="Grupo 1185045" transform="translate(40.368 25.228)">
          <g id="Grupo_1185044" data-name="Grupo 1185044" transform="translate(4.296)">
            <path id="Trazado_950023" data-name="Trazado 950023" d="M130.493,559.854l23.02,2.341S153.559,553.916,130.493,559.854Z" transform="translate(-130.493 -557.71)" fill="#417253"/>
            <path id="Trazado_950024" data-name="Trazado 950024" d="M130.493,561.53l23.02,2.341S151.891,571.99,130.493,561.53Z" transform="translate(-130.493 -559.386)" fill="#569171"/>
          </g>
          <line id="Línea_1086" data-name="Línea 1086" x1="21.06" y1="1.825" transform="translate(0 2.025)" fill="none" stroke="#055c51" stroke-miterlimit="10" stroke-width="0.854"/>
        </g>
        <g id="Grupo_1185047" data-name="Grupo 1185047" transform="translate(25.981 10.592)">
          <g id="Grupo_1185046" data-name="Grupo 1185046">
            <path id="Trazado_950025" data-name="Trazado 950025" d="M101.025,554.652l2.341-23.02S111.485,533.254,101.025,554.652Z" transform="translate(-98.881 -531.632)" fill="#417253"/>
            <path id="Trazado_950026" data-name="Trazado 950026" d="M99.349,554.652l2.341-23.02S93.411,531.587,99.349,554.652Z" transform="translate(-97.205 -531.632)" fill="#569171"/>
          </g>
          <line id="Línea_1087" data-name="Línea 1087" x1="2.453" y2="20.995" transform="translate(1.396 6.257)" fill="none" stroke="#055c51" stroke-miterlimit="10" stroke-width="0.854"/>
        </g>
        <g id="Grupo_1185049" data-name="Grupo 1185049" transform="translate(27.377 35.82)">
          <g id="Grupo_1185048" data-name="Grupo 1185048" transform="translate(4.296)">
            <path id="Trazado_950027" data-name="Trazado 950027" d="M107.347,578.727l23.02,2.341S130.413,572.788,107.347,578.727Z" transform="translate(-107.347 -576.582)" fill="#417253"/>
            <path id="Trazado_950028" data-name="Trazado 950028" d="M107.347,580.4l23.02,2.341S128.745,590.863,107.347,580.4Z" transform="translate(-107.347 -578.259)" fill="#569171"/>
          </g>
          <line id="Línea_1088" data-name="Línea 1088" x1="21.059" y1="1.824" transform="translate(0 2.025)" fill="none" stroke="#055c51" stroke-miterlimit="10" stroke-width="0.854"/>
        </g>
        <g id="Grupo_1185051" data-name="Grupo 1185051" transform="translate(12.991 21.184)">
          <g id="Grupo_1185050" data-name="Grupo 1185050">
            <path id="Trazado_950029" data-name="Trazado 950029" d="M77.879,573.525l2.341-23.02S88.339,552.127,77.879,573.525Z" transform="translate(-75.735 -550.505)" fill="#417253"/>
            <path id="Trazado_950030" data-name="Trazado 950030" d="M76.2,573.525l2.341-23.02S70.265,550.46,76.2,573.525Z" transform="translate(-74.059 -550.505)" fill="#569171"/>
          </g>
          <line id="Línea_1089" data-name="Línea 1089" x1="2.453" y2="20.996" transform="translate(1.396 6.257)" fill="none" stroke="#055c51" stroke-miterlimit="10" stroke-width="0.854"/>
        </g>
        <g id="Grupo_1185053" data-name="Grupo 1185053" transform="translate(14.387 46.412)">
          <g id="Grupo_1185052" data-name="Grupo 1185052" transform="translate(4.296)">
            <path id="Trazado_950031" data-name="Trazado 950031" d="M84.2,597.6l23.02,2.342S107.267,591.661,84.2,597.6Z" transform="translate(-84.201 -595.455)" fill="#417253"/>
            <path id="Trazado_950032" data-name="Trazado 950032" d="M84.2,599.276l23.02,2.341S105.6,609.736,84.2,599.276Z" transform="translate(-84.201 -597.132)" fill="#569171"/>
          </g>
          <line id="Línea_1090" data-name="Línea 1090" x1="21.059" y1="1.824" transform="translate(0 2.025)" fill="none" stroke="#055c51" stroke-miterlimit="10" stroke-width="0.854"/>
        </g>
        <g id="Grupo_1185055" data-name="Grupo 1185055" transform="translate(0 31.776)">
          <g id="Grupo_1185054" data-name="Grupo 1185054">
            <path id="Trazado_950033" data-name="Trazado 950033" d="M54.732,592.4l2.341-23.02S65.192,571,54.732,592.4Z" transform="translate(-52.588 -569.377)" fill="#7dbb77"/>
            <path id="Trazado_950034" data-name="Trazado 950034" d="M53.056,592.4l2.341-23.02S47.118,569.332,53.056,592.4Z" transform="translate(-50.912 -569.377)" fill="#569171"/>
          </g>
          <line id="Línea_1091" data-name="Línea 1091" x1="2.453" y2="20.996" transform="translate(1.396 6.257)" fill="none" stroke="#055c51" stroke-miterlimit="10" stroke-width="0.854"/>
        </g>
        <g id="Grupo_1185057" data-name="Grupo 1185057" transform="translate(1.396 57.004)">
          <g id="Grupo_1185056" data-name="Grupo 1185056" transform="translate(4.297)">
            <path id="Trazado_950035" data-name="Trazado 950035" d="M61.055,616.472l23.02,2.341S84.121,610.534,61.055,616.472Z" transform="translate(-61.055 -614.328)" fill="#7dbb77"/>
            <path id="Trazado_950036" data-name="Trazado 950036" d="M61.055,618.148l23.02,2.341S82.453,628.608,61.055,618.148Z" transform="translate(-61.055 -616.004)" fill="#569171"/>
          </g>
          <line id="Línea_1092" data-name="Línea 1092" x1="21.06" y1="1.824" transform="translate(0 2.025)" fill="none" stroke="#055c51" stroke-miterlimit="10" stroke-width="0.854"/>
        </g>
      </g>
      <g id="Grupo_1185065" data-name="Grupo 1185065" transform="translate(0 433.155)">
        <g id="Grupo_1185064" data-name="Grupo 1185064" clip-path="url(#clip-path-2)">
          <path id="Trazado_950037" data-name="Trazado 950037" d="M25.105,514.1s14.553-37.185,10.939-59.5S8.282,503.521,4.715,539.314C19.889,518.64,25.105,514.1,25.105,514.1Z" transform="translate(-2.069 -440.7)" fill="#365650"/>
          <g id="Grupo_1185059" data-name="Grupo 1185059" transform="translate(0 46.337)">
            <path id="Trazado_950038" data-name="Trazado 950038" d="M0,583.3s70.829,23.29,72.562,1.12-37.335-14.4-37.335-14.4,31.3-7.69,40.222-27.355-58.139,14.3-58.139,14.3,20.775-11.705,28.153-32.984S8.52,522.53,0,583.3Z" transform="translate(0 -515.717)" fill="#59916f"/>
            <path id="Trazado_950039" data-name="Trazado 950039" d="M13.766,594.356S85.129,549.19,67.815,566.69C50.828,583.858,15.142,595.636,13.766,594.356Z" transform="translate(-6.04 -536.314)" fill="#365650"/>
            <path id="Trazado_950040" data-name="Trazado 950040" d="M70.316,628.453,17.85,621.774S61.706,633.63,70.316,628.453Z" transform="translate(-7.832 -562.251)" fill="#365650"/>
            <path id="Trazado_950041" data-name="Trazado 950041" d="M43.511,534.052l-27.755,33.11S32.984,537.181,43.511,534.052Z" transform="translate(-6.913 -523.762)" fill="#365650"/>
          </g>
          <path id="Trazado_950042" data-name="Trazado 950042" d="M-2.379,633.567l22.987-.819s-21.1-2.391-26.03-2.476C-1.94,632.143-2.379,633.567-2.379,633.567Z" transform="translate(2.379 -519.642)" fill="#59916f"/>
          <g id="Grupo_1185062" data-name="Grupo 1185062" transform="translate(-38.204 59.791)">
            <g id="Grupo_1185060" data-name="Grupo 1185060" transform="translate(9.142)">
              <path id="Trazado_950043" data-name="Trazado 950043" d="M-28.291,586.225s2.291-28.494-16.8-43.959S-36.377,586-36.377,586Z" transform="translate(51.782 -539.688)" fill="#59916f"/>
              <path id="Trazado_950044" data-name="Trazado 950044" d="M-26.623,596.584s-7.644-34.629-12.756-41.323,14.438,16.723,13.669,40.239Z" transform="translate(46.715 -546.012)" fill="#a7b964"/>
            </g>
            <g id="Grupo_1185061" data-name="Grupo 1185061" transform="translate(0 23.412)">
              <path id="Trazado_950045" data-name="Trazado 950045" d="M-37.111,602.357S-46.352,583.94-63.9,581.545-38,608.09-38,608.09Z" transform="translate(68.071 -581.404)" fill="#59916f"/>
              <path id="Trazado_950046" data-name="Trazado 950046" d="M-32.925,608.942s-17.657-18.484-23.31-20.7,15.15,4.909,23.468,19.689Z" transform="translate(63.299 -584.231)" fill="#a7b964"/>
            </g>
          </g>
          <g id="Grupo_1185063" data-name="Grupo 1185063" transform="translate(-19.034 68.318)">
            <path id="Trazado_950047" data-name="Trazado 950047" d="M-13.628,601.094s-18.184,4.152-20.006-14.8c7.509,6.29,12.458,4.083,12.458,4.083s-14.99-2.655-12.449-16.548c7.572,6.7,12.12,6.034,12.12,6.034s-5.692-8.246-9.314-9.826,3.72-7.518,3.72-7.518,7.708,13.773,10.3,13.86-7.2-17.063-7.2-17.063l3.821-2.674s4.44,13.923,4.865,8.368-1.669-8.2-1.669-8.2l7.318-1.921,9.765,7.225s-7.83,11.08-7.04,13.5,9.9-11.384,9.9-11.384l2.308,6.843s-9.159,7.9-8.67,9.725,9.235-6.005,9.235-6.005.816,5.372-6.764,11.134c.489,1.829,6.517,1.154,8.91-2.577C1.786,598.194-7.286,602.486-13.628,601.094Z" transform="translate(33.915 -554.882)" fill="#c2d66b"/>
            <path id="Trazado_950048" data-name="Trazado 950048" d="M4.942,569.209s4.23,23.671-2.108,36.221A343.779,343.779,0,0,0,4.942,569.209Z" transform="translate(17.791 -561.168)" fill="#a7b964"/>
            <path id="Trazado_950049" data-name="Trazado 950049" d="M-3.592,600.557l-7.726-7.146S-6.1,601.68-3.592,600.557Z" transform="translate(24 -571.787)" fill="#a7b964"/>
            <path id="Trazado_950050" data-name="Trazado 950050" d="M-6.185,613.033l-9.592-5.31S-8.136,614.854-6.185,613.033Z" transform="translate(25.956 -578.067)" fill="#a7b964"/>
            <path id="Trazado_950051" data-name="Trazado 950051" d="M-9.488,627.391a20.14,20.14,0,0,1-10.742-.684C-16.889,628.822-11,630.082-9.488,627.391Z" transform="translate(27.91 -586.396)" fill="#a7b964"/>
            <path id="Trazado_950052" data-name="Trazado 950052" d="M8.408,623.752s7.289-.895,9.555-3.148C13.887,624.5,9.888,625.894,8.408,623.752Z" transform="translate(15.345 -583.718)" fill="#a7b964"/>
            <path id="Trazado_950053" data-name="Trazado 950053" d="M11.212,607.615s6.022-1.379,8.662-4.785C15.733,608.1,12.647,608.616,11.212,607.615Z" transform="translate(14.115 -575.92)" fill="#a7b964"/>
            <path id="Trazado_950054" data-name="Trazado 950054" d="M13.278,595.871s4.552-2.109,6.166-6.393C14.413,593.853,12.6,595.011,13.278,595.871Z" transform="translate(13.268 -570.061)" fill="#a7b964"/>
            <path id="Trazado_950055" data-name="Trazado 950055" d="M12.631,578.041l2.8-5.075S11.275,575.32,12.631,578.041Z" transform="translate(13.611 -562.817)" fill="#a7b964"/>
          </g>
        </g>
      </g>
    </g>
    <g id="Grupo_1185076" data-name="Grupo 1185076" transform="translate(1315 5800.348) rotate(90)">
      <g id="Grupo_1185075" data-name="Grupo 1185075" transform="translate(421.846)" clip-path="url(#clip-path-3)">
        <g id="Grupo_1185071" data-name="Grupo 1185071" transform="translate(110.841 -35.758)">
          <g id="Grupo_1185067" data-name="Grupo 1185067" transform="translate(0 22.828)">
            <path id="Trazado_950056" data-name="Trazado 950056" d="M633.61-23.306s-5.8,17.213-11.489,10C618.824-17.489,633.61-23.306,633.61-23.306Z" transform="translate(-621.642 23.306)" fill="#437c5b"/>
            <path id="Trazado_950057" data-name="Trazado 950057" d="M643.215-23.306s6.524,16.952,11.9,9.5C658.234-18.121,643.215-23.306,643.215-23.306Z" transform="translate(-631.247 23.306)" fill="#437c5b"/>
          </g>
          <g id="Grupo_1185068" data-name="Grupo 1185068" transform="translate(2.867 37.266)">
            <path id="Trazado_950058" data-name="Trazado 950058" d="M637.078,2.718S632.1,17.487,627.221,11.3C624.392,7.709,637.078,2.718,637.078,2.718Z" transform="translate(-626.809 -2.718)" fill="#437c5b"/>
            <path id="Trazado_950059" data-name="Trazado 950059" d="M645.319,2.718s5.6,14.544,10.212,8.153C658.205,7.167,645.319,2.718,645.319,2.718Z" transform="translate(-635.05 -2.718)" fill="#437c5b"/>
          </g>
          <g id="Grupo_1185069" data-name="Grupo 1185069" transform="translate(5.861 51.675)">
            <path id="Trazado_950060" data-name="Trazado 950060" d="M641.017,28.692s-4.27,12.672-8.458,7.36C630.133,32.974,641.017,28.692,641.017,28.692Z" transform="translate(-632.207 -28.692)" fill="#437c5b"/>
            <path id="Trazado_950061" data-name="Trazado 950061" d="M648.088,28.692s4.8,12.479,8.761,7C659.144,32.509,648.088,28.692,648.088,28.692Z" transform="translate(-639.278 -28.692)" fill="#437c5b"/>
          </g>
          <g id="Grupo_1185070" data-name="Grupo 1185070" transform="translate(8.81 63.816)">
            <path id="Trazado_950062" data-name="Trazado 950062" d="M644.7,50.576s-2.853,11.2-6.811,6.9C635.6,54.979,644.7,50.576,644.7,50.576Z" transform="translate(-637.522 -50.576)" fill="#437c5b"/>
            <path id="Trazado_950063" data-name="Trazado 950063" d="M650.467,50.576s4.956,10.445,8.011,5.458C660.249,53.145,650.467,50.576,650.467,50.576Z" transform="translate(-643.286 -50.576)" fill="#437c5b"/>
          </g>
          <path id="Trazado_950064" data-name="Trazado 950064" d="M648.36,7.825s-7.65-49.15-4.032-72.28" transform="translate(-631.31 64.455)" fill="none" stroke="#437c5b" stroke-miterlimit="10" stroke-width="1"/>
          <path id="Trazado_950065" data-name="Trazado 950065" d="M651.4,63.964s6.861,9.305,1.022,9.64C649.038,73.8,651.4,63.964,651.4,63.964Z" transform="translate(-634.534 7.279)" fill="#437c5b"/>
        </g>
        <g id="Grupo_1185074" data-name="Grupo 1185074" transform="translate(9.419 -27.798)">
          <g id="Grupo_1185072" data-name="Grupo 1185072" transform="translate(0 3.312)">
            <path id="Trazado_950066" data-name="Trazado 950066" d="M535.634-43.962s-77.277-2.76-83.377,13.669,19.686,7.234,19.686,7.234S432.229-4.98,439.779,6.176s22.964-2.225,22.964-2.225-26.3,21.4-16.017,32.577,28.242-19.87,28.242-19.87-11.477,25.9,3.963,23.266S501.75-6.319,501.75-6.319s-3.63,30.179,11.991,22.91C532.4,7.907,535.634-43.962,535.634-43.962Z" transform="translate(-438.824 44.137)" fill="#75a050"/>
            <path id="Trazado_950067" data-name="Trazado 950067" d="M566.045-43.822S525.59-29.939,507.129-2.3" transform="translate(-469.235 43.997)" fill="none" stroke="#316007" stroke-miterlimit="10" stroke-width="1.59"/>
          </g>
          <g id="Grupo_1185073" data-name="Grupo 1185073" transform="translate(47.459)">
            <path id="Trazado_950068" data-name="Trazado 950068" d="M571.012-50.107S521.653-20.574,524.49-7.85,539.705-11.3,539.705-11.3s-17.48,27.35-8.255,31.26S544.887,9.286,544.887,9.286s-7.76,24,3.177,26.816,9.594-23.827,9.594-23.827,3.309,20.808,11.884,12.921-4.459-38.1-4.459-38.1,9.94,20.309,16.752,9.452C589.974-16.419,571.012-50.107,571.012-50.107Z" transform="translate(-524.372 50.107)" fill="#336d4c"/>
            <path id="Trazado_950069" data-name="Trazado 950069" d="M592.4-50.107S572.763-25.077,572.417-.355" transform="translate(-545.763 50.107)" fill="none" stroke="#316007" stroke-miterlimit="10" stroke-width="1.59"/>
          </g>
        </g>
      </g>
    </g>
  </g>
</svg>
