<svg xmlns="http://www.w3.org/2000/svg" xmlns:xlink="http://www.w3.org/1999/xlink" width="118" height="118" viewBox="0 0 118 118">
  <defs>
    <filter id="Trazado_920741" x="0" y="0" width="118" height="118" filterUnits="userSpaceOnUse">
      <feOffset dy="3" input="SourceAlpha"/>
      <feGaussianBlur stdDeviation="3" result="blur"/>
      <feFlood flood-opacity="0.161"/>
      <feComposite operator="in" in2="blur"/>
      <feComposite in="SourceGraphic"/>
    </filter>
  </defs>
  <g id="Grupo_1177578" data-name="Grupo 1177578" transform="translate(-411.051 -5664)">
    <g transform="matrix(1, 0, 0, 1, 411.05, 5664)" filter="url(#Trazado_920741)">
      <g id="Trazado_920741-2" data-name="Trazado 920741" transform="translate(9 6)" fill="#fff">
        <path d="M 50.00003814697266 97.99991607666016 C 43.51918029785156 97.99991607666016 37.23325347900391 96.73108673095703 31.31685256958008 94.22866058349609 C 25.60128211975098 91.81118774414062 20.46775245666504 88.34992980957031 16.05886840820312 83.94105529785156 C 11.64998149871826 79.53217315673828 8.188724517822266 74.39865875244141 5.771253108978271 68.68309020996094 C 3.268824815750122 62.76671600341797 1.999996185302734 56.48078536987305 1.999996185302734 49.99995803833008 C 1.999996185302734 43.51913070678711 3.268824815750122 37.23321533203125 5.771253108978271 31.31681442260742 C 8.188724517822266 25.60125732421875 11.64998149871826 20.46774291992188 16.05885314941406 16.05885887145996 C 20.46773910522461 11.64998626708984 25.60125350952148 8.188729286193848 31.31681060791016 5.771257877349854 C 37.23321151733398 3.268829584121704 43.51912307739258 2.000000953674316 49.99995422363281 2.000000953674316 C 56.48081207275391 2.000000953674316 62.76673889160156 3.268829584121704 68.68313598632812 5.771257877349854 C 74.39871215820312 8.188729286193848 79.53224182128906 11.64998626708984 83.94112396240234 16.05885887145996 C 88.35001373291016 20.46774291992188 91.81126403808594 25.60125732421875 94.22873687744141 31.31682968139648 C 96.73117065429688 37.23320007324219 98 43.51913070678711 98 49.99995803833008 C 98 56.48078536987305 96.73117065429688 62.76670074462891 94.22873687744141 68.68309783935547 C 91.81126403808594 74.39865875244141 88.35001373291016 79.53217315673828 83.94113922119141 83.94105529785156 C 79.53225708007812 88.34992980957031 74.39874267578125 91.81118774414062 68.68318176269531 94.22866058349609 C 62.76678085327148 96.73108673095703 56.48086929321289 97.99991607666016 50.00003814697266 97.99991607666016 Z" stroke="none"/>
        <path d="M 49.99996185302734 3.999992370605469 C 43.78824615478516 3.999992370605469 37.76446151733398 5.215675354003906 32.09593200683594 7.613258361816406 C 26.61875915527344 9.929908752441406 21.69892883300781 13.24722290039062 17.47307586669922 17.47307586669922 C 13.24723052978516 21.69892120361328 9.929916381835938 26.61875915527344 7.613265991210938 32.09592437744141 C 5.215682983398438 37.76445770263672 3.999992370605469 43.78824234008789 3.999992370605469 49.99995803833008 C 3.999992370605469 56.21167373657227 5.215682983398438 62.23545837402344 7.613265991210938 67.90399169921875 C 9.929916381835938 73.38115692138672 13.24723052978516 78.30099487304688 17.47307586669922 82.52684020996094 C 21.69892883300781 86.75267791748047 26.61878204345703 90.07000732421875 32.09596252441406 92.38664245605469 C 37.76449584960938 94.78422546386719 43.78831100463867 95.99990844726562 50.00004577636719 95.99990844726562 C 56.21176147460938 95.99990844726562 62.23554611206055 94.78422546386719 67.90408325195312 92.38664245605469 C 73.38124847412109 90.07000732421875 78.30107879638672 86.75269317626953 82.52693176269531 82.52684020996094 C 86.75277709960938 78.30099487304688 90.07009887695312 73.38115692138672 92.38672637939453 67.90399169921875 C 94.78430938720703 62.23545837402344 96 56.21167373657227 96 49.99995803833008 C 96 43.78824234008789 94.78430938720703 37.76445770263672 92.38672637939453 32.09592437744141 C 90.07008361816406 26.61875915527344 86.75276184082031 21.69892120361328 82.52691650390625 17.47307586669922 C 78.30106353759766 13.24722290039062 73.38121032714844 9.929908752441406 67.90404510498047 7.613258361816406 C 62.23549652099609 5.215675354003906 56.21169662475586 3.999992370605469 49.99996185302734 3.999992370605469 M 49.99996185302734 -7.62939453125e-06 L 50.00004577636719 -7.62939453125e-06 C 77.61426544189453 -7.62939453125e-06 100 22.3857421875 100 49.99995803833008 C 100 77.61417388916016 77.61426544189453 99.99990844726562 50.00004577636719 99.99990844726562 L 49.99996185302734 99.99990844726562 C 22.38574981689453 99.99990844726562 -7.62939453125e-06 77.61417388916016 -7.62939453125e-06 49.99995803833008 C -7.62939453125e-06 22.3857421875 22.38574981689453 -7.62939453125e-06 49.99996185302734 -7.62939453125e-06 Z" stroke="none" fill="#f3d02c"/>
      </g>
    </g>
    <g id="Grupo_1177558" data-name="Grupo 1177558" transform="translate(426.027 5673.92)">
      <g id="Grupo_1177546" data-name="Grupo 1177546" transform="translate(16.66 16.599)">
        <path id="Trazado_944651" data-name="Trazado 944651" d="M72.506,62.7c-.425.009-4.795.15-7.423,2.083-2.172,1.6-3.142,3.588-2.661,5.458a3.553,3.553,0,0,0,.5,1.08,27.343,27.343,0,0,0-1.806,3.235c-.134.281-.264.571-.391.865-.239-.381-.487-.787-.683-1.124l.165-.183a3.2,3.2,0,0,0,.76-1.339c.391-1.521-.388-3.133-2.139-4.422-2.1-1.542-5.57-1.654-5.907-1.661a.6.6,0,0,0-.608.573.584.584,0,0,0,.065.271c.021.109.053.336.081.54A13.751,13.751,0,0,0,53.985,73.3a4.533,4.533,0,0,0,2.959,2.217,3.092,3.092,0,0,0,.466.036,3.389,3.389,0,0,0,1.737-.5c.329.554.749,1.225,1.05,1.688-.331.869-.627,1.79-.893,2.742l-5.527-1.794a15.835,15.835,0,0,0-11.292.771l-.138.066c-.228-5.819,1.736-11.566,4.122-16.3a7.5,7.5,0,0,0,4.338,1.491,6.369,6.369,0,0,0,.976-.075c2.352-.361,4.58-2.05,6.444-4.887,2.276-3.474,3.085-9.241,3.474-12.013.085-.605.172-1.229.229-1.455a.579.579,0,0,0,.109-.342.6.6,0,0,0-.624-.573c-.7.014-8.718.252-13.5,3.766-5.647,4.159-5.706,8.718-3.866,11.615l.116.169a50.307,50.307,0,0,0-3.12,5.487c-.661-.566-1.392-1.219-1.992-1.781,1.207-2.319.927-5.741-3.319-8.868-3.78-2.78-10.1-2.973-10.68-2.985a.6.6,0,0,0-.62.573.579.579,0,0,0,.094.321c.043.185.109.655.173,1.111.307,2.188.947,6.74,2.751,9.5,1.485,2.26,3.266,3.607,5.151,3.9a5.211,5.211,0,0,0,.786.06A5.974,5.974,0,0,0,36.78,66.1c.673,1.162,1.694,2.791,2.329,3.759-.988,2.669-2.577,8.744-3.288,11.789l-1.044.5-3.962-2.7A10.683,10.683,0,0,0,21.8,78.012l-.621.18A.578.578,0,1,0,21.5,79.3l.621-.18a9.525,9.525,0,0,1,8.04,1.28l8,5.445a.578.578,0,0,0,.651-.956L35.883,82.9l7.093-3.4a14.666,14.666,0,0,1,10.452-.715l6.009,1.951c-.134.083-.268.162-.4.251l-6.589,4.5a.578.578,0,0,0,.652.955l6.589-4.5a10,10,0,0,1,10.933-.23.578.578,0,0,0,.611-.981,11.157,11.157,0,0,0-10.37-.747l-.462-.15a30.263,30.263,0,0,1,.972-2.96.3.3,0,0,0,.013-.039c.242-.617.5-1.218.773-1.79a26.8,26.8,0,0,1,1.531-2.8,3.8,3.8,0,0,0,.6.549,4.313,4.313,0,0,0,2.5.86,3.746,3.746,0,0,0,.689-.064,5.635,5.635,0,0,0,3.533-2.731c1.259-1.923,1.7-5.072,1.914-6.585.039-.276.082-.584.11-.719a.58.58,0,0,0,.075-.289.6.6,0,0,0-.613-.573ZM59.85,72.482a1.96,1.96,0,0,1-.4.738,12.433,12.433,0,0,0-3.028-3.926.578.578,0,1,0-.714.909,12.157,12.157,0,0,1,2.876,3.839,2.175,2.175,0,0,1-1.459.332,3.443,3.443,0,0,1-2.168-1.709,13.1,13.1,0,0,1-1.346-4.755c0-.008,0-.016,0-.023a9.776,9.776,0,0,1,4.542,1.392c1.351,1,1.972,2.162,1.7,3.2ZM48.6,49.07c3.766-2.77,9.954-3.378,12.1-3.508-.045.275-.092.61-.149,1.02-.377,2.688-1.163,8.282-3.3,11.54-1.679,2.555-3.634,4.069-5.654,4.379a6.152,6.152,0,0,1-4.6-1.317,57.453,57.453,0,0,1,6.976-10.247.578.578,0,0,0-.048-.816.57.57,0,0,0-.69-.047c-.007,0-.017,0-.024,0a34.907,34.907,0,0,0-8.346,8.8c-1.788-3.109-.418-6.752,3.725-9.8ZM32.78,66.028c-1.553-.238-3.06-1.41-4.36-3.388-1.662-2.538-2.277-6.918-2.573-9.022-.035-.247-.065-.464-.094-.652,1.8.12,6.447.628,9.3,2.724,3,2.21,4.124,4.814,3.123,7.1q-.461-.442-.923-.884c-1.9-1.831-3.873-3.724-6-5.4a.578.578,0,0,0-.714.909c2.521,1.981,4.137,4.859,5.681,7.669a4.667,4.667,0,0,1-3.433.947Zm4.688-1.064c-.487-.888-1.006-1.833-1.53-2.717l.512.49c.492.473.985.947,1.479,1.416.723.694,1.747,1.612,2.6,2.338q-.459.991-.9,2.047c-.729-1.143-1.683-2.691-2.166-3.573ZM37.163,81c.8-3.317,2.258-8.778,3.129-11.011A47.355,47.355,0,0,1,49.359,55.1c-3.7,5.427-8.7,14.612-8.142,23.965ZM71.79,64.116c-.2,1.43-.618,4.406-1.735,6.111a4.614,4.614,0,0,1-2.78,2.228,2.964,2.964,0,0,1-2.31-.6,2.69,2.69,0,0,1-.423-.392l-.187-.206A18.08,18.08,0,0,1,68.6,66.771a.618.618,0,0,0,.075-.06.578.578,0,0,0-.731-.892,19.084,19.084,0,0,0-4.3,4.439,2.084,2.084,0,0,1-.109-.31c-.357-1.389.454-2.935,2.226-4.239,1.809-1.331,4.709-1.71,6.054-1.817-.01.072-.02.146-.031.224Z" transform="translate(-18.392 -28.319)" fill="#128477"/>
        <path id="Trazado_944652" data-name="Trazado 944652" d="M42.256,28.413a3.99,3.99,0,0,0,3.985-3.985c0-1.992-3.139-7.012-3.5-7.578a.6.6,0,0,0-.977,0c-.358.566-3.5,5.586-3.5,7.578A3.988,3.988,0,0,0,42.256,28.413Zm0-10.151c1.253,2.083,2.829,5.068,2.829,6.166a2.829,2.829,0,0,1-5.659,0C39.427,23.329,41,20.344,42.256,18.261Z" transform="translate(-25.78 -16.599)" fill="#128477"/>
        <path id="Trazado_944653" data-name="Trazado 944653" d="M22.562,82.63c0-1.407-2.051-4.721-2.462-5.371a.578.578,0,0,0-.977,0c-.411.65-2.462,3.965-2.462,5.371a2.951,2.951,0,1,0,5.9,0Zm-4.746,0a13.345,13.345,0,0,1,1.795-3.953,13.345,13.345,0,0,1,1.795,3.953,1.795,1.795,0,1,1-3.59,0Z" transform="translate(-16.66 -42.083)" fill="#128477"/>
        <path id="Trazado_944654" data-name="Trazado 944654" d="M78.286,31.063a3.181,3.181,0,0,0,3.177-3.177c0-1.526-2.24-5.144-2.688-5.854a.6.6,0,0,0-.977,0c-.449.71-2.688,4.328-2.688,5.854A3.18,3.18,0,0,0,78.286,31.063Zm0-7.614c.925,1.558,2.021,3.658,2.021,4.437a2.021,2.021,0,1,1-4.042,0c0-.779,1.1-2.878,2.021-4.437Z" transform="translate(-41.325 -18.785)" fill="#128477"/>
        <path id="Trazado_944655" data-name="Trazado 944655" d="M49.467,40.257c-.342.542-2.051,3.3-2.051,4.494a2.54,2.54,0,1,0,5.08,0c0-1.191-1.709-3.953-2.051-4.494A.6.6,0,0,0,49.467,40.257Zm1.872,4.494a1.384,1.384,0,0,1-2.768,0,10.512,10.512,0,0,1,1.384-3.069A10.518,10.518,0,0,1,51.339,44.751Z" transform="translate(-29.638 -26.476)" fill="#128477"/>
        <path id="Trazado_944656" data-name="Trazado 944656" d="M22.87,46.369a2.543,2.543,0,0,0,2.54-2.54c0-1.191-1.709-3.953-2.051-4.494a.6.6,0,0,0-.977,0c-.342.542-2.051,3.3-2.051,4.494A2.541,2.541,0,0,0,22.87,46.369Zm0-5.609a10.518,10.518,0,0,1,1.384,3.069,1.384,1.384,0,0,1-2.768,0A10.518,10.518,0,0,1,22.87,40.76Z" transform="translate(-18.209 -26.087)" fill="#128477"/>
        <path id="Trazado_944657" data-name="Trazado 944657" d="M98.525,67.48a2.543,2.543,0,0,0,2.54-2.54c0-1.191-1.709-3.952-2.051-4.494a.578.578,0,0,0-.977,0c-.342.542-2.051,3.3-2.051,4.494a2.542,2.542,0,0,0,2.539,2.54Zm0-5.609a10.505,10.505,0,0,1,1.384,3.069,1.384,1.384,0,0,1-2.768,0A10.5,10.5,0,0,1,98.525,61.871Z" transform="translate(-50.134 -34.988)" fill="#128477"/>
      </g>
    </g>
  </g>
</svg>
