<svg xmlns="http://www.w3.org/2000/svg" xmlns:xlink="http://www.w3.org/1999/xlink" width="430" height="300" viewBox="0 0 430 300">
  <defs>
    <clipPath id="clip-path">
      <rect id="Rectángulo_430566" data-name="Rectángulo 430566" width="430" height="300" rx="20" transform="translate(995.051 2565)" fill="#fff" stroke="#707070" stroke-width="1"/>
    </clipPath>
    <clipPath id="clip-path-2">
      <rect id="Rectángulo_430565" data-name="Rectángulo 430565" width="519.594" height="326.066" fill="none"/>
    </clipPath>
    <clipPath id="clip-path-3">
      <rect id="Rectángulo_430564" data-name="Rectángulo 430564" width="502.745" height="301.647" fill="none"/>
    </clipPath>
    <clipPath id="clip-path-4">
      <rect id="Rectángulo_430545" data-name="Rectángulo 430545" width="372.123" height="2.715" fill="none"/>
    </clipPath>
  </defs>
  <g id="Enmascarar_grupo_1098926" data-name="Enmascarar grupo 1098926" transform="translate(-995.051 -2565)" clip-path="url(#clip-path)">
    <g id="Grupo_1164217" data-name="Grupo 1164217" transform="translate(950.254 2552.1)">
      <g id="Grupo_1164216" data-name="Grupo 1164216" clip-path="url(#clip-path-2)">
        <rect id="Rectángulo_430543" data-name="Rectángulo 430543" width="502.745" height="301.647" transform="translate(8.424 12.209)" fill="#ecd2b9"/>
        <rect id="Rectángulo_430544" data-name="Rectángulo 430544" width="112.807" height="203.163" transform="translate(398.362 76.261)" fill="#e84771"/>
        <g id="Grupo_1164215" data-name="Grupo 1164215" transform="translate(8.424 12.209)">
          <g id="Grupo_1164214" data-name="Grupo 1164214" clip-path="url(#clip-path-3)">
            <path id="Trazado_935354" data-name="Trazado 935354" d="M510.411,1816.244a23.6,23.6,0,1,0-47.2,0Z" transform="translate(-425.062 -1624.605)" fill="#fff"/>
            <path id="Trazado_935355" data-name="Trazado 935355" d="M748.783,1741.145a31.994,31.994,0,1,0-63.989,0Z" transform="translate(-624.363 -1549.507)" fill="#fff"/>
            <path id="Trazado_935356" data-name="Trazado 935356" d="M1129.559,1847.839a20.067,20.067,0,1,0-40.134,0Z" transform="translate(-988.309 -1656.2)" fill="#fff"/>
            <g id="Grupo_1164213" data-name="Grupo 1164213" transform="translate(61.998 268.012)" opacity="0.29">
              <g id="Grupo_1164212" data-name="Grupo 1164212">
                <g id="Grupo_1164211" data-name="Grupo 1164211" clip-path="url(#clip-path-4)">
                  <path id="Trazado_935357" data-name="Trazado 935357" d="M1072.5,2788.266c0-.75-83.3-1.358-186.062-1.358s-186.062.608-186.062,1.358,83.3,1.358,186.062,1.358,186.062-.608,186.062-1.358" transform="translate(-700.378 -2786.908)" fill="#1c2039"/>
                </g>
              </g>
            </g>
            <path id="Trazado_935358" data-name="Trazado 935358" d="M3529,764.757c40.919,32.01,47.508,128.138,9.957,177.015-26.795,34.876-59.238,15.714-74.488-23.806-12-31.1-13.342-74.77-3.684-108.06,11.741-40.467,40.228-67.043,68.216-45.149" transform="translate(-3115.487 -692.989)" fill="#e84771"/>
            <path id="Trazado_935359" data-name="Trazado 935359" d="M3470.379,764.757c40.919,32.01,47.508,128.138,9.957,177.015-26.795,34.876-59.238,15.714-74.488-23.806-12-31.1-13.343-74.77-3.684-108.06,11.741-40.467,40.228-67.043,68.216-45.149" transform="translate(-3062.757 -692.989)" fill="#e84771"/>
            <path id="Trazado_935360" data-name="Trazado 935360" d="M3385.218,765.117c40.919,32.01,47.509,128.138,9.957,177.015-26.794,34.876-59.238,15.714-74.488-23.806-12-31.1-13.343-74.771-3.684-108.06,11.741-40.467,40.228-67.043,68.216-45.149" transform="translate(-2986.159 -693.313)" fill="#fff"/>
            <path id="Trazado_935361" data-name="Trazado 935361" d="M3374.913,1070.459c13.471,8.113,28.832,4.356,41.251-13.507,6.318-9.087,11.272-20.914,14.46-35.007a159.533,159.533,0,0,0,3.423-44.654,140.1,140.1,0,0,0-8.5-41.455c-4.588-11.957-10.527-21.118-17.395-27.282-5.678-5.1-11.63-7.794-17.611-8.243a26.007,26.007,0,0,0-15.577,4.014c-11.273,6.814-20.332,21.461-25.808,39.587a141.6,141.6,0,0,0-5,24.4,164.267,164.267,0,0,0-1.018,24.534,158.01,158.01,0,0,0,2.636,24.278,124.811,124.811,0,0,0,6.762,23.468,81.453,81.453,0,0,0,9.684,17.815,44.866,44.866,0,0,0,12.692,12.048l0,0" transform="translate(-3015.331 -821.935)" fill="#e84771"/>
            <path id="Trazado_935362" data-name="Trazado 935362" d="M3408.043,1181.032c11.344,5.832,23.9,1.506,33.755-14.023,4.924-7.755,8.74-17.564,11.172-29.042a136.719,136.719,0,0,0,2.6-35.987,121.271,121.271,0,0,0-6.484-33.676c-3.542-9.919-8.181-17.733-13.618-23.24-4.555-4.613-9.382-7.3-14.289-8.124a20.577,20.577,0,0,0-13.083,2.221c-9.745,5.032-17.748,17.168-22.662,32.761a118.9,118.9,0,0,0-4.538,21.327,140.16,140.16,0,0,0-.929,21.669,134.129,134.129,0,0,0,2.4,21.386,103.4,103.4,0,0,0,6.1,20.331,64.748,64.748,0,0,0,8.586,14.939,34.306,34.306,0,0,0,10.984,9.457Z" transform="translate(-3048.461 -944.637)" fill="#fff"/>
            <path id="Trazado_935363" data-name="Trazado 935363" d="M3443.577,1287.214c9.276,3.951,19.243-.481,26.862-13.522a75.864,75.864,0,0,0,8.421-23.388,113.723,113.723,0,0,0,1.923-28.247,101.8,101.8,0,0,0-4.83-26.623c-2.666-7.984-6.2-14.432-10.388-19.161-3.555-4.01-7.36-6.517-11.27-7.542a16.142,16.142,0,0,0-10.67.873c-8.18,3.5-15.047,13.229-19.333,26.243a96.738,96.738,0,0,0-4.007,18.1,116.046,116.046,0,0,0-.826,18.6,110.63,110.63,0,0,0,2.133,18.308,82.962,82.962,0,0,0,5.357,17.093,49.853,49.853,0,0,0,7.4,12.131,25.528,25.528,0,0,0,9.229,7.131Z" transform="translate(-3083.995 -1062.948)" fill="#e84771"/>
            <path id="Trazado_935364" data-name="Trazado 935364" d="M3481.788,1389.952c7.265,2.455,14.851-1.677,20.5-12.122a62.139,62.139,0,0,0,6.1-18.034,90.593,90.593,0,0,0,1.372-21.293,81.79,81.79,0,0,0-3.463-20.2,45.92,45.92,0,0,0-7.614-15.088,19.76,19.76,0,0,0-8.521-6.563,12.394,12.394,0,0,0-8.333-.049c-6.575,2.236-12.223,9.667-15.806,20.059a75.291,75.291,0,0,0-3.394,14.713,92.026,92.026,0,0,0-.7,15.312,87.3,87.3,0,0,0,1.816,15.024,63.656,63.656,0,0,0,4.51,13.754,36.68,36.68,0,0,0,6.1,9.406,18.269,18.269,0,0,0,7.425,5.08Z" transform="translate(-3122.206 -1177.814)" fill="#fff"/>
            <path id="Trazado_935365" data-name="Trazado 935365" d="M3522.988,1490.069c5.308,1.325,10.7-2.148,14.615-9.924a47.329,47.329,0,0,0,4.144-12.965,67.278,67.278,0,0,0,.916-15.011,61.255,61.255,0,0,0-2.326-14.324,35.664,35.664,0,0,0-5.22-11.053,15.77,15.77,0,0,0-6.014-5.243,9.07,9.07,0,0,0-6.067-.567c-4.931,1.243-9.265,6.508-12.063,14.241a54.529,54.529,0,0,0-2.687,11.152,68.048,68.048,0,0,0-.56,11.772,64.25,64.25,0,0,0,1.446,11.514,45.4,45.4,0,0,0,3.547,10.312,25.107,25.107,0,0,0,4.7,6.78,12.259,12.259,0,0,0,5.569,3.316Z" transform="translate(-3163.406 -1290.059)" fill="#e84771"/>
            <path id="Trazado_935366" data-name="Trazado 935366" d="M3567.544,1588.3c3.4.55,6.766-1.951,9.151-7.013a31.515,31.515,0,0,0,2.476-8.165,43.824,43.824,0,0,0,.538-9.308,40.211,40.211,0,0,0-1.376-8.931,24.194,24.194,0,0,0-3.147-7.08,11.092,11.092,0,0,0-3.723-3.631,5.941,5.941,0,0,0-3.871-.7c-3.245.532-6.164,3.784-8.083,8.823a34.548,34.548,0,0,0-1.871,7.405,44.213,44.213,0,0,0-.391,7.954,41.5,41.5,0,0,0,1.011,7.753,28.3,28.3,0,0,0,2.45,6.766,15.054,15.054,0,0,0,3.173,4.271,7.266,7.266,0,0,0,3.659,1.852Z" transform="translate(-3207.962 -1400.422)" fill="#fff"/>
            <path id="Trazado_935367" data-name="Trazado 935367" d="M3615.882,1685.333c1.549.114,3.036-1.138,4.066-3.462a14.709,14.709,0,0,0,1.052-3.618,20.284,20.284,0,0,0,.222-4.108,18.762,18.762,0,0,0-.577-3.962A11.494,11.494,0,0,0,3619.3,1667a5.565,5.565,0,0,0-1.627-1.768,2.8,2.8,0,0,0-1.741-.46c-1.515.115-2.91,1.524-3.842,3.844a15.383,15.383,0,0,0-.925,3.46,20.371,20.371,0,0,0-.192,3.822,19.017,19.017,0,0,0,.5,3.714,12.355,12.355,0,0,0,1.2,3.12,6.41,6.41,0,0,0,1.512,1.9,3.064,3.064,0,0,0,1.694.7Z" transform="translate(-3256.3 -1509.581)" fill="#e84771"/>
            <path id="Trazado_935368" data-name="Trazado 935368" d="M572.091,1788.629a739.679,739.679,0,0,0,92.668,3.512c23.244-.673,40.733-2.091,58.3-3.936a514.075,514.075,0,0,0,58.313-9.489c23.1-5.258,51.727-13.28,90.4-29.054q1.3,3.513,2.7,6.983c-38.559,17.246-67.172,26.744-90.3,33.461-23.168,6.609-40.848,10.437-58.539,13.841a592.085,592.085,0,0,1-59.191,8.278c-23.754,2-53.537,3.25-95.365.65a3.764,3.764,0,0,1-3.375-3.931q.306-8.515.79-17.015a3.346,3.346,0,0,1,3.6-3.3" transform="translate(-519.042 -1585.944)" fill="#339f78"/>
            <path id="Trazado_935369" data-name="Trazado 935369" d="M3419.083,1711.83a3.384,3.384,0,0,1-3.8-.844,3.96,3.96,0,0,1-.014-5.332q4.562-4.9,9.008-9.875-8.381-.813-16.666-1.864a3.784,3.784,0,0,1-3.1-4.177,3.442,3.442,0,0,1,3.751-3.288q9.75,1.223,19.636,2.115a5.637,5.637,0,0,1,4.745,3.8,6.164,6.164,0,0,1-1.111,6.223q-5.522,6.251-11.226,12.388a3.515,3.515,0,0,1-1.22.857m8.3-15.759h0" transform="translate(-3070.598 -1529.065)" fill="#339f78"/>
            <path id="Trazado_935370" data-name="Trazado 935370" d="M2308.4,1528.231l-30.575,4.918s.129,2.479-1.276,3.414l-.54-4.219Z" transform="translate(-2055.584 -1386.778)" fill="#232323"/>
            <path id="Trazado_935371" data-name="Trazado 935371" d="M2183.7,1573.246l.8,4.185,6.473-.828-.54-4.219Z" transform="translate(-1972.553 -1426.492)" fill="#fff"/>
            <rect id="Rectángulo_430546" data-name="Rectángulo 430546" width="1.023" height="0.951" transform="matrix(0.992, -0.127, 0.127, 0.992, 216.538, 148.787)" fill="#fff"/>
            <rect id="Rectángulo_430547" data-name="Rectángulo 430547" width="1.248" height="1.248" transform="matrix(0.992, -0.127, 0.127, 0.992, 216.51, 149.46)" fill="#fff"/>
            <rect id="Rectángulo_430548" data-name="Rectángulo 430548" width="1.248" height="3.109" transform="matrix(0.992, -0.127, 0.127, 0.992, 216.084, 146.122)" fill="#fff"/>
            <rect id="Rectángulo_430549" data-name="Rectángulo 430549" width="2.295" height="0.951" transform="translate(218.013 148.585) rotate(-7.291)" fill="#fff"/>
            <path id="Trazado_935372" data-name="Trazado 935372" d="M2251.417,1602.981l.158,1.238,2.195-.368a.32.32,0,0,0,.082-.05l.11-1.146Z" transform="translate(-2033.464 -1453.719)" fill="#fff"/>
            <path id="Trazado_935373" data-name="Trazado 935373" d="M2247.189,1570.211l.393,3.071,2.545-.325-.645-3.039Z" transform="translate(-2029.66 -1424.273)" fill="#fff"/>
            <rect id="Rectángulo_430550" data-name="Rectángulo 430550" width="0.821" height="0.951" transform="translate(215.218 148.942) rotate(-7.285)" fill="#fff"/>
            <rect id="Rectángulo_430551" data-name="Rectángulo 430551" width="1.248" height="1.248" transform="matrix(0.992, -0.127, 0.127, 0.992, 215.091, 149.628)" fill="#fff"/>
            <path id="Trazado_935374" data-name="Trazado 935374" d="M1376.3,1548.912l-.5-3.987h0l-.005-.042-.005-.042h0l-.524-3.984-90.091,15.586.007.057Z" transform="translate(-1164.383 -1398.136)" fill="#0685a5"/>
            <rect id="Rectángulo_430552" data-name="Rectángulo 430552" width="1.248" height="3.109" transform="matrix(0.992, -0.127, 0.127, 0.992, 214.664, 146.291)" fill="#fff"/>
            <rect id="Rectángulo_430553" data-name="Rectángulo 430553" width="2.525" height="0.951" transform="translate(211.957 149.359) rotate(-7.285)" fill="#fff"/>
            <path id="Trazado_935375" data-name="Trazado 935375" d="M2188,1610.357l.422,1.2,2.923-.374-.158-1.238Z" transform="translate(-1976.425 -1460.28)" fill="#fff"/>
            <rect id="Rectángulo_430554" data-name="Rectángulo 430554" width="3.213" height="3.109" transform="matrix(0.992, -0.127, 0.127, 0.992, 211.15, 146.74)" fill="#fff"/>
            <path id="Trazado_935376" data-name="Trazado 935376" d="M2269.985,1569.224l.567,4.437a1.272,1.272,0,0,0,.578-.3l-.54-4.219Z" transform="translate(-2050.165 -1423.58)" fill="#232323"/>
            <path id="Trazado_935377" data-name="Trazado 935377" d="M1324.666,1663.339l-33.076,13.939a9.433,9.433,0,0,1-2.816.36l-.045,0a2.352,2.352,0,0,1-2.238-2.443c.014-.4.018-.883.006-1.447a37.873,37.873,0,0,0-1.242-7.08Z" transform="translate(-1164.448 -1508.301)" fill="#0685a5"/>
            <path id="Trazado_935378" data-name="Trazado 935378" d="M2303.639,1527.8l-30.829,2.935s-.5-2.432-2.094-2.983l.54,4.219Z" transform="translate(-2050.822 -1386.348)" fill="#232323"/>
            <path id="Trazado_935379" data-name="Trazado 935379" d="M2181.305,1536.071l-.276-4.253,6.473-.828.54,4.219Z" transform="translate(-1970.153 -1389.26)" fill="#fff"/>
            <rect id="Rectángulo_430555" data-name="Rectángulo 430555" width="1.023" height="0.951" transform="translate(215.74 142.543) rotate(-7.286)" fill="#fff"/>
            <rect id="Rectángulo_430556" data-name="Rectángulo 430556" width="1.248" height="1.248" transform="matrix(0.992, -0.127, 0.127, 0.992, 215.506, 141.604)" fill="#fff"/>
            <rect id="Rectángulo_430557" data-name="Rectángulo 430557" width="1.248" height="3.109" transform="matrix(0.992, -0.127, 0.127, 0.992, 215.696, 143.095)" fill="#fff"/>
            <rect id="Rectángulo_430558" data-name="Rectángulo 430558" width="2.295" height="0.951" transform="translate(217.218 142.367) rotate(-7.286)" fill="#fff"/>
            <path id="Trazado_935380" data-name="Trazado 935380" d="M2241.615,1527.5l-.158-1.238,2.216-.2a.321.321,0,0,1,.092.028l.4,1.081Z" transform="translate(-2024.505 -1384.834)" fill="#fff"/>
            <path id="Trazado_935381" data-name="Trazado 935381" d="M2243.747,1543.012l-.393-3.071,2.545-.325.14,3.1Z" transform="translate(-2026.212 -1397.017)" fill="#fff"/>
            <rect id="Rectángulo_430559" data-name="Rectángulo 430559" width="0.821" height="0.951" transform="matrix(0.992, -0.127, 0.127, 0.992, 214.423, 142.725)" fill="#fff"/>
            <rect id="Rectángulo_430560" data-name="Rectángulo 430560" width="1.248" height="1.248" transform="matrix(0.992, -0.127, 0.127, 0.992, 214.089, 141.798)" fill="#fff"/>
            <rect id="Rectángulo_430561" data-name="Rectángulo 430561" width="1.248" height="3.109" transform="matrix(0.992, -0.127, 0.127, 0.992, 214.28, 143.289)" fill="#fff"/>
            <rect id="Rectángulo_430562" data-name="Rectángulo 430562" width="2.525" height="0.951" transform="translate(211.162 143.142) rotate(-7.286)" fill="#fff"/>
            <path id="Trazado_935382" data-name="Trazado 935382" d="M2179.618,1533.726l.106-1.272,2.923-.374.158,1.238Z" transform="translate(-1968.884 -1390.24)" fill="#fff"/>
            <rect id="Rectángulo_430563" data-name="Rectángulo 430563" width="3.213" height="3.11" transform="matrix(0.992, -0.127, 0.127, 0.992, 210.766, 143.739)" fill="#fff"/>
            <path id="Trazado_935383" data-name="Trazado 935383" d="M2264.981,1530.766l-.568-4.437a1.275,1.275,0,0,1,.634.141l.54,4.219Z" transform="translate(-2045.153 -1385.065)" fill="#232323"/>
            <path id="Trazado_935384" data-name="Trazado 935384" d="M1314.774,1583.008l-35.519-5.166a9.431,9.431,0,0,0-2.816.36l-.043.013a2.353,2.353,0,0,0-1.552,2.928c.116.388.24.85.37,1.4a37.858,37.858,0,0,1,.58,7.164Z" transform="translate(-1154.995 -1431.397)" fill="#0685a5"/>
            <path id="Trazado_935385" data-name="Trazado 935385" d="M1324.446,1642.2h0l.168-.021-.088-.012.082-.034-.168.022h0a45.127,45.127,0,0,0-14.377.337l-24.952,4.63.021.168,25.313-1.8a45.121,45.121,0,0,0,14-3.292" transform="translate(-1164.319 -1488.867)" fill="#0a697f"/>
            <path id="Trazado_935386" data-name="Trazado 935386" d="M1429.523,1884.287c-1.682,2.484-8.652.779-14.333-3.068s-8.923-8.979-7.241-11.463,7.87-1.934,13.551,1.913,9.706,10.134,8.024,12.618" transform="translate(-1274.405 -1692.607)" fill="#f39d15"/>
            <path id="Trazado_935387" data-name="Trazado 935387" d="M1305.864,1791l-.786.966s6.815,9.243,11.112,13.121a3.781,3.781,0,1,0,4.739-5.82c-4.022-2.919-15.064-8.266-15.064-8.266" transform="translate(-1182.277 -1623.129)" fill="#f37d66"/>
            <path id="Trazado_935388" data-name="Trazado 935388" d="M1291.657,1744.063l.156-.663a2.049,2.049,0,0,0-.413-1.832l-.648-.708a2.67,2.67,0,0,1-.634-1.965l.067-1.073c.022-.354-.353-.493-.523-.194-.022.039-.045.082-.068.13a5.13,5.13,0,0,0-.357,3.385l0,.017a5.065,5.065,0,0,0,.868,1.891l.665.883Z" transform="translate(-1167.906 -1574.973)" fill="#f37d66"/>
            <path id="Trazado_935389" data-name="Trazado 935389" d="M1700.046,2195.594a3.612,3.612,0,0,1,2.132-.042,6.324,6.324,0,0,1,4.284,3.914c1.815,4.566,5.342,13.449,6.668,16.858a4.68,4.68,0,0,1,.24,2.787l-.558,2.267a2.828,2.828,0,0,1-2.964,2.274,4.626,4.626,0,0,1-3.3-1.915l-2.326-3.036a18.33,18.33,0,0,0-6.46-5.374,7.569,7.569,0,0,1-4.058-5.967c-.451-5.2,1.719-9.6,5.644-11.441Z" transform="translate(-1531.776 -1986.878)" fill="#1c2039"/>
            <path id="Trazado_935390" data-name="Trazado 935390" d="M1610.455,2215.022a3.608,3.608,0,0,0-1.814,1.121,6.324,6.324,0,0,0-1.477,5.612c.951,4.821,2.8,14.2,3.539,17.78a4.68,4.68,0,0,0,1.309,2.472l1.7,1.6a2.828,2.828,0,0,0,3.723.3,4.626,4.626,0,0,0,1.735-3.4l.308-3.812a18.326,18.326,0,0,1,2.514-8.018,7.57,7.57,0,0,0,.174-7.214c-2.443-4.617-6.652-7.136-10.947-6.552Z" transform="translate(-1453.87 -2004.345)" fill="#1c2039"/>
            <path id="Trazado_935391" data-name="Trazado 935391" d="M1537.174,1905.239l-8.548,4.681a2.777,2.777,0,0,0-1.346,3.167l1.089,3.995a23.893,23.893,0,0,0,4.2,8.39l1.31,1.684a10.27,10.27,0,0,1,1.617,9.616l-.306.9a1.555,1.555,0,0,0,.6,1.787l.07.047a20.76,20.76,0,0,0,17.693.987,21.224,21.224,0,0,0,2.664-1.423,2.425,2.425,0,0,0,1.159-2.8l-1.377-4.765a26.354,26.354,0,0,1-.759-11.127l.279-1.909a33.47,33.47,0,0,0,.247-7.479l-.206-2.6a2.412,2.412,0,0,0-1.7-2.117l-6.744-2.057a12.865,12.865,0,0,0-9.933,1.021" transform="translate(-1382.05 -1724.456)" fill="#f39d15"/>
            <path id="Trazado_935392" data-name="Trazado 935392" d="M1621.791,1848.882l-3.877,7.682,1.628,1.093a8.629,8.629,0,0,0,7.3,1.1,4,4,0,0,0,2.8-4.444l-.615-3.293Z" transform="translate(-1463.659 -1675.188)" fill="#f37d66"/>
            <path id="Trazado_935393" data-name="Trazado 935393" d="M1624.538,1764.288a4.15,4.15,0,0,0,1.093-2.974c.054-4.039-3.127-7.3-6.089-10.045a2.431,2.431,0,0,0-1.068-.685c-.645-.141-3.775-.174-4.3.22-2.041,1.919-1.467,4.335-3.429,6.368a1.165,1.165,0,0,0-.374.592,1.046,1.046,0,0,0,.23.706,23.457,23.457,0,0,0,2.555,2.479,19.431,19.431,0,0,0,2.668,2.482,8.459,8.459,0,0,0,6.547,1.841,4.148,4.148,0,0,0,2.172-.984" transform="translate(-1456.864 -1586.686)" fill="#f37d66"/>
            <path id="Trazado_935394" data-name="Trazado 935394" d="M1585.606,1783.959s-5.267-1.736-7-4.423-1.873-4.574-.55-5.612,5.382-1.805,5.382-1.805,1.046,7.8,1.513,8.737c1.015,2.032.655,3.1.655,3.1" transform="translate(-1427.01 -1606.143)" fill="#232323"/>
            <path id="Trazado_935395" data-name="Trazado 935395" d="M1591.18,1704.173c.184-.146,2.911-6.354,3.377-6.672a3.658,3.658,0,0,1,1.307-.463c.928-.2,2.177.028,4.607-.407l.036-.006a9.973,9.973,0,0,0,2.13-.651c1.057-.427,2.809-1.337,3.059-1.4.5-.241,2.913.924.24,3.352-1.266,1.155-4.573,2.758-7,3.83-2.592,1.241-4.307,1.951-6.123,5.228-1.963,3.378-2.686,2.919-2.555,1.335a26.654,26.654,0,0,1,.923-4.141" transform="translate(-1438.769 -1536.363)" fill="#232323"/>
            <path id="Trazado_935396" data-name="Trazado 935396" d="M1631.239,1830.48a2.152,2.152,0,0,0,1.328,2c.822.357,1.56.038,1.648-.713a2.152,2.152,0,0,0-1.328-2c-.822-.357-1.56-.038-1.648.713" transform="translate(-1475.636 -1657.863)" fill="#f37d66"/>
            <path id="Trazado_935397" data-name="Trazado 935397" d="M1284.709,2554.439l-.765-7.912,1.888-.182.071,2.389-.208,4.667a1.093,1.093,0,0,1-.986,1.039" transform="translate(-1163.269 -2302.522)" fill="#1c2039"/>
            <path id="Trazado_935398" data-name="Trazado 935398" d="M1341.534,2497.271a3.652,3.652,0,0,0-1.2-.452l-8.457-1.587a26.379,26.379,0,0,0-11.47.389l-17.693,4.344.067,2.533,23.785,2.307,13.862.889a1.909,1.909,0,0,0,1.948-1.377l.814-2.769a3.748,3.748,0,0,0-1.66-4.277" transform="translate(-1180.155 -2256.142)" fill="#1c2039"/>
            <path id="Trazado_935399" data-name="Trazado 935399" d="M1805.535,2395.933a3.653,3.653,0,0,0-.049,1.278l1.182,8.523a26.373,26.373,0,0,0,4.013,10.751l9.792,15.065,2.329-.537-5.369-23.286-3.561-13.426a1.909,1.909,0,0,0-1.924-1.41l-2.885.108a3.748,3.748,0,0,0-3.528,2.933" transform="translate(-1632.34 -2164.497)" fill="#1c2039"/>
            <path id="Trazado_935400" data-name="Trazado 935400" d="M1961.973,2763.786l-7.562,2.447-.584-1.8,2.339-.629,4.579-.761a1.1,1.1,0,0,1,1.227.747" transform="translate(-1765.796 -2497.414)" fill="#1c2039"/>
            <path id="Trazado_935401" data-name="Trazado 935401" d="M1735.739,1834.84c2.443,1.741,7.652-1.377,11.633-6.965s5.229-11.529,2.786-13.27-8.3,1.22-12.281,6.808-4.581,11.686-2.138,13.427" transform="translate(-1568.332 -1643.91)" fill="#f39d15"/>
            <path id="Trazado_935402" data-name="Trazado 935402" d="M1848.9,1649.2l.96.5s-5,16.058-7.857,21.09a3.781,3.781,0,1,1-6.329-4.034c2.9-4.036,13.226-17.557,13.226-17.557" transform="translate(-1658.79 -1495.586)" fill="#f37d66"/>
            <path id="Trazado_935403" data-name="Trazado 935403" d="M1974.476,1619.887l.4-.556a2.143,2.143,0,0,1,1.617-.94l.924-.018a2.76,2.76,0,0,0,1.852-.873l.758-.769c.25-.254.583-.082.465.24-.015.042-.034.087-.055.135a5.522,5.522,0,0,1-2.3,2.529l-.015.009a5.144,5.144,0,0,1-1.94.657l-1.065.123Z" transform="translate(-1784.369 -1466.271)" fill="#f37d66"/>
            <path id="Trazado_935404" data-name="Trazado 935404" d="M1579.063,2392.015l-1.237,10.2a3.683,3.683,0,0,1-3.917,3.231l-11.467-.788,3.018-4.136a19.78,19.78,0,0,0,3.784-12.51l-.2-4.736Z" transform="translate(-1413.765 -2155.846)" fill="#1c2039"/>
            <path id="Trazado_935405" data-name="Trazado 935405" d="M1513.105,1908.545h0a9.073,9.073,0,0,1-5.019-1.057l-1.511-.814-5.187,10.205a28.263,28.263,0,0,1,4.13,5.017l.909,1.407,5.918-9.787Z" transform="translate(-1358.85 -1727.169)" fill="#f39d15"/>
            <path id="Trazado_935406" data-name="Trazado 935406" d="M1749.366,1890.428l-.065.078a17.5,17.5,0,0,0-3.4,6.376l-6.291-10.426-.915-2.284a7.471,7.471,0,0,0,2.1-1.619l1.48-1.637Z" transform="translate(-1572.297 -1704.001)" fill="#f39d15"/>
            <path id="Trazado_935407" data-name="Trazado 935407" d="M1047.946,894.505a30.326,30.326,0,1,0-60.652,0Z" transform="translate(-896.447 -789.496)" fill="#fff"/>
            <path id="Trazado_935408" data-name="Trazado 935408" d="M1354.267,798a41.115,41.115,0,0,0-82.229,0Z" transform="translate(-1152.56 -692.988)" fill="#fff"/>
            <path id="Trazado_935409" data-name="Trazado 935409" d="M1843.585,935.105a25.787,25.787,0,1,0-51.575,0Z" transform="translate(-1620.25 -830.096)" fill="#fff"/>
            <path id="Trazado_935410" data-name="Trazado 935410" d="M2616.306,653.954a20.8,20.8,0,1,0-41.591,0Z" transform="translate(-2324.254 -581.704)" fill="#fff"/>
            <path id="Trazado_935411" data-name="Trazado 935411" d="M2826.363,587.775a28.194,28.194,0,1,0-56.388,0Z" transform="translate(-2499.881 -515.525)" fill="#fff"/>
            <path id="Trazado_935412" data-name="Trazado 935412" d="M3161.908,681.8a17.683,17.683,0,0,0-35.367,0Z" transform="translate(-2820.595 -609.545)" fill="#fff"/>
          </g>
        </g>
      </g>
    </g>
  </g>
</svg>
