<svg xmlns="http://www.w3.org/2000/svg" xmlns:xlink="http://www.w3.org/1999/xlink" width="430" height="300" viewBox="0 0 430 300">
  <defs>
    <clipPath id="clip-path">
      <rect id="Rectángulo_430667" data-name="Rectángulo 430667" width="430" height="300" rx="20" transform="translate(995.051 2565)" fill="#fff" stroke="#707070" stroke-width="1"/>
    </clipPath>
    <clipPath id="clip-path-2">
      <rect id="Rectángulo_430694" data-name="Rectángulo 430694" width="465" height="310" transform="translate(-0.058 -0.038)" fill="none"/>
    </clipPath>
    <clipPath id="clip-path-4">
      <rect id="Rectángulo_430669" data-name="Rectángulo 430669" width="264.489" height="7.641" fill="none"/>
    </clipPath>
    <clipPath id="clip-path-5">
      <rect id="Rectángulo_430670" data-name="Rectángulo 430670" width="86.22" height="68.034" fill="none"/>
    </clipPath>
    <clipPath id="clip-path-6">
      <rect id="Rectángulo_430671" data-name="Rectángulo 430671" width="28.943" height="10.026" fill="none"/>
    </clipPath>
    <clipPath id="clip-path-7">
      <rect id="Rectángulo_430672" data-name="Rectángulo 430672" width="2.618" height="3.734" fill="none"/>
    </clipPath>
    <clipPath id="clip-path-8">
      <rect id="Rectángulo_430673" data-name="Rectángulo 430673" width="0.051" height="0.033" fill="none"/>
    </clipPath>
    <clipPath id="clip-path-9">
      <rect id="Rectángulo_430674" data-name="Rectángulo 430674" width="1.381" height="6.945" fill="none"/>
    </clipPath>
    <clipPath id="clip-path-10">
      <rect id="Rectángulo_430675" data-name="Rectángulo 430675" width="7.863" height="4.868" fill="none"/>
    </clipPath>
    <clipPath id="clip-path-11">
      <rect id="Rectángulo_430676" data-name="Rectángulo 430676" width="3.403" height="10.037" fill="none"/>
    </clipPath>
    <clipPath id="clip-path-12">
      <rect id="Rectángulo_430677" data-name="Rectángulo 430677" width="4.16" height="10.323" fill="none"/>
    </clipPath>
    <clipPath id="clip-path-13">
      <rect id="Rectángulo_430678" data-name="Rectángulo 430678" width="2.975" height="5.487" fill="none"/>
    </clipPath>
    <clipPath id="clip-path-14">
      <rect id="Rectángulo_430679" data-name="Rectángulo 430679" width="15.559" height="101.504" fill="none"/>
    </clipPath>
    <clipPath id="clip-path-15">
      <rect id="Rectángulo_430680" data-name="Rectángulo 430680" width="12.703" height="5.074" fill="none"/>
    </clipPath>
    <clipPath id="clip-path-16">
      <rect id="Rectángulo_430681" data-name="Rectángulo 430681" width="56.296" height="60.442" fill="none"/>
    </clipPath>
    <clipPath id="clip-path-17">
      <rect id="Rectángulo_430682" data-name="Rectángulo 430682" width="5.126" height="21.066" fill="none"/>
    </clipPath>
    <clipPath id="clip-path-18">
      <rect id="Rectángulo_430683" data-name="Rectángulo 430683" width="5.338" height="21.064" fill="none"/>
    </clipPath>
    <clipPath id="clip-path-19">
      <rect id="Rectángulo_430684" data-name="Rectángulo 430684" width="5.083" height="21.197" fill="none"/>
    </clipPath>
    <clipPath id="clip-path-20">
      <rect id="Rectángulo_430685" data-name="Rectángulo 430685" width="4.362" height="21.298" fill="none"/>
    </clipPath>
    <clipPath id="clip-path-22">
      <rect id="Rectángulo_430687" data-name="Rectángulo 430687" width="20.025" height="9.971" fill="none"/>
    </clipPath>
    <clipPath id="clip-path-23">
      <rect id="Rectángulo_430688" data-name="Rectángulo 430688" width="19.717" height="9.962" fill="none"/>
    </clipPath>
    <clipPath id="clip-path-24">
      <rect id="Rectángulo_430689" data-name="Rectángulo 430689" width="19.537" height="8.328" fill="none"/>
    </clipPath>
    <clipPath id="clip-path-25">
      <rect id="Rectángulo_430690" data-name="Rectángulo 430690" width="19.262" height="8.87" fill="none"/>
    </clipPath>
    <clipPath id="clip-path-26">
      <rect id="Rectángulo_430691" data-name="Rectángulo 430691" width="19.337" height="8.615" fill="none"/>
    </clipPath>
    <clipPath id="clip-path-27">
      <rect id="Rectángulo_430692" data-name="Rectángulo 430692" width="52.817" height="40.528" fill="none"/>
    </clipPath>
  </defs>
  <g id="Enmascarar_grupo_1098928" data-name="Enmascarar grupo 1098928" transform="translate(-995.051 -2565)" clip-path="url(#clip-path)">
    <g id="Grupo_1164405" data-name="Grupo 1164405" transform="translate(978.109 2560.342)">
      <g id="Grupo_1164404" data-name="Grupo 1164404" transform="translate(0 -0.303)" clip-path="url(#clip-path-2)">
        <rect id="Rectángulo_430668" data-name="Rectángulo 430668" width="465" height="310" transform="translate(-0.058 -0.038)" fill="#eddcc3"/>
        <g id="Grupo_1164403" data-name="Grupo 1164403">
          <g id="Grupo_1164402" data-name="Grupo 1164402" clip-path="url(#clip-path-2)">
            <g id="Grupo_1164332" data-name="Grupo 1164332" transform="translate(92.268 266.077)" opacity="0.14">
              <g id="Grupo_1164331" data-name="Grupo 1164331">
                <g id="Grupo_1164330" data-name="Grupo 1164330" clip-path="url(#clip-path-4)">
                  <path id="Trazado_935568" data-name="Trazado 935568" d="M860.3,1719.95c0,2.11-62.4,4.56-134.3,4.56s-130.187-1.71-130.187-3.82,58.287-3.82,130.187-3.82,134.3.971,134.3,3.081" transform="translate(-595.814 -1716.869)" fill="#32323f"/>
                </g>
              </g>
            </g>
            <path id="Trazado_935569" data-name="Trazado 935569" d="M1021.946,449.622c-37.446.311-98.9,24.806-99.14,97.909-.207,64.1,46.012,105.524,106.409,101.044,69.64-5.166-7.268-198.953-7.268-198.953" transform="translate(-779.899 -379.792)" fill="#2c2c3a"/>
            <path id="Trazado_935570" data-name="Trazado 935570" d="M1138.92,549.383a102.927,102.927,0,0,1-12.5,49.108c-.044.079-.085.157-.129.235q-.383.7-.784,1.393c-.108.192-.217.384-.328.575a99.571,99.571,0,0,1-7.768,11.492c-.026.035-.055.071-.081.1-.084.106-.16.2-.234.3-.464.587-.931,1.165-1.41,1.74-.127.157-.258.312-.388.467q-2.65,3.16-5.543,6.077c-.04.041-.083.081-.123.123-.086.086-.173.173-.259.257q-1.629,1.624-3.331,3.165c-.19.173-.379.344-.571.516a95.581,95.581,0,0,1-8.842,7l-.231.16q-2.956,2.058-6.07,3.881a90.935,90.935,0,0,1-32.074,11.485l-.009,0a90.575,90.575,0,0,1-14.318,1.086c-43.974-.141-80.847-31.753-91.352-74.479a104.2,104.2,0,0,1-3.006-25.29,102.918,102.918,0,0,1,12.2-48.538v0a96.665,96.665,0,0,1,47.609-43.644,90.433,90.433,0,0,1,12.084-4.069l.072-.019.019,0a90.6,90.6,0,0,1,23.014-2.883h0a90.432,90.432,0,0,1,37.307,8.154c33.677,15.325,57.183,50.61,57.05,91.611" transform="translate(-802.515 -379.788)" fill="#e5e5e5"/>
            <path id="Trazado_935571" data-name="Trazado 935571" d="M1059.217,646.2a85.5,85.5,0,0,0,2.467,20.753c8.621,35.061,38.879,61,74.967,61.12,42.911.138,77.814-36.294,77.958-81.374s-34.523-81.735-77.434-81.872c-29.13-.094-54.569,16.664-67.949,41.54v0a84.456,84.456,0,0,0-10.01,39.831" transform="translate(-895.186 -477.154)" fill="#3b3b4c"/>
            <path id="Trazado_935572" data-name="Trazado 935572" d="M1177.928,751.653c-.11,34.413,26.355,62.4,59.113,62.5s59.4-27.707,59.513-62.12-26.355-62.4-59.113-62.5-59.4,27.707-59.513,62.12" transform="translate(-995.513 -582.55)" fill="#1991bf"/>
            <path id="Trazado_935573" data-name="Trazado 935573" d="M1296.126,856.655c-.076,23.793,18.222,43.14,40.87,43.213s41.071-19.157,41.147-42.95-18.222-43.14-40.87-43.213-41.071,19.156-41.147,42.949" transform="translate(-1095.407 -687.493)" fill="#cd2b31"/>
            <path id="Trazado_935574" data-name="Trazado 935574" d="M1434.593,979.662c-.036,11.352,8.694,20.582,19.5,20.617s19.6-9.14,19.632-20.492-8.694-20.583-19.5-20.617-19.6,9.14-19.632,20.492" transform="translate(-1212.431 -810.431)" fill="#f7b523"/>
            <path id="Trazado_935575" data-name="Trazado 935575" d="M972.582,481.732c-6.217-.995-7.1-3.8-8.223-12.493-.832,8.241-1.871,11.364-8.2,12.283,5.508,2.369,7.445,3.228,8.4,12.759,1.39-9.645,2.6-10.495,8.023-12.549" transform="translate(-808.089 -396.371)" fill="#fff"/>
            <path id="Trazado_935576" data-name="Trazado 935576" d="M2075.4,1503.153c-4.21-.674-4.806-2.574-5.569-8.461-.564,5.581-1.267,7.7-5.552,8.319,3.731,1.6,5.042,2.186,5.687,8.641.941-6.532,1.764-7.107,5.434-8.5" transform="translate(-1744.605 -1263.021)" fill="#fff"/>
            <path id="Trazado_935577" data-name="Trazado 935577" d="M1338.427,990.531c-5.033-.805-5.745-3.077-6.657-10.114-.674,6.672-1.515,9.2-6.637,9.944,4.459,1.917,6.027,2.613,6.8,10.329,1.125-7.809,2.108-8.5,6.5-10.16" transform="translate(-1119.922 -828.387)" fill="#fff"/>
            <g id="Grupo_1164335" data-name="Grupo 1164335" transform="translate(236.769 167.009)" opacity="0.1">
              <g id="Grupo_1164334" data-name="Grupo 1164334">
                <g id="Grupo_1164333" data-name="Grupo 1164333" clip-path="url(#clip-path-5)">
                  <path id="Trazado_935578" data-name="Trazado 935578" d="M1615.142,1130.464c-.108.192-.217.384-.328.575a99.576,99.576,0,0,1-7.768,11.492c-.026.035-.055.071-.081.1-.084.106-.16.2-.234.3-.464.587-.931,1.165-1.41,1.74a4.509,4.509,0,0,0-.388.467c-.2.333-2.548-1.58-2.548-1.58l-11.211-9.016-3.833-3.082-8.807-7.083-2.031-1.634-6.395-5.143-.677-.543-7.6-6.113-13.687-11.007-3.859-3.1-15.36-12.352,3.078-7.34,19.02,12.2,4.066,2.608,13.038,8.362,1.208.774,7.006,4.494,1.146.734,7.472,4.792,11.644,7.469,4.05,2.6Z" transform="translate(-1528.921 -1077.143)" fill="#4b4b5b"/>
                </g>
              </g>
            </g>
            <path id="Trazado_935579" data-name="Trazado 935579" d="M1521.05,745.209c7.017-4.507,108.643-58.9,111.76-60.409,3.361-1.625,13.687,12.067,9.763,14.22-3.709,2.035-117.407,53.813-118.584,54.337-2.88,1.283-8.468-4.6-2.94-8.148" transform="translate(-1283.515 -578.437)" fill="#c49270"/>
            <path id="Trazado_935580" data-name="Trazado 935580" d="M1583.931,1101.119c-8.883.069-57.085,2.792-61.357-14.008-2.421-9.521,6.177-57.993,3.112-69.8-1.584-6.1-7.935-13.582-1.058-15.635s47.618,4.008,59.265,6.063c.38.067,2.973.587,2.993.594a8.2,8.2,0,0,1,2.688,2.062c.68,1.023,1.082,3.263,1.289,6.354.27,4.006.211,9.443-.013,15.51-.167,4.559-.426,9.475-.7,14.405q-.067,1.2-.136,2.4c-.41,7.163-.838,14.243-1.062,20.2-.254,6.725-.249,12.02.33,14.381,1.439,5.854,6.992,10,9.317,10.407,6.295,1.088-7.97,7.013-14.665,7.065" transform="translate(-1285.874 -846.003)" fill="#fff"/>
            <path id="Trazado_935581" data-name="Trazado 935581" d="M1902.784,299.127a47.97,47.97,0,0,1-14.334-1.214,3.38,3.38,0,0,1-2.012-1.03,2.86,2.86,0,0,1,.286-3.462,3.678,3.678,0,0,1,3.169-1.037,5.174,5.174,0,0,0,2.165.072c.873-.284,1.451-1.183,2.037-1.966s1.378-1.557,2.28-1.434c.676.092,1.209.665,1.811,1.024a1.273,1.273,0,0,0,1.82-.264c.738-1.415-.3-5.294,3.5-5.294,5.488,0,4.592,3.9,5.252,4.733,1,1.256,2.784.979,4.235.554s3.178-.828,4.3.295c.971.974,1.071,2.759,2.1,3.649,1.1.947,2.659.442,3.99.016s3.047-.582,3.819.711a2.91,2.91,0,0,1-.756,3.452,5.444,5.444,0,0,1-3.294,1.067c-7.518.513-14.344-.284-20.374.127" transform="translate(-1593.914 -240.259)" fill="#fff"/>
            <g id="Grupo_1164338" data-name="Grupo 1164338" transform="translate(87.013 108.485)" opacity="0.76">
              <g id="Grupo_1164337" data-name="Grupo 1164337">
                <g id="Grupo_1164336" data-name="Grupo 1164336" clip-path="url(#clip-path-6)">
                  <path id="Trazado_935582" data-name="Trazado 935582" d="M587.5,704.309c2.033,0,6.211,3.917.24,4.544s-14.913.339-18.532.352c-5.907.021-7.372-.241-7.325-2.862.027-1.517.781-2.5,3.9-2.9,3.239-.414,1.584-4.327,5.538-4.208,3.368.1,3.711,5.223,6.793,3.968s2.436,2.165,4.69,2.793c2.477.69,2.667-1.689,4.7-1.689" transform="translate(-561.882 -699.234)" fill="#fff"/>
                </g>
              </g>
            </g>
            <path id="Trazado_935583" data-name="Trazado 935583" d="M935.575,1143.518s1.463,2.677,2,2.526a6.171,6.171,0,0,0,2.512-1.857,1.847,1.847,0,0,1,1.034-.585,11.705,11.705,0,0,1,2.032-.2c.738-.046,1.281-.153,1.2-.657-.111-.711-1.327-1.275,1.516-3.155.541-.358-.634-1.2-1.775-1.428-.092-.018-.184-.032-.275-.042a3.017,3.017,0,0,0-1.913.655,6.761,6.761,0,0,0-1.59,1.548c-.572.841-1.334,1.018-2.422,1.6a15.2,15.2,0,0,0-2.318,1.595" transform="translate(-790.691 -961.664)" fill="#efaea6"/>
            <path id="Trazado_935584" data-name="Trazado 935584" d="M753.256,1102.918l-3.439-.961c-.032-1.569,1.646-4.865,1.895-6.27.273-1.542,2.175-2.962,2.175-2.962l1.155,3.235-.073.272a12.016,12.016,0,0,0,.213,3.938c.273.705.109,1.748.86,2.828.563.808-2.786-.079-2.786-.079" transform="translate(-633.7 -923.303)" fill="#efaea6"/>
            <g id="Grupo_1164341" data-name="Grupo 1164341" transform="translate(118.705 172.539)" opacity="0.14">
              <g id="Grupo_1164340" data-name="Grupo 1164340">
                <g id="Grupo_1164339" data-name="Grupo 1164339" clip-path="url(#clip-path-7)">
                  <path id="Trazado_935585" data-name="Trazado 935585" d="M769.068,1113.823a12.368,12.368,0,0,0,.079,2.766c-2.1-.326-3-3.019-2.465-3.622.337-.376,1.3.313,1.3.313Z" transform="translate(-766.529 -1112.855)" fill="#1f1f3b"/>
                </g>
              </g>
            </g>
            <path id="Trazado_935586" data-name="Trazado 935586" d="M768.537,1086.779c.031,1.278,1.265,3.784.4,3.737s.067,2.7-.851,2.683c-2.225-.041-4.7-1.574-4.921-2.659a20.98,20.98,0,0,1,.109-4.066Z" transform="translate(-644.918 -918.021)" fill="#efaea6"/>
            <path id="Trazado_935587" data-name="Trazado 935587" d="M755.06,1071.565c.7.118.707.284,1.212.072s-.3-.93.621-1.034,1.932-.109,2.09-1.149c.228-1.505-1.129-1.338-1.969-1.206-.541.085-.6-1.079-1.674-1.084-.839,0-.77.489-1.52.518-.452.018-1.288-.768-2.023-.263-1.363.937-.349,2.226-1.5,3.241-1.339,1.184,1.433,4,1.791,3.7.419-.356-.089-1.681.33-1.964.632-.427.677.091,1.155.594.511.537,1.509.619.926-.4s-.072-1.132.558-1.025" transform="translate(-633.801 -901.701)" fill="#1f1f3b"/>
            <path id="Trazado_935588" data-name="Trazado 935588" d="M808.5,1685.6c.154-1.527.039-5.4.039-5.4l-4.219-.147.227,5.809,2.789,1.847Z" transform="translate(-679.759 -1419.682)" fill="#fff"/>
            <path id="Trazado_935589" data-name="Trazado 935589" d="M807.129,1706.794c.356-.272,1.148.683,1.312,1.324.374,1.468,5.081,1.655,5.92,1.787a1.259,1.259,0,0,1-1.024,2.217c-1.863-.008-7.829-.013-9.867-.034a.931.931,0,0,1-.9-.68c-.367-1.418-.411-4.743.157-4.79.766.172,3.047,1.212,4.4.175" transform="translate(-678.051 -1442.129)" fill="#1f1f3b"/>
            <path id="Trazado_935590" data-name="Trazado 935590" d="M703.993,1685.645c.163-1.526.071-5.4.071-5.4l-4.218-.17.193,5.81,2.778,1.863Z" transform="translate(-591.467 -1419.7)" fill="#fff"/>
            <path id="Trazado_935591" data-name="Trazado 935591" d="M702.2,1703.19c.454.029.372.453.529,1.1.36,1.471,5.718,2.425,6.555,2.564a1.26,1.26,0,0,1-1.044,2.208c-1.862-.024-7.829-.079-9.866-.117a.93.93,0,0,1-.895-.687c-.353-1.421-.486-5.321.083-5.363.765.178,2.57.165,4.637.3" transform="translate(-589.212 -1438.979)" fill="#1f1f3b"/>
            <path id="Trazado_935592" data-name="Trazado 935592" d="M686.943,1311.849c.053.691.125,1.442.222,2.265a185.67,185.67,0,0,1,.943,20.1c-.187,6.578.4,21.965.4,24.322,2,.876,3.235.6,6.089,0,0,0,.507-12.7,1.07-23.811.456-9.025.588-8.12,2.246-19.612v0c.019.053.423,1.173,1.011,2.9a152.438,152.438,0,0,1,4.37,14.752c1.572,7.257.751,26.171,1.409,26.823,1.96,1.155,5.277,1.267,6.163-.337,0,0,.375-23.391-.322-27.055-.472-2.491-4.462-26.9-5.352-33.46,0,0-17.572-3.831-18.111,2.171a21.331,21.331,0,0,0-.085,2.237c.014.932-.038,1.8-.088,2.743a41.871,41.871,0,0,0,.04,5.963" transform="translate(-580.455 -1096.392)" fill="#3b3b4d"/>
            <g id="Grupo_1164344" data-name="Grupo 1164344" transform="translate(115.906 215.398)" opacity="0.46">
              <g id="Grupo_1164343" data-name="Grupo 1164343">
                <g id="Grupo_1164342" data-name="Grupo 1164342" clip-path="url(#clip-path-8)">
                  <path id="Trazado_935593" data-name="Trazado 935593" d="M748.452,1389.639a.076.076,0,0,1,0,.009.443.443,0,0,0,.049-.033.431.431,0,0,0-.051.024" transform="translate(-748.452 -1389.615)" fill="#1f1f3b"/>
                </g>
              </g>
            </g>
            <g id="Grupo_1164347" data-name="Grupo 1164347" transform="translate(117.453 215.727)" opacity="0.54">
              <g id="Grupo_1164346" data-name="Grupo 1164346">
                <g id="Grupo_1164345" data-name="Grupo 1164345" clip-path="url(#clip-path-9)">
                  <path id="Trazado_935594" data-name="Trazado 935594" d="M758.442,1394.735v0c.019.053.791,2.227,1.38,3.95l-.69-6.946a15.438,15.438,0,0,1-.69,2.994" transform="translate(-758.442 -1391.741)" fill="#1f1f3b"/>
                </g>
              </g>
            </g>
            <g id="Grupo_1164350" data-name="Grupo 1164350" transform="translate(106.357 208.786)" opacity="0.35">
              <g id="Grupo_1164349" data-name="Grupo 1164349">
                <g id="Grupo_1164348" data-name="Grupo 1164348" clip-path="url(#clip-path-10)">
                  <path id="Trazado_935595" data-name="Trazado 935595" d="M686.823,1351.786c.146-.032,6.919-1.476,7.834-4.868,0,0-5.888.506-7.772.707-.082,1.547-.122,3.284-.063,4.16" transform="translate(-686.795 -1346.918)" fill="#1f1f3b"/>
                </g>
              </g>
            </g>
            <path id="Trazado_935596" data-name="Trazado 935596" d="M705.774,1132.191c1.522-.413,1.671,2.1,3.205,2.224.81.064.631-.289,1.014-.662.236-.23.456-.488.829-.106,7.574,7.771-.313,27.366.651,28.733.788,1.118-5.621,3.559-9.647,2.577-5.521-1.347-5.185-7.342-5.025-8.487s3.716-20.608,3.716-20.608a30.193,30.193,0,0,0,5.256-3.671" transform="translate(-588.836 -956.619)" fill="#fff"/>
            <path id="Trazado_935597" data-name="Trazado 935597" d="M806.855,1143.57c-.591-.924-12.583,10.643-14.3,9.483-3.024-2.043-5.885-9.4-12.015-11.212a20.221,20.221,0,0,0,.25,4.693c.58,4.482-1.944,7.672-1.432,13.1.662,7.015-1.065,14.179.662,15.761,1.006.922,2.4,1.1,4.086-.65,2.65-2.752.908-11.784.667-13.929-.094-.835-.3-1.96-.478-3.126-.219-1.45-.639-3.175.091-3.7.209-.152,4.5,5.04,7.924,4.977,2.549-.047,14.208-9.359,14.574-9.767,1.043-1.162-.028-5.62-.028-5.62" transform="translate(-658.553 -964.813)" fill="#0069a8"/>
            <path id="Trazado_935598" data-name="Trazado 935598" d="M695.469,1367.4c.147.274.6.274.374.459s-3,1.406-3,1.406-.267.29-.592-.188a1.876,1.876,0,0,1-.325-.958Z" transform="translate(-584.778 -1155.44)" fill="#e79e9c"/>
            <path id="Trazado_935599" data-name="Trazado 935599" d="M680.629,1167.349a6.073,6.073,0,0,0,7.749-.682c1.761-1.855-.021-4.256,1.282-8.583a54.924,54.924,0,0,0,2.085-9.694,122.967,122.967,0,0,0-.022-15.95,10.925,10.925,0,0,0-6.985,3.376c-1.324,1.379-2.157,5.367-2.3,8.282-.045.957-.072,1.726-.085,2.375-.027,1.327,0,2.156.048,3.063.017.361.035.735.053,1.158h0c.019.477.038,1.017.051,1.67a23.923,23.923,0,0,1-.79,4.766h0c-.982,4.255-2.381,9.407-1.087,10.216" transform="translate(-574.785 -956.868)" fill="#0069a8"/>
            <path id="Trazado_935600" data-name="Trazado 935600" d="M657.353,1152.57c-8.463,13.876-8.927,12.037-9.138,14.307s5.6,14.559,5.6,14.559-3.487,1.946-3.874,1.349-7.855-14.342-7.558-17.3c.327-3.256,9.427-15.9,10.5-17.139s5.7-1.776,5.647.447a7.266,7.266,0,0,1-1.173,3.774" transform="translate(-542.893 -969.404)" fill="#0069a8"/>
            <g id="Grupo_1164353" data-name="Grupo 1164353" transform="translate(106.932 190.227)" opacity="0.18">
              <g id="Grupo_1164352" data-name="Grupo 1164352">
                <g id="Grupo_1164351" data-name="Grupo 1164351" clip-path="url(#clip-path-11)">
                  <path id="Trazado_935601" data-name="Trazado 935601" d="M690.506,1237.112c3.179-2.842,3.4-10.037,3.4-10.037l-2.663,3.6h0c.019.477.038,1.017.05,1.67a23.9,23.9,0,0,1-.79,4.766" transform="translate(-690.506 -1227.075)" fill="#1f1f3b"/>
                </g>
              </g>
            </g>
            <g id="Grupo_1164356" data-name="Grupo 1164356" transform="translate(106.423 201.052)" opacity="0.18">
              <g id="Grupo_1164355" data-name="Grupo 1164355">
                <g id="Grupo_1164354" data-name="Grupo 1164354" clip-path="url(#clip-path-12)">
                  <path id="Trazado_935602" data-name="Trazado 935602" d="M687.218,1298.365c.218,1.007,4.16,8.932,4.16,8.932l-3.835-10.323Z" transform="translate(-687.218 -1296.974)" fill="#1f1f3b"/>
                </g>
              </g>
            </g>
            <g id="Grupo_1164359" data-name="Grupo 1164359" transform="translate(150.427 176.451)" opacity="0.18">
              <g id="Grupo_1164358" data-name="Grupo 1164358">
                <g id="Grupo_1164357" data-name="Grupo 1164357" clip-path="url(#clip-path-13)">
                  <path id="Trazado_935603" data-name="Trazado 935603" d="M971.372,1143.6a11.741,11.741,0,0,1,2.032-.2l.943-5.241c-.092-.018-.184-.032-.275-.042a3.017,3.017,0,0,0-1.913.655c-.273,1.871-.591,3.722-.786,4.823" transform="translate(-971.372 -1138.115)" fill="#1f1f3b"/>
                </g>
              </g>
            </g>
            <path id="Trazado_935604" data-name="Trazado 935604" d="M906.609,1662.823l-6.7-.931-1.335,9.613a3.011,3.011,0,0,0,2.568,3.4l.737.1a3.011,3.011,0,0,0,3.4-2.568Z" transform="translate(-759.395 -1404.329)" fill="#fff"/>
            <path id="Trazado_935605" data-name="Trazado 935605" d="M903.183,1099.461l.663.093,1.645.228,2.885.4.135.019,1.372.19,14.051-101.159-.031-.187-1.162-7.091a1.257,1.257,0,0,0-2.378-.33l-3.131,6.678-.043.306Z" transform="translate(-763.316 -837.248)" fill="#f4ad00"/>
            <path id="Trazado_935606" data-name="Trazado 935606" d="M1000.525,987.719l-1.224-9.683a.868.868,0,0,0-1.66-.231l-3.817,8.983-.017.119c1.056.5.943,1.133,1.493,1.156.7.03,1.193-1.456,1.949-1.351s.3.854,1.05.958.816-.361,1.278-.3-.1.211.948.346" transform="translate(-839.905 -825.733)" fill="#efaea6"/>
            <path id="Trazado_935607" data-name="Trazado 935607" d="M1015.936,974.5l-.437-3.457a.5.5,0,0,0-.954-.132l-1.36,3.2a.1.1,0,0,0,.039.12c.716.457,1-.2,1.519-.073a6.6,6.6,0,0,1,1.056.439.1.1,0,0,0,.138-.1" transform="translate(-856.276 -820.094)" fill="#1f1e39"/>
            <g id="Grupo_1164362" data-name="Grupo 1164362" transform="translate(145.061 161.64)" opacity="0.09">
              <g id="Grupo_1164361" data-name="Grupo 1164361">
                <g id="Grupo_1164360" data-name="Grupo 1164360" clip-path="url(#clip-path-14)">
                  <path id="Trazado_935608" data-name="Trazado 935608" d="M936.719,1143.772l.135.019,1.372.19,14.051-101.159-.947-.345c-2.545,10.9-7.648,51.971-9.429,64.88-1.411,10.224-3.827,25.025-5.182,36.415" transform="translate(-936.719 -1042.478)" fill="#1f1f3b"/>
                </g>
              </g>
            </g>
            <g id="Grupo_1164365" data-name="Grupo 1164365" transform="translate(107.554 177.771)" opacity="0.18">
              <g id="Grupo_1164364" data-name="Grupo 1164364">
                <g id="Grupo_1164363" data-name="Grupo 1164363" clip-path="url(#clip-path-15)">
                  <path id="Trazado_935609" data-name="Trazado 935609" d="M706.811,1147.487c-.145-.1-1.567,2.766-3.517,3.724a4.609,4.609,0,0,1-1.725.491,62.428,62.428,0,0,1-7.046-.561,11.346,11.346,0,0,1,2.124-2.539c1.622.5,3.783,1.422,4.709,1.312a6.706,6.706,0,0,0,1.933-.548,11.175,11.175,0,0,0,2.806-1.881c.368-.327.419-.82.865-.842.592-.03.037.967-.149.846" transform="translate(-694.523 -1146.641)" fill="#1f1f39"/>
                </g>
              </g>
            </g>
            <path id="Trazado_935610" data-name="Trazado 935610" d="M606.7,1144.351a.656.656,0,0,0-.745-.6c-.4.033-.42.2-.738.5a8.072,8.072,0,0,1-4.135,2.3c-1.747.27-5.858-1.856-8.432-1.175s-3.259,3.047-6.983,3.813-7.83-.637-8.928-.4-1.758.512-1.71.949a2.174,2.174,0,0,0,1.423,1.413,48.579,48.579,0,0,0,9.458.109c2.934-.53,5.352-3.308,7.247-3.562s5.946.656,8.169.431c2.48-.25,4.374-3.237,4.543-3.135a.677.677,0,0,0,.641.107c.217-.065.217-.507.19-.755" transform="translate(-485.975 -966.426)" fill="#f4ad00"/>
            <path id="Trazado_935611" data-name="Trazado 935611" d="M1656.6,1098.8c-2.074,1.193-1.675-2.838-2.057-3.824a8.364,8.364,0,0,0-.111,1.484c-.322,1.176.736,5.177-1.406,3.848-.483-.067.267-7.424.191-7.8,1.969-1.876,2.352,1.956,2.537,3.3.414,2.275.457-3.143,1.4-3.283,1.152-.208,1.59.683,1.505,1.768-.342,1.313,1.444,8.25-1.055,6.658-.63-1.629.008-4.035-.284-5.522-.205,1.078-.451,2.054-.718,3.376" transform="translate(-1396.899 -922.694)" fill="#0069a8"/>
            <path id="Trazado_935612" data-name="Trazado 935612" d="M1699.44,1105.986c-.865.244-1.657-.244-1.5-1.237.167-.08-.223-7.845.448-7.383,2.441-.542.6,7.573,1.051,8.62" transform="translate(-1434.98 -927.204)" fill="#0069a8"/>
            <path id="Trazado_935613" data-name="Trazado 935613" d="M1715.335,1105.046c-3.517-1.532-.77-7.838,2.145-4.25.524,2.609-.791.7-2.04,1.1-.931,1.412,4.311,2.283,1.723,6.249-1.394,1.6-4.938-.611-3.084-2.423.963,1.772,3.46.6,1.257-.68" transform="translate(-1448.191 -929.205)" fill="#0069a8"/>
            <path id="Trazado_935614" data-name="Trazado 935614" d="M1746.207,1109.251c-3.517-1.531-.77-7.838,2.145-4.25.524,2.609-.791.7-2.04,1.1-.931,1.412,4.311,2.283,1.723,6.249-1.394,1.6-4.938-.612-3.084-2.423.963,1.772,3.46.6,1.257-.68" transform="translate(-1474.282 -932.759)" fill="#0069a8"/>
            <path id="Trazado_935615" data-name="Trazado 935615" d="M1778.271,1116.724c-.865.244-1.657-.245-1.5-1.237.167-.08-.223-7.845.448-7.383,2.441-.542.6,7.573,1.051,8.62" transform="translate(-1501.604 -936.279)" fill="#0069a8"/>
            <path id="Trazado_935616" data-name="Trazado 935616" d="M1792.49,1115.351c-.409-2.992,2.811-5.922,4.759-2.679,1.186,2.158,1.331,7.627-2.1,7.534-2.147-.385-2.69-2.9-2.655-4.855m1.562.213c-.2,1.42.764,3.737,2.011,2.172,1.58-2.421-1.519-7.513-2.011-2.172" transform="translate(-1514.874 -938.962)" fill="#0069a8"/>
            <path id="Trazado_935617" data-name="Trazado 935617" d="M1837.94,1124.648c-2.022,1.54-2.347-2.576-2.773-3.685-.71-3.2-.386-.223-.5,1.314-.141.738.472,2.844-1.059,2.1-.936-.382-.093-7.284-.287-8.089,1.9-1.943,2.409,2.467,2.793,3.534.806,4.01.339-2.028.521-3.515,2.833-1,.814,7.266,1.3,8.339" transform="translate(-1549.278 -942.806)" fill="#0069a8"/>
            <path id="Trazado_935618" data-name="Trazado 935618" d="M1614.967,1167.159c-3.517-1.531-.77-7.838,2.145-4.25.524,2.609-.791.7-2.04,1.1-.931,1.412,4.311,2.283,1.723,6.249-1.394,1.6-4.938-.611-3.084-2.423.963,1.772,3.46.6,1.257-.68" transform="translate(-1363.366 -981.699)" fill="#0069a8"/>
            <path id="Trazado_935619" data-name="Trazado 935619" d="M1642.883,1168.288c-1.149-3.224,2.748-1.349,4.2-1.423.4,1.29.119,2.323-1.384,1.807-.163.079.232,6.912-.426,6.472-2.319.436-.714-5.614-1.093-6.679l-1.3-.177" transform="translate(-1388.288 -985.56)" fill="#0069a8"/>
            <path id="Trazado_935620" data-name="Trazado 935620" d="M1673.058,1171.4c2.786-1.333,2.436,2.791,2.87,4.514,0,1.2,1.591,5.323-.811,3.888-.661-1.676.3-1.772-1.942-1.939.192,1.49-1.407,2.74-1.746.738.35-2.333,1.064-4.912,1.628-7.2m1.006,1.937c-.049,1.089-1.42,3.024.475,2.827a23.593,23.593,0,0,0-.475-2.827" transform="translate(-1412.591 -989.573)" fill="#0069a8"/>
            <path id="Trazado_935621" data-name="Trazado 935621" d="M1704.963,1176.745c-1.149-3.224,2.747-1.349,4.2-1.423.4,1.29.119,2.323-1.384,1.807-.163.079.233,6.912-.425,6.472-2.319.436-.714-5.614-1.093-6.679l-1.3-.177" transform="translate(-1440.755 -992.708)" fill="#0069a8"/>
            <path id="Trazado_935622" data-name="Trazado 935622" d="M1738.288,1181.009c-.292-2.067,2.748-.728,3.7-.794.668,2.228-.685,1.89-2.233,1.607-.21,1.985.353,1.16,1.927,1.561.6,2-.433,1.974-1.989,1.626l-.028,1.461,2.23.3c.153.518.364,1.866-.4,1.871-.511-.2-2.9-.078-3.117-.773-.432-.482-.007-6.187-.084-6.863" transform="translate(-1469 -996.935)" fill="#0069a8"/>
            <path id="Trazado_935623" data-name="Trazado 935623" d="M1772.274,1190.347c-2.074,1.193-1.675-2.838-2.057-3.824a8.389,8.389,0,0,0-.111,1.484c-.321,1.176.736,5.177-1.406,3.848-.484-.067.267-7.424.19-7.8,1.969-1.876,2.352,1.956,2.537,3.3.414,2.275.458-3.143,1.4-3.283,1.152-.208,1.59.683,1.505,1.768-.342,1.313,1.444,8.249-1.055,6.658-.63-1.629.008-4.035-.285-5.523-.205,1.078-.451,2.054-.718,3.376" transform="translate(-1494.66 -1000.06)" fill="#0069a8"/>
            <path id="Trazado_935624" data-name="Trazado 935624" d="M1813.869,1191.3c-.292-2.067,2.748-.727,3.7-.794.668,2.228-.685,1.89-2.232,1.607-.21,1.985.353,1.16,1.927,1.561.6,2-.433,1.974-1.989,1.626l-.028,1.461,2.23.3c.153.518.364,1.866-.4,1.87-.511-.2-2.9-.078-3.117-.773-.432-.483-.007-6.187-.084-6.863" transform="translate(-1532.876 -1005.637)" fill="#0069a8"/>
            <path id="Trazado_935625" data-name="Trazado 935625" d="M1849.011,1201.942c-2.022,1.54-2.347-2.576-2.773-3.685-.71-3.2-.386-.223-.5,1.314-.141.738.472,2.844-1.059,2.1-.936-.382-.093-7.284-.287-8.089,1.9-1.943,2.409,2.467,2.793,3.534.806,4.01.339-2.028.521-3.515,2.833-1,.814,7.266,1.3,8.339" transform="translate(-1558.634 -1008.13)" fill="#0069a8"/>
            <path id="Trazado_935626" data-name="Trazado 935626" d="M1880.44,1200.649c-1.149-3.224,2.748-1.349,4.2-1.423.4,1.29.119,2.323-1.384,1.807-.163.079.233,6.912-.426,6.472-2.319.436-.714-5.614-1.093-6.679l-1.3-.177" transform="translate(-1589.057 -1012.91)" fill="#0069a8"/>
            <g id="Grupo_1164368" data-name="Grupo 1164368" transform="translate(247.842 162.82)" opacity="0.11">
              <g id="Grupo_1164367" data-name="Grupo 1164367">
                <g id="Grupo_1164366" data-name="Grupo 1164366" clip-path="url(#clip-path-16)">
                  <path id="Trazado_935627" data-name="Trazado 935627" d="M1656.72,1090.339c-.41,7.163-.838,14.242-1.063,20.2l-55.233-54.288,5.944-6.154Z" transform="translate(-1600.424 -1050.096)" fill="#4b4b5b"/>
                </g>
              </g>
            </g>
            <path id="Trazado_935628" data-name="Trazado 935628" d="M2173.391,539.38c.107-1.364,1.824-18.93,4.057-21.737s7.883-3.771,7.883-3.771c.109,11.271-1.479,19.058-5.863,22.032-2.267,1.538-3.843,2.781-4.822,3.43-.915.611-1.307.706-1.255.045" transform="translate(-1836.814 -434.092)" fill="#9b9baa"/>
            <g id="Grupo_1164371" data-name="Grupo 1164371" transform="translate(336.572 84.678)" opacity="0.23">
              <g id="Grupo_1164370" data-name="Grupo 1164370">
                <g id="Grupo_1164369" data-name="Grupo 1164369" clip-path="url(#clip-path-17)">
                  <path id="Trazado_935629" data-name="Trazado 935629" d="M2173.391,566.114c.107-1.364,1.939-17.8,4.172-20.609,1.414,1.751,1.819,16.752-2.917,20.564-.915.611-1.307.706-1.255.045" transform="translate(-2173.387 -545.503)" fill="#1f1f39"/>
                </g>
              </g>
            </g>
            <path id="Trazado_935630" data-name="Trazado 935630" d="M2135.045,564.457c.107-1.364,1.753-18.863,3.987-21.669a13.006,13.006,0,0,1,6.252-3.807c.109,11.271.222,19.027-4.161,22-2.268,1.538-3.844,2.781-4.822,3.43-.915.611-1.307.706-1.256.045" transform="translate(-1804.407 -455.313)" fill="#9b9baa"/>
            <g id="Grupo_1164374" data-name="Grupo 1164374" transform="translate(330.634 88.536)" opacity="0.23">
              <g id="Grupo_1164373" data-name="Grupo 1164373">
                <g id="Grupo_1164372" data-name="Grupo 1164372" clip-path="url(#clip-path-18)">
                  <path id="Trazado_935631" data-name="Trazado 935631" d="M2135.045,591.018c.107-1.364,1.939-17.8,4.173-20.609,1.414,1.751,2.531,10.469-2.917,20.564-.915.611-1.307.706-1.256.045" transform="translate(-2135.04 -570.409)" fill="#1f1f39"/>
                </g>
              </g>
            </g>
            <path id="Trazado_935632" data-name="Trazado 935632" d="M2090.464,589.3a24.3,24.3,0,0,0,1.818-7.716c0-.04.007-.082.011-.121.473-5.566,1.178-12.294,2.3-13.709,2.232-2.809,7.149-4.424,7.149-4.424.108,11.27-.821,19.521-5.205,22.494-2.266,1.539-3.843,2.782-4.822,3.43-.109.073-.211.138-.306.2l0,0c-.694.424-.991.43-.946-.152" transform="translate(-1766.73 -475.893)" fill="#9b9baa"/>
            <g id="Grupo_1164377" data-name="Grupo 1164377" transform="translate(323.73 92.667)" opacity="0.23">
              <g id="Grupo_1164376" data-name="Grupo 1164376">
                <g id="Grupo_1164375" data-name="Grupo 1164375" clip-path="url(#clip-path-19)">
                  <path id="Trazado_935633" data-name="Trazado 935633" d="M2090.464,617.833a24.3,24.3,0,0,0,1.818-7.716c0-.04.007-.082.011-.121.568-5.662,1.4-11.5,2.518-12.905,1.414,1.751.941,12.622-2.917,20.562-.166.112-.328.223-.481.33l0,0c-.694.424-.991.43-.946-.152" transform="translate(-2090.46 -597.091)" fill="#1f1f39"/>
                </g>
              </g>
            </g>
            <path id="Trazado_935634" data-name="Trazado 935634" d="M2046.624,616.731c.107-1.364,1.518-18.067,3.751-20.873s7.108-5.118,7.108-5.118c.109,11.272-.4,19.542-4.781,22.516-2.267,1.538-3.844,2.781-4.822,3.43-.914.611-1.307.706-1.255.045" transform="translate(-1729.679 -499.055)" fill="#9b9baa"/>
            <g id="Grupo_1164380" data-name="Grupo 1164380" transform="translate(316.941 96.833)" opacity="0.23">
              <g id="Grupo_1164379" data-name="Grupo 1164379">
                <g id="Grupo_1164378" data-name="Grupo 1164378" clip-path="url(#clip-path-20)">
                  <path id="Trazado_935635" data-name="Trazado 935635" d="M2046.624,644.835c.107-1.364,1.428-18.035,3.661-20.842,1.414,1.751.705,13.091-2.406,20.8-.914.611-1.307.706-1.255.045" transform="translate(-2046.62 -623.993)" fill="#1f1f39"/>
                </g>
              </g>
            </g>
            <path id="Trazado_935636" data-name="Trazado 935636" d="M2000.73,646.128c.107-1.364,1.939-17.8,4.172-20.609s6.618-4.842,6.618-4.842c.109,11.271-1.83,20.406-4.255,22.108-2.243,1.574-4.3,2.648-5.28,3.3-.915.611-1.307.706-1.255.045" transform="translate(-1690.892 -524.357)" fill="#9b9baa"/>
            <g id="Grupo_1164383" data-name="Grupo 1164383" transform="translate(309.834 101.161)" opacity="0.23">
              <g id="Grupo_1164382" data-name="Grupo 1164382">
                <g id="Grupo_1164381" data-name="Grupo 1164381" clip-path="url(#clip-path-17)">
                  <path id="Trazado_935637" data-name="Trazado 935637" d="M2000.73,672.55c.107-1.364,1.939-17.8,4.172-20.609,1.414,1.751,1.819,16.752-2.917,20.564-.915.611-1.307.706-1.255.045" transform="translate(-2000.727 -651.941)" fill="#1f1f39"/>
                </g>
              </g>
            </g>
            <path id="Trazado_935638" data-name="Trazado 935638" d="M1962.385,675.135c.107-1.364,2.568-16.661,4.8-19.468a32.514,32.514,0,0,1,5.617-5.232c.109,11.271.043,18.25-4.34,21.224-2.267,1.538-3.844,2.781-4.823,3.43-.915.611-1.307.706-1.255.045" transform="translate(-1658.485 -549.507)" fill="#9b9baa"/>
            <path id="Trazado_935639" data-name="Trazado 935639" d="M1588.207,681.179c7.129-4.329,100.619-62.913,103.79-64.305,3.419-1.5,15.787,22.993,11.787,25-3.781,1.9-110.16,48.494-111.32,49.055-4.041,1.955-8.007-7.473-4.257-9.75" transform="translate(-1340.986 -521.087)" fill="#dba87f"/>
            <path id="Trazado_935640" data-name="Trazado 935640" d="M2244.25,618.366c4.218,6.241,3.376,14.751-1.879,19.007s-12.936,2.646-17.154-3.6-3.347-15.3,2.021-19.414c4.776-3.661,12.795-2.239,17.013,4" transform="translate(-1878.365 -517.339)" fill="#754942"/>
            <path id="Trazado_935641" data-name="Trazado 935641" d="M2219.5,797.725c1.173.623,17.273,9.2,20.734,8.836s7.777-4.155,7.777-4.155c-9.172-5.958-17.783-9.888-22.5-7.847-2.44,1.055-4.278,1.7-5.319,2.162-.976.431-1.259.7-.691,1" transform="translate(-1875.54 -670.851)" fill="#9b9baa"/>
            <g id="Grupo_1164386" data-name="Grupo 1164386" transform="translate(343.668 125.623)" opacity="0.23">
              <g id="Grupo_1164385" data-name="Grupo 1164385">
                <g id="Grupo_1164384" data-name="Grupo 1164384" clip-path="url(#clip-path-22)">
                  <path id="Trazado_935642" data-name="Trazado 935642" d="M2219.5,811.149c1.173.623,16.274,9.076,19.735,8.709-.7-2.07-13.456-11.606-19.044-9.713-.976.431-1.259.7-.691,1" transform="translate(-2219.208 -809.898)" fill="#1f1f39"/>
                </g>
              </g>
            </g>
            <path id="Trazado_935643" data-name="Trazado 935643" d="M2179.141,816.754c1.173.622,16.625,8.923,20.086,8.556a14.429,14.429,0,0,0,6.189-2.326c-9.172-5.958-15.547-11.437-20.264-9.4-2.44,1.055-4.278,1.7-5.319,2.162-.976.431-1.259.7-.691,1" transform="translate(-1841.433 -687.026)" fill="#9b9baa"/>
            <g id="Grupo_1164389" data-name="Grupo 1164389" transform="translate(337.418 128.724)" opacity="0.23">
              <g id="Grupo_1164388" data-name="Grupo 1164388">
                <g id="Grupo_1164387" data-name="Grupo 1164387" clip-path="url(#clip-path-23)">
                  <path id="Trazado_935644" data-name="Trazado 935644" d="M2179.141,830.927c1.173.623,15.966,9.313,19.427,8.946-.7-2.07-7.633-9.155-18.736-9.951-.976.431-1.259.7-.691,1" transform="translate(-2178.851 -829.923)" fill="#1f1f39"/>
                </g>
              </g>
            </g>
            <path id="Trazado_935645" data-name="Trazado 935645" d="M2133.379,838.634a23.565,23.565,0,0,1,7.264,2.528l.1.054c4.8,2.511,10.679,5.437,12.424,5.252a25.7,25.7,0,0,0,7.478-2.426c-9.172-5.956-16.544-10.615-21.261-8.573-2.44,1.054-4.279,1.7-5.319,2.163-.117.051-.223.1-.32.148h0c-.709.347-.868.588-.368.854" transform="translate(-1802.756 -705.473)" fill="#9b9baa"/>
            <g id="Grupo_1164392" data-name="Grupo 1164392" transform="translate(330.332 132.082)" opacity="0.23">
              <g id="Grupo_1164391" data-name="Grupo 1164391">
                <g id="Grupo_1164390" data-name="Grupo 1164390" clip-path="url(#clip-path-24)">
                  <path id="Trazado_935646" data-name="Trazado 935646" d="M2133.379,852.692a23.573,23.573,0,0,1,7.264,2.528l.1.054c4.932,2.483,10.148,4.841,11.878,4.658-.7-2.069-9.845-7.342-18.355-8.317-.178.078-.354.153-.521.223h0c-.709.348-.868.588-.368.854" transform="translate(-2133.088 -851.613)" fill="#1f1f39"/>
                </g>
              </g>
            </g>
            <path id="Trazado_935647" data-name="Trazado 935647" d="M2088,859.853c1.173.623,15.583,8.164,19.044,7.8s7.892-3.155,7.892-3.155c-9.172-5.958-16.208-9.848-20.925-7.808-2.44,1.055-4.278,1.7-5.32,2.162-.976.431-1.259.7-.691,1" transform="translate(-1764.406 -723.355)" fill="#9b9baa"/>
            <g id="Grupo_1164395" data-name="Grupo 1164395" transform="translate(323.304 135.494)" opacity="0.23">
              <g id="Grupo_1164394" data-name="Grupo 1164394">
                <g id="Grupo_1164393" data-name="Grupo 1164393" clip-path="url(#clip-path-25)">
                  <path id="Trazado_935648" data-name="Trazado 935648" d="M2088,874.644c1.173.623,15.51,8.221,18.971,7.854-.7-2.07-10.351-7.394-18.281-8.858-.976.431-1.259.7-.691,1" transform="translate(-2087.71 -873.64)" fill="#1f1f39"/>
                </g>
              </g>
            </g>
            <path id="Trazado_935649" data-name="Trazado 935649" d="M2042.451,883.05c1.172.623,15.586,7.682,19.047,7.314s7.41-2.9,7.41-2.9c-9.172-5.958-17.661-9.126-20.317-8.027-2.457,1.017-4.408,2.143-5.449,2.606-.976.431-1.259.7-.691,1" transform="translate(-1725.911 -742.865)" fill="#9b9baa"/>
            <g id="Grupo_1164398" data-name="Grupo 1164398" transform="translate(316.25 138.898)" opacity="0.23">
              <g id="Grupo_1164397" data-name="Grupo 1164397">
                <g id="Grupo_1164396" data-name="Grupo 1164396" clip-path="url(#clip-path-26)">
                  <path id="Trazado_935650" data-name="Trazado 935650" d="M2042.451,896.906c1.172.623,15.586,7.682,19.047,7.314-.7-2.07-12.769-10.212-18.356-8.319-.976.431-1.259.7-.691,1" transform="translate(-2042.161 -895.619)" fill="#1f1f39"/>
                </g>
              </g>
            </g>
            <path id="Trazado_935651" data-name="Trazado 935651" d="M2002.094,901.934c1.172.622,14.979,6.572,18.44,6.2a31.539,31.539,0,0,0,7.208-1.875c-9.172-5.958-14.92-9.537-19.638-7.5-2.44,1.055-4.278,1.7-5.319,2.162-.976.431-1.259.7-.691,1" transform="translate(-1691.802 -758.894)" fill="#9b9baa"/>
            <g id="Grupo_1164401" data-name="Grupo 1164401" transform="translate(244.543 195.664)" opacity="0.19">
              <g id="Grupo_1164400" data-name="Grupo 1164400">
                <g id="Grupo_1164399" data-name="Grupo 1164399" clip-path="url(#clip-path-27)">
                  <path id="Trazado_935652" data-name="Trazado 935652" d="M1737.739,1274.942l13.1,1.213a.54.54,0,0,1,.488.587l-.089.963a.54.54,0,0,1-.587.488l-13.1-1.213a.54.54,0,0,1-.488-.587l.089-.963a.54.54,0,0,1,.587-.488" transform="translate(-1712.601 -1272.964)" fill="#3b3b4d"/>
                  <path id="Trazado_935653" data-name="Trazado 935653" d="M1871.617,1287.876l-.089.963a.54.54,0,0,1-.587.488l-7.729-.716a.54.54,0,0,1-.488-.587l.089-.963a.539.539,0,0,1,.587-.488l7.729.715a.54.54,0,0,1,.488.587" transform="translate(-1818.803 -1282.794)" fill="#3b3b4d"/>
                  <path id="Trazado_935654" data-name="Trazado 935654" d="M1730.67,1318.531l6.77.627a.54.54,0,0,1,.488.587l-.089.963a.54.54,0,0,1-.587.488l-6.771-.627a.54.54,0,0,1-.488-.587l.089-.963a.54.54,0,0,1,.587-.488" transform="translate(-1706.627 -1309.803)" fill="#3b3b4d"/>
                  <path id="Trazado_935655" data-name="Trazado 935655" d="M1819.8,1327.324l-.089.963a.54.54,0,0,1-.587.488l-16.319-1.511a.54.54,0,0,1-.488-.587l.089-.963a.54.54,0,0,1,.587-.488l16.319,1.511a.54.54,0,0,1,.488.587" transform="translate(-1767.753 -1315.461)" fill="#3b3b4d"/>
                  <path id="Trazado_935656" data-name="Trazado 935656" d="M1726.63,1360.913l20.737,1.92a.513.513,0,0,1,.429.582l-.089.964a.513.513,0,0,1-.528.493l-20.737-1.919a.513.513,0,0,1-.429-.582l.089-.964a.513.513,0,0,1,.528-.493" transform="translate(-1703.263 -1345.622)" fill="#3b3b4d"/>
                  <path id="Trazado_935657" data-name="Trazado 935657" d="M1891.978,1376.787l-.089.964a.54.54,0,0,1-.587.488l-3.169-.293a.54.54,0,0,1-.488-.587l.089-.964a.54.54,0,0,1,.587-.488l3.169.293a.54.54,0,0,1,.488.587" transform="translate(-1839.864 -1358.293)" fill="#3b3b4d"/>
                  <path id="Trazado_935658" data-name="Trazado 935658" d="M1599.926,1262.185l7.378.683a.54.54,0,0,1,.488.587l-.089.963a.54.54,0,0,1-.587.488l-7.378-.683a.54.54,0,0,1-.488-.587l.089-.963a.54.54,0,0,1,.587-.488" transform="translate(-1596.13 -1262.183)" fill="#3b3b4d"/>
                  <path id="Trazado_935659" data-name="Trazado 935659" d="M1675.686,1271.066l-.089.963a.54.54,0,0,1-.587.488l-7.728-.716a.54.54,0,0,1-.488-.587l.089-.963a.54.54,0,0,1,.587-.488l7.729.716a.54.54,0,0,1,.488.587" transform="translate(-1653.214 -1268.587)" fill="#3b3b4d"/>
                  <path id="Trazado_935660" data-name="Trazado 935660" d="M1613.341,1308.541l-.116.96a.54.54,0,0,1-.6.471l-16.816-1.541a.54.54,0,0,1-.471-.6l.116-.96a.54.54,0,0,1,.6-.471l16.816,1.541a.54.54,0,0,1,.471.6" transform="translate(-1592.823 -1299.549)" fill="#3b3b4d"/>
                  <path id="Trazado_935661" data-name="Trazado 935661" d="M1592.9,1347.209l9.921.918a.513.513,0,0,1,.429.582l-.089.964a.513.513,0,0,1-.528.493l-9.921-.918a.513.513,0,0,1-.429-.582l.089-.964a.513.513,0,0,1,.528-.493" transform="translate(-1590.245 -1334.04)" fill="#3b3b4d"/>
                  <path id="Trazado_935662" data-name="Trazado 935662" d="M1688.406,1356.618l-.089.964a.54.54,0,0,1-.587.488l-3.169-.293a.54.54,0,0,1-.488-.587l.089-.964a.54.54,0,0,1,.587-.488l3.169.293a.54.54,0,0,1,.488.587" transform="translate(-1667.817 -1341.247)" fill="#3b3b4d"/>
                  <path id="Trazado_935663" data-name="Trazado 935663" d="M1589.393,1388.114l21.86,2.023a.54.54,0,0,1,.488.587l-.089.964a.54.54,0,0,1-.587.488l-21.86-2.023a.54.54,0,0,1-.488-.588l.089-.964a.54.54,0,0,1,.587-.488" transform="translate(-1587.228 -1368.611)" fill="#3b3b4d"/>
                  <path id="Trazado_935664" data-name="Trazado 935664" d="M1755.218,1403.463l11.054,1.023a.54.54,0,0,1,.488.587l-.089.964a.54.54,0,0,1-.587.488l-11.054-1.023a.54.54,0,0,1-.488-.587l.089-.964a.54.54,0,0,1,.587-.488" transform="translate(-1727.373 -1381.583)" fill="#3b3b4d"/>
                  <path id="Trazado_935665" data-name="Trazado 935665" d="M1861.259,1413.821l-.089.964a.54.54,0,0,1-.587.488l-7.663-.709a.54.54,0,0,1-.488-.587l.089-.964a.54.54,0,0,1,.587-.488l7.663.71a.54.54,0,0,1,.488.587" transform="translate(-1810.104 -1389.24)" fill="#3b3b4d"/>
                  <path id="Trazado_935666" data-name="Trazado 935666" d="M1622.985,1428.107l-.089.964a.54.54,0,0,1-.587.488l-37.358-3.458a.54.54,0,0,1-.488-.587l.089-.964a.54.54,0,0,1,.587-.488l37.357,3.458a.54.54,0,0,1,.488.587" transform="translate(-1583.634 -1398.992)" fill="#3b3b4d"/>
                  <path id="Trazado_935667" data-name="Trazado 935667" d="M1581.448,1461.949l7.635.707a.54.54,0,0,1,.488.587l-.089.964a.54.54,0,0,1-.587.488l-7.635-.707a.54.54,0,0,1-.488-.587l.089-.964a.539.539,0,0,1,.587-.488" transform="translate(-1580.514 -1431.012)" fill="#3b3b4d"/>
                  <path id="Trazado_935668" data-name="Trazado 935668" d="M1692.254,1472.681l-.089.964a.54.54,0,0,1-.587.488l-26.633-2.465a.539.539,0,0,1-.488-.587l.089-.964a.54.54,0,0,1,.587-.488l26.633,2.465a.54.54,0,0,1,.488.587" transform="translate(-1651.24 -1437.501)" fill="#3b3b4d"/>
                  <path id="Trazado_935669" data-name="Trazado 935669" d="M1599.75,1502.565l-20.138-1.864a.54.54,0,0,1-.488-.587l.089-.964a.541.541,0,0,1,.588-.488l20.138,1.864a.54.54,0,0,1,.488.587l-.089.964a.54.54,0,0,1-.587.488" transform="translate(-1579.121 -1462.039)" fill="#3b3b4d"/>
                </g>
              </g>
            </g>
          </g>
        </g>
      </g>
    </g>
  </g>
</svg>
