<svg xmlns="http://www.w3.org/2000/svg" width="54.224" height="54.25" viewBox="0 0 54.224 54.25">
  <g id="Grupo_1164406" data-name="Grupo 1164406" transform="translate(-191.966 -5772.244)">
    <rect id="Rectángulo_402557" data-name="Rectángulo 402557" width="26" height="52" rx="5" transform="translate(194.73 5774.494)" fill="#faecaa"/>
    <g id="colibri" transform="translate(191.844 5772.244)">
      <path id="Trazado_912620" data-name="Trazado 912620" d="M180.834,25.122a26.7,26.7,0,0,0-5.205-13.552s-3.314-4.662-5.021-3.682c-2.03,1.164-1.365,9.692-.682,13.739l6.143,8.155,4.872-2.86Z" transform="translate(-151.215 -6.932)" fill="#ffc026"/>
      <path id="Trazado_912621" data-name="Trazado 912621" d="M185.772,25.122a26.7,26.7,0,0,0-5.205-13.552s-3.314-4.662-5.021-3.682a2.013,2.013,0,0,0-.773,1.064,18.8,18.8,0,0,1,2.3,2.618,26.7,26.7,0,0,1,5.205,13.552l.106,1.8-2.448,1.437,1.071,1.422,4.872-2.86Z" transform="translate(-156.153 -6.932)" fill="#f7b30c"/>
      <path id="Trazado_912622" data-name="Trazado 912622" d="M176.594,199.075c-.7-3.7,1.787-3.455,4.665-5.8,4.873-3.963,2.91-6.984,4.358-9.392a5.909,5.909,0,0,1,5.828-2.682.63.63,0,0,0,.687-.534c.212-1.444.249-5.1-4.112-7.49-2.895-1.585-7.733-1.219-11.425.666a6.728,6.728,0,0,0-1.205.691c-2.53,2.049-6.66,5.544-6.766,13.063s8,11.491,8,11.491" transform="translate(-150.654 -153.948)" fill="#9cc042"/>
      <path id="Trazado_912623" data-name="Trazado 912623" d="M168.134,324.253s.583,19.855,23.677,18.758c0,0-1.326-4.989-11.032-6.727a14.37,14.37,0,0,1-11.139-7.65A16.648,16.648,0,0,1,168.134,324.253Z" transform="translate(-150.218 -289.911)" fill="#ffbfc3"/>
      <path id="Trazado_912624" data-name="Trazado 912624" d="M13.851,86.537c16.941,2.995,20.189,15.918,20.775,19.617a1.434,1.434,0,0,1-.748,1.5,14.113,14.113,0,0,1-8.96,1.483,19.057,19.057,0,0,1-7.113-2.725c-1.791-1.264-1.054-3.9,2.74-2.95,0,0-7.165-2.318-6.744-5.057s4.426-.316,4.426-.316S6.739,90.868,7.69,87.443C8.217,85.547,13.851,86.537,13.851,86.537Z" transform="translate(-6.716 -77.141)" fill="#ffd775"/>
      <path id="Trazado_912625" data-name="Trazado 912625" d="M68.763,194.144s-.245-.154-.66-.427c-.013.019-.026.039-.038.06C68.484,193.975,68.763,194.144,68.763,194.144Z" transform="translate(-60.747 -173.2)" fill="#ffcd52"/>
      <path id="Trazado_912626" data-name="Trazado 912626" d="M48.97,106.155c-.587-3.7-3.834-16.622-20.775-19.617a16.049,16.049,0,0,0-4.517-.14c.611.068,1.022.14,1.022.14,16.941,2.995,20.189,15.918,20.775,19.617a1.434,1.434,0,0,1-.748,1.5,15.214,15.214,0,0,1-4.9,1.575,14.275,14.275,0,0,0,8.4-1.575,1.434,1.434,0,0,0,.748-1.5Z" transform="translate(-21.06 -77.142)" fill="#ffcd52"/>
      <path id="Trazado_912627" data-name="Trazado 912627" d="M263.077,238.281c-.522.33-3.013,2.225-2.764,8.2a11.491,11.491,0,0,1-3.118,7.991,29,29,0,0,0,3.256-2.094c4.873-3.963,2.91-6.984,4.358-9.392a5.393,5.393,0,0,1,1.866-1.886A10.859,10.859,0,0,1,263.077,238.281Z" transform="translate(-229.846 -213.045)" fill="#ffd775"/>
      <path id="Trazado_912628" data-name="Trazado 912628" d="M302.487,173.19a10.22,10.22,0,0,0-5.53-.959,7.5,7.5,0,0,0,1.4,6.963c.061-.038.1-.056.1-.056s-.034.018-.1.056a10.857,10.857,0,0,0,3.6,2.816,6.607,6.607,0,0,1,3.962-.8.63.63,0,0,0,.687-.534C306.811,179.237,306.848,175.578,302.487,173.19Z" transform="translate(-265.121 -153.958)" fill="#ffbfc3"/>
      <path id="Trazado_912629" data-name="Trazado 912629" d="M303.571,173.19a10.22,10.22,0,0,0-5.53-.959c-.074.279-.133.551-.18.817a7.834,7.834,0,0,1,2.215.778c4.361,2.387,4.324,6.046,4.112,7.49a.624.624,0,0,1-.064.2,7.066,7.066,0,0,1,2.872-.3.63.63,0,0,0,.687-.534C307.9,179.237,307.932,175.578,303.571,173.19Z" transform="translate(-266.205 -153.958)" fill="#ff949b"/>
      <g id="Grupo_1127847" data-name="Grupo 1127847" transform="translate(0.122 0)">
        <path id="Trazado_912630" data-name="Trazado 912630" d="M341.96,213.526a.8.8,0,0,0,0,1.589A.795.795,0,0,0,341.96,213.526Z" transform="translate(-305.07 -190.912)" fill="#060606"/>
        <path id="Trazado_912631" data-name="Trazado 912631" d="M54.04,31.167a27.394,27.394,0,0,0-11.754-4.5c.212-1.721.091-5.6-4.54-8.132a11.953,11.953,0,0,0-7.374-.888,27.569,27.569,0,0,0-5.312-13.47C24,2.679,21.243-1.02,19,.268c-1.2.686-1.737,2.6-1.7,6.009a49.246,49.246,0,0,0,.527,6.23A27.232,27.232,0,0,0,11.7,9.7a.8.8,0,0,0-.485,1.513C19.5,13.866,26.047,20.8,27.189,29.589a13.46,13.46,0,0,1-8.838,1.623,18.278,18.278,0,0,1-6.8-2.594c-.48-.339-.7-.821-.542-1.173.208-.453,1.1-.74,2.631-.357a.8.8,0,0,0,.437-1.526c-2.63-.852-6.42-2.771-6.2-4.181.069-.448.244-.53.31-.56.609-.285,2.1.311,2.919.8a.8.8,0,0,0,.834-1.352A65.073,65.073,0,0,1,6.386,16.29C1.652,12.452,1.632,10.9,1.739,10.515c.057-.206.65-.6,2.49-.583A19.116,19.116,0,0,1,7,10.178a.8.8,0,0,0,.275-1.565,20.427,20.427,0,0,0-3.014-.27C1.9,8.328.535,8.915.209,10.09-.085,11.149.371,12.4,1.6,13.912a26.385,26.385,0,0,0,3.782,3.613c.788.639,1.583,1.241,2.317,1.777a2.217,2.217,0,0,0-1.4,1.838c-.352,2.288,2.484,3.825,4.159,4.65a2.353,2.353,0,0,0-.9.994,2.576,2.576,0,0,0,1.07,3.133,18.971,18.971,0,0,0,6.755,2.72,14.91,14.91,0,0,0,.193,2.325,26.461,26.461,0,0,0,.8,3.693A22.329,22.329,0,0,0,24.4,48.748c4.739,4.39,11.253,5.762,17.548,5.463a.8.8,0,0,0,.73-1,7.414,7.414,0,0,0-2.308-3.279.8.8,0,0,0-1.063,1.181,7.884,7.884,0,0,1,1.345,1.546c-6.335.082-11.433-1.62-15.161-5.068a18.361,18.361,0,0,1-3.184-3.912,15.017,15.017,0,0,0,8.458,3.8,21.812,21.812,0,0,1,5.757,1.8.8.8,0,0,0,.7-1.425,23.425,23.425,0,0,0-6.206-1.939l-.054-.008a13.532,13.532,0,0,1-4.293-1.2c-.246-1.605.526-2.26,1.777-3.012a17.174,17.174,0,0,0,4.424-3.44.8.8,0,0,0-1.208-1.032,12.032,12.032,0,0,1-1.516,1.462A11.012,11.012,0,0,0,31.26,33.4c-.182-4.357.971-6.192,1.6-6.864a9.586,9.586,0,0,0,2.4,1.732,6.512,6.512,0,0,0-.981,1.26,7.028,7.028,0,0,0-.807,3.01c-.041.371-.083.754-.148,1.14a.8.8,0,0,0,1.567.264c.073-.431.117-.838.16-1.232a5.664,5.664,0,0,1,.589-2.364,5.123,5.123,0,0,1,4.987-2.309.817.817,0,0,0,.081.014,27.012,27.012,0,0,1,12.357,4.37A.8.8,0,0,0,54.04,31.167ZM21.188,15.038c-.5-.456-1.578-1.3-1.578-1.3s-.7-4.966-.728-7.473c-.037-3.877.748-4.525.906-4.615,1.084-.621,3.488,2.763,3.978,3.453a25.918,25.918,0,0,1,5.04,12.878A15.757,15.757,0,0,0,25.012,19.5,23.212,23.212,0,0,0,21.188,15.038Zm8.485,18.429a10.317,10.317,0,0,1-3.16,7.572,3.339,3.339,0,0,0-1.483,2.744,13.342,13.342,0,0,1-4.582-5.1,13.485,13.485,0,0,1-1.265-3.773A16.81,16.81,0,0,1,19,33.175a.8.8,0,0,0-.013-.117c0-.048,0-.1,0-.144A13.171,13.171,0,0,0,20.5,33a15.373,15.373,0,0,0,7.974-2.341.794.794,0,0,0,.346-.706,22.823,22.823,0,0,0-2.5-8.205q-.233-.454-.484-.9a14.494,14.494,0,0,1,4.985-1.664,7.813,7.813,0,0,0,1.02,6.1C30.912,26.179,29.461,28.385,29.673,33.467Zm6.964-6.321a7.81,7.81,0,0,1-2.775-1.859,6.253,6.253,0,0,1-1.372-6.242,9.042,9.042,0,0,1,4.494.884c1.287.7,4.2,2.738,3.729,6.523a7.5,7.5,0,0,0-3.975.737.817.817,0,0,0-.1-.044Z" transform="translate(-0.122 0)" fill="#060606"/>
      </g>
    </g>
  </g>
</svg>
