<svg xmlns="http://www.w3.org/2000/svg" xmlns:xlink="http://www.w3.org/1999/xlink" width="118" height="118" viewBox="0 0 118 118">
  <defs>
    <filter id="Trazado_895309" x="0" y="0" width="118" height="118" filterUnits="userSpaceOnUse">
      <feOffset dy="3" input="SourceAlpha"/>
      <feGaussianBlur stdDeviation="3" result="blur"/>
      <feFlood flood-opacity="0.161"/>
      <feComposite operator="in" in2="blur"/>
      <feComposite in="SourceGraphic"/>
    </filter>
  </defs>
  <g id="Grupo_1175614" data-name="Grupo 1175614" transform="translate(-736.294 -3014)">
    <g transform="matrix(1, 0, 0, 1, 736.29, 3014)" filter="url(#Trazado_895309)">
      <g id="Trazado_895309-2" data-name="Trazado 895309" transform="translate(9 6)" fill="#e9dea8">
        <path d="M 50.00019836425781 98.49961853027344 L 49.99980163574219 98.49961853027344 C 43.45171356201172 98.49961853027344 37.10028457641602 97.21750640869141 31.1219425201416 94.68887329101562 C 25.34679985046387 92.24620819091797 20.15988540649414 88.74897766113281 15.70525741577148 84.29434967041016 C 11.25064277648926 79.83973693847656 7.753414154052734 74.65280914306641 5.310742855072021 68.87766265869141 C 2.782114267349243 62.89931869506836 1.5 56.54790496826172 1.5 49.99980545043945 C 1.5 43.45170593261719 2.782114267349243 37.10029220581055 5.310742855072021 31.1219482421875 C 7.753414154052734 25.34680557250977 11.25064277648926 20.15989112854004 15.70525741577148 15.70526218414307 C 20.15988540649414 11.25064849853516 25.34679985046387 7.753419876098633 31.1219425201416 5.310748100280762 C 37.10028457641602 2.782119750976562 43.45169830322266 1.500005483627319 49.99980163574219 1.500005483627319 C 56.54830169677734 1.500005483627319 62.89971542358398 2.782119750976562 68.87805938720703 5.310748100280762 C 74.6531982421875 7.753419876098633 79.84011077880859 11.25064849853516 84.29474639892578 15.70526218414307 C 88.74935913085938 20.15989112854004 92.24658203125 25.34680557250977 94.68925476074219 31.1219482421875 C 97.21788787841797 37.10029220581055 98.5 43.45170593261719 98.5 49.99980545043945 C 98.5 56.54790496826172 97.21788787841797 62.89931869506836 94.68925476074219 68.87766265869141 C 92.24658203125 74.65280914306641 88.74935913085938 79.83973693847656 84.29474639892578 84.29434967041016 C 79.84011077880859 88.74897766113281 74.6531982421875 92.24620819091797 68.87805938720703 94.68887329101562 C 62.89971542358398 97.21750640869141 56.54828643798828 98.49961853027344 50.00019836425781 98.49961853027344 Z" stroke="none"/>
        <path d="M 49.99980163574219 3.000007629394531 C 43.65353775024414 3.000007629394531 37.49872207641602 4.24224853515625 31.70627593994141 6.692253112792969 C 26.10993957519531 9.059295654296875 21.08327484130859 12.44857788085938 16.76592254638672 16.76593017578125 C 12.44857025146484 21.08326721191406 9.059310913085938 26.10993194580078 6.692245483398438 31.70628356933594 C 4.24224853515625 37.49871444702148 3 43.65354537963867 3 49.99980545043945 C 3 56.34606552124023 4.24224853515625 62.50089645385742 6.692245483398438 68.29332733154297 C 9.059310913085938 73.88967895507812 12.44857025146484 78.91634368896484 16.76592254638672 83.23368072509766 C 21.08327484130859 87.55103302001953 26.10993957519531 90.94031524658203 31.70627593994141 93.30735778808594 C 37.49872207641602 95.75736236572266 43.65353775024414 96.99960327148438 50.00019836425781 96.99960327148438 C 56.34646224975586 96.99960327148438 62.50129318237305 95.75736236572266 68.29372406005859 93.30735778808594 C 73.89007568359375 90.94031524658203 78.91674041748047 87.55103302001953 83.23407745361328 83.23368072509766 C 87.55142974853516 78.91634368896484 90.94070434570312 73.88967895507812 93.30775451660156 68.29332733154297 C 95.75775146484375 62.50089645385742 97 56.34606552124023 97 49.99980545043945 C 97 43.65354537963867 95.75775146484375 37.49871444702148 93.30775451660156 31.70628356933594 C 90.94070434570312 26.10993194580078 87.55142974853516 21.08326721191406 83.23407745361328 16.76593017578125 C 78.91674041748047 12.44857788085938 73.89007568359375 9.059295654296875 68.29372406005859 6.692253112792969 C 62.50129318237305 4.24224853515625 56.34646224975586 3.000007629394531 50.00019836425781 3.000007629394531 L 49.99980163574219 3.000007629394531 M 49.99980163574219 7.62939453125e-06 L 50.00019836425781 7.62939453125e-06 C 77.61433410644531 7.62939453125e-06 100 22.38566589355469 100 49.99980545043945 C 100 77.61394500732422 77.61433410644531 99.99960327148438 50.00019836425781 99.99960327148438 L 49.99980163574219 99.99960327148438 C 22.38567352294922 99.99960327148438 0 77.61394500732422 0 49.99980545043945 C 0 22.38566589355469 22.38567352294922 7.62939453125e-06 49.99980163574219 7.62939453125e-06 Z" stroke="none" fill="#fff"/>
      </g>
    </g>
    <g id="Grupo_1175612" data-name="Grupo 1175612" transform="translate(751.43 3026.904)">
      <g id="Grupo_1175610" data-name="Grupo 1175610" transform="translate(8.397 7.501)">
        <path id="Trazado_938647" data-name="Trazado 938647" d="M11.02,419.978l17.192-5.521v7.93l-14.884,4.78a3.776,3.776,0,0,1-2.308-7.19Z" transform="translate(-8.397 -356.16)" fill="#cb8a5a"/>
        <path id="Trazado_938648" data-name="Trazado 938648" d="M267.1,317.018l-36.477,11.714V320.8l34.169-10.973a3.775,3.775,0,1,1,2.308,7.188Z" transform="translate(-198.791 -266.365)" fill="#daa985"/>
        <path id="Trazado_938649" data-name="Trazado 938649" d="M363.349,94.292s-.467,4.634-9.229,4.634l-3.766-2.879,3.766-2.7,4.881-1.8Z" transform="translate(-301.368 -79.51)" fill="#6171a3"/>
        <path id="Trazado_938650" data-name="Trazado 938650" d="M353.312,45.414s11.374-2.562,12.068,8.54c.033.523-.582.918-1.207.773A45.964,45.964,0,0,0,354.12,53.6l-3.766-3.5Z" transform="translate(-301.368 -39.765)" fill="#6e7ca8"/>
        <path id="Trazado_938651" data-name="Trazado 938651" d="M223.349,18.048,211.72,35.887s5.873,4.531,8.681,4.531c.829,8.333-9.721,13.222-14.507,17.589-.241.121-.558.284-.8.414-26.654-30.928,3.7-50.772,3.7-50.772a23.675,23.675,0,0,1,2.633-.142c7.445,0,10.36,2.8,11.563,5.885A8.74,8.74,0,0,1,223.349,18.048Z" transform="translate(-167.533 -7.507)" fill="#e2796e"/>
        <path id="Trazado_938652" data-name="Trazado 938652" d="M107.309,59.2c-.881.464-1.742.963-2.587,1.471L88.4,58.4l-8.549-6.883c.006-.033.013-.064.02-.1,1.742-8.274,6.53-16.017,13.993-19.672a3.03,3.03,0,0,0,1.733-2.667v-.024C95.61,23.911,96.962,10.044,110.88,8.5,102.585,17.446,91.4,35.705,107.309,59.2Z" transform="translate(-69.611 -8.355)" fill="#de695c"/>
        <path id="Trazado_938653" data-name="Trazado 938653" d="M76.985,300.53V312.4l-7.8,1.02-3.861-4.131,2.08-10.313c1.876-.3,2-1.649,4.131-1.649a3.811,3.811,0,0,1,3.106,1.642A3.856,3.856,0,0,0,76.985,300.53Z" transform="translate(-57.171 -255.809)" fill="#99ce64"/>
        <path id="Trazado_938654" data-name="Trazado 938654" d="M57.63,374.719v2.973a18.722,18.722,0,0,1-2.934.606,30.232,30.232,0,0,1-10.088,3.239,1.689,1.689,0,0,1-1.626-2.557c1.113-1.836,1.889-2.21,2.988-6.06a1.852,1.852,0,0,0,1.5.36c2.363,0,2.505-1.682,4.866-1.682a4.039,4.039,0,0,1,3.246,1.653A4.063,4.063,0,0,0,57.63,374.719Z" transform="translate(-37.815 -319.44)" fill="#ebca5f"/>
        <path id="Trazado_938655" data-name="Trazado 938655" d="M279.416,57.02a17,17,0,0,1-6.07,8.117A20.644,20.644,0,0,1,275.4,68.25l-.4.635S260,65.737,260,55.612c0-10.623,11.959-12.765,17.716-8.175a6.622,6.622,0,0,1,2.408,6.046A22.633,22.633,0,0,1,279.416,57.02Z" transform="translate(-223.958 -39.762)" fill="#fef5e6"/>
        <path id="Trazado_938656" data-name="Trazado 938656" d="M148.01,228.98l-2.388,5.391-.862,1.944-4.919,1.453-5.644-5.232c.027-.09.056-.181.085-.269a36.168,36.168,0,0,1,2.03-4.977,3.273,3.273,0,0,1,2.424-1.745c.178-.028,1.061-.224,1.236-.264a3.146,3.146,0,0,1,3.172,1.135c.208.272.42.544.632.812A4.706,4.706,0,0,0,148.01,228.98Z" transform="translate(-116.175 -194.019)" fill="#99ce64"/>
        <path id="Trazado_938657" data-name="Trazado 938657" d="M136.952,272.611l-.862,1.944-4.64,10.472-1.142.745-6.232-5.12a17,17,0,0,0,.2-2.434,26.111,26.111,0,0,1,1.249-7.442,3.812,3.812,0,0,0,4.384-.16,3.817,3.817,0,0,1,5.345.731A3.787,3.787,0,0,0,136.952,272.611Z" transform="translate(-107.505 -232.26)" fill="#ebca5f"/>
        <path id="Trazado_938658" data-name="Trazado 938658" d="M76.349,343.464c-4.207,1.408-8.4,2.19-12.035,1.043-.938,4.212-2.574,9.8-7.153,12.7a13.15,13.15,0,0,1-9.7,1.521c-1.917-.437-2.788-2.193-1.808-3.564,8.374-11.722,10.228-14.665,10.886-18.905a3.937,3.937,0,0,0,2.788-.745,3.967,3.967,0,0,1,5.469.749,3.969,3.969,0,0,0,3.52,1.5c1.664-.737,2.534-1.129,3.548-1.636A9.586,9.586,0,0,1,76.349,343.464Z" transform="translate(-39.972 -287.87)" fill="#de695c"/>
        <path id="Trazado_938659" data-name="Trazado 938659" d="M229.861,202.539l-13.086,5.243c-15.348-5.161-8.512-19.437-8.409-19.649a0,0,0,0,0,0,0c9.393-10.134,23.075-10.439,25.294,2.365C234.379,194.626,232.254,199.113,229.861,202.539Z" transform="translate(-178.344 -155.884)" fill="#de695c"/>
        <path id="Trazado_938660" data-name="Trazado 938660" d="M175.9,252.258l-2.387.955-14.461-3.339a35.3,35.3,0,0,1,8.44-17.268C168.382,238.626,170.92,245.213,175.9,252.258Z" transform="translate(-137.474 -200.361)" fill="#d95749"/>
        <path id="Trazado_938661" data-name="Trazado 938661" d="M267.2,317.74a47.824,47.824,0,0,1-9.588,9.9c-7.355-1.755-7.269-10.728-7.269-10.728a3.812,3.812,0,0,1,3.8.476,3.813,3.813,0,0,0,5.343-.728,3.808,3.808,0,0,1,3.037-1.5C264.14,315.157,264.827,315.934,267.2,317.74Z" transform="translate(-215.686 -271.085)" fill="#b0da87"/>
        <path id="Trazado_938662" data-name="Trazado 938662" d="M166.493,338.094l-.062.052-15.458,5.962-7.057-1.344a17.638,17.638,0,0,0,1.372-4.554,44.936,44.936,0,0,1,.8-7.108l.8-1.056a3.814,3.814,0,0,1,5.382-.7,3.813,3.813,0,0,0,5.343-.726,3.781,3.781,0,0,1,1.549-1.2A62.755,62.755,0,0,0,166.493,338.094Z" transform="translate(-124.502 -281.589)" fill="#99ce64"/>
        <path id="Trazado_938663" data-name="Trazado 938663" d="M305.935,94.414c0,4.366-8.286,4.366-8.286,0S305.935,90.048,305.935,94.414Z" transform="translate(-256.213 -79.159)" fill="#e79ea8"/>
        <path id="Trazado_938664" data-name="Trazado 938664" d="M143.32,394.7c-6.506,5.351-16.077,11.071-24.453,12.45a1.6,1.6,0,0,1-1.507-2.633,20.207,20.207,0,0,0,3.444-5.2v0l2.272-2.915a3.969,3.969,0,0,1,5.51-.716,3.968,3.968,0,0,0,5.471-.743,3.966,3.966,0,0,1,5.471-.745A3.969,3.969,0,0,0,143.32,394.7Z" transform="translate(-101.392 -338.139)" fill="#ebca5f"/>
      </g>
      <g id="Grupo_1175611" data-name="Grupo 1175611" transform="translate(8.397 7.5)">
        <line id="Línea_1068" data-name="Línea 1068" x1="18.085" y2="5.808" transform="translate(35.67 55.326)" fill="none" stroke="#000" stroke-linecap="round" stroke-linejoin="round" stroke-miterlimit="10" stroke-width="2"/>
        <path id="Trazado_938665" data-name="Trazado 938665" d="M358.022,314.926l15.918-5.113A3.775,3.775,0,0,1,376.25,317l-10.13,3.253" transform="translate(-307.938 -266.35)" fill="none" stroke="#000" stroke-linecap="round" stroke-linejoin="round" stroke-miterlimit="10" stroke-width="2"/>
        <path id="Trazado_938666" data-name="Trazado 938666" d="M14.937,445.972l-1.6.516a3.775,3.775,0,1,1-2.309-7.188l7.127-2.289" transform="translate(-8.402 -375.481)" fill="none" stroke="#000" stroke-linecap="round" stroke-linejoin="round" stroke-miterlimit="10" stroke-width="2"/>
        <path id="Trazado_938667" data-name="Trazado 938667" d="M389.652,115.245c6.88-.594,7.355-4.459,7.365-4.555" transform="translate(-335.037 -95.908)" fill="none" stroke="#000" stroke-linecap="round" stroke-linejoin="round" stroke-miterlimit="10" stroke-width="2"/>
        <path id="Trazado_938668" data-name="Trazado 938668" d="M395.042,53.8a45.617,45.617,0,0,1,6.673,1c.625.145,1.239-.251,1.206-.774-.447-7.157-5.332-8.634-8.748-8.781" transform="translate(-338.909 -39.834)" fill="none" stroke="#000" stroke-linecap="round" stroke-linejoin="round" stroke-miterlimit="10" stroke-width="2"/>
        <path id="Trazado_938669" data-name="Trazado 938669" d="M135.718,35.23a22.779,22.779,0,0,1,6.008-4.331,3.031,3.031,0,0,0,1.733-2.669v-.023C143.478,22.748,145,7.5,161.381,7.5c7.445,0,10.36,2.8,11.563,5.885a8.743,8.743,0,0,1,.351,4.656" transform="translate(-117.48 -7.5)" fill="none" stroke="#000" stroke-linecap="round" stroke-linejoin="round" stroke-miterlimit="10" stroke-width="2"/>
        <path id="Trazado_938670" data-name="Trazado 938670" d="M65.322,250.7c.142-.4.3-.885.427-1.322,1.452-4.833.53-2.43,1.344-7.355.192-1.16.465-2.443.791-3.646a31.483,31.483,0,0,1,4.235-9.432" transform="translate(-57.168 -197.223)" fill="none" stroke="#000" stroke-linecap="round" stroke-linejoin="round" stroke-miterlimit="10" stroke-width="2"/>
        <path id="Trazado_938671" data-name="Trazado 938671" d="M47.541,380.993a24.563,24.563,0,0,1-2.93.527,1.689,1.689,0,0,1-1.624-2.557c1.073-1.772,1.9-2.22,2.987-6.061a1.628,1.628,0,0,0,1.526.513c2.361,0,2.492-1.835,4.843-1.835a3.976,3.976,0,0,1,.947.115" transform="translate(-37.82 -319.424)" fill="none" stroke="#000" stroke-linecap="round" stroke-linejoin="round" stroke-miterlimit="10" stroke-width="2"/>
        <path id="Trazado_938672" data-name="Trazado 938672" d="M79.852,298.959c1.876-.3,2-1.649,4.131-1.649a3.766,3.766,0,0,1,2.682,1.137" transform="translate(-69.617 -255.794)" fill="none" stroke="#000" stroke-linecap="round" stroke-linejoin="round" stroke-miterlimit="10" stroke-width="2"/>
        <path id="Trazado_938673" data-name="Trazado 938673" d="M273.347,65.1a17.174,17.174,0,0,0,6.07-8.117,22.668,22.668,0,0,0,.709-3.538,6.712,6.712,0,0,0-.351-3.179s0,0,0,0C276.953,42.544,260,42.87,260,55.574c0,3.983,2.335,7.047,5.628,9.287" transform="translate(-223.96 -39.724)" fill="none" stroke="#000" stroke-linecap="round" stroke-linejoin="round" stroke-miterlimit="10" stroke-width="2"/>
        <path id="Trazado_938674" data-name="Trazado 938674" d="M57.726,262.969a12.977,12.977,0,0,1-10.261,1.9c-1.917-.437-2.788-2.193-1.808-3.564,1.881-2.631,3.474-4.911,4.037-5.729,0-.058,4.45-6.255,5.749-9.3h0c2.231-5.289.364-6.985,2.634-14.023a36.163,36.163,0,0,1,2.03-4.977,3.273,3.273,0,0,1,2.424-1.745c.179-.028,1.059-.224,1.236-.264a3.146,3.146,0,0,1,3.172,1.135,7.449,7.449,0,0,0,1.506,1.663" transform="translate(-39.973 -194.012)" fill="none" stroke="#000" stroke-linecap="round" stroke-linejoin="round" stroke-miterlimit="10" stroke-width="2"/>
        <path id="Trazado_938675" data-name="Trazado 938675" d="M57.726,356.817a12.984,12.984,0,0,1-10.261,1.9c-1.917-.437-2.788-2.193-1.808-3.564,1.388-1.944,2.755-3.869,4.037-5.729,0-.03,4.529-6.438,5.749-9.3h0a16.273,16.273,0,0,0,1.1-3.878,3.937,3.937,0,0,0,2.788-.745,3.936,3.936,0,0,1,2.825-.741" transform="translate(-39.973 -287.859)" fill="none" stroke="#000" stroke-linecap="round" stroke-linejoin="round" stroke-miterlimit="10" stroke-width="2"/>
        <path id="Trazado_938676" data-name="Trazado 938676" d="M124.072,336.224c2.706.3,2.87-1.808,5.613-1.486" transform="translate(-107.502 -287.832)" fill="none" stroke="#000" stroke-linecap="round" stroke-linejoin="round" stroke-miterlimit="10" stroke-width="2"/>
        <path id="Trazado_938677" data-name="Trazado 938677" d="M142.11,270.035a3.811,3.811,0,0,0-3.534.573,3.812,3.812,0,0,1-4.384.16" transform="translate(-116.172 -232.252)" fill="none" stroke="#000" stroke-linecap="round" stroke-linejoin="round" stroke-miterlimit="10" stroke-width="2"/>
        <path id="Trazado_938678" data-name="Trazado 938678" d="M127.109,222.306a36.958,36.958,0,0,1-8.242,2.546,1.6,1.6,0,0,1-1.507-2.633,18.963,18.963,0,0,0,4.818-9.753c1.046-30.857,31.159-41.469,34.531-22.009,1.734,9.98-12.07,22.866-25.232,29.77" transform="translate(-101.393 -155.846)" fill="none" stroke="#000" stroke-linecap="round" stroke-linejoin="round" stroke-miterlimit="10" stroke-width="2"/>
        <path id="Trazado_938679" data-name="Trazado 938679" d="M159.052,320.59l.8-1.056a3.814,3.814,0,0,1,5.382-.7,3.813,3.813,0,0,0,5.343-.726,3.815,3.815,0,0,1,5.345-.728,3.813,3.813,0,0,0,5.343-.728,3.814,3.814,0,0,1,5.343-.726l2.374,1.8" transform="translate(-137.471 -271.077)" fill="none" stroke="#000" stroke-linecap="round" stroke-linejoin="round" stroke-miterlimit="10" stroke-width="2"/>
        <path id="Trazado_938680" data-name="Trazado 938680" d="M166.427,394.683a3.969,3.969,0,0,1-3.792-.5,3.968,3.968,0,0,0-5.471.745,3.968,3.968,0,0,1-5.471.744,3.97,3.97,0,0,0-5.51.716l-2.272,2.915" transform="translate(-124.5 -338.127)" fill="none" stroke="#000" stroke-linecap="round" stroke-linejoin="round" stroke-miterlimit="10" stroke-width="2"/>
        <path id="Trazado_938681" data-name="Trazado 938681" d="M333.6,77.22a1.972,1.972,0,0,0-3.944,0" transform="translate(-283.637 -65.556)" fill="none" stroke="#000" stroke-linecap="round" stroke-linejoin="round" stroke-miterlimit="10" stroke-width="2"/>
      </g>
    </g>
  </g>
</svg>
