<svg xmlns="http://www.w3.org/2000/svg" xmlns:xlink="http://www.w3.org/1999/xlink" width="118" height="118" viewBox="0 0 118 118">
  <defs>
    <filter id="Trazado_895309" x="0" y="0" width="118" height="118" filterUnits="userSpaceOnUse">
      <feOffset dy="3" input="SourceAlpha"/>
      <feGaussianBlur stdDeviation="3" result="blur"/>
      <feFlood flood-opacity="0.161"/>
      <feComposite operator="in" in2="blur"/>
      <feComposite in="SourceGraphic"/>
    </filter>
  </defs>
  <g id="Grupo_1175613" data-name="Grupo 1175613" transform="translate(-736.294 -3014)">
    <g transform="matrix(1, 0, 0, 1, 736.29, 3014)" filter="url(#Trazado_895309)">
      <g id="Trazado_895309-2" data-name="Trazado 895309" transform="translate(9 6)" fill="#e9dea8">
        <path d="M 50.00019836425781 98.49961853027344 L 49.99980163574219 98.49961853027344 C 43.45171356201172 98.49961853027344 37.10028457641602 97.21750640869141 31.1219425201416 94.68887329101562 C 25.34679985046387 92.24620819091797 20.15988540649414 88.74897766113281 15.70525741577148 84.29434967041016 C 11.25064277648926 79.83973693847656 7.753414154052734 74.65280914306641 5.310742855072021 68.87766265869141 C 2.782114267349243 62.89931869506836 1.5 56.54790496826172 1.5 49.99980545043945 C 1.5 43.45170593261719 2.782114267349243 37.10029220581055 5.310742855072021 31.1219482421875 C 7.753414154052734 25.34680557250977 11.25064277648926 20.15989112854004 15.70525741577148 15.70526218414307 C 20.15988540649414 11.25064849853516 25.34679985046387 7.753419876098633 31.1219425201416 5.310748100280762 C 37.10028457641602 2.782119750976562 43.45169830322266 1.500005483627319 49.99980163574219 1.500005483627319 C 56.54830169677734 1.500005483627319 62.89971542358398 2.782119750976562 68.87805938720703 5.310748100280762 C 74.6531982421875 7.753419876098633 79.84011077880859 11.25064849853516 84.29474639892578 15.70526218414307 C 88.74935913085938 20.15989112854004 92.24658203125 25.34680557250977 94.68925476074219 31.1219482421875 C 97.21788787841797 37.10029220581055 98.5 43.45170593261719 98.5 49.99980545043945 C 98.5 56.54790496826172 97.21788787841797 62.89931869506836 94.68925476074219 68.87766265869141 C 92.24658203125 74.65280914306641 88.74935913085938 79.83973693847656 84.29474639892578 84.29434967041016 C 79.84011077880859 88.74897766113281 74.6531982421875 92.24620819091797 68.87805938720703 94.68887329101562 C 62.89971542358398 97.21750640869141 56.54828643798828 98.49961853027344 50.00019836425781 98.49961853027344 Z" stroke="none"/>
        <path d="M 49.99980163574219 3.000007629394531 C 43.65353775024414 3.000007629394531 37.49872207641602 4.24224853515625 31.70627593994141 6.692253112792969 C 26.10993957519531 9.059295654296875 21.08327484130859 12.44857788085938 16.76592254638672 16.76593017578125 C 12.44857025146484 21.08326721191406 9.059310913085938 26.10993194580078 6.692245483398438 31.70628356933594 C 4.24224853515625 37.49871444702148 3 43.65354537963867 3 49.99980545043945 C 3 56.34606552124023 4.24224853515625 62.50089645385742 6.692245483398438 68.29332733154297 C 9.059310913085938 73.88967895507812 12.44857025146484 78.91634368896484 16.76592254638672 83.23368072509766 C 21.08327484130859 87.55103302001953 26.10993957519531 90.94031524658203 31.70627593994141 93.30735778808594 C 37.49872207641602 95.75736236572266 43.65353775024414 96.99960327148438 50.00019836425781 96.99960327148438 C 56.34646224975586 96.99960327148438 62.50129318237305 95.75736236572266 68.29372406005859 93.30735778808594 C 73.89007568359375 90.94031524658203 78.91674041748047 87.55103302001953 83.23407745361328 83.23368072509766 C 87.55142974853516 78.91634368896484 90.94070434570312 73.88967895507812 93.30775451660156 68.29332733154297 C 95.75775146484375 62.50089645385742 97 56.34606552124023 97 49.99980545043945 C 97 43.65354537963867 95.75775146484375 37.49871444702148 93.30775451660156 31.70628356933594 C 90.94070434570312 26.10993194580078 87.55142974853516 21.08326721191406 83.23407745361328 16.76593017578125 C 78.91674041748047 12.44857788085938 73.89007568359375 9.059295654296875 68.29372406005859 6.692253112792969 C 62.50129318237305 4.24224853515625 56.34646224975586 3.000007629394531 50.00019836425781 3.000007629394531 L 49.99980163574219 3.000007629394531 M 49.99980163574219 7.62939453125e-06 L 50.00019836425781 7.62939453125e-06 C 77.61433410644531 7.62939453125e-06 100 22.38566589355469 100 49.99980545043945 C 100 77.61394500732422 77.61433410644531 99.99960327148438 50.00019836425781 99.99960327148438 L 49.99980163574219 99.99960327148438 C 22.38567352294922 99.99960327148438 0 77.61394500732422 0 49.99980545043945 C 0 22.38566589355469 22.38567352294922 7.62939453125e-06 49.99980163574219 7.62939453125e-06 Z" stroke="none" fill="#fff"/>
      </g>
    </g>
    <g id="Grupo_1175618" data-name="Grupo 1175618" transform="translate(756.358 3031.039)">
      <g id="Grupo_1175615" data-name="Grupo 1175615" transform="translate(6.234 5.465)">
        <path id="Trazado_938682" data-name="Trazado 938682" d="M384,398.437l-4.248,2.975v1.63h12.438a2.357,2.357,0,0,0,2.231-2.374v-15.4H384Z" transform="translate(-329.385 -333.424)" fill="#fde31d"/>
        <path id="Trazado_938683" data-name="Trazado 938683" d="M58.831,341.227s-3.92-4.557-7.8-4.465c-2.831.016-5.808,1.2-5.808,5.564,9.758-3.605,9.3,4.643,13.6,4.643h.08c4.3,0,3.847-8.248,13.6-4.643,0-4.365-2.977-5.547-5.808-5.564-3.877-.092-7.8,4.465-7.8,4.465Z" transform="translate(-44.619 -292.133)" fill="#8ae897"/>
        <path id="Trazado_938684" data-name="Trazado 938684" d="M137.227,56.97c4.3,0,3.847-8.248,13.6-4.643,0-4.365-2.977-5.547-5.808-5.564-3.877-.092-7.8,4.465-7.8,4.465Z" transform="translate(-122.935 -45.271)" fill="#8ae897"/>
        <path id="Trazado_938685" data-name="Trazado 938685" d="M58.985,180.674c-4.052,0-3.914-8.248-13.672-4.643,0-4.365,2.915-5.6,5.746-5.618,3.877-.092,7.926,4.519,7.926,4.519Z" transform="translate(-44.693 -150.528)" fill="#8ae897"/>
        <path id="Trazado_938686" data-name="Trazado 938686" d="M137.227,234.53c2.217,0,3.032-6.046,10.184-3.4a4.857,4.857,0,0,0-4.589-5.032c-2.842-.067-5.594,3.185-5.594,3.185v5.249Z" transform="translate(-122.935 -197.928)" fill="#8ae897"/>
        <path id="Trazado_938687" data-name="Trazado 938687" d="M49.825,241.278c-2.614-2.614-6.949-5.492-8.324-4.117-.866.866-.044,2.907,1.335,4.952l7.076-.745C49.883,241.338,49.856,241.309,49.825,241.278Z" transform="translate(-41.146 -207.046)" fill="#fde31d"/>
        <path id="Trazado_938688" data-name="Trazado 938688" d="M52.514,268.223A23.648,23.648,0,0,0,55.3,271.6c2.614,2.614,4.5,1.988,5.349,1.142s1.455-2.692-1.055-5.259Z" transform="translate(-50.823 -233.156)" fill="#8ae897"/>
        <path id="Trazado_938689" data-name="Trazado 938689" d="M180.468,115.891c-1.375-1.375-5.71,1.5-8.324,4.117q-.242.242-.448.476l7.368.459C180.484,118.866,181.348,116.772,180.468,115.891Z" transform="translate(-152.276 -103.815)" fill="#fde31d"/>
        <path id="Trazado_938690" data-name="Trazado 938690" d="M163.525,148.807c-2.088,2.367-1.488,4.079-.694,4.873.846.846,2.735,1.472,5.349-1.142a23.7,23.7,0,0,0,2.712-3.271Z" transform="translate(-144.106 -132.137)" fill="#8ae897"/>
        <path id="Trazado_938691" data-name="Trazado 938691" d="M190.458,280.1c-1.167-1.556-5.865.682-8.822,2.9-.124.093-.241.186-.354.278l6.957,1.751C190,283.132,191.222,281.115,190.458,280.1Z" transform="translate(-160.437 -243.456)" fill="#fde31d"/>
        <path id="Trazado_938692" data-name="Trazado 938692" d="M169.662,304.431c-2.571,2.1-2.22,3.939-1.532,4.856.718.957,2.5,1.844,5.457-.375a23.757,23.757,0,0,0,3.032-2.73Z" transform="translate(-148.817 -264.612)" fill="#8ae897"/>
        <path id="Trazado_938693" data-name="Trazado 938693" d="M78.41,103.53c-2.217,0-3.032-6.046-10.184-3.4A4.857,4.857,0,0,1,72.815,95.1c2.842-.067,5.594,3.185,5.594,3.185v5.25Z" transform="translate(-64.198 -86.414)" fill="#8ae897"/>
        <path id="Trazado_938694" data-name="Trazado 938694" d="M314.014,82.59l-.724.4A3.741,3.741,0,0,1,308.21,81.5l-1.978-3.615,6.576-3.574,3.743,6.845Z" transform="translate(-266.801 -68.721)" fill="#ffceb7"/>
        <path id="Trazado_938695" data-name="Trazado 938695" d="M298.653,41.97l-7.892,4.289-1.93-6.646,5.253-2.875Z" transform="translate(-251.988 -36.739)" fill="#e6cc9f"/>
        <path id="Trazado_938696" data-name="Trazado 938696" d="M362.251,118.016a5.206,5.206,0,1,0-9.148,4.973l2.372,4.548,9.508-5.168C363.457,119.8,362.251,118.016,362.251,118.016Z" transform="translate(-306.16 -103.61)" fill="#fff"/>
        <path id="Trazado_938697" data-name="Trazado 938697" d="M382.18,162.849l-9.508,5.168,5.307,10.174,0,17.742h10.418V178.192C388.393,174.078,384.811,167.284,382.18,162.849Z" transform="translate(-323.358 -144.09)" fill="#ff6a47"/>
        <path id="Trazado_938698" data-name="Trazado 938698" d="M74.77,95.513a4.731,4.731,0,0,0-1.954-.419,4.857,4.857,0,0,0-4.589,5.032,8.9,8.9,0,0,1,3.756-.649A4.915,4.915,0,0,1,74.77,95.513Z" transform="translate(-64.199 -86.413)" fill="#54e072"/>
        <path id="Trazado_938699" data-name="Trazado 938699" d="M52.79,170.657a5.78,5.78,0,0,0-1.732-.244c-2.831.016-5.746,1.253-5.746,5.618a13.768,13.768,0,0,1,3.764-.888A4.739,4.739,0,0,1,52.79,170.657Z" transform="translate(-44.692 -150.528)" fill="#54e072"/>
        <path id="Trazado_938700" data-name="Trazado 938700" d="M52.749,337a5.771,5.771,0,0,0-1.716-.238c-2.831.016-5.808,1.2-5.808,5.564a13.712,13.712,0,0,1,3.765-.89A4.709,4.709,0,0,1,52.749,337Z" transform="translate(-44.619 -292.133)" fill="#54e072"/>
        <path id="Trazado_938701" data-name="Trazado 938701" d="M140.946,55.619a17.935,17.935,0,0,0-3.719,3.149v5.742c1.662,0,2.614-1.23,3.719-2.533Z" transform="translate(-122.935 -52.811)" fill="#54e072"/>
        <path id="Trazado_938702" data-name="Trazado 938702" d="M140.946,228.691a11.366,11.366,0,0,0-3.719,2.8v5.25c1.23,0,2.029-1.862,3.719-3.067Z" transform="translate(-122.935 -200.138)" fill="#54e072"/>
        <path id="Trazado_938703" data-name="Trazado 938703" d="M384,398.437l-4.248,2.975v1.63h12.438a2.357,2.357,0,0,0,2.231-2.374v-15.4H384Z" transform="translate(-329.385 -333.424)" fill="#fde31d"/>
        <path id="Trazado_938704" data-name="Trazado 938704" d="M381.7,216.5l0-17.742-6.128-11.749-2.9,1.575,5.307,10.175,0,17.742Z" transform="translate(-323.359 -164.654)" fill="#fd3501"/>
        <path id="Trazado_938705" data-name="Trazado 938705" d="M356.077,121.789a5.205,5.205,0,0,1,.881-6.156,5.206,5.206,0,0,0-3.856,7.643l2.372,4.548,2.922-1.588Z" transform="translate(-306.16 -103.898)" fill="#e3e9ee"/>
        <path id="Trazado_938706" data-name="Trazado 938706" d="M311.192,92.07l-2.162-3.951-2.8,1.52,1.978,3.615a3.741,3.741,0,0,0,5.079,1.487l.681-.372A4.856,4.856,0,0,1,311.192,92.07Z" transform="translate(-266.802 -80.476)" fill="#ffaa81"/>
        <path id="Trazado_938707" data-name="Trazado 938707" d="M291.411,46.573l-2.58,1.412,1.93,6.646,3.573-1.942Z" transform="translate(-251.988 -45.11)" fill="#dfba7f"/>
        <path id="Trazado_938708" data-name="Trazado 938708" d="M233.061,209.06c-.012,2.48,3.446,3.725,5.544,2.771.557-.254,1.368-.606,2.292-1l-2.515-4.014Z" transform="translate(-204.514 -181.518)" fill="#ffceb7"/>
        <path id="Trazado_938709" data-name="Trazado 938709" d="M286.682,139.157a2.246,2.246,0,0,0-3.174-.109l-6.6,6.16-8.079,3.406,2.515,4.014c3.244-1.385,7.888-3.292,7.888-3.292l7.339-7.005A2.245,2.245,0,0,0,286.682,139.157Z" transform="translate(-234.963 -123.316)" fill="#fff"/>
        <path id="Trazado_938710" data-name="Trazado 938710" d="M47.984,450.069s3.754-9.558,13.275-9.558c10.329,0,12.994,9.558,12.994,9.558Z" transform="translate(-46.967 -380.45)" fill="#e6cc9f"/>
        <path id="Trazado_938711" data-name="Trazado 938711" d="M63.185,440.629a15.519,15.519,0,0,0-1.927-.118c-9.521,0-13.275,9.558-13.275,9.558H51.7S54.983,441.72,63.185,440.629Z" transform="translate(-46.967 -380.45)" fill="#dfba7f"/>
        <path id="Trazado_938712" data-name="Trazado 938712" d="M140.946,345.619a17.935,17.935,0,0,0-3.719,3.149v5.742c1.662,0,2.614-1.23,3.719-2.533Z" transform="translate(-122.935 -299.673)" fill="#54e072"/>
      </g>
      <g id="Grupo_1175616" data-name="Grupo 1175616" transform="translate(0.133)">
        <path id="Trazado_938713" data-name="Trazado 938713" d="M314.014,82.59l-.724.4A3.741,3.741,0,0,1,308.21,81.5l-1.978-3.615,6.576-3.574,3.743,6.845" transform="translate(-260.7 -63.256)" fill="none" stroke="#000" stroke-miterlimit="10" stroke-width="2"/>
        <line id="Línea_1069" data-name="Línea 1069" y1="11.107" x2="20.435" transform="translate(38.602 7.287)" fill="none" stroke="#000" stroke-miterlimit="10" stroke-width="2"/>
        <path id="Trazado_938714" data-name="Trazado 938714" d="M298.653,41.97l-7.892,4.289-1.93-6.646,5.253-2.875Z" transform="translate(-245.887 -31.274)" fill="none" stroke="#000" stroke-miterlimit="10" stroke-width="2"/>
        <path id="Trazado_938715" data-name="Trazado 938715" d="M248.784,149.336s-7.666,3.148-10.18,4.292c-2.1.955-5.556-.29-5.544-2.771h0l13.4-5.65,6.6-6.16a2.246,2.246,0,0,1,3.174.109h0a2.246,2.246,0,0,1-.109,3.174Z" transform="translate(-198.412 -117.851)" fill="none" stroke="#000" stroke-miterlimit="10" stroke-width="2"/>
        <line id="Línea_1070" data-name="Línea 1070" x2="2.633" y2="4.203" transform="translate(39.85 30.574)" fill="none" stroke="#000" stroke-miterlimit="10" stroke-width="2"/>
        <path id="Trazado_938716" data-name="Trazado 938716" d="M415.531,280.046V311.1a2.357,2.357,0,0,1-2.231,2.374h-3.5" transform="translate(-348.865 -238.389)" fill="none" stroke="#000" stroke-miterlimit="10" stroke-width="2"/>
        <path id="Trazado_938717" data-name="Trazado 938717" d="M352.547,121.36a5.205,5.205,0,0,1,9.707-3.347,97.579,97.579,0,0,1,5.609,9.576" transform="translate(-300.064 -98.143)" fill="none" stroke="#000" stroke-miterlimit="10" stroke-width="2"/>
        <path id="Trazado_938718" data-name="Trazado 938718" d="M380.6,189.274c1.351,2.954,2.368,5.91,2.368,8.1v33.143a2.357,2.357,0,0,1-2.231,2.374H368.3v-1.63l4.248-2.975,0-30.912L366.3,185.386" transform="translate(-311.836 -157.81)" fill="none" stroke="#000" stroke-miterlimit="10" stroke-width="2"/>
        <line id="Línea_1071" data-name="Línea 1071" x2="10.42" transform="translate(60.716 57.308)" fill="none" stroke="#000" stroke-miterlimit="10" stroke-width="2"/>
        <line id="Línea_1072" data-name="Línea 1072" y1="4.932" x2="9.074" transform="translate(55.567 24.377)" fill="none" stroke="#000" stroke-miterlimit="10" stroke-width="2"/>
        <line id="Línea_1073" data-name="Línea 1073" x1="35.365" transform="translate(40.794 75.083)" fill="none" stroke="#000" stroke-miterlimit="10" stroke-width="2"/>
        <line id="Línea_1074" data-name="Línea 1074" x1="38.563" transform="translate(0 75.083)" fill="none" stroke="#000" stroke-miterlimit="10" stroke-width="2"/>
        <line id="Línea_1075" data-name="Línea 1075" y1="65.526" transform="translate(20.393)" fill="none" stroke="#000" stroke-miterlimit="10" stroke-width="2"/>
        <path id="Trazado_938719" data-name="Trazado 938719" d="M142.639,339.856a16.175,16.175,0,0,0-5.416,4.006" transform="translate(-116.831 -289.303)" fill="none" stroke="#000" stroke-miterlimit="10" stroke-width="2"/>
        <path id="Trazado_938720" data-name="Trazado 938720" d="M146.91,338.176c2.127.5,3.92,1.966,3.92,5.355-9.758-3.606-9.3,4.642-13.606,4.642" transform="translate(-116.831 -287.873)" fill="none" stroke="#000" stroke-miterlimit="10" stroke-width="2"/>
        <path id="Trazado_938721" data-name="Trazado 938721" d="M58.831,346.97c-4.3,0-3.847-8.248-13.6-4.643,0-4.365,2.977-5.547,5.808-5.564,3.877-.092,7.8,4.465,7.8,4.465" transform="translate(-38.518 -286.669)" fill="none" stroke="#000" stroke-miterlimit="10" stroke-width="2"/>
        <path id="Trazado_938722" data-name="Trazado 938722" d="M137.227,56.97c4.3,0,3.847-8.248,13.6-4.643,0-4.365-2.977-5.547-5.808-5.564-3.877-.092-7.8,4.465-7.8,4.465" transform="translate(-116.834 -39.806)" fill="none" stroke="#000" stroke-miterlimit="10" stroke-width="2"/>
        <path id="Trazado_938723" data-name="Trazado 938723" d="M58.985,180.674c-4.052,0-3.914-8.248-13.672-4.643,0-4.365,2.915-5.6,5.746-5.618,3.877-.092,7.926,4.519,7.926,4.519" transform="translate(-38.593 -145.063)" fill="none" stroke="#000" stroke-miterlimit="10" stroke-width="2"/>
        <path id="Trazado_938724" data-name="Trazado 938724" d="M137.227,234.53c2.217,0,3.032-6.046,10.184-3.4a4.857,4.857,0,0,0-4.589-5.032c-2.842-.067-5.594,3.185-5.594,3.185" transform="translate(-116.834 -192.463)" fill="none" stroke="#000" stroke-miterlimit="10" stroke-width="2"/>
        <path id="Trazado_938725" data-name="Trazado 938725" d="M45.617,245.487c2.614,2.614,4.5,1.988,5.349,1.142s1.472-2.735-1.142-5.349-6.949-5.492-8.324-4.117S43,242.873,45.617,245.487Z" transform="translate(-35.044 -201.582)" fill="none" stroke="#000" stroke-miterlimit="10" stroke-width="2"/>
        <line id="Línea_1076" data-name="Línea 1076" x1="7.051" y2="0.742" transform="translate(7.819 39.787)" fill="none" stroke="#000" stroke-miterlimit="10" stroke-width="2"/>
        <line id="Línea_1077" data-name="Línea 1077" x2="4.47" y2="4.476" transform="translate(15.923 45.047)" fill="none" stroke="#000" stroke-miterlimit="10" stroke-width="2"/>
        <path id="Trazado_938726" data-name="Trazado 938726" d="M168.18,124.217c-2.614,2.614-4.5,1.988-5.349,1.142s-1.472-2.735,1.142-5.349,6.949-5.492,8.324-4.117S170.795,121.6,168.18,124.217Z" transform="translate(-138.005 -98.351)" fill="none" stroke="#000" stroke-miterlimit="10" stroke-width="2"/>
        <line id="Línea_1078" data-name="Línea 1078" x2="7.051" y2="0.742" transform="translate(25.845 22.004)" fill="none" stroke="#000" stroke-miterlimit="10" stroke-width="2"/>
        <line id="Línea_1079" data-name="Línea 1079" x1="4.433" y2="4.476" transform="translate(20.393 27.008)" fill="none" stroke="#000" stroke-miterlimit="10" stroke-width="2"/>
        <path id="Trazado_938727" data-name="Trazado 938727" d="M173.583,287.756c-2.957,2.219-4.739,1.332-5.457.375s-1.071-2.916,1.886-5.134,7.655-4.456,8.822-2.9S176.54,285.537,173.583,287.756Z" transform="translate(-142.712 -237.992)" fill="none" stroke="#000" stroke-miterlimit="10" stroke-width="2"/>
        <line id="Línea_1080" data-name="Línea 1080" x2="6.875" y2="1.73" transform="translate(27.128 45.33)" fill="none" stroke="#000" stroke-miterlimit="10" stroke-width="2"/>
        <path id="Trazado_938728" data-name="Trazado 938728" d="M97.852,60.244s0-5.393-6.88-5.393" transform="translate(-77.46 -46.692)" fill="none" stroke="#000" stroke-miterlimit="10" stroke-width="2"/>
        <path id="Trazado_938729" data-name="Trazado 938729" d="M137.227,24.244s0-5.393,6.88-5.393" transform="translate(-116.834 -16.047)" fill="none" stroke="#000" stroke-miterlimit="10" stroke-width="2"/>
        <path id="Trazado_938730" data-name="Trazado 938730" d="M47.984,450.069s3.754-9.558,13.275-9.558c10.329,0,12.994,9.558,12.994,9.558" transform="translate(-40.866 -374.985)" fill="none" stroke="#000" stroke-miterlimit="10" stroke-width="2"/>
        <path id="Trazado_938731" data-name="Trazado 938731" d="M78.41,103.53c-2.217,0-3.032-6.046-10.184-3.4A4.857,4.857,0,0,1,72.815,95.1c2.842-.067,5.594,3.185,5.594,3.185" transform="translate(-58.097 -80.949)" fill="none" stroke="#000" stroke-miterlimit="10" stroke-width="2"/>
      </g>
      <g id="Grupo_1175617" data-name="Grupo 1175617" transform="translate(17.038 70.899)">
        <line id="Línea_1081" data-name="Línea 1081" x2="2.231" fill="none" stroke="#fff" stroke-miterlimit="10" stroke-width="2"/>
        <line id="Línea_1082" data-name="Línea 1082" x2="2.231" transform="translate(4.462)" fill="none" stroke="#fff" stroke-miterlimit="10" stroke-width="2"/>
      </g>
    </g>
  </g>
</svg>
