<svg xmlns="http://www.w3.org/2000/svg" width="72" height="72" viewBox="0 0 72 72">
  <g id="Grupo_1184987" data-name="Grupo 1184987" transform="translate(-186.538 -5286)">
    <circle id="Elipse_11769" data-name="Elipse 11769" cx="36" cy="36" r="36" transform="translate(186.538 5286)" fill="#0b5b52"/>
    <path id="Trazado_952018" data-name="Trazado 952018" d="M9.8,23H5.836V10.391L1.945,11.527v-3l7.488-2.59H9.8Zm16.992-6.973a8.147,8.147,0,0,1-1.553,5.332,5.366,5.366,0,0,1-4.377,1.875,5.4,5.4,0,0,1-4.406-1.887,8.135,8.135,0,0,1-1.559-5.32V12.91a8.147,8.147,0,0,1,1.553-5.332A5.379,5.379,0,0,1,20.836,5.7,5.381,5.381,0,0,1,25.23,7.59a8.155,8.155,0,0,1,1.559,5.332ZM22.84,12.406a6.085,6.085,0,0,0-.48-2.748,1.606,1.606,0,0,0-1.523-.908,1.568,1.568,0,0,0-1.482.844,5.733,5.733,0,0,0-.5,2.555v4.359a6.131,6.131,0,0,0,.48,2.795,1.612,1.612,0,0,0,1.523.885,1.59,1.59,0,0,0,1.488-.861,5.853,5.853,0,0,0,.492-2.7ZM34.828,9.219a3.349,3.349,0,0,1,1.031-2.555,3.866,3.866,0,0,1,2.766-.973,3.871,3.871,0,0,1,2.777.967,3.438,3.438,0,0,1,1.02,2.619v.844a3.331,3.331,0,0,1-1.02,2.543,3.852,3.852,0,0,1-2.754.961,3.957,3.957,0,0,1-2.771-.955,3.365,3.365,0,0,1-1.049-2.619Zm2.543.9a1.417,1.417,0,0,0,.34.984,1.2,1.2,0,0,0,.938.378q1.23,0,1.23-1.56v-.7a1.493,1.493,0,0,0-.328-1,1.143,1.143,0,0,0-.926-.39,1.168,1.168,0,0,0-.914.378,1.486,1.486,0,0,0-.34,1.031Zm5.566,8.7a3.316,3.316,0,0,1,1.037-2.555,3.9,3.9,0,0,1,2.76-.961,3.941,3.941,0,0,1,2.777.949A3.42,3.42,0,0,1,50.543,18.9v.82a3.345,3.345,0,0,1-1.02,2.555,3.869,3.869,0,0,1-2.766.961,3.957,3.957,0,0,1-2.771-.955,3.365,3.365,0,0,1-1.049-2.619Zm2.531.9a1.386,1.386,0,0,0,.375.961,1.188,1.188,0,0,0,.914.413,1.078,1.078,0,0,0,1.23-1.071l.012-1.2a1.434,1.434,0,0,0-.34-1,1.323,1.323,0,0,0-1.828-.023,1.415,1.415,0,0,0-.363.961ZM39.4,21.723l-1.84-.926L45.891,7.461l1.84.926Z" transform="translate(196.538 5308)" fill="#fff"/>
  </g>
</svg>
