<svg xmlns="http://www.w3.org/2000/svg" xmlns:xlink="http://www.w3.org/1999/xlink" width="94.049" height="94.049" viewBox="0 0 94.049 94.049">
  <defs>
    <filter id="plant-growing-soil-with-sun-shining-it" x="0" y="0" width="94.049" height="94.049" filterUnits="userSpaceOnUse">
      <feOffset dy="3" input="SourceAlpha"/>
      <feGaussianBlur stdDeviation="3" result="blur"/>
      <feFlood flood-opacity="0.161"/>
      <feComposite operator="in" in2="blur"/>
      <feComposite in="SourceGraphic"/>
    </filter>
  </defs>
  <g id="Grupo_1177689" data-name="Grupo 1177689" transform="translate(9 6)">
    <g transform="matrix(1, 0, 0, 1, -9, -6)" filter="url(#plant-growing-soil-with-sun-shining-it)">
      <g id="plant-growing-soil-with-sun-shining-it-2" data-name="plant-growing-soil-with-sun-shining-it" transform="translate(9 6)" fill="#f7f1d8">
        <path d="M 38.024658203125 73.54931640625 C 33.22776412963867 73.54931640625 28.57567024230957 72.61039733886719 24.19762229919434 70.75864410400391 C 19.96767044067383 68.96952056884766 16.16825866699219 66.40771484375 12.90492916107178 63.14438629150391 C 9.641599655151367 59.88105773925781 7.079799175262451 56.08164596557617 5.290681838989258 51.85169219970703 C 3.438916921615601 47.47364807128906 2.499999284744263 42.82156372070312 2.499999284744263 38.024658203125 C 2.499999284744263 33.22776412963867 3.438916921615601 28.57567024230957 5.290681838989258 24.19762229919434 C 7.079799175262451 19.96767044067383 9.641599655151367 16.16825866699219 12.90492916107178 12.90492916107178 C 16.16825866699219 9.641599655151367 19.96767044067383 7.079799175262451 24.19762229919434 5.290681838989258 C 28.57567024230957 3.438916921615601 33.22776412963867 2.499999284744263 38.024658203125 2.499999284744263 C 42.82155227661133 2.499999284744263 47.4736328125 3.438916921615601 51.85168075561523 5.290681838989258 C 56.08163452148438 7.079799175262451 59.88104629516602 9.641599655151367 63.14437484741211 12.90492916107178 C 66.40770721435547 16.16825866699219 68.96952056884766 19.96767044067383 70.75863647460938 24.19762229919434 C 72.61039733886719 28.57567024230957 73.54931640625 33.22776412963867 73.54931640625 38.024658203125 C 73.54931640625 42.82156372070312 72.61039733886719 47.47364807128906 70.75863647460938 51.85169219970703 C 68.96952056884766 56.08164596557617 66.40770721435547 59.88105773925781 63.14437484741211 63.14438629150391 C 59.88104629516602 66.40771484375 56.08163452148438 68.96952056884766 51.85168075561523 70.75864410400391 C 47.4736328125 72.61039733886719 42.82155227661133 73.54931640625 38.024658203125 73.54931640625 Z" stroke="none"/>
        <path d="M 38.024658203125 5 C 33.56415939331055 5 29.23973083496094 5.872474670410156 25.17150115966797 7.593185424804688 C 21.23954391479492 9.256271362304688 17.70724487304688 11.63816070556641 14.67270278930664 14.67270278930664 C 11.63816070556641 17.70724487304688 9.256271362304688 21.23954391479492 7.593185424804688 25.17150115966797 C 5.872474670410156 29.23973083496094 5 33.56415939331055 5 38.024658203125 C 5 42.48515701293945 5.872474670410156 46.80958557128906 7.593185424804688 50.87781524658203 C 9.256271362304688 54.80977249145508 11.63816070556641 58.34207153320312 14.67270278930664 61.37661743164062 C 17.70724487304688 64.41115570068359 21.23954391479492 66.79304504394531 25.17150115966797 68.45613098144531 C 29.23973083496094 70.17684173583984 33.56415939331055 71.04931640625 38.024658203125 71.04931640625 C 42.48515701293945 71.04931640625 46.80958557128906 70.17684173583984 50.87779998779297 68.45613098144531 C 54.80976104736328 66.79304504394531 58.34207153320312 64.41115570068359 61.37661743164062 61.37661743164062 C 64.41115570068359 58.34207153320312 66.79304504394531 54.80977249145508 68.45613098144531 50.87781524658203 C 70.17684173583984 46.80958557128906 71.04931640625 42.48515701293945 71.04931640625 38.024658203125 C 71.04931640625 33.56415939331055 70.17684173583984 29.23973083496094 68.45613098144531 25.17150115966797 C 66.79304504394531 21.23954391479492 64.41115570068359 17.70724487304688 61.37661743164062 14.67270278930664 C 58.34207153320312 11.63816070556641 54.80976104736328 9.256271362304688 50.87779998779297 7.593185424804688 C 46.80958557128906 5.872474670410156 42.48515701293945 5 38.024658203125 5 M 38.024658203125 0 C 59.02508544921875 0 76.04931640625 17.02421569824219 76.04931640625 38.024658203125 C 76.04931640625 59.02510070800781 59.02508544921875 76.04931640625 38.024658203125 76.04931640625 C 17.02421569824219 76.04931640625 0 59.02510070800781 0 38.024658203125 C 0 17.02421569824219 17.02421569824219 0 38.024658203125 0 Z" stroke="none" fill="#66b4ab"/>
      </g>
    </g>
    <g id="Grupo_1177617" data-name="Grupo 1177617" transform="translate(10.604 12.104)">
      <g id="Grupo_1177615" data-name="Grupo 1177615" transform="translate(7.5 5.871)">
        <path id="Trazado_944732" data-name="Trazado 944732" d="M125.447,26.569a4.02,4.02,0,0,1-3.914,5.88,4.014,4.014,0,0,1-2.628,4.429L94.487,22.708c-.012-.122-.017-.246-.017-.371a4.017,4.017,0,0,1,2.03-3.491.313.313,0,0,0,.109-.443,4.016,4.016,0,0,1,3.378-6.2.317.317,0,0,0,.319-.34A4.016,4.016,0,0,1,106.768,8.4a.315.315,0,0,0,.484-.116,4.021,4.021,0,0,1,7.375,0,.314.314,0,0,0,.478.121,4.016,4.016,0,0,1,6.469,3.46.317.317,0,0,0,.323.338,4.017,4.017,0,0,1,3.551,5.9.714.714,0,0,0,.226.926,4.016,4.016,0,0,1,0,6.612A.715.715,0,0,0,125.447,26.569Z" transform="translate(-87.568 -5.871)" fill="#fbf198"/>
        <path id="Trazado_944733" data-name="Trazado 944733" d="M119.437,222.388a6.247,6.247,0,0,1-.331,2.421,3.963,3.963,0,0,1-1.1.224,4.006,4.006,0,0,1-3.023-1.121,4.018,4.018,0,0,1-7.675,0,4.016,4.016,0,0,1-6.755-3.532,4.016,4.016,0,0,1-3.537-6.462,4.017,4.017,0,0,1-2.323-3.278A9.963,9.963,0,0,1,98.218,210a9.426,9.426,0,0,1,6.771,2.739,10.138,10.138,0,0,1,1.809-.161,9.742,9.742,0,0,1,5.017,1.358,8.339,8.339,0,0,1,2.663,2.5,7.084,7.084,0,0,1,3,1.618A5.859,5.859,0,0,1,119.437,222.388Z" transform="translate(-87.77 -193.802)" fill="#f8ea69"/>
        <path id="Trazado_944734" data-name="Trazado 944734" d="M180.083,80.445a11.481,11.481,0,0,1-4.189,8.88c-10.7,1.127-18.814-9.088-18.814-9.088a11.5,11.5,0,0,1,23,.209Z" transform="translate(-145.209 -63.937)" fill="#f8ea69"/>
        <path id="Trazado_944735" data-name="Trazado 944735" d="M175.866,220.349a11.5,11.5,0,0,1-18.816-8.88c0-.07,0-.14,0-.209A9.229,9.229,0,0,1,162.4,213.9a10.138,10.138,0,0,1,1.809-.161,9.742,9.742,0,0,1,5.017,1.358,8.339,8.339,0,0,1,2.663,2.5,7.084,7.084,0,0,1,3,1.618A6.309,6.309,0,0,1,175.866,220.349Z" transform="translate(-145.182 -194.961)" fill="#f1e12b"/>
        <path id="Trazado_944736" data-name="Trazado 944736" d="M143.3,253.727v.525c0,2.109-2.028,3.818-4.531,3.818H127.948c-9.847-5.582-1.3-14.028-1.3-14.028a6.318,6.318,0,0,1,3.69,2.761,7.573,7.573,0,0,1,2.713-.5,6.588,6.588,0,0,1,6.146,3.62C141.5,250.107,143.3,251.74,143.3,253.727Z" transform="translate(-114.025 -225.141)" fill="#a4e7ff"/>
        <path id="Trazado_944737" data-name="Trazado 944737" d="M21.423,254.443H12.031c-2.5,0-4.531-1.709-4.531-3.818V250.1a4.113,4.113,0,0,1,3.962-3.786c-.511-3.432,2.7-6.211,6.487-6.211a7.639,7.639,0,0,1,2.176.313C19.2,243.357,18,249.394,21.423,254.443Z" transform="translate(-7.5 -221.514)" fill="#5ad6ff"/>
        <path id="Trazado_944738" data-name="Trazado 944738" d="M193.484,160.617a2.488,2.488,0,1,1-2.426-1.93A2.22,2.22,0,0,1,193.484,160.617Z" transform="translate(-174.26 -146.56)" fill="#ffa1ac"/>
        <path id="Trazado_944739" data-name="Trazado 944739" d="M354.244,160.535a2.488,2.488,0,1,0,2.424-1.932A2.22,2.22,0,0,0,354.244,160.535Z" transform="translate(-326.726 -146.482)" fill="#ffa1ac"/>
        <path id="Trazado_944740" data-name="Trazado 944740" d="M276.792,153.335c0-1.469-1.065-1.606-2.378-1.606s-2.377.139-2.376,1.608a2.392,2.392,0,1,0,4.754,0Z" transform="translate(-251.044 -140.154)" fill="#495560"/>
        <path id="Trazado_944741" data-name="Trazado 944741" d="M52.676,473.568a4.7,4.7,0,0,1,.743-1.688.528.528,0,0,1,.9,0,4.7,4.7,0,0,1,.743,1.688,1.2,1.2,0,1,1-2.39,0Z" transform="translate(-49.091 -434.663)" fill="#5ad6ff"/>
        <path id="Trazado_944742" data-name="Trazado 944742" d="M120.44,450.981a4.7,4.7,0,0,1,.743-1.688.528.528,0,0,1,.9,0,4.7,4.7,0,0,1,.743,1.688,1.2,1.2,0,1,1-2.39,0Z" transform="translate(-111.477 -413.869)" fill="#a4e7ff"/>
        <path id="Trazado_944743" data-name="Trazado 944743" d="M120.44,383.216a4.7,4.7,0,0,1,.743-1.688.528.528,0,0,1,.9,0,4.7,4.7,0,0,1,.743,1.688,1.2,1.2,0,1,1-2.39,0Z" transform="translate(-111.477 -351.481)" fill="#00c5fd"/>
        <path id="Trazado_944744" data-name="Trazado 944744" d="M188.205,466.039a4.7,4.7,0,0,1,.743-1.688.528.528,0,0,1,.9,0,4.7,4.7,0,0,1,.743,1.688,1.2,1.2,0,1,1-2.39,0Z" transform="translate(-173.864 -427.732)" fill="#5ad6ff"/>
        <path id="Trazado_944745" data-name="Trazado 944745" d="M255.97,415.222a4.7,4.7,0,0,1,.743-1.688.528.528,0,0,1,.9,0,4.7,4.7,0,0,1,.743,1.688,1.2,1.2,0,1,1-2.39,0Z" transform="translate(-236.251 -380.947)" fill="#5ad6ff"/>
        <path id="Trazado_944746" data-name="Trazado 944746" d="M316.2,473.568a4.7,4.7,0,0,1,.743-1.688.528.528,0,0,1,.9,0,4.7,4.7,0,0,1,.743,1.688,1.2,1.2,0,1,1-2.39,0Z" transform="translate(-291.706 -434.663)" fill="#a4e7ff"/>
      </g>
      <g id="Grupo_1177616" data-name="Grupo 1177616" transform="translate(7.5 6.168)">
        <path id="Trazado_944747" data-name="Trazado 944747" d="M95.409,28.661a4.017,4.017,0,0,1,1.091-6.07.313.313,0,0,0,.108-.443,4.017,4.017,0,0,1,3.379-6.2.318.318,0,0,0,.319-.34,4.016,4.016,0,0,1,6.462-3.462.315.315,0,0,0,.484-.116,4.019,4.019,0,0,1,7.375,0,.313.313,0,0,0,.478.121,4.016,4.016,0,0,1,6.469,3.459.317.317,0,0,0,.319.339,4.016,4.016,0,0,1,3.554,5.9.715.715,0,0,0,.227.926,4.016,4.016,0,0,1,0,6.612.715.715,0,0,0-.227.926,4.016,4.016,0,0,1-3.914,5.88,4.025,4.025,0,0,1-5.287,4.436" transform="translate(-87.568 -9.612)" fill="none" stroke="#000" stroke-linecap="round" stroke-linejoin="round" stroke-miterlimit="10" stroke-width="1.5"/>
        <path id="Trazado_944748" data-name="Trazado 944748" d="M299.37,424.6a3.955,3.955,0,0,0,.42,0" transform="translate(-276.207 -391.668)" fill="none" stroke="#000" stroke-linecap="round" stroke-linejoin="round" stroke-miterlimit="10" stroke-width="1.5"/>
        <path id="Trazado_944749" data-name="Trazado 944749" d="M159.487,108.515a11.643,11.643,0,0,0-3.631,10.894" transform="translate(-143.882 -100.666)" fill="none" stroke="#000" stroke-linecap="round" stroke-linejoin="round" stroke-miterlimit="10" stroke-width="1.5"/>
        <path id="Trazado_944750" data-name="Trazado 944750" d="M239.89,92.708A11.654,11.654,0,1,0,228.663,72.29" transform="translate(-211.112 -65.863)" fill="none" stroke="#000" stroke-linecap="round" stroke-linejoin="round" stroke-miterlimit="10" stroke-width="1.5"/>
        <path id="Trazado_944751" data-name="Trazado 944751" d="M21.651,258.233h-9.62c-2.5,0-4.531-1.709-4.531-3.818v-.525a4.113,4.113,0,0,1,3.962-3.786c-.5-3.39,2.65-6.211,6.487-6.211a6.761,6.761,0,0,1,5.866,3.074c3.5-1.341,7.561.13,8.859,3.124,2.2.173,4.105,1.734,4.105,3.8v.525a3.354,3.354,0,0,1-.6,1.9,4.733,4.733,0,0,1-3.929,1.916h-3.1" transform="translate(-7.5 -225.3)" fill="none" stroke="#000" stroke-linecap="round" stroke-linejoin="round" stroke-miterlimit="10" stroke-width="1.5"/>
        <line id="Línea_1083" data-name="Línea 1083" x1="3.59" transform="translate(16.586 32.934)" fill="none" stroke="#000" stroke-linecap="round" stroke-linejoin="round" stroke-miterlimit="10" stroke-width="1.5"/>
        <path id="Trazado_944752" data-name="Trazado 944752" d="M276.789,157.124c0-1.469-1.065-1.606-2.378-1.606s-2.377.139-2.376,1.608a2.392,2.392,0,1,0,4.754,0Z" transform="translate(-251.042 -143.939)" fill="none" stroke="#000" stroke-linecap="round" stroke-linejoin="round" stroke-miterlimit="10" stroke-width="1.5"/>
        <path id="Trazado_944753" data-name="Trazado 944753" d="M224.744,146.934a1.154,1.154,0,0,0-2.308,0" transform="translate(-205.379 -134.974)" fill="none" stroke="#000" stroke-linecap="round" stroke-linejoin="round" stroke-miterlimit="10" stroke-width="1.5"/>
        <path id="Trazado_944754" data-name="Trazado 944754" d="M352.432,146.869a1.154,1.154,0,1,1,2.308,0" transform="translate(-325.058 -134.913)" fill="none" stroke="#000" stroke-linecap="round" stroke-linejoin="round" stroke-miterlimit="10" stroke-width="1.5"/>
        <path id="Trazado_944755" data-name="Trazado 944755" d="M52.673,469.828a4.7,4.7,0,0,1,.743-1.688.528.528,0,0,1,.9,0,4.7,4.7,0,0,1,.743,1.688,1.2,1.2,0,1,1-2.39,0Z" transform="translate(-49.088 -431.517)" fill="none" stroke="#000" stroke-linecap="round" stroke-linejoin="round" stroke-miterlimit="10" stroke-width="1.5"/>
        <path id="Trazado_944756" data-name="Trazado 944756" d="M120.438,456.659a4.7,4.7,0,0,1,.743-1.688.528.528,0,0,1,.9,0,4.7,4.7,0,0,1,.743,1.688,1.2,1.2,0,1,1-2.39,0Z" transform="translate(-111.475 -419.393)" fill="none" stroke="#000" stroke-linecap="round" stroke-linejoin="round" stroke-miterlimit="10" stroke-width="1.5"/>
        <path id="Trazado_944757" data-name="Trazado 944757" d="M120.438,387.006a4.7,4.7,0,0,1,.743-1.688.528.528,0,0,1,.9,0,4.7,4.7,0,0,1,.743,1.688,1.2,1.2,0,1,1-2.39,0Z" transform="translate(-111.475 -355.267)" fill="none" stroke="#000" stroke-linecap="round" stroke-linejoin="round" stroke-miterlimit="10" stroke-width="1.5"/>
        <path id="Trazado_944758" data-name="Trazado 944758" d="M188.2,462.3a4.7,4.7,0,0,1,.743-1.688.528.528,0,0,1,.9,0,4.7,4.7,0,0,1,.743,1.688,1.2,1.2,0,1,1-2.39,0Z" transform="translate(-173.862 -424.585)" fill="none" stroke="#000" stroke-linecap="round" stroke-linejoin="round" stroke-miterlimit="10" stroke-width="1.5"/>
        <path id="Trazado_944759" data-name="Trazado 944759" d="M255.967,417.123a4.7,4.7,0,0,1,.743-1.688.528.528,0,0,1,.9,0,4.7,4.7,0,0,1,.743,1.688,1.2,1.2,0,1,1-2.39,0Z" transform="translate(-236.249 -382.994)" fill="none" stroke="#000" stroke-linecap="round" stroke-linejoin="round" stroke-miterlimit="10" stroke-width="1.5"/>
        <path id="Trazado_944760" data-name="Trazado 944760" d="M316.2,469.828a4.7,4.7,0,0,1,.743-1.688.528.528,0,0,1,.9,0,4.7,4.7,0,0,1,.743,1.688,1.2,1.2,0,1,1-2.39,0Z" transform="translate(-291.703 -431.517)" fill="none" stroke="#000" stroke-linecap="round" stroke-linejoin="round" stroke-miterlimit="10" stroke-width="1.5"/>
      </g>
    </g>
  </g>
</svg>
