<svg xmlns="http://www.w3.org/2000/svg" xmlns:xlink="http://www.w3.org/1999/xlink" width="85" height="46.018" viewBox="0 0 85 46.018">
  <defs>
    <clipPath id="clip-path">
      <rect id="Rectángulo_435513" data-name="Rectángulo 435513" width="85" height="46.018" fill="none"/>
    </clipPath>
  </defs>
  <g id="Grupo_1177607" data-name="Grupo 1177607" transform="translate(0 1)">
    <g id="Grupo_1177606" data-name="Grupo 1177606" transform="translate(0 -1)" clip-path="url(#clip-path)">
      <rect id="Rectángulo_435510" data-name="Rectángulo 435510" width="66.442" height="35.904" rx="0.5" transform="translate(0 10.114)" fill="#f42525"/>
      <path id="Trazado_944704" data-name="Trazado 944704" d="M20.962,47.092a.775.775,0,0,1,.081.172l1.429,3.76a.16.16,0,0,1-.24.188L18.807,48.84a1.379,1.379,0,0,1-.141-.105c0-.006-.005-.006-.007,0a1.362,1.362,0,0,1-.141.105L15.09,51.212a.16.16,0,0,1-.24-.188l1.429-3.761a.707.707,0,0,1,.083-.172c.013-.008.018-.015.011-.015a1.3,1.3,0,0,1-.154-.09l-3.495-2.211a.16.16,0,0,1,.086-.3l4.269.006a.16.16,0,0,0,.153-.113l1.176-3.842a.16.16,0,0,1,.3-.005l1.309,3.8a1.378,1.378,0,0,1,.051.165s0,.005,0,0,.082,0,.175,0l4.266-.006a.16.16,0,0,1,.085.3l-3.5,2.211c-.078.049-.145.09-.149.09s0,.007.014.015" transform="translate(-8.408 -26.868)" fill="#fff"/>
      <path id="Trazado_944705" data-name="Trazado 944705" d="M70.329,72.276a.573.573,0,0,1-.01-.317l.182-.594c.027-.088.074-.089.1,0l.2.584a.58.58,0,0,1,0,.317l-.175.529c-.029.088-.079.089-.112,0Z" transform="translate(-46.733 -47.395)" fill="#fff"/>
      <path id="Trazado_944706" data-name="Trazado 944706" d="M70.5,73.8a.649.649,0,0,1,.307-.094h.685c.092,0,.1.04.026.09l-.558.352a.658.658,0,0,1-.309.086l-.61-.011c-.092,0-.1-.045-.028-.1Z" transform="translate(-46.506 -48.997)" fill="#fff"/>
      <path id="Trazado_944707" data-name="Trazado 944707" d="M70.949,74.346a.619.619,0,0,1,.2.249l.225.585c.033.086,0,.114-.078.061l-.539-.371a.606.606,0,0,1-.194-.253l-.186-.528c-.031-.087.007-.117.084-.066Z" transform="translate(-46.775 -49.19)" fill="#fff"/>
      <path id="Trazado_944708" data-name="Trazado 944708" d="M68.553,73.8a.651.651,0,0,0-.307-.093h-.681c-.092,0-.1.04-.026.09l.554.352a.659.659,0,0,0,.309.087l.613-.011c.092,0,.1-.045.028-.1Z" transform="translate(-44.862 -48.997)" fill="#fff"/>
      <path id="Trazado_944709" data-name="Trazado 944709" d="M69.262,74.346a.611.611,0,0,0-.2.249l-.222.584c-.033.086,0,.114.078.061l.536-.371a.611.611,0,0,0,.194-.253l.186-.528c.031-.087-.007-.117-.084-.066Z" transform="translate(-45.753 -49.19)" fill="#fff"/>
      <path id="Trazado_944710" data-name="Trazado 944710" d="M56.508,85.986a.577.577,0,0,1,.085-.306l.357-.526c.052-.076.1-.063.1.029l.019.613a.58.58,0,0,1-.092.3l-.33.464c-.053.075-.1.061-.107-.031Z" transform="translate(-37.563 -56.573)" fill="#fff"/>
      <path id="Trazado_944711" data-name="Trazado 944711" d="M56.455,87.775a.662.662,0,0,1,.321-.008l.654.178c.089.024.09.066,0,.093l-.646.2a.654.654,0,0,1-.321,0l-.581-.173c-.089-.026-.089-.071,0-.1Z" transform="translate(-37.104 -58.332)" fill="#fff"/>
      <path id="Trazado_944712" data-name="Trazado 944712" d="M56.98,88.017a.584.584,0,0,1,.118.3l.035.617c.005.092-.038.109-.1.037l-.4-.492a.589.589,0,0,1-.111-.3l-.02-.552c0-.092.043-.11.1-.04Z" transform="translate(-37.564 -58.192)" fill="#fff"/>
      <path id="Trazado_944713" data-name="Trazado 944713" d="M54.856,86.885a.636.636,0,0,0-.27-.173l-.654-.18c-.089-.024-.112.012-.051.081l.424.479a.64.64,0,0,0,.274.167l.588.149c.089.023.114-.016.055-.087Z" transform="translate(-35.795 -57.517)" fill="#fff"/>
      <path id="Trazado_944714" data-name="Trazado 944714" d="M54.647,88.072a.629.629,0,0,0-.262.183l-.392.508c-.056.073-.031.108.056.078l.632-.217a.634.634,0,0,0,.258-.189l.34-.46c.055-.074.028-.112-.06-.084Z" transform="translate(-35.872 -58.419)" fill="#fff"/>
      <path id="Trazado_944715" data-name="Trazado 944715" d="M73.376,56.185a.6.6,0,0,1,.176-.266l.517-.408c.072-.057.11-.032.083.057l-.179.59a.6.6,0,0,1-.182.261l-.469.356c-.074.056-.114.028-.09-.06Z" transform="translate(-48.675 -36.881)" fill="#fff"/>
      <path id="Trazado_944716" data-name="Trazado 944716" d="M73.454,58a.656.656,0,0,1,.309.084l.564.351c.078.049.067.089-.025.089l-.678,0a.656.656,0,0,1-.308-.091l-.5-.324c-.077-.05-.064-.094.027-.1Z" transform="translate(-48.373 -38.557)" fill="#fff"/>
      <path id="Trazado_944717" data-name="Trazado 944717" d="M73.645,58a.576.576,0,0,1,.021.317l-.161.6c-.024.089-.07.092-.1.005l-.222-.578a.584.584,0,0,1-.013-.317l.154-.532c.026-.089.076-.091.111-.006Z" transform="translate(-48.627 -38.173)" fill="#fff"/>
      <path id="Trazado_944718" data-name="Trazado 944718" d="M72.366,56.32a.611.611,0,0,0-.2-.244l-.561-.353c-.078-.049-.112-.02-.075.065l.247.57a.612.612,0,0,0,.211.24l.51.305c.079.047.115.016.081-.069Z" transform="translate(-47.536 -37.026)" fill="#fff"/>
      <path id="Trazado_944719" data-name="Trazado 944719" d="M71.2,58.091a.645.645,0,0,0-.305.1l-.54.376c-.076.053-.062.093.03.089l.675-.029a.66.66,0,0,0,.3-.106l.476-.345c.075-.054.06-.1-.032-.1Z" transform="translate(-46.733 -38.608)" fill="#fff"/>
      <path id="Trazado_944720" data-name="Trazado 944720" d="M65.268,40.2a.582.582,0,0,1,.088-.305l.363-.524c.052-.076.1-.063.1.03l.011.613a.581.581,0,0,1-.1.3l-.335.462c-.054.075-.1.06-.106-.032Z" transform="translate(-43.387 -26.138)" fill="#fff"/>
      <path id="Trazado_944721" data-name="Trazado 944721" d="M65.2,42a.663.663,0,0,1,.321,0l.651.184c.089.025.089.067,0,.092l-.644.186a.663.663,0,0,1-.321,0l-.582-.177c-.088-.027-.088-.071,0-.1Z" transform="translate(-42.918 -27.904)" fill="#fff"/>
      <path id="Trazado_944722" data-name="Trazado 944722" d="M65.734,42.229a.593.593,0,0,1,.115.3l.03.617c0,.092-.038.108-.1.036l-.393-.5a.588.588,0,0,1-.108-.3l-.013-.549c0-.092.044-.109.1-.038Z" transform="translate(-43.388 -27.751)" fill="#fff"/>
      <path id="Trazado_944723" data-name="Trazado 944723" d="M63.628,41.074a.634.634,0,0,0-.268-.175l-.651-.187c-.089-.025-.112.011-.051.08l.416.479a.642.642,0,0,0,.272.17l.589.156c.089.024.114-.015.055-.086Z" transform="translate(-41.629 -27.058)" fill="#fff"/>
      <path id="Trazado_944724" data-name="Trazado 944724" d="M63.38,42.281a.634.634,0,0,0-.264.181l-.4.5c-.057.072-.033.108.055.079l.634-.211a.633.633,0,0,0,.26-.186l.344-.455c.056-.074.029-.112-.059-.084Z" transform="translate(-41.672 -27.982)" fill="#fff"/>
      <rect id="Rectángulo_435511" data-name="Rectángulo 435511" width="66.858" height="36.142" rx="0.5" transform="translate(18.142 0.003)" fill="#ff3b45"/>
      <rect id="Rectángulo_435512" data-name="Rectángulo 435512" width="33.341" height="36.137" rx="0.5" transform="translate(34.993)" fill="#fff"/>
      <path id="Trazado_944725" data-name="Trazado 944725" d="M126.567,34.6a.147.147,0,0,1,.167.15v6.075a.168.168,0,0,0,.168.168h.956a.168.168,0,0,0,.168-.168V34.564a.134.134,0,0,1,.165-.136l6.567,1.24c.091.017.135-.038.1-.123l-.73-1.735a.237.237,0,0,1,.066-.259l6.416-5.178c.072-.058.056-.117-.035-.131l-1.5-.229a.141.141,0,0,1-.117-.185l1.088-3.58a.1.1,0,0,0-.117-.132l-3.547.594a.234.234,0,0,1-.236-.124l-.722-1.554a.12.12,0,0,0-.2-.043l-3.3,2.847c-.07.06-.116.035-.1-.056l1.026-6.822c.014-.091-.046-.139-.132-.107l-2.163.811a.223.223,0,0,1-.25-.081l-2.723-4.086a.1.1,0,0,0-.181,0l-2.627,4.266a.187.187,0,0,1-.238.068l-2.5-1.245c-.082-.041-.136,0-.119.09l1.339,7.1c.017.091-.025.115-.094.053L119.64,22.71c-.069-.061-.137-.037-.152.054l-.27,1.713a.162.162,0,0,1-.191.135l-3.659-.682c-.091-.017-.14.041-.11.127l1.185,3.4a.162.162,0,0,1-.1.209l-1.73.549c-.088.028-.1.1-.027.154l6.2,4.811a.219.219,0,0,1,.061.254l-.826,1.741c-.04.083,0,.143.095.133Z" transform="translate(-76.138 -10.261)" fill="#ff3b45"/>
    </g>
  </g>
</svg>
