<svg xmlns="http://www.w3.org/2000/svg" xmlns:xlink="http://www.w3.org/1999/xlink" width="1030" height="265.008" viewBox="0 0 1030 265.008">
  <defs>
    <clipPath id="clip-path">
      <rect id="Rectángulo_438997" data-name="Rectángulo 438997" width="165.635" height="75.116"/>
    </clipPath>
    <clipPath id="clip-path-2">
      <rect id="Rectángulo_439076" data-name="Rectángulo 439076" width="198.748" height="75.116"/>
    </clipPath>
    <clipPath id="clip-path-3">
      <rect id="Rectángulo_438998" data-name="Rectángulo 438998" width="76.92" height="72.268" transform="translate(76.92 72.268) rotate(180)"/>
    </clipPath>
    <clipPath id="clip-path-4">
      <rect id="Rectángulo_438998-2" data-name="Rectángulo 438998" width="76.919" height="72.268" transform="translate(76.919 72.268) rotate(180)"/>
    </clipPath>
    <clipPath id="clip-path-5">
      <rect id="Rectángulo_439011" data-name="Rectángulo 439011" width="104.938" height="130.345"/>
    </clipPath>
    <clipPath id="clip-path-6">
      <rect id="Rectángulo_438995" data-name="Rectángulo 438995" width="97.694" height="97.694" transform="translate(97.694 97.694) rotate(180)"/>
    </clipPath>
  </defs>
  <g id="Grupo_1185218" data-name="Grupo 1185218" transform="translate(-285 -5318.32)">
    <g id="Grupo_1185155" data-name="Grupo 1185155">
      <g id="Grupo_1185150" data-name="Grupo 1185150" transform="translate(285 6005.175) rotate(-90)">
        <g id="Grupo_1185075" data-name="Grupo 1185075" transform="translate(421.846)" clip-path="url(#clip-path)">
          <g id="Grupo_1185071" data-name="Grupo 1185071" transform="translate(126.022 -40.655)">
            <g id="Grupo_1185067" data-name="Grupo 1185067" transform="translate(0 25.955)">
              <path id="Trazado_950056" data-name="Trazado 950056" d="M635.249-23.306s-6.595,19.571-13.062,11.367C618.438-16.693,635.249-23.306,635.249-23.306Z" transform="translate(-621.642 23.306)" fill="#437c5b"/>
              <path id="Trazado_950057" data-name="Trazado 950057" d="M643.215-23.306s7.418,19.274,13.532,10.8C660.291-17.41,643.215-23.306,643.215-23.306Z" transform="translate(-629.608 23.306)" fill="#437c5b"/>
            </g>
            <g id="Grupo_1185068" data-name="Grupo 1185068" transform="translate(3.26 42.37)">
              <path id="Trazado_950058" data-name="Trazado 950058" d="M638.484,2.718s-5.659,16.791-11.207,9.753C624.061,8.392,638.484,2.718,638.484,2.718Z" transform="translate(-626.809 -2.718)" fill="#437c5b"/>
              <path id="Trazado_950059" data-name="Trazado 950059" d="M645.319,2.718s6.364,16.536,11.61,9.27C659.97,7.776,645.319,2.718,645.319,2.718Z" transform="translate(-633.644 -2.718)" fill="#437c5b"/>
            </g>
            <g id="Grupo_1185069" data-name="Grupo 1185069" transform="translate(6.664 58.753)">
              <path id="Trazado_950060" data-name="Trazado 950060" d="M642.224,28.692S637.37,43.1,632.608,37.06C629.849,33.56,642.224,28.692,642.224,28.692Z" transform="translate(-632.207 -28.692)" fill="#437c5b"/>
              <path id="Trazado_950061" data-name="Trazado 950061" d="M648.088,28.692s5.46,14.188,9.961,7.953C660.658,33.032,648.088,28.692,648.088,28.692Z" transform="translate(-638.071 -28.692)" fill="#437c5b"/>
            </g>
            <g id="Grupo_1185070" data-name="Grupo 1185070" transform="translate(10.017 72.556)">
              <path id="Trazado_950062" data-name="Trazado 950062" d="M645.687,50.576s-3.244,12.738-7.744,7.843C635.336,55.582,645.687,50.576,645.687,50.576Z" transform="translate(-637.522 -50.576)" fill="#437c5b"/>
              <path id="Trazado_950063" data-name="Trazado 950063" d="M650.467,50.576s5.634,11.876,9.108,6.206C661.588,53.5,650.467,50.576,650.467,50.576Z" transform="translate(-642.302 -50.576)" fill="#437c5b"/>
            </g>
            <path id="Trazado_950064" data-name="Trazado 950064" d="M649.045,17.724s-8.7-55.881-4.584-82.179" transform="translate(-629.66 64.455)" fill="none" stroke="#437c5b" stroke-miterlimit="10" stroke-width="1"/>
            <path id="Trazado_950065" data-name="Trazado 950065" d="M651.509,63.964s7.8,10.58,1.162,10.96C648.824,75.144,651.509,63.964,651.509,63.964Z" transform="translate(-632.334 17.037)" fill="#437c5b"/>
          </g>
          <g id="Grupo_1185074" data-name="Grupo 1185074" transform="translate(10.709 -31.605)">
            <g id="Grupo_1185072" data-name="Grupo 1185072" transform="translate(0 3.766)">
              <path id="Trazado_950066" data-name="Trazado 950066" d="M548.893-43.938s-87.86-3.138-94.8,15.541,22.382,8.224,22.382,8.224S431.326.383,439.91,13.067s26.109-2.529,26.109-2.529-29.9,24.336-18.211,37.039,32.11-22.591,32.11-22.591-13.048,29.442,4.506,26.452S510.368-1.14,510.368-1.14,506.241,33.173,524,24.908C545.219,15.035,548.893-43.938,548.893-43.938Z" transform="translate(-438.824 44.137)" fill="#75a050"/>
              <path id="Trazado_950067" data-name="Trazado 950067" d="M574.114-43.822s-46,15.785-66.985,47.21" transform="translate(-464.046 44.02)" fill="none" stroke="#316007" stroke-miterlimit="10" stroke-width="1.59"/>
            </g>
            <g id="Grupo_1185073" data-name="Grupo 1185073" transform="translate(53.959)">
              <path id="Trazado_950068" data-name="Trazado 950068" d="M577.4-50.107S521.281-16.53,524.506-2.063s17.3-3.919,17.3-3.919-19.874,31.1-9.386,35.542S547.7,17.421,547.7,17.421s-8.823,27.286,3.612,30.489,10.908-27.091,10.908-27.091,3.762,23.658,13.512,14.691S570.66-7.807,570.66-7.807s11.3,23.09,19.047,10.747C598.959-11.805,577.4-50.107,577.4-50.107Z" transform="translate(-524.372 50.107)" fill="#336d4c"/>
              <path id="Trazado_950069" data-name="Trazado 950069" d="M595.14-50.107S572.81-21.649,572.417,6.459" transform="translate(-542.112 50.107)" fill="none" stroke="#316007" stroke-miterlimit="10" stroke-width="1.59"/>
            </g>
          </g>
        </g>
        <g id="Grupo_1185201" data-name="Grupo 1185201" transform="translate(488.107)" clip-path="url(#clip-path-2)">
          <g id="Grupo_1185197" data-name="Grupo 1185197" transform="translate(14.387 -40.655)">
            <g id="Grupo_1185193" data-name="Grupo 1185193" transform="translate(0 25.955)">
              <path id="Trazado_951980" data-name="Trazado 951980" d="M621.642-23.306s7.913,19.571,15.674,11.367C641.813-16.693,621.642-23.306,621.642-23.306Z" transform="translate(-604.824 23.306)" fill="#437c5b"/>
              <path id="Trazado_951981" data-name="Trazado 951981" d="M660.033-23.306s-8.9,19.274-16.237,10.8C639.544-17.41,660.033-23.306,660.033-23.306Z" transform="translate(-643.215 23.306)" fill="#437c5b"/>
            </g>
            <g id="Grupo_1185194" data-name="Grupo 1185194" transform="translate(0.796 42.37)">
              <path id="Trazado_951982" data-name="Trazado 951982" d="M626.81,2.718s6.79,16.791,13.448,9.753C644.116,8.392,626.81,2.718,626.81,2.718Z" transform="translate(-612.38 -2.718)" fill="#437c5b"/>
              <path id="Trazado_951983" data-name="Trazado 951983" d="M659.749,2.718s-7.637,16.536-13.931,9.27C642.169,7.776,659.749,2.718,659.749,2.718Z" transform="translate(-645.319 -2.718)" fill="#437c5b"/>
            </g>
            <g id="Grupo_1185195" data-name="Grupo 1185195" transform="translate(0.749 58.753)">
              <path id="Trazado_951984" data-name="Trazado 951984" d="M632.207,28.692s5.825,14.407,11.538,8.368C647.056,33.56,632.207,28.692,632.207,28.692Z" transform="translate(-619.826 -28.692)" fill="#437c5b"/>
              <path id="Trazado_951985" data-name="Trazado 951985" d="M660.469,28.692s-6.552,14.188-11.953,7.953C645.385,33.032,660.469,28.692,660.469,28.692Z" transform="translate(-648.088 -28.692)" fill="#437c5b"/>
            </g>
            <g id="Grupo_1185196" data-name="Grupo 1185196" transform="translate(0.108 72.556)">
              <path id="Trazado_951986" data-name="Trazado 951986" d="M637.522,50.576s3.892,12.738,9.292,7.843C649.943,55.582,637.522,50.576,637.522,50.576Z" transform="translate(-626.301 -50.576)" fill="#437c5b"/>
              <path id="Trazado_951987" data-name="Trazado 951987" d="M661.688,50.576s-6.761,11.876-10.929,6.206C648.344,53.5,661.688,50.576,661.688,50.576Z" transform="translate(-650.467 -50.576)" fill="#437c5b"/>
            </g>
            <path id="Trazado_951988" data-name="Trazado 951988" d="M643.356,17.724s10.436-55.881,5.5-82.179" transform="translate(-633.471 64.455)" fill="none" stroke="#437c5b" stroke-miterlimit="10" stroke-width="1"/>
            <path id="Trazado_951989" data-name="Trazado 951989" d="M655.2,63.964s-9.36,10.58-1.395,10.96C658.425,75.144,655.2,63.964,655.2,63.964Z" transform="translate(-645.066 17.037)" fill="#437c5b"/>
          </g>
          <g id="Grupo_1185200" data-name="Grupo 1185200" transform="translate(39.986 -31.605)">
            <g id="Grupo_1185198" data-name="Grupo 1185198" transform="translate(13.839 3.766)">
              <path id="Trazado_951990" data-name="Trazado 951990" d="M438.824-43.938S544.249-47.076,552.572-28.4s-26.857,8.224-26.857,8.224,54.18,20.556,43.88,33.239-31.329-2.529-31.329-2.529,35.876,24.336,21.852,37.039-38.53-22.591-38.53-22.591,15.657,29.442-5.407,26.452S485.05-1.14,485.05-1.14,490,33.173,468.691,24.908C443.232,15.035,438.824-43.938,438.824-43.938Z" transform="translate(-438.824 44.137)" fill="#75a050"/>
              <path id="Trazado_951991" data-name="Trazado 951991" d="M507.129-43.822s55.191,15.785,80.377,47.21" transform="translate(-507.129 44.02)" fill="none" stroke="#316007" stroke-miterlimit="10" stroke-width="1.59"/>
            </g>
            <g id="Grupo_1185199" data-name="Grupo 1185199" transform="translate(0)">
              <path id="Trazado_951992" data-name="Trazado 951992" d="M541.908-50.107S609.246-16.53,605.376-2.063s-20.758-3.919-20.758-3.919,23.848,31.1,11.262,35.542-18.331-12.139-18.331-12.139,10.587,27.286-4.334,30.489-13.089-27.091-13.089-27.091-4.515,23.658-16.213,14.691S550-7.807,550-7.807s-13.56,23.09-22.854,10.747C516.039-11.805,541.908-50.107,541.908-50.107Z" transform="translate(-524.372 50.107)" fill="#336d4c"/>
              <path id="Trazado_951993" data-name="Trazado 951993" d="M572.417-50.107s26.795,28.458,27.266,56.566" transform="translate(-554.881 50.107)" fill="none" stroke="#316007" stroke-miterlimit="10" stroke-width="1.59"/>
            </g>
          </g>
        </g>
      </g>
      <g id="Grupo_1185153" data-name="Grupo 1185153" transform="translate(803.256 5869.585) rotate(180)">
        <g id="Grupo_1185080" data-name="Grupo 1185080" transform="translate(336.337 476.034)" clip-path="url(#clip-path-3)">
          <g id="Grupo_1185079" data-name="Grupo 1185079" transform="translate(6.122 13.006)">
            <g id="Grupo_1185077" data-name="Grupo 1185077" transform="translate(0 3.233)">
              <path id="Trazado_950070" data-name="Trazado 950070" d="M349.21,510.181s50.657,19.84,55.616,74.066C355.078,573.967,356.711,524.79,349.21,510.181Z" transform="translate(-349.21 -510.181)" fill="#437c5b"/>
              <path id="Trazado_950071" data-name="Trazado 950071" d="M349.21,510.181s43.354,43.664,55.616,74.066" transform="translate(-349.21 -510.181)" fill="none" stroke="#204800" stroke-miterlimit="10" stroke-width="0.885"/>
              <path id="Trazado_950072" data-name="Trazado 950072" d="M383.719,569.591s-9.87-2.157-16.915.327" transform="translate(-358.437 -540.883)" fill="none" stroke="#204800" stroke-miterlimit="10" stroke-width="0.885"/>
              <path id="Trazado_950073" data-name="Trazado 950073" d="M414.356,617.282a31.474,31.474,0,0,0-23.821-.091" transform="translate(-370.883 -565.091)" fill="none" stroke="#204800" stroke-miterlimit="10" stroke-width="0.885"/>
              <path id="Trazado_950074" data-name="Trazado 950074" d="M419.926,579.237s-.689-6.283,2.858-10.985" transform="translate(-386.268 -540.636)" fill="none" stroke="#3c3049" stroke-miterlimit="10" stroke-width="1.987"/>
              <path id="Trazado_950075" data-name="Trazado 950075" d="M384.524,539.456s-1.442-6.32,0-8.822" transform="translate(-367.395 -520.908)" fill="none" stroke="#204800" stroke-miterlimit="10" stroke-width="0.885"/>
            </g>
            <g id="Grupo_1185078" data-name="Grupo 1185078" transform="translate(30.435)">
              <path id="Trazado_950076" data-name="Trazado 950076" d="M413.209,503.383s44.107,31.848,35.383,85.6C402.98,566.617,416.828,519.4,413.209,503.383Z" transform="translate(-413.209 -503.383)" fill="#89b764"/>
              <path id="Trazado_950077" data-name="Trazado 950077" d="M413.209,503.383s31.092,53.1,35.383,85.6" transform="translate(-413.209 -503.383)" fill="none" stroke="#0e5952" stroke-miterlimit="10" stroke-width="1.264"/>
              <path id="Trazado_950078" data-name="Trazado 950078" d="M431.948,570.841s-9.488-4.661-16.931-4.014" transform="translate(-414.157 -536.624)" fill="none" stroke="#0e5952" stroke-miterlimit="10" stroke-width="1.264"/>
              <path id="Trazado_950079" data-name="Trazado 950079" d="M448.945,625.478a31.475,31.475,0,0,0-23.045-6.03" transform="translate(-419.865 -564.094)" fill="none" stroke="#0e5952" stroke-miterlimit="10" stroke-width="1.264"/>
              <path id="Trazado_950080" data-name="Trazado 950080" d="M461.5,588.7s.9-6.256,5.508-9.925" transform="translate(-438.535 -542.92)" fill="none" stroke="#0e5952" stroke-miterlimit="10" stroke-width="1.264"/>
              <path id="Trazado_950081" data-name="Trazado 950081" d="M438.361,540.718s.18-6.479,2.2-8.543" transform="translate(-426.4 -518.483)" fill="none" stroke="#0e5952" stroke-miterlimit="10" stroke-width="1.264"/>
            </g>
          </g>
        </g>
      </g>
      <g id="Grupo_1185192" data-name="Grupo 1185192" transform="translate(1185.612 5321.283)">
        <g id="Grupo_1185080-2" data-name="Grupo 1185080" transform="translate(0 0)" clip-path="url(#clip-path-4)">
          <g id="Grupo_1185079-2" data-name="Grupo 1185079" transform="translate(6.122 -26.335)">
            <g id="Grupo_1185077-2" data-name="Grupo 1185077" transform="translate(0 8.299)">
              <path id="Trazado_950070-2" data-name="Trazado 950070" d="M0,74.066S50.657,54.226,55.616,0C5.868,10.28,7.5,59.457,0,74.066Z" transform="translate(0 0)" fill="#437c5b"/>
              <path id="Trazado_950071-2" data-name="Trazado 950071" d="M0,74.066S43.354,30.4,55.616,0" transform="translate(0 0)" fill="none" stroke="#204800" stroke-miterlimit="10" stroke-width="0.885"/>
              <path id="Trazado_950072-2" data-name="Trazado 950072" d="M16.915.327S7.046,2.483,0,0" transform="translate(8.367 45.031)" fill="none" stroke="#204800" stroke-miterlimit="10" stroke-width="0.885"/>
              <path id="Trazado_950073-2" data-name="Trazado 950073" d="M23.821,0A31.473,31.473,0,0,1,0,.091" transform="translate(19.652 21.875)" fill="none" stroke="#204800" stroke-miterlimit="10" stroke-width="0.885"/>
              <path id="Trazado_950074-2" data-name="Trazado 950074" d="M.054,0S-.635,6.283,2.912,10.985" transform="translate(33.603 35.465)" fill="none" stroke="#3c3049" stroke-miterlimit="10" stroke-width="1.987"/>
              <path id="Trazado_950075-2" data-name="Trazado 950075" d="M.64,0S-.8,6.32.642,8.822" transform="translate(16.489 55.517)" fill="none" stroke="#204800" stroke-miterlimit="10" stroke-width="0.885"/>
            </g>
            <g id="Grupo_1185078-2" data-name="Grupo 1185078" transform="translate(30.435)">
              <path id="Trazado_950076-2" data-name="Trazado 950076" d="M0,85.6S44.107,53.749,35.383,0C-10.229,22.364,3.619,69.579,0,85.6Z" fill="#89b764"/>
              <path id="Trazado_950077-2" data-name="Trazado 950077" d="M0,85.6S31.092,32.5,35.383,0" fill="none" stroke="#0e5952" stroke-miterlimit="10" stroke-width="1.264"/>
              <path id="Trazado_950078-2" data-name="Trazado 950078" d="M16.931,0S7.443,4.661,0,4.014" transform="translate(0.86 51.38)" fill="none" stroke="#0e5952" stroke-miterlimit="10" stroke-width="1.264"/>
              <path id="Trazado_950079-2" data-name="Trazado 950079" d="M23.045,0A31.474,31.474,0,0,1,0,6.03" transform="translate(6.035 24.213)" fill="none" stroke="#0e5952" stroke-miterlimit="10" stroke-width="1.264"/>
              <path id="Trazado_950080-2" data-name="Trazado 950080" d="M0,0S.9,6.256,5.508,9.925" transform="translate(22.965 39.821)" fill="none" stroke="#0e5952" stroke-miterlimit="10" stroke-width="1.264"/>
              <path id="Trazado_950081-2" data-name="Trazado 950081" d="M0,0S.18,6.479,2.2,8.543" transform="translate(11.961 63.363)" fill="none" stroke="#0e5952" stroke-miterlimit="10" stroke-width="1.264"/>
            </g>
          </g>
        </g>
      </g>
      <g id="Grupo_1185157" data-name="Grupo 1185157" transform="translate(163.112 5320)">
        <g id="Grupo_1185118" data-name="Grupo 1185118" transform="translate(1046.95)" clip-path="url(#clip-path-5)">
          <g id="Grupo_1185117" data-name="Grupo 1185117" transform="translate(19.288 -45.217)">
            <g id="Grupo_1185115" data-name="Grupo 1185115" transform="translate(30.524 21.929)">
              <path id="Trazado_950198" data-name="Trazado 950198" d="M1122.905,113.449s-21.927-88.232,47.2-147.414C1204.177,43.788,1135.569,89.1,1122.905,113.449Z" transform="translate(-1119.599 33.965)" fill="#437c5b"/>
              <path id="Trazado_950199" data-name="Trazado 950199" d="M1124.42,113.449s17.609-101.309,47.2-147.414" transform="translate(-1121.114 33.965)" fill="none" stroke="#204800" stroke-miterlimit="10" stroke-width="1.026"/>
              <path id="Trazado_950200" data-name="Trazado 950200" d="M1145.84,90.292s6.6,15.538,16.8,22.742" transform="translate(-1127.847 -5.094)" fill="none" stroke="#204800" stroke-miterlimit="10" stroke-width="1.026"/>
              <path id="Trazado_950201" data-name="Trazado 950201" d="M1166.88,21.02s3.578,20.464,22.9,32.56" transform="translate(-1134.461 16.681)" fill="none" stroke="#204800" stroke-miterlimit="10" stroke-width="1.026"/>
              <path id="Trazado_950202" data-name="Trazado 950202" d="M1145.568,59.694s-7.9,7.012-17.737,6.724" transform="translate(-1122.186 4.524)" fill="none" stroke="#3c3049" stroke-miterlimit="10" stroke-width="2.303"/>
              <path id="Trazado_950203" data-name="Trazado 950203" d="M1131.626,120.825s-7.221,8.074-12.028,8.526" transform="translate(-1119.598 -14.691)" fill="none" stroke="#204800" stroke-miterlimit="10" stroke-width="1.026"/>
            </g>
            <g id="Grupo_1185116" data-name="Grupo 1185116">
              <path id="Trazado_950204" data-name="Trazado 950204" d="M1075.08,65.034s.774-90.913,82.476-130.981C1171.162,17.848,1093.415,44.615,1075.08,65.034Z" transform="translate(-1075.08 65.947)" fill="#c2d66b"/>
              <path id="Trazado_950205" data-name="Trazado 950205" d="M1075.08,65.034S1117.4-28.68,1157.556-65.947" transform="translate(-1075.08 65.947)" fill="none" stroke="#75a050" stroke-miterlimit="10" stroke-width="1.465"/>
              <path id="Trazado_950206" data-name="Trazado 950206" d="M1118.02,41.47s2.818,17.439,10.9,26.959" transform="translate(-1088.578 32.182)" fill="none" stroke="#75a050" stroke-miterlimit="10" stroke-width="1.465"/>
              <path id="Trazado_950207" data-name="Trazado 950207" d="M1156.088-19.278s-1.64,20.708,14.058,37.244" transform="translate(-1100.528 51.277)" fill="none" stroke="#75a050" stroke-miterlimit="10" stroke-width="1.465"/>
              <path id="Trazado_950208" data-name="Trazado 950208" d="M1125.066,14.886s-9.4,4.821-18.854,2.087" transform="translate(-1084.866 40.538)" fill="none" stroke="#75a050" stroke-miterlimit="10" stroke-width="1.465"/>
              <path id="Trazado_950209" data-name="Trazado 950209" d="M1096.105,69.953s-9.006,6.018-13.774,5.256" transform="translate(-1077.359 23.228)" fill="none" stroke="#75a050" stroke-miterlimit="10" stroke-width="1.465"/>
            </g>
          </g>
        </g>
      </g>
      <g id="Grupo_1185202" data-name="Grupo 1185202" transform="translate(285 5320)">
        <g id="Grupo_1185039" data-name="Grupo 1185039" transform="translate(0 0)" clip-path="url(#clip-path-6)">
          <g id="Grupo_1185037" data-name="Grupo 1185037" transform="translate(-29.845 -19.664)">
            <path id="Trazado_950007" data-name="Trazado 950007" d="M-47.428-17.449S-49.99,6.8-27.24,24.549,8.86,58.777,11.084,77.466,60.647,61.673,21.209,15s-60.848-46.31-60.848-46.31Z" transform="translate(47.515 31.305)" fill="#c2d66b"/>
            <path id="Trazado_950008" data-name="Trazado 950008" d="M30.125,76.236s5.124-45.718-64.094-87.1" transform="translate(42.478 23.704)" fill="none" stroke="#316007" stroke-miterlimit="10" stroke-width="1.317"/>
            <path id="Trazado_950009" data-name="Trazado 950009" d="M42.609,99.764S54.6,92.3,49.076,71.511" transform="translate(14 -6.929)" fill="none" stroke="#316007" stroke-miterlimit="10" stroke-width="1.317"/>
            <path id="Trazado_950010" data-name="Trazado 950010" d="M33.657,44.495A237.183,237.183,0,0,1,56.4,53.87" transform="translate(17.329 3.117)" fill="none" stroke="#316007" stroke-miterlimit="10" stroke-width="1.317"/>
            <path id="Trazado_950011" data-name="Trazado 950011" d="M10.876,20.389s7.9,16.743,2.7,35.106" transform="translate(25.801 12.082)" fill="none" stroke="#316007" stroke-miterlimit="10" stroke-width="1.317"/>
            <path id="Trazado_950012" data-name="Trazado 950012" d="M-11.562,3.485S.5,1.7,11.7,6.85" transform="translate(34.145 18.479)" fill="none" stroke="#316007" stroke-miterlimit="10" stroke-width="1.317"/>
          </g>
          <g id="Grupo_1185038" data-name="Grupo 1185038" transform="translate(-18.781 -32.221)">
            <path id="Trazado_950013" data-name="Trazado 950013" d="M-29.9-34.377s6.739,23.43,34.495,31.33S50.914,15.1,60,31.583,99.992-1.683,45.9-30.1-27.89-50.145-27.89-50.145Z" transform="translate(29.9 51.297)" fill="#336d4c"/>
            <path id="Trazado_950014" data-name="Trazado 950014" d="M74.05,25.72S61.612-18.571-18.085-30.9" transform="translate(25.506 43.713)" fill="none" stroke="#204800" stroke-miterlimit="10" stroke-width="1.317"/>
            <path id="Trazado_950015" data-name="Trazado 950015" d="M98.009,41.391s8.307-11.426-4.627-28.611" transform="translate(-15.945 27.469)" fill="none" stroke="#204800" stroke-miterlimit="10" stroke-width="1.317"/>
            <path id="Trazado_950016" data-name="Trazado 950016" d="M65.392-5.174a237.228,237.228,0,0,1,24.6.139" transform="translate(-5.536 34.243)" fill="none" stroke="#204800" stroke-miterlimit="10" stroke-width="1.317"/>
            <path id="Trazado_950017" data-name="Trazado 950017" d="M35.22-18.794S48.837-6.25,50.922,12.721" transform="translate(5.684 39.21)" fill="none" stroke="#204800" stroke-miterlimit="10" stroke-width="1.317"/>
            <path id="Trazado_950018" data-name="Trazado 950018" d="M8.14-29.213S18.652-35.4,30.957-34.836" transform="translate(15.754 45.189)" fill="none" stroke="#204800" stroke-miterlimit="10" stroke-width="1.317"/>
          </g>
        </g>
      </g>
    </g>
    <g id="Grupo_1185086" data-name="Grupo 1185086" transform="translate(97.588 5207.632)">
      <g id="Grupo_1185082" data-name="Grupo 1185082" transform="translate(482.463 304.427)">
        <path id="Trazado_950082" data-name="Trazado 950082" d="M512.439,410.6c0,10.282-1.719,18.618-3.839,18.618s-3.839-8.335-3.839-18.618,1.719-18.618,3.839-18.618S512.439,400.314,512.439,410.6Z" transform="translate(-489.983 -391.978)" fill="#c2d66b"/>
        <path id="Trazado_950083" data-name="Trazado 950083" d="M501.081,414.277c10.282,0,18.618,1.719,18.618,3.839s-8.336,3.839-18.618,3.839-18.618-1.719-18.618-3.839S490.8,414.277,501.081,414.277Z" transform="translate(-482.463 -399.498)" fill="#c2d66b"/>
      </g>
      <g id="Grupo_1185083" data-name="Grupo 1185083" transform="translate(794.956 161.871)">
        <path id="Trazado_950084" data-name="Trazado 950084" d="M842.047,206.219c0,6.2-1.037,11.228-2.315,11.228s-2.315-5.027-2.315-11.228,1.037-11.228,2.315-11.228S842.047,200.017,842.047,206.219Z" transform="translate(-828.504 -194.99)" fill="#c2d66b"/>
        <path id="Trazado_950085" data-name="Trazado 950085" d="M835.2,208.439c6.2,0,11.229,1.037,11.229,2.315s-5.027,2.315-11.229,2.315-11.228-1.037-11.228-2.315S829,208.439,835.2,208.439Z" transform="translate(-823.969 -199.526)" fill="#c2d66b"/>
      </g>
      <g id="Grupo_1185159" data-name="Grupo 1185159" transform="translate(902.412 280.639)">
        <path id="Trazado_950084-2" data-name="Trazado 950084" d="M842.047,206.219c0,6.2-1.037,11.228-2.315,11.228s-2.315-5.027-2.315-11.228,1.037-11.228,2.315-11.228S842.047,200.017,842.047,206.219Z" transform="translate(-828.504 -194.99)" fill="#c2d66b"/>
        <path id="Trazado_950085-2" data-name="Trazado 950085" d="M835.2,208.439c6.2,0,11.229,1.037,11.229,2.315s-5.027,2.315-11.229,2.315-11.228-1.037-11.228-2.315S829,208.439,835.2,208.439Z" transform="translate(-823.969 -199.526)" fill="#c2d66b"/>
      </g>
      <g id="Grupo_1185084" data-name="Grupo 1185084" transform="translate(886.723 244.899)">
        <path id="Trazado_950086" data-name="Trazado 950086" d="M1121.2,320.029c0,9.869-1.65,17.87-3.685,17.87s-3.684-8-3.684-17.87,1.65-17.87,3.684-17.87S1121.2,310.16,1121.2,320.029Z" transform="translate(-1099.645 -302.159)" fill="#59916f"/>
        <ellipse id="Elipse_11774" data-name="Elipse 11774" cx="17.87" cy="3.684" rx="17.87" ry="3.684" transform="translate(0 14.186)" fill="#59916f"/>
      </g>
      <g id="Grupo_1185085" data-name="Grupo 1185085" transform="translate(548.605 132.368)">
        <path id="Trazado_950087" data-name="Trazado 950087" d="M599.068,142.807c0,5.765-.964,10.439-2.153,10.439s-2.153-4.674-2.153-10.439.964-10.439,2.153-10.439S599.068,137.042,599.068,142.807Z" transform="translate(-586.477 -132.368)" fill="#59916f"/>
        <ellipse id="Elipse_11775" data-name="Elipse 11775" cx="10.439" cy="2.153" rx="10.439" ry="2.153" transform="translate(0 8.286)" fill="#59916f"/>
      </g>
      <g id="Grupo_1185160" data-name="Grupo 1185160" transform="translate(449.605 293.988)">
        <path id="Trazado_950087-2" data-name="Trazado 950087" d="M599.068,142.807c0,5.765-.964,10.439-2.153,10.439s-2.153-4.674-2.153-10.439.964-10.439,2.153-10.439S599.068,137.042,599.068,142.807Z" transform="translate(-586.477 -132.368)" fill="#59916f"/>
        <ellipse id="Elipse_11775-2" data-name="Elipse 11775" cx="10.439" cy="2.153" rx="10.439" ry="2.153" transform="translate(0 8.286)" fill="#59916f"/>
      </g>
    </g>
  </g>
</svg>
