<svg xmlns="http://www.w3.org/2000/svg" xmlns:xlink="http://www.w3.org/1999/xlink" width="118" height="118" viewBox="0 0 118 118">
  <defs>
    <filter id="Trazado_895309" x="0" y="0" width="118" height="118" filterUnits="userSpaceOnUse">
      <feOffset dy="3" input="SourceAlpha"/>
      <feGaussianBlur stdDeviation="3" result="blur"/>
      <feFlood flood-opacity="0.161"/>
      <feComposite operator="in" in2="blur"/>
      <feComposite in="SourceGraphic"/>
    </filter>
  </defs>
  <g id="Grupo_1175619" data-name="Grupo 1175619" transform="translate(-736.294 -3014)">
    <g transform="matrix(1, 0, 0, 1, 736.29, 3014)" filter="url(#Trazado_895309)">
      <g id="Trazado_895309-2" data-name="Trazado 895309" transform="translate(9 6)" fill="#e9dea8">
        <path d="M 50.00019836425781 98.49961853027344 L 49.99980163574219 98.49961853027344 C 43.45171356201172 98.49961853027344 37.10028457641602 97.21750640869141 31.1219425201416 94.68887329101562 C 25.34679985046387 92.24620819091797 20.15988540649414 88.74897766113281 15.70525741577148 84.29434967041016 C 11.25064277648926 79.83973693847656 7.753414154052734 74.65280914306641 5.310742855072021 68.87766265869141 C 2.782114267349243 62.89931869506836 1.5 56.54790496826172 1.5 49.99980545043945 C 1.5 43.45170593261719 2.782114267349243 37.10029220581055 5.310742855072021 31.1219482421875 C 7.753414154052734 25.34680557250977 11.25064277648926 20.15989112854004 15.70525741577148 15.70526218414307 C 20.15988540649414 11.25064849853516 25.34679985046387 7.753419876098633 31.1219425201416 5.310748100280762 C 37.10028457641602 2.782119750976562 43.45169830322266 1.500005483627319 49.99980163574219 1.500005483627319 C 56.54830169677734 1.500005483627319 62.89971542358398 2.782119750976562 68.87805938720703 5.310748100280762 C 74.6531982421875 7.753419876098633 79.84011077880859 11.25064849853516 84.29474639892578 15.70526218414307 C 88.74935913085938 20.15989112854004 92.24658203125 25.34680557250977 94.68925476074219 31.1219482421875 C 97.21788787841797 37.10029220581055 98.5 43.45170593261719 98.5 49.99980545043945 C 98.5 56.54790496826172 97.21788787841797 62.89931869506836 94.68925476074219 68.87766265869141 C 92.24658203125 74.65280914306641 88.74935913085938 79.83973693847656 84.29474639892578 84.29434967041016 C 79.84011077880859 88.74897766113281 74.6531982421875 92.24620819091797 68.87805938720703 94.68887329101562 C 62.89971542358398 97.21750640869141 56.54828643798828 98.49961853027344 50.00019836425781 98.49961853027344 Z" stroke="none"/>
        <path d="M 49.99980163574219 3.000007629394531 C 43.65353775024414 3.000007629394531 37.49872207641602 4.24224853515625 31.70627593994141 6.692253112792969 C 26.10993957519531 9.059295654296875 21.08327484130859 12.44857788085938 16.76592254638672 16.76593017578125 C 12.44857025146484 21.08326721191406 9.059310913085938 26.10993194580078 6.692245483398438 31.70628356933594 C 4.24224853515625 37.49871444702148 3 43.65354537963867 3 49.99980545043945 C 3 56.34606552124023 4.24224853515625 62.50089645385742 6.692245483398438 68.29332733154297 C 9.059310913085938 73.88967895507812 12.44857025146484 78.91634368896484 16.76592254638672 83.23368072509766 C 21.08327484130859 87.55103302001953 26.10993957519531 90.94031524658203 31.70627593994141 93.30735778808594 C 37.49872207641602 95.75736236572266 43.65353775024414 96.99960327148438 50.00019836425781 96.99960327148438 C 56.34646224975586 96.99960327148438 62.50129318237305 95.75736236572266 68.29372406005859 93.30735778808594 C 73.89007568359375 90.94031524658203 78.91674041748047 87.55103302001953 83.23407745361328 83.23368072509766 C 87.55142974853516 78.91634368896484 90.94070434570312 73.88967895507812 93.30775451660156 68.29332733154297 C 95.75775146484375 62.50089645385742 97 56.34606552124023 97 49.99980545043945 C 97 43.65354537963867 95.75775146484375 37.49871444702148 93.30775451660156 31.70628356933594 C 90.94070434570312 26.10993194580078 87.55142974853516 21.08326721191406 83.23407745361328 16.76593017578125 C 78.91674041748047 12.44857788085938 73.89007568359375 9.059295654296875 68.29372406005859 6.692253112792969 C 62.50129318237305 4.24224853515625 56.34646224975586 3.000007629394531 50.00019836425781 3.000007629394531 L 49.99980163574219 3.000007629394531 M 49.99980163574219 7.62939453125e-06 L 50.00019836425781 7.62939453125e-06 C 77.61433410644531 7.62939453125e-06 100 22.38566589355469 100 49.99980545043945 C 100 77.61394500732422 77.61433410644531 99.99960327148438 50.00019836425781 99.99960327148438 L 49.99980163574219 99.99960327148438 C 22.38567352294922 99.99960327148438 0 77.61394500732422 0 49.99980545043945 C 0 22.38566589355469 22.38567352294922 7.62939453125e-06 49.99980163574219 7.62939453125e-06 Z" stroke="none" fill="#fff"/>
      </g>
    </g>
    <g id="Grupo_1175620" data-name="Grupo 1175620" transform="translate(755.51 3027.486)">
      <path id="Trazado_938732" data-name="Trazado 938732" d="M67.064,48.672a7.033,7.033,0,0,0-2.172-11.147,6.458,6.458,0,0,0-2.1-9.2,5.823,5.823,0,0,0-1.97-9.144,5.846,5.846,0,0,0-4.875-8.142,5.785,5.785,0,0,0,.065-.64A5.814,5.814,0,0,0,49.1,4.63a5.867,5.867,0,0,0-9.541-1.943,5.867,5.867,0,0,0-9.541,1.944A5.814,5.814,0,0,0,23.1,10.4a5.785,5.785,0,0,0,.065.64,5.846,5.846,0,0,0-4.875,8.142,5.823,5.823,0,0,0-1.97,9.144,6.458,6.458,0,0,0-2.1,9.2,7.033,7.033,0,0,0-2.172,11.147,7.05,7.05,0,0,0,4,12.854h47.01a7.049,7.049,0,0,0,4-12.854Z" transform="translate(1.314 0.329)" fill="#6bd75a"/>
      <path id="Trazado_938733" data-name="Trazado 938733" d="M66.408,48.015a7.033,7.033,0,0,0-2.172-11.147,6.457,6.457,0,0,0-2.1-9.2,5.823,5.823,0,0,0-1.969-9.144,5.846,5.846,0,0,0-4.875-8.142,5.784,5.784,0,0,0,.065-.64A5.814,5.814,0,0,0,48.44,3.973,6.817,6.817,0,0,0,45.67,3a5.852,5.852,0,0,0-4.113,1.687,5.867,5.867,0,0,0-9.541,1.944A5.814,5.814,0,0,0,25.1,12.4a5.783,5.783,0,0,0,.065.64,5.846,5.846,0,0,0-4.875,8.142,5.823,5.823,0,0,0-1.969,9.144,6.457,6.457,0,0,0-2.1,9.2,7.033,7.033,0,0,0-2.172,11.147,6.969,6.969,0,0,0-2.109,9.257,6.976,6.976,0,0,0,3.454.94H62.4a7.049,7.049,0,0,0,4-12.854Z" transform="translate(1.971 0.986)" fill="#5bbd45"/>
      <path id="Trazado_938734" data-name="Trazado 938734" d="M43.557,30.971h0V23H32.928v7.971h0A22.963,22.963,0,0,0,13,53.733V60.2H63.485V53.733A22.963,22.963,0,0,0,43.557,30.971Z" transform="translate(2.628 7.557)" fill="#bf8264"/>
      <path id="Trazado_938735" data-name="Trazado 938735" d="M28,29.854a13.2,13.2,0,0,0,10.628,0V23H28Z" transform="translate(7.557 7.557)" fill="#a77157"/>
      <path id="Trazado_938736" data-name="Trazado 938736" d="M24,14.643l1.86-.266A22.547,22.547,0,0,0,38.614,8h0a9.129,9.129,0,0,0,6.643,6.643h0v7.971A10.628,10.628,0,0,1,34.628,33.242h0A10.628,10.628,0,0,1,24,22.614Z" transform="translate(6.242 2.628)" fill="#dc9b83"/>
      <path id="Trazado_938737" data-name="Trazado 938737" d="M35.3,32.7a10.624,10.624,0,0,0,9.3-10.537V14.191a9.114,9.114,0,0,1-5.949-4.815,26.908,26.908,0,0,1-10.057,5.4L26,15.519v6.643A10.624,10.624,0,0,0,35.3,32.7Z" transform="translate(6.899 3.081)" fill="#bf8264"/>
      <path id="Trazado_938738" data-name="Trazado 938738" d="M53.538,2.862h2.055V4.917a9.9,9.9,0,0,1-9.9,9.9H43.636V12.763A9.9,9.9,0,0,1,53.538,2.862Z" transform="translate(12.694 0.94)" fill="#8fe543"/>
      <path id="Trazado_938739" data-name="Trazado 938739" d="M9.9,0h2.055V2.055a9.9,9.9,0,0,1-9.9,9.9H0V9.9A9.9,9.9,0,0,1,9.9,0Z" transform="translate(64.785 7.304) rotate(45)" fill="#b2f439"/>
      <path id="Trazado_938740" data-name="Trazado 938740" d="M9.9,0h2.055V2.055a9.9,9.9,0,0,1-9.9,9.9H0V9.9A9.9,9.9,0,0,1,9.9,0Z" transform="translate(71.427 27.9) rotate(90)" fill="#b2f439"/>
      <path id="Trazado_938741" data-name="Trazado 938741" d="M0,0H2.055a9.9,9.9,0,0,1,9.9,9.9v2.055H9.9A9.9,9.9,0,0,1,0,2.055V0Z" transform="translate(23.238 35.687) rotate(180)" fill="#8fe543"/>
      <path id="Trazado_938742" data-name="Trazado 938742" d="M0,0H2.055a9.9,9.9,0,0,1,9.9,9.9v2.055H9.9A9.9,9.9,0,0,1,0,2.055Z" transform="translate(23.238 35.687) rotate(135)" fill="#b2f439"/>
      <circle id="Elipse_11748" data-name="Elipse 11748" cx="19.928" cy="19.928" r="19.928" transform="translate(20.943 43.842)" fill="#87aaff"/>
      <path id="Trazado_938743" data-name="Trazado 938743" d="M47.88,36.012A19.9,19.9,0,0,1,20.012,63.88,19.91,19.91,0,1,0,47.88,36.012Z" transform="translate(4.932 11.832)" fill="#7f8cf0"/>
      <path id="Trazado_938744" data-name="Trazado 938744" d="M38.584,52.793l-2.275-.455-1.185-2.962a1.749,1.749,0,0,0-1.624-1.1H28.186a2.28,2.28,0,0,0-3.538-1.3l-1.685,1.2a3.045,3.045,0,0,0-1.048,3.631l2.21,5.4,2.04.51A2.271,2.271,0,0,1,27.3,61.444l-.97,1.077a1.75,1.75,0,0,0-.417,1.5l.426,2.193a19.762,19.762,0,0,0,5.423,1.841L35.5,63.71V61.722a1.75,1.75,0,0,1,1.2-1.66l1.241-.414,2.12-3.534a2.223,2.223,0,0,0,.317-1.143h0a2.222,2.222,0,0,0-1.786-2.179Z" transform="translate(5.482 15.294)" fill="#b2f439"/>
      <path id="Trazado_938745" data-name="Trazado 938745" d="M51.721,51.08a19.824,19.824,0,0,0-2.268-9.213l-2.838,1.216-5.944-2.229-1.4-1.4a2.834,2.834,0,0,0-2-.83h-.028a2.9,2.9,0,0,0-1.822.636l-2.187,1.75a1.6,1.6,0,0,0-.579,1.513l.589,3.532,3.869,2.579a1.6,1.6,0,0,0,1.275.221l1.165-.291a1.6,1.6,0,0,1,1.739.694l3.1,4.873v6.69a2.312,2.312,0,0,0,.536,1.48l1.708,2.05A19.83,19.83,0,0,0,51.721,51.08Z" transform="translate(9.078 12.69)" fill="#b2f439"/>
      <path id="Trazado_938746" data-name="Trazado 938746" d="M24.847,59.4a1.756,1.756,0,0,0,.03.4l.426,2.193a19.767,19.767,0,0,0,5.422,1.842l3.445-4.012a19.631,19.631,0,0,1-9.323-.418Z" transform="translate(6.52 19.517)" fill="#8fe543"/>
      <path id="Trazado_938747" data-name="Trazado 938747" d="M46.546,41.065,44.353,42a19.829,19.829,0,0,1-2.873,15.34v2.675a2.312,2.312,0,0,0,.536,1.48l1.708,2.049a19.846,19.846,0,0,0,2.823-22.483Z" transform="translate(11.985 13.492)" fill="#8fe543"/>
      <path id="Trazado_938748" data-name="Trazado 938748" d="M17.574,47.313H22.5l8.257-5.178V38.15l2.325-.031a1.551,1.551,0,0,0,.737-2.9l-2.8-1.586a19.948,19.948,0,0,0-13.45,13.679Z" transform="translate(4.131 11.05)" fill="#b2f439"/>
      <path id="Trazado_938749" data-name="Trazado 938749" d="M48.657,46h.664a4.65,4.65,0,0,1,4.65,4.65h0a4.65,4.65,0,0,1-4.65,4.65h-.664A2.657,2.657,0,0,1,46,52.643V48.657A2.657,2.657,0,0,1,48.657,46Z" transform="translate(13.47 15.113)" fill="#dc9b83"/>
      <path id="Trazado_938750" data-name="Trazado 938750" d="M16.65,46h.664a2.657,2.657,0,0,1,2.657,2.657v3.986A2.657,2.657,0,0,1,17.314,55.3H16.65A4.65,4.65,0,0,1,12,50.65h0A4.65,4.65,0,0,1,16.65,46Z" transform="translate(2.3 15.113)" fill="#dc9b83"/>
      <circle id="Elipse_11749" data-name="Elipse 11749" cx="1.329" cy="1.329" r="1.329" transform="translate(34.228 20.593)"/>
      <circle id="Elipse_11750" data-name="Elipse 11750" cx="1.329" cy="1.329" r="1.329" transform="translate(44.856 20.593)"/>
      <path id="Trazado_938751" data-name="Trazado 938751" d="M36.466,23.268a1.328,1.328,0,1,0-1.879-1.879,2.3,2.3,0,0,1-3.249,0,1.328,1.328,0,1,0-1.879,1.879,4.958,4.958,0,0,0,7.006,0Z" transform="translate(7.908 6.9)"/>
      <path id="Trazado_938752" data-name="Trazado 938752" d="M74.179,16.7a1.329,1.329,0,0,0,0-1.879l-1.453-1.453a11.15,11.15,0,0,0-4.233-2.644,11.127,11.127,0,0,0,1.122-4.866V3.8a1.328,1.328,0,0,0-1.329-1.329H66.231a11.207,11.207,0,0,0-8.806,4.282,7.185,7.185,0,0,0-5.977-3.228c-.088,0-.176,0-.267.007a7.2,7.2,0,0,0-10.31-2.24A7.2,7.2,0,0,0,30.56,3.533c-.091,0-.179-.007-.267-.007A7.214,7.214,0,0,0,23.1,10.27a7.172,7.172,0,0,0-5.1,8.632,7.267,7.267,0,0,0-2.763,3.674,11.213,11.213,0,0,0-1.907-.175H11.281A1.329,1.329,0,0,0,9.952,23.73v2.055a11.123,11.123,0,0,0,1.123,4.865,11.139,11.139,0,0,0-4.233,2.644L5.389,34.747a1.329,1.329,0,0,0,0,1.879l1.453,1.453A11.184,11.184,0,0,0,10.979,40.7a8.2,8.2,0,0,0-.818,3.528A8.333,8.333,0,0,0,11.525,48.8a8.354,8.354,0,0,0,2.458,13.647,5.973,5.973,0,0,0,4.967,9.3h.664a3.952,3.952,0,0,0,1.455-.284,21.233,21.233,0,0,0,39.6,0,3.952,3.952,0,0,0,1.455.284h.664a5.973,5.973,0,0,0,4.968-9.3A8.352,8.352,0,0,0,70.217,48.8a8.341,8.341,0,0,0,1.363-4.573,8.223,8.223,0,0,0-.6-3.04h.443a1.329,1.329,0,0,0,1.329-1.329V37.8a11.235,11.235,0,0,0-6.5-10.169,6.907,6.907,0,0,0,.62-2.8,7.146,7.146,0,0,0-.9-3.467,11.168,11.168,0,0,0,6.744-3.215ZM66.231,5.13h.726v.727a8.483,8.483,0,0,1-1.175,4.274,11.221,11.221,0,0,0-8.039,2.431A8.579,8.579,0,0,1,66.231,5.13ZM12.609,25.058h.727a8.581,8.581,0,0,1,8.489,7.432,11.22,11.22,0,0,0-8.04-2.431,8.48,8.48,0,0,1-1.177-4.274ZM8.721,36.2l-.514-.514.514-.514a8.581,8.581,0,0,1,11.165-.815h-5.1a1.329,1.329,0,0,0,0,2.657h5.1A8.551,8.551,0,0,1,8.721,36.2ZM20.943,67.756a1.329,1.329,0,0,1-1.329,1.329H18.95a3.321,3.321,0,1,1,0-6.643h.664a1.329,1.329,0,0,1,1.329,1.329ZM39.65,78.513l-2.9,3.377A18.556,18.556,0,0,1,33,80.585L32.7,79.064a.421.421,0,0,1,.1-.361l.97-1.078a3.6,3.6,0,0,0-1.8-5.9l-1.388-.348L28.626,66.6a1.693,1.693,0,0,1-.127-.647,1.719,1.719,0,0,1,.719-1.4l1.685-1.2a.952.952,0,0,1,1.478.545A1.329,1.329,0,0,0,33.67,64.9h5.313a.416.416,0,0,1,.391.266l1.186,2.961a1.33,1.33,0,0,0,.973.808l2.274.455a.893.893,0,0,1,.592,1.335L42.53,73.838l-.773.257a3.073,3.073,0,0,0-2.107,2.921Zm1.221,3.857c-.334,0-.664-.024-.994-.041l2.11-2.459A1.331,1.331,0,0,0,42.307,79V77.016a.421.421,0,0,1,.289-.4l1.24-.414a1.329,1.329,0,0,0,.719-.576l2.119-3.533a3.549,3.549,0,0,0-2.347-5.309l-1.569-.314-.918-2.292a3.06,3.06,0,0,0-2.858-1.937H34.537a3.608,3.608,0,0,0-5.178-1.055l-1.685,1.2a4.376,4.376,0,0,0-1.506,5.217l2.21,5.4a1.33,1.33,0,0,0,.908.785l2.041.51a.943.943,0,0,1,.471,1.545l-.969,1.076a3.093,3.093,0,0,0-.784,1.923,18.583,18.583,0,0,1-6.85-9.371,3.94,3.94,0,0,0,.406-1.721V63.77a3.964,3.964,0,0,0-1.1-2.735c.066-.453.141-.9.239-1.344H26.63a1.331,1.331,0,0,0,.706-.2l8.258-5.176a1.329,1.329,0,0,0,.623-1.126V50.511l1.021-.013a2.86,2.86,0,0,0,1.6-5.207,18.759,18.759,0,0,1,2.033-.121,18.564,18.564,0,0,1,15.774,8.75l-.983.421L50.486,52.4l-1.195-1.194a4.373,4.373,0,0,0-5.624-.294l-2.186,1.751a2.931,2.931,0,0,0-1.06,2.769l.589,3.532a1.331,1.331,0,0,0,.573.887l3.868,2.579a2.935,2.935,0,0,0,2.337.4l1.164-.291a.276.276,0,0,1,.3.118l2.889,4.546v6.3a3.648,3.648,0,0,0,.843,2.33l.942,1.129A18.623,18.623,0,0,1,40.871,82.37ZM23.545,57.035a18.556,18.556,0,0,1,11.468-10.9l2.282,1.3a.222.222,0,0,1-.1.414l-2.325.031A1.329,1.329,0,0,0,33.56,49.2v3.25l-7.311,4.583Zm35,12.442a18.411,18.411,0,0,1-2.854,5.471l-.674-.808a.979.979,0,0,1-.227-.628V66.821a1.318,1.318,0,0,0-.208-.712l-3.094-4.872a2.917,2.917,0,0,0-3.184-1.272l-1.165.291a.259.259,0,0,1-.217-.036l-3.39-2.26L43.041,55a.275.275,0,0,1,.1-.258l2.186-1.75a1.625,1.625,0,0,1,2.085.1l1.4,1.4a1.327,1.327,0,0,0,.472.306l5.944,2.229a1.339,1.339,0,0,0,.99-.023l1.667-.714a18.55,18.55,0,0,1,1.359,4.755,3.964,3.964,0,0,0-1.1,2.734v3.986a3.939,3.939,0,0,0,.406,1.72ZM40.871,42.514A21.209,21.209,0,0,0,20,59.825a3.9,3.9,0,0,0-.388-.04H18.95a5.9,5.9,0,0,0-1.941.351A21.568,21.568,0,0,1,35.732,39.845a1.329,1.329,0,0,0,1.153-1.317V36.5a11.736,11.736,0,0,0,7.971,0v2.026a1.329,1.329,0,0,0,1.153,1.317A21.679,21.679,0,0,1,64.732,60.135a5.9,5.9,0,0,0-1.94-.351h-.664a3.9,3.9,0,0,0-.388.039,21.209,21.209,0,0,0-20.868-17.31Zm-9.3-17.271V18.423l.72-.1a24.056,24.056,0,0,0,12-5.371,10.427,10.427,0,0,0,5.883,5.3v6.988a9.3,9.3,0,1,1-18.6,0ZM62.792,69.085h-.664A1.329,1.329,0,0,1,60.8,67.756V63.77a1.329,1.329,0,0,1,1.329-1.329h.664a3.321,3.321,0,0,1,0,6.643Zm4.576-9.44A24.358,24.358,0,0,0,47.514,37.393V35.178a11.953,11.953,0,0,0,5.314-9.935V17.271a1.327,1.327,0,0,0-1.007-1.289,7.788,7.788,0,0,1-5.676-5.676,1.328,1.328,0,0,0-2.228-.618,21.352,21.352,0,0,1-12,6l-1.86.266a1.329,1.329,0,0,0-1.141,1.315v7.971a11.953,11.953,0,0,0,5.314,9.935v2.215A24.228,24.228,0,0,0,14.374,59.645a5.686,5.686,0,0,1-.256-9.55A1.329,1.329,0,0,0,14.34,48.1a5.7,5.7,0,0,1-1.522-3.875,5.59,5.59,0,0,1,.83-2.913c.375.037.753.057,1.135.057a11.153,11.153,0,0,0,7.94-3.29l1.453-1.453a1.325,1.325,0,0,0,.389-.939h0V33.632A11.244,11.244,0,0,0,17.8,23.33a4.572,4.572,0,0,1,2.369-2.611,1.329,1.329,0,0,0,.663-1.729,4.517,4.517,0,0,1,3.771-6.3,1.329,1.329,0,0,0,1.2-1.469L25.774,11a1.8,1.8,0,0,1-.029-.266,4.552,4.552,0,0,1,4.547-4.547,4.622,4.622,0,0,1,.806.083,1.327,1.327,0,0,0,1.458-.8,4.539,4.539,0,0,1,7.384-1.5,1.33,1.33,0,0,0,1.86,0,4.539,4.539,0,0,1,7.384,1.5,1.333,1.333,0,0,0,1.458.8,4.622,4.622,0,0,1,.806-.083,4.532,4.532,0,0,1,4.363,3.354A11.158,11.158,0,0,0,55,13.7v2.055a1.325,1.325,0,0,0,.389.939l1.453,1.453a11.145,11.145,0,0,0,5.429,2.989,4.506,4.506,0,0,1,1.951,3.693,4.308,4.308,0,0,1-.487,1.958,11.222,11.222,0,0,0-2.21-.221H59.47A1.329,1.329,0,0,0,58.142,27.9v2.055a11.24,11.24,0,0,0,9.8,11.129,5.6,5.6,0,0,1,.981,3.141A5.7,5.7,0,0,1,67.4,48.1a1.327,1.327,0,0,0,.222,1.993,5.686,5.686,0,0,1-.255,9.552ZM70.1,37.8v.727h-.727A8.579,8.579,0,0,1,60.9,31.209l3.608,3.608a1.328,1.328,0,1,0,1.879-1.879L62.78,29.33A8.579,8.579,0,0,1,70.1,37.8Zm.749-21.529a8.582,8.582,0,0,1-11.166.815h5.1a1.329,1.329,0,0,0,0-2.657h-5.1a8.582,8.582,0,0,1,11.166.815l.514.514Z" transform="translate(0 0)"/>
    </g>
  </g>
</svg>
