<svg xmlns="http://www.w3.org/2000/svg" xmlns:xlink="http://www.w3.org/1999/xlink" width="118" height="118" viewBox="0 0 118 118">
  <defs>
    <filter id="Trazado_895309" x="0" y="0" width="118" height="118" filterUnits="userSpaceOnUse">
      <feOffset dy="3" input="SourceAlpha"/>
      <feGaussianBlur stdDeviation="3" result="blur"/>
      <feFlood flood-opacity="0.161"/>
      <feComposite operator="in" in2="blur"/>
      <feComposite in="SourceGraphic"/>
    </filter>
  </defs>
  <g id="Grupo_1175621" data-name="Grupo 1175621" transform="translate(-736.294 -3014)">
    <g transform="matrix(1, 0, 0, 1, 736.29, 3014)" filter="url(#Trazado_895309)">
      <g id="Trazado_895309-2" data-name="Trazado 895309" transform="translate(9 6)" fill="#e9dea8">
        <path d="M 50.00019836425781 98.49961853027344 L 49.99980163574219 98.49961853027344 C 43.45171356201172 98.49961853027344 37.10028457641602 97.21750640869141 31.1219425201416 94.68887329101562 C 25.34679985046387 92.24620819091797 20.15988540649414 88.74897766113281 15.70525741577148 84.29434967041016 C 11.25064277648926 79.83973693847656 7.753414154052734 74.65280914306641 5.310742855072021 68.87766265869141 C 2.782114267349243 62.89931869506836 1.5 56.54790496826172 1.5 49.99980545043945 C 1.5 43.45170593261719 2.782114267349243 37.10029220581055 5.310742855072021 31.1219482421875 C 7.753414154052734 25.34680557250977 11.25064277648926 20.15989112854004 15.70525741577148 15.70526218414307 C 20.15988540649414 11.25064849853516 25.34679985046387 7.753419876098633 31.1219425201416 5.310748100280762 C 37.10028457641602 2.782119750976562 43.45169830322266 1.500005483627319 49.99980163574219 1.500005483627319 C 56.54830169677734 1.500005483627319 62.89971542358398 2.782119750976562 68.87805938720703 5.310748100280762 C 74.6531982421875 7.753419876098633 79.84011077880859 11.25064849853516 84.29474639892578 15.70526218414307 C 88.74935913085938 20.15989112854004 92.24658203125 25.34680557250977 94.68925476074219 31.1219482421875 C 97.21788787841797 37.10029220581055 98.5 43.45170593261719 98.5 49.99980545043945 C 98.5 56.54790496826172 97.21788787841797 62.89931869506836 94.68925476074219 68.87766265869141 C 92.24658203125 74.65280914306641 88.74935913085938 79.83973693847656 84.29474639892578 84.29434967041016 C 79.84011077880859 88.74897766113281 74.6531982421875 92.24620819091797 68.87805938720703 94.68887329101562 C 62.89971542358398 97.21750640869141 56.54828643798828 98.49961853027344 50.00019836425781 98.49961853027344 Z" stroke="none"/>
        <path d="M 49.99980163574219 3.000007629394531 C 43.65353775024414 3.000007629394531 37.49872207641602 4.24224853515625 31.70627593994141 6.692253112792969 C 26.10993957519531 9.059295654296875 21.08327484130859 12.44857788085938 16.76592254638672 16.76593017578125 C 12.44857025146484 21.08326721191406 9.059310913085938 26.10993194580078 6.692245483398438 31.70628356933594 C 4.24224853515625 37.49871444702148 3 43.65354537963867 3 49.99980545043945 C 3 56.34606552124023 4.24224853515625 62.50089645385742 6.692245483398438 68.29332733154297 C 9.059310913085938 73.88967895507812 12.44857025146484 78.91634368896484 16.76592254638672 83.23368072509766 C 21.08327484130859 87.55103302001953 26.10993957519531 90.94031524658203 31.70627593994141 93.30735778808594 C 37.49872207641602 95.75736236572266 43.65353775024414 96.99960327148438 50.00019836425781 96.99960327148438 C 56.34646224975586 96.99960327148438 62.50129318237305 95.75736236572266 68.29372406005859 93.30735778808594 C 73.89007568359375 90.94031524658203 78.91674041748047 87.55103302001953 83.23407745361328 83.23368072509766 C 87.55142974853516 78.91634368896484 90.94070434570312 73.88967895507812 93.30775451660156 68.29332733154297 C 95.75775146484375 62.50089645385742 97 56.34606552124023 97 49.99980545043945 C 97 43.65354537963867 95.75775146484375 37.49871444702148 93.30775451660156 31.70628356933594 C 90.94070434570312 26.10993194580078 87.55142974853516 21.08326721191406 83.23407745361328 16.76593017578125 C 78.91674041748047 12.44857788085938 73.89007568359375 9.059295654296875 68.29372406005859 6.692253112792969 C 62.50129318237305 4.24224853515625 56.34646224975586 3.000007629394531 50.00019836425781 3.000007629394531 L 49.99980163574219 3.000007629394531 M 49.99980163574219 7.62939453125e-06 L 50.00019836425781 7.62939453125e-06 C 77.61433410644531 7.62939453125e-06 100 22.38566589355469 100 49.99980545043945 C 100 77.61394500732422 77.61433410644531 99.99960327148438 50.00019836425781 99.99960327148438 L 49.99980163574219 99.99960327148438 C 22.38567352294922 99.99960327148438 0 77.61394500732422 0 49.99980545043945 C 0 22.38566589355469 22.38567352294922 7.62939453125e-06 49.99980163574219 7.62939453125e-06 Z" stroke="none" fill="#fff"/>
      </g>
    </g>
    <g id="Grupo_1175635" data-name="Grupo 1175635" transform="translate(754.442 3029.215)">
      <g id="Grupo_1175633" data-name="Grupo 1175633" transform="translate(0 1.318)">
        <g id="Grupo_1175623" data-name="Grupo 1175623" transform="translate(40.852 55.347)">
          <path id="Trazado_938753" data-name="Trazado 938753" d="M70.534,44.318v2.636a1.322,1.322,0,0,1-1.318,1.318H31V43H69.216A1.322,1.322,0,0,1,70.534,44.318Z" transform="translate(-31 -43)" fill="#d3a06c"/>
        </g>
        <g id="Grupo_1175624" data-name="Grupo 1175624" transform="translate(46.123 65.89)">
          <path id="Trazado_938754" data-name="Trazado 938754" d="M66.284,57.866a1.52,1.52,0,0,0,1.45,1.041,1.53,1.53,0,0,1,1.529,1.529v3.743H35l1.028-4.112a1.524,1.524,0,0,1,1.489-1.16h4.441a1.544,1.544,0,0,0,1.371-.843l.474-.949a1.544,1.544,0,0,1,1.371-.843h2.056a1.544,1.544,0,0,0,1.371-.843l1.489-2.965A2.636,2.636,0,0,1,52.448,51H55.5a2.648,2.648,0,0,1,2.5,1.805l.369,1.107a1.52,1.52,0,0,0,1.45,1.041H64.2a1.52,1.52,0,0,1,1.45,1.041Z" transform="translate(-35 -51)" fill="#cf9e76"/>
        </g>
        <g id="Grupo_1175625" data-name="Grupo 1175625" transform="translate(0 52.712)">
          <path id="Trazado_938755" data-name="Trazado 938755" d="M40.852,48.907V59.449a7.913,7.913,0,0,1-7.907,7.907H0V43.636C3.413,43.636,3.413,41,6.813,41s3.413,2.636,6.813,2.636S17.026,41,20.439,41s3.4,2.636,6.8,2.636S30.639,41,34.052,41s3.4,2.636,6.8,2.636Z" transform="translate(0 -41)" fill="#69d6f4"/>
        </g>
        <g id="Grupo_1175626" data-name="Grupo 1175626" transform="translate(26.356 63.254)">
          <path id="Trazado_938756" data-name="Trazado 938756" d="M26.365,50.542a5.271,5.271,0,0,1-3.729,9L20,55.589V52.953L22.636,49A5.3,5.3,0,0,1,26.365,50.542Z" transform="translate(-20 -49)" fill="#fcd770"/>
        </g>
        <g id="Grupo_1175627" data-name="Grupo 1175627" transform="translate(7.907 63.254)">
          <path id="Trazado_938757" data-name="Trazado 938757" d="M24.449,52.953v2.636l-6.022,3A8.934,8.934,0,0,1,7.265,55.958L6,54.271l1.265-1.687A8.987,8.987,0,0,1,14.434,49a8.946,8.946,0,0,1,3.993.949Z" transform="translate(-6 -49)" fill="#fcd770"/>
        </g>
        <g id="Grupo_1175628" data-name="Grupo 1175628" transform="translate(1.318)">
          <circle id="Elipse_11751" data-name="Elipse 11751" cx="24" cy="24" r="24" transform="translate(-0.466 -0.467)" fill="#69d6f4"/>
        </g>
        <g id="Grupo_1175629" data-name="Grupo 1175629" transform="translate(12.809 0)">
          <path id="Trazado_938758" data-name="Trazado 938758" d="M43.179,14.178H38.237a2.9,2.9,0,0,0-2.6,1.608l-1.028,2.056a2.9,2.9,0,0,1-2.6,1.608H30.8a2.919,2.919,0,0,1-2.82-2.188l-.211-.9a2.919,2.919,0,0,0-2.82-2.188H22.9a2.919,2.919,0,0,1-2.82-2.188l-.211-.9a2.919,2.919,0,0,0-2.82-2.188H14.28a2.9,2.9,0,0,1-2.412-1.291l-2.135-3.2L9.72,4.4a23.691,23.691,0,0,1,33.459,9.778Z" transform="translate(-9.72 -1)" fill="#b4dd7f"/>
        </g>
        <g id="Grupo_1175630" data-name="Grupo 1175630" transform="translate(1.318 9.844)">
          <path id="Trazado_938759" data-name="Trazado 938759" d="M23.4,23.4a2.891,2.891,0,0,1-2.9,2.9h-.817a2.9,2.9,0,0,0-2.412,1.291l-.922,1.371a2.9,2.9,0,0,1-2.412,1.291H12.425a2.886,2.886,0,0,1-1.608-.488l-2.5-1.66a2.886,2.886,0,0,0-1.608-.488h-5.1A22.533,22.533,0,0,1,1,22.346,23.619,23.619,0,0,1,5.494,8.47l.013.013,2.57,4.494a2.885,2.885,0,0,0,2.517,1.463h2.636a2.919,2.919,0,0,1,2.82,2.188l.316,1.3a2.9,2.9,0,0,0,2.24,2.135l2.464.5A2.881,2.881,0,0,1,23.4,23.4Z" transform="translate(-1 -8.47)" fill="#b4dd7f"/>
        </g>
        <g id="Grupo_1175631" data-name="Grupo 1175631" transform="translate(8.263 32.945)">
          <path id="Trazado_938760" data-name="Trazado 938760" d="M37.423,27.318h6.826A23.682,23.682,0,0,1,6.27,33.551L9.024,30.8a2.893,2.893,0,0,1,2.043-.843h5.153a2.9,2.9,0,0,0,2.412-1.291l.922-1.371A2.9,2.9,0,0,1,21.965,26h2.161a2.9,2.9,0,0,1,2.412,1.291l.922,1.371a2.9,2.9,0,0,0,2.412,1.291h2.517a2.893,2.893,0,0,0,2.043-.843l.949-.949a2.893,2.893,0,0,1,2.043-.843Z" transform="translate(-6.27 -26)" fill="#b4dd7f"/>
        </g>
        <g id="Grupo_1175632" data-name="Grupo 1175632" transform="translate(42.171 9.225)">
          <path id="Trazado_938761" data-name="Trazado 938761" d="M46.5,39.627a6.591,6.591,0,0,1-6.589-6.589c0-.053.013-.092.013-.132a6.666,6.666,0,0,1-2.7-.013,7.574,7.574,0,0,1-.936-.264,6.582,6.582,0,0,1,0-12.335,5.1,5.1,0,0,1,1.067-5.311,4.98,4.98,0,0,1,1.45-1.12,7.243,7.243,0,0,0,3.018-3.018,5.268,5.268,0,0,1,9.356,0,7.243,7.243,0,0,0,3.018,3.018,5.264,5.264,0,0,1,2.846,4.678,5.506,5.506,0,0,1-.316,1.753,6.58,6.58,0,0,1-.949,12.6,6.666,6.666,0,0,1-2.7.013c0,.04.013.079.013.132A6.591,6.591,0,0,1,46.5,39.627Z" transform="translate(-32.002 -8)" fill="#a0d468"/>
        </g>
      </g>
      <g id="Grupo_1175634" data-name="Grupo 1175634" transform="translate(0)">
        <path id="Trazado_938762" data-name="Trazado 938762" d="M14.826,61.178a10.322,10.322,0,0,0,4.593-1.085l4.976-2.488,2.383,3.573h.705a6.589,6.589,0,0,0,0-13.178h-.705L24.4,51.573,19.42,49.085A10.27,10.27,0,0,0,6.611,52.108L4.75,54.589,6.611,57.07a10.323,10.323,0,0,0,8.215,4.108ZM28.15,50.692a3.954,3.954,0,0,1,0,7.793l-1.986-2.978V53.67Zm-19.431,3a7.631,7.631,0,0,1,9.52-2.247l5.29,2.643v1.007L18.24,57.736a7.633,7.633,0,0,1-9.521-2.247l-.675-.9Z" transform="translate(1.51 15.254)"/>
        <circle id="Elipse_11752" data-name="Elipse 11752" cx="1.5" cy="1.5" r="1.5" transform="translate(12.852 66.852)"/>
        <path id="Trazado_938763" data-name="Trazado 938763" d="M79.068,55.347H57.983V43.367a7.92,7.92,0,0,0,6.48-6.47,7.672,7.672,0,0,0,1.738-.165,7.894,7.894,0,0,0,2.236-14.62,6.016,6.016,0,0,0,.088-1.028,6.572,6.572,0,0,0-3.549-5.847,5.857,5.857,0,0,1-2.464-2.464,6.591,6.591,0,0,0-11.694,0,5.864,5.864,0,0,1-2.464,2.464c-.082.043-.156.1-.235.144a25.064,25.064,0,1,0-.986,21.352,8.917,8.917,0,0,0,1.736.165,7.919,7.919,0,0,0,6.48,6.469v11.98h-14.5a3.671,3.671,0,0,1-2.6-1.042,6.358,6.358,0,0,0-8.419,0,3.752,3.752,0,0,1-5.191,0,6.36,6.36,0,0,0-8.421,0,3.762,3.762,0,0,1-5.2,0,6.212,6.212,0,0,0-4.213-1.593A6.215,6.215,0,0,0,2.6,54.3,3.676,3.676,0,0,1,0,55.347v2.636A6.215,6.215,0,0,0,4.213,56.39a3.765,3.765,0,0,1,5.2,0,6.365,6.365,0,0,0,8.425,0,3.754,3.754,0,0,1,5.192,0,6.358,6.358,0,0,0,8.419,0,3.754,3.754,0,0,1,5.192,0,6.6,6.6,0,0,0,2.891,1.464V72.479a6.6,6.6,0,0,1-6.589,6.589H0V81.7H32.945a9.235,9.235,0,0,0,9.225-9.225V63.254h36.9A2.638,2.638,0,0,0,81.7,60.618V57.983a2.638,2.638,0,0,0-2.636-2.636ZM44.031,13.178H41.323a4.189,4.189,0,0,0-3.769,2.33l-1.034,2.07a1.568,1.568,0,0,1-1.411.871H33.89a1.575,1.575,0,0,1-1.531-1.2l-.221-.882a4.209,4.209,0,0,0-4.089-3.193H25.983a1.575,1.575,0,0,1-1.531-1.2L24.23,11.1a4.209,4.209,0,0,0-4.089-3.193H17.365a1.575,1.575,0,0,1-1.314-.7L14.7,5.182a22.341,22.341,0,0,1,29.329,8Zm-31.6-6.647,1.423,2.134a4.2,4.2,0,0,0,3.505,1.878H20.14a1.575,1.575,0,0,1,1.531,1.2l.221.882a4.209,4.209,0,0,0,4.089,3.193h2.065a1.575,1.575,0,0,1,1.531,1.2l.221.882a4.209,4.209,0,0,0,4.089,3.193h1.219a4.189,4.189,0,0,0,3.769-2.33l1.034-2.07a1.571,1.571,0,0,1,1.413-.871h4.1c.217.481.415.971.6,1.472a6.556,6.556,0,0,0-1.22,3.8,6.042,6.042,0,0,0,.088,1.029A7.922,7.922,0,0,0,41,30.558a7.771,7.771,0,0,0,1.877,3.7H39.415a4.187,4.187,0,0,0-2.98,1.235l-.94.94a1.571,1.571,0,0,1-1.116.461H31.859a1.575,1.575,0,0,1-1.314-.7l-.916-1.373a4.2,4.2,0,0,0-3.505-1.877h-2.17a4.209,4.209,0,0,0-3.507,1.877l-.916,1.373a1.575,1.575,0,0,1-1.314.7H13.061a4.187,4.187,0,0,0-2.98,1.235L8.318,39.9a22.352,22.352,0,0,1-4.69-8.269h3.4a1.574,1.574,0,0,1,.876.265L10.4,33.555a4.2,4.2,0,0,0,2.338.708h1.526a4.209,4.209,0,0,0,3.507-1.877l.916-1.373a1.571,1.571,0,0,1,1.313-.7h.824a4.214,4.214,0,0,0,.828-8.347l-2.463-.493A1.585,1.585,0,0,1,17.965,20.3l-.325-1.3a4.207,4.207,0,0,0-4.088-3.192H10.9a1.581,1.581,0,0,1-1.371-.8L7.4,11.278a22.618,22.618,0,0,1,5.038-4.747ZM5.748,13.7l1.5,2.622A4.225,4.225,0,0,0,10.9,18.449h2.646a1.575,1.575,0,0,1,1.531,1.2l.325,1.3a4.232,4.232,0,0,0,3.263,3.11l2.463.493a1.579,1.579,0,0,1-.31,3.127H20a4.209,4.209,0,0,0-3.507,1.877l-.916,1.373a1.575,1.575,0,0,1-1.314.7H12.738a1.574,1.574,0,0,1-.876-.265L9.368,29.7a4.207,4.207,0,0,0-2.339-.708H3.006a22.471,22.471,0,0,1-.37-3.953A22.23,22.23,0,0,1,5.748,13.7Zm19.29,33.737A22.29,22.29,0,0,1,10.18,41.76L11.943,40a1.572,1.572,0,0,1,1.117-.463h5.157a4.209,4.209,0,0,0,3.507-1.877l.916-1.373a1.571,1.571,0,0,1,1.313-.7h2.17a1.575,1.575,0,0,1,1.314.7l.916,1.373a4.209,4.209,0,0,0,3.507,1.877H34.38a4.187,4.187,0,0,0,2.98-1.235l.94-.94a1.576,1.576,0,0,1,1.117-.461H44a22.5,22.5,0,0,1-18.96,10.542ZM51.386,35.706l.043-1.882-1.606.331a5.416,5.416,0,0,1-2.169,0,5.259,5.259,0,0,1-.743-10.075l1.21-.456L47.687,22.4a3.883,3.883,0,0,1,1.884-4.827,8.5,8.5,0,0,0,3.584-3.584,3.956,3.956,0,0,1,7.019,0,8.5,8.5,0,0,0,3.584,3.584A3.876,3.876,0,0,1,65.642,22.4l-.434,1.219,1.21.456a5.259,5.259,0,0,1-.743,10.075,5.416,5.416,0,0,1-2.169,0L61.9,33.824l.022,1.639c0,.088.012.153.014.117a5.267,5.267,0,0,1-3.953,5.084V29.737l5.95-3.57-1.356-2.26-4.594,2.757v-3.49l-4.339-4.339L51.78,20.7l3.567,3.567v6.352l-4.593-2.756L49.4,30.122l5.949,3.569v6.974a5.228,5.228,0,0,1-3.961-4.959ZM42.169,60.618V57.983h36.9v2.636Z" transform="translate(0)"/>
        <path id="Trazado_938764" data-name="Trazado 938764" d="M68.138,57.907a.212.212,0,0,1-.2-.146L67.316,55.9a2.847,2.847,0,0,0-2.7-1.948h-4.38a.212.212,0,0,1-.2-.146l-.368-1.1a3.948,3.948,0,0,0-3.75-2.7H52.849a3.932,3.932,0,0,0-3.536,2.185L47.83,55.153a.215.215,0,0,1-.191.119h-2.06a2.832,2.832,0,0,0-2.549,1.575l-.47.942a.219.219,0,0,1-.192.119H37.921a2.845,2.845,0,0,0-2.765,2.159l-1.438,5.748H70.987V60.756a2.853,2.853,0,0,0-2.849-2.849Zm.213,5.271H37.1l.618-2.473a.214.214,0,0,1,.208-.162h4.446a2.832,2.832,0,0,0,2.549-1.575l.47-.942a.215.215,0,0,1,.191-.119h2.06a2.832,2.832,0,0,0,2.549-1.575l1.484-2.968a1.313,1.313,0,0,1,1.179-.729h3.061a1.317,1.317,0,0,1,1.251.9l.368,1.1a2.845,2.845,0,0,0,2.7,1.948h4.38a.212.212,0,0,1,.2.146l.619,1.859a2.847,2.847,0,0,0,2.7,1.948.214.214,0,0,1,.213.213Z" transform="translate(10.716 15.89)"/>
        <path id="Trazado_938765" data-name="Trazado 938765" d="M0,0H2.636V1.863H0Z" transform="translate(57.037 77.363) rotate(-45)"/>
        <path id="Trazado_938766" data-name="Trazado 938766" d="M0,0H1.863V2.636H0Z" transform="translate(62.308 72.863) rotate(-45)"/>
        <path id="Trazado_938767" data-name="Trazado 938767" d="M0,0H2.636V1.863H0Z" transform="translate(66.26 74.728) rotate(-45)"/>
        <path id="Trazado_938768" data-name="Trazado 938768" d="M0,0H1.863V2.636H0Z" transform="translate(71.531 75.5) rotate(-45)"/>
      </g>
    </g>
  </g>
</svg>
