<svg xmlns="http://www.w3.org/2000/svg" width="72" height="72" viewBox="0 0 72 72">
  <g id="Grupo_1184983" data-name="Grupo 1184983" transform="translate(-186.538 -5286)">
    <circle id="Elipse_11769" data-name="Elipse 11769" cx="36" cy="36" r="36" transform="translate(186.538 5286)" fill="#0b5b52"/>
    <path id="Trazado_952014" data-name="Trazado 952014" d="M4.652,12.816H6.516A1.937,1.937,0,0,0,8.73,10.648,1.875,1.875,0,0,0,8.2,9.271a2,2,0,0,0-1.488-.533A2.141,2.141,0,0,0,5.35,9.2a1.394,1.394,0,0,0-.58,1.137H.82a4.043,4.043,0,0,1,.75-2.4A4.953,4.953,0,0,1,3.65,6.283a7.112,7.112,0,0,1,2.924-.592,6.988,6.988,0,0,1,4.477,1.3,4.324,4.324,0,0,1,1.629,3.574,3.6,3.6,0,0,1-.674,2.08,4.8,4.8,0,0,1-1.963,1.588,4.587,4.587,0,0,1,2.133,1.494,3.935,3.935,0,0,1,.773,2.479,4.4,4.4,0,0,1-1.758,3.656,7.3,7.3,0,0,1-4.617,1.371A7.567,7.567,0,0,1,3.463,22.6a4.875,4.875,0,0,1-2.174-1.77,4.6,4.6,0,0,1-.738-2.572H4.523a1.778,1.778,0,0,0,.633,1.359,2.234,2.234,0,0,0,1.559.574,2.34,2.34,0,0,0,1.664-.58A1.939,1.939,0,0,0,9,18.125,2.267,2.267,0,0,0,8.355,16.3a2.694,2.694,0,0,0-1.781-.539H4.652ZM26.848,23H14.941V20.422l5.484-5.766q2.027-2.309,2.027-3.668a2.551,2.551,0,0,0-.48-1.676,1.715,1.715,0,0,0-1.395-.574,1.737,1.737,0,0,0-1.465.768,3.155,3.155,0,0,0-.562,1.916H14.59a5.6,5.6,0,0,1,.785-2.9,5.506,5.506,0,0,1,2.18-2.08,6.475,6.475,0,0,1,3.117-.75,6.369,6.369,0,0,1,4.26,1.277,4.56,4.56,0,0,1,1.494,3.668,5.326,5.326,0,0,1-.375,1.963,8.608,8.608,0,0,1-1.166,2,29.372,29.372,0,0,1-2.549,2.807l-2.2,2.543h6.715Zm7.98-13.781a3.349,3.349,0,0,1,1.031-2.555,3.866,3.866,0,0,1,2.766-.973,3.871,3.871,0,0,1,2.777.967,3.438,3.438,0,0,1,1.02,2.619v.844a3.331,3.331,0,0,1-1.02,2.543,3.852,3.852,0,0,1-2.754.961,3.957,3.957,0,0,1-2.771-.955,3.365,3.365,0,0,1-1.049-2.619Zm2.543.9a1.417,1.417,0,0,0,.34.984,1.2,1.2,0,0,0,.938.378q1.23,0,1.23-1.56v-.7a1.493,1.493,0,0,0-.328-1,1.143,1.143,0,0,0-.926-.39,1.168,1.168,0,0,0-.914.378,1.486,1.486,0,0,0-.34,1.031Zm5.566,8.7a3.316,3.316,0,0,1,1.037-2.555,3.9,3.9,0,0,1,2.76-.961,3.941,3.941,0,0,1,2.777.949A3.42,3.42,0,0,1,50.543,18.9v.82a3.345,3.345,0,0,1-1.02,2.555,3.869,3.869,0,0,1-2.766.961,3.957,3.957,0,0,1-2.771-.955,3.365,3.365,0,0,1-1.049-2.619Zm2.531.9a1.386,1.386,0,0,0,.375.961,1.188,1.188,0,0,0,.914.413,1.078,1.078,0,0,0,1.23-1.071l.012-1.2a1.434,1.434,0,0,0-.34-1,1.323,1.323,0,0,0-1.828-.023,1.415,1.415,0,0,0-.363.961ZM39.4,21.723l-1.84-.926L45.891,7.461l1.84.926Z" transform="translate(196.538 5308)" fill="#fff"/>
  </g>
</svg>
