<svg xmlns="http://www.w3.org/2000/svg" width="85" height="85" viewBox="0 0 85 85">
  <g id="Grupo_1177593" data-name="Grupo 1177593" transform="translate(-180.051 -396)">
    <rect id="Rectángulo_430698" data-name="Rectángulo 430698" width="85" height="85" rx="10" transform="translate(180.051 396)" fill="#cee6e3"/>
    <g id="Grupo_1177592" data-name="Grupo 1177592" transform="translate(191.803 399.587)">
      <g id="Grupo_1177590" data-name="Grupo 1177590" transform="translate(1.207 10.473)">
        <path id="Trazado_944696" data-name="Trazado 944696" d="M111.73,22.926a18.254,18.254,0,0,0-6.478,9.177,14.829,14.829,0,0,1,7.728,3.5,18.426,18.426,0,0,0,27.381-3.554,18.418,18.418,0,0,0-28.632-9.12Z" transform="translate(-93.819 -19.225)" fill="#dbea82"/>
        <path id="Trazado_944697" data-name="Trazado 944697" d="M21.281,261.7a18.254,18.254,0,0,0,11.187,1.021,14.828,14.828,0,0,1-.837-8.441,18.426,18.426,0,0,0-16.768-21.936A18.418,18.418,0,0,0,21.281,261.7Z" transform="translate(-10.054 -206.748)" fill="#dbea82"/>
        <path id="Trazado_944698" data-name="Trazado 944698" d="M324.58,236.876a18.254,18.254,0,0,0-4.709-10.2,14.828,14.828,0,0,1-6.891,4.945,18.426,18.426,0,0,0-10.613,25.49,18.418,18.418,0,0,0,22.214-20.236Z" transform="translate(-265.626 -201.763)" fill="#dbea82"/>
      </g>
      <g id="Grupo_1177591" data-name="Grupo 1177591" transform="translate(-0.001 9.278)">
        <path id="Trazado_944699" data-name="Trazado 944699" d="M96.285,24.54a13.585,13.585,0,0,1,7.1,3.21,19.667,19.667,0,0,0,12.1,4.831q.411.017.82.017a19.614,19.614,0,0,0,15.46-7.548,24.577,24.577,0,0,1,3.25,3.558,1.2,1.2,0,1,0,1.925-1.437A27.034,27.034,0,0,0,132.6,22.6a19.69,19.69,0,0,0-2.872-5.462,19.341,19.341,0,0,0-10.231-7.087,19.835,19.835,0,0,0-12.227.417,1.2,1.2,0,1,0,.825,2.256,17.414,17.414,0,0,1,10.735-.365,16.958,16.958,0,0,1,8.971,6.213c.316.424.608.861.882,1.307-.341-.195-.686-.384-1.035-.564a26.507,26.507,0,0,0-11.172-2.921l-2.732-2.409a1.2,1.2,0,0,0-1.588,1.8l.79.7a26.742,26.742,0,0,0-5.369,1.05,1.2,1.2,0,0,0,.7,2.3,24.65,24.65,0,0,1,13.3-.276l-2.888,2.368a1.2,1.2,0,1,0,1.523,1.857l4.078-3.344a24.137,24.137,0,0,1,5.613,3.1,17.216,17.216,0,0,1-24.931,2.41,15.865,15.865,0,0,0-6.916-3.516,17.085,17.085,0,0,1,2.048-3.7,1.2,1.2,0,1,0-1.941-1.415,19.547,19.547,0,0,0-2.857,5.679,1.2,1.2,0,0,0,.98,1.548Z" transform="translate(-83.811 -9.278)"/>
        <path id="Trazado_944700" data-name="Trazado 944700" d="M23.962,200.863A19.626,19.626,0,0,0,7.438,177.636a24.573,24.573,0,0,1,1.456-4.591,1.2,1.2,0,1,0-2.207-.948A27.038,27.038,0,0,0,4.9,178.145,19.693,19.693,0,0,0,1.6,183.363a19.629,19.629,0,0,0,17.986,27.356,19.677,19.677,0,0,0,4.3-.477,1.2,1.2,0,0,0,.851-1.622A13.588,13.588,0,0,1,23.962,200.863Zm-11.056,6.081a17.232,17.232,0,0,1-9.1-22.629c.21-.486.442-.957.691-1.418,0,.393.01.786.03,1.178a26.505,26.505,0,0,0,3.057,11.136l-.72,3.571a1.2,1.2,0,1,0,2.355.475l.208-1.033a26.745,26.745,0,0,0,3.594,4.125,1.2,1.2,0,0,0,1.64-1.755A24.65,24.65,0,0,1,7.769,189.21l3.495,1.317a1.2,1.2,0,0,0,.847-2.248l-4.935-1.86a24.135,24.135,0,0,1-.122-6.411,17.216,17.216,0,0,1,14.553,20.386,15.865,15.865,0,0,0,.413,7.748A16.982,16.982,0,0,1,12.906,206.943Z" transform="translate(0.001 -151.902)"/>
        <path id="Trazado_944701" data-name="Trazado 944701" d="M285.234,227.933a19.4,19.4,0,0,0-5.017-10.868,1.2,1.2,0,0,0-1.831.074,13.585,13.585,0,0,1-6.331,4.547A19.626,19.626,0,0,0,260.2,247.61a24.568,24.568,0,0,1-4.7,1.035,1.2,1.2,0,0,0,.139,2.394,1.217,1.217,0,0,0,.143-.008,27.031,27.031,0,0,0,6.135-1.473,19.512,19.512,0,0,0,3.835.381,20.082,20.082,0,0,0,2.329-.136,19.634,19.634,0,0,0,17.154-21.868Zm-5.966,13.053a17.021,17.021,0,0,1-11.466,6.429c-.525.061-1.05.1-1.573.111.339-.2.676-.4,1.006-.615a26.5,26.5,0,0,0,8.116-8.215l3.452-1.162a1.2,1.2,0,1,0-.766-2.276l-1,.336a26.743,26.743,0,0,0,1.775-5.175,1.2,1.2,0,1,0-2.34-.542,24.65,24.65,0,0,1-6.413,11.659l-.607-3.685a1.2,1.2,0,1,0-2.37.39l.857,5.2a24.135,24.135,0,0,1-5.491,3.311,17.217,17.217,0,0,1,10.379-22.8,15.863,15.863,0,0,0,6.5-4.231,16.98,16.98,0,0,1,3.518,8.492A17.167,17.167,0,0,1,279.268,240.986Z" transform="translate(-223.881 -191.769)"/>
        <circle id="Elipse_11761" data-name="Elipse 11761" cx="1.201" cy="1.201" r="1.201" transform="translate(17.917 3.694)"/>
      </g>
    </g>
  </g>
</svg>
