<svg xmlns="http://www.w3.org/2000/svg" width="42.26" height="45.15" viewBox="0 0 42.26 45.15">
  <path id="Trazado_943643" data-name="Trazado 943643" d="M204.972,150.112h0a2.634,2.634,0,0,0-2.587-2.209h-.025a34.438,34.438,0,0,0-21.69,7.987,16.7,16.7,0,0,0-8.107-12.941h0a2.575,2.575,0,0,0-3.223.428h0a22.1,22.1,0,0,0,.057,30.313,33.315,33.315,0,0,0-.812,4.192,1.074,1.074,0,0,0,.925,1.2,1.021,1.021,0,0,0,.138.006,1.066,1.066,0,0,0,1.057-.932,31.588,31.588,0,0,1,.875-4.33.949.949,0,0,0,.082-.29,32.489,32.489,0,0,1,30.734-23.5h.006a.5.5,0,0,1,.478.4h0a49.693,49.693,0,0,1,.076,15.087.762.762,0,0,0-.031.113,22.821,22.821,0,0,1-27.8,16.95,52.355,52.355,0,0,0,16.6-17.63,1.07,1.07,0,0,0-1.857-1.064,50.763,50.763,0,0,1-17.831,18.083.631.631,0,0,0-.088.05,50.206,50.206,0,0,1-7.389,3.619,1.069,1.069,0,0,0,.39,2.064,1.05,1.05,0,0,0,.39-.076,52.4,52.4,0,0,0,7.326-3.544,24.956,24.956,0,0,0,32.27-17.768,1.052,1.052,0,0,0,.082-.283A51.648,51.648,0,0,0,204.972,150.112ZM174.1,163.178c-.013-1.146-.063-2.209-.151-3.229a54.739,54.739,0,0,0-1.133-7.018,1.07,1.07,0,0,0-2.09.466,51.549,51.549,0,0,1,1.089,6.741,48.329,48.329,0,0,1,.05,6.892,33.913,33.913,0,0,0-1.762,4.249,19.856,19.856,0,0,1,.787-26.442h0a.461.461,0,0,1,.573-.057h0a14.528,14.528,0,0,1,7.119,12.991A34.252,34.252,0,0,0,174.1,163.178Z" transform="translate(-163.352 -142.569)" fill="#128477"/>
</svg>
