<svg xmlns="http://www.w3.org/2000/svg" width="85" height="67" viewBox="0 0 85 67">
  <g id="Grupo_1184993" data-name="Grupo 1184993" transform="translate(-1334.742 -385)">
    <rect id="Rectángulo_438956" data-name="Rectángulo 438956" width="85" height="67" transform="translate(1334.742 385)" fill="#f7f1d8"/>
    <g id="Grupo_1184992" data-name="Grupo 1184992" transform="translate(1345.742 389)">
      <g id="Grupo_1184990" data-name="Grupo 1184990">
        <path id="Trazado_949017" data-name="Trazado 949017" d="M38,56.57a16.117,16.117,0,0,1,2.22-.85A16.512,16.512,0,0,1,45.07,55,16.719,16.719,0,0,1,56.9,59.9L59,62H37l-1.15-1.31a18.176,18.176,0,0,0-1.75-1.76l1.68-1.12A16.107,16.107,0,0,1,38,56.57Z" fill="#cf9e76"/>
        <path id="Trazado_949018" data-name="Trazado 949018" d="M37,62H5l2.26-2.26a19.457,19.457,0,0,1,6.36-4.25A19.576,19.576,0,0,1,34.1,58.93a18.177,18.177,0,0,1,1.75,1.76Z" fill="#cf9e76"/>
        <circle id="Elipse_11770" data-name="Elipse 11770" cx="6" cy="6" r="6" transform="translate(44 8)" fill="#fcd770"/>
        <path id="Trazado_949019" data-name="Trazado 949019" d="M57.03,36.12A3.906,3.906,0,0,1,58,36a4,4,0,0,1,0,8H46.27A8.3,8.3,0,0,0,47,40.6a8.384,8.384,0,0,0-1.48-4.74l-3.11-4.5.32-.22L43,31.1a4.712,4.712,0,0,1,1-.1,4.966,4.966,0,0,1,4,2.03A4.985,4.985,0,0,1,57,36Z" fill="#e6e9ed"/>
        <path id="Trazado_949020" data-name="Trazado 949020" d="M6.97,7.12,7,7a4.985,4.985,0,0,1,9-2.97A4.985,4.985,0,0,1,25,7l.03.12A3.906,3.906,0,0,1,26,7a4,4,0,0,1,0,8H21L17,9l-3.92,6.05L13,15H6A4,4,0,0,1,6,7,3.906,3.906,0,0,1,6.97,7.12Z" fill="#e6e9ed"/>
        <path id="Trazado_949021" data-name="Trazado 949021" d="M46.27,44a8.21,8.21,0,0,1-.61,1.13,8.349,8.349,0,0,1-3.6,3.06L38,50l-4.06-1.81A8.3,8.3,0,0,1,29,40.6a8.384,8.384,0,0,1,1.48-4.74L38,25l4.41,6.36,3.11,4.5A8.384,8.384,0,0,1,47,40.6,8.3,8.3,0,0,1,46.27,44Z" fill="#a0d468"/>
        <path id="Trazado_949022" data-name="Trazado 949022" d="M17,44l-4.97-3.16A13.032,13.032,0,0,1,8.09,22.77l4.99-7.72L17,9l4,6,4.91,7.77a13.037,13.037,0,0,1-3.94,18.07Z" fill="#a0d468"/>
      </g>
      <g id="Grupo_1184991" data-name="Grupo 1184991">
        <path id="Trazado_949023" data-name="Trazado 949023" d="M50,21a7,7,0,1,0-7-7A7.008,7.008,0,0,0,50,21ZM50,9a5,5,0,1,1-5,5A5.006,5.006,0,0,1,50,9Z"/>
        <rect id="Rectángulo_438948" data-name="Rectángulo 438948" width="2" height="4" transform="translate(49 1)"/>
        <rect id="Rectángulo_438949" data-name="Rectángulo 438949" width="2" height="4" transform="matrix(0.707, -0.707, 0.707, 0.707, 40.099, 5.513)"/>
        <rect id="Rectángulo_438950" data-name="Rectángulo 438950" width="4" height="2" transform="translate(37 13)"/>
        <rect id="Rectángulo_438951" data-name="Rectángulo 438951" width="4" height="2" transform="translate(40.1 22.485) rotate(-45)"/>
        <rect id="Rectángulo_438952" data-name="Rectángulo 438952" width="2" height="4" transform="translate(49 23)"/>
        <rect id="Rectángulo_438953" data-name="Rectángulo 438953" width="2" height="4" transform="translate(55.656 21.071) rotate(-45)"/>
        <rect id="Rectángulo_438954" data-name="Rectángulo 438954" width="4" height="2" transform="translate(59 13)"/>
        <rect id="Rectángulo_438955" data-name="Rectángulo 438955" width="4" height="2" transform="translate(55.657 6.929) rotate(-45)"/>
        <path id="Trazado_949024" data-name="Trazado 949024" d="M42.469,49.108A9.292,9.292,0,0,0,46.866,45H58a5,5,0,0,0,0-10c-.03,0-.06,0-.09.005A6,6,0,0,0,52,30a5.91,5.91,0,0,0-4,1.545A5.91,5.91,0,0,0,44,30a5.847,5.847,0,0,0-1.151.111l-.085.013L38,23.243,29.656,35.295a9.315,9.315,0,0,0,3.875,13.814L37,50.65v5.3a18,18,0,0,0-1.771,1.025l-1.051.7A20.591,20.591,0,0,0,21.113,53,20.873,20.873,0,0,0,18,53.257V44.549l4.5-2.866a14.028,14.028,0,0,0,4.252-19.447L22.815,16H26A5,5,0,0,0,26,6c-.03,0-.06,0-.09.005A6,6,0,0,0,20,1a5.91,5.91,0,0,0-4,1.545A5.91,5.91,0,0,0,12,1,6,6,0,0,0,6.09,6.005C6.06,6,6.03,6,6,6A5,5,0,0,0,6,16h5.28L7.251,22.227A14.029,14.029,0,0,0,11.5,41.684L16,44.549v9.112a20.429,20.429,0,0,0-9.443,5.368L4.586,61H1v2H63V61H59.414l-1.805-1.805A17.7,17.7,0,0,0,39,55.077V50.65ZM12.571,40A12.028,12.028,0,0,1,8.93,23.313l8.083-12.491,1.155,1.733,1.664-1.109L16.987,7.179,12.574,14H6A3,3,0,1,1,8.25,9.016l1.5-1.322a5,5,0,0,0-1.694-1.25A3.973,3.973,0,0,1,15.2,4.625L16,5.7l.8-1.076a3.973,3.973,0,0,1,7.142,1.818,5.008,5.008,0,0,0-1.694,1.25l1.5,1.322A3,3,0,1,1,26,14H19.185l5.885,9.312a12.028,12.028,0,0,1-3.641,16.683L18,42.178V37.414l4.707-4.707-1.414-1.414L18,34.586V28.414l4.707-4.707-1.414-1.414L18,25.586V15H16V25.586l-3.293-3.293-1.414,1.414L16,28.414v6.172l-3.293-3.293-1.414,1.414L16,37.414v4.764Zm-4.6,20.447A18.555,18.555,0,0,1,34.762,61H7.414Zm48.224.166.391.391H37.453l-.848-.97c-.291-.333-.6-.651-.9-.962l.638-.425a15.736,15.736,0,0,1,19.856,1.966Zm-9-26.984L48,34.7l.8-1.076a3.973,3.973,0,0,1,7.142,1.818,5.008,5.008,0,0,0-1.694,1.25l1.5,1.322A3,3,0,1,1,58,43H47.668a9.177,9.177,0,0,0-1.324-7.705l-2.272-3.282A4.028,4.028,0,0,1,47.2,33.625ZM34.344,47.28A7.312,7.312,0,0,1,31.3,36.434L38,26.757l6.7,9.677a7.313,7.313,0,0,1-3.043,10.847L39,48.461V44.414l4.707-4.707-1.414-1.414L39,41.586V31H37V41.586l-3.293-3.293-1.414,1.414L37,44.414v4.047Z"/>
      </g>
    </g>
  </g>
</svg>
