<svg xmlns="http://www.w3.org/2000/svg" xmlns:xlink="http://www.w3.org/1999/xlink" width="250.467" height="174.205" viewBox="0 0 250.467 174.205">
  <defs>
    <clipPath id="clip-path">
      <circle id="Elipse_11768" data-name="Elipse 11768" cx="68.127" cy="68.127" r="68.127" fill="none"/>
    </clipPath>
    <linearGradient id="linear-gradient" y1="0.5" x2="1.148" y2="0.5" gradientUnits="objectBoundingBox">
      <stop offset="0.42" stop-color="#008166"/>
      <stop offset="0.57" stop-color="#00685c"/>
      <stop offset="0.75" stop-color="#005053"/>
      <stop offset="0.86" stop-color="#004850"/>
    </linearGradient>
    <linearGradient id="linear-gradient-2" x1="0.038" y1="-0.015" x2="1.108" y2="0.71" xlink:href="#linear-gradient"/>
    <linearGradient id="linear-gradient-3" x1="-1.678" y1="0.64" x2="-0.271" y2="0.64" gradientUnits="objectBoundingBox">
      <stop offset="1" stop-color="#008166"/>
      <stop offset="1" stop-color="#00685c"/>
      <stop offset="1" stop-color="#005053"/>
      <stop offset="1" stop-color="#004850"/>
    </linearGradient>
    <linearGradient id="linear-gradient-4" x1="-1.818" y1="0.648" x2="-0.411" y2="0.648" xlink:href="#linear-gradient-3"/>
    <linearGradient id="linear-gradient-5" x1="-2.582" y1="5.417" x2="-1.598" y2="5.417" xlink:href="#linear-gradient-3"/>
    <linearGradient id="linear-gradient-6" x1="-2.695" y1="5.24" x2="-1.682" y2="5.24" xlink:href="#linear-gradient-3"/>
    <linearGradient id="linear-gradient-7" x1="-134.981" y1="0.874" x2="-125.664" y2="0.127" gradientUnits="objectBoundingBox">
      <stop offset="0" stop-color="#0c4b56"/>
      <stop offset="0.34" stop-color="#317c5b"/>
      <stop offset="0.42" stop-color="#38895b"/>
      <stop offset="0.67" stop-color="#4fb05e"/>
      <stop offset="0.87" stop-color="#5cc860"/>
      <stop offset="1" stop-color="#62d161"/>
    </linearGradient>
    <clipPath id="clip-path-2">
      <path id="Trazado_944810" data-name="Trazado 944810" d="M316.8-162.72c.229,58.968,1.323,124.2.881,186.3a4.56,4.56,0,0,1-.328,2.054,2.263,2.263,0,0,1-1.213.956l-7.564,3.33q.675-73.959,2.007-147.9c.091-5.111,1.288-51.064,1.288-51.064" transform="translate(-308.58 169.04)" fill="none"/>
    </clipPath>
    <linearGradient id="linear-gradient-8" x1="-50.715" y1="0.893" x2="-47.995" y2="0.131" gradientUnits="objectBoundingBox">
      <stop offset="0" stop-color="#0c4b56"/>
      <stop offset="0.45" stop-color="#216d5c"/>
      <stop offset="1" stop-color="#389464"/>
    </linearGradient>
    <linearGradient id="linear-gradient-9" x1="-1.088" y1="4.161" x2="-1.655" y2="3.424" gradientUnits="objectBoundingBox">
      <stop offset="0" stop-color="#0c4b56"/>
      <stop offset="0.34" stop-color="#317c5b"/>
      <stop offset="0.6" stop-color="#499b5d"/>
      <stop offset="0.85" stop-color="#5bb360"/>
      <stop offset="1" stop-color="#62bc61"/>
    </linearGradient>
    <linearGradient id="linear-gradient-10" x1="-0.404" y1="2.365" x2="-0.978" y2="1.655" xlink:href="#linear-gradient-9"/>
    <linearGradient id="linear-gradient-11" x1="1.285" y1="-0.003" x2="0.977" y2="-0.627" xlink:href="#linear-gradient-9"/>
    <linearGradient id="linear-gradient-12" x1="0.682" y1="0.902" x2="0.244" y2="0.082" xlink:href="#linear-gradient-7"/>
    <linearGradient id="linear-gradient-13" x1="0.5" y1="1" x2="0.5" y2="-0.005" gradientUnits="objectBoundingBox">
      <stop offset="0" stop-color="#0f5b5e"/>
      <stop offset="0.42" stop-color="#0e9269"/>
      <stop offset="0.81" stop-color="#0ebf72"/>
      <stop offset="1" stop-color="#0ed176"/>
    </linearGradient>
    <linearGradient id="linear-gradient-14" x1="1.574" y1="-2.437" x2="1.741" y2="-1.174" gradientUnits="objectBoundingBox">
      <stop offset="0.42" stop-color="#006a74"/>
      <stop offset="0.46" stop-color="#006670"/>
      <stop offset="0.79" stop-color="#005058"/>
      <stop offset="1" stop-color="#004850"/>
    </linearGradient>
    <linearGradient id="linear-gradient-15" x1="-28.827" y1="-1.209" x2="-28.827" y2="-0.237" gradientUnits="objectBoundingBox">
      <stop offset="0.42" stop-color="#006a74"/>
      <stop offset="0.45" stop-color="#006670"/>
      <stop offset="0.7" stop-color="#005058"/>
      <stop offset="0.86" stop-color="#004850"/>
    </linearGradient>
    <linearGradient id="linear-gradient-16" x1="-116.669" y1="-1.404" x2="-116.669" y2="-0.46" xlink:href="#linear-gradient-15"/>
    <linearGradient id="linear-gradient-17" x1="-0.618" y1="-2.752" x2="7.751" y2="0.674" xlink:href="#linear-gradient-15"/>
    <linearGradient id="linear-gradient-18" x1="-48.441" y1="-3.805" x2="-48.441" y2="-3.012" xlink:href="#linear-gradient-15"/>
    <linearGradient id="linear-gradient-19" x1="-63.063" y1="-6.505" x2="-63.896" y2="-5.545" xlink:href="#linear-gradient-15"/>
    <linearGradient id="linear-gradient-20" x1="-84.886" y1="-5.921" x2="-84.886" y2="-4.68" xlink:href="#linear-gradient-15"/>
    <linearGradient id="linear-gradient-21" x1="1.589" y1="-8.319" x2="2.339" y2="-6.706" xlink:href="#linear-gradient-15"/>
    <linearGradient id="linear-gradient-22" x1="2.018" y1="-2.201" x2="1.292" y2="-1.053" gradientUnits="objectBoundingBox">
      <stop offset="0.24" stop-color="#006a74"/>
      <stop offset="0.29" stop-color="#006670"/>
      <stop offset="0.64" stop-color="#005058"/>
      <stop offset="0.86" stop-color="#004850"/>
    </linearGradient>
    <linearGradient id="linear-gradient-23" x1="-80.187" y1="-34.082" x2="-82.007" y2="-33.775" gradientUnits="objectBoundingBox">
      <stop offset="0.08" stop-color="#008166"/>
      <stop offset="0.34" stop-color="#00685c"/>
      <stop offset="0.66" stop-color="#005053"/>
      <stop offset="0.86" stop-color="#004850"/>
    </linearGradient>
    <linearGradient id="linear-gradient-24" x1="-74.964" y1="-3.078" x2="-74.799" y2="-1.375" xlink:href="#linear-gradient"/>
    <linearGradient id="linear-gradient-25" x1="-31.095" y1="7.864" x2="-30.31" y2="8.768" gradientUnits="objectBoundingBox">
      <stop offset="0.42" stop-color="#008166"/>
      <stop offset="0.62" stop-color="#00685c"/>
      <stop offset="0.85" stop-color="#005053"/>
      <stop offset="1" stop-color="#004850"/>
    </linearGradient>
    <linearGradient id="linear-gradient-26" x1="-22.609" y1="8.925" x2="-22.609" y2="9.953" xlink:href="#linear-gradient"/>
    <linearGradient id="linear-gradient-27" x1="-549.687" y1="5.382" x2="-503.924" y2="8.284" xlink:href="#linear-gradient"/>
    <linearGradient id="linear-gradient-28" x1="-31.312" y1="11.678" x2="-31.312" y2="12.062" xlink:href="#linear-gradient"/>
    <linearGradient id="linear-gradient-29" x1="-30.743" y1="17.265" x2="-32.081" y2="17.675" xlink:href="#linear-gradient"/>
    <linearGradient id="linear-gradient-30" x1="-23.165" y1="45.091" x2="-23.165" y2="46.96" xlink:href="#linear-gradient"/>
    <linearGradient id="linear-gradient-31" x1="-141.563" y1="16.372" x2="-140.169" y2="16.934" xlink:href="#linear-gradient"/>
    <linearGradient id="linear-gradient-32" x1="-47.189" y1="36.61" x2="-47.675" y2="40.597" xlink:href="#linear-gradient"/>
    <linearGradient id="linear-gradient-33" x1="0.321" y1="0.096" x2="0.814" y2="0.925" gradientUnits="objectBoundingBox">
      <stop offset="0.02" stop-color="#088d61"/>
      <stop offset="0.14" stop-color="#077e5b"/>
      <stop offset="0.52" stop-color="#07574b"/>
      <stop offset="0.82" stop-color="#073f42"/>
      <stop offset="1" stop-color="#07373f"/>
    </linearGradient>
    <linearGradient id="linear-gradient-34" x1="-26.485" y1="1" x2="-26.485" gradientUnits="objectBoundingBox">
      <stop offset="0" stop-color="#0f5b5e"/>
      <stop offset="0.04" stop-color="#0e5d5f"/>
      <stop offset="0.68" stop-color="#0e8a6f"/>
      <stop offset="1" stop-color="#0e9c76"/>
    </linearGradient>
    <linearGradient id="linear-gradient-35" x1="0.5" y1="1.004" x2="0.5" y2="-0.011" xlink:href="#linear-gradient-34"/>
    <linearGradient id="linear-gradient-36" x1="0.5" y1="1.027" x2="0.5" y2="-0.028" xlink:href="#linear-gradient-34"/>
    <linearGradient id="linear-gradient-37" x1="0.5" y1="1.187" x2="0.5" y2="-0.175" xlink:href="#linear-gradient-34"/>
    <linearGradient id="linear-gradient-38" x1="0.5" y1="0.999" x2="0.5" y2="-0.001" xlink:href="#linear-gradient-34"/>
    <linearGradient id="linear-gradient-39" x1="0.499" y1="0.996" x2="0.499" y2="0.003" gradientUnits="objectBoundingBox">
      <stop offset="0" stop-color="#0f5b5e"/>
      <stop offset="0.02" stop-color="#0e5d5f"/>
      <stop offset="0.42" stop-color="#0e8a6f"/>
      <stop offset="0.62" stop-color="#0e9c76"/>
    </linearGradient>
    <linearGradient id="linear-gradient-40" x1="0.5" y1="1" x2="0.5" y2="-0.007" xlink:href="#linear-gradient-34"/>
    <linearGradient id="linear-gradient-41" x1="0.5" y1="1" x2="0.5" y2="-0.007" xlink:href="#linear-gradient-34"/>
    <linearGradient id="linear-gradient-42" x1="0.5" y1="1" x2="0.5" gradientUnits="objectBoundingBox">
      <stop offset="0" stop-color="#0c4b56"/>
      <stop offset="0.29" stop-color="#2b745a"/>
      <stop offset="0.6" stop-color="#499b5d"/>
      <stop offset="0.85" stop-color="#5bb360"/>
      <stop offset="1" stop-color="#62bc61"/>
    </linearGradient>
    <linearGradient id="linear-gradient-43" y1="0.5" x2="1" y2="0.5" gradientUnits="objectBoundingBox">
      <stop offset="0" stop-color="#7ea85a"/>
      <stop offset="0" stop-color="#7ca75a" stop-opacity="0.988"/>
      <stop offset="0.34" stop-color="#47a76c" stop-opacity="0.741"/>
      <stop offset="0.63" stop-color="#20a779" stop-opacity="0.561"/>
      <stop offset="0.86" stop-color="#08a782" stop-opacity="0.439"/>
      <stop offset="1" stop-color="#00a785" stop-opacity="0.4"/>
    </linearGradient>
    <linearGradient id="linear-gradient-44" x1="-66.239" y1="72.711" x2="-65.68" y2="71.419" gradientUnits="objectBoundingBox">
      <stop offset="0" stop-color="#6d9043"/>
      <stop offset="0.57" stop-color="#82ad66"/>
      <stop offset="1" stop-color="#8fc07d"/>
    </linearGradient>
    <linearGradient id="linear-gradient-45" x1="-30.338" y1="20.149" x2="-29.185" y2="19.352" xlink:href="#linear-gradient-44"/>
    <linearGradient id="linear-gradient-46" x1="0" y1="0.5" x2="1" y2="0.5" xlink:href="#linear-gradient-34"/>
    <linearGradient id="linear-gradient-47" x1="0.606" y1="0.741" x2="0.284" y2="-0.047" xlink:href="#linear-gradient-34"/>
    <linearGradient id="linear-gradient-48" x1="0.796" y1="1.259" x2="0.158" y2="-0.003" xlink:href="#linear-gradient-34"/>
    <linearGradient id="linear-gradient-49" x1="0.002" y1="0.501" x2="0.999" y2="0.501" gradientUnits="objectBoundingBox">
      <stop offset="0" stop-color="#0f5b5e"/>
      <stop offset="0" stop-color="#0e6060"/>
      <stop offset="0" stop-color="#0e7668"/>
      <stop offset="0" stop-color="#0e876e"/>
      <stop offset="0" stop-color="#0e9372"/>
      <stop offset="0" stop-color="#0e9a75"/>
      <stop offset="0" stop-color="#0e9c76"/>
    </linearGradient>
    <linearGradient id="linear-gradient-50" x1="0" y1="0.499" x2="1.003" y2="0.499" xlink:href="#linear-gradient-49"/>
    <linearGradient id="linear-gradient-51" x1="0.003" y1="0.499" x2="1.005" y2="0.499" xlink:href="#linear-gradient-49"/>
    <linearGradient id="linear-gradient-52" x1="0.854" y1="0.146" x2="0.146" y2="0.854" gradientUnits="objectBoundingBox">
      <stop offset="0" stop-color="#b1d687"/>
      <stop offset="0.03" stop-color="#aed486"/>
      <stop offset="0.68" stop-color="#7fb57c"/>
      <stop offset="1" stop-color="#6da978"/>
    </linearGradient>
    <linearGradient id="linear-gradient-53" x1="0.843" y1="0.132" x2="0.157" y2="0.865" xlink:href="#linear-gradient-52"/>
    <linearGradient id="linear-gradient-54" x1="0.854" y1="0.146" x2="0.144" y2="0.854" xlink:href="#linear-gradient-52"/>
    <linearGradient id="linear-gradient-55" x1="0.842" y1="0.134" x2="0.158" y2="0.866" xlink:href="#linear-gradient-52"/>
    <linearGradient id="linear-gradient-56" x1="0.842" y1="0.132" x2="0.158" y2="0.866" xlink:href="#linear-gradient-52"/>
    <linearGradient id="linear-gradient-60" x1="0.854" y1="0.144" x2="0.146" y2="0.854" xlink:href="#linear-gradient-52"/>
    <linearGradient id="linear-gradient-62" x1="0.854" y1="0.146" x2="0.149" y2="0.851" xlink:href="#linear-gradient-52"/>
    <linearGradient id="linear-gradient-63" x1="0.854" y1="0.149" x2="0.149" y2="0.854" xlink:href="#linear-gradient-52"/>
    <linearGradient id="linear-gradient-65" x1="0.852" y1="0.143" x2="0.143" y2="0.852" xlink:href="#linear-gradient-52"/>
    <linearGradient id="linear-gradient-66" x1="0.857" y1="0.143" x2="0.148" y2="0.852" xlink:href="#linear-gradient-52"/>
    <linearGradient id="linear-gradient-67" x1="0.852" y1="0.148" x2="0.143" y2="0.857" xlink:href="#linear-gradient-52"/>
    <linearGradient id="linear-gradient-74" x1="0.857" y1="0.148" x2="0.148" y2="0.857" xlink:href="#linear-gradient-52"/>
  </defs>
  <g id="Grupo_1177684" data-name="Grupo 1177684" transform="translate(-180.075 -456)">
    <rect id="Rectángulo_435493" data-name="Rectángulo 435493" width="250.467" height="174.205" transform="translate(180.075 456)" fill="#e5f2f0"/>
    <g id="Grupo_1177683" data-name="Grupo 1177683" transform="translate(12 6.075)">
      <circle id="Elipse_11764" data-name="Elipse 11764" cx="76.5" cy="76.5" r="76.5" transform="translate(217.075 459.925)" fill="#9fcdc8"/>
      <g id="Recurso_1" data-name="Recurso 1" transform="translate(225.178 469.047)">
        <g id="Capa_2" transform="translate(0 0)">
          <g id="OBJECTS">
            <g id="Grupo_1177682" data-name="Grupo 1177682" clip-path="url(#clip-path)">
              <g id="Grupo_1177681" data-name="Grupo 1177681" transform="translate(-25.647 -84.054)">
                <path id="Trazado_944802" data-name="Trazado 944802" d="M-13.135-56.708q-2.743,0-5.55-.174c-17.9-1.126-33.89-10.42-46.245-26.883l.774-.581c8.492,11.316,23.285,25.1,45.534,26.5,17.087,1.07,32.729-2.848,44.049-11.028C34.99-75.789,46.318-98.371,46.433-98.6l.865.431C46.832-97.233,35.748-75.146,26-68.1,15.734-60.677,2-56.708-13.135-56.708Z" transform="translate(64.93 143.709)" fill="url(#linear-gradient)"/>
                <path id="Trazado_944803" data-name="Trazado 944803" d="M247.286-107.867S245.438-97.535,240.8-90.4a96.033,96.033,0,0,1-9.7,12.967c-.265-13.1-.379-24.26-.257-31.781l-2.18-.98c-.146,9.152-.1,23.7.075,40.573-5.02-4.858-9.867-11.6-13.41-16.775-6.027-8.8-8.674-21.685-8.674-21.685l-.486,2.1c-.075-.249,2.86,13.042,7.983,21.661a56.449,56.449,0,0,0,5.261,6.762q4.533,5.6,9.357,11.064c.142,12.829.352,26.851.6,40.775l.071,4.013c.75,41.118,1.813,80.261,2.421,83.876l4.692.881c-.885-5.265-4.29-85.8-5.407-138.107q3.383-4.064,6.577-8.216a45.705,45.705,0,0,0,4.06-5.5c3.914-6.975,5.984-17.632,5.933-17.435l-.427-1.667Z" transform="translate(-99.087 150.721)" fill="url(#linear-gradient-2)"/>
                <path id="Trazado_944804" data-name="Trazado 944804" d="M221.821-127.184c.9-5.522.288-11.083.269-16.637a46.486,46.486,0,0,1,.739-8.536c.494-2.729,1.11-5.439,1.438-8.2,1.323-11.1-.719-22.08-1.612-33.12a46.52,46.52,0,0,1,.186-9.436c.383-3.148.984-6.257,1.252-9.42.028-.324-.5-.379-.569-.063-1.122,5.4-2.176,10.937-1.975,16.479.2,5.522,1.153,11.032,1.671,16.53a99.062,99.062,0,0,1,.454,16.625c-.411,5.538-2.074,10.894-2.271,16.451-.229,6.4.861,12.821-.087,19.2-.047.328.45.458.506.126h0Z" transform="translate(-108.25 212.803)" fill="url(#linear-gradient-3)"/>
                <g id="Grupo_1177640" data-name="Grupo 1177640" transform="translate(139.829 19.892)">
                  <path id="Trazado_944805" data-name="Trazado 944805" d="M293.641-76.824c.9-5.522.288-11.083.269-16.637a46.489,46.489,0,0,1,.739-8.536c.494-2.729,1.11-5.439,1.438-8.2,1.323-11.1-.719-22.08-1.612-33.12a46.524,46.524,0,0,1,.186-9.436c.383-3.148.987-6.257,1.252-9.42.028-.324-.5-.379-.569-.063-1.122,5.4-2.176,10.937-1.975,16.479.2,5.522,1.153,11.032,1.671,16.53a99.064,99.064,0,0,1,.454,16.625c-.411,5.538-2.074,10.894-2.271,16.451-.229,6.4.861,12.821-.087,19.2-.047.328.45.458.506.126Z" transform="translate(-291.531 162.443)" fill="url(#linear-gradient-4)"/>
                  <g id="Grupo_1177639" data-name="Grupo 1177639" transform="translate(0 63.353)">
                    <path id="Trazado_944806" data-name="Trazado 944806" d="M294.9,24.827a2.57,2.57,0,0,0,1.821.671,2.558,2.558,0,0,0-.359-1.908,2.57,2.57,0,0,0-1.821-.671A2.557,2.557,0,0,0,294.9,24.827Z" transform="translate(-292.356 -13.057)" fill="url(#linear-gradient-5)"/>
                    <path id="Trazado_944807" data-name="Trazado 944807" d="M289.375-1.256a2.485,2.485,0,0,0-.194,1.872,2.49,2.49,0,0,0,1.71-.794,2.485,2.485,0,0,0,.194-1.872,2.49,2.49,0,0,0-1.71.794Z" transform="translate(-289.078 2.05)" fill="url(#linear-gradient-6)"/>
                  </g>
                </g>
                <g id="Grupo_1177643" data-name="Grupo 1177643" transform="translate(147.532 17.286)">
                  <path id="Trazado_944808" data-name="Trazado 944808" d="M316.8-162.72c.229,58.968,1.323,124.2.881,186.3a4.56,4.56,0,0,1-.328,2.054,2.263,2.263,0,0,1-1.213.956l-7.564,3.33q.675-73.959,2.007-147.9c.091-5.111,1.288-51.064,1.288-51.064" transform="translate(-308.58 169.04)" fill="url(#linear-gradient-7)"/>
                  <g id="Grupo_1177642" data-name="Grupo 1177642" opacity="0.25">
                    <g id="Grupo_1177641" data-name="Grupo 1177641" clip-path="url(#clip-path-2)">
                      <path id="Trazado_944809" data-name="Trazado 944809" d="M297.313-127.93a48.266,48.266,0,0,0,6.134,3.539,21.836,21.836,0,0,1-6.446.877m11.028,5.83a23.213,23.213,0,0,1-7.963,2.03,12.8,12.8,0,0,0,6.118,1.4m-9.646,5.482a26.184,26.184,0,0,0,5.988-.249,47.374,47.374,0,0,0-7.339-2.6m4.562,9.768h2.986m-1.375,2.295h-2.295m7.315,12.794a14.814,14.814,0,0,1-5.64,1.2q3.265.93,6.545,1.8m-2.2,5.561a32.873,32.873,0,0,1-8.295.707c3.4,1.268,7.133,1.236,10.763,1.193m.012,8.615-14.208.391c-.2,0-.446.051-.482.245a56.3,56.3,0,0,0,19.963,2.536M288.73-57.776a84.961,84.961,0,0,0,20.982-.3Q304.054-59.39,298.4-60.7a40.349,40.349,0,0,0-4.376-.845m11.937,7.58q-3.342.089-6.679.182a7.369,7.369,0,0,0,4.376,1.031l7.122.154m-14.235,6.75a27.081,27.081,0,0,0,7.054-.383,78.177,78.177,0,0,1-10.06-2.978m15.2,18.478-8.9,1.327a27.8,27.8,0,0,0,10.925,1.971m-17.668,8.946a46.715,46.715,0,0,0,10.436-1.691q-4.651-1.315-9.3-2.635M308.246-8.17a61.075,61.075,0,0,1-8.042.845,72.335,72.335,0,0,0,8.954,1.568M289.71-14.588a50.891,50.891,0,0,0,20.788.94,97.464,97.464,0,0,1-14.879-2.512M290.338.291c6.035.194,12.17.375,18.007-1.161a38.525,38.525,0,0,1-12.012-2.516m-6,11.064a103.913,103.913,0,0,0,21.4-2.117q-8.988-1.09-17.98-2.176m13.536,8.765c-2.635.632-5.3,1.153-7.979,1.552a74.488,74.488,0,0,0,10.08,1.185M288.73,21.012a93.243,93.243,0,0,0,16.4-2.046A58.914,58.914,0,0,1,290.8,15.747" transform="translate(-296.571 144.168)" fill="url(#linear-gradient-8)"/>
                    </g>
                  </g>
                </g>
                <path id="Trazado_944811" data-name="Trazado 944811" d="M24.49-43.64s12.087,17.281,3.859,30.284C18.166,2.728-4.075,14.36,5.084,53.507c4.953,21.159,33.238,45.4,67.444,40.265,40.632-6.1,48.283-31.125,65.394-23.727V-43.64Z" transform="translate(23.88 110.457)" fill="none"/>
                <path id="Trazado_944812" data-name="Trazado 944812" d="M260.646,70.93c-.438,5.842,2.441,11.822,3.116,13.133-1.1-.754-2.307-1.525-3.642-2.291l-.028-.016a20.655,20.655,0,0,0-3.978-11.364c.328,6.821,2.706,10.131,3.622,11.162-1.015-.573-2.129-1.153-3.338-1.73-1.07-5.478-6.142-11.66-6.142-11.66a21.973,21.973,0,0,0,5.862,11.526c-1.177-.553-2.437-1.1-3.792-1.619-1.09-7.667-6.644-13.631-6.644-13.631a33.8,33.8,0,0,0,6.494,13.572q-1.1-.421-2.267-.818a25.945,25.945,0,0,0-8.9-11.968c3.061,7.84,6.9,10.866,8.358,11.786-1.311-.431-2.7-.837-4.147-1.209-3.294-6.865-11.368-9.488-11.368-9.488,2.694,4.511,8.935,8.322,10.862,9.357-1.876-.462-3.863-.865-5.964-1.189-.944-.948-6.628-5.747-19.718.62a186.662,186.662,0,0,0,19.161-.411c1.77.257,3.464.573,5.076.936-5.98.126-15.843,4.432-15.843,4.432,7.675,1.4,15.179-3.46,16.408-4.3,2.058.482,3.981,1.035,5.771,1.635-1.442.205-7,1.292-14.457,6.509,0,0,9.977-.541,14.717-6.423q2.174.741,4.084,1.556A40.37,40.37,0,0,0,241.2,86.508s8.864-1.635,12.873-7.414c1.438.612,2.761,1.244,3.97,1.872a23.918,23.918,0,0,0-10.835,6.426s6.968-1.149,10.961-6.359c.636.332,1.244.664,1.817.991q1,.569,1.9,1.145a15.374,15.374,0,0,0-9.456,5.49s6.016-1.343,9.586-5.411c1.3.822,2.457,1.639,3.484,2.413-4.286.6-8.642,4.681-8.642,4.681,5.984-1.379,8.307-4.009,8.761-4.59a35.823,35.823,0,0,1,5.731,5.273l.182-.209a38.85,38.85,0,0,0-7.635-6.663c-.253-10.025-3.255-13.228-3.255-13.228Z" transform="translate(-106.869 45.067)" opacity="0.5" fill="url(#linear-gradient-9)"/>
                <path id="Trazado_944813" data-name="Trazado 944813" d="M90.376,167.656c-.873,7.536,2.544,15.428,3.349,17.162-1.379-1.031-2.907-2.093-4.594-3.156a.159.159,0,0,0-.036-.02,26.779,26.779,0,0,0-4.55-14.915c.067,8.844,2.97,13.252,4.1,14.638-1.288-.794-2.694-1.608-4.23-2.417-1.1-7.149-7.339-15.412-7.339-15.412,1.406,8.867,5.668,13.864,6.983,15.227-1.493-.778-3.1-1.548-4.823-2.295-1.011-9.977-7.888-17.988-7.888-17.988a43.772,43.772,0,0,0,7.694,17.9c-.928-.4-1.9-.794-2.891-1.177a33.582,33.582,0,0,0-10.9-15.954c3.551,10.309,8.358,14.425,10.2,15.689-1.675-.628-3.444-1.228-5.3-1.785-3.9-9.061-14.22-12.877-14.22-12.877,3.251,5.98,11.127,11.237,13.568,12.683-2.4-.7-4.953-1.323-7.659-1.849-1.173-1.276-8.279-7.789-25.556-.229a241.659,241.659,0,0,0,24.821.47c2.279.427,4.452.924,6.521,1.477-7.75-.15-20.741,4.906-20.741,4.906,9.859,2.216,19.828-3.681,21.464-4.708,2.639.731,5.1,1.548,7.382,2.421-1.876.19-9.128,1.307-19.054,7.667,0,0,12.94-.178,19.386-7.54q2.779,1.072,5.2,2.228a52.292,52.292,0,0,0-16.886,9s11.557-1.655,17.052-8.923c1.829.869,3.507,1.754,5.04,2.631a31.022,31.022,0,0,0-14.362,7.75s9.081-1.122,14.52-7.659c.806.466,1.576.924,2.3,1.379.841.529,1.639,1.055,2.4,1.58a19.934,19.934,0,0,0-12.525,6.612s7.856-1.422,12.691-6.5c1.635,1.134,3.1,2.247,4.38,3.306-5.577.557-11.431,5.6-11.431,5.6,7.817-1.469,10.961-4.756,11.581-5.482a46.132,46.132,0,0,1,7.141,7.122l.249-.261a50.241,50.241,0,0,0-9.535-9.025c.2-12.987-3.519-17.289-3.519-17.289Z" transform="translate(3.691 -11.828)" opacity="0.5" fill="url(#linear-gradient-10)"/>
                <path id="Trazado_944814" data-name="Trazado 944814" d="M85.5,241.857h0c-.253.024-.51.047-.762.079-.043,0-.087.012-.13.016-.213.028-.427.055-.64.087l-.17.024c-.205.032-.411.063-.612.1a.11.11,0,0,0-.036,0h0c-.043.008-.083.016-.126.02-.249.043-.5.087-.747.134a5.564,5.564,0,0,1-2.571.083,1.038,1.038,0,0,1-.8-.711.867.867,0,0,1,.628-.885,1.479,1.479,0,0,1,.237-.055.821.821,0,0,1,.091-.012,3.754,3.754,0,0,1,.841.036c.462.055.924.1,1.386.138.111.008.221.02.328.028.427.032.857.063,1.284.083a.758.758,0,0,1,.095,0q.758.036,1.517.047h0q.77.012,1.54,0h0q1.286-.018,2.563-.091a3.848,3.848,0,0,0,1.841-.438A17.813,17.813,0,0,0,87.7,232.7a16.94,16.94,0,0,0-5.238-4.4,7.654,7.654,0,0,0-1.608.806,17.01,17.01,0,0,0-3.2,2.97c-.3.332-.6.668-.908,1h0c-.138.146-.28.292-.423.434l-.028.028c-.122.118-.245.237-.371.348-.039.036-.079.067-.118.1-.107.091-.213.182-.32.269l-.126.1c-.146.115-.3.225-.454.328a2.4,2.4,0,0,1-.9.4,1.15,1.15,0,0,1-.2.012H73.73a.627.627,0,0,1-.146-.024c-.043-.008-.091-.024-.134-.036h0a.821.821,0,0,1-.352-.221,1.007,1.007,0,0,1-.166-.972,2.193,2.193,0,0,1,.569-.849A11.217,11.217,0,0,1,76.736,231c.186-.087.367-.178.553-.269.028-.012.051-.028.079-.04a7.672,7.672,0,0,0,2.508-1.809,3.9,3.9,0,0,0,.782-1.513c-1.793-.841-3.733-1.6-5.885-2.654q-1.41-.687-2.812-1.4a8.407,8.407,0,0,0-1.489,2.176h0c-.095.194-.178.395-.261.6-.016.036-.028.071-.043.107-.079.205-.154.411-.217.62a8.789,8.789,0,0,1-.446,1.307,1.984,1.984,0,0,1-.932.984,1.126,1.126,0,0,1-1.276-.221,1.3,1.3,0,0,1,.087-1.576,6,6,0,0,1,1.3-1.09c.146-.111.284-.225.419-.348l.008-.008a6.776,6.776,0,0,0,1.916-3.022,62.1,62.1,0,0,1-6.806-4.009c-.241-.166-.482-.324-.731-.474a8.065,8.065,0,0,0-.391,2.251,3.857,3.857,0,0,1-.217,1.6,1.009,1.009,0,0,1-1.331.541,1.032,1.032,0,0,1-.284-1.217,6.619,6.619,0,0,1,.7-1.149c.055-.087.1-.178.15-.269a3.8,3.8,0,0,0,.34-2.323c-3.515-1.805-5.929-3.4-9.255-3.44-.348,0,1.015,6.762,1.023,10.127a3.753,3.753,0,0,0,.66.288,7.192,7.192,0,0,0,.826.2h0c.249.047.5.091.75.134.2.036.395.071.589.115a3.415,3.415,0,0,1,1.924,1.015,1.051,1.051,0,0,1,.209,1.193.963.963,0,0,1-1.232.19c-.024-.012-.043-.032-.067-.043h0a5.138,5.138,0,0,1-.944-.865,5,5,0,0,0-2.729-1.386,46.115,46.115,0,0,1-1,7.481,7.8,7.8,0,0,0,2.635,1.394c.063.02.126.04.19.055.087.024.174.043.257.067l.269.059c.067.012.134.028.2.04.162.028.328.051.49.067.723.071,1.461.043,2.176.158h0c.091.016.182.032.269.051a2.578,2.578,0,0,1,.288.075,1.718,1.718,0,0,1,.814.466,1.055,1.055,0,0,1,.186.332h.008a.752.752,0,0,1-.012.541.871.871,0,0,1-.7.466,2.186,2.186,0,0,1-.869-.118c-.174-.051-.348-.111-.517-.17l-.091-.036c-.142-.051-.28-.107-.419-.162-.008,0-.012,0-.02-.008-1-.411-1.963-.936-2.978-1.323a7.331,7.331,0,0,0-2.473-.525c-.7,3.231-1.461,6.261-1.73,8.583a15.582,15.582,0,0,0-.028,4.653,22.2,22.2,0,0,1,2.891-1.967c.091-.051.178-.1.269-.15.158-.083.32-.166.486-.245a9.512,9.512,0,0,1,6.083-.932,2.45,2.45,0,0,1,1.347.664,1.083,1.083,0,0,1,.1,1.39,1.128,1.128,0,0,1-.9.324,3.885,3.885,0,0,1-.964-.225,10.757,10.757,0,0,0-4.345-.51c-.178.02-.352.043-.525.075s-.328.063-.49.1a.05.05,0,0,0-.024,0,6.622,6.622,0,0,0-2.935,1.54,5.451,5.451,0,0,0-.774.9c.675,2.484,2.421,5.2,6.592,7.276a18.607,18.607,0,0,0,1.991.853,6.855,6.855,0,0,0,2.354-1.963,18.022,18.022,0,0,0,1.6-2.872h0c.1-.205.209-.407.32-.608.028-.047.051-.095.079-.142.122-.217.249-.435.391-.644a2.678,2.678,0,0,1,.924-.932,1.143,1.143,0,0,1,1.248.071A1.187,1.187,0,0,1,67.1,250.8a3.554,3.554,0,0,1-.861,1.126q-1.991,1.973-3.985,3.942a8.138,8.138,0,0,0-.984,1.106c5.672,1.454,11.028-1.458,10.811-3.519-.577-5.392,1.1-5.613,1.145-5.625l.924,2.263,1.126,3.065.565,1.533c.182.513.336,1.035.51,1.548l1.019,3.1c.671,2.074,1.213,4.183,1.86,6.268-.237-1.062-.482-2.129-.735-3.188l-.375-1.6-.19-.8-.217-.79-.908-3.148c-.154-.525-.3-1.051-.466-1.572l-.529-1.552-1.063-3.1-.908-2.212c2-.1,2.824,2.627,4.511,4,1.26,1.023,3.823,1.2,6.32.553-.431-.411-.829-.861-1.248-1.284a15.172,15.172,0,0,0-2.658-2.133h0c-.205-.13-.415-.257-.624-.375-.02-.012-.039-.024-.063-.036-.217-.122-.438-.241-.664-.352-.4-.2-.865-.454-.908-.9-.043-.427.363-.782.778-.889a1.662,1.662,0,0,1,.194-.036h.012a1.886,1.886,0,0,1,.577.036h.008a2.882,2.882,0,0,1,1.58,1.106c.553.739.869,1.631,1.379,2.4a5.635,5.635,0,0,0,2.694,2.129,8.027,8.027,0,0,0,4.839-4.029,11.957,11.957,0,0,0,.916-5.206,10.742,10.742,0,0,0-3.871-.845,17.817,17.817,0,0,0-2.105.055Zm-23.083-5.613a1,1,0,0,1,.075-.178,1.3,1.3,0,0,1,1.58-.549,1.347,1.347,0,0,1,.8,1.695,1.116,1.116,0,0,1-.111.229h0a1.244,1.244,0,0,1-1.683.45,1.393,1.393,0,0,1-.664-1.643h0Z" transform="translate(-5.199 -45.63)" opacity="0.8" fill="url(#linear-gradient-11)"/>
                <g id="Grupo_1177644" data-name="Grupo 1177644" transform="translate(80.363 115.693)">
                  <path id="Trazado_944815" data-name="Trazado 944815" d="M194.112,107.631s-2.22,4.215-2.536,6.055S185,127.42,180.429,123.379s3.531-3.985,6.553-7.382,6.628-8.591,3.673-12.213a72.532,72.532,0,0,1-5.265-7.469s-1.359,5.107-1.947,8.923-3.989,3.91-4.957,2.457,2.283-4.2,3.669-7.141,3.168-5.4-.557-8.074a46.873,46.873,0,0,1-6.624-5.881,24.175,24.175,0,0,0,.067,6.233c.521,2.457-.15,9.44-3.954,9.187s.47-5.06,1.292-7.485.6-10.108-2.765-10.554-5.881,0-7.027-1.221a6.331,6.331,0,0,1,.059,5.151c-1.185,2.9,2.9,7.469.7,9.993s-5.814-2.765-4.29-5.68,2.421-7.355.533-8.962a10.235,10.235,0,0,0-10.451-.936C144.88,84.291,140.2,80.1,140.2,80.1s2.287,5.538,1.45,8.433-1.821,7.386.6,8.623,8.737,1.039,9.18,3.954-3.231,3.432-5.866,1.082S139.4,99.9,138.9,98.467a49.086,49.086,0,0,1-.269,7.394c-.442,2.966.292,6.509,5.858,7.169s9.278.288,9.44,3.46-3.764,2.994-6.434,2.03-5.392-5.012-8.721-3.543a12.039,12.039,0,0,1,1.5,4.606c.288,2.662.265,4.139,2.974,5.7,0,0,0,0,.012.012l.016,0c3.14,1.426,7.7,1.6,12.292.265,5.111-1.485,8.95.972,9.274,1.892.735,2.137-2.105,2.966-5.2,2.737a55.418,55.418,0,0,1-6.486-.758c-2.362-.415-5.139,3.069-5.139,3.069s3.373,2.263,7.181,5.463,19.666,8.417,19.307-8.86a19.075,19.075,0,0,0,16.534-.64c8.378-4.633,2.777-16.017,3.069-20.836ZM151.6,89.58c-1.833-2.686.565-7.133,2.39-5.2C155.509,86,153.436,92.266,151.6,89.58Zm10.649,28.688c-1.311,2.887-6.146-.051-5.411-3.1C157.37,112.935,163.563,115.384,162.252,118.268Zm13.682-3.037c-2.283.873-2.7-1.841-1.643-3.227s2.137-2.117,3.334-1.4C179.355,111.636,178.217,114.353,175.934,115.23Z" transform="translate(-138.528 -80.1)" fill="url(#linear-gradient-12)"/>
                  <path id="Trazado_944816" data-name="Trazado 944816" d="M195.229,155.811a77.559,77.559,0,0,1-6.754-10.53c-2.84-5.06-5.411-10.258-7.951-15.472-2.366-4.854-4.87-9.65-7.651-14.283a103.893,103.893,0,0,0-8.239-11.9,81.681,81.681,0,0,0-9.665-10.1q-.681-.6-1.39-1.165c-.2-.158-.474.1-.284.284,1.706,1.663,3.413,3.31,5.068,5.02s3.18,3.421,4.669,5.222a106.2,106.2,0,0,1,8.291,11.648c2.8,4.519,5.317,9.211,7.686,13.971,2.623,5.265,5.206,10.546,8.062,15.689A93.913,93.913,0,0,0,194,155.282c.253.332.506.664.77.987s.715-.134.458-.458h0Z" transform="translate(-147.423 -87.49)" fill="url(#linear-gradient-13)"/>
                </g>
                <g id="Grupo_1177645" data-name="Grupo 1177645" transform="translate(67.314 156.855)">
                  <path id="Trazado_944817" data-name="Trazado 944817" d="M211.72,233.6a44.663,44.663,0,0,1,2.99-10.712,20.9,20.9,0,0,1,5.447-8.469c6.142-5.585,14.306-9,22.072-11.956q-6.34,4.923-12.675,9.851c-5.83,4.531-12.493,9.574-14.8,16.767a34.607,34.607,0,0,0-1.173,6.095" transform="translate(-169.76 -195.291)" fill="url(#linear-gradient-14)"/>
                  <path id="Trazado_944818" data-name="Trazado 944818" d="M155.472,228.489c-2.56,3.16-5.178,4.1-6.051,7.963,4.815-18.845,17.036-28.625,18.106-48.042-7.256,17.581-12.118,27.661-20.093,44.476,6.81-15.44,5.937-34.04-4.033-48.576a119.358,119.358,0,0,1,2.571,48.647c.209-4.542-.948-7.532-2.338-11.952a47.522,47.522,0,0,0-10.617-18.3c-2.342-2.4-4.38-5.155-7.086-7.248.024.7,5.613,9.819,7.126,12.174,2.07,3.231,3.974,7.647,5.668,11.04a82.816,82.816,0,0,1,5.21,12.7c.111.359.217.719.312,1.082,0,0-3.3-4.756-5.668-7.453q-8.39-9.569-16.775-19.133a41.794,41.794,0,0,0,12.588,19.26c2.832,2.484,6.221,4.977,6.853,8.441-4.941-4.388-10.017-8.761-16.009-11.9s-13.07-4.973-19.745-3.847c6.387,1.41,12.817,2.828,18.861,5.23s11.743,5.87,15.653,10.673a79.553,79.553,0,0,0-22.775-6.671c-3.2-.434-6.624-.648-9.468.632,20.761,2.176,29.174,7.528,29.174,7.528s-10.183-3.081-15.373-2.658c-1.955.162-4.266,1.011-4.329,2.773a78.836,78.836,0,0,1,32.741,5.719" transform="translate(-105.49 -184.31)" fill="url(#linear-gradient-15)"/>
                  <path id="Trazado_944819" data-name="Trazado 944819" d="M184.116,234.721c1.588-4.562,1.458-9.5,1.311-14.322a34.593,34.593,0,0,0-.407-5.107,28.989,28.989,0,0,0-1.888-5.949,73.146,73.146,0,0,0-3.152-6.636A152.568,152.568,0,0,0,169.94,187.2a222.7,222.7,0,0,1,9.685,20.772,49.5,49.5,0,0,1,1.908,5.36c.462,1.683.758,3.393,1.055,5.1q1.262,7.288,2.524,14.579" transform="translate(-144.483 -186.059)" fill="url(#linear-gradient-16)"/>
                  <path id="Trazado_944820" data-name="Trazado 944820" d="M170.652,255.472c-3.9-11.419-11.775-21.5-20.172-30.892a7.746,7.746,0,0,0,.561,1.292c2.97,5.806,6.881,11.2,10.771,16.57q1.274,1.754,2.544,3.507c3.014,4.155,5.372,6.7,6.889,11.352-.194-.612-.383-1.22-.592-1.829Z" transform="translate(-132.71 -208.674)" fill="url(#linear-gradient-17)"/>
                  <path id="Trazado_944821" data-name="Trazado 944821" d="M143.595,283.636c-2.84-2.461-4.925-5.506-7.6-8.1-3.547-3.44-8.33-6.612-13.6-7.106a16.812,16.812,0,0,0-3.567.107,28.7,28.7,0,0,0-10.953,3.63q2.257-.438,4.523-.869c5.076-.96,10.562-1.837,15.393.087a26.866,26.866,0,0,1,3.9,2.066,33.612,33.612,0,0,1,4.25,3.428c3.255,2.82,5.028,6.363,8.706,8.725" transform="translate(-106.936 -235.171)" fill="url(#linear-gradient-18)"/>
                  <path id="Trazado_944822" data-name="Trazado 944822" d="M150.912,295.424a19.146,19.146,0,0,0-2.962-4.7,10.244,10.244,0,0,0-7.817-5.068,19.7,19.7,0,0,0-3.875-.4,23.52,23.52,0,0,0-4.874.766,24.09,24.09,0,0,0-4.993,1.536,22.087,22.087,0,0,0-3.662,2.386l10.992-2.323c2.386-.5,4.89-1.007,7.3-.423a16.345,16.345,0,0,1,4.538,2.153c1.339.814,4.72,5.913,4.72,5.913" transform="translate(-115.92 -245.383)" fill="url(#linear-gradient-19)"/>
                  <path id="Trazado_944823" data-name="Trazado 944823" d="M221.567,275.979a42.028,42.028,0,0,1,6.671-6.261,21.78,21.78,0,0,1,13.019-3.883,1.575,1.575,0,0,1,1.367.533,21.044,21.044,0,0,0-3.76.774,39.415,39.415,0,0,0-3.772,1.414c-5.4,2.255-10.969,4.894-14.4,9.634" transform="translate(-175.187 -233.628)" fill="url(#linear-gradient-20)"/>
                  <path id="Trazado_944824" data-name="Trazado 944824" d="M152.811,304.187a17.913,17.913,0,0,0-15.326-7.683c-4.092.182-8.05,1.789-12.146,1.7,5.976,2.828,13.248.13,19.576,2.046a18.619,18.619,0,0,1,7.264,4.483" transform="translate(-117.499 -252.179)" fill="url(#linear-gradient-21)"/>
                  <path id="Trazado_944825" data-name="Trazado 944825" d="M202.59,260.912c.573-4.191,2.615-10.384,4.033-14.37a13.423,13.423,0,0,1,1.189-2.65,12.472,12.472,0,0,1,2.567-2.808c6.64-5.719,15.175-8.729,22.384-13.714a2.5,2.5,0,0,1-.956,2.172c-4.037,4.108-9.918,5.794-14.528,9.251-6.482,4.858-9.586,15.756-13.568,22.81" transform="translate(-164.237 -210.362)" fill="url(#linear-gradient-22)"/>
                </g>
                <g id="Grupo_1177646" data-name="Grupo 1177646" transform="translate(124.409 130.177)">
                  <path id="Trazado_944826" data-name="Trazado 944826" d="M320.338,149.763a20.9,20.9,0,0,0,2.9-5.411,15.908,15.908,0,0,0,1.631-6.34,17.53,17.53,0,0,0-.79-4.483,27.029,27.029,0,0,0-1.54-4.369,31.056,31.056,0,0,0-3.116-4.9,30.334,30.334,0,0,0-3.887-4.661,25.114,25.114,0,0,0-4.021-2.828q3.786,5.386,7.576,10.771c1.643,2.334,3.346,4.8,3.989,7.671a21.577,21.577,0,0,1,.241,5.913c-.095,1.829-3.156,7.88-3.156,7.88" transform="translate(-287.23 -116.77)" fill="url(#linear-gradient-23)"/>
                  <path id="Trazado_944827" data-name="Trazado 944827" d="M282.029,183.569c-1.252-2.263-5.1-6.644-6.679-8.63a18.394,18.394,0,0,0-4.827-4.531c-4.329-2.635-8.962-3.626-13.283-4.388l8.469,4.384c3.895,2.018,8.307,4.238,11.364,8.413.841,1.145,6.794,7.41,7.493,8.658" transform="translate(-254.396 -146.567)" fill="url(#linear-gradient-24)"/>
                  <path id="Trazado_944828" data-name="Trazado 944828" d="M274.225,161.419c2.789.292,5.775-.517,8.085.94-11.542-6.841-22.273-5.648-32.27-14.595,12.114,5.036,19.406,7.576,31.5,11.889-10.542-5.952-19.5-13.706-21.732-25.658a82.361,82.361,0,0,0,22.479,24.979c-2.315-2.113-3.211-4.136-4.692-6.972a32.751,32.751,0,0,1-3.748-14.1,49.707,49.707,0,0,1-.079-6.991c.328.352,2.05,7.528,2.465,9.413.565,2.587,1.793,5.668,2.623,8.149a57.323,57.323,0,0,0,3.654,8.737c.122.229.245.454.375.679,0,0-.711-3.93-.873-6.4q-.575-8.757-1.153-17.514a28.848,28.848,0,0,1,3.259,15.535c-.17,2.6-.608,5.463.774,7.461a56.387,56.387,0,0,1,2-13.615c1.39-4.455,3.95-8.8,7.754-11.51A84.189,84.189,0,0,0,287.99,143.6a26.308,26.308,0,0,0-2.425,12.841,54.842,54.842,0,0,1,7.852-14.366c1.351-1.777,2.915-3.547,4.925-4.309-9.061,11.19-10.558,17.9-10.558,17.9s3.464-6.47,6.2-8.8c1.031-.877,2.575-1.588,3.464-.758a54.366,54.366,0,0,0-13.177,18.758" transform="translate(-250.04 -125.325)" fill="url(#linear-gradient-25)"/>
                  <path id="Trazado_944829" data-name="Trazado 944829" d="M307.82,154.824c-3-1.45-5.344-3.918-7.627-6.347a24.475,24.475,0,0,1-2.295-2.69,20.1,20.1,0,0,1-1.979-3.82,50.3,50.3,0,0,1-1.7-4.775,105.957,105.957,0,0,1-2.67-12.462,152.983,152.983,0,0,0,5.411,14.855,33.87,33.87,0,0,0,1.687,3.543c.6,1.047,1.284,2.026,1.975,3q2.939,4.171,5.881,8.342" transform="translate(-275.154 -121.586)" fill="url(#linear-gradient-26)"/>
                  <path id="Trazado_944830" data-name="Trazado 944830" d="M323.556,154.826c-2.619-7.9-2.907-20.314-2.212-28.976.111.3.577,4.211.632,4.534a89.114,89.114,0,0,1,1,13.6c.024,1,.043,1.991.067,2.986.079,3.539-.158,5.925.952,9.108-.15-.415-.3-.829-.438-1.252Z" transform="translate(-292.984 -122.264)" fill="url(#linear-gradient-27)"/>
                  <path id="Trazado_944831" data-name="Trazado 944831" d="M335.791,161.762c.186-2.587-.284-5.087-.245-7.659.051-3.409.837-7.288,3.164-10.1a11.3,11.3,0,0,1,1.789-1.687,19.866,19.866,0,0,1,7.114-3.571q-1.315.889-2.631,1.781c-2.943,2.007-6.047,4.254-7.465,7.552a18.911,18.911,0,0,0-.9,2.911,23.042,23.042,0,0,0-.4,3.744c-.209,2.962.652,5.557.012,8.5" transform="translate(-301.771 -130.068)" fill="url(#linear-gradient-28)"/>
                  <path id="Trazado_944832" data-name="Trazado 944832" d="M338.611,171.728a13.307,13.307,0,0,1-.849-3.741A7.079,7.079,0,0,1,339.1,161.7a13.675,13.675,0,0,1,1.694-2.086,16.25,16.25,0,0,1,2.753-2.007,16.536,16.536,0,0,1,3.184-1.687,15.341,15.341,0,0,1,2.951-.624l-6.494,4.23a11.422,11.422,0,0,0-3.764,3.353,11.178,11.178,0,0,0-1.161,3.263c-.253,1.051.585,5.186.585,5.186" transform="translate(-303.007 -140.081)" fill="url(#linear-gradient-29)"/>
                  <path id="Trazado_944833" data-name="Trazado 944833" d="M295.743,204.966a29.023,29.023,0,0,0-6.308.2,15.023,15.023,0,0,0-8.243,4.459,1.094,1.094,0,0,0-.407.928A14.654,14.654,0,0,1,283,209.1a26.956,26.956,0,0,1,2.528-1.149c3.733-1.537,7.738-2.962,11.723-2.326" transform="translate(-268.631 -170.085)" fill="url(#linear-gradient-30)"/>
                  <path id="Trazado_944834" data-name="Trazado 944834" d="M343.3,176.338c-.774-4.045.849-9.476,3.887-12.253,2.086-1.908,4.8-3.053,6.754-5.1-1.533,4.294-6.4,6.525-8.548,10.546-.936,1.746-1.221,4.823-1.268,6.8" transform="translate(-306.345 -142.314)" fill="url(#linear-gradient-31)"/>
                  <path id="Trazado_944835" data-name="Trazado 944835" d="M289.052,192.614a58.955,58.955,0,0,0-8.978-5.04,9.432,9.432,0,0,0-1.872-.715,8.584,8.584,0,0,0-2.623-.119c-6.027.45-11.66,3.144-17.609,4.23a1.719,1.719,0,0,0,1.525.592c3.974.036,7.667-2.014,11.6-2.575,5.53-.79,12.363,3.006,17.747,4.507" transform="translate(-254.838 -159.076)" fill="url(#linear-gradient-32)"/>
                </g>
                <g id="Grupo_1177647" data-name="Grupo 1177647" transform="translate(136.092 156.06)">
                  <path id="Trazado_944836" data-name="Trazado 944836" d="M316.013,190.526c-.762-1.924-2.279-3.859-4.345-3.914a4.457,4.457,0,0,0-3.863,2.7,12.414,12.414,0,0,0-.928,4.858,18.308,18.308,0,0,0-3.851-9.31c-1.2-1.5-2.982-2.915-4.85-2.481-2.153.5-3.03,3.085-3.2,5.289a22.28,22.28,0,0,0,2.145,11.36c-.557-1.153-4.463-2.721-5.668-2.721-2.99,0-1.323,4.989-.845,6.766-.111-.071-.221-.15-.332-.221a15.1,15.1,0,0,0-7-2.749c-1.493-.091-3.314.486-3.614,1.951a3.433,3.433,0,0,0,1.272,2.891c3.314,3.361,8.006,4.787,12.711,5.636-.687,3.78-4.005,9.231-1.363,10.278l18.181-3.089c3.026-3.116,3.583-10.479,5.178-14.52a17.5,17.5,0,0,0,.383-12.719Z" transform="translate(-279.618 -182.298)" fill="url(#linear-gradient-33)"/>
                  <path id="Trazado_944837" data-name="Trazado 944837" d="M289.587,236.829a39.811,39.811,0,0,1,11.865,5.392c1.023.687,1.983,1.458,2.982,2.172.115.083.249-.1.15-.194a21.727,21.727,0,0,0-2.579-2c-.889-.612-1.845-1.213-2.808-1.758a37.266,37.266,0,0,0-5.98-2.725,36.528,36.528,0,0,0-3.583-1.062.092.092,0,0,0-.047.178h0Z" transform="translate(-285.608 -215.183)" fill="#084c61"/>
                  <path id="Trazado_944838" data-name="Trazado 944838" d="M315.115,228.176c2.694,2.279,5.4,4.692,7.185,7.777a25.72,25.72,0,0,1,1.244,2.678c.063.15.284.04.253-.107a9.5,9.5,0,0,0-1.007-2.445,16.99,16.99,0,0,0-1.454-2.2A28.339,28.339,0,0,0,317.611,230c-.766-.675-1.556-1.323-2.35-1.963-.1-.079-.241.059-.142.142h0Z" transform="translate(-301.076 -209.955)" fill="#084c61"/>
                  <path id="Trazado_944839" data-name="Trazado 944839" d="M325.731,194.428a22.074,22.074,0,0,1,4.787,7.359,35.576,35.576,0,0,1,2.267,9.282c.221,1.884.355,3.788.47,5.68a.113.113,0,0,0,.225,0,46.706,46.706,0,0,0-1.035-10.131,27.22,27.22,0,0,0-3.4-8.5,19.764,19.764,0,0,0-3.156-3.839c-.1-.095-.253.055-.154.154Z" transform="translate(-307.497 -189.525)" fill="#084c61"/>
                </g>
                <g id="Grupo_1177662" data-name="Grupo 1177662" transform="translate(148.812 141.691)">
                  <path id="Trazado_944840" data-name="Trazado 944840" d="M321.3,169.262a.143.143,0,0,0-.016.158s.265.541.644,1.469l.154.387a42.6,42.6,0,0,1,1.56,4.835c1.177,4.59,1.722,14.4-1.876,24.082a41.473,41.473,0,0,1-5.889,10.135,9.585,9.585,0,0,0-.442,1.086c11.49-11.992,10.056-29.051,8.437-35.375a41.626,41.626,0,0,0-1.568-4.866l-.154-.387c-.387-.948-.656-1.493-.656-1.5a.113.113,0,0,0-.162-.055.174.174,0,0,0-.028.024Z" transform="translate(-314.004 -160.016)" fill="#dd4926"/>
                  <g id="Grupo_1177649" data-name="Grupo 1177649" transform="translate(2.014 0)">
                    <g id="Grupo_1177648" data-name="Grupo 1177648">
                      <path id="Trazado_944841" data-name="Trazado 944841" d="M323.619,149.538a3.94,3.94,0,0,0-3.286-2.721,7.58,7.58,0,0,1-3.413-.9,10.843,10.843,0,0,1,2.3,3.8c.541,1.947,2.623,5.885,3.76,5.972.075-.391,1.71-2.089.64-6.154Z" transform="translate(-316.92 -145.92)" fill="#dc6526"/>
                      <path id="Trazado_944842" data-name="Trazado 944842" d="M326.613,156.97a3.631,3.631,0,0,1,0,.415,10.78,10.78,0,0,1-.77,1.777c-1.138-.083-3.219-4.021-3.76-5.972a6.452,6.452,0,0,0-.419-1.082c0-.154,0-.3,0-.458a1.393,1.393,0,0,1,.419.427,12.041,12.041,0,0,1,1.793,4.072c-.205-.98-.383-1.967-.541-2.958q.942,2.014,1.714,4.116c-.217-1.26-.431-2.524-.648-3.784.569,1.43,1.134,2.864,1.568,4.345a7.725,7.725,0,0,0-.051-3.361,8.476,8.476,0,0,1,.683,2.465Z" transform="translate(-319.791 -149.387)" fill="#dd4926"/>
                      <path id="Trazado_944843" data-name="Trazado 944843" d="M324.536,149.274a11.121,11.121,0,0,1,.822,1.789,1.373,1.373,0,0,0-.513-.853c-.32-.312-.644-.62-.964-.932a6.609,6.609,0,0,1,1.031,2.662,4.123,4.123,0,0,0-.92-1.754,9.781,9.781,0,0,0-1.418-1.3,8.71,8.71,0,0,0,.81,2.137,7.377,7.377,0,0,0-1.714-2.105,5.244,5.244,0,0,1,.549,1.371,12.37,12.37,0,0,0-1.738-2.346c.079-.174.3-.162.478-.126a18.3,18.3,0,0,1,2.038.51,1.809,1.809,0,0,1,.814.462c.13.146.237.336.411.391" transform="translate(-319.074 -147.054)" fill="#f0812e"/>
                      <path id="Trazado_944844" data-name="Trazado 944844" d="M323.657,149.664a3.791,3.791,0,0,0-2.962-1.991,11.1,11.1,0,0,1-2.836-.612,11.733,11.733,0,0,0-.928-1.142,7.483,7.483,0,0,0,3.413.9,3.947,3.947,0,0,1,3.286,2.721c.012.043.02.083.032.126Z" transform="translate(-316.926 -145.92)" fill="#fac120"/>
                    </g>
                    <path id="Trazado_944845" data-name="Trazado 944845" d="M323.27,148.758a2.643,2.643,0,0,0-1.28-1.375,5.375,5.375,0,0,0-1.714-.553,15.955,15.955,0,0,1-1.7-.3,6.686,6.686,0,0,1-1.643-.6,4.437,4.437,0,0,0,1.58.893,8.4,8.4,0,0,0,1.726.4,7.469,7.469,0,0,1,1.655.438,2.943,2.943,0,0,1,1.379,1.1Z" transform="translate(-316.926 -145.926)" fill="#fff080"/>
                  </g>
                  <g id="Grupo_1177650" data-name="Grupo 1177650" transform="translate(0 4.463)">
                    <path id="Trazado_944846" data-name="Trazado 944846" d="M319.06,159.566c-.9-1.379-2.674-1.691-4.566-1.683a4.612,4.612,0,0,1-2.674-.664h0c.367.292,2.583,2.1,3.18,4.049.652,2.133,3.654,3.823,4.708,4.3s.257-4.617-.648-6Z" transform="translate(-311.82 -157.22)" fill="#f08221"/>
                    <path id="Trazado_944847" data-name="Trazado 944847" d="M316.737,158.453c-.4-.04-.81-.055-1.232-.055a5.557,5.557,0,0,1-2.014-.328,12.711,12.711,0,0,1,3.389,3.744,2.546,2.546,0,0,0-.419-.952q-.48-.776-.98-1.537a7.56,7.56,0,0,1,2.962,3.318,7.969,7.969,0,0,0-1.465-2.931,5.366,5.366,0,0,1,1.805,2.078,25.7,25.7,0,0,0,1.406,2.477,9.238,9.238,0,0,0-.671-2.18,10.532,10.532,0,0,0-2.785-3.634Z" transform="translate(-312.83 -157.734)" fill="#fcb627"/>
                    <path id="Trazado_944848" data-name="Trazado 944848" d="M314.842,158.437A4.666,4.666,0,0,1,319,160.6a9.994,9.994,0,0,1,1.193,4.242,11.892,11.892,0,0,0-1.134-5.277c-.9-1.379-2.674-1.691-4.566-1.683a4.612,4.612,0,0,1-2.674-.664A4.967,4.967,0,0,0,314.842,158.437Z" transform="translate(-311.82 -157.22)" fill="#fac120"/>
                    <path id="Trazado_944849" data-name="Trazado 944849" d="M311.92,157.41a4.121,4.121,0,0,0,1.074.51,8.907,8.907,0,0,0,1.145.229c.766.107,1.533.118,2.275.245a4.881,4.881,0,0,1,1.086.28,2.558,2.558,0,0,1,.952.592,7.068,7.068,0,0,1,1.343,2.066,5.724,5.724,0,0,0-1.161-2.283,2.585,2.585,0,0,0-1.027-.723,4.9,4.9,0,0,0-1.149-.32C314.91,157.754,313.377,158.046,311.92,157.41Z" transform="translate(-311.88 -157.335)" fill="#fff080"/>
                    <path id="Trazado_944850" data-name="Trazado 944850" d="M324.742,167.19c-.047-.083-.107-.174-.19-.19a26.708,26.708,0,0,1,.873,3.18.944.944,0,0,1-.028.4.129.129,0,0,1-.051.075c-.051.028-.111-.028-.15-.079q-.764-.984-1.529-1.963a3.518,3.518,0,0,0,.533,1.3.28.28,0,0,1,.024.249,10.552,10.552,0,0,1-1.939-2.457,6.447,6.447,0,0,0,1.473,2.279,7.478,7.478,0,0,1-2-1.442,11.734,11.734,0,0,0,3.966,2.947c.419.186.541-.506.486-1.485-.043-.091-.087-.182-.134-.273-.427-.857-.861-1.706-1.335-2.532Z" transform="translate(-317.834 -163.137)" fill="#e96e24"/>
                  </g>
                  <g id="Grupo_1177652" data-name="Grupo 1177652" transform="translate(8.083 4.728)">
                    <g id="Grupo_1177651" data-name="Grupo 1177651" transform="translate(0 0.004)">
                      <path id="Trazado_944851" data-name="Trazado 944851" d="M332.515,161.633a3.743,3.743,0,0,1,3.16-2.785c2.611-.312,3.393-.948,3.393-.948a10.336,10.336,0,0,0-2.1,3.867c-.434,1.975-2.311,5.976-3.452,6.075a7.507,7.507,0,0,1-1-6.205Z" transform="translate(-332.283 -157.9)" fill="#dc6526"/>
                      <path id="Trazado_944852" data-name="Trazado 944852" d="M333.13,169.171c0,.138.008.276.02.419a12,12,0,0,0,.877,1.785c1.141-.1,3.018-4.1,3.452-6.075a6.371,6.371,0,0,1,.359-1.1c-.008-.154-.012-.308-.028-.462a1.284,1.284,0,0,0-.395.438,11.626,11.626,0,0,0-1.576,4.136c.15-1,.277-1.991.375-2.994q-.835,2.044-1.493,4.175.219-1.914.438-3.831c-.49,1.45-.98,2.9-1.335,4.408a7.834,7.834,0,0,1-.142-3.4,8.145,8.145,0,0,0-.549,2.5Z" transform="translate(-332.796 -161.433)" fill="#dd4926"/>
                      <path id="Trazado_944853" data-name="Trazado 944853" d="M334.707,161.389a10.7,10.7,0,0,0-.727,1.817,1.31,1.31,0,0,1,.47-.869c.308-.32.612-.636.92-.952a6.412,6.412,0,0,0-.889,2.7,3.945,3.945,0,0,1,.829-1.781,9.4,9.4,0,0,1,1.359-1.331,8.434,8.434,0,0,1-.7,2.168,7.046,7.046,0,0,1,1.612-2.149,4.929,4.929,0,0,0-.474,1.394,11.572,11.572,0,0,1,1.623-2.39c-.091-.174-.316-.158-.49-.118a18.959,18.959,0,0,0-2.03.537,1.708,1.708,0,0,0-.794.474c-.122.146-.217.344-.391.4" transform="translate(-333.31 -159.083)" fill="#f0812e"/>
                      <path id="Trazado_944854" data-name="Trazado 944854" d="M332.81,161.763a3.614,3.614,0,0,1,2.879-2.046,11.016,11.016,0,0,0,2.832-.652,11.489,11.489,0,0,1,.869-1.165s-.782.636-3.393.948a3.743,3.743,0,0,0-3.16,2.785l-.024.13Z" transform="translate(-332.602 -157.9)" fill="#fac120"/>
                    </g>
                    <path id="Trazado_944855" data-name="Trazado 944855" d="M333.66,160.829a2.793,2.793,0,0,1,1.327-1.13,7.2,7.2,0,0,1,1.647-.466,8.032,8.032,0,0,0,1.718-.423,4.2,4.2,0,0,0,1.548-.92,6.337,6.337,0,0,1-1.627.628,15.068,15.068,0,0,1-1.7.324,5.214,5.214,0,0,0-1.7.577,2.493,2.493,0,0,0-1.213,1.4Z" transform="translate(-333.116 -157.89)" fill="#fff080"/>
                  </g>
                  <g id="Grupo_1177654" data-name="Grupo 1177654" transform="translate(1.252 11.069)">
                    <g id="Grupo_1177653" data-name="Grupo 1177653" transform="translate(0.004)">
                      <path id="Trazado_944856" data-name="Trazado 944856" d="M322.323,175.44a3.54,3.54,0,0,0-3.875-1.343c-2.508.719-3.448.438-3.448.438a9.69,9.69,0,0,1,3.278,2.741c1.086,1.647,4.2,4.606,5.289,4.254a7.46,7.46,0,0,0-1.24-6.091Z" transform="translate(-315 -173.945)" fill="#dc6526"/>
                      <path id="Trazado_944857" data-name="Trazado 944857" d="M327.333,182.261c.051.126.087.261.13.391a11.488,11.488,0,0,1-.186,1.979c-1.086.348-4.2-2.607-5.289-4.254a5.8,5.8,0,0,0-.715-.873c-.047-.142-.095-.288-.134-.434a1.256,1.256,0,0,1,.517.249,10.925,10.925,0,0,1,2.891,3.2c-.482-.857-.948-1.726-1.386-2.611q1.475,1.558,2.824,3.263-.865-1.677-1.734-3.353c.956,1.145,1.912,2.291,2.761,3.539a7.652,7.652,0,0,0-1.051-3.176,7.727,7.727,0,0,1,1.371,2.086Z" transform="translate(-318.715 -177.046)" fill="#dd4926"/>
                      <path id="Trazado_944858" data-name="Trazado 944858" d="M323.159,175.042a10.382,10.382,0,0,1,1.3,1.39,1.213,1.213,0,0,0-.735-.616l-1.177-.521a6.035,6.035,0,0,1,1.758,2.141,3.716,3.716,0,0,0-1.382-1.319,8.9,8.9,0,0,0-1.71-.7,8.023,8.023,0,0,0,1.394,1.726,6.615,6.615,0,0,0-2.228-1.355,4.6,4.6,0,0,1,.92,1.1,11.033,11.033,0,0,0-2.323-1.572c.024-.2.233-.269.407-.3a17.967,17.967,0,0,1,2.054-.288,1.623,1.623,0,0,1,.9.13c.162.087.32.233.5.217" transform="translate(-317.408 -174.412)" fill="#f0812e"/>
                      <path id="Trazado_944859" data-name="Trazado 944859" d="M322.39,175.551a3.435,3.435,0,0,0-3.357-.77,10.545,10.545,0,0,1-2.828.49,10.428,10.428,0,0,0-1.2-.735s.94.28,3.448-.438a3.54,3.54,0,0,1,3.875,1.343C322.347,175.475,322.367,175.511,322.39,175.551Z" transform="translate(-315 -173.945)" fill="#fac120"/>
                    </g>
                    <path id="Trazado_944860" data-name="Trazado 944860" d="M321.752,174.864a2.364,2.364,0,0,0-1.6-.826,5,5,0,0,0-1.766.126,15.163,15.163,0,0,1-1.679.359,6.219,6.219,0,0,1-1.714.051,3.988,3.988,0,0,0,1.742.249,8.073,8.073,0,0,0,1.726-.276,6.9,6.9,0,0,1,1.675-.209,2.634,2.634,0,0,1,1.616.525Z" transform="translate(-314.99 -173.982)" fill="#fff080"/>
                  </g>
                  <g id="Grupo_1177655" data-name="Grupo 1177655" transform="translate(9.571 9.622)">
                    <path id="Trazado_944861" data-name="Trazado 944861" d="M336.353,174.159c.581-1.544,2.236-2.236,4.084-2.642a4.6,4.6,0,0,0,2.465-1.236h0c-.3.367-2.058,2.611-2.212,4.649-.17,2.224-2.725,4.534-3.65,5.226s-1.268-4.452-.687-5.992Z" transform="translate(-336.061 -170.28)" fill="#f08221"/>
                    <path id="Trazado_944862" data-name="Trazado 944862" d="M340.9,172.556a12.176,12.176,0,0,1,1.189-.324,5.562,5.562,0,0,0,1.892-.762,12.685,12.685,0,0,0-2.481,4.4,2.505,2.505,0,0,1,.2-1.019c.2-.577.4-1.149.616-1.714a7.539,7.539,0,0,0-2.161,3.887,7.927,7.927,0,0,1,.786-3.18,5.335,5.335,0,0,0-1.3,2.425,26.184,26.184,0,0,1-.826,2.725,9.273,9.273,0,0,1,.174-2.271,10.616,10.616,0,0,1,1.916-4.159Z" transform="translate(-337.717 -171)" fill="#fcb627"/>
                    <path id="Trazado_944863" data-name="Trazado 944863" d="M340.22,172.129a4.666,4.666,0,0,0-3.583,3.03,9.892,9.892,0,0,0-.229,4.4,11.893,11.893,0,0,1-.055-5.4c.581-1.544,2.236-2.236,4.084-2.642a4.6,4.6,0,0,0,2.465-1.236A4.948,4.948,0,0,1,340.22,172.129Z" transform="translate(-336.061 -170.28)" fill="#fac120"/>
                    <path id="Trazado_944864" data-name="Trazado 944864" d="M342.871,170.48c-1.284.94-2.84.991-4.3,1.58a4.746,4.746,0,0,0-1.051.565,2.563,2.563,0,0,0-.841.932,5.76,5.76,0,0,0-.632,2.484,7.129,7.129,0,0,1,.853-2.311,2.539,2.539,0,0,1,.8-.79,4.686,4.686,0,0,1,1-.513c.7-.284,1.442-.466,2.165-.739a8.572,8.572,0,0,0,1.07-.474A4.2,4.2,0,0,0,342.871,170.48Z" transform="translate(-336.05 -170.401)" fill="#fff080"/>
                    <path id="Trazado_944865" data-name="Trazado 944865" d="M337.308,183.779c.028-.091.063-.194.142-.229a25.579,25.579,0,0,0-.15,3.294.965.965,0,0,0,.115.379.109.109,0,0,0,.067.059c.059.016.1-.051.13-.111.352-.75.707-1.5,1.059-2.251a3.553,3.553,0,0,1-.233,1.39.29.29,0,0,0,.028.245,10.474,10.474,0,0,0,1.351-2.824,6.452,6.452,0,0,1-.936,2.548,7.558,7.558,0,0,0,1.631-1.845,11.7,11.7,0,0,1-3.219,3.744c-.367.273-.64-.371-.8-1.343.024-.1.043-.2.071-.3.225-.928.466-1.852.743-2.761Z" transform="translate(-336.316 -178.309)" fill="#e96e24"/>
                  </g>
                  <g id="Grupo_1177657" data-name="Grupo 1177657" transform="translate(10.219 15.365)">
                    <g id="Grupo_1177656" data-name="Grupo 1177656">
                      <path id="Trazado_944866" data-name="Trazado 944866" d="M338.4,187.285a3.755,3.755,0,0,1,3.768-2.208c2.777.233,3.7-.257,3.7-.257a10.277,10.277,0,0,0-2.844,3.547c-.786,1.951-3.417,5.688-4.625,5.546A7.943,7.943,0,0,1,338.4,187.285Z" transform="translate(-337.692 -184.82)" fill="#dc6526"/>
                      <path id="Trazado_944867" data-name="Trazado 944867" d="M337.981,194.527c-.028.142-.036.288-.051.434a12.763,12.763,0,0,0,.616,2.034c1.209.142,3.839-3.6,4.625-5.546a6.309,6.309,0,0,1,.561-1.059c.02-.162.039-.32.047-.482a1.323,1.323,0,0,0-.486.367,11.6,11.6,0,0,0-2.342,3.942q.486-1.493.893-3.018-1.215,1.937-2.259,4,.551-1.931,1.1-3.867c-.754,1.394-1.513,2.793-2.133,4.274a8.122,8.122,0,0,1,.423-3.543A8.234,8.234,0,0,0,337.981,194.527Z" transform="translate(-337.836 -187.9)" fill="#dd4926"/>
                      <path id="Trazado_944868" data-name="Trazado 944868" d="M341.546,186.709a10.783,10.783,0,0,0-1.066,1.726,1.3,1.3,0,0,1,.636-.8c.371-.265.747-.525,1.122-.786a6.379,6.379,0,0,0-1.382,2.6,3.956,3.956,0,0,1,1.161-1.667,9.392,9.392,0,0,1,1.643-1.086,8.366,8.366,0,0,1-1.09,2.093,7,7,0,0,1,2.042-1.88,4.991,4.991,0,0,0-.731,1.339,11.6,11.6,0,0,1,2.093-2.125c-.067-.2-.3-.233-.49-.229a19.719,19.719,0,0,0-2.212.122,1.711,1.711,0,0,0-.908.324c-.15.126-.284.308-.474.332" transform="translate(-339.379 -185.473)" fill="#f0812e"/>
                      <path id="Trazado_944869" data-name="Trazado 944869" d="M339.37,187.421a3.65,3.65,0,0,1,3.35-1.5,11.448,11.448,0,0,0,3.065-.071,11.707,11.707,0,0,1,1.106-1.019s-.924.49-3.7.257a3.755,3.755,0,0,0-3.768,2.208c-.016.043-.032.087-.047.126Z" transform="translate(-338.707 -184.826)" fill="#fac120"/>
                    </g>
                    <path id="Trazado_944870" data-name="Trazado 944870" d="M340.65,186.532a2.792,2.792,0,0,1,1.576-.893,7.4,7.4,0,0,1,1.8-.13,8.689,8.689,0,0,0,1.864-.067,4.268,4.268,0,0,0,1.77-.612,6.387,6.387,0,0,1-1.8.312,15.8,15.8,0,0,1-1.833-.024,5.366,5.366,0,0,0-1.868.233,2.505,2.505,0,0,0-1.5,1.185Z" transform="translate(-339.482 -184.826)" fill="#fff080"/>
                  </g>
                  <g id="Grupo_1177658" data-name="Grupo 1177658" transform="translate(2.789 16.376)">
                    <path id="Trazado_944871" data-name="Trazado 944871" d="M326.12,189.736c-.9-1.378-2.674-1.691-4.566-1.683a4.612,4.612,0,0,1-2.674-.664h0c.367.292,2.583,2.1,3.18,4.049.652,2.133,3.654,3.823,4.708,4.3s.257-4.617-.648-6Z" transform="translate(-318.88 -187.386)" fill="#f08221"/>
                    <path id="Trazado_944872" data-name="Trazado 944872" d="M323.807,188.623c-.4-.04-.81-.055-1.232-.055a5.557,5.557,0,0,1-2.014-.328,12.712,12.712,0,0,1,3.389,3.744,2.545,2.545,0,0,0-.419-.952q-.48-.776-.98-1.537a7.56,7.56,0,0,1,2.962,3.318,7.969,7.969,0,0,0-1.465-2.931,5.365,5.365,0,0,1,1.805,2.078,25.693,25.693,0,0,0,1.406,2.477,9.24,9.24,0,0,0-.672-2.18,10.532,10.532,0,0,0-2.785-3.634Z" transform="translate(-319.896 -187.9)" fill="#fcb627"/>
                    <path id="Trazado_944873" data-name="Trazado 944873" d="M321.9,188.6a4.666,4.666,0,0,1,4.159,2.165A9.994,9.994,0,0,1,327.254,195a11.892,11.892,0,0,0-1.134-5.277c-.9-1.379-2.674-1.691-4.566-1.683a4.612,4.612,0,0,1-2.674-.664A4.967,4.967,0,0,0,321.9,188.6Z" transform="translate(-318.88 -187.38)" fill="#fac120"/>
                    <path id="Trazado_944874" data-name="Trazado 944874" d="M318.98,187.58a4.12,4.12,0,0,0,1.074.51,8.909,8.909,0,0,0,1.145.229c.766.107,1.533.118,2.275.245a4.88,4.88,0,0,1,1.086.28,2.559,2.559,0,0,1,.952.592,7.067,7.067,0,0,1,1.343,2.066,5.724,5.724,0,0,0-1.161-2.283,2.585,2.585,0,0,0-1.027-.723,4.9,4.9,0,0,0-1.149-.32C321.97,187.924,320.438,188.216,318.98,187.58Z" transform="translate(-318.94 -187.501)" fill="#fff080"/>
                    <path id="Trazado_944875" data-name="Trazado 944875" d="M331.812,197.36c-.047-.083-.107-.174-.19-.19a26.713,26.713,0,0,1,.873,3.18.945.945,0,0,1-.028.395.151.151,0,0,1-.051.075c-.051.028-.111-.028-.15-.079q-.764-.984-1.529-1.963a3.518,3.518,0,0,0,.533,1.3.281.281,0,0,1,.024.249,10.553,10.553,0,0,1-1.939-2.457,6.447,6.447,0,0,0,1.473,2.279,7.479,7.479,0,0,1-2-1.442,11.734,11.734,0,0,0,3.966,2.947c.419.186.541-.506.486-1.485-.043-.091-.087-.182-.134-.273-.427-.857-.861-1.706-1.335-2.532Z" transform="translate(-324.9 -193.303)" fill="#e96e24"/>
                  </g>
                  <g id="Grupo_1177659" data-name="Grupo 1177659" transform="translate(10.272 20.67)">
                    <path id="Trazado_944876" data-name="Trazado 944876" d="M339.151,200.053c.983-1.363,2.852-1.529,4.842-1.343a4.607,4.607,0,0,0,2.828-.45h0c-.395.273-2.765,1.963-3.44,3.962-.739,2.18-3.934,3.681-5.052,4.08s-.162-4.882.822-6.249Z" transform="translate(-337.826 -198.256)" fill="#f08221"/>
                    <path id="Trazado_944877" data-name="Trazado 944877" d="M344.378,199.1c.423,0,.853.016,1.3.059A5.629,5.629,0,0,0,347.8,199a12.083,12.083,0,0,0-3.65,3.622,2.536,2.536,0,0,1,.462-.964q.521-.77,1.066-1.525a7.22,7.22,0,0,0-3.2,3.211,7.688,7.688,0,0,1,1.612-2.943,5.118,5.118,0,0,0-1.947,2.014,24.916,24.916,0,0,1-1.537,2.473,9.318,9.318,0,0,1,.754-2.228A10.172,10.172,0,0,1,344.378,199.1Z" transform="translate(-339.51 -198.704)" fill="#fcb627"/>
                    <path id="Trazado_944878" data-name="Trazado 944878" d="M343.618,199.249a4.581,4.581,0,0,0-4.428,1.888,9.911,9.911,0,0,0-1.351,4.353,12.04,12.04,0,0,1,1.315-5.447c.983-1.363,2.852-1.529,4.843-1.343a4.607,4.607,0,0,0,2.828-.45,4.887,4.887,0,0,1-3.207,1Z" transform="translate(-337.83 -198.25)" fill="#fac120"/>
                    <path id="Trazado_944879" data-name="Trazado 944879" d="M347.658,198.45c-1.548.537-3.156.091-4.787.213a4.973,4.973,0,0,0-1.217.229,2.529,2.529,0,0,0-1.094.664,5.6,5.6,0,0,0-1.28,2.287,6.7,6.7,0,0,1,1.454-2.054,2.429,2.429,0,0,1,1.015-.537,4.667,4.667,0,0,1,1.149-.194c.786-.063,1.592,0,2.4-.04a9.026,9.026,0,0,0,1.213-.13,4.1,4.1,0,0,0,1.145-.431Z" transform="translate(-338.706 -198.371)" fill="#fff080"/>
                    <path id="Trazado_944880" data-name="Trazado 944880" d="M339.468,207.142c.051-.083.115-.174.205-.182a25.832,25.832,0,0,0-.991,3.263,1,1,0,0,0,.02.419.15.15,0,0,0,.051.083c.055.036.118-.02.162-.067.553-.64,1.1-1.284,1.655-1.924a3.472,3.472,0,0,1-.592,1.323.286.286,0,0,0-.032.257,10.029,10.029,0,0,0,2.1-2.405,6.253,6.253,0,0,1-1.6,2.259,7.29,7.29,0,0,0,2.137-1.327,11.237,11.237,0,0,1-4.238,2.725c-.442.158-.557-.581-.478-1.608.047-.091.095-.186.146-.276.466-.861.948-1.714,1.461-2.54Z" transform="translate(-337.835 -203.52)" fill="#e96e24"/>
                  </g>
                  <g id="Grupo_1177661" data-name="Grupo 1177661" transform="translate(2.903 19.978)">
                    <g id="Grupo_1177660" data-name="Grupo 1177660">
                      <path id="Trazado_944881" data-name="Trazado 944881" d="M326.627,199.468a4.056,4.056,0,0,0-3.756-2.457c-2.777.047-3.7-.5-3.7-.5a11.18,11.18,0,0,1,2.824,3.737c.774,2,3.389,5.913,4.6,5.854.036-.427,1.592-2.449.032-6.628Z" transform="translate(-319.17 -196.506)" fill="#dc6526"/>
                      <path id="Trazado_944882" data-name="Trazado 944882" d="M330.585,206.958c.028.146.036.292.051.438a11.769,11.769,0,0,1-.628,1.991c-1.209.059-3.823-3.851-4.6-5.854a6.973,6.973,0,0,0-.553-1.1c-.02-.162-.039-.324-.047-.486a1.416,1.416,0,0,1,.486.4,12.582,12.582,0,0,1,2.323,4.1q-.48-1.523-.881-3.077c.8,1.343,1.552,2.729,2.24,4.147q-.539-1.967-1.082-3.938c.75,1.446,1.5,2.9,2.113,4.412a8.3,8.3,0,0,0-.407-3.571,8.732,8.732,0,0,1,.98,2.532Z" transform="translate(-322.582 -199.797)" fill="#dd4926"/>
                      <path id="Trazado_944883" data-name="Trazado 944883" d="M327.6,198.993a11.478,11.478,0,0,1,1.059,1.8,1.409,1.409,0,0,0-.632-.841c-.371-.288-.743-.577-1.118-.861a6.828,6.828,0,0,1,1.367,2.694,4.255,4.255,0,0,0-1.153-1.742,10.183,10.183,0,0,0-1.635-1.193,9.027,9.027,0,0,0,1.082,2.165,7.689,7.689,0,0,0-2.03-2.014,5.386,5.386,0,0,1,.723,1.386,12.519,12.519,0,0,0-2.086-2.263c.067-.2.3-.213.49-.2a20.01,20.01,0,0,1,2.212.273,1.824,1.824,0,0,1,.908.383c.15.138.284.328.474.363" transform="translate(-321.596 -197.358)" fill="#f0812e"/>
                      <path id="Trazado_944884" data-name="Trazado 944884" d="M326.675,199.593a3.9,3.9,0,0,0-3.342-1.722,11.505,11.505,0,0,1-3.065-.276,13.259,13.259,0,0,0-1.1-1.094s.92.549,3.7.5a4.056,4.056,0,0,1,3.756,2.457l.047.13Z" transform="translate(-319.17 -196.5)" fill="#fac120"/>
                    </g>
                    <path id="Trazado_944885" data-name="Trazado 944885" d="M326.179,198.672a2.734,2.734,0,0,0-1.5-1.284,5.592,5.592,0,0,0-1.868-.355,15.644,15.644,0,0,1-1.833-.1,6.589,6.589,0,0,1-1.8-.434,4.576,4.576,0,0,0,1.766.731,8.584,8.584,0,0,0,1.864.19,7.314,7.314,0,0,1,1.8.253,3,3,0,0,1,1.572,1Z" transform="translate(-319.176 -196.5)" fill="#fff080"/>
                  </g>
                </g>
                <g id="Grupo_1177663" data-name="Grupo 1177663" transform="translate(95.893 152.437)">
                  <path id="Trazado_944886" data-name="Trazado 944886" d="M202.418,223.849s-14.381-.209-14.512-3.124c-.1-2.267,8.753-.7,8.753-.7s-9.713-2.405-14.243-4.507a7.818,7.818,0,0,1-2.725-1.793,2.812,2.812,0,0,1-.549-3.041c.7-1.307,2.484-1.485,3.966-1.367,5.941.478,10.218,3.476,15.645,5.937a48.663,48.663,0,0,1-10.9-6.94c-3.089-2.548-6.663-4.914-8.792-8.4-1.335-2.184-1.959-5.467.174-7.39,2.07-1.868,5.17-1.157,7.552-.423a30.872,30.872,0,0,1,15.969,11.617,52.634,52.634,0,0,1-2.5-7.967c-.253-1.094-.383-2.449.506-3.14,1.149-.893,2.773.178,3.737,1.268a27.883,27.883,0,0,1,5.344,9.053c-1.023-7.5-2.046-15.16-.7-22.613a12,12,0,0,1,1.754-4.839,5.166,5.166,0,0,1,4.372-2.35,6.785,6.785,0,0,1,4.163,2.394,22.481,22.481,0,0,1,1.856,29.087c1.675-1.9,9.827-13.26,14.476-10.732s-10.42,14.2-11.719,15.9a23.261,23.261,0,0,1,18.829-8.678,2.759,2.759,0,0,1,2.323.916,2.355,2.355,0,0,1,.269,1.454c-.241,3.606-3.306,6.34-6.347,8.291-2.56,1.639-5.269,3.033-7.975,4.428a22.327,22.327,0,0,1,4.756-.355,1.312,1.312,0,0,1,1,.332c.438.529-.118,1.288-.66,1.714A21.184,21.184,0,0,1,222.5,222.34" transform="translate(-177.844 -173.127)" fill="url(#linear-gradient-34)"/>
                  <path id="Trazado_944887" data-name="Trazado 944887" d="M194.879,234.709a45.688,45.688,0,0,1,10.9,6.924,84.5,84.5,0,0,1,9.18,9.2c1.615,1.849,3.148,3.78,4.8,5.6.13.142.391-.051.273-.209-1.3-1.773-2.745-3.452-4.187-5.111s-2.907-3.282-4.436-4.85a58.453,58.453,0,0,0-9.973-8.378,39.211,39.211,0,0,0-6.462-3.4c-.126-.051-.221.17-.095.225h0Z" transform="translate(-188.114 -210.247)" fill="url(#linear-gradient-35)"/>
                  <path id="Trazado_944888" data-name="Trazado 944888" d="M200.78,277.3a88.8,88.8,0,0,1,15.934,5.688c1.438.671,2.856,1.386,4.294,2.054a.14.14,0,0,0,.142-.241,54.943,54.943,0,0,0-7.6-3.7,83.385,83.385,0,0,0-8-2.856q-2.317-.7-4.673-1.272c-.213-.051-.3.277-.091.328h0Z" transform="translate(-191.649 -235.951)" fill="url(#linear-gradient-36)"/>
                  <path id="Trazado_944889" data-name="Trazado 944889" d="M215.678,295.913c4.234.2,8.457.545,12.671,1,1.2.126,2.39.265,3.59.332a.111.111,0,0,0,.028-.217,61.3,61.3,0,0,0-6.3-.774q-3.188-.29-6.383-.446-1.807-.089-3.614-.142c-.162,0-.162.245,0,.253h0Z" transform="translate(-200.658 -247.261)" fill="url(#linear-gradient-37)"/>
                  <path id="Trazado_944890" data-name="Trazado 944890" d="M242.147,236.121a79.748,79.748,0,0,1,4.74,8.619,86.714,86.714,0,0,1,3.669,9.1c.3.873.581,1.746.849,2.627s.525,1.8.849,2.678a.129.129,0,0,0,.249-.067,20.666,20.666,0,0,0-.561-2.433c-.225-.794-.458-1.568-.7-2.346q-.747-2.358-1.663-4.653a77.753,77.753,0,0,0-4.218-8.954q-1.345-2.435-2.852-4.779c-.146-.225-.506-.016-.359.209Z" transform="translate(-216.728 -211.054)" fill="url(#linear-gradient-38)"/>
                  <path id="Trazado_944891" data-name="Trazado 944891" d="M269.352,191.263a77.593,77.593,0,0,1,.833,14.705c-.142,4.9-.6,9.78-1.2,14.642-.336,2.749-.743,5.49-.98,8.251a.21.21,0,0,0,.411.055c.454-2.429.77-4.89,1.07-7.343.3-2.469.577-4.937.794-7.414a105.459,105.459,0,0,0,.375-14.776,71.9,71.9,0,0,0-.916-8.228c-.043-.257-.431-.146-.391.107Z" transform="translate(-232.394 -183.946)" fill="url(#linear-gradient-39)"/>
                  <path id="Trazado_944892" data-name="Trazado 944892" d="M289.328,234.051a56.43,56.43,0,0,0-15.262,17.806c-.529.972-1.035,1.963-1.509,2.962a20.868,20.868,0,0,0-1.256,3.045.153.153,0,0,0,.277.119c.458-.849.829-1.758,1.24-2.635s.853-1.75,1.311-2.607c.924-1.726,1.935-3.413,3.026-5.04a59.282,59.282,0,0,1,7.453-9.045,61.162,61.162,0,0,1,4.894-4.373c.13-.1-.047-.336-.182-.233h0Z" transform="translate(-234.383 -209.971)" fill="url(#linear-gradient-40)"/>
                  <path id="Trazado_944893" data-name="Trazado 944893" d="M290.783,254.725c-3.4,1.789-6.794,3.594-10.009,5.7a44.6,44.6,0,0,0-8.2,6.731,22.03,22.03,0,0,0-3.515,4.657.213.213,0,0,0,.367.213c.513-.7,1-1.43,1.537-2.117s1.063-1.331,1.635-1.963a36.478,36.478,0,0,1,3.693-3.551,60.926,60.926,0,0,1,9.128-6.162c1.86-1.055,3.748-2.058,5.64-3.057.3-.154.032-.6-.261-.446h0Z" transform="translate(-233.01 -222.477)" fill="url(#linear-gradient-41)"/>
                </g>
                <g id="Grupo_1177665" data-name="Grupo 1177665" transform="translate(60.461 186.93)">
                  <path id="Trazado_944894" data-name="Trazado 944894" d="M191.04,265.057a23.253,23.253,0,0,0-20.271-3.7,6.208,6.208,0,0,0-3.914,2.607,14.209,14.209,0,0,0-.873,2.769,7.917,7.917,0,0,1-7.939,5.589c-2.56-.229-5.32-1.754-7.509-.332-1.868,1.213-2.192,3.942-3.579,5.739-2.315,3-6.628,2.6-10.274,2.955-5.419.533-10.546,3.334-15.985,3.263-2.232-.028-4.444-.545-6.671-.47a25.668,25.668,0,0,0-6.972,1.564l-18.9,6.138c5.739.908,11.478,1.817,17.253,2.405,8.591.873,17.229,1.035,25.856,1.2,20.8.387,41.612.774,62.388-.273a2.4,2.4,0,0,0,1.327-.332c.794-.573.715-1.813.549-2.812l-4.432-26.709" transform="translate(-88.146 -260.452)" fill="url(#linear-gradient-42)"/>
                  <g id="Grupo_1177664" data-name="Grupo 1177664" transform="translate(0 0.004)" opacity="0.45">
                    <path id="Trazado_944895" data-name="Trazado 944895" d="M107.38,286.175a25.483,25.483,0,0,1,7.035-1.213c2.232.04,4.416.664,6.644.806,5.431.344,10.677-2.2,16.115-2.461,3.658-.178,7.951.442,10.4-2.437,1.465-1.726,1.912-4.436,3.831-5.554,2.247-1.311,4.941.352,7.485.707a7.864,7.864,0,0,0,8.18-5.186,14.439,14.439,0,0,1,1-2.721,6.168,6.168,0,0,1,4.025-2.409,23.322,23.322,0,0,1,19.931,4.586q-.468-2.814-.936-5.633l-.051.407a23.253,23.253,0,0,0-20.271-3.7,6.208,6.208,0,0,0-3.914,2.607,14.211,14.211,0,0,0-.873,2.769,7.917,7.917,0,0,1-7.939,5.589c-2.56-.229-5.32-1.754-7.509-.332-1.868,1.213-2.192,3.942-3.579,5.739-2.315,3-6.628,2.6-10.274,2.955-5.419.533-10.546,3.334-15.985,3.263-2.232-.028-4.444-.545-6.671-.47a25.671,25.671,0,0,0-6.972,1.564l-18.9,6.138c.162.024.324.051.482.075l18.758-5.083Z" transform="translate(-88.14 -260.462)" fill="url(#linear-gradient-43)"/>
                  </g>
                </g>
                <path id="Trazado_944896" data-name="Trazado 944896" d="M261.49,280.461c-2.038.628-4.329-.233-6.067-1.256a9.091,9.091,0,0,1-4.313-5.945c1.951-.932,4.44.091,6.13,1.138a9.4,9.4,0,0,1,4.25,6.063" transform="translate(-126.278 -81.05)" fill="url(#linear-gradient-44)"/>
                <path id="Trazado_944897" data-name="Trazado 944897" d="M277.241,275.843a5.592,5.592,0,0,1-1.908-3.934,6.419,6.419,0,0,1,1.469-4.969c1.359.691,1.856,2.524,2,3.918a6.637,6.637,0,0,1-1.56,4.985" transform="translate(-140.903 -77.448)" fill="url(#linear-gradient-45)"/>
                <g id="Grupo_1177674" data-name="Grupo 1177674" transform="translate(59.747 96.383)">
                  <g id="Grupo_1177667" data-name="Grupo 1177667" transform="translate(16.968 36.231)">
                    <path id="Trazado_944898" data-name="Trazado 944898" d="M163.038,131.751c-.557-2.429-1.5-4.827-3.44-6.328a11.7,11.7,0,0,0-5.573-1.955c-5.577-.806-11.245-.525-16.874-.245-2.354.118-5.846-.036-7.86,1.315,2.876.723,6.537.154,9.515.15a81.12,81.12,0,0,1,10.084.47,14.4,14.4,0,0,1,6.071,1.86c2.2,1.414,4.226,3.069,4.973,5.573s1.039,8.192,1.086,10.8c.02,1.153,5.814,59.177,5.767,62.835-.016,1.153,2.409,1.047,2.891,0a2.536,2.536,0,0,0,.166-.976c.111-3.5-5.913-68.862-6.557-72.3-.075-.4-.158-.8-.249-1.2Z" transform="translate(-129.29 -122.938)" fill="url(#linear-gradient-46)"/>
                    <g id="Grupo_1177666" data-name="Grupo 1177666" transform="translate(23.563 1.125)">
                      <path id="Trazado_944899" data-name="Trazado 944899" d="M203,129.334a4.222,4.222,0,0,1,.932.739c.233.249.4.624.707.79.059.032.162.008.17-.071.059-.411-.28-.774-.561-1.035a2.7,2.7,0,0,0-1.161-.632.115.115,0,0,0-.087.209Z" transform="translate(-197.417 -127.803)" fill="#1f9b6c"/>
                      <path id="Trazado_944900" data-name="Trazado 944900" d="M208.158,135.576a3.15,3.15,0,0,1,.573.984c.115.308.154.64.273.948.047.126.257.162.292,0a2.556,2.556,0,0,0-.928-2.145.148.148,0,0,0-.209.209h0Z" transform="translate(-200.545 -131.553)" fill="#1f9b6c"/>
                      <path id="Trazado_944901" data-name="Trazado 944901" d="M211.948,143a5.164,5.164,0,0,0,.6,2.188c.075.111.288.083.273-.075a10.937,10.937,0,0,0-.612-2.153c-.043-.138-.284-.122-.265.036h0Z" transform="translate(-202.862 -136.117)" fill="#1f9b6c"/>
                      <path id="Trazado_944902" data-name="Trazado 944902" d="M213.667,154.657c.17,1.513.32,3.026.438,4.546.115,1.422.107,2.9.348,4.305.024.15.241.1.253-.036a29.5,29.5,0,0,0-.205-4.416q-.178-2.2-.427-4.4c-.028-.257-.438-.261-.407,0h0Z" transform="translate(-203.902 -143.133)" fill="#1f9b6c"/>
                      <path id="Trazado_944903" data-name="Trazado 944903" d="M215.96,180.872c.071,2.386.039,4.811.257,7.185a.111.111,0,0,0,.221,0,40.446,40.446,0,0,0-.182-7.185c-.016-.186-.3-.194-.3,0h0Z" transform="translate(-205.29 -159.028)" fill="#1f9b6c"/>
                      <path id="Trazado_944904" data-name="Trazado 944904" d="M213.331,176.991a4.32,4.32,0,0,0-.067,1.149,2.086,2.086,0,0,0,.213,1.019.151.151,0,0,0,.273-.036,3.059,3.059,0,0,0-.04-.984c-.028-.367-.032-.739-.067-1.11-.016-.166-.273-.229-.308-.043h0Z" transform="translate(-203.652 -156.695)" fill="#1f9b6c"/>
                      <path id="Trazado_944905" data-name="Trazado 944905" d="M211.08,148.374a46.236,46.236,0,0,0,.2,4.744c.02.134.241.126.265,0a13.6,13.6,0,0,0-.233-4.775c-.024-.13-.237-.1-.229.032Z" transform="translate(-202.337 -139.382)" fill="#1f9b6c"/>
                      <path id="Trazado_944906" data-name="Trazado 944906" d="M209.766,143.92c.043.162.083.324.126.486a.824.824,0,0,0,.182.415.143.143,0,0,0,.237-.063.8.8,0,0,0-.067-.446c-.051-.158-.107-.32-.158-.478a.164.164,0,0,0-.316.087h0Z" transform="translate(-201.541 -136.635)" fill="#1f9b6c"/>
                      <path id="Trazado_944907" data-name="Trazado 944907" d="M207.39,138.207a1.232,1.232,0,0,0,.253.766.212.212,0,0,0,.284.016.219.219,0,0,0,.055-.276,3.624,3.624,0,0,1-.245-.553.178.178,0,0,0-.348.047Z" transform="translate(-200.105 -133.196)" fill="#1f9b6c"/>
                      <path id="Trazado_944908" data-name="Trazado 944908" d="M203.647,132.024a.832.832,0,0,1,.344.442c.051.138.194.371.355.2.142-.15.032-.415-.051-.561a1.141,1.141,0,0,0-.438-.438.208.208,0,0,0-.209.359Z" transform="translate(-197.78 -129.324)" fill="#1f9b6c"/>
                      <path id="Trazado_944909" data-name="Trazado 944909" d="M193.977,126.627a3.48,3.48,0,0,1,1.015.233,8.9,8.9,0,0,0,.81.383.177.177,0,0,0,.2-.257,2.569,2.569,0,0,0-2.018-.766c-.265,0-.257.387,0,.407h0Z" transform="translate(-191.874 -126.048)" fill="#1f9b6c"/>
                      <path id="Trazado_944910" data-name="Trazado 944910" d="M198.966,129.048a1.235,1.235,0,0,0,.786.209.129.129,0,0,0,.075-.186,1.223,1.223,0,0,0-.731-.328c-.174-.039-.3.217-.126.3h0Z" transform="translate(-194.959 -127.573)" fill="#1f9b6c"/>
                      <path id="Trazado_944911" data-name="Trazado 944911" d="M189,126.084a1.339,1.339,0,0,0,.4.095c.142.028.284.126.431.079.079-.028.158-.122.118-.209-.079-.194-.28-.229-.47-.253a.55.55,0,0,0-.5.126.109.109,0,0,0,.02.166h0Z" transform="translate(-188.946 -125.785)" fill="#1f9b6c"/>
                      <path id="Trazado_944912" data-name="Trazado 944912" d="M217.473,204.285a21.709,21.709,0,0,0,.395,3.286c.028.091.186.107.2,0a9.966,9.966,0,0,0-.344-3.322c-.028-.142-.273-.111-.257.036h0Z" transform="translate(-206.202 -173.202)" fill="#1f9b6c"/>
                      <path id="Trazado_944913" data-name="Trazado 944913" d="M218.893,216.484a7.384,7.384,0,0,0,.186,2.635c.051.17.332.146.32-.043-.051-.865-.186-1.722-.213-2.591a.146.146,0,0,0-.292,0Z" transform="translate(-207.042 -180.574)" fill="#1f9b6c"/>
                    </g>
                  </g>
                  <g id="Grupo_1177673" data-name="Grupo 1177673" transform="translate(0 0)">
                    <path id="Trazado_944914" data-name="Trazado 944914" d="M128.156,33.249c-1.418.5-3.294-.316-4.392.865-.9.96-.525,2.828-.462,4.017a14.873,14.873,0,0,0,.861,4.246,7.187,7.187,0,0,0,1.327,2.394,13.051,13.051,0,0,0,2.97,2.109c1.351.845,4.013,1.039,3.895,2.7-.13,1.852.118,4.116,0,5.972a11.556,11.556,0,0,0,.628,4.918c.687,2.014,1.39,3.472,3.227,4.546s3.816,2.291,5.937,2.469c2.386.2,3.579.363,5.814-.486a11.4,11.4,0,0,0,5.554-4.357l-.344-.134a15.877,15.877,0,0,1-2.334.032,1.905,1.905,0,0,1-.924-.225,1.8,1.8,0,0,1-.628-.893c-1.019-2.52-.7-5.348-.632-8.062.1-3.646.158-8.409-.826-11.921s-2.844-7.272-6.024-8.97c-3.891-2.078-9.527-1.422-13.647.782Z" transform="translate(-108.62 -31.212)" fill="url(#linear-gradient-47)"/>
                    <path id="Trazado_944915" data-name="Trazado 944915" d="M147.023,75.1a5.49,5.49,0,0,0-2.176-2.86,13.956,13.956,0,0,1-2.757-2.4,7.222,7.222,0,0,1-1.153-4.926,50.81,50.81,0,0,1,.94-5.08,25.194,25.194,0,0,0,.391-5.715c-.1-2.149-.612-4.507-2.346-5.775a6.5,6.5,0,0,0-2.433-1c-2.046-.458-3.267.059-5.324,1.331l-4.748,2.84c-.229.5-.442,1.007-.656,1.517a6,6,0,0,0,.9,1.39,13.051,13.051,0,0,0,2.97,2.109c1.351.845,2.481,1.825,2.362,3.488-.13,1.852-.371,3.7-.494,5.554A13.994,13.994,0,0,0,132.918,71a9.057,9.057,0,0,0,4.064,4.752,14.394,14.394,0,0,0,6.079,1.777,18.3,18.3,0,0,0,3.322-.024,2.678,2.678,0,0,0,.632-2.417Z" transform="translate(-110.792 -40.875)" fill="#fff"/>
                    <path id="Trazado_944916" data-name="Trazado 944916" d="M89.648,65.8a6.044,6.044,0,0,1,3.519-2.07c2.18-.581,4.7.182,6.814.553,1.592.28,4.041,1.019,5.656.948,1.418-.063,3.231-.265,4.167-1.118,1.367-1.248,1.738-4.843,1.552-5.19a8.9,8.9,0,0,0-3.812-1.7,85.546,85.546,0,0,0-9.1.028,16.006,16.006,0,0,0-3.093.671,15.45,15.45,0,0,0-3.7,1.414,11.452,11.452,0,0,0-2,1.572,2.741,2.741,0,0,0-1.11,2.105" transform="translate(-87.666 -46.884)" fill="#ffa227"/>
                    <g id="Grupo_1177668" data-name="Grupo 1177668" transform="translate(2.061 10.235)" opacity="0.55">
                      <path id="Trazado_944917" data-name="Trazado 944917" d="M109.364,57.234a85.546,85.546,0,0,0-9.1.028c-.194.016-.387.047-.581.075a25.75,25.75,0,0,0-8.133,6.719,13.005,13.005,0,0,1,6.663-2.544,33.342,33.342,0,0,1,7.209.158c2.259.233,4.665.486,6.691-.541a3.054,3.054,0,0,0,1.027-.8,3.963,3.963,0,0,0,.039-1.4,8.9,8.9,0,0,0-3.812-1.7Z" transform="translate(-91.55 -57.125)" fill="#cca581"/>
                    </g>
                    <path id="Trazado_944918" data-name="Trazado 944918" d="M198.113,95.724a18.517,18.517,0,0,1,.423-7.2c.328-1.256.952-2.639,2.2-2.99a.8.8,0,0,1,.628.028.958.958,0,0,1,.352.731c.454,3.369-1.691,5.806-3.136,8.879a15.539,15.539,0,0,1,8.382-5.269,1.154,1.154,0,0,1,1.11.15c.4.415.055,1.1-.332,1.521-2.283,2.481-6.268,3.9-9.626,4.151" transform="translate(-153.855 -64.047)" fill="#1e5359"/>
                    <g id="Grupo_1177669" data-name="Grupo 1177669" transform="translate(28.784 21.553)" opacity="0.55">
                      <path id="Trazado_944919" data-name="Trazado 944919" d="M170.342,96.665c-.241-.454-.446-.826-.478-.889-1.106-2.176-1.232-4.688-2.394-6.837a6.141,6.141,0,0,0-2.966-2.856,3.821,3.821,0,0,0-3.942.553,4.768,4.768,0,0,0-1.323,3.12,7.966,7.966,0,0,0,3.27,7.22,10.586,10.586,0,0,0,8.943,1.414c.213-.059-.664-.877-1.11-1.718Z" transform="translate(-159.205 -85.778)" fill="#cca581"/>
                    </g>
                    <path id="Trazado_944920" data-name="Trazado 944920" d="M171.042,95.075c-.241-.454-.446-.826-.478-.889-1.106-2.176-1.232-4.688-2.394-6.837a6.141,6.141,0,0,0-2.966-2.856,3.821,3.821,0,0,0-3.942.553,4.768,4.768,0,0,0-1.323,3.12,7.126,7.126,0,0,0,.541,3.654,7.924,7.924,0,0,0,2.943,3.164,13.166,13.166,0,0,0,8.4,2.086c.221-.02-.336-1.149-.778-1.991Z" transform="translate(-130.841 -63.263)" fill="url(#linear-gradient-48)"/>
                    <path id="Trazado_944921" data-name="Trazado 944921" d="M168.706,102.014c1.849,2.753,4.981,5.443,8.378,5.9a.193.193,0,0,0,.1-.371c-3.278-1.193-6.158-2.773-8.247-5.664-.1-.138-.328-.008-.233.134Z" transform="translate(-136.155 -73.931)" fill="#078e74"/>
                    <path id="Trazado_944922" data-name="Trazado 944922" d="M179.009,100.834a20.61,20.61,0,0,0,1.8,3.883,5.121,5.121,0,0,0,2.512,2.461.215.215,0,0,0,.166-.391c-2.058-1.422-3.2-3.776-4.057-6.071-.1-.257-.513-.15-.419.115h0Z" transform="translate(-142.394 -73.173)" fill="#078e74"/>
                    <path id="Trazado_944923" data-name="Trazado 944923" d="M106.515,35.2c-2.943-1.477-8.042-.012-11.091,1.173-3.263,1.268-6.5,3.385-8,6.825-1.473,3.369-1.288,11.02-.415,11.02s1.331-3.985,4.914-5.755a18.57,18.57,0,0,1,7.066-1.446c4.175-.288,9.2.9,10.594-.861s1.114-7.844-3.061-10.961Z" transform="translate(-86.332 -33.247)" fill="#fedd14"/>
                    <path id="Trazado_944924" data-name="Trazado 944924" d="M97.756,45.774a3.429,3.429,0,0,0-2.145.478A8.5,8.5,0,0,0,90.84,52.7a10.451,10.451,0,0,1,1.4-1.331,45.257,45.257,0,0,1,5.751-2.789,1.772,1.772,0,0,0,1.035-1.236A1.489,1.489,0,0,0,97.756,45.774Z" transform="translate(-89.059 -40)" fill="#fff772"/>
                    <g id="Grupo_1177670" data-name="Grupo 1177670" transform="translate(26.106 8.913)">
                      <path id="Trazado_944925" data-name="Trazado 944925" d="M152.521,55.544a1.63,1.63,0,0,0,.573.818,1.484,1.484,0,0,0,1.485.134,1.438,1.438,0,0,0,.348-2.315,1.669,1.669,0,0,0-1.647-.312,1.278,1.278,0,0,0-.766,1.679Z" transform="translate(-152.424 -53.777)" fill="#1e405b"/>
                      <path id="Trazado_944926" data-name="Trazado 944926" d="M154.131,56.005a.631.631,0,0,0,.229.328.607.607,0,0,0,.6.055.576.576,0,0,0,.138-.928.667.667,0,0,0-.66-.126.515.515,0,0,0-.308.671Z" transform="translate(-153.433 -54.697)" fill="#fff"/>
                    </g>
                    <g id="Grupo_1177671" data-name="Grupo 1177671" transform="translate(26.322 34.652)">
                      <path id="Trazado_944927" data-name="Trazado 944927" d="M156.581,120.268a1.1,1.1,0,0,0-.2-.494,1.424,1.424,0,0,0-1.13-.806,1.961,1.961,0,0,0-2.026,1.015,2.58,2.58,0,0,0-.15.446,4.238,4.238,0,0,0-.063,1.556.351.351,0,0,0,.043.146.169.169,0,0,0,.205.028.811.811,0,0,0,.2-.15A4.546,4.546,0,0,1,155.945,121a.755.755,0,0,0,.458-.17.7.7,0,0,0,.186-.553Z" transform="translate(-152.972 -118.946)" fill="#dd7303"/>
                      <path id="Trazado_944928" data-name="Trazado 944928" d="M162.468,120.983a2.316,2.316,0,0,0-.668-.34,1.668,1.668,0,0,0-1.141.051,2.04,2.04,0,0,0-.8.715,2.341,2.341,0,0,0-.28.517,3.408,3.408,0,0,0-.146.624c-.043.265-.087.533-.13.8a.1.1,0,0,0,.008.075c.02.028.059.028.095.024a1.93,1.93,0,0,0,.359-.095,10.2,10.2,0,0,0,2.761-1.228.706.706,0,0,0,.375-.66c-.024-.253-.249-.348-.438-.486Z" transform="translate(-156.801 -119.925)" fill="#dd7303"/>
                      <path id="Trazado_944929" data-name="Trazado 944929" d="M160.162,120.162a2.086,2.086,0,0,0-.308-.6,1.758,1.758,0,0,0-1.572-.612,2.7,2.7,0,0,0-1.544.782,2.6,2.6,0,0,0-.62,1.213,2.06,2.06,0,0,0-.024,1.473.254.254,0,0,0,.055.083.226.226,0,0,0,.2,0c.561-.217,1.062-.569,1.619-.8a9.862,9.862,0,0,0,1.908-.778" transform="translate(-154.783 -118.942)" fill="#dd7303"/>
                      <path id="Trazado_944930" data-name="Trazado 944930" d="M162.71,123.2a.034.034,0,0,0,0-.067.034.034,0,0,0,0,.067Z" transform="translate(-158.844 -121.476)" fill="#c66610"/>
                      <path id="Trazado_944931" data-name="Trazado 944931" d="M161.47,121.407a2.667,2.667,0,0,0-1.88,2.1.1.1,0,0,0,.182.047,7.954,7.954,0,0,1,.715-1.138,4.5,4.5,0,0,1,1.059-.833.1.1,0,0,0-.075-.178h0Z" transform="translate(-156.976 -120.429)" fill="#c66610"/>
                      <path id="Trazado_944932" data-name="Trazado 944932" d="M157.451,119.516a2.634,2.634,0,0,0-1.521,2.089.1.1,0,0,0,.182.047c.217-.344.332-.743.569-1.078a5.09,5.09,0,0,1,.889-.908c.091-.075-.024-.194-.118-.15Z" transform="translate(-154.761 -119.284)" fill="#c66610"/>
                    </g>
                    <path id="Trazado_944933" data-name="Trazado 944933" d="M172.476,88.836a.979.979,0,0,0-1.138-.146.394.394,0,0,0-.138.316.959.959,0,0,0,.087.344,2.559,2.559,0,0,0,.616.908,1.762,1.762,0,0,0,.984.466.4.4,0,0,0,.205-.02c.545-.261.316-.916.012-1.292a2.916,2.916,0,0,0-.628-.573Z" transform="translate(-137.678 -65.908)" fill="url(#linear-gradient-49)"/>
                    <path id="Trazado_944934" data-name="Trazado 944934" d="M178.484,92.428c-.166-.28-.4-.517-.7-.454a.288.288,0,0,0-.19.162.689.689,0,0,0-.051.253,1.85,1.85,0,0,0,.115.79,1.273,1.273,0,0,0,.5.616.271.271,0,0,0,.138.051c.442,0,.5-.5.415-.845a2.158,2.158,0,0,0-.229-.573Z" transform="translate(-141.514 -67.968)" fill="url(#linear-gradient-50)"/>
                    <path id="Trazado_944935" data-name="Trazado 944935" d="M177.221,96.52c-.091-.154-.221-.284-.383-.249a.148.148,0,0,0-.1.091.411.411,0,0,0-.028.138,1.021,1.021,0,0,0,.063.434.674.674,0,0,0,.273.336.135.135,0,0,0,.075.028c.241,0,.273-.273.229-.462a1.148,1.148,0,0,0-.126-.312Z" transform="translate(-141.009 -70.57)" fill="url(#linear-gradient-51)"/>
                    <g id="Grupo_1177672" data-name="Grupo 1177672" transform="translate(32.244 3.028)" opacity="0.56">
                      <path id="Trazado_944936" data-name="Trazado 944936" d="M168.129,39.128a8.268,8.268,0,0,1,2.69,1.738c.111.095.3-.024.213-.166a4.749,4.749,0,0,0-2.84-1.817.127.127,0,0,0-.067.245h0Z" transform="translate(-168.008 -38.879)" fill="#174215"/>
                      <path id="Trazado_944937" data-name="Trazado 944937" d="M177.164,45.7a2.15,2.15,0,0,1,.466.632,1.76,1.76,0,0,0,.28.573.105.105,0,0,0,.162-.02c.225-.49-.292-1.145-.62-1.469-.186-.182-.47.107-.284.284h0Z" transform="translate(-173.496 -42.796)" fill="#174215"/>
                      <path id="Trazado_944938" data-name="Trazado 944938" d="M172.942,45.594a3.267,3.267,0,0,1,.786.743c.178.241.28.529.47.762a.167.167,0,0,0,.28-.115,2.429,2.429,0,0,0-1.382-1.643.147.147,0,0,0-.15.253h0Z" transform="translate(-170.938 -42.777)" fill="#174215"/>
                      <path id="Trazado_944939" data-name="Trazado 944939" d="M180.248,52.611c.174.379.257.794.458,1.157a.12.12,0,0,0,.221-.059,2.546,2.546,0,0,0-.348-1.292c-.1-.225-.438-.028-.332.194Z" transform="translate(-175.384 -47.01)" fill="#174215"/>
                      <path id="Trazado_944940" data-name="Trazado 944940" d="M177.621,52.449a3.161,3.161,0,0,0,.352.944c.075.111.288.083.277-.075a3.3,3.3,0,0,0-.344-.987c-.071-.162-.332-.047-.284.118Z" transform="translate(-173.804 -46.97)" fill="#174215"/>
                      <path id="Trazado_944941" data-name="Trazado 944941" d="M183.379,58.809a6.591,6.591,0,0,0,.13,1.829.13.13,0,0,0,.249,0,6.463,6.463,0,0,0-.051-1.829c-.016-.205-.332-.213-.328,0Z" transform="translate(-177.29 -50.842)" fill="#174215"/>
                      <path id="Trazado_944942" data-name="Trazado 944942" d="M179.7,58.038c.047.249.087.5.118.75a1.086,1.086,0,0,0,.13.5.134.134,0,0,0,.241-.032,2.493,2.493,0,0,0-.154-1.307c-.055-.221-.379-.126-.336.091h0Z" transform="translate(-175.065 -50.339)" fill="#174215"/>
                      <path id="Trazado_944943" data-name="Trazado 944943" d="M172.824,50.9c.3.352.478.869.837,1.149a.124.124,0,0,0,.209-.087c.032-.51-.438-1-.766-1.347-.182-.19-.45.091-.284.284h0Z" transform="translate(-170.871 -45.94)" fill="#174215"/>
                      <path id="Trazado_944944" data-name="Trazado 944944" d="M168.094,43.473a4.981,4.981,0,0,1,.715.261,3.816,3.816,0,0,0,.561.265.156.156,0,0,0,.15-.261,2.972,2.972,0,0,0-1.335-.608.176.176,0,0,0-.095.34h0Z" transform="translate(-167.966 -41.446)" fill="#174215"/>
                      <path id="Trazado_944945" data-name="Trazado 944945" d="M183.89,67.694c.012.265-.075.592.083.818a.084.084,0,0,0,.13.016c.217-.2.15-.565.134-.833-.016-.221-.359-.225-.348,0Z" transform="translate(-177.592 -56.211)" fill="#174215"/>
                      <path id="Trazado_944946" data-name="Trazado 944946" d="M179.753,63.265a1.657,1.657,0,0,0,0,.845.134.134,0,0,0,.257,0,1.657,1.657,0,0,0,0-.845.134.134,0,0,0-.257,0h0Z" transform="translate(-175.063 -53.575)" fill="#174215"/>
                      <path id="Trazado_944947" data-name="Trazado 944947" d="M176.454,59.545a3.178,3.178,0,0,0,.174.7c.063.142.284.063.284-.079a3.1,3.1,0,0,0-.134-.711c-.051-.213-.367-.122-.324.091Z" transform="translate(-173.099 -51.253)" fill="#174215"/>
                    </g>
                  </g>
                </g>
                <g id="Grupo_1177679" data-name="Grupo 1177679" transform="translate(65.363 142.22)">
                  <g id="Grupo_1177675" data-name="Grupo 1177675" transform="translate(2.496)">
                    <path id="Trazado_944948" data-name="Trazado 944948" d="M146.281,172.132a8.624,8.624,0,0,0-3.018-4.657c-1.122-.691-2.35-1.2-3.468-1.9a12.115,12.115,0,0,1-5.324-7.6,16.169,16.169,0,0,1-.462-4.384,22.483,22.483,0,0,1,.261-2.524c.095-.585.375-1.623.482-2.255a10.688,10.688,0,0,0,1.825,4.187c1.477,2.038,3.737,3.669,4.3,6.126.284,1.26.079,2.6.454,3.839a10.286,10.286,0,0,0,2.338,3.432,24.839,24.839,0,0,1,3.377,5.123" transform="translate(-123.281 -148.204)" fill="#f05e22"/>
                    <path id="Trazado_944949" data-name="Trazado 944949" d="M161.184,170.774a23.94,23.94,0,0,1-4.428-9.132,16.607,16.607,0,0,1,.735-10.037,28.465,28.465,0,0,1,2.469-4.345c-1.276,3.725,1.074,7.71,1,11.648-.036,1.88-.632,3.7-.833,5.573s.075,3.958,1.45,5.241" transform="translate(-136.782 -147.26)" fill="#f05e22"/>
                    <path id="Trazado_944950" data-name="Trazado 944950" d="M169.416,170.866a10.377,10.377,0,0,1-1.556-7.769,27.324,27.324,0,0,1,2.769-7.619,18.756,18.756,0,0,0,1.1-2.54,17.356,17.356,0,0,0,.513-5.407c.514,1.8,1.319,3.31,1.963,4.985a10.784,10.784,0,0,1,.3,6.217,20.856,20.856,0,0,1-2.453,5.794c-.7,1.193-1.461,1.75-1.979,3.03a4.555,4.555,0,0,0,.055,4.009" transform="translate(-143.671 -147.423)" fill="#f05e22"/>
                    <path id="Trazado_944951" data-name="Trazado 944951" d="M173.866,191.257a11.014,11.014,0,0,1,3.508-8.563,14.038,14.038,0,0,1,8.638-3.634,7.023,7.023,0,0,0-1.793,1.323,16.405,16.405,0,0,0-2.311,3.3,14.436,14.436,0,0,1-2.358,3.219c-.869.782-1.947,1.3-2.84,2.05a6.828,6.828,0,0,0-2.275,3.867" transform="translate(-147.39 -166.499)" fill="#f05e22"/>
                    <path id="Trazado_944952" data-name="Trazado 944952" d="M127.994,189.525c-3.373-2.165-6.62-4.42-10.669-5.629-3.373-1.007-6.948-.059-10.353-.747a.951.951,0,0,0-.1-.02,13.544,13.544,0,0,0,8.054,4.523c4.621.743,9.488,0,13.651,2.567" transform="translate(-106.87 -168.962)" fill="#f05e22"/>
                  </g>
                  <g id="Grupo_1177676" data-name="Grupo 1177676" transform="translate(2.816 0.466)">
                    <path id="Trazado_944953" data-name="Trazado 944953" d="M165.135,170.938a13.551,13.551,0,0,1-1.572-9.318c.115-.589.269-1.169.355-1.762a14.19,14.19,0,0,0,.118-1.92,17.22,17.22,0,0,0-.158-2.958c-.162-.976-.47-1.928-.557-2.911a6.616,6.616,0,0,1,.731-3.63c-.94,3.59,1.2,7.4,1.126,11.174-.036,1.88-.632,3.7-.833,5.573a7.438,7.438,0,0,0,.537,3.981c.016.395.043.786.087,1.181l.162.585Z" transform="translate(-141.329 -148.44)" fill="#ce3d27"/>
                    <path id="Trazado_944954" data-name="Trazado 944954" d="M172.037,172.969l-.395-.391a6.86,6.86,0,0,1-.134-6.067c1.319-2.453,2.583-5.621,2.619-8.125.375,2.441-.367,4.222-1.1,6.162a20.616,20.616,0,0,0,1.758-3.97c1.643-4.519-.059-8.824-.336-10.728.5,1.414,1.134,2.686,1.667,4.068a10.784,10.784,0,0,1,.3,6.217,20.855,20.855,0,0,1-2.453,5.794c-.7,1.193-1.461,1.75-1.979,3.03A4.556,4.556,0,0,0,172.037,172.969Z" transform="translate(-145.905 -149.293)" fill="#ce3d27"/>
                    <path id="Trazado_944955" data-name="Trazado 944955" d="M174.211,192.039l-.2-.557.34-.719c.225-1.493,1.379-2.646,2.358-3.8,1.248-1.469,2.334-3.136,3.946-4.191a21.641,21.641,0,0,0-3.227,4.29.189.189,0,0,0-.036.154c.04.095.178.059.265.008a9.509,9.509,0,0,0,2.757-2.745,37.246,37.246,0,0,1,2.315-3.16,6.3,6.3,0,0,1,3.239-2.089.077.077,0,0,0,.028,0,6.865,6.865,0,0,0-1.675,1.26,16.406,16.406,0,0,0-2.311,3.3,14.434,14.434,0,0,1-2.358,3.219c-.869.782-1.947,1.3-2.84,2.05a6.844,6.844,0,0,0-2.026,2.966,3.083,3.083,0,0,1-.573.016Z" transform="translate(-147.811 -167.068)" fill="#ce3d27"/>
                    <path id="Trazado_944956" data-name="Trazado 944956" d="M143.21,165.844a5.69,5.69,0,0,1-3.168-4.175c-.2-.754-.3-1.533-.537-2.283a12.157,12.157,0,0,0-2.22-4.211l.107.095a8.7,8.7,0,0,1,2.646,4.029c.158.6.3,1.149.474,1.679,0-.091.008-.186.008-.28a8.222,8.222,0,0,0-1.149-4.151c-.79-1.367-1.829-2.571-2.536-3.993a8.106,8.106,0,0,1-.9-3.733,10.688,10.688,0,0,0,1.825,4.187c1.477,2.038,3.737,3.669,4.3,6.126.284,1.26.079,2.6.454,3.839a10.286,10.286,0,0,0,2.338,3.432,24.658,24.658,0,0,1,1.963,2.646.713.713,0,0,0,.142.474l-.624-.774a8.192,8.192,0,0,0-3.124-2.9h0Z" transform="translate(-124.772 -148.67)" fill="#ce3d27"/>
                    <path id="Trazado_944957" data-name="Trazado 944957" d="M107.68,183.98c2.958,2.18,8.228,3.353,9.729,3.527,1.529.178,3.069.277,4.606.375l-6.632-1.5a24.092,24.092,0,0,1,10.522,2.528l.64.66c-3.539-1.169-7.41-.806-11.127-1.4a13.527,13.527,0,0,1-7.738-4.183Z" transform="translate(-107.68 -169.942)" fill="#ce3d27"/>
                  </g>
                  <path id="Trazado_944958" data-name="Trazado 944958" d="M148.7,256.4c-2.52-6.652-16.637-45.1-19.453-51.625a8.356,8.356,0,0,0-.991-1.852c-1.446-1.884-4.1-2.236-6.462-2.441q-4.023-.344-8.046-.691c-4.1-.352-12.525-3.263-13.2-8.943,1.552,2.346,4.665,3.049,7.477,3.191a33.169,33.169,0,0,0,5.423-.174c2.35-.273,4.669-.794,7.027-.968a12.879,12.879,0,0,1,6.912,1.118,6.793,6.793,0,0,1,3.82,5.581c.032,1.3-.411,2.571-.375,3.867a12.085,12.085,0,0,0,.9,3.571c1.153,3.3,19.074,44.839,19.074,44.839" transform="translate(-100.55 -173.633)" fill="#22aa80"/>
                  <g id="Grupo_1177677" data-name="Grupo 1177677" transform="translate(0 17.214)" opacity="0.34">
                    <path id="Trazado_944959" data-name="Trazado 944959" d="M121.789,195.272a6.6,6.6,0,0,1,4.783,2.01c-3.259-2.247-9.073-.415-13.335-.893a21.331,21.331,0,0,1-5.719-1.477c1.833,1.54,4.629,2.172,7.6,2.311-2.848,1.457-12.987-2.409-14.563-6.383,1.552,2.346,4.665,3.049,7.477,3.191a33.169,33.169,0,0,0,5.423-.174c2.35-.273,4.669-.794,7.027-.968a12.879,12.879,0,0,1,6.912,1.118,6.888,6.888,0,0,1,3.8,5.238c-3.444-9.725-15.29-3.452-19.619-4.452,1.576.829,8.441.4,10.218.478Z" transform="translate(-100.55 -190.84)" fill="#8fef99"/>
                  </g>
                  <g id="Grupo_1177678" data-name="Grupo 1177678" transform="translate(8.03 24.916)">
                    <path id="Trazado_944960" data-name="Trazado 944960" d="M164.048,269.049c-2.52-6.652-16.637-45.1-19.453-51.625a8.355,8.355,0,0,0-.991-1.852c-1.446-1.884-4.1-2.236-6.462-2.441q-4.023-.344-8.046-.691a18.163,18.163,0,0,1-3.176-.6,50.481,50.481,0,0,0,10.554-.032,11.311,11.311,0,0,1,6.264,1.232,6.726,6.726,0,0,1,2.37,3.361c.221.683,15.78,41.075,19.706,51Z" transform="translate(-123.929 -211.195)" fill="#128978"/>
                    <path id="Trazado_944961" data-name="Trazado 944961" d="M120.88,210.34a3.077,3.077,0,0,1,.454.166C121.184,210.455,121.034,210.4,120.88,210.34Z" transform="translate(-120.88 -210.34)" fill="#31abb1"/>
                  </g>
                </g>
                <g id="Grupo_1177680" data-name="Grupo 1177680" transform="translate(27.282 103.745)">
                  <path id="Trazado_944962" data-name="Trazado 944962" d="M38.938,205.694a.944.944,0,1,1-.944-.944A.944.944,0,0,1,38.938,205.694Z" transform="translate(-24.051 -143.566)" fill="url(#linear-gradient-52)"/>
                  <path id="Trazado_944963" data-name="Trazado 944963" d="M98.028,146.721a.946.946,0,1,1-.944-.881A.914.914,0,0,1,98.028,146.721Z" transform="translate(-59.801 -107.925)" fill="url(#linear-gradient-53)"/>
                  <path id="Trazado_944964" data-name="Trazado 944964" d="M240.008,124.224a.944.944,0,1,1-.944-.944A.944.944,0,0,1,240.008,124.224Z" transform="translate(-145.701 -94.276)" fill="url(#linear-gradient-54)"/>
                  <ellipse id="Elipse_11764-2" data-name="Elipse 11764" cx="1.375" cy="1.284" rx="1.375" ry="1.284" transform="translate(43.595 24.548)" fill="url(#linear-gradient-55)"/>
                  <ellipse id="Elipse_11765" data-name="Elipse 11765" cx="1.375" cy="1.284" rx="1.375" ry="1.284" transform="translate(45.838 36.228)" fill="url(#linear-gradient-56)"/>
                  <path id="Trazado_944965" data-name="Trazado 944965" d="M209.608,73.964a.944.944,0,1,1-.944-.944A.944.944,0,0,1,209.608,73.964Z" transform="translate(-127.308 -63.868)" fill="url(#linear-gradient-52)"/>
                  <path id="Trazado_944966" data-name="Trazado 944966" d="M218.538,262.864a.944.944,0,1,1-.944-.944A.944.944,0,0,1,218.538,262.864Z" transform="translate(-132.711 -178.155)" fill="url(#linear-gradient-54)"/>
                  <path id="Trazado_944967" data-name="Trazado 944967" d="M34.608,245.044a.944.944,0,1,1-.944-.944A.944.944,0,0,1,34.608,245.044Z" transform="translate(-21.431 -167.374)" fill="url(#linear-gradient-54)"/>
                  <path id="Trazado_944968" data-name="Trazado 944968" d="M6.028,287.974a.944.944,0,1,1-.944-.944A.944.944,0,0,1,6.028,287.974Z" transform="translate(-4.14 -193.347)" fill="url(#linear-gradient-60)"/>
                  <path id="Trazado_944969" data-name="Trazado 944969" d="M268.828,256.354a.944.944,0,1,1-.944-.944A.944.944,0,0,1,268.828,256.354Z" transform="translate(-163.137 -174.216)" fill="url(#linear-gradient-52)"/>
                  <path id="Trazado_944970" data-name="Trazado 944970" d="M59.586,324.948a.8.8,0,1,1-.8-.8A.8.8,0,0,1,59.586,324.948Z" transform="translate(-36.72 -215.805)" fill="url(#linear-gradient-62)"/>
                  <path id="Trazado_944971" data-name="Trazado 944971" d="M32.666,276.908a.8.8,0,1,1-.8-.8A.8.8,0,0,1,32.666,276.908Z" transform="translate(-20.433 -186.74)" fill="url(#linear-gradient-63)"/>
                  <path id="Trazado_944972" data-name="Trazado 944972" d="M186.466,298.2a.8.8,0,1,1-.8-.8A.8.8,0,0,1,186.466,298.2Z" transform="translate(-113.484 -199.621)" fill="url(#linear-gradient-63)"/>
                  <path id="Trazado_944973" data-name="Trazado 944973" d="M82.324,310.632a.482.482,0,1,1-.482-.482A.481.481,0,0,1,82.324,310.632Z" transform="translate(-50.859 -207.335)" fill="url(#linear-gradient-65)"/>
                  <circle id="Elipse_11766" data-name="Elipse 11766" cx="0.482" cy="0.482" r="0.482" transform="translate(27.337 75.411)" fill="url(#linear-gradient-66)"/>
                  <path id="Trazado_944974" data-name="Trazado 944974" d="M274.754,210.032a.482.482,0,1,1-.482-.482A.481.481,0,0,1,274.754,210.032Z" transform="translate(-167.282 -146.471)" fill="url(#linear-gradient-67)"/>
                  <path id="Trazado_944975" data-name="Trazado 944975" d="M213.474,246.972a.482.482,0,1,1-.482-.482A.481.481,0,0,1,213.474,246.972Z" transform="translate(-130.206 -168.82)" fill="url(#linear-gradient-67)"/>
                  <path id="Trazado_944976" data-name="Trazado 944976" d="M141,267.292a.482.482,0,1,1-.482-.482A.481.481,0,0,1,141,267.292Z" transform="translate(-86.361 -181.114)" fill="url(#linear-gradient-66)"/>
                  <path id="Trazado_944977" data-name="Trazado 944977" d="M166.734,287.3a.482.482,0,1,1-.482-.482A.481.481,0,0,1,166.734,287.3Z" transform="translate(-101.928 -193.22)" fill="url(#linear-gradient-67)"/>
                  <path id="Trazado_944978" data-name="Trazado 944978" d="M304.934,221.542a.482.482,0,1,1-.482-.482A.481.481,0,0,1,304.934,221.542Z" transform="translate(-185.541 -153.434)" fill="url(#linear-gradient-65)"/>
                  <path id="Trazado_944979" data-name="Trazado 944979" d="M312.124,127.472a.482.482,0,1,1-.482-.482A.481.481,0,0,1,312.124,127.472Z" transform="translate(-189.891 -96.521)" fill="url(#linear-gradient-67)"/>
                  <path id="Trazado_944980" data-name="Trazado 944980" d="M237.864,50.332a.482.482,0,1,1-.482-.482A.481.481,0,0,1,237.864,50.332Z" transform="translate(-144.963 -49.85)" fill="url(#linear-gradient-67)"/>
                  <circle id="Elipse_11767" data-name="Elipse 11767" cx="0.482" cy="0.482" r="0.482" transform="translate(2.279 71.106)" fill="url(#linear-gradient-74)"/>
                </g>
              </g>
            </g>
          </g>
        </g>
      </g>
    </g>
  </g>
</svg>
