<svg xmlns="http://www.w3.org/2000/svg" xmlns:xlink="http://www.w3.org/1999/xlink" width="118" height="118" viewBox="0 0 118 118">
  <defs>
    <filter id="Trazado_920741" x="0" y="0" width="118" height="118" filterUnits="userSpaceOnUse">
      <feOffset dy="3" input="SourceAlpha"/>
      <feGaussianBlur stdDeviation="3" result="blur"/>
      <feFlood flood-opacity="0.161"/>
      <feComposite operator="in" in2="blur"/>
      <feComposite in="SourceGraphic"/>
    </filter>
  </defs>
  <g id="Grupo_1177577" data-name="Grupo 1177577" transform="translate(-411.051 -5664)">
    <g transform="matrix(1, 0, 0, 1, 411.05, 5664)" filter="url(#Trazado_920741)">
      <g id="Trazado_920741-2" data-name="Trazado 920741" transform="translate(9 6)" fill="#fff">
        <path d="M 50.00003814697266 97.99991607666016 C 43.51918029785156 97.99991607666016 37.23325347900391 96.73108673095703 31.31685256958008 94.22866058349609 C 25.60128211975098 91.81118774414062 20.46775245666504 88.34992980957031 16.05886840820312 83.94105529785156 C 11.64998149871826 79.53217315673828 8.188724517822266 74.39865875244141 5.771253108978271 68.68309020996094 C 3.268824815750122 62.76671600341797 1.999996185302734 56.48078536987305 1.999996185302734 49.99995803833008 C 1.999996185302734 43.51913070678711 3.268824815750122 37.23321533203125 5.771253108978271 31.31681442260742 C 8.188724517822266 25.60125732421875 11.64998149871826 20.46774291992188 16.05885314941406 16.05885887145996 C 20.46773910522461 11.64998626708984 25.60125350952148 8.188729286193848 31.31681060791016 5.771257877349854 C 37.23321151733398 3.268829584121704 43.51912307739258 2.000000953674316 49.99995422363281 2.000000953674316 C 56.48081207275391 2.000000953674316 62.76673889160156 3.268829584121704 68.68313598632812 5.771257877349854 C 74.39871215820312 8.188729286193848 79.53224182128906 11.64998626708984 83.94112396240234 16.05885887145996 C 88.35001373291016 20.46774291992188 91.81126403808594 25.60125732421875 94.22873687744141 31.31682968139648 C 96.73117065429688 37.23320007324219 98 43.51913070678711 98 49.99995803833008 C 98 56.48078536987305 96.73117065429688 62.76670074462891 94.22873687744141 68.68309783935547 C 91.81126403808594 74.39865875244141 88.35001373291016 79.53217315673828 83.94113922119141 83.94105529785156 C 79.53225708007812 88.34992980957031 74.39874267578125 91.81118774414062 68.68318176269531 94.22866058349609 C 62.76678085327148 96.73108673095703 56.48086929321289 97.99991607666016 50.00003814697266 97.99991607666016 Z" stroke="none"/>
        <path d="M 49.99996185302734 3.999992370605469 C 43.78824615478516 3.999992370605469 37.76446151733398 5.215675354003906 32.09593200683594 7.613258361816406 C 26.61875915527344 9.929908752441406 21.69892883300781 13.24722290039062 17.47307586669922 17.47307586669922 C 13.24723052978516 21.69892120361328 9.929916381835938 26.61875915527344 7.613265991210938 32.09592437744141 C 5.215682983398438 37.76445770263672 3.999992370605469 43.78824234008789 3.999992370605469 49.99995803833008 C 3.999992370605469 56.21167373657227 5.215682983398438 62.23545837402344 7.613265991210938 67.90399169921875 C 9.929916381835938 73.38115692138672 13.24723052978516 78.30099487304688 17.47307586669922 82.52684020996094 C 21.69892883300781 86.75267791748047 26.61878204345703 90.07000732421875 32.09596252441406 92.38664245605469 C 37.76449584960938 94.78422546386719 43.78831100463867 95.99990844726562 50.00004577636719 95.99990844726562 C 56.21176147460938 95.99990844726562 62.23554611206055 94.78422546386719 67.90408325195312 92.38664245605469 C 73.38124847412109 90.07000732421875 78.30107879638672 86.75269317626953 82.52693176269531 82.52684020996094 C 86.75277709960938 78.30099487304688 90.07009887695312 73.38115692138672 92.38672637939453 67.90399169921875 C 94.78430938720703 62.23545837402344 96 56.21167373657227 96 49.99995803833008 C 96 43.78824234008789 94.78430938720703 37.76445770263672 92.38672637939453 32.09592437744141 C 90.07008361816406 26.61875915527344 86.75276184082031 21.69892120361328 82.52691650390625 17.47307586669922 C 78.30106353759766 13.24722290039062 73.38121032714844 9.929908752441406 67.90404510498047 7.613258361816406 C 62.23549652099609 5.215675354003906 56.21169662475586 3.999992370605469 49.99996185302734 3.999992370605469 M 49.99996185302734 -7.62939453125e-06 L 50.00004577636719 -7.62939453125e-06 C 77.61426544189453 -7.62939453125e-06 100 22.3857421875 100 49.99995803833008 C 100 77.61417388916016 77.61426544189453 99.99990844726562 50.00004577636719 99.99990844726562 L 49.99996185302734 99.99990844726562 C 22.38574981689453 99.99990844726562 -7.62939453125e-06 77.61417388916016 -7.62939453125e-06 49.99995803833008 C -7.62939453125e-06 22.3857421875 22.38574981689453 -7.62939453125e-06 49.99996185302734 -7.62939453125e-06 Z" stroke="none" fill="#f3d02c"/>
      </g>
    </g>
    <g id="Grupo_1177552" data-name="Grupo 1177552" transform="translate(420.744 5670.707)">
      <g id="Grupo_1177552-2" data-name="Grupo 1177552" transform="translate(17.766 17.752)">
        <path id="Trazado_944663" data-name="Trazado 944663" d="M77.7,51.282h-5.98A19.664,19.664,0,0,0,70.537,45.2l1.552-.627a.687.687,0,1,0-.515-1.274l-1.56.63A19.853,19.853,0,0,0,66.4,38.5l2.127-2.128a.687.687,0,1,0-.972-.972l-2.128,2.128A19.871,19.871,0,0,0,60.3,34.069l.663-1.563a.688.688,0,1,0-1.266-.537l-.663,1.562a19.678,19.678,0,0,0-6.393-1.3V26.22a.687.687,0,1,0-1.375,0v6.013A19.659,19.659,0,0,0,45.2,33.406l-.634-1.57a.687.687,0,0,0-1.274.515l.636,1.575a19.849,19.849,0,0,0-5.439,3.6L36.357,35.4a.687.687,0,0,0-.972.972L37.513,38.5a19.872,19.872,0,0,0-3.473,5.119l-1.548-.657a.688.688,0,0,0-.537,1.266l1.546.656a19.661,19.661,0,0,0-1.312,6.4h-5.98a.687.687,0,0,0,0,1.375h5.98a19.651,19.651,0,0,0,1.168,6.088l-1.533.619a.687.687,0,1,0,.515,1.274l1.535-.62a19.839,19.839,0,0,0,3.608,5.454l-2.1,2.1a.687.687,0,1,0,.972.972l2.095-2.1a19.848,19.848,0,0,0,5.135,3.481l-.641,1.509a.688.688,0,0,0,1.266.537l.64-1.507a19.658,19.658,0,0,0,6.415,1.306v5.947a.687.687,0,1,0,1.375,0V71.769a19.684,19.684,0,0,0,6.1-1.18l.612,1.514a.687.687,0,0,0,1.274-.515l-.614-1.52a19.831,19.831,0,0,0,5.449-3.623l2.095,2.094a.687.687,0,0,0,.972-.972l-2.1-2.095a19.863,19.863,0,0,0,3.467-5.14l1.524.647a.688.688,0,1,0,.537-1.266l-1.524-.647a19.675,19.675,0,0,0,1.292-6.409H77.7a.688.688,0,0,0,0-1.376ZM51.955,70.412A18.351,18.351,0,0,1,38.8,64.868l8.578-4.11a9.956,9.956,0,0,1,7.092-.489l3.633,1.18-4.388,3a.688.688,0,0,0,.775,1.136l4.6-3.144a6.7,6.7,0,0,1,7.317-.159l.556.358a18.4,18.4,0,0,1-15.014,7.774Zm15.77-8.922-.578-.372a8.076,8.076,0,0,0-7.407-.583l-4.852-1.576a11.322,11.322,0,0,0-6.4-.06c.293-.984.605-1.945.959-2.843a.38.38,0,0,0,.015-.045c.291-.739.6-1.456.92-2.13a31.853,31.853,0,0,1,1.82-3.327,4.477,4.477,0,0,0,.715.652A5.131,5.131,0,0,0,55.9,52.229a4.449,4.449,0,0,0,.819-.076,6.7,6.7,0,0,0,4.2-3.247c1.5-2.286,2.023-6.03,2.276-7.83.046-.328.1-.693.13-.854a.687.687,0,0,0-.6-1.025H62.68c-.506.011-5.7.178-8.826,2.476-2.582,1.9-3.735,4.267-3.163,6.49a4.243,4.243,0,0,0,.6,1.283,32.556,32.556,0,0,0-2.147,3.847c-.158.333-.313.677-.465,1.027-.284-.454-.579-.936-.812-1.337l.2-.217a3.8,3.8,0,0,0,.9-1.592c.465-1.809-.461-3.725-2.542-5.257-2.493-1.833-6.624-1.966-7.024-1.974a.706.706,0,0,0-.723.681.687.687,0,0,0,.077.322c.025.129.063.4.1.643.216,1.534.616,4.39,1.812,6.216a5.386,5.386,0,0,0,3.519,2.636,3.581,3.581,0,0,0,.554.043,4.03,4.03,0,0,0,2.066-.6c.391.658.891,1.457,1.248,2.007-.432,1.134-.819,2.335-1.157,3.585-.03.014-.062.023-.092.038L38.2,63.634a.673.673,0,0,0-.28.269,18.4,18.4,0,1,1,29.8-2.412ZM58.11,42.953a.69.69,0,0,0-.854-.04,22.573,22.573,0,0,0-5.1,5.274,2.53,2.53,0,0,1-.129-.366c-.425-1.651.539-3.489,2.647-5.04,2.151-1.583,5.6-2.034,7.2-2.161-.012.085-.024.173-.038.267-.239,1.7-.735,5.238-2.064,7.266a5.484,5.484,0,0,1-3.3,2.649,3.527,3.527,0,0,1-2.748-.715,3.137,3.137,0,0,1-.5-.465l-.224-.247a21.38,21.38,0,0,1,5.05-5.332.732.732,0,0,0,.138-.123.683.683,0,0,0-.067-.966ZM42.7,48.122a14.423,14.423,0,0,1,3.42,4.565,2.584,2.584,0,0,1-1.735.4,4.1,4.1,0,0,1-2.577-2.032c-1.027-1.567-1.414-4.327-1.6-5.653l0-.029a11.638,11.638,0,0,1,5.4,1.655c1.605,1.183,2.344,2.571,2.025,3.809a2.337,2.337,0,0,1-.48.877,14.785,14.785,0,0,0-3.6-4.668.687.687,0,0,0-.849,1.081Z" transform="translate(-20.191 -20.186)" fill="#128477"/>
        <path id="Trazado_944664" data-name="Trazado 944664" d="M80.908,44.463a.685.685,0,0,0-.565-.566l-5.7-.95a25.6,25.6,0,0,0-2.712-6.53l3.36-4.7a.687.687,0,0,0,0-.8,31.318,31.318,0,0,0-3.282-3.865,30.869,30.869,0,0,0-3.873-3.29.689.689,0,0,0-.8,0l-4.7,3.361A25.6,25.6,0,0,0,56.1,24.416l-.943-5.692a.685.685,0,0,0-.566-.566,31.638,31.638,0,0,0-10.113,0,.685.685,0,0,0-.566.565l-.95,5.7a25.618,25.618,0,0,0-6.531,2.712l-4.7-3.36a.689.689,0,0,0-.8,0,31.209,31.209,0,0,0-7.153,7.153.686.686,0,0,0,0,.8l3.365,4.7a25.61,25.61,0,0,0-2.711,6.538l-5.692.943a.685.685,0,0,0-.566.566,31.528,31.528,0,0,0,0,10.114.685.685,0,0,0,.565.566l5.7.95a25.641,25.641,0,0,0,2.712,6.532l-3.36,4.7a.687.687,0,0,0,0,.8,31.209,31.209,0,0,0,7.153,7.153.686.686,0,0,0,.8,0l4.7-3.365a25.59,25.59,0,0,0,6.537,2.711l.944,5.692a.686.686,0,0,0,.566.566,31.524,31.524,0,0,0,10.114,0,.685.685,0,0,0,.566-.565l.95-5.7a25.626,25.626,0,0,0,6.531-2.712l4.7,3.36a.689.689,0,0,0,.8,0,31.255,31.255,0,0,0,3.865-3.282,30.87,30.87,0,0,0,3.29-3.873.686.686,0,0,0,0-.8l-3.361-4.7a25.594,25.594,0,0,0,2.706-6.537l5.692-.944a.686.686,0,0,0,.566-.566,31.515,31.515,0,0,0,0-10.112Zm-1.28,9.4-5.646.936a.688.688,0,0,0-.557.517A24.206,24.206,0,0,1,70.537,62.3a.689.689,0,0,0,.027.759L73.9,67.718a29.914,29.914,0,0,1-6.153,6.152l-4.661-3.333a.689.689,0,0,0-.759-.027A24.249,24.249,0,0,1,55.355,73.4a.686.686,0,0,0-.517.555L53.9,79.613a30.372,30.372,0,0,1-8.7,0l-.936-5.646a.688.688,0,0,0-.517-.557,24.213,24.213,0,0,1-6.977-2.894.687.687,0,0,0-.759.028L31.35,73.883A29.843,29.843,0,0,1,25.2,67.731L28.53,63.07a.689.689,0,0,0,.027-.759,24.242,24.242,0,0,1-2.895-6.972.685.685,0,0,0-.555-.517l-5.654-.942a30.257,30.257,0,0,1,0-8.7l5.646-.935a.688.688,0,0,0,.557-.517,24.2,24.2,0,0,1,2.894-6.978A.688.688,0,0,0,28.522,36l-3.339-4.661a29.8,29.8,0,0,1,6.152-6.152L36,28.515a.689.689,0,0,0,.759.027,24.29,24.29,0,0,1,6.972-2.895.685.685,0,0,0,.517-.555l.942-5.654a30.372,30.372,0,0,1,8.7,0l.935,5.646a.688.688,0,0,0,.517.557,24.207,24.207,0,0,1,6.978,2.887.691.691,0,0,0,.759-.027l4.662-3.334a29.913,29.913,0,0,1,6.152,6.153l-3.333,4.661a.689.689,0,0,0-.027.759,24.27,24.27,0,0,1,2.895,6.971.686.686,0,0,0,.555.517l5.654.942a30.229,30.229,0,0,1,0,8.7Z" transform="translate(-17.766 -17.752)" fill="#128477"/>
      </g>
    </g>
  </g>
</svg>
