<svg xmlns="http://www.w3.org/2000/svg" width="400" height="350" viewBox="0 0 400 350">
  <g id="Grupo_1185220" data-name="Grupo 1185220" transform="translate(-97 9059.193)">
    <rect id="Rectángulo_439025" data-name="Rectángulo 439025" width="400" height="350" rx="20" transform="translate(97 -9059.193)" fill="#e5f2f0"/>
    <g id="Grupo_1185165" data-name="Grupo 1185165" transform="translate(-502.742 -11608)">
      <rect id="Rectángulo_439022" data-name="Rectángulo 439022" width="331.907" height="211.676" transform="translate(634.04 2584)" fill="none" stroke="#336d4c" stroke-miterlimit="10" stroke-width="1.006"/>
      <g id="OBJECTS" transform="translate(625.382 2510.883)">
        <line id="Línea_1095" data-name="Línea 1095" x2="11.851" transform="translate(79.488 300.355)" fill="none" stroke="#423b37" stroke-miterlimit="10" stroke-width="0.839"/>
        <g id="Grupo_1185148" data-name="Grupo 1185148" transform="translate(45.36 62.892)">
          <path id="Trazado_950211" data-name="Trazado 950211" d="M298.867,325.044H59.562s-7.521-38.283,22.206-75.21,27.433-113.709,84.9-125.308c51.892-10.474,79.48,9.339,86.255,36.735C264.152,206.658,333.793,275.427,298.867,325.044Z" transform="translate(-50.077 -83.657)" fill="#d8f0db"/>
          <g id="Grupo_1185130" data-name="Grupo 1185130" transform="translate(8.731 57.651)">
            <g id="Grupo_1185121" data-name="Grupo 1185121" transform="translate(0 165.322)">
              <path id="Trazado_950212" data-name="Trazado 950212" d="M58.86,425.731H95.422s2.532-5.608-.543-15.2c-4.161-1.447-19.9-2.894-19.9-2.894a45.543,45.543,0,0,1-5.066,6.81C65.212,414.451,59.749,418.951,58.86,425.731Z" transform="translate(-58.86 -407.641)" fill="#638079"/>
              <path id="Trazado_950213" data-name="Trazado 950213" d="M87.765,417.3l-.505-.4a27.1,27.1,0,0,0,3.954-6.563l.606.226A27.2,27.2,0,0,1,87.765,417.3Z" transform="translate(-68.892 -408.59)" fill="#455955"/>
              <path id="Trazado_950214" data-name="Trazado 950214" d="M75.953,418.158s.318-.028.878-.021a18.431,18.431,0,0,1,2.312.184,19.247,19.247,0,0,1,3.207.752,15.451,15.451,0,0,1,1.733.7,14.288,14.288,0,0,1,1.689.951,12.2,12.2,0,0,1,1.524,1.208,10.915,10.915,0,0,1,1.263,1.4c.176.25.349.5.507.744l.415.754c.114.255.226.5.334.741s.175.484.259.712a9.524,9.524,0,0,1,.33,1.277c.056.389.127.721.147,1,.037.558.058.876.058.876s-.066-.312-.182-.856c-.05-.272-.158-.593-.256-.963-.12-.365-.261-.774-.438-1.208-.1-.215-.186-.441-.3-.667l-.369-.687-.445-.689-.512-.684a12.286,12.286,0,0,0-1.235-1.29,11.586,11.586,0,0,0-1.46-1.129,16.5,16.5,0,0,0-3.255-1.655,22.791,22.791,0,0,0-3.081-.931c-.924-.2-1.7-.347-2.255-.415S75.953,418.158,75.953,418.158Z" transform="translate(-64.898 -411.348)" fill="#455955"/>
              <path id="Trazado_950215" data-name="Trazado 950215" d="M91.067,418.569a.322.322,0,0,1-.228-.094c-2.82-2.82-8.092-2.648-8.141-2.64a.33.33,0,0,1-.336-.31.324.324,0,0,1,.31-.337c.226-.006,5.6-.193,8.625,2.83a.323.323,0,0,1-.229.552Z" transform="translate(-67.161 -410.305)" fill="#fff"/>
            </g>
            <g id="Grupo_1185122" data-name="Grupo 1185122" transform="translate(76.179 80.789)">
              <path id="Trazado_950216" data-name="Trazado 950216" d="M198.658,278.892s-1.321,16.824,0,30.12,3,43.145,3,52.1c-4.1,4.1-14.165,1.629-14.165,1.629s-7.869-47.758-10.854-85.2C186.684,275.636,198.658,278.892,198.658,278.892Z" transform="translate(-176.644 -276.941)" fill="#d67d56"/>
              <path id="Trazado_950217" data-name="Trazado 950217" d="M192.027,425.127h25.688a10.144,10.144,0,0,0-5.246-5.789c-4.161-1.989-4.211-7.685-5.372-12.662-5.663-2.352-14.165,1.629-14.165,1.629Z" transform="translate(-182.078 -322.504)" fill="#86c7b9"/>
            </g>
            <g id="Grupo_1185123" data-name="Grupo 1185123" transform="translate(2.991)">
              <path id="Trazado_950218" data-name="Trazado 950218" d="M86.473,179.957s1.685-38.913,33.828-24.874c5.7,0,11.758,9.95,11.758,22.16s14.924,6.783,8.14,22.522c-16.824,10.582-64.038,37.175-64.038,37.175s.277-5.642-6.506-9.442-9.386-14.709-.431-23.663S84.845,197.324,86.473,179.957Z" transform="translate(-63.484 -152.029)" fill="#423b37"/>
              <path id="Trazado_950219" data-name="Trazado 950219" d="M115.2,187.289s1.4-.606,3.407-1.674c1.009-.523,2.151-1.2,3.351-1.948.6-.373,1.2-.788,1.814-1.208s1.213-.874,1.794-1.352,1.157-.96,1.7-1.464l.786-.766.731-.783c.46-.531.9-1.053,1.275-1.575a16.9,16.9,0,0,0,.985-1.526c.266-.5.506-.955.688-1.377.2-.415.31-.8.435-1.111l.3-1s-.053.376-.18,1.034c-.094.32-.17.724-.332,1.163-.078.221-.162.456-.25.7l-.34.755a16.618,16.618,0,0,1-2.151,3.3,21.058,21.058,0,0,1-1.519,1.629c-.55.521-1.123,1.036-1.724,1.515a30.969,30.969,0,0,1-3.718,2.542,38.064,38.064,0,0,1-3.487,1.788c-1.042.476-1.942.8-2.568,1.027S115.2,187.289,115.2,187.289Z" transform="translate(-81.75 -158.909)" fill="#70645d"/>
              <path id="Trazado_950220" data-name="Trazado 950220" d="M148.954,171.218s.027-.569.089-1.4c.028-.417.061-.9.1-1.421s.065-1.068.08-1.62.021-1.1.019-1.613c-.01-.256-.019-.505-.028-.741s-.037-.457-.049-.664-.05-.394-.07-.561-.053-.311-.072-.433l-.064-.385.186.343a3.005,3.005,0,0,1,.189.41c.061.163.129.348.2.553a9.2,9.2,0,0,1,.282,1.44,12.69,12.69,0,0,1,.058,1.673,14.44,14.44,0,0,1-.162,1.658,13.227,13.227,0,0,1-.3,1.42A9.2,9.2,0,0,1,148.954,171.218Z" transform="translate(-93.674 -155.685)" fill="#70645d"/>
            </g>
            <g id="Grupo_1185124" data-name="Grupo 1185124" transform="translate(15.57 38.51)">
              <path id="Trazado_950221" data-name="Trazado 950221" d="M82.934,250.537l26.293,40.541s18.61,23.083,46.256,15.2c2.632-.751-6.644-9.226-6.644-24.693V257.973c5.559,0,9.427,1.086,16.719-2.171,0-8.412-.849-32.019-13.6-36.09s-16.824-8.14-22.793-8.14c-7.869,1.629-25.193,4.825-25.193,4.825s-8.319,3.089-13.429,8.2S83.533,239.207,82.934,250.537Z" transform="translate(-82.934 -211.572)" fill="#f2c944"/>
              <path id="Trazado_950222" data-name="Trazado 950222" d="M124.988,226.856s6.036,22.458,18.964,19.619c11.494-2.524,8.213-27.095,4.184-33.9C145.357,215.356,124.988,226.856,124.988,226.856Z" transform="translate(-97.789 -211.927)" fill="#fff2c7"/>
              <path id="Trazado_950223" data-name="Trazado 950223" d="M110.7,271.956s2.039-9.5,3.868-14.653c0,10.582,1.721,16.222,5.981,26.834s18.1,28.793,30.31,19.838c-2.713,5.97-14.924,12.754-31.748-17.908-7.055-4.071-15.467-10.224-15.467-10.224Z" transform="translate(-90.249 -227.726)" fill="#cc9639"/>
              <path id="Trazado_950224" data-name="Trazado 950224" d="M184.655,271.161h-.008a.323.323,0,0,1-.315-.332c0-.158.422-15.85,2.04-22.589a.324.324,0,1,1,.629.151c-1.6,6.673-2.019,22.3-2.022,22.455A.325.325,0,0,1,184.655,271.161Z" transform="translate(-118.751 -224.437)" fill="#cc9639"/>
            </g>
            <g id="Grupo_1185125" data-name="Grupo 1185125" transform="translate(3.713 84.778)">
              <path id="Trazado_950225" data-name="Trazado 950225" d="M149.006,331.542s18.814,28.853,11.578,40.431-13.567,9.769-26.617,9.769c-11.372-3.98-24.4-10.493-37.059-18.452v3.257s-12.482,3.437-22.793-2.714c.814-12.075.238-15.59,0-23.154-3.89-3.89-13.3-11.307-7.869-25.96S75.2,281.34,96.366,283.242c19.085,1.715,10.392,24.421,10.108,34.19C123.3,338.043,149.006,331.542,149.006,331.542Z" transform="translate(-64.6 -283.108)" fill="#423b37"/>
              <path id="Trazado_950226" data-name="Trazado 950226" d="M78.518,354.226a244.113,244.113,0,0,1,0-31.932l.645.05a243.265,243.265,0,0,0,0,31.834Z" transform="translate(-69.326 -296.949)" fill="#574e49"/>
              <path id="Trazado_950227" data-name="Trazado 950227" d="M153.351,401.921s-12.636-6.4-32.959-23.788l-.913,4.954S141.025,398.846,153.351,401.921Z" transform="translate(-83.985 -316.673)" fill="#332e2b"/>
              <path id="Trazado_950228" data-name="Trazado 950228" d="M124.116,336.177s-5.224,22.522-9.566,45.858c3.679-8.409,7.867-27.45,13.549-41.609A42.079,42.079,0,0,1,124.116,336.177Z" transform="translate(-82.244 -301.853)" fill="#332e2b"/>
              <path id="Trazado_950229" data-name="Trazado 950229" d="M153.569,402.075a247.643,247.643,0,0,1-33.012-23.808l.425-.488a246.874,246.874,0,0,0,32.913,23.737Z" transform="translate(-84.366 -316.548)" fill="#574e49"/>
            </g>
            <g id="Grupo_1185126" data-name="Grupo 1185126" transform="translate(25.309 15.533)">
              <path id="Trazado_950230" data-name="Trazado 950230" d="M129.34,228.623s4.584,19.088,15.738,16.281c9.972-2.511,5.442-26.53,3.678-30.193C146.45,217.018,129.34,228.623,129.34,228.623Z" transform="translate(-109.064 -189.703)" fill="#d67d56"/>
              <path id="Trazado_950231" data-name="Trazado 950231" d="M130.952,176.045s-1.483,12.847-21.834,12.847a18.1,18.1,0,0,1-3.706,3.031,9.141,9.141,0,0,0-2.625-4.505c-1.757-1.757-4.118-.378-4.7,3.375-.536,3.438,1.2,8.995,6.693,8.05,1.628,5.065,5.915,17,16.95,17,9.044,0,17.493-14.039,17.493-18.355,2.713,0,5.763-1.576,5.763-8.089s-5.4-3.941-6.849-.143C137.036,182.944,132.942,182.558,130.952,176.045Z" transform="translate(-97.991 -176.045)" fill="#d67d56"/>
              <path id="Trazado_950232" data-name="Trazado 950232" d="M132.868,202.9l-.667,2.222c-.194.666-.417,1.442-.629,2.277a24.917,24.917,0,0,0-.539,2.625,6.09,6.09,0,0,0,.049,2.553,1.35,1.35,0,0,0,.614.823,1.425,1.425,0,0,0,.473.152l.248.038.25-.01a2.215,2.215,0,0,0,.473-.052,3.336,3.336,0,0,0,.431-.082c.266-.079.508-.126.695-.205.38-.138.6-.21.6-.21s-.2.122-.554.325c-.175.109-.409.2-.671.319a3.409,3.409,0,0,1-.435.156,2.22,2.22,0,0,1-.508.118,2.109,2.109,0,0,1-1.221-.116,1.788,1.788,0,0,1-.935-1.061,5.993,5.993,0,0,1-.154-2.838A21.038,21.038,0,0,1,131.852,205,22.558,22.558,0,0,1,132.868,202.9Z" transform="translate(-109.403 -185.532)" fill="#94563b"/>
              <path id="Trazado_950233" data-name="Trazado 950233" d="M133.361,224.082a9.544,9.544,0,0,0,1.112-.35,9.977,9.977,0,0,0,1.059-.471,6.88,6.88,0,0,0,1.091-.711,4.824,4.824,0,0,0,.5-.428c.162-.146.3-.312.446-.461s.255-.323.38-.471.213-.311.314-.451.2-.27.256-.4l.183-.32.173-.28s-.015.118-.052.323c-.021.1-.047.229-.076.373a2.792,2.792,0,0,1-.153.469,3.034,3.034,0,0,1-.236.539,4.91,4.91,0,0,1-.342.567,5.152,5.152,0,0,1-.451.552,5.311,5.311,0,0,1-.546.5,4.683,4.683,0,0,1-.613.409,4.913,4.913,0,0,1-.639.31,5.026,5.026,0,0,1-1.207.313A3.568,3.568,0,0,1,133.361,224.082Z" transform="translate(-110.485 -191.479)" fill="#94563b"/>
              <path id="Trazado_950234" data-name="Trazado 950234" d="M139.584,192.305a4.022,4.022,0,0,1,.806-1.3,4.74,4.74,0,0,1,.547-.523,4.023,4.023,0,0,1,.719-.48,2.252,2.252,0,0,1,.427-.195,2.636,2.636,0,0,1,.464-.154,3.439,3.439,0,0,1,1.015-.1,3.493,3.493,0,0,1,1.011.188,5.567,5.567,0,0,1,.868.44c.238.195.459.391.66.578a7.389,7.389,0,0,1,.455.611c.065.1.132.184.186.274l.124.274c.08.169.136.322.184.446.094.25.134.395.134.395s-.133-.087-.342-.244c-.1-.08-.23-.173-.362-.287a3.516,3.516,0,0,0-.464-.347l-.542-.375c-.2-.1-.409-.213-.613-.334-.222-.07-.438-.169-.661-.232a3.215,3.215,0,0,0-.687-.093,3.123,3.123,0,0,0-.7.036,5.336,5.336,0,0,0-.7.173,5.422,5.422,0,0,0-.661.254c-.217.082-.409.2-.6.28-.177.108-.36.188-.509.279l-.4.23Z" transform="translate(-112.683 -180.814)" fill="#423b37"/>
              <path id="Trazado_950235" data-name="Trazado 950235" d="M161.594,197.818s3.5-4.251,3.5-1.538-1.306,5.156-3.5,5.156A5.152,5.152,0,0,0,161.594,197.818Z" transform="translate(-120.457 -182.873)" fill="#94563b"/>
              <path id="Trazado_950236" data-name="Trazado 950236" d="M105.2,199.933s-2.275-3.6-3.134-2.742-.71,6.457,3.134,6C104.7,202.24,104.564,200.567,105.2,199.933Z" transform="translate(-99.278 -183.468)" fill="#94563b"/>
              <path id="Trazado_950237" data-name="Trazado 950237" d="M146.033,200.991a1.287,1.287,0,1,1-1.266-1.515A1.407,1.407,0,0,1,146.033,200.991Z" transform="translate(-114.066 -184.322)" fill="#423b37"/>
              <path id="Trazado_950238" data-name="Trazado 950238" d="M124.161,200.991a1.287,1.287,0,1,1-1.266-1.515A1.408,1.408,0,0,1,124.161,200.991Z" transform="translate(-106.34 -184.322)" fill="#423b37"/>
              <path id="Trazado_950239" data-name="Trazado 950239" d="M149.225,215.778s-.149.371-.458,1-.766,1.519-1.4,2.539a33.787,33.787,0,0,1-2.346,3.372c-.468.59-.975,1.184-1.519,1.761s-1.122,1.141-1.729,1.673a19.862,19.862,0,0,1-1.911,1.473,16.326,16.326,0,0,1-2.026,1.176c-.349.152-.688.314-1.031.442-.349.113-.683.246-1.022.333a12.643,12.643,0,0,1-1.926.377l-.869.063-.784-.028c-.491-.017-.913-.108-1.26-.144-.686-.157-1.069-.26-1.069-.26l1.086.135c.348,0,.767.055,1.248.028l.763-.042.837-.113a12.235,12.235,0,0,0,1.835-.467c.32-.1.634-.248.963-.374l.976-.46a18.943,18.943,0,0,0,1.927-1.181,19.841,19.841,0,0,0,1.84-1.446c.6-.513,1.165-1.058,1.7-1.617s1.058-1.12,1.531-1.691c.959-1.129,1.806-2.23,2.482-3.21s1.234-1.8,1.593-2.4S149.225,215.778,149.225,215.778Z" transform="translate(-109.253 -190.08)" fill="#94563b"/>
            </g>
            <g id="Grupo_1185128" data-name="Grupo 1185128" transform="translate(15.061 77.476)">
              <path id="Trazado_950240" data-name="Trazado 950240" d="M82.656,271.818s8.781.11,20.449,5.265c-1.356,8.141-4.7,28.13-4.7,43.507-3.169,3.169-13.626,6.693-13.626,6.693S80.756,292.712,82.656,271.818Z" transform="translate(-82.147 -271.818)" fill="#d67d56"/>
              <g id="Grupo_1185127" data-name="Grupo 1185127" transform="translate(1.108 47.71)">
                <path id="Trazado_950241" data-name="Trazado 950241" d="M99.8,345.863c-1.059-1.059-14.551.783-15.935,7.475,0,4.342,2.212,2.738,2.212,5.452-1.176,6.151.464,26.387,12.941,25.121,3.974-1.628,6.221-8.551,6.221-8.551s3.492-6.111,2.345-10.415a28.526,28.526,0,0,0-8.566-14.32C100.38,348.38,100.855,346.923,99.8,345.863Z" transform="translate(-83.86 -345.584)" fill="#86c7b9"/>
                <path id="Trazado_950242" data-name="Trazado 950242" d="M97.849,379.951l.385,2.592c.107.776.27,1.676.433,2.639s.351,1.987.583,3c.2,1.019.469,2.023.734,2.957.123.472.287.909.416,1.337s.309.807.445,1.171.316.671.442.964l.193.4.2.318.374.618s-.176-.192-.477-.545l-.248-.294-.25-.375a7.223,7.223,0,0,1-.562-.929c-.169-.358-.391-.734-.556-1.158s-.38-.859-.519-1.336-.329-.955-.448-1.462c-.136-.5-.267-1.014-.375-1.531s-.205-1.035-.294-1.546-.148-1.019-.22-1.507c-.124-.98-.181-1.9-.232-2.686s-.041-1.446-.044-1.905S97.849,379.951,97.849,379.951Z" transform="translate(-88.795 -357.724)" fill="#5e8c82"/>
                <path id="Trazado_950243" data-name="Trazado 950243" d="M91.85,381.253l.382,2.01c.218,1.2.508,2.8.8,4.4.08.4.158.8.237,1.186s.131.783.228,1.149c.081.371.161.73.236,1.07s.127.669.206.962c.16.586.266,1.087.354,1.434s.12.553.12.553-.092-.182-.239-.51-.36-.795-.592-1.369c-.12-.285-.209-.607-.317-.942l-.324-1.064c-.115-.369-.2-.757-.285-1.152l-.261-1.2c-.135-.81-.272-1.619-.358-2.383s-.153-1.478-.173-2.094C91.8,382.075,91.85,381.253,91.85,381.253Z" transform="translate(-86.676 -358.184)" fill="#5e8c82"/>
              </g>
            </g>
            <g id="Grupo_1185129" data-name="Grupo 1185129" transform="translate(28.349 145.158)">
              <path id="Trazado_950244" data-name="Trazado 950244" d="M117.685,404.057a30.087,30.087,0,0,1-5.985,1.728l-.81-4.055-2.428.365.754,4.146a55.352,55.352,0,0,1-6.525.668A52.113,52.113,0,0,0,107.884,423l11.522-4.7S118.77,408.237,117.685,404.057Z" transform="translate(-102.692 -385.389)" fill="#e6d18e"/>
              <path id="Trazado_950245" data-name="Trazado 950245" d="M107.324,394.712s-4.959-14.376.916-18.248c2.295.115,4.24,7.277,5.446,16.938A14.99,14.99,0,0,1,107.324,394.712Z" transform="translate(-103.637 -376.464)" fill="#735643"/>
            </g>
          </g>
          <g id="Grupo_1185145" data-name="Grupo 1185145" transform="translate(62.863)">
            <path id="Trazado_950246" data-name="Trazado 950246" d="M272.883,245l14.94,16.237s-12.532,10.716-26.37,14.786-18.8,2.713-34,2.713a108.037,108.037,0,0,1-2.985-13.568s15.715-3.219,27.134-5.969C259.707,257.247,263.726,252.675,272.883,245Z" transform="translate(-171.49 -127.217)" fill="#d67d56"/>
            <g id="Grupo_1185131" data-name="Grupo 1185131" transform="translate(41.096 187.245)">
              <path id="Trazado_950247" data-name="Trazado 950247" d="M246.561,352.4s-.316,11.984,3.755,16.055c-5.608,3.438-9.262,3.663-11.351,7.281s-12.5,18.633-26.691,13.206c-2.433.223-4.785-1.266-4.785-2.985-2.894-.814-.944-3.763,2.793-5.357s8.843-7.148,11.941-10.245c-4.342,0-9.226.221-9.226-3.168s5.065-1.219,10.13-3.842,6.151-3.708,8.865-3.708C237.149,357.346,245.024,353.938,246.561,352.4Z" transform="translate(-206.096 -352.4)" fill="#86c7b9"/>
              <path id="Trazado_950248" data-name="Trazado 950248" d="M208.25,400.61s.223-.043.6-.151a6.745,6.745,0,0,0,.674-.195c.257-.088.547-.187.863-.283l1-.393.544-.212.552-.261,1.153-.544c.391-.188.762-.431,1.147-.646s.776-.421,1.145-.649c.353-.254.712-.487,1.054-.722l1-.662c.316-.214.58-.46.847-.66.519-.417.974-.746,1.284-.986s.5-.365.5-.365-.146.169-.415.456-.651.7-1.13,1.178a10.4,10.4,0,0,1-.79.757l-.966.746c-.34.254-.686.525-1.048.784-.375.24-.774.456-1.165.687-.4.214-.784.456-1.189.643l-1.209.508c-.2.079-.387.167-.579.233l-.576.17c-.374.111-.726.215-1.056.295a14.232,14.232,0,0,1-1.621.247A4.358,4.358,0,0,1,208.25,400.61Z" transform="translate(-206.857 -367.052)" fill="#5e8c82"/>
              <path id="Trazado_950249" data-name="Trazado 950249" d="M215.647,405.637l.488-.227c.313-.134.749-.349,1.276-.6s1.133-.547,1.79-.849c.333-.142.652-.339.994-.5l1.024-.519,1-.559c.323-.2.674-.337.966-.547l.879-.552c.275-.182.561-.322.79-.5.456-.349.86-.622,1.134-.823s.446-.3.446-.3-.126.147-.36.4-.568.609-.991,1.024a7.966,7.966,0,0,1-.739.6l-.851.638a9.528,9.528,0,0,1-.959.608l-1.013.591-1.054.508c-.35.163-.691.331-1.035.459-.685.265-1.322.516-1.889.675A15.16,15.16,0,0,1,215.647,405.637Z" transform="translate(-209.469 -369.095)" fill="#5e8c82"/>
              <path id="Trazado_950250" data-name="Trazado 950250" d="M225.629,408.281s.475-.3,1.193-.711c.362-.2.778-.443,1.23-.689l1.407-.776c.479-.261.943-.547,1.4-.783.429-.273.84-.517,1.2-.717.664-.466,1.158-.754,1.158-.754a12.832,12.832,0,0,1-.932,1.049c-.318.273-.7.582-1.119.9-.436.289-.909.59-1.393.869-.5.25-.984.526-1.469.721s-.931.389-1.33.516A9.857,9.857,0,0,1,225.629,408.281Z" transform="translate(-212.995 -370.574)" fill="#5e8c82"/>
            </g>
            <g id="Grupo_1185132" data-name="Grupo 1185132" transform="translate(71.48 225.234)">
              <path id="Trazado_950251" data-name="Trazado 950251" d="M299.154,411.136,278.17,412.4a56,56,0,0,1-18.479,6.151c-10.853,1.629-5.358,7.258-4.205,8.411h48.5S304.129,416.112,299.154,411.136Z" transform="translate(-253.073 -411.136)" fill="#405245"/>
              <path id="Trazado_950252" data-name="Trazado 950252" d="M289.06,419.178a.323.323,0,0,1-.317-.263,4.165,4.165,0,0,0-1.726-2.686.324.324,0,0,1,.331-.556,4.779,4.779,0,0,1,2.03,3.122.323.323,0,0,1-.257.378A.338.338,0,0,1,289.06,419.178Z" transform="translate(-265.007 -412.722)" fill="#fff"/>
              <path id="Trazado_950253" data-name="Trazado 950253" d="M282.578,421.285a.323.323,0,0,1-.316-.257,6.351,6.351,0,0,0-1.146-2.427.323.323,0,0,1,.5-.411,6.912,6.912,0,0,1,1.279,2.707.322.322,0,0,1-.251.382A.285.285,0,0,1,282.578,421.285Z" transform="translate(-262.953 -413.586)" fill="#fff"/>
              <path id="Trazado_950254" data-name="Trazado 950254" d="M275.035,423.163a.323.323,0,0,1-.321-.286,6.533,6.533,0,0,0-.57-1.995.324.324,0,0,1,.576-.295,7.1,7.1,0,0,1,.637,2.215.325.325,0,0,1-.284.359Z" transform="translate(-260.503 -414.413)" fill="#fff"/>
            </g>
            <g id="Grupo_1185133" data-name="Grupo 1185133" transform="translate(74.788 143.409)">
              <path id="Trazado_950255" data-name="Trazado 950255" d="M334.337,305.757s38.976-8.955,38.976,27.677c0,5.144-3.554,11.668-7.5,13.025,0,8.955,1.925,13.877-11.914,13.877-22.794,1.176-41.913,1.291-53.852,1.291.407,2.848.477,2.493.913,4.821-2.171,2.171-10.493,5.608-20.984,1.267a31.2,31.2,0,0,0-1.537-6.151c-3.8,0-15.6-.994-19.266-15.918-1.677-6.833.543-13.432,5.789-17.186-2.17-6.512-15.013-32.923,1.629-41.787S313.624,300.239,334.337,305.757Z" transform="translate(-258.188 -284.623)" fill="#303d34"/>
              <path id="Trazado_950256" data-name="Trazado 950256" d="M338.365,332.692s.2-.08.546-.206.847-.307,1.449-.5,1.308-.417,2.068-.637,1.588-.4,2.411-.6c1.649-.374,3.31-.7,4.562-.9.625-.105,1.151-.166,1.517-.221s.578-.067.578-.067-.2.075-.553.191-.856.285-1.465.461c-1.215.362-2.845.789-4.486,1.166-.823.183-1.645.36-2.42.517-.772.176-1.5.327-2.118.446s-1.147.2-1.512.265S338.365,332.692,338.365,332.692Z" transform="translate(-286.509 -300.497)" fill="#4c6152"/>
              <path id="Trazado_950257" data-name="Trazado 950257" d="M300.556,323.367s-.083-.315-.227-.868c-.069-.276-.165-.608-.274-.989s-.241-.807-.379-1.275c-.288-.93-.651-2.005-1.084-3.138-.2-.572-.448-1.147-.693-1.734-.228-.594-.525-1.167-.793-1.753s-.591-1.144-.879-1.708c-.335-.536-.634-1.085-.966-1.588-.358-.483-.661-.985-1-1.417s-.677-.836-1-1.195c-.348-.333-.658-.649-.935-.931a7.682,7.682,0,0,0-.781-.656l-.7-.565.77.462a7.7,7.7,0,0,1,.863.574c.312.251.664.536,1.039.86.355.342.713.741,1.107,1.151s.731.905,1.111,1.4c.352.507.693,1.048,1.037,1.6.3.573.636,1.143.92,1.737.266.6.561,1.191.788,1.8.248.6.462,1.2.652,1.782.21.579.358,1.155.511,1.7s.268,1.062.387,1.537c.217.957.341,1.767.426,2.332S300.556,323.367,300.556,323.367Z" transform="translate(-269.723 -292.015)" fill="#4c6152"/>
              <path id="Trazado_950258" data-name="Trazado 950258" d="M346.026,368.045s45.9,3.1,54.809,4.665a10.212,10.212,0,0,1-4,3.216C389.737,373.8,355.132,368.973,346.026,368.045Z" transform="translate(-289.215 -314.09)" fill="#242e27"/>
              <path id="Trazado_950259" data-name="Trazado 950259" d="M288.514,371.206s.26-.237.787-.637a23.46,23.46,0,0,1,2.387-1.58,29.686,29.686,0,0,1,4.005-1.945,30.092,30.092,0,0,1,5.547-1.633,32.617,32.617,0,0,1,6.821-.613,17.462,17.462,0,0,1,1.848.074c.622.049,1.259.073,1.89.145l3.864.426,8.089.92,8.347.988c2.8.338,5.586.725,8.336,1.084s5.452.738,8.065,1.116,5.141.735,7.528,1.144l6.73,1.117,5.664,1.089c1.69.3,3.142.675,4.341.96l3.762.915-3.79-.793c-1.2-.254-2.661-.59-4.359-.847l-5.679-.967-6.741-1.01c-2.39-.371-4.921-.687-7.534-1.054s-5.315-.735-8.066-1.073-5.54-.715-8.337-1.041l-8.338-1.032L315.6,366l-3.861-.457c-.631-.081-1.25-.114-1.865-.173a16.733,16.733,0,0,0-1.822-.1,32.285,32.285,0,0,0-6.745.5l-1.513.3-1.425.371c-.468.107-.906.267-1.339.4s-.855.265-1.251.429a29.446,29.446,0,0,0-4.029,1.83A20.8,20.8,0,0,0,288.514,371.206Z" transform="translate(-268.9 -312.939)" fill="#4c6152"/>
              <path id="Trazado_950260" data-name="Trazado 950260" d="M300.951,404.18c-6.7,0-11.049-.156-11.112-.158a.325.325,0,0,1-.312-.336.317.317,0,0,1,.336-.311c.089,0,9.024.326,21.08.042a.316.316,0,0,1,.331.316.324.324,0,0,1-.316.331C307.279,404.15,303.888,404.18,300.951,404.18Z" transform="translate(-269.258 -326.57)" fill="#4c6152"/>
            </g>
            <g id="Grupo_1185134" data-name="Grupo 1185134" transform="translate(30.886 125.457)">
              <path id="Trazado_950261" data-name="Trazado 950261" d="M213.852,267.277c3.469,1.059,4.523,3.8,2.895,10.5s-1.266,7.959-6.151,6.512c-3.98,2.352-6.406.382-10.929-.516s-9.257-1.4-8.678-8.081a6.27,6.27,0,0,1,.293-6.2,5.924,5.924,0,0,1,2.186-5.713c1.6-3.658,4.826-8.072,8.444-6.624S211.5,262.57,213.852,267.277Z" transform="translate(-190.309 -256.867)" fill="#86c7b9"/>
              <path id="Trazado_950262" data-name="Trazado 950262" d="M213.618,266.589a43.742,43.742,0,0,0-4.326-4.416,9.873,9.873,0,0,0-2.51-1.667,1.7,1.7,0,0,0-1.289-.1c-.067.034-.217.122-.307.18a1.78,1.78,0,0,0-.23.209,1.4,1.4,0,0,0-.319.554,2.683,2.683,0,0,0,.056,1.374,7.14,7.14,0,0,0,.553,1.378,19.275,19.275,0,0,0,1.643,2.563,44,44,0,0,0,4.032,4.652l.092.1-.014.14-.135,1.369a5.108,5.108,0,0,0-.052.686v1.374c.006.229.047.455.07.682l.079.683a4.333,4.333,0,0,0,.138.672l.163.667a4.987,4.987,0,0,0,.219.651l.24.647c.087.212.207.41.31.616s.2.417.332.607l.391.573a13.378,13.378,0,0,0,.867,1.09,11.531,11.531,0,0,1-.959-1.02l-.433-.554c-.145-.185-.25-.4-.377-.6s-.254-.4-.357-.609l-.288-.646a4.055,4.055,0,0,1-.261-.658l-.2-.682a4.464,4.464,0,0,1-.17-.688l-.11-.7c-.032-.234-.083-.468-.1-.7l-.027-.708-.027-.71a5.273,5.273,0,0,1,.026-.708l.109-1.413.079.235a44.772,44.772,0,0,1-4.151-4.666,17.434,17.434,0,0,1-1.679-2.669,7.747,7.747,0,0,1-.579-1.5,3.231,3.231,0,0,1-.029-1.689,1.967,1.967,0,0,1,.456-.772,2.242,2.242,0,0,1,.352-.3,4.148,4.148,0,0,1,.365-.205,2.119,2.119,0,0,1,1.716.13,10.255,10.255,0,0,1,2.572,1.847,25.3,25.3,0,0,1,2.147,2.262C212.368,264.936,213.018,265.745,213.618,266.589Z" transform="translate(-195.14 -257.894)" fill="#5e8c82"/>
              <path id="Trazado_950263" data-name="Trazado 950263" d="M195.985,268.717l1.754,1.349c1.051.8,2.444,1.878,3.9,2.846a23.166,23.166,0,0,0,2.185,1.318,8.261,8.261,0,0,0,2.041.792,3.366,3.366,0,0,0,.858.079,1.313,1.313,0,0,0,.357-.045,1.085,1.085,0,0,0,.294-.089,1.566,1.566,0,0,0,.39-.2l.134-.087-.111.115a1.3,1.3,0,0,1-.356.288,1.208,1.208,0,0,1-.3.147,1.5,1.5,0,0,1-.377.114,2.936,2.936,0,0,1-.944.05,5.505,5.505,0,0,1-1.089-.213,9,9,0,0,1-1.147-.433,11.954,11.954,0,0,1-1.159-.592c-.384-.219-.764-.457-1.138-.7a27.23,27.23,0,0,1-3.781-3.105c-.478-.464-.849-.88-1.113-1.164S195.985,268.717,195.985,268.717Z" transform="translate(-192.314 -261.053)" fill="#5e8c82"/>
              <path id="Trazado_950264" data-name="Trazado 950264" d="M193.845,278.819l.579.289c.365.189.9.435,1.534.733s1.382.629,2.19.952a23.55,23.55,0,0,0,2.568.874,11.546,11.546,0,0,0,1.331.292,8.3,8.3,0,0,0,1.3.111,5.068,5.068,0,0,0,1.193-.132,3.184,3.184,0,0,0,.524-.173,2.171,2.171,0,0,0,.462-.23,2.289,2.289,0,0,0,.39-.277,1.944,1.944,0,0,0,.32-.3,3.781,3.781,0,0,0,.444-.572l.313-.563-.049.162a4.763,4.763,0,0,1-.152.459,3.943,3.943,0,0,1-.368.664,2.812,2.812,0,0,1-.688.73,3.369,3.369,0,0,1-1.062.559,4.731,4.731,0,0,1-1.31.237,7.205,7.205,0,0,1-1.406-.063,12.006,12.006,0,0,1-1.409-.285,19.21,19.21,0,0,1-4.764-2.123A18.853,18.853,0,0,1,193.845,278.819Z" transform="translate(-191.558 -264.621)" fill="#5e8c82"/>
              <path id="Trazado_950265" data-name="Trazado 950265" d="M193.845,284.8l.583.209c.368.137.9.307,1.543.508a20.35,20.35,0,0,0,4.745.97,7.955,7.955,0,0,0,1.286-.021,5.542,5.542,0,0,0,1.195-.259,4.049,4.049,0,0,0,1.007-.511,3.992,3.992,0,0,0,.73-.715,5.462,5.462,0,0,0,.473-.75c.11-.243.2-.462.268-.645.112-.373.186-.589.186-.589s-.017.224-.064.62c-.037.2-.093.432-.167.7a4.167,4.167,0,0,1-.391.87,3.717,3.717,0,0,1-.735.882,3.957,3.957,0,0,1-1.105.666,6.283,6.283,0,0,1-2.716.393,14.285,14.285,0,0,1-4.842-1.27A15.309,15.309,0,0,1,193.845,284.8Z" transform="translate(-191.558 -266.097)" fill="#5e8c82"/>
              <path id="Trazado_950266" data-name="Trazado 950266" d="M195.985,291.465l.526,0c.333.009.809-.007,1.375-.021a17.9,17.9,0,0,0,4.056-.515,7.13,7.13,0,0,0,1.024-.352,5.261,5.261,0,0,0,.9-.5,4.087,4.087,0,0,0,.711-.636,3.93,3.93,0,0,0,.47-.722,4.808,4.808,0,0,0,.265-.7c.056-.218.09-.416.119-.578.03-.327.057-.521.057-.521s.031.187.069.525c0,.169.008.376-.007.615a3.446,3.446,0,0,1-.158.8,3.488,3.488,0,0,1-.431.876,3.742,3.742,0,0,1-.752.8,5.756,5.756,0,0,1-2.1,1.023,11.805,11.805,0,0,1-4.242.261A11.985,11.985,0,0,1,195.985,291.465Z" transform="translate(-192.314 -267.484)" fill="#5e8c82"/>
            </g>
            <g id="Grupo_1185135" data-name="Grupo 1185135" transform="translate(101.393 90.177)">
              <path id="Trazado_950267" data-name="Trazado 950267" d="M330.5,203.159s-5.88-.3-16.191,12.472c-1.53,1.894-7.513,6.819-14.985,14.291,2.471,7.16,7.387,15.341,14.94,16.237,4.749,6.556,18.226,11.53,21.753,17.772s3.048,13.087,1.69,20.684c8.141-1.629,19.851-3.137,23.731,2.286,10.251,14.325,23.965,11.219,26.406,17.46,6.106-6.1,3.386-6.642,1.759-12.612s-1.006-13.2-4.106-24.2c-3-10.66-5.522-17.462-11.221-29.944S349.946,197.124,330.5,203.159Z" transform="translate(-299.323 -202.318)" fill="#c1cc3f"/>
              <path id="Trazado_950268" data-name="Trazado 950268" d="M348.415,274.359a17.971,17.971,0,0,1,4.941,5.044c.194.343.393.713.554,1.05,3.011-8.816,7.768-25.294,7.768-34.336-1.628,7.235-6.422,19.446-6.422,19.446Z" transform="translate(-316.664 -217.789)" fill="#828a2b"/>
              <path id="Trazado_950269" data-name="Trazado 950269" d="M365.564,306.309s13.205-8.094,13.205-23.833C380.4,289.351,378.589,301.739,365.564,306.309Z" transform="translate(-322.721 -230.632)" fill="#828a2b"/>
              <path id="Trazado_950270" data-name="Trazado 950270" d="M322.565,255.69l-.632-.139c2.637-11.967,5.307-26.3,5.335-26.448l.635.118C327.877,229.365,325.2,243.713,322.565,255.69Z" transform="translate(-307.31 -211.779)" fill="#828a2b"/>
            </g>
            <g id="Grupo_1185142" data-name="Grupo 1185142">
              <g id="Grupo_1185140" data-name="Grupo 1185140">
                <path id="Trazado_950271" data-name="Trazado 950271" d="M187.489,347.042a210.476,210.476,0,0,1,2.343-21.96c.618-2.7,2.449-9.7,3.707-14.2.473-1.689,3-15.52,3.338-16.869a9.788,9.788,0,0,0,3.934-1.076c-1.288,5.982-2.639,16.33-3.736,19.8-.78,2.467-1.9,6.9-2.927,11.077-.737,2.99-1.256,20.336-1.165,22.363Z" transform="translate(-158.425 -144.152)" fill="#405245"/>
                <path id="Trazado_950272" data-name="Trazado 950272" d="M249.938,120.179c-1.717,3.777-5.658,7.192-12.048,10.44-3.623,1.841-9.587,6.153-13.8,9.321.669-2,1.374-3.969,2.07-5.914,2.886-8.057,5.87-16.387,5.932-25.544l-3.88-.027c-.058,8.5-2.8,16.154-5.705,24.262a132.256,132.256,0,0,0-4.676,14.9c-1.074,4.661-2.056,9.434-3,14.132a53.662,53.662,0,0,0-1.643-7.9c-1.446-4.73-8.339-15.661-9.229-17.066-3.781-5.97-6.663-19.824-8.642-23.453l-3.407,1.858c1.768,3.241,5.494,18.079,8.707,23.566,3.064,5.233,7.568,12,8.861,16.23,1.7,5.551,2.463,14.472,2.476,20.939-2.283,10.8-4.74,20.931-8.729,31.01a19.646,19.646,0,0,1,3.034,2.528,70.541,70.541,0,0,0,3.292-8.582c10.246-5.5,24.525-20.058,26.009-22.2l-2.3-2.209c-1.257,1.816-14.759,16.021-22.2,19.466,2.857-9.874,4.895-20.054,6.885-30,1.151-5.754,2.342-11.7,3.665-17.448.168-.726.351-1.448.541-2.17,2.368-1.85,12.552-9.727,17.492-12.238,7.206-3.661,11.727-7.682,13.823-12.293Z" transform="translate(-159.989 -78.987)" fill="#405245"/>
                <g id="Grupo_1185136" data-name="Grupo 1185136">
                  <path id="Trazado_950273" data-name="Trazado 950273" d="M180.029,100.674c-1.975,3.7-9.78,9.638-15.664,3.755-9.947,5.831-21.3-3.09-18.573-11.142-4.7-3.284-4.568-13.865,2.277-15.4,0-6.233,8-19.5,23.663-11.46,7.517-7.517,19.317-2.287,18.176,8.57,9.914,3.218,8.244,18.289-1.731,19.176C190.033,99.2,184.779,102.016,180.029,100.674Z" transform="translate(-142.555 -62.892)" fill="#68ad7c"/>
                  <path id="Trazado_950274" data-name="Trazado 950274" d="M164.3,112.848s6.587,6.387,13.944-.97C175.819,116.729,168.79,119.154,164.3,112.848Z" transform="translate(-150.236 -80.195)" fill="#548c65"/>
                  <path id="Trazado_950275" data-name="Trazado 950275" d="M189.11,101.142s8.57,4.366,13.582-2.264C201.722,102.6,194.688,106.72,189.11,101.142Z" transform="translate(-159 -75.603)" fill="#548c65"/>
                  <path id="Trazado_950276" data-name="Trazado 950276" d="M152.147,92.4s-.992-5.2,5.972-8.275C153.44,84.128,150.691,89.036,152.147,92.4Z" transform="translate(-145.805 -70.393)" fill="#548c65"/>
                  <path id="Trazado_950277" data-name="Trazado 950277" d="M170.648,88.794s.546-6.791,8.83-5.174C175.474,81.68,170.648,82.488,170.648,88.794Z" transform="translate(-152.478 -69.885)" fill="#548c65"/>
                  <path id="Trazado_950278" data-name="Trazado 950278" d="M211.591,87.123s-.97-5.754-8.731-5.754C206.256,80.075,211.591,81.236,211.591,87.123Z" transform="translate(-163.856 -69.25)" fill="#548c65"/>
                  <path id="Trazado_950279" data-name="Trazado 950279" d="M147.561,107.38s3.189-6.843,10.827-2.13C156.809,102.039,148.984,101.241,147.561,107.38Z" transform="translate(-144.323 -76.985)" fill="#548c65"/>
                  <path id="Trazado_950280" data-name="Trazado 950280" d="M186.583,68.358s-4.065,5.107,4.167,6.966C187.355,75.324,181.515,73.426,186.583,68.358Z" transform="translate(-157.406 -64.823)" fill="#548c65"/>
                </g>
                <g id="Grupo_1185137" data-name="Grupo 1185137" transform="translate(45.412 52.685)">
                  <path id="Trazado_950281" data-name="Trazado 950281" d="M236.849,148.023c2.82-5.322,16.495-5.322,17.808,3.075,13.142-2.9,22.543,11.093,16.617,19.052,4.036,5.337-4.049,17.141-12.2,16.383-1.161,6.694-20.05,15.936-24.362,3.945-11.051,5.644-21.772-3.333-16.6-14.98-10.255-5.789-4.435-23.154,6.416-21.576C224.272,147.673,233.022,144.2,236.849,148.023Z" transform="translate(-212.769 -144.351)" fill="#68ad7c"/>
                  <path id="Trazado_950282" data-name="Trazado 950282" d="M230.947,159.15s9.116,2.54,3.8,10.075C239.137,166.412,238.6,159.15,230.947,159.15Z" transform="translate(-219.19 -149.578)" fill="#548c65"/>
                  <path id="Trazado_950283" data-name="Trazado 950283" d="M221.027,190.4s4.145-5.064,9.7-1.281C230.726,185.95,222.354,184.986,221.027,190.4Z" transform="translate(-215.686 -159.253)" fill="#548c65"/>
                  <path id="Trazado_950284" data-name="Trazado 950284" d="M236.023,203.416s3.313-6.192,10.74-1.842C244.487,198,237.584,198.159,236.023,203.416Z" transform="translate(-220.983 -163.704)" fill="#548c65"/>
                  <path id="Trazado_950285" data-name="Trazado 950285" d="M246.359,160.013s5.175-6.791,11.967,0C256.223,155.162,248.46,153.383,246.359,160.013Z" transform="translate(-224.634 -148.353)" fill="#548c65"/>
                  <path id="Trazado_950286" data-name="Trazado 950286" d="M246.694,212.58s2.6-7.439,10.941-4.07C255.883,206.758,247.556,204.784,246.694,212.58Z" transform="translate(-224.752 -166.452)" fill="#548c65"/>
                  <path id="Trazado_950287" data-name="Trazado 950287" d="M276.68,210.188s-6.159-2.557-9.069,2.4C267.61,210.11,271.035,206.709,276.68,210.188Z" transform="translate(-232.141 -167.082)" fill="#548c65"/>
                </g>
                <g id="Grupo_1185138" data-name="Grupo 1185138" transform="translate(54.55 5.169)">
                  <path id="Trazado_950288" data-name="Trazado 950288" d="M255.6,92.842c6-1.955,6.2-10.733.044-10.7,1.323-3.582-2.281-9.512-6.858-7.676-.411-4.1-7.569-5.606-10.209.528-4.148-1.012-8.872,3.878-6.772,7.332-3.777-.922-7.093,5.635-3.084,8.78-2.119,2.9.663,9.341,5.921,7.5,1.916,3.154,6.511,4.7,8.572.622C245.734,103.38,257.271,103.936,255.6,92.842Z" transform="translate(-226.898 -70.884)" fill="#68ad7c"/>
                  <path id="Trazado_950289" data-name="Trazado 950289" d="M234.485,87.352s6.064-4.17,8.813,2.3C243.3,84.959,238.423,83.414,234.485,87.352Z" transform="translate(-229.578 -75.908)" fill="#548c65"/>
                  <path id="Trazado_950290" data-name="Trazado 950290" d="M267.549,101.573s-.862-7.423-6.826-4.942C263.152,94.8,267.549,94.851,267.549,101.573Z" transform="translate(-238.846 -79.615)" fill="#548c65"/>
                  <path id="Trazado_950291" data-name="Trazado 950291" d="M251.723,110.591s-1.968-6.471,5.562-7.529C252.953,102.7,249.4,106.469,251.723,110.591Z" transform="translate(-235.407 -82.241)" fill="#548c65"/>
                  <path id="Trazado_950292" data-name="Trazado 950292" d="M229.716,101.14s5.252-4.425,7.362,4C237.078,100.639,233.947,96.909,229.716,101.14Z" transform="translate(-227.893 -80.916)" fill="#548c65"/>
                  <path id="Trazado_950293" data-name="Trazado 950293" d="M266.494,86.556s-3.763-4.97-8.883-.571C259.624,82.987,265.588,81.856,266.494,86.556Z" transform="translate(-237.746 -75.298)" fill="#548c65"/>
                </g>
                <g id="Grupo_1185139" data-name="Grupo 1185139" transform="translate(83.981 24.65)">
                  <path id="Trazado_950294" data-name="Trazado 950294" d="M277.257,119.533c-4.179,4.179,3.4,9.519,5.89,7.028,1.84,2.74,7.817,3.219,8.849-.917,3.081,1.788,7.759-2.464,4.8-7.419,4.149-1.888,2.993-8.177-.49-8.455,2.605-4-4.5-13.178-11.423-6.258-3.683-2.257-9.227,2.179-7.412,5.689C273.291,108.867,268.641,115.086,277.257,119.533Z" transform="translate(-272.402 -101.004)" fill="#68ad7c"/>
                  <path id="Trazado_950295" data-name="Trazado 950295" d="M280.238,113.557s7.355-.323,5.415,5.644C287.439,117.414,287.506,112.213,280.238,113.557Z" transform="translate(-275.17 -105.361)" fill="#548c65"/>
                  <path id="Trazado_950296" data-name="Trazado 950296" d="M305.815,114.126s-4.09,3.39-6.492-.788C300.155,117.244,304.036,117.638,305.815,114.126Z" transform="translate(-281.911 -105.361)" fill="#548c65"/>
                  <path id="Trazado_950297" data-name="Trazado 950297" d="M300.733,135.225s-5.392-2.731-1.026-7.1C296.15,129.422,296.1,133.914,300.733,135.225Z" transform="translate(-281.14 -110.585)" fill="#548c65"/>
                  <path id="Trazado_950298" data-name="Trazado 950298" d="M289.016,137.14s4.3-4.361,0-6.187C291.5,130.953,293.805,134.968,289.016,137.14Z" transform="translate(-278.271 -111.583)" fill="#548c65"/>
                  <path id="Trazado_950299" data-name="Trazado 950299" d="M295.61,124.211s5.983-3.557,7.6,2.91C303.21,123.726,299.875,120.445,295.61,124.211Z" transform="translate(-280.6 -108.609)" fill="#548c65"/>
                </g>
              </g>
              <g id="Grupo_1185141" data-name="Grupo 1185141" transform="translate(12.597 197.364)">
                <path id="Trazado_950300" data-name="Trazado 950300" d="M169.583,369.142c1.373-3.169,5.475,1.539,11.849,1.539s9.1-.9,9.1,2.2-4.613,33.79-10.474,33.79-8.3-.984-12.917-2.84-6.462-.407-4.045-5.472S166.055,377.283,169.583,369.142Z" transform="translate(-162.032 -368.046)" fill="#735643"/>
                <path id="Trazado_950301" data-name="Trazado 950301" d="M176.335,379.951s-.83,5.774,3.374,5.774,2.21,6.825,6.279,5.838c-2.323,2.323-4.854-.74-4.854-3.613s-2.072-.774-3.689-.774S175.224,382.423,176.335,379.951Z" transform="translate(-166.884 -372.251)" fill="#574134"/>
                <path id="Trazado_950302" data-name="Trazado 950302" d="M187.11,378.132a22.423,22.423,0,0,1,4.366,7.484C191.476,382.657,191.637,378.132,187.11,378.132Z" transform="translate(-170.89 -371.609)" fill="#574134"/>
                <path id="Trazado_950303" data-name="Trazado 950303" d="M172.694,408.257s4.875,1.3,7.354-1.176C180.048,409.321,174.749,410.313,172.694,408.257Z" transform="translate(-165.798 -381.834)" fill="#574134"/>
                <path id="Trazado_950304" data-name="Trazado 950304" d="M186.914,401.731s-.971,5.593-4.366,7.533-5.12,4.635-8.354,2.372c1.617,2.91,4.312.754,7.007-.431S186.914,407.78,186.914,401.731Z" transform="translate(-166.328 -379.944)" fill="#574134"/>
                <path id="Trazado_950305" data-name="Trazado 950305" d="M198.5,377.72c.519-1.029,1.509,1.617.979,2.668S197.666,379.377,198.5,377.72Z" transform="translate(-174.817 -371.381)" fill="#574134"/>
                <path id="Trazado_950306" data-name="Trazado 950306" d="M173.53,404.12c.585.519-.92,1.509-1.517.979S172.588,403.283,173.53,404.12Z" transform="translate(-165.5 -380.691)" fill="#574134"/>
                <path id="Trazado_950307" data-name="Trazado 950307" d="M180.973,384.953c-.366.514-1.288-.609-.914-1.133S181.564,384.125,180.973,384.953Z" transform="translate(-168.369 -373.56)" fill="#574134"/>
                <path id="Trazado_950308" data-name="Trazado 950308" d="M177.644,374.347c-.366.514-1.288-.609-.914-1.133S178.235,373.52,177.644,374.347Z" transform="translate(-167.193 -369.813)" fill="#574134"/>
                <path id="Trazado_950309" data-name="Trazado 950309" d="M197.855,403.032c-.618.124-.523-1.325.109-1.451S198.852,402.833,197.855,403.032Z" transform="translate(-174.538 -379.888)" fill="#574134"/>
                <path id="Trazado_950310" data-name="Trazado 950310" d="M195.373,406.343c-.51.1-.431-1.092.09-1.2S196.195,406.18,195.373,406.343Z" transform="translate(-173.687 -381.149)" fill="#574134"/>
                <path id="Trazado_950311" data-name="Trazado 950311" d="M191.68,422.829c-.51.1-.431-1.092.09-1.2S192.5,422.665,191.68,422.829Z" transform="translate(-172.383 -386.972)" fill="#574134"/>
                <path id="Trazado_950312" data-name="Trazado 950312" d="M189.449,419.564c-.51.1-.431-1.092.09-1.2S190.27,419.4,189.449,419.564Z" transform="translate(-171.595 -385.819)" fill="#574134"/>
              </g>
            </g>
            <g id="Grupo_1185143" data-name="Grupo 1185143" transform="translate(64.353 53.29)">
              <path id="Trazado_950313" data-name="Trazado 950313" d="M254.733,176.039s17.083,16.171,42.86.479c-.288-8.438,1.686-19.972-2.43-24.087s-7.6-7.145-15.467-7.145-11.125,0-16.01,2.442-13.515,10.969-16.281,13.734-8.628,3.255-2.985,8.9C246.05,174.32,248.492,178.842,254.733,176.039Z" transform="translate(-242.054 -145.286)" fill="#423b37"/>
              <path id="Trazado_950314" data-name="Trazado 950314" d="M261.658,185.271s5.337-.634,14.653-9.951c3.075,3.075,9.678,3.664,14.562,3.664-.9-2.306-1.4-5.83,1.447-7.191,3.98-1.9,10.492,3.8,8.684,9.769,2.075,2.075,7.326,9.236,16.191,10.683-8.955,3.517-10.9,16.542-10.9,16.542a42.684,42.684,0,0,0-11.009-5.972c-2.964,3.892-5.09,4.932-7.261,4.932s-5.6-2.3-8.005-4.115c-.769,1.086-2.778,4.866-4.838.452-2.872-6.151-2.476-8.355-3.619-9.5C269.663,192.688,264.643,190.065,261.658,185.271Z" transform="translate(-248.979 -154.518)" fill="#d67d56"/>
              <path id="Trazado_950315" data-name="Trazado 950315" d="M320.911,187.1a1.5,1.5,0,0,1-.1.634,1.471,1.471,0,0,1-.13.284,1.426,1.426,0,0,1-.184.3c-.078.092-.153.2-.243.287a2.053,2.053,0,0,1-.295.253l-.32.22c-.112.061-.235.1-.346.144s-.224.08-.328.113a1.246,1.246,0,0,1-.308.041,2.85,2.85,0,0,1-.635-.013,3.617,3.617,0,0,1,.519-.34c.075-.047.163-.078.244-.137s.164-.121.254-.174.178-.116.274-.166l.257-.2a1.582,1.582,0,0,0,.261-.2c.076-.076.164-.139.243-.207s.149-.14.221-.206.147-.125.2-.192C320.735,187.295,320.911,187.1,320.911,187.1Z" transform="translate(-268.887 -160.056)" fill="#94563b"/>
              <path id="Trazado_950316" data-name="Trazado 950316" d="M311.425,180.854s-1.629-4.522.723-4.522,4.884,3.8,2.352,5.428C313.6,180.041,312.555,179.724,311.425,180.854Z" transform="translate(-266.364 -156.252)" fill="#94563b"/>
              <path id="Trazado_950317" data-name="Trazado 950317" d="M313.65,215.017l.2-.38c.136-.232.289-.59.5-1,.107-.2.2-.437.317-.671s.239-.482.347-.747.226-.535.355-.805.232-.557.343-.84c.237-.561.462-1.125.64-1.669.092-.27.192-.528.285-.775s.161-.484.232-.7c.133-.44.272-.8.357-1.061s.152-.4.152-.4,0,.155-.028.426-.055.66-.12,1.124a5.032,5.032,0,0,1-.129.745c-.063.26-.129.536-.208.818s-.142.58-.251.869-.223.579-.334.872-.228.582-.373.854-.282.543-.416.8a7.663,7.663,0,0,1-.434.724c-.146.226-.278.442-.421.629-.279.377-.532.675-.716.878A3.174,3.174,0,0,1,313.65,215.017Z" transform="translate(-267.344 -166.72)" fill="#94563b"/>
              <path id="Trazado_950318" data-name="Trazado 950318" d="M297.319,220.161a6.335,6.335,0,0,0,.492-.758c.065-.114.125-.24.186-.373s.1-.279.162-.421a2.947,2.947,0,0,0,.127-.931,3.772,3.772,0,0,0-.049-.475c-.053-.151-.069-.311-.124-.458s-.114-.288-.164-.428c-.072-.129-.135-.256-.193-.376-.107-.245-.248-.423-.318-.571s-.12-.23-.12-.23.08.048.214.143a2.9,2.9,0,0,1,.524.44c.1.1.2.221.308.349.089.14.185.29.274.452a4.256,4.256,0,0,1,.208.537,4.16,4.16,0,0,1,.087.6,2.806,2.806,0,0,1-.062.605,2.5,2.5,0,0,1-.184.553,2.824,2.824,0,0,1-.584.812A2.285,2.285,0,0,1,297.319,220.161Z" transform="translate(-261.576 -169.961)" fill="#94563b"/>
              <path id="Trazado_950319" data-name="Trazado 950319" d="M275.46,199.268a3.382,3.382,0,0,1-.031-1.333,4.175,4.175,0,0,1,.15-.638,3.677,3.677,0,0,1,.287-.688,4.168,4.168,0,0,1,.451-.684,3.754,3.754,0,0,1,.637-.592c.123-.083.24-.173.369-.245s.269-.122.4-.18a3.192,3.192,0,0,1,.818-.21,4.088,4.088,0,0,1,.769-.006,2.84,2.84,0,0,1,.655.139,3.006,3.006,0,0,1,.888.4c.2.122.3.2.3.2s-.138.025-.365.049c-.113.01-.248.027-.4.031a3.917,3.917,0,0,0-.494.062,4.773,4.773,0,0,0-.551.094c-.184.06-.384.08-.568.154a4.206,4.206,0,0,0-.55.236c-.088.049-.175.1-.266.142s-.164.122-.247.179a4.3,4.3,0,0,0-.475.393c-.137.158-.295.3-.42.464s-.261.321-.372.487-.221.324-.329.471Z" transform="translate(-253.827 -162.732)" fill="#423b37"/>
              <path id="Trazado_950320" data-name="Trazado 950320" d="M283.878,201.91a1.287,1.287,0,1,1-1.974-.041A1.408,1.408,0,0,1,283.878,201.91Z" transform="translate(-256.035 -165.137)" fill="#423b37"/>
              <path id="Trazado_950321" data-name="Trazado 950321" d="M246.359,179.785l.229-.005.634-.092a8.867,8.867,0,0,0,.958-.25,8.014,8.014,0,0,0,1.2-.442l.677-.277.356-.146.349-.195c.472-.263.966-.543,1.486-.816a15.116,15.116,0,0,0,1.532-.968l1.563-1.035c.523-.348,1-.766,1.492-1.14l1.444-1.111.694-.526c.223-.178.427-.367.633-.543l1.155-1c.713-.625,1.336-1.118,1.759-1.477l.681-.55-.593.639c-.388.4-.924.984-1.6,1.656-.338.337-.7.7-1.09,1.089-.2.191-.389.4-.6.591l-.677.562-1.426,1.167c-.5.384-.971.812-1.5,1.172l-1.6,1.035a12.959,12.959,0,0,1-1.591.938c-.539.268-1.067.511-1.565.744l-.367.173-.376.125-.714.235-.655.213a5.1,5.1,0,0,1-.613.12,9.1,9.1,0,0,1-1,.142c-.283.008-.5.008-.649,0Z" transform="translate(-243.575 -153.736)" fill="#70645d"/>
            </g>
            <g id="Grupo_1185144" data-name="Grupo 1185144" transform="translate(153.159 205.245)">
              <path id="Trazado_950322" data-name="Trazado 950322" d="M408.615,380.23s-3.206,9.3-11.914,13.877c-3.282,5.66-6.345,12.615-8.98,13.53-2.563.891-8.361,1.9-8.361,8.411H396.4A124.5,124.5,0,0,0,421.193,393.9C419.9,387.319,415.417,381.821,408.615,380.23Z" transform="translate(-379.36 -380.23)" fill="#405245"/>
              <path id="Trazado_950323" data-name="Trazado 950323" d="M402.034,418.018a.323.323,0,0,1-.229-.1c-1.035-1.035-3.167-.643-3.187-.638a.324.324,0,0,1-.123-.636c.1-.02,2.488-.462,3.766.817a.324.324,0,0,1,0,.457A.318.318,0,0,1,402.034,418.018Z" transform="translate(-386.027 -393.063)" fill="#fff"/>
              <path id="Trazado_950324" data-name="Trazado 950324" d="M405.49,411.6a.323.323,0,0,1-.229-.1,3.6,3.6,0,0,0-3.237-.646.323.323,0,0,1-.183-.62,4.177,4.177,0,0,1,3.877.809.324.324,0,0,1,0,.457A.32.32,0,0,1,405.49,411.6Z" transform="translate(-387.219 -390.772)" fill="#fff"/>
              <path id="Trazado_950325" data-name="Trazado 950325" d="M409.571,404.772a.323.323,0,0,1-.229-.1c-1.215-1.215-3.28-.5-3.3-.49a.323.323,0,1,1-.217-.609c.1-.036,2.473-.861,3.975.642a.324.324,0,0,1,0,.457A.318.318,0,0,1,409.571,404.772Z" transform="translate(-388.632 -388.386)" fill="#fff"/>
            </g>
            <path id="Trazado_950326" data-name="Trazado 950326" d="M268.661,323s23.1-6.767,45.083-11.641c3.308-6.84,9.325-23.868,13.341-37.654-5.26-3.192-17.548-5.736-23.652-3.932-4.432,17.617-5.351,28.318-8.88,36.766A294.751,294.751,0,0,0,268.661,323Z" transform="translate(-187.099 -135.758)" fill="#d67d56"/>
          </g>
          <g id="Grupo_1185147" data-name="Grupo 1185147" transform="translate(0 230.914)">
            <g id="Grupo_1185146" data-name="Grupo 1185146" transform="translate(19.787)">
              <path id="Trazado_950327" data-name="Trazado 950327" d="M75.953,430.067s10.349-4.341,17.295-5.608,5.377-6.17,11.769-3.989,5.488,4.523,11.276,4.523,10.674-2.18,15.377,0,16.879,3.446,21.916,1.637,10.465-1.649,14.807.894,10.853-3.064,18.814,2.543Z" transform="translate(-75.953 -419.918)" fill="#735643"/>
              <path id="Trazado_950328" data-name="Trazado 950328" d="M109.61,429.887s5.336-4.2,11-1.455C119.069,426.9,113.167,424.875,109.61,429.887Z" transform="translate(-87.842 -422.314)" fill="#574134"/>
              <path id="Trazado_950329" data-name="Trazado 950329" d="M143.86,430.759s8.085-1.617,12.935,0C155.178,429.142,148.064,428.184,143.86,430.759Z" transform="translate(-99.94 -423.185)" fill="#574134"/>
            </g>
            <path id="Trazado_950330" data-name="Trazado 950330" d="M45.36,435.081l11.088-.188,12.725-.172c4.914-.068,10.457-.147,16.5-.184l19.529-.16c6.93-.055,14.237-.133,21.8-.136l47.373-.129,47.373.127c7.56,0,14.867.076,21.8.134l19.529.162c6.047.038,11.591.115,16.5.184l12.725.173,11.088.189-11.088.189-12.725.173c-4.914.07-10.457.147-16.5.184l-19.529.162c-6.93.058-14.237.131-21.8.134l-47.373.127L127,435.921c-7.559,0-14.867-.081-21.8-.136l-19.529-.16c-6.048-.038-11.591-.116-16.5-.184l-12.725-.172Z" transform="translate(-45.36 -424.932)" fill="#735643"/>
          </g>
        </g>
      </g>
    </g>
  </g>
</svg>
