<svg xmlns="http://www.w3.org/2000/svg" xmlns:xlink="http://www.w3.org/1999/xlink" width="118" height="118" viewBox="0 0 118 118">
  <defs>
    <filter id="Trazado_920741" x="0" y="0" width="118" height="118" filterUnits="userSpaceOnUse">
      <feOffset dy="3" input="SourceAlpha"/>
      <feGaussianBlur stdDeviation="3" result="blur"/>
      <feFlood flood-opacity="0.161"/>
      <feComposite operator="in" in2="blur"/>
      <feComposite in="SourceGraphic"/>
    </filter>
  </defs>
  <g id="Grupo_1177579" data-name="Grupo 1177579" transform="translate(-411.051 -5664)">
    <g transform="matrix(1, 0, 0, 1, 411.05, 5664)" filter="url(#Trazado_920741)">
      <g id="Trazado_920741-2" data-name="Trazado 920741" transform="translate(9 6)" fill="#fff">
        <path d="M 50.00003814697266 97.99991607666016 C 43.51918029785156 97.99991607666016 37.23325347900391 96.73108673095703 31.31685256958008 94.22866058349609 C 25.60128211975098 91.81118774414062 20.46775245666504 88.34992980957031 16.05886840820312 83.94105529785156 C 11.64998149871826 79.53217315673828 8.188724517822266 74.39865875244141 5.771253108978271 68.68309020996094 C 3.268824815750122 62.76671600341797 1.999996185302734 56.48078536987305 1.999996185302734 49.99995803833008 C 1.999996185302734 43.51913070678711 3.268824815750122 37.23321533203125 5.771253108978271 31.31681442260742 C 8.188724517822266 25.60125732421875 11.64998149871826 20.46774291992188 16.05885314941406 16.05885887145996 C 20.46773910522461 11.64998626708984 25.60125350952148 8.188729286193848 31.31681060791016 5.771257877349854 C 37.23321151733398 3.268829584121704 43.51912307739258 2.000000953674316 49.99995422363281 2.000000953674316 C 56.48081207275391 2.000000953674316 62.76673889160156 3.268829584121704 68.68313598632812 5.771257877349854 C 74.39871215820312 8.188729286193848 79.53224182128906 11.64998626708984 83.94112396240234 16.05885887145996 C 88.35001373291016 20.46774291992188 91.81126403808594 25.60125732421875 94.22873687744141 31.31682968139648 C 96.73117065429688 37.23320007324219 98 43.51913070678711 98 49.99995803833008 C 98 56.48078536987305 96.73117065429688 62.76670074462891 94.22873687744141 68.68309783935547 C 91.81126403808594 74.39865875244141 88.35001373291016 79.53217315673828 83.94113922119141 83.94105529785156 C 79.53225708007812 88.34992980957031 74.39874267578125 91.81118774414062 68.68318176269531 94.22866058349609 C 62.76678085327148 96.73108673095703 56.48086929321289 97.99991607666016 50.00003814697266 97.99991607666016 Z" stroke="none"/>
        <path d="M 49.99996185302734 3.999992370605469 C 43.78824615478516 3.999992370605469 37.76446151733398 5.215675354003906 32.09593200683594 7.613258361816406 C 26.61875915527344 9.929908752441406 21.69892883300781 13.24722290039062 17.47307586669922 17.47307586669922 C 13.24723052978516 21.69892120361328 9.929916381835938 26.61875915527344 7.613265991210938 32.09592437744141 C 5.215682983398438 37.76445770263672 3.999992370605469 43.78824234008789 3.999992370605469 49.99995803833008 C 3.999992370605469 56.21167373657227 5.215682983398438 62.23545837402344 7.613265991210938 67.90399169921875 C 9.929916381835938 73.38115692138672 13.24723052978516 78.30099487304688 17.47307586669922 82.52684020996094 C 21.69892883300781 86.75267791748047 26.61878204345703 90.07000732421875 32.09596252441406 92.38664245605469 C 37.76449584960938 94.78422546386719 43.78831100463867 95.99990844726562 50.00004577636719 95.99990844726562 C 56.21176147460938 95.99990844726562 62.23554611206055 94.78422546386719 67.90408325195312 92.38664245605469 C 73.38124847412109 90.07000732421875 78.30107879638672 86.75269317626953 82.52693176269531 82.52684020996094 C 86.75277709960938 78.30099487304688 90.07009887695312 73.38115692138672 92.38672637939453 67.90399169921875 C 94.78430938720703 62.23545837402344 96 56.21167373657227 96 49.99995803833008 C 96 43.78824234008789 94.78430938720703 37.76445770263672 92.38672637939453 32.09592437744141 C 90.07008361816406 26.61875915527344 86.75276184082031 21.69892120361328 82.52691650390625 17.47307586669922 C 78.30106353759766 13.24722290039062 73.38121032714844 9.929908752441406 67.90404510498047 7.613258361816406 C 62.23549652099609 5.215675354003906 56.21169662475586 3.999992370605469 49.99996185302734 3.999992370605469 M 49.99996185302734 -7.62939453125e-06 L 50.00004577636719 -7.62939453125e-06 C 77.61426544189453 -7.62939453125e-06 100 22.3857421875 100 49.99995803833008 C 100 77.61417388916016 77.61426544189453 99.99990844726562 50.00004577636719 99.99990844726562 L 49.99996185302734 99.99990844726562 C 22.38574981689453 99.99990844726562 -7.62939453125e-06 77.61417388916016 -7.62939453125e-06 49.99995803833008 C -7.62939453125e-06 22.3857421875 22.38574981689453 -7.62939453125e-06 49.99996185302734 -7.62939453125e-06 Z" stroke="none" fill="#f3d02c"/>
      </g>
    </g>
    <g id="Grupo_1177555" data-name="Grupo 1177555" transform="translate(424.89 5664.825)">
      <g id="Grupo_1177548" data-name="Grupo 1177548" transform="translate(9.624 31.458)">
        <path id="Trazado_944658" data-name="Trazado 944658" d="M95.441,61.093c-.391.617-3.817,6.1-3.817,8.275a4.369,4.369,0,0,0,8.738,0c0-2.178-3.426-7.658-3.817-8.275a.679.679,0,0,0-1.1,0Zm.552,11.337a3.066,3.066,0,0,1-3.062-3.062c0-1.188,1.7-4.412,3.062-6.679,1.361,2.267,3.062,5.491,3.062,6.679A3.066,3.066,0,0,1,95.993,72.43Z" transform="translate(-38.032 -41.627)" fill="#128477"/>
        <path id="Trazado_944659" data-name="Trazado 944659" d="M77.022,48.261a4.99,4.99,0,0,0-2.625-.231c-1.357.24-2.333-.4-2.9-1.9a.617.617,0,0,1,.24-.676,4.048,4.048,0,0,0,1.078-1.35,6.541,6.541,0,0,0,.733-3.055v-4.2a4.928,4.928,0,0,0-1.524-3.8c-1.875-1.725-4.817-1.606-5.27-1.582-.448-.025-3.391-.142-5.265,1.581a4.934,4.934,0,0,0-1.524,3.8v4.2a6.548,6.548,0,0,0,.73,3.061,4.233,4.233,0,0,0,1.072,1.343.612.612,0,0,1,.242.681c-.56,1.5-1.535,2.138-2.9,1.9a4.976,4.976,0,0,0-2.618.23,5.677,5.677,0,0,0-3.657,5.02,3.856,3.856,0,0,1-1.943-2.291.908.908,0,0,1,.348-1.014,4.971,4.971,0,0,0,1.292-1.621,7.944,7.944,0,0,0,.891-3.712V39.449a5.958,5.958,0,0,0-1.838-4.592c-2.295-2.112-5.917-1.952-6.423-1.92-.507-.031-4.129-.191-6.423,1.92A5.961,5.961,0,0,0,36.9,39.449v5.194a7.957,7.957,0,0,0,.892,3.714,4.968,4.968,0,0,0,1.287,1.616.907.907,0,0,1,.352,1.016,3.719,3.719,0,0,1-1.942,2.3,5.674,5.674,0,0,0-3.655-5.029,4.966,4.966,0,0,0-2.617-.231c-1.367.239-2.342-.4-2.9-1.9a.611.611,0,0,1,.243-.679A4.245,4.245,0,0,0,29.634,44.1a6.536,6.536,0,0,0,.727-3.055v-4.2a4.932,4.932,0,0,0-1.524-3.8c-1.874-1.724-4.814-1.606-5.265-1.581-.452-.024-3.395-.144-5.27,1.582a4.93,4.93,0,0,0-1.524,3.8v4.2A6.537,6.537,0,0,0,17.51,44.1a4.041,4.041,0,0,0,1.072,1.346.622.622,0,0,1,.247.681c-.569,1.5-1.544,2.144-2.9,1.9a4.993,4.993,0,0,0-2.625.23,5.707,5.707,0,0,0-3.68,5.417V63.06a3.88,3.88,0,0,0,1.519,2.989C13.581,68.143,18.668,69.1,23.6,69.1a35.593,35.593,0,0,0,4.444-.277v3.078c0,5.07,8.6,7.34,17.119,7.34s17.119-2.27,17.119-7.34V68.828a35.593,35.593,0,0,0,4.444.277c4.93,0,10.017-.963,12.456-3.056A3.88,3.88,0,0,0,80.7,63.06V53.677a5.7,5.7,0,0,0-3.676-5.416ZM28.043,67.51C21.7,68.356,14.6,67.293,12,65.058a2.6,2.6,0,0,1-1.063-2V53.677a4.4,4.4,0,0,1,2.818-4.188,3.683,3.683,0,0,1,1.95-.172c1.976.348,3.561-.646,4.351-2.725a1.916,1.916,0,0,0-.67-2.179,2.817,2.817,0,0,1-.716-.924,5.225,5.225,0,0,1-.582-2.442v-4.2a3.68,3.68,0,0,1,1.1-2.834c1.565-1.444,4.308-1.243,4.337-1.24a.715.715,0,0,0,.106,0c.029,0,2.767-.2,4.331,1.239a3.683,3.683,0,0,1,1.1,2.835v4.2a5.222,5.222,0,0,1-.572,2.436,2.965,2.965,0,0,1-.722.932,1.9,1.9,0,0,0-.667,2.174,3.764,3.764,0,0,0,4.355,2.727,3.685,3.685,0,0,1,1.944.174A4.382,4.382,0,0,1,36.2,53.5a4.06,4.06,0,0,1-.534-.054,6.1,6.1,0,0,0-3.166.276,6.935,6.935,0,0,0-4.456,6.574V67.51Zm32.93,4.4c0,3.961-7.955,6.032-15.812,6.032s-15.812-2.072-15.812-6.032V60.292a5.626,5.626,0,0,1,3.593-5.344,4.82,4.82,0,0,1,1.648-.291,4.967,4.967,0,0,1,.847.074c2.405.428,4.257-.741,5.217-3.282a2.206,2.206,0,0,0-.776-2.512,3.706,3.706,0,0,1-.932-1.2,6.627,6.627,0,0,1-.739-3.1V39.447a4.713,4.713,0,0,1,1.411-3.627c1.992-1.838,5.455-1.582,5.489-1.578a.716.716,0,0,0,.106,0c.034,0,3.5-.259,5.489,1.578a4.71,4.71,0,0,1,1.411,3.627v5.194a6.622,6.622,0,0,1-.738,3.1,3.7,3.7,0,0,1-.937,1.2,2.205,2.205,0,0,0-.773,2.509,4.614,4.614,0,0,0,3.7,3.324,4.834,4.834,0,0,0,1.514-.042,4.816,4.816,0,0,1,2.5.217,5.625,5.625,0,0,1,3.593,5.344V71.905ZM79.392,63.06a2.606,2.606,0,0,1-1.063,2c-2.6,2.236-9.708,3.3-16.048,2.452V60.292a6.935,6.935,0,0,0-4.456-6.574,6.115,6.115,0,0,0-3.162-.276,4.412,4.412,0,0,1-.539.056,4.383,4.383,0,0,1,2.81-4.01,3.688,3.688,0,0,1,1.946-.172,3.761,3.761,0,0,0,4.35-2.725,1.9,1.9,0,0,0-.666-2.176,2.946,2.946,0,0,1-.72-.927,5.221,5.221,0,0,1-.575-2.442V36.851a3.681,3.681,0,0,1,1.1-2.835c1.565-1.443,4.3-1.241,4.331-1.239a.734.734,0,0,0,.107,0c.028,0,2.757-.211,4.332,1.238a3.68,3.68,0,0,1,1.1,2.838v4.2a5.226,5.226,0,0,1-.582,2.442,2.833,2.833,0,0,1-.722.929,1.911,1.911,0,0,0-.663,2.174,3.775,3.775,0,0,0,4.353,2.724,3.688,3.688,0,0,1,1.95.174,4.4,4.4,0,0,1,2.815,4.187V63.06Z" transform="translate(-9.624 -31.458)" fill="#128477"/>
        <path id="Trazado_944660" data-name="Trazado 944660" d="M68.321,71.134c-.161,0-.881.029-1.861.157a13.125,13.125,0,0,0-5.838,2.01c-2.265,1.667-3.276,3.744-2.772,5.7a3.755,3.755,0,0,0,.5,1.105A28.344,28.344,0,0,0,56.5,83.423c-.123.259-.242.528-.361.8-.214-.342-.429-.7-.609-1a3.6,3.6,0,0,0,.922-1.6c.41-1.6-.4-3.284-2.232-4.631-2.178-1.6-5.778-1.72-6.138-1.728a.654.654,0,0,0-.617.948c.022.113.046.3.081.546a14.254,14.254,0,0,0,1.584,5.428,4.74,4.74,0,0,0,3.1,2.318,3.26,3.26,0,0,0,.491.038,3.539,3.539,0,0,0,1.773-.5c.33.555.743,1.214,1.046,1.68a33.228,33.228,0,0,0-1.086,3.4.654.654,0,0,0,.467.8.692.692,0,0,0,.166.021.654.654,0,0,0,.632-.488,31.483,31.483,0,0,1,1.154-3.57.325.325,0,0,0,.014-.042c.252-.64.52-1.261.8-1.845a27.709,27.709,0,0,1,1.538-2.819,4.594,4.594,0,0,0,3.206,1.415,3.88,3.88,0,0,0,.72-.067,5.875,5.875,0,0,0,3.689-2.848,7.611,7.611,0,0,0,.654-1.244,23.055,23.055,0,0,0,1.339-5.606c.039-.274.081-.579.108-.718a.658.658,0,0,0,.078-.315A.667.667,0,0,0,68.321,71.134ZM55.19,81.295a2.148,2.148,0,0,1-.336.711,12.806,12.806,0,0,0-3.123-4.037A.653.653,0,0,0,50.924,79a12.371,12.371,0,0,1,2.931,3.9,2.181,2.181,0,0,1-1.423.312,3.509,3.509,0,0,1-2.2-1.742,13.36,13.36,0,0,1-1.376-4.847,9.983,9.983,0,0,1,4.6,1.422c1.377,1.014,2.011,2.2,1.74,3.253Zm12.346-8.662a21.948,21.948,0,0,1-1.247,5.279,6.489,6.489,0,0,1-.544,1.036,4.718,4.718,0,0,1-2.836,2.28,3,3,0,0,1-2.342-.614,3.889,3.889,0,0,1-.6-.568,18.55,18.55,0,0,1,4.357-4.594.679.679,0,0,0,.135-.122.653.653,0,0,0-.879-.953,19.586,19.586,0,0,0-4.381,4.5c-.025-.068-.064-.137-.082-.2-.368-1.433.442-2.968,2.282-4.321a11.862,11.862,0,0,1,5.232-1.768c.35-.045.665-.076.928-.1-.008.046-.014.1-.022.144Z" transform="translate(-22.71 -45.203)" fill="#128477"/>
        <path id="Trazado_944661" data-name="Trazado 944661" d="M30.97,64.674H27.7l1.152-5.2a.653.653,0,0,0-1.132-.569l-7.1,8.2a.654.654,0,0,0,.494,1.081h3.506l-.907,5.022a.654.654,0,0,0,1.147.533l6.619-8a.654.654,0,0,0-.5-1.071ZM25.437,70.99l.6-3.336a.653.653,0,0,0-.644-.769H22.539l4.477-5.17-.769,3.471a.653.653,0,0,0,.638.795h2.7Z" transform="translate(-13.376 -40.889)" fill="#128477"/>
      </g>
    </g>
  </g>
</svg>
