<svg xmlns="http://www.w3.org/2000/svg" xmlns:xlink="http://www.w3.org/1999/xlink" width="118" height="118" viewBox="0 0 118 118">
  <defs>
    <filter id="Trazado_920741" x="0" y="0" width="118" height="118" filterUnits="userSpaceOnUse">
      <feOffset dy="3" input="SourceAlpha"/>
      <feGaussianBlur stdDeviation="3" result="blur"/>
      <feFlood flood-opacity="0.161"/>
      <feComposite operator="in" in2="blur"/>
      <feComposite in="SourceGraphic"/>
    </filter>
  </defs>
  <g id="Grupo_1177580" data-name="Grupo 1177580" transform="translate(-411.051 -5664)">
    <g transform="matrix(1, 0, 0, 1, 411.05, 5664)" filter="url(#Trazado_920741)">
      <g id="Trazado_920741-2" data-name="Trazado 920741" transform="translate(9 6)" fill="#fff">
        <path d="M 50.00003814697266 97.99991607666016 C 43.51918029785156 97.99991607666016 37.23325347900391 96.73108673095703 31.31685256958008 94.22866058349609 C 25.60128211975098 91.81118774414062 20.46775245666504 88.34992980957031 16.05886840820312 83.94105529785156 C 11.64998149871826 79.53217315673828 8.188724517822266 74.39865875244141 5.771253108978271 68.68309020996094 C 3.268824815750122 62.76671600341797 1.999996185302734 56.48078536987305 1.999996185302734 49.99995803833008 C 1.999996185302734 43.51913070678711 3.268824815750122 37.23321533203125 5.771253108978271 31.31681442260742 C 8.188724517822266 25.60125732421875 11.64998149871826 20.46774291992188 16.05885314941406 16.05885887145996 C 20.46773910522461 11.64998626708984 25.60125350952148 8.188729286193848 31.31681060791016 5.771257877349854 C 37.23321151733398 3.268829584121704 43.51912307739258 2.000000953674316 49.99995422363281 2.000000953674316 C 56.48081207275391 2.000000953674316 62.76673889160156 3.268829584121704 68.68313598632812 5.771257877349854 C 74.39871215820312 8.188729286193848 79.53224182128906 11.64998626708984 83.94112396240234 16.05885887145996 C 88.35001373291016 20.46774291992188 91.81126403808594 25.60125732421875 94.22873687744141 31.31682968139648 C 96.73117065429688 37.23320007324219 98 43.51913070678711 98 49.99995803833008 C 98 56.48078536987305 96.73117065429688 62.76670074462891 94.22873687744141 68.68309783935547 C 91.81126403808594 74.39865875244141 88.35001373291016 79.53217315673828 83.94113922119141 83.94105529785156 C 79.53225708007812 88.34992980957031 74.39874267578125 91.81118774414062 68.68318176269531 94.22866058349609 C 62.76678085327148 96.73108673095703 56.48086929321289 97.99991607666016 50.00003814697266 97.99991607666016 Z" stroke="none"/>
        <path d="M 49.99996185302734 3.999992370605469 C 43.78824615478516 3.999992370605469 37.76446151733398 5.215675354003906 32.09593200683594 7.613258361816406 C 26.61875915527344 9.929908752441406 21.69892883300781 13.24722290039062 17.47307586669922 17.47307586669922 C 13.24723052978516 21.69892120361328 9.929916381835938 26.61875915527344 7.613265991210938 32.09592437744141 C 5.215682983398438 37.76445770263672 3.999992370605469 43.78824234008789 3.999992370605469 49.99995803833008 C 3.999992370605469 56.21167373657227 5.215682983398438 62.23545837402344 7.613265991210938 67.90399169921875 C 9.929916381835938 73.38115692138672 13.24723052978516 78.30099487304688 17.47307586669922 82.52684020996094 C 21.69892883300781 86.75267791748047 26.61878204345703 90.07000732421875 32.09596252441406 92.38664245605469 C 37.76449584960938 94.78422546386719 43.78831100463867 95.99990844726562 50.00004577636719 95.99990844726562 C 56.21176147460938 95.99990844726562 62.23554611206055 94.78422546386719 67.90408325195312 92.38664245605469 C 73.38124847412109 90.07000732421875 78.30107879638672 86.75269317626953 82.52693176269531 82.52684020996094 C 86.75277709960938 78.30099487304688 90.07009887695312 73.38115692138672 92.38672637939453 67.90399169921875 C 94.78430938720703 62.23545837402344 96 56.21167373657227 96 49.99995803833008 C 96 43.78824234008789 94.78430938720703 37.76445770263672 92.38672637939453 32.09592437744141 C 90.07008361816406 26.61875915527344 86.75276184082031 21.69892120361328 82.52691650390625 17.47307586669922 C 78.30106353759766 13.24722290039062 73.38121032714844 9.929908752441406 67.90404510498047 7.613258361816406 C 62.23549652099609 5.215675354003906 56.21169662475586 3.999992370605469 49.99996185302734 3.999992370605469 M 49.99996185302734 -7.62939453125e-06 L 50.00004577636719 -7.62939453125e-06 C 77.61426544189453 -7.62939453125e-06 100 22.3857421875 100 49.99995803833008 C 100 77.61417388916016 77.61426544189453 99.99990844726562 50.00004577636719 99.99990844726562 L 49.99996185302734 99.99990844726562 C 22.38574981689453 99.99990844726562 -7.62939453125e-06 77.61417388916016 -7.62939453125e-06 49.99995803833008 C -7.62939453125e-06 22.3857421875 22.38574981689453 -7.62939453125e-06 49.99996185302734 -7.62939453125e-06 Z" stroke="none" fill="#f3d02c"/>
      </g>
    </g>
    <g id="Grupo_1177559" data-name="Grupo 1177559" transform="translate(423.767 5676.131)">
      <g id="Grupo_1177550" data-name="Grupo 1177550" transform="translate(15.123 14.309)">
        <path id="Trazado_944662" data-name="Trazado 944662" d="M76.774,26.119c-.394.008-4.531.14-7.025,1.973-2.072,1.526-3,3.431-2.534,5.225a3.659,3.659,0,0,0,.448,1.009A25.261,25.261,0,0,0,66,37.306c-.1.21-.2.429-.294.65-.173-.277-.344-.558-.492-.809a3.3,3.3,0,0,0,.824-1.45c.377-1.468-.367-3.017-2.043-4.252-1.986-1.461-5.262-1.57-5.6-1.578a.645.645,0,0,0-.67.632.632.632,0,0,0,.066.288c.02.1.041.271.072.486a12.988,12.988,0,0,0,1.446,4.948,4.25,4.25,0,0,0,2.843,2.124,3,3,0,0,0,.453.035,3.25,3.25,0,0,0,1.593-.444c.293.49.649,1.059.916,1.471-.2.522-.374,1.035-.534,1.543a18.9,18.9,0,0,0-10.312-.05l-1.5.421L48.372,39.9a10.385,10.385,0,0,0-2.553-.442A30.26,30.26,0,0,1,48.977,29.31a6.236,6.236,0,0,0,3.5,1.155A5.424,5.424,0,0,0,53.3,30.4c1.972-.3,3.834-1.711,5.385-4.071,1.882-2.873,2.548-7.617,2.868-9.9.066-.469.133-.952.177-1.146a.637.637,0,0,0,.1-.348.654.654,0,0,0-.68-.632c-.59.012-7.189.212-11.135,3.114-4.711,3.47-4.749,7.292-3.207,9.721l.041.062a41.208,41.208,0,0,0-2.407,4.22c-.465-.4-.952-.84-1.378-1.237.954-1.956.671-4.778-2.82-7.349-3.125-2.3-8.328-2.463-8.829-2.474h-.041a.637.637,0,0,0-.551.958c.034.161.086.535.133.87.253,1.8.78,5.551,2.276,7.836a6.649,6.649,0,0,0,4.328,3.26,4.369,4.369,0,0,0,.669.051,4.984,4.984,0,0,0,2.718-.861c.534.911,1.28,2.1,1.776,2.863A48.229,48.229,0,0,0,41.13,40.3c-.087.038-.178.066-.264.105l-3.141,1.505-2.84-1.1a12.517,12.517,0,0,0-7.124-.568c-.145-.431-.281-.807-.417-1.149-.236-.6-.49-1.186-.775-1.785a26.09,26.09,0,0,0-1.661-2.981,3.705,3.705,0,0,0,.444-1.011c.462-1.794-.461-3.7-2.534-5.225-2.493-1.833-6.63-1.965-7.024-1.973a.649.649,0,0,0-.671.632.641.641,0,0,0,.075.305c.026.129.064.406.1.654.215,1.537.617,4.4,1.812,6.222a5.375,5.375,0,0,0,3.378,2.6,3.6,3.6,0,0,0,.665.062,4.137,4.137,0,0,0,2.405-.825,4.957,4.957,0,0,0,.494-.407,24.737,24.737,0,0,1,1.366,2.486c.274.574.516,1.132.742,1.708.12.3.241.636.369,1.012A12.46,12.46,0,0,0,22.5,42.734l-3.423,2.759c-.005,0-.006.014-.011.019a.627.627,0,0,0-.225.477,27.44,27.44,0,1,0,54.88,0,.627.627,0,0,0-.294-.523c-.008-.008-.011-.022-.02-.027l-4.573-2.67a18.587,18.587,0,0,0-3.049-1.421c.186-.588.387-1.178.625-1.788s.483-1.18.736-1.709a24.268,24.268,0,0,1,1.368-2.484,4.749,4.749,0,0,0,.493.408h0a4.142,4.142,0,0,0,2.405.825,3.547,3.547,0,0,0,.665-.062,5.376,5.376,0,0,0,3.378-2.605c1.194-1.822,1.6-4.684,1.811-6.221.035-.25.074-.527.1-.656a.629.629,0,0,0,.075-.3.652.652,0,0,0-.671-.632ZM64.8,35.378a1.9,1.9,0,0,1-.259.573,11.563,11.563,0,0,0-2.812-3.617.637.637,0,1,0-.788,1,11.106,11.106,0,0,1,2.629,3.492,1.915,1.915,0,0,1-1.226.256,3.144,3.144,0,0,1-1.97-1.563,11.932,11.932,0,0,1-1.236-4.329,8.925,8.925,0,0,1,4.1,1.278C64.472,33.381,65.042,34.441,64.8,35.378ZM24.118,33c-.009.034-.03.069-.041.1a17.872,17.872,0,0,0-3.919-4.015.634.634,0,0,0-.826.028.641.641,0,0,0-.04.9.616.616,0,0,0,.118.1,16.973,16.973,0,0,1,3.935,4.146,3.724,3.724,0,0,1-.526.469,2.687,2.687,0,0,1-2.1.548,4.243,4.243,0,0,1-2.547-2.05c-1.037-1.584-1.428-4.365-1.616-5.7l-.013-.092a11.825,11.825,0,0,1,5.517,1.679c1.631,1.2,2.379,2.615,2.054,3.88ZM50.772,18.449c2.936-2.159,7.708-2.695,9.611-2.826-.028.186-.058.4-.091.633-.307,2.188-.946,6.74-2.671,9.374-1.347,2.05-2.908,3.264-4.513,3.51a4.839,4.839,0,0,1-3.54-.974,46.721,46.721,0,0,1,5.6-8.18l.006-.005s0,0,0,0l.029-.033A.631.631,0,0,0,54.383,19c-.008,0-.018,0-.026,0a29.028,29.028,0,0,0-6.711,7.029c-1.227-2.416-.088-5.218,3.127-7.586ZM35.788,25.273a19.135,19.135,0,0,1,4.534,6.094,3.609,3.609,0,0,1-2.568.662,5.452,5.452,0,0,1-3.455-2.7c-1.339-2.045-1.839-5.6-2.08-7.314-.017-.119-.032-.229-.047-.332,1.58.12,5.118.566,7.316,2.184,2.289,1.685,3.214,3.648,2.594,5.389-.193-.184-.386-.368-.578-.553-1.562-1.5-3.177-3.056-4.928-4.432a.637.637,0,1,0-.787,1Zm5.92,5.969c-.227-.415-.449-.818-.681-1.231.266.256.532.513.8.765.571.548,1.361,1.255,2.045,1.837-.192.417-.38.841-.564,1.277C42.74,32.995,42.066,31.895,41.709,31.241Zm2.317,4.26a.492.492,0,0,0,.017-.052c.374-.952.771-1.873,1.183-2.74a38.789,38.789,0,0,1,4.429-7.254A34.579,34.579,0,0,0,44.536,39.48a10.48,10.48,0,0,0-1.946.322C43.014,38.3,43.493,36.857,44.026,35.5ZM50.951,71.73A26.019,26.019,0,0,1,34.425,69.3c1.032-.995,2.638-2.833,2.166-4.265-.292-.887-1.248-1.387-2.84-1.486a6.136,6.136,0,0,1-5-2.707,4.792,4.792,0,0,1-.59-4.094c.305-.761,1.025-.836,2.472-.827,1.319.01,3.128.025,3.372-1.975a3.643,3.643,0,0,1,1.655-2.6,4.731,4.731,0,0,1,3.856-.587,26.126,26.126,0,0,0,5.518.921.494.494,0,0,0,.147-.011c.01,0,1.11-.205,1.6.438.364.475.709,1.819-1.07,5.482-1.463,3.012-1.689,5.079-.69,6.317,1.229,1.522,3.755.926,3.861.9a.652.652,0,0,0,.468-.771.475.475,0,0,1,.122-.431c.172-.159.956-.613,3.858.238.836.246,1.311.638,1.449,1.2C55.251,66.938,52.3,70.386,50.951,71.73Zm2.19-.5c1.457-1.709,3.387-4.448,2.879-6.5a3.01,3.01,0,0,0-2.328-2.116c-2.6-.765-4.276-.739-5.115.079a1.677,1.677,0,0,0-.486.948,2.43,2.43,0,0,1-2.078-.544c-.627-.782-.327-2.541.846-4.957,1.612-3.318,1.915-5.55.928-6.824a2.987,2.987,0,0,0-2.77-.918,25.617,25.617,0,0,1-5.16-.872,6.019,6.019,0,0,0-4.907.755,4.9,4.9,0,0,0-2.213,3.507c-.092.762-.529.863-2.1.854-1.262-.006-3-.024-3.667,1.628a6.028,6.028,0,0,0,.7,5.25,7.375,7.375,0,0,0,6,3.3c.963.061,1.6.289,1.708.612.221.669-1.015,2.2-2.138,3.225a26.171,26.171,0,0,1-13.1-22.034h6.373a3.28,3.28,0,0,0,2.231,2.738,2.464,2.464,0,0,0,.618.078,2.848,2.848,0,0,0,2.307-1.275,4.36,4.36,0,0,0,.678-1.54H52.917l.187.177c1.158,1.107,2.6,2.485,4.79,1.395a1.879,1.879,0,0,1,1.694-.015c1.517.673,3.117,3.082,3.891,5.859a11.074,11.074,0,0,1,.331,2.8c.055,1.978.117,3.853,3.434,4.8a26.361,26.361,0,0,1-14.1,9.587ZM27.827,46.627h3.2a3.028,3.028,0,0,1-.4.808,1.481,1.481,0,0,1-1.564.694,1.938,1.938,0,0,1-1.236-1.5Zm40.2,13.91c-2.854-.655-2.89-1.712-2.947-3.728a12.243,12.243,0,0,0-.377-3.111c-.734-2.636-2.442-5.723-4.6-6.681a3.172,3.172,0,0,0-2.781.04,2.048,2.048,0,0,1-2.518-.431H72.438a25.949,25.949,0,0,1-4.407,13.91Zm.164-16.667,2.539,1.482H21.289l2.017-1.626A11.269,11.269,0,0,1,34.424,42l7.05,2.74a.637.637,0,0,0,.462-1.188l-2.581-1,2.054-.984a9.233,9.233,0,0,1,3.726-.847,9.058,9.058,0,0,1,2.854.4l2.56.829-3.308.928a.637.637,0,1,0,.344,1.227l7.026-1.971a17.639,17.639,0,0,1,13.584,1.743Zm7.814-16.335c-.187,1.336-.578,4.115-1.615,5.7a4.244,4.244,0,0,1-2.548,2.051,2.69,2.69,0,0,1-2.1-.548h0a3.635,3.635,0,0,1-.523-.467,16.957,16.957,0,0,1,3.935-4.146.638.638,0,0,0,.284-.53v-.007a.636.636,0,0,0-1.033-.495,17.853,17.853,0,0,0-3.92,4.017c-.011-.035-.033-.073-.042-.106-.325-1.265.424-2.679,2.054-3.88a11.861,11.861,0,0,1,5.517-1.678c0,.03-.008.061-.013.092Z" transform="translate(-15.123 -14.309)" fill="#128477"/>
      </g>
    </g>
  </g>
</svg>
