<svg xmlns="http://www.w3.org/2000/svg" xmlns:xlink="http://www.w3.org/1999/xlink" width="430" height="300" viewBox="0 0 430 300">
  <defs>
    <clipPath id="clip-path">
      <rect id="Rectángulo_430590" data-name="Rectángulo 430590" width="430" height="300" rx="20" transform="translate(995.051 2565)" fill="#fff" stroke="#707070" stroke-width="1"/>
    </clipPath>
    <clipPath id="clip-path-2">
      <rect id="Rectángulo_430628" data-name="Rectángulo 430628" width="463.906" height="309.355" fill="none"/>
    </clipPath>
    <clipPath id="clip-path-3">
      <rect id="Rectángulo_430627" data-name="Rectángulo 430627" width="463.905" height="309.355" fill="none"/>
    </clipPath>
    <clipPath id="clip-path-4">
      <rect id="Rectángulo_430592" data-name="Rectángulo 430592" width="160.824" height="5.619" fill="none"/>
    </clipPath>
    <clipPath id="clip-path-5">
      <rect id="Rectángulo_430593" data-name="Rectángulo 430593" width="44.087" height="9.583" fill="none"/>
    </clipPath>
    <clipPath id="clip-path-6">
      <rect id="Rectángulo_430594" data-name="Rectángulo 430594" width="7.911" height="19.549" fill="none"/>
    </clipPath>
    <clipPath id="clip-path-7">
      <rect id="Rectángulo_430595" data-name="Rectángulo 430595" width="3.762" height="5.322" fill="none"/>
    </clipPath>
    <clipPath id="clip-path-8">
      <rect id="Rectángulo_430596" data-name="Rectángulo 430596" width="59.959" height="51.258" fill="none"/>
    </clipPath>
    <clipPath id="clip-path-9">
      <rect id="Rectángulo_430597" data-name="Rectángulo 430597" width="6.584" height="18.938" fill="none"/>
    </clipPath>
    <clipPath id="clip-path-10">
      <rect id="Rectángulo_430598" data-name="Rectángulo 430598" width="44.086" height="9.583" fill="none"/>
    </clipPath>
    <clipPath id="clip-path-11">
      <rect id="Rectángulo_430599" data-name="Rectángulo 430599" width="41.284" height="11.076" fill="none"/>
    </clipPath>
    <clipPath id="clip-path-12">
      <rect id="Rectángulo_430600" data-name="Rectángulo 430600" width="7.912" height="19.549" fill="none"/>
    </clipPath>
    <clipPath id="clip-path-13">
      <rect id="Rectángulo_430601" data-name="Rectángulo 430601" width="21.825" height="6.658" fill="none"/>
    </clipPath>
    <clipPath id="clip-path-14">
      <rect id="Rectángulo_430602" data-name="Rectángulo 430602" width="58.351" height="76.699" fill="none"/>
    </clipPath>
    <clipPath id="clip-path-15">
      <rect id="Rectángulo_430603" data-name="Rectángulo 430603" width="27.215" height="61.3" fill="none"/>
    </clipPath>
    <clipPath id="clip-path-16">
      <rect id="Rectángulo_430604" data-name="Rectángulo 430604" width="57.96" height="26.349" fill="none"/>
    </clipPath>
    <clipPath id="clip-path-17">
      <rect id="Rectángulo_430605" data-name="Rectángulo 430605" width="35.533" height="85.276" fill="none"/>
    </clipPath>
    <clipPath id="clip-path-18">
      <rect id="Rectángulo_430606" data-name="Rectángulo 430606" width="42.38" height="9.053" fill="none"/>
    </clipPath>
    <clipPath id="clip-path-19">
      <rect id="Rectángulo_430607" data-name="Rectángulo 430607" width="41.89" height="8.935" fill="none"/>
    </clipPath>
    <clipPath id="clip-path-20">
      <rect id="Rectángulo_430608" data-name="Rectángulo 430608" width="40.077" height="8.461" fill="none"/>
    </clipPath>
    <clipPath id="clip-path-25">
      <rect id="Rectángulo_430614" data-name="Rectángulo 430614" width="59.961" height="51.258" fill="none"/>
    </clipPath>
    <clipPath id="clip-path-30">
      <rect id="Rectángulo_430619" data-name="Rectángulo 430619" width="21.825" height="6.656" fill="none"/>
    </clipPath>
    <clipPath id="clip-path-33">
      <rect id="Rectángulo_430622" data-name="Rectángulo 430622" width="57.959" height="26.349" fill="none"/>
    </clipPath>
    <clipPath id="clip-path-34">
      <rect id="Rectángulo_430623" data-name="Rectángulo 430623" width="35.534" height="85.276" fill="none"/>
    </clipPath>
  </defs>
  <g id="Enmascarar_grupo_1098927" data-name="Enmascarar grupo 1098927" transform="translate(-995.051 -2565)" clip-path="url(#clip-path)">
    <g id="Grupo_1164218" data-name="Grupo 1164218" transform="translate(986.037 2557.804)">
      <g id="Grupo_1164329" data-name="Grupo 1164329" clip-path="url(#clip-path-2)">
        <rect id="Rectángulo_430591" data-name="Rectángulo 430591" width="463.867" height="309.245" transform="translate(0 0.11)" fill="#eddcc3"/>
        <g id="Grupo_1164328" data-name="Grupo 1164328">
          <g id="Grupo_1164327" data-name="Grupo 1164327" clip-path="url(#clip-path-3)">
            <g id="Grupo_1164227" data-name="Grupo 1164227" transform="translate(143.696 275.538)" opacity="0.18">
              <g id="Grupo_1164226" data-name="Grupo 1164226">
                <g id="Grupo_1164225" data-name="Grupo 1164225" clip-path="url(#clip-path-4)">
                  <path id="Trazado_935472" data-name="Trazado 935472" d="M929.334,1784.271c0,1.552,37.944,3.353,81.663,3.353s79.161-1.258,79.161-2.81S1054.716,1782,1011,1782s-81.663.714-81.663,2.266" transform="translate(-929.334 -1782.005)" fill="#32323f"/>
                </g>
              </g>
            </g>
            <path id="Trazado_935473" data-name="Trazado 935473" d="M1197.7,972.66c-19.023-7.7-44.366-5.819-60.136-5.819s-55.5,3.692-55.255,6.445,13.391,27.909,29.16,27.909,73.589-13.7,73.589-13.7Z" transform="translate(-914.956 -817.175)" fill="#db9923"/>
            <path id="Trazado_935474" data-name="Trazado 935474" d="M1817.228,694.05a2.759,2.759,0,0,0,.248,1.307,1.444,1.444,0,0,0,1.366.685c1.4.027,1.569-.669,3.417-.471s5.295,2.383,6.492,2.33c1.089-.048,27.789,4.044,32.813,3.064a2.641,2.641,0,0,0,.438-.119c.228-.088.355-.2.371-.335.019-.17.036-.425.051-.75.152-3.389.034-14.477-.776-18.039-.162-.711-.351-1.122-.572-1.113a7.534,7.534,0,0,0-1.054.188c-5.319,1.2-26.835,7.7-30.647,8.309-4.036.645-5.7,3.306-6.843,3.434-1.62.18-1.482-.43-3.857-.289a1.615,1.615,0,0,0-1.445,1.8" transform="translate(-1536.244 -575.372)" fill="#754942"/>
            <g id="Grupo_1164230" data-name="Grupo 1164230" transform="translate(281.232 116.162)" opacity="0.16">
              <g id="Grupo_1164229" data-name="Grupo 1164229">
                <g id="Grupo_1164228" data-name="Grupo 1164228" clip-path="url(#clip-path-5)">
                  <path id="Trazado_935475" data-name="Trazado 935475" d="M1818.833,755.081a1.444,1.444,0,0,0,1.366.685c1.4.027,1.569-.669,3.417-.471s5.295,2.383,6.492,2.331c1.089-.048,27.789,4.044,32.813,3.064l-.054-.092-.687-1.18c-1.339-2.3-2.6-4.466-3.493-5.987l-1.27-2.172a2.782,2.782,0,0,1-1.3.844c-5.753,2.284-27.281,2.77-31.13,2.264a10.918,10.918,0,0,0-6.156.715" transform="translate(-1818.832 -751.258)" fill="#1f1f39"/>
                </g>
              </g>
            </g>
            <path id="Trazado_935476" data-name="Trazado 935476" d="M2059.447,691.076c.209,4.042,2.024,7.28,4.37,8.638a4.812,4.812,0,0,0,2.805.679c2.981-.232,5.174-4.785,4.885-10.342s-2.474-10.109-5.462-9.991a3.944,3.944,0,0,0-1.272.272h0l0,0a5.9,5.9,0,0,0-1.915,1.261,12.694,12.694,0,0,0-3.407,9.482" transform="translate(-1740.996 -574.904)" fill="#3b3b4d"/>
            <path id="Trazado_935477" data-name="Trazado 935477" d="M2074.1,696.982c.233,4.509,2.425,9.012,4.847,8.886s4.16-4.832,3.926-9.341-2.043-8.974-4.466-8.848-4.542,4.794-4.308,9.3" transform="translate(-1753.384 -581.347)" fill="#fff"/>
            <g id="Grupo_1164233" data-name="Grupo 1164233" transform="translate(318.434 105.426)" opacity="0.26">
              <g id="Grupo_1164232" data-name="Grupo 1164232">
                <g id="Grupo_1164231" data-name="Grupo 1164231" clip-path="url(#clip-path-6)">
                  <path id="Trazado_935478" data-name="Trazado 935478" d="M2059.447,692.574c.209,4.042,2.024,7.28,4.37,8.638,2.291.2,4.843.333,2.744-.287-3.425-1.013-3.406-6.89-3.482-9.2s1.092-5.68,3.319-8.972l-1.625-.924h0l0,0c-.06.039-.931.6-1.915,1.261a12.694,12.694,0,0,0-3.407,9.482" transform="translate(-2059.43 -681.829)" fill="#3d3d59"/>
                </g>
              </g>
            </g>
            <path id="Trazado_935479" data-name="Trazado 935479" d="M1918,778.378c.831-6.87,4.069-3.415,5.591-7.274.249-.633-2.793-5.018-5.413-3.724s-4.653,5.219-5.014,7.227,2,3.1,2.707,3.094a7.115,7.115,0,0,1,2.129.677" transform="translate(-1617.315 -648.526)" fill="#efaea6"/>
            <path id="Trazado_935480" data-name="Trazado 935480" d="M1655.087,786.726l4.7,2.6s4.6,2.461,4.053,1.082c-.727-1.842-.124-3.313-.279-4.439a8.659,8.659,0,0,1,.194-2.614,27.492,27.492,0,0,1,.858-3.228l.2-.374-.145-1.308-.425-3.829s-3.874.6-4.807,2.758c-.852,1.972-3.857,7.041-4.354,9.35" transform="translate(-1399.173 -654.844)" fill="#efaea6"/>
            <g id="Grupo_1164236" data-name="Grupo 1164236" transform="translate(261.884 123.189)" opacity="0.14">
              <g id="Grupo_1164235" data-name="Grupo 1164235">
                <g id="Grupo_1164234" data-name="Grupo 1164234" clip-path="url(#clip-path-7)">
                  <path id="Trazado_935481" data-name="Trazado 935481" d="M1696.4,802.03a27.489,27.489,0,0,1,.857-3.228l.2-.374-.145-1.308-.494-.413a23.7,23.7,0,0,0-2.728,1.3c-.894.624-.327,3.869,2.308,4.028" transform="translate(-1693.697 -796.707)" fill="#1f1f39"/>
                </g>
              </g>
            </g>
            <path id="Trazado_935482" data-name="Trazado 935482" d="M1521.759,815.919c2.293.234,1.109,3.836,3.125,4.825,1.064.522,1.016-.068,1.74-.387.446-.2.888-.439,1.183.294,6,14.927-15.5,38.161-14.944,40.591.454,1.987-9.589,1.984-14.511-1.539-6.75-4.832-2.992-13.05-2.145-14.569s16.4-26.88,16.4-26.88a43.981,43.981,0,0,0,9.156-2.335" transform="translate(-1263.333 -689.76)" fill="#fff"/>
            <path id="Trazado_935483" data-name="Trazado 935483" d="M1624.887,816.8c-.308.754-7.133,23.12-16,22.468-3.92-.288-17.062-2.774-19.669-1.966-1.984.615-4.883,3.77-5.384,5.917-.4,1.728-.74,3.414-1.073,4.634-.853,3.133-3.949,14.4-6.18,15.89-3,2-10.6,1.977-11.454.149-1.473-3.137,7.971-10.406,10.937-20.585,2.293-7.87,7.474-10.99,9.157-17.577a31.413,31.413,0,0,1,2.245-6.706c9.763,9.128,17.9,10.552,20.827,10.647,3.753.122,7.605-15.2,9.175-15.659.618-.182,8.151.982,7.414,2.787" transform="translate(-1322.997 -688.134)" fill="#0267a4"/>
            <g id="Grupo_1164239" data-name="Grupo 1164239" transform="translate(241.981 125.863)" opacity="0.11">
              <g id="Grupo_1164238" data-name="Grupo 1164238">
                <g id="Grupo_1164237" data-name="Grupo 1164237" clip-path="url(#clip-path-8)">
                  <path id="Trazado_935484" data-name="Trazado 935484" d="M1624.887,816.8c-.308.754-7.133,23.12-16,22.468-3.92-.288-17.062-2.774-19.669-1.966-1.984.615-4.883,3.77-5.384,5.917-.4,1.728-.74,3.414-1.073,4.634-.853,3.133-3.949,14.4-6.18,15.89-3,2-10.6,1.977-11.454.149-1.473-3.137,7.971-10.406,10.937-20.585,2.293-7.87,7.474-10.99,9.157-17.577a31.413,31.413,0,0,1,2.245-6.706c9.763,9.128,17.9,10.552,20.827,10.647,3.753.122,7.605-15.2,9.175-15.659.618-.182,8.151.982,7.414,2.787" transform="translate(-1564.978 -813.997)" fill="#1f1f39"/>
                </g>
              </g>
            </g>
            <path id="Trazado_935485" data-name="Trazado 935485" d="M1424.029,856.824c-.517,4.276,10.716,3.872,14.831,1.873,3.411-1.658,2.316-5.972,6.468-11.337a92.6,92.6,0,0,0,7.6-11.342c.2-.383.4-.759.574-1.122,1.486-3.055,2.916-6.426,4.18-9.618.575-1.451,1.117-2.866,1.612-4.2.318-.854.617-1.675.9-2.449,1.028-2.865,1.765-5.1,2.068-6.088a15.693,15.693,0,0,0-11.338,1,8.948,8.948,0,0,0-2.616,1.7,26.809,26.809,0,0,0-5.388,7.4c-2.093,4.642-3.379,8.108-4.548,10.941-1.288,3.122-3.388,5.7-5.5,10.678-1.895,4.474-8.568,10.33-8.837,12.559" transform="translate(-1203.827 -686.385)" fill="#0069a8"/>
            <g id="Grupo_1164242" data-name="Grupo 1164242" transform="translate(247.266 133.821)" opacity="0.18">
              <g id="Grupo_1164241" data-name="Grupo 1164241">
                <g id="Grupo_1164240" data-name="Grupo 1164240" clip-path="url(#clip-path-9)">
                  <path id="Trazado_935486" data-name="Trazado 935486" d="M1600.643,865.471c-.511,1.239-1.062,16.269-1.48,18.937.2-.383,2.226-3.884,2.4-4.248,1.486-3.055,2.916-6.426,4.18-9.617Z" transform="translate(-1599.162 -865.471)" fill="#1f1f39"/>
                </g>
              </g>
            </g>
            <path id="Trazado_935487" data-name="Trazado 935487" d="M1691.973,753.557c.567,1.983,3.512,5.393,2.148,5.67s1.2,4.188-.239,4.535c-3.491.84-7.973-.549-8.763-2.152s-1.482-6.392-1.482-6.392Z" transform="translate(-1423.309 -637.04)" fill="#efaea6"/>
            <path id="Trazado_935488" data-name="Trazado 935488" d="M1672.367,732.379c1.133-.1,1.22.156,1.922-.379s-.852-1.329.549-1.867,2.972-.955,2.8-2.642c-.255-2.443-2.306-1.631-3.564-1.083-.81.353-1.382-1.44-3.055-1.013-1.312.335-1,1.076-2.162,1.427-.7.212-2.323-.675-3.265.412-1.747,2.016.36,3.617-1.019,5.668-1.609,2.393,3.862,5.664,4.3,5.042.509-.725-.821-2.588-.282-3.2.813-.923,1.094-.132,2.045.458,1.016.63,2.608.353,1.284-1s-.572-1.738.454-1.827" transform="translate(-1406.939 -613.176)" fill="#1f1f39"/>
            <path id="Trazado_935489" data-name="Trazado 935489" d="M1736.024,694.849a2.757,2.757,0,0,0,.248,1.307,1.444,1.444,0,0,0,1.366.685c1.4.026,1.569-.669,3.417-.472s5.295,2.384,6.491,2.33c1.088-.047,27.789,4.044,32.813,3.064a2.578,2.578,0,0,0,.438-.119c.227-.087.355-.2.37-.334.019-.171.037-.425.051-.751.152-3.389.035-14.476-.777-18.038-.161-.711-.351-1.121-.571-1.113a7.559,7.559,0,0,0-1.053.187c-5.319,1.2-26.835,7.7-30.647,8.31-4.035.645-5.7,3.3-6.844,3.434-1.619.18-1.481-.43-3.857-.29a1.365,1.365,0,0,0-1.195.723,2.276,2.276,0,0,0-.25,1.076" transform="translate(-1467.596 -576.048)" fill="#754942"/>
            <g id="Grupo_1164245" data-name="Grupo 1164245" transform="translate(268.676 116.284)" opacity="0.16">
              <g id="Grupo_1164244" data-name="Grupo 1164244">
                <g id="Grupo_1164243" data-name="Grupo 1164243" clip-path="url(#clip-path-10)">
                  <path id="Trazado_935490" data-name="Trazado 935490" d="M1737.629,755.876a1.444,1.444,0,0,0,1.366.685c1.4.027,1.569-.669,3.417-.471s5.3,2.383,6.492,2.331c1.089-.049,27.789,4.044,32.813,3.064l-.054-.092-.687-1.18c-1.339-2.3-2.6-4.466-3.493-5.987l-1.27-2.172c-.2.3,1.069,3.829.42,4.087-5.753,2.284-29-.473-32.847-.979a10.918,10.918,0,0,0-6.156.715" transform="translate(-1737.629 -752.052)" fill="#1f1f39"/>
                </g>
              </g>
            </g>
            <g id="Grupo_1164248" data-name="Grupo 1164248" transform="translate(268.428 107.824)" opacity="0.18">
              <g id="Grupo_1164247" data-name="Grupo 1164247">
                <g id="Grupo_1164246" data-name="Grupo 1164246" clip-path="url(#clip-path-11)">
                  <path id="Trazado_935491" data-name="Trazado 935491" d="M1736.024,708.316c.947.985,35.3-5.749,38.96-6.388l2.323-4.589s-33.866,9.643-35.318,9.933a21.821,21.821,0,0,1-5.171,0,5.248,5.248,0,0,0-.545-.031,2.276,2.276,0,0,0-.25,1.076" transform="translate(-1736.023 -697.339)" fill="#fff"/>
                </g>
              </g>
            </g>
            <path id="Trazado_935492" data-name="Trazado 935492" d="M1978.242,691.871c.21,4.042,2.024,7.28,4.37,8.638a4.812,4.812,0,0,0,2.805.679c2.981-.232,5.174-4.785,4.886-10.342s-2.474-10.11-5.462-9.992a3.944,3.944,0,0,0-1.272.272h0l0,0a5.9,5.9,0,0,0-1.915,1.261,12.7,12.7,0,0,0-3.408,9.482" transform="translate(-1672.347 -575.576)" fill="#3b3b4d"/>
            <path id="Trazado_935493" data-name="Trazado 935493" d="M1992.9,697.778c.234,4.509,2.425,9.012,4.848,8.886s4.16-4.832,3.926-9.341-2.043-8.974-4.466-8.848-4.542,4.794-4.308,9.3" transform="translate(-1684.735 -582.019)" fill="#fff"/>
            <g id="Grupo_1164251" data-name="Grupo 1164251" transform="translate(305.877 105.548)" opacity="0.26">
              <g id="Grupo_1164250" data-name="Grupo 1164250">
                <g id="Grupo_1164249" data-name="Grupo 1164249" clip-path="url(#clip-path-12)">
                  <path id="Trazado_935494" data-name="Trazado 935494" d="M1978.242,693.369c.21,4.042,2.024,7.28,4.37,8.638,2.291.2,4.843.333,2.744-.287-3.425-1.013-3.406-6.889-3.482-9.2s1.092-5.68,3.319-8.972l-1.625-.924h0l0,0c-.06.039-.931.6-1.915,1.261a12.7,12.7,0,0,0-3.408,9.482" transform="translate(-1978.224 -682.623)" fill="#3d3d59"/>
                </g>
              </g>
            </g>
            <path id="Trazado_935495" data-name="Trazado 935495" d="M1801.654,763.861c.242-.807,3.573-2.1,3.41-2.734-.3-1.177-2.015-.166-2.265-2.181-.194-1.57,2.972-3.561,1.189-4.367-4.172-1.887-6.577,1.192-6.161,5.064.323,3.009-1.62,4.759-1.942,7.3s5.271.681,5.271.681a17.081,17.081,0,0,1,.5-3.758" transform="translate(-1518.189 -637.421)" fill="#efaea6"/>
            <path id="Trazado_935496" data-name="Trazado 935496" d="M1601.839,816.767c8.578,9.847,15.655,36.437,22.135-.17.156-.88,7.651-1.108,7.474.254-7.625,58.827-34.365,12.685-38.139,8.35-1.6-1.837.5-9.4,3.8-8.85a21.253,21.253,0,0,0,4.735.416" transform="translate(-1346.484 -689.73)" fill="#0069a8"/>
            <g id="Grupo_1164254" data-name="Grupo 1164254" transform="translate(240.014 129.969)" opacity="0.18">
              <g id="Grupo_1164253" data-name="Grupo 1164253">
                <g id="Grupo_1164252" data-name="Grupo 1164252" clip-path="url(#clip-path-13)">
                  <path id="Trazado_935497" data-name="Trazado 935497" d="M1573.187,841.92c-.208-.205-3.5,4.058-7.045,5a7.774,7.774,0,0,1-3.014.243c-2.972-.391-10.864-2.146-10.864-2.146a14.611,14.611,0,0,1,2.979-3.521,27.522,27.522,0,0,0,8.122,2.639,11.318,11.318,0,0,0,3.378-.27,18.834,18.834,0,0,0,5.262-2.186c.717-.419.963-1.218,1.708-1.108.989.146-.257,1.612-.526,1.349" transform="translate(-1552.262 -840.56)" fill="#1f1f39"/>
                </g>
              </g>
            </g>
            <path id="Trazado_935498" data-name="Trazado 935498" d="M1406.336,834.289a1.092,1.092,0,0,0-1.122-1.13c-.661-.018-.732.246-1.314.687a13.446,13.446,0,0,1-7.271,3.045c-2.943.123-9.354-4.158-13.74-3.508s-5.96,4.44-12.267,5.018-12.842-2.506-14.7-2.313-3,.522-3.007,1.255a3.621,3.621,0,0,0,2.093,2.6c1.259.6,12.6,2.137,15.637,1.933,4.955-.333,9.473-4.483,12.656-4.553a25.964,25.964,0,0,1,5.34.809,47.245,47.245,0,0,0,8.1,1.419c4.152.045,7.84-4.548,8.1-4.347a1.126,1.126,0,0,0,1.041.3c.371-.067.453-.8.454-1.214" transform="translate(-1143.72 -704.333)" fill="#f4ad00"/>
            <path id="Trazado_935499" data-name="Trazado 935499" d="M1197.7,1005.581c-2.722,33.936-27.917,58.466-35.625,75.052,0,0,0,0,0,.005a19.747,19.747,0,0,0-2.248,9.33c.006.1.006.2.007.293v0c.025,2.541-1.629,4.515-4.242,5.918l-.009.005a19.525,19.525,0,0,1-4.7,1.709c-.5.121-1.016.226-1.54.32-.6.113-1.224.2-1.865.276h0l-.015,0-.127.014a36.812,36.812,0,0,1-14.98-1.321q-.349-.113-.687-.234c-.085-.034-.166-.063-.246-.09h0l-.006,0a20,20,0,0,1-2.759-1.244l-.24-.135q-.237-.136-.466-.278l-.226-.144c-.075-.049-.149-.1-.222-.146l-.049-.032c-.122-.083-.24-.166-.357-.25l-.025-.019c-.069-.051-.14-.1-.207-.155l-.158-.122c-.083-.065-.164-.131-.243-.2-.109-.09-.217-.183-.322-.276l-.031-.029q-.07-.062-.136-.124l-.024-.023c-.039-.035-.076-.072-.113-.108q-.236-.227-.45-.464a7.378,7.378,0,0,1-2.008-4.6,8.435,8.435,0,0,0-.367-1.982s0,0,0-.005a20.92,20.92,0,0,0-2.759-5.394s0,0,0,0c-2.54-3.837-6.413-8.321-10.724-13.625-11.194-13.743-25.491-33.9-27.215-61.425a225.166,225.166,0,0,0,56.005,8.51c35.862.664,59.385-9.011,59.385-9.011" transform="translate(-914.962 -850.096)" fill="#f2b233"/>
            <g id="Grupo_1164257" data-name="Grupo 1164257" transform="translate(198.15 174.295)" opacity="0.75">
              <g id="Grupo_1164256" data-name="Grupo 1164256">
                <g id="Grupo_1164255" data-name="Grupo 1164255" clip-path="url(#clip-path-14)">
                  <path id="Trazado_935500" data-name="Trazado 935500" d="M1339.6,1133.744a6.6,6.6,0,0,0-3.182-4.316,9.436,9.436,0,0,0-6.529-.67c-1.929.379-3.6,1.856-5.12,4.513a39.406,39.406,0,0,0-3.378,8.828q-.582,2.117-1.125,4.584c-.65-.017-1.3-.054-1.942-.108a27.014,27.014,0,0,1-5.095-.908q.151-.143.3-.291a11.405,11.405,0,0,0,3.217-8.785c-.286-6.159-4.38-9.364-8.3-9.364h-.057a6.9,6.9,0,0,0-5,2.167,9,9,0,0,0-2.265,6.049,11.715,11.715,0,0,0,4.788,10.011q.31.237.632.459a17.151,17.151,0,0,1-4.9.5,41.752,41.752,0,0,1-4.265-.351c-.248-3.571-.374-6.232-.316-7.457a11.563,11.563,0,0,0-1.433-6.33,8.222,8.222,0,0,0-4.12-3.678,6.144,6.144,0,0,0-7.186,2.2c-3.564,4.474-3.092,8.054-2.069,10.27,1.689,3.654,6.109,6.318,12.3,7.576.669,8.873,1.881,21.622,2.963,32.506.2,2.042.4,4.019.592,5.892.2,1.957.386,3.8.56,5.486q.1.974.192,1.875.044.427.086.835c.24,2.315.436,4.2.571,5.487.106,1,.174,1.645.2,1.855a1.5,1.5,0,0,0,1.494,1.347,1.579,1.579,0,0,0,.16-.009,1.507,1.507,0,0,0,1.338-1.655c-.005-.047-.051-.476-.129-1.228-.118-1.117-.31-2.945-.552-5.29-.007-.066-.013-.132-.021-.2-.087-.842-.181-1.748-.278-2.709-.172-1.676-.361-3.52-.56-5.486-.2-2.015-.419-4.159-.641-6.382-1.058-10.634-2.243-23.066-2.92-31.84q1.888.226,3.94.294a18.238,18.238,0,0,0,8.564-1.629,29.03,29.03,0,0,0,9.534,1.879c-.96,4.92-1.815,10.7-2.553,17.295-.527,4.694-.947,9.383-1.28,13.737-.219,2.869-.4,5.592-.55,8.076-.118,1.966-.216,3.781-.3,5.4-.048.962-.089,1.854-.126,2.668,0,.009,0,.017,0,.026-.145,3.274-.2,5.261-.2,5.32a.39.39,0,0,0,0,.063,1.5,1.5,0,0,0,1.464,1.481h.041a1.5,1.5,0,0,0,1.468-1.18,1.379,1.379,0,0,0,.035-.285c0-.056.054-1.966.192-5.121q.018-.389.037-.8.04-.879.088-1.865c.081-1.615.177-3.431.3-5.4.153-2.551.34-5.359.567-8.321.329-4.278.743-8.876,1.259-13.477.76-6.773,1.64-12.668,2.629-17.62a35.9,35.9,0,0,0,8.769-1.443c6.043-1.837,9.383-9.425,8.118-14.481m-49.124,10.542c-2.773-1.163-4.67-2.713-5.488-4.482-.972-2.1-.4-4.5,1.691-7.134a3.42,3.42,0,0,1,2.662-1.465,3.133,3.133,0,0,1,1.108.211c1.866.7,3.791,3.208,3.607,7.048-.058,1.217.051,3.712.273,7.045a24.187,24.187,0,0,1-3.853-1.222m19.484.14a13.458,13.458,0,0,1-2.217-1.361,8.7,8.7,0,0,1-3.609-7.531c.118-3.887,2.38-5.283,4.279-5.3h.032a4.785,4.785,0,0,1,3.4,1.517,7.528,7.528,0,0,1,1.89,4.977,8.475,8.475,0,0,1-2.354,6.533,8.836,8.836,0,0,1-1.421,1.163m20.645.92a32.133,32.133,0,0,1-7.245,1.279q.453-1.989.932-3.733c2.523-9.166,4.953-10.94,6.177-11.181a10.3,10.3,0,0,1,1.98-.21c1.862,0,3.653.662,4.231,2.973.923,3.7-1.751,9.557-6.075,10.872" transform="translate(-1281.512 -1127.227)" fill="#fff"/>
                </g>
              </g>
            </g>
            <g id="Grupo_1164260" data-name="Grupo 1164260" transform="translate(167.349 156.111)" opacity="0.19">
              <g id="Grupo_1164259" data-name="Grupo 1164259">
                <g id="Grupo_1164258" data-name="Grupo 1164258" clip-path="url(#clip-path-15)">
                  <path id="Trazado_935501" data-name="Trazado 935501" d="M1109.527,1070.928c-11.194-13.743-25.49-33.77-27.215-61.3l13.641,3.254c-1.411,18.371,4.51,33.583,13.573,58.046" transform="translate(-1082.312 -1009.628)" fill="#ea4f26"/>
                </g>
              </g>
            </g>
            <path id="Trazado_935502" data-name="Trazado 935502" d="M1027.12,346.279s-.838,1.339-2.357,3.632c-4.9,7.386-16.894,24.652-30.81,38.816-14.017,14.267-49.479,37.345-49.479,37.345q-1.628-1.487-3.23-3.1c-20.178-20.385-33.772-55.1-9.03-81.565q.279-.305.584-.606c24.739-25.888,62.131-27.675,89.769.423.378.383.748.769,1.115,1.155q1.811,1.921,3.437,3.905" transform="translate(-776.793 -271.163)" fill="#f2b233"/>
            <g id="Grupo_1164263" data-name="Grupo 1164263" transform="translate(178.383 59.307)" opacity="0.65">
              <g id="Grupo_1164262" data-name="Grupo 1164262">
                <g id="Grupo_1164261" data-name="Grupo 1164261" clip-path="url(#clip-path-16)">
                  <path id="Trazado_935503" data-name="Trazado 935503" d="M1167.466,383.886c-.6.171-1.362.339-2.206.517s-1.777.372-2.764.62a26.931,26.931,0,0,0-3.118.968,18.149,18.149,0,0,0-3.3,1.651l-.034.022a5.166,5.166,0,1,0,5.579,8.7l.073-.048a11.309,11.309,0,0,1,3.345-1.331c.721-.189,1.515-.365,2.391-.559s1.835-.406,2.932-.73a5.113,5.113,0,0,0-2.857-9.819Z" transform="translate(-1153.669 -383.657)" fill="#fff"/>
                  <path id="Trazado_935504" data-name="Trazado 935504" d="M1345.62,401.708a58.715,58.715,0,0,0-5.154-5.98,46.179,46.179,0,0,0-6.162-5.228,43.737,43.737,0,0,0-7.052-4.042,50.955,50.955,0,0,0-7.5-2.713l-.007,0a5.006,5.006,0,0,0-2.719,9.636,36.479,36.479,0,0,1,11.424,5.376,41.218,41.218,0,0,1,8.978,9.078l.009.012a5.113,5.113,0,0,0,8.206-6.1Z" transform="translate(-1288.695 -383.557)" fill="#fff"/>
                </g>
              </g>
            </g>
            <g id="Grupo_1164266" data-name="Grupo 1164266" transform="translate(142.078 69.633)" opacity="0.19">
              <g id="Grupo_1164265" data-name="Grupo 1164265">
                <g id="Grupo_1164264" data-name="Grupo 1164264" clip-path="url(#clip-path-17)">
                  <path id="Trazado_935505" data-name="Trazado 935505" d="M932.8,450.342c1.972,39.606,9.2,62.729,21.607,77.717l-9.931,7.558q-1.63-1.487-3.232-3.1c-20.177-20.385-33.771-55.1-9.03-81.565.187-.2.382-.406.586-.606" transform="translate(-918.871 -450.342)" fill="#ea4f26"/>
                </g>
              </g>
            </g>
            <path id="Trazado_935506" data-name="Trazado 935506" d="M1055.308,968.919a7.341,7.341,0,1,1-7.338-7.522,7.432,7.432,0,0,1,7.338,7.522" transform="translate(-879.726 -812.743)" fill="#cc820a"/>
            <path id="Trazado_935507" data-name="Trazado 935507" d="M1068.294,985.208a4.433,4.433,0,1,1-4.432-4.542,4.488,4.488,0,0,1,4.432,4.542" transform="translate(-895.619 -829.033)" fill="#f4c83d"/>
            <path id="Trazado_935508" data-name="Trazado 935508" d="M1324.231,1506c.012.716.035,1.446.06,2.188.087,2.369.236,4.813.4,7.024.055.756.114,1.485.169,2.176.277,3.41.541,5.858.541,5.858,0,.419.013.836.04,1.248a20.034,20.034,0,0,0,11.609,17c.4.184.809.355,1.222.512a19.676,19.676,0,0,0,7.012,1.275l1.429,0a19.683,19.683,0,0,0,10.483-3.027,20.107,20.107,0,0,0,8.89-12.595,19.8,19.8,0,0,0,.374-2.272,20.582,20.582,0,0,0,.117-2.193s.014-.256.036-.716c.036-.709.093-1.91.157-3.415.073-1.694.154-3.774.225-5.979.036-1.167.069-2.368.095-3.568.047-2.111.073-4.208.061-6.084-.007-1.2-.032-2.3-.074-3.265a9.767,9.767,0,0,0-.511-3.519c-1.319-1.762-38.534-1.789-41.178.053-1,.694-1.241,4.645-1.155,9.3" transform="translate(-1119.462 -1264.111)" fill="#575759"/>
            <g id="Grupo_1164269" data-name="Grupo 1164269" transform="translate(205.066 240.976)" opacity="0.6">
              <g id="Grupo_1164268" data-name="Grupo 1164268">
                <g id="Grupo_1164267" data-name="Grupo 1164267" clip-path="url(#clip-path-18)">
                  <path id="Trazado_935509" data-name="Trazado 935509" d="M1326.365,1567.536c6.187-1.706,36.533-5.973,42.253-6.877-.055-.757-.113-1.486-.169-2.176l-42.135,4.3a28.848,28.848,0,0,0,.051,4.751" transform="translate(-1326.238 -1558.483)" fill="#2c2c42"/>
                </g>
              </g>
            </g>
            <g id="Grupo_1164272" data-name="Grupo 1164272" transform="translate(205.45 251.456)" opacity="0.6">
              <g id="Grupo_1164271" data-name="Grupo 1164271">
                <g id="Grupo_1164270" data-name="Grupo 1164270" clip-path="url(#clip-path-19)">
                  <path id="Trazado_935510" data-name="Trazado 935510" d="M1329.407,1635.191c8.164-1.752,35.964-5.929,41.2-6.771a19.823,19.823,0,0,0-.249-2.164l-41.639,3.856a25.075,25.075,0,0,0,.686,5.079" transform="translate(-1328.718 -1626.256)" fill="#2c2c42"/>
                </g>
              </g>
            </g>
            <path id="Trazado_935511" data-name="Trazado 935511" d="M1357.2,1530.923l.064.565a2.871,2.871,0,0,1-2.549,3.15l-41.372,4.807a2.851,2.851,0,0,1-3.187-2.483l-.064-.565a2.871,2.871,0,0,1,2.548-3.15l41.372-4.807a2.851,2.851,0,0,1,3.186,2.483" transform="translate(-1107.508 -1292.092)" fill="#aaaaaf"/>
            <path id="Trazado_935512" data-name="Trazado 935512" d="M1360.043,1599.1l.064.564a2.856,2.856,0,0,1-2.519,3.146l-40.956,4.762a2.836,2.836,0,0,1-3.158-2.486l-.064-.565a2.856,2.856,0,0,1,2.519-3.146l40.956-4.762a2.836,2.836,0,0,1,3.158,2.486" transform="translate(-1110.312 -1349.723)" fill="#aaaaaf"/>
            <g id="Grupo_1164275" data-name="Grupo 1164275" transform="translate(206.92 261.273)" opacity="0.6">
              <g id="Grupo_1164274" data-name="Grupo 1164274">
                <g id="Grupo_1164273" data-name="Grupo 1164273" clip-path="url(#clip-path-20)">
                  <path id="Trazado_935513" data-name="Trazado 935513" d="M1338.231,1693.839a20.034,20.034,0,0,0,2.192,4.37c9.389-1.659,30.945-5.276,37.511-6.19a19.811,19.811,0,0,0,.374-2.272Z" transform="translate(-1338.231 -1689.747)" fill="#2c2c42"/>
                </g>
              </g>
            </g>
            <path id="Trazado_935514" data-name="Trazado 935514" d="M1371.423,1667.5l.064.565a2.771,2.771,0,0,1-2.344,3.126l-38.435,4.473a2.752,2.752,0,0,1-2.983-2.506l-.064-.564a2.771,2.771,0,0,1,2.345-3.126l38.435-4.473a2.751,2.751,0,0,1,2.983,2.506" transform="translate(-1122.358 -1407.53)" fill="#aaaaaf"/>
            <path id="Trazado_935515" data-name="Trazado 935515" d="M496.53,480.722c4.242,0,12.959,7.524.5,8.73s-31.116.651-38.667.676c-12.324.041-15.382-.463-15.283-5.5.057-2.914,1.63-4.8,8.127-5.566,6.759-.8,3.306-8.312,11.556-8.084,7.027.194,7.744,10.033,14.174,7.621s5.083,4.16,9.786,5.365c5.168,1.325,5.566-3.245,9.806-3.245" transform="translate(-374.569 -398.151)" fill="#fff"/>
            <path id="Trazado_935516" data-name="Trazado 935516" d="M2004.265,1385.97a67.724,67.724,0,0,1-19.763-1.633,4.7,4.7,0,0,1-2.773-1.385,3.776,3.776,0,0,1,.394-4.658,5.149,5.149,0,0,1,4.37-1.395,7.3,7.3,0,0,0,2.985.1c1.2-.382,2-1.592,2.808-2.645s1.9-2.095,3.144-1.93a7.5,7.5,0,0,1,2.5,1.377,1.783,1.783,0,0,0,2.51-.355c1.017-1.9-.411-7.123,4.831-7.123,7.567,0,6.331,5.253,7.242,6.368,1.381,1.69,3.839,1.318,5.839.746s4.382-1.115,5.925.4c1.338,1.31,1.476,3.713,2.9,4.91,1.515,1.275,3.666.595,5.5.022s4.2-.783,5.266.957a3.852,3.852,0,0,1-1.042,4.645,7.632,7.632,0,0,1-4.541,1.436c-10.365.69-19.776-.383-28.09.171" transform="translate(-1674.772 -1155.056)" fill="#fff"/>
            <path id="Trazado_935517" data-name="Trazado 935517" d="M1297.751,582.044c5.386-.773,6.155-3,7.154-9.884.7,6.536,1.589,9.014,7.064,9.76-4.776,1.864-6.455,2.54-7.307,10.095-1.177-7.651-2.226-8.328-6.912-9.97" transform="translate(-1097.089 -483.691)" fill="#fff"/>
            <path id="Trazado_935518" data-name="Trazado 935518" d="M1868.391,1076.865c5.386-.773,6.155-3,7.154-9.884.7,6.536,1.589,9.014,7.064,9.76-4.776,1.864-6.455,2.54-7.307,10.095-1.177-7.651-2.226-8.328-6.912-9.97" transform="translate(-1579.496 -902.002)" fill="#fff"/>
            <path id="Trazado_935519" data-name="Trazado 935519" d="M1625.512,480.442c6.557-.941,7.494-3.647,8.711-12.034.849,7.958,1.934,10.976,8.6,11.883-5.816,2.269-7.859,3.093-8.9,12.291-1.433-9.315-2.71-10.139-8.415-12.139" transform="translate(-1374.172 -395.982)" fill="#fff"/>
            <rect id="Rectángulo_430609" data-name="Rectángulo 430609" width="463.867" height="309.245" transform="translate(0.038)" fill="#eddcc3"/>
            <g id="Grupo_1164278" data-name="Grupo 1164278" transform="translate(143.734 275.428)" opacity="0.18">
              <g id="Grupo_1164277" data-name="Grupo 1164277">
                <g id="Grupo_1164276" data-name="Grupo 1164276" clip-path="url(#clip-path-4)">
                  <path id="Trazado_935520" data-name="Trazado 935520" d="M929.581,1783.561c0,1.552,37.944,3.353,81.663,3.353s79.161-1.258,79.161-2.81-35.442-2.809-79.161-2.809-81.663.714-81.663,2.266" transform="translate(-929.581 -1781.295)" fill="#32323f"/>
                </g>
              </g>
            </g>
            <path id="Trazado_935521" data-name="Trazado 935521" d="M1197.942,971.95c-19.023-7.7-44.366-5.82-60.135-5.82s-55.505,3.692-55.255,6.445,13.391,27.909,29.161,27.909,73.589-13.7,73.589-13.7Z" transform="translate(-915.164 -816.575)" fill="#db9923"/>
            <path id="Trazado_935522" data-name="Trazado 935522" d="M1817.475,693.34a2.759,2.759,0,0,0,.248,1.307,1.443,1.443,0,0,0,1.366.685c1.4.027,1.569-.669,3.417-.471s5.295,2.383,6.492,2.331c1.089-.048,27.789,4.044,32.813,3.064a2.639,2.639,0,0,0,.438-.119c.228-.088.355-.2.371-.335.019-.17.036-.425.051-.751.152-3.389.034-14.477-.777-18.039-.162-.71-.351-1.122-.571-1.113a7.589,7.589,0,0,0-1.054.188c-5.319,1.2-26.835,7.7-30.647,8.309-4.036.645-5.7,3.306-6.843,3.434-1.62.18-1.482-.43-3.857-.289a1.615,1.615,0,0,0-1.445,1.8" transform="translate(-1536.453 -574.771)" fill="#754942"/>
            <g id="Grupo_1164281" data-name="Grupo 1164281" transform="translate(281.27 116.052)" opacity="0.16">
              <g id="Grupo_1164280" data-name="Grupo 1164280">
                <g id="Grupo_1164279" data-name="Grupo 1164279" clip-path="url(#clip-path-5)">
                  <path id="Trazado_935523" data-name="Trazado 935523" d="M1819.08,754.371a1.444,1.444,0,0,0,1.366.685c1.4.027,1.569-.669,3.417-.471s5.295,2.383,6.491,2.331c1.089-.049,27.789,4.044,32.813,3.064l-.054-.092-.687-1.18c-1.339-2.3-2.6-4.466-3.493-5.987l-1.27-2.172a2.784,2.784,0,0,1-1.3.844c-5.754,2.284-27.281,2.77-31.13,2.264a10.919,10.919,0,0,0-6.156.715" transform="translate(-1819.08 -750.548)" fill="#1f1f39"/>
                </g>
              </g>
            </g>
            <path id="Trazado_935524" data-name="Trazado 935524" d="M2059.693,690.365c.209,4.042,2.024,7.28,4.37,8.638a4.813,4.813,0,0,0,2.805.679c2.982-.232,5.174-4.785,4.886-10.342s-2.474-10.11-5.462-9.992a3.942,3.942,0,0,0-1.272.272h0l0,0a5.9,5.9,0,0,0-1.915,1.261,12.693,12.693,0,0,0-3.407,9.482" transform="translate(-1741.204 -574.303)" fill="#3b3b4d"/>
            <path id="Trazado_935525" data-name="Trazado 935525" d="M2074.347,696.273c.234,4.509,2.425,9.012,4.848,8.886s4.16-4.832,3.926-9.341-2.043-8.974-4.466-8.848-4.542,4.794-4.308,9.3" transform="translate(-1753.592 -580.747)" fill="#fff"/>
            <g id="Grupo_1164284" data-name="Grupo 1164284" transform="translate(318.473 105.316)" opacity="0.26">
              <g id="Grupo_1164283" data-name="Grupo 1164283">
                <g id="Grupo_1164282" data-name="Grupo 1164282" clip-path="url(#clip-path-6)">
                  <path id="Trazado_935526" data-name="Trazado 935526" d="M2059.693,691.863c.209,4.042,2.024,7.28,4.37,8.638,2.292.2,4.843.333,2.744-.287-3.425-1.013-3.405-6.89-3.482-9.2s1.092-5.68,3.32-8.972l-1.625-.924h0l0,0c-.06.039-.931.6-1.915,1.261a12.693,12.693,0,0,0-3.407,9.482" transform="translate(-2059.677 -681.118)" fill="#3d3d59"/>
                </g>
              </g>
            </g>
            <path id="Trazado_935527" data-name="Trazado 935527" d="M1918.248,777.668c.831-6.87,4.069-3.415,5.591-7.274.249-.633-2.793-5.018-5.413-3.724s-4.654,5.219-5.015,7.227,2,3.1,2.707,3.094a7.113,7.113,0,0,1,2.129.677" transform="translate(-1617.523 -647.925)" fill="#efaea6"/>
            <path id="Trazado_935528" data-name="Trazado 935528" d="M1655.334,786.015l4.7,2.6s4.6,2.461,4.053,1.082c-.727-1.842-.124-3.313-.279-4.439a8.661,8.661,0,0,1,.194-2.613,27.5,27.5,0,0,1,.858-3.228l.2-.374-.145-1.308-.426-3.828s-3.874.6-4.807,2.758c-.852,1.972-3.856,7.041-4.354,9.35" transform="translate(-1399.382 -654.243)" fill="#efaea6"/>
            <g id="Grupo_1164287" data-name="Grupo 1164287" transform="translate(261.921 123.079)" opacity="0.14">
              <g id="Grupo_1164286" data-name="Grupo 1164286">
                <g id="Grupo_1164285" data-name="Grupo 1164285" clip-path="url(#clip-path-7)">
                  <path id="Trazado_935529" data-name="Trazado 935529" d="M1696.646,801.319a27.443,27.443,0,0,1,.857-3.228l.2-.374-.145-1.308-.494-.413a23.676,23.676,0,0,0-2.728,1.3c-.894.624-.327,3.869,2.309,4.028" transform="translate(-1693.943 -795.997)" fill="#1f1f39"/>
                </g>
              </g>
            </g>
            <path id="Trazado_935530" data-name="Trazado 935530" d="M1522.006,815.208c2.293.234,1.109,3.836,3.125,4.825,1.064.522,1.016-.068,1.741-.386.446-.2.888-.44,1.183.294,6,14.927-15.5,38.161-14.944,40.591.454,1.987-9.589,1.984-14.511-1.539-6.75-4.833-2.992-13.051-2.145-14.569s16.4-26.88,16.4-26.88a44,44,0,0,0,9.156-2.335" transform="translate(-1263.542 -689.159)" fill="#fff"/>
            <path id="Trazado_935531" data-name="Trazado 935531" d="M1625.134,816.092c-.308.754-7.133,23.12-16,22.468-3.92-.288-17.062-2.774-19.669-1.966-1.984.615-4.883,3.77-5.384,5.918-.4,1.728-.74,3.414-1.073,4.634-.853,3.133-3.949,14.4-6.18,15.89-3,2-10.6,1.976-11.454.149-1.473-3.137,7.971-10.406,10.937-20.585,2.293-7.87,7.474-10.99,9.157-17.577a31.41,31.41,0,0,1,2.245-6.706c9.763,9.128,17.9,10.552,20.826,10.647,3.753.122,7.606-15.2,9.175-15.659.618-.182,8.151.982,7.414,2.787" transform="translate(-1323.206 -687.534)" fill="#0267a4"/>
            <g id="Grupo_1164290" data-name="Grupo 1164290" transform="translate(242.018 125.753)" opacity="0.11">
              <g id="Grupo_1164289" data-name="Grupo 1164289">
                <g id="Grupo_1164288" data-name="Grupo 1164288" clip-path="url(#clip-path-25)">
                  <path id="Trazado_935532" data-name="Trazado 935532" d="M1625.134,816.092c-.308.754-7.133,23.12-16,22.468-3.92-.288-17.062-2.774-19.669-1.966-1.984.615-4.883,3.77-5.384,5.918-.4,1.728-.74,3.414-1.073,4.634-.853,3.133-3.949,14.4-6.18,15.89-3,2-10.6,1.976-11.454.149-1.473-3.137,7.971-10.406,10.937-20.585,2.293-7.87,7.474-10.99,9.157-17.577a31.41,31.41,0,0,1,2.245-6.706c9.763,9.128,17.9,10.552,20.826,10.647,3.753.122,7.606-15.2,9.175-15.659.618-.182,8.151.982,7.414,2.787" transform="translate(-1565.224 -813.287)" fill="#1f1f39"/>
                </g>
              </g>
            </g>
            <path id="Trazado_935533" data-name="Trazado 935533" d="M1424.276,856.114c-.517,4.276,10.716,3.872,14.831,1.873,3.411-1.658,2.316-5.972,6.468-11.337a92.616,92.616,0,0,0,7.6-11.341c.2-.383.4-.759.574-1.122,1.486-3.055,2.916-6.426,4.18-9.617.575-1.451,1.117-2.866,1.612-4.2.318-.854.617-1.675.9-2.449,1.028-2.865,1.765-5.1,2.068-6.088a15.693,15.693,0,0,0-11.338,1,8.948,8.948,0,0,0-2.616,1.7,26.81,26.81,0,0,0-5.388,7.4c-2.093,4.642-3.379,8.109-4.548,10.941-1.288,3.122-3.388,5.7-5.5,10.678-1.894,4.474-8.568,10.33-8.837,12.559" transform="translate(-1204.036 -685.785)" fill="#0069a8"/>
            <g id="Grupo_1164293" data-name="Grupo 1164293" transform="translate(247.305 133.711)" opacity="0.18">
              <g id="Grupo_1164292" data-name="Grupo 1164292">
                <g id="Grupo_1164291" data-name="Grupo 1164291" clip-path="url(#clip-path-9)">
                  <path id="Trazado_935534" data-name="Trazado 935534" d="M1600.89,864.76c-.511,1.239-1.062,16.269-1.48,18.938.2-.383,2.226-3.884,2.4-4.248,1.486-3.056,2.916-6.426,4.18-9.618Z" transform="translate(-1599.41 -864.76)" fill="#1f1f39"/>
                </g>
              </g>
            </g>
            <path id="Trazado_935535" data-name="Trazado 935535" d="M1692.22,752.846c.567,1.983,3.512,5.393,2.148,5.67s1.2,4.188-.239,4.535c-3.491.84-7.973-.549-8.763-2.152s-1.482-6.391-1.482-6.391Z" transform="translate(-1423.518 -636.439)" fill="#efaea6"/>
            <path id="Trazado_935536" data-name="Trazado 935536" d="M1672.613,731.669c1.134-.1,1.22.156,1.922-.379s-.852-1.329.549-1.867,2.972-.955,2.8-2.643c-.255-2.443-2.306-1.631-3.564-1.083-.81.353-1.382-1.44-3.055-1.013-1.312.335-1,1.076-2.163,1.427-.7.212-2.323-.675-3.265.412-1.747,2.016.36,3.617-1.019,5.669-1.609,2.393,3.862,5.664,4.3,5.042.509-.725-.822-2.588-.282-3.2.813-.923,1.094-.132,2.045.458,1.016.63,2.607.353,1.284-1s-.572-1.737.454-1.827" transform="translate(-1407.147 -612.576)" fill="#1f1f39"/>
            <path id="Trazado_935537" data-name="Trazado 935537" d="M1736.271,694.138a2.762,2.762,0,0,0,.248,1.307,1.444,1.444,0,0,0,1.366.685c1.4.026,1.569-.669,3.417-.472s5.295,2.384,6.491,2.33c1.088-.047,27.789,4.044,32.813,3.064a2.574,2.574,0,0,0,.438-.119c.227-.087.355-.2.37-.333.019-.171.037-.425.051-.751.152-3.389.035-14.476-.777-18.038-.161-.711-.351-1.121-.571-1.113a7.577,7.577,0,0,0-1.053.187c-5.319,1.2-26.835,7.7-30.647,8.31-4.035.645-5.7,3.3-6.844,3.434-1.619.18-1.481-.43-3.857-.29a1.366,1.366,0,0,0-1.195.723,2.28,2.28,0,0,0-.25,1.076" transform="translate(-1467.804 -575.447)" fill="#754942"/>
            <g id="Grupo_1164296" data-name="Grupo 1164296" transform="translate(268.715 116.174)" opacity="0.16">
              <g id="Grupo_1164295" data-name="Grupo 1164295">
                <g id="Grupo_1164294" data-name="Grupo 1164294" clip-path="url(#clip-path-10)">
                  <path id="Trazado_935538" data-name="Trazado 935538" d="M1737.876,755.167a1.443,1.443,0,0,0,1.365.685c1.4.027,1.569-.669,3.417-.471s5.295,2.383,6.492,2.331c1.089-.048,27.789,4.044,32.813,3.064l-.054-.092q-.345-.594-.687-1.18c-1.339-2.3-2.6-4.466-3.493-5.987l-1.27-2.172c-.2.3,1.069,3.829.42,4.087-5.754,2.284-29-.473-32.847-.979a10.918,10.918,0,0,0-6.156.715" transform="translate(-1737.876 -751.343)" fill="#1f1f39"/>
                </g>
              </g>
            </g>
            <g id="Grupo_1164299" data-name="Grupo 1164299" transform="translate(268.466 107.715)" opacity="0.18">
              <g id="Grupo_1164298" data-name="Grupo 1164298">
                <g id="Grupo_1164297" data-name="Grupo 1164297" clip-path="url(#clip-path-11)">
                  <path id="Trazado_935539" data-name="Trazado 935539" d="M1736.271,707.605c.947.985,35.3-5.749,38.96-6.388l2.323-4.589s-33.866,9.643-35.318,9.933a21.818,21.818,0,0,1-5.171,0,5.263,5.263,0,0,0-.545-.031,2.28,2.28,0,0,0-.25,1.076" transform="translate(-1736.27 -696.628)" fill="#fff"/>
                </g>
              </g>
            </g>
            <path id="Trazado_935540" data-name="Trazado 935540" d="M1978.489,691.159c.21,4.042,2.024,7.28,4.37,8.638a4.814,4.814,0,0,0,2.805.679c2.981-.232,5.174-4.785,4.885-10.342s-2.474-10.11-5.462-9.991a3.948,3.948,0,0,0-1.272.272h0l0,0a5.9,5.9,0,0,0-1.915,1.261,12.7,12.7,0,0,0-3.407,9.482" transform="translate(-1672.556 -574.975)" fill="#3b3b4d"/>
            <path id="Trazado_935541" data-name="Trazado 935541" d="M1993.143,697.068c.234,4.509,2.425,9.012,4.848,8.886s4.16-4.832,3.926-9.341-2.043-8.974-4.466-8.848-4.542,4.794-4.308,9.3" transform="translate(-1684.944 -581.419)" fill="#fff"/>
            <g id="Grupo_1164302" data-name="Grupo 1164302" transform="translate(305.916 105.439)" opacity="0.26">
              <g id="Grupo_1164301" data-name="Grupo 1164301">
                <g id="Grupo_1164300" data-name="Grupo 1164300" clip-path="url(#clip-path-12)">
                  <path id="Trazado_935542" data-name="Trazado 935542" d="M1978.489,692.658c.21,4.042,2.024,7.28,4.37,8.638,2.291.2,4.843.333,2.744-.287-3.425-1.013-3.406-6.889-3.482-9.2s1.092-5.68,3.319-8.972l-1.625-.924h0l0,0c-.06.039-.931.6-1.915,1.261a12.7,12.7,0,0,0-3.407,9.482" transform="translate(-1978.471 -681.913)" fill="#3d3d59"/>
                </g>
              </g>
            </g>
            <path id="Trazado_935543" data-name="Trazado 935543" d="M1801.9,763.151c.242-.807,3.573-2.1,3.41-2.734-.3-1.177-2.015-.166-2.265-2.181-.194-1.57,2.971-3.561,1.189-4.367-4.172-1.887-6.577,1.192-6.161,5.064.323,3.009-1.619,4.759-1.942,7.3s5.27.681,5.27.681a17.086,17.086,0,0,1,.5-3.758" transform="translate(-1518.398 -636.821)" fill="#efaea6"/>
            <path id="Trazado_935544" data-name="Trazado 935544" d="M1602.086,816.057c8.578,9.847,15.655,36.437,22.135-.17.156-.88,7.651-1.108,7.474.254-7.625,58.827-34.365,12.685-38.14,8.35-1.6-1.837.5-9.4,3.8-8.85a21.23,21.23,0,0,0,4.735.416" transform="translate(-1346.693 -689.129)" fill="#0069a8"/>
            <g id="Grupo_1164305" data-name="Grupo 1164305" transform="translate(240.053 129.86)" opacity="0.18">
              <g id="Grupo_1164304" data-name="Grupo 1164304">
                <g id="Grupo_1164303" data-name="Grupo 1164303" clip-path="url(#clip-path-30)">
                  <path id="Trazado_935545" data-name="Trazado 935545" d="M1573.434,841.21c-.208-.205-3.5,4.058-7.045,5a7.777,7.777,0,0,1-3.014.243c-2.972-.391-10.865-2.146-10.865-2.146a14.607,14.607,0,0,1,2.98-3.521,27.519,27.519,0,0,0,8.122,2.639,11.316,11.316,0,0,0,3.378-.27,18.832,18.832,0,0,0,5.262-2.186c.717-.419.963-1.218,1.708-1.108.989.146-.257,1.612-.526,1.349" transform="translate(-1552.51 -839.85)" fill="#1f1f39"/>
                </g>
              </g>
            </g>
            <path id="Trazado_935546" data-name="Trazado 935546" d="M1406.583,833.578a1.092,1.092,0,0,0-1.122-1.13c-.661-.018-.732.246-1.314.687a13.446,13.446,0,0,1-7.271,3.045c-2.943.123-9.354-4.159-13.74-3.508s-5.96,4.44-12.267,5.018-12.843-2.506-14.7-2.313-3,.522-3.007,1.255a3.621,3.621,0,0,0,2.093,2.6c1.259.6,12.6,2.137,15.637,1.933,4.955-.333,9.473-4.483,12.656-4.553a25.972,25.972,0,0,1,5.34.809,47.228,47.228,0,0,0,8.1,1.419c4.152.045,7.84-4.548,8.1-4.347a1.126,1.126,0,0,0,1.041.3c.371-.067.453-.8.455-1.215" transform="translate(-1143.929 -703.732)" fill="#f4ad00"/>
            <path id="Trazado_935547" data-name="Trazado 935547" d="M1197.948,1004.871c-2.722,33.936-27.917,58.466-35.625,75.052,0,0,0,0,0,.005a19.748,19.748,0,0,0-2.248,9.33c.006.1.006.2.008.293v0c.025,2.541-1.629,4.514-4.242,5.918l-.009.005a19.525,19.525,0,0,1-4.7,1.709c-.5.12-1.016.226-1.54.32-.6.113-1.224.2-1.865.276h0l-.015,0-.127.014a36.814,36.814,0,0,1-14.98-1.321c-.233-.076-.461-.153-.687-.234-.086-.034-.166-.063-.246-.09h0l-.006,0a19.988,19.988,0,0,1-2.759-1.244l-.24-.135c-.158-.09-.314-.183-.466-.278l-.226-.143c-.075-.049-.15-.1-.222-.146l-.049-.033c-.122-.083-.24-.166-.357-.25l-.025-.019-.207-.154-.158-.122c-.083-.065-.163-.131-.243-.2-.109-.09-.217-.183-.322-.276l-.031-.029c-.047-.042-.092-.083-.136-.125l-.024-.023c-.039-.035-.076-.072-.113-.108-.157-.151-.307-.306-.45-.464a7.377,7.377,0,0,1-2.008-4.6,8.438,8.438,0,0,0-.367-1.982s0,0,0-.005a20.922,20.922,0,0,0-2.759-5.394,0,0,0,0,1,0,0c-2.54-3.837-6.413-8.321-10.724-13.625-11.194-13.743-25.491-33.9-27.215-61.425a225.171,225.171,0,0,0,56.005,8.51c35.862.664,59.385-9.011,59.385-9.011" transform="translate(-915.17 -849.495)" fill="#f2b233"/>
            <g id="Grupo_1164308" data-name="Grupo 1164308" transform="translate(198.189 174.185)" opacity="0.75">
              <g id="Grupo_1164307" data-name="Grupo 1164307">
                <g id="Grupo_1164306" data-name="Grupo 1164306" clip-path="url(#clip-path-14)">
                  <path id="Trazado_935548" data-name="Trazado 935548" d="M1339.845,1133.033a6.606,6.606,0,0,0-3.183-4.316,9.436,9.436,0,0,0-6.529-.67c-1.929.379-3.6,1.856-5.121,4.513a39.4,39.4,0,0,0-3.378,8.828q-.582,2.117-1.125,4.584c-.65-.017-1.3-.054-1.942-.109a27.017,27.017,0,0,1-5.1-.908c.1-.1.2-.193.3-.292a11.407,11.407,0,0,0,3.217-8.785c-.286-6.159-4.38-9.364-8.3-9.364h-.057a6.9,6.9,0,0,0-5,2.167,9,9,0,0,0-2.265,6.049,11.715,11.715,0,0,0,4.789,10.011q.309.237.632.459a17.16,17.16,0,0,1-4.9.5,41.781,41.781,0,0,1-4.265-.351c-.248-3.571-.374-6.232-.316-7.457a11.561,11.561,0,0,0-1.433-6.33,8.221,8.221,0,0,0-4.12-3.678,6.144,6.144,0,0,0-7.186,2.2c-3.564,4.474-3.092,8.054-2.069,10.27,1.689,3.653,6.109,6.318,12.3,7.576.669,8.873,1.881,21.622,2.964,32.506.2,2.042.4,4.019.592,5.892.2,1.956.386,3.8.56,5.486q.1.974.192,1.875.043.428.086.835c.24,2.315.436,4.2.571,5.487.107,1,.174,1.644.2,1.855a1.505,1.505,0,0,0,1.494,1.347c.053,0,.107,0,.16-.009a1.507,1.507,0,0,0,1.338-1.655c-.005-.047-.051-.476-.129-1.227-.118-1.117-.309-2.945-.552-5.29-.007-.065-.013-.132-.02-.2-.087-.842-.181-1.748-.278-2.709-.172-1.676-.361-3.52-.56-5.486-.2-2.015-.419-4.158-.641-6.381-1.058-10.634-2.243-23.066-2.92-31.84q1.888.226,3.94.295a18.24,18.24,0,0,0,8.564-1.63,29.027,29.027,0,0,0,9.534,1.879c-.96,4.92-1.814,10.7-2.553,17.295-.527,4.694-.947,9.383-1.28,13.737-.219,2.869-.4,5.592-.55,8.076-.118,1.966-.216,3.781-.3,5.4-.048.962-.089,1.854-.126,2.668,0,.009,0,.017,0,.026-.145,3.274-.2,5.261-.2,5.32a.42.42,0,0,0,0,.063,1.505,1.505,0,0,0,1.464,1.481h.041a1.5,1.5,0,0,0,1.469-1.18,1.389,1.389,0,0,0,.035-.285c0-.056.054-1.966.192-5.121q.018-.389.036-.8.04-.879.088-1.865c.081-1.614.177-3.431.3-5.4.153-2.551.34-5.359.566-8.321.329-4.278.743-8.876,1.259-13.477.76-6.773,1.64-12.668,2.629-17.62a35.9,35.9,0,0,0,8.769-1.443c6.043-1.837,9.383-9.425,8.119-14.481m-49.124,10.542c-2.773-1.163-4.67-2.713-5.488-4.482-.972-2.1-.4-4.5,1.691-7.134a3.421,3.421,0,0,1,2.663-1.465,3.134,3.134,0,0,1,1.108.211c1.866.7,3.791,3.208,3.607,7.048-.058,1.217.051,3.712.273,7.045a24.205,24.205,0,0,1-3.854-1.222m19.484.14a13.465,13.465,0,0,1-2.218-1.361,8.705,8.705,0,0,1-3.609-7.531c.118-3.887,2.38-5.283,4.279-5.3h.032a4.785,4.785,0,0,1,3.4,1.517,7.526,7.526,0,0,1,1.89,4.977,8.474,8.474,0,0,1-2.354,6.533,8.841,8.841,0,0,1-1.421,1.163m20.645.92a32.126,32.126,0,0,1-7.245,1.279q.453-1.989.932-3.733c2.523-9.166,4.953-10.94,6.177-11.181a10.3,10.3,0,0,1,1.98-.211c1.862,0,3.653.662,4.231,2.973.923,3.7-1.751,9.557-6.075,10.872" transform="translate(-1281.76 -1126.516)" fill="#fff"/>
                </g>
              </g>
            </g>
            <g id="Grupo_1164311" data-name="Grupo 1164311" transform="translate(167.388 156.001)" opacity="0.19">
              <g id="Grupo_1164310" data-name="Grupo 1164310">
                <g id="Grupo_1164309" data-name="Grupo 1164309" clip-path="url(#clip-path-15)">
                  <path id="Trazado_935549" data-name="Trazado 935549" d="M1109.774,1070.218c-11.194-13.743-25.49-33.77-27.215-61.3l13.642,3.254c-1.411,18.371,4.51,33.583,13.573,58.046" transform="translate(-1082.559 -1008.918)" fill="#ea4f26"/>
                </g>
              </g>
            </g>
            <path id="Trazado_935550" data-name="Trazado 935550" d="M1027.366,345.568s-.838,1.339-2.357,3.632c-4.9,7.386-16.894,24.652-30.81,38.816-14.017,14.267-49.479,37.345-49.479,37.345q-1.628-1.487-3.23-3.1c-20.178-20.385-33.772-55.1-9.03-81.566q.279-.305.584-.605c24.739-25.889,62.13-27.675,89.769.423q.566.574,1.115,1.155,1.811,1.92,3.437,3.905" transform="translate(-777.002 -270.562)" fill="#f2b233"/>
            <g id="Grupo_1164314" data-name="Grupo 1164314" transform="translate(178.422 59.197)" opacity="0.65">
              <g id="Grupo_1164313" data-name="Grupo 1164313">
                <g id="Grupo_1164312" data-name="Grupo 1164312" clip-path="url(#clip-path-33)">
                  <path id="Trazado_935551" data-name="Trazado 935551" d="M1167.713,383.175c-.6.171-1.362.339-2.206.517s-1.777.372-2.764.62a26.943,26.943,0,0,0-3.118.968,18.141,18.141,0,0,0-3.3,1.651l-.034.022a5.166,5.166,0,1,0,5.579,8.7l.073-.048a11.311,11.311,0,0,1,3.346-1.331c.721-.189,1.515-.365,2.391-.559s1.835-.406,2.932-.73a5.113,5.113,0,0,0-2.857-9.819Z" transform="translate(-1153.916 -382.946)" fill="#fff"/>
                  <path id="Trazado_935552" data-name="Trazado 935552" d="M1345.866,401a58.649,58.649,0,0,0-5.154-5.98,46.175,46.175,0,0,0-6.162-5.229,43.706,43.706,0,0,0-7.052-4.042,50.949,50.949,0,0,0-7.5-2.713l-.007,0a5.006,5.006,0,0,0-2.719,9.636,36.473,36.473,0,0,1,11.424,5.376,41.219,41.219,0,0,1,8.979,9.078l.009.013a5.113,5.113,0,1,0,8.206-6.1Z" transform="translate(-1288.943 -382.846)" fill="#fff"/>
                </g>
              </g>
            </g>
            <g id="Grupo_1164317" data-name="Grupo 1164317" transform="translate(142.116 69.523)" opacity="0.19">
              <g id="Grupo_1164316" data-name="Grupo 1164316">
                <g id="Grupo_1164315" data-name="Grupo 1164315" clip-path="url(#clip-path-34)">
                  <path id="Trazado_935553" data-name="Trazado 935553" d="M933.045,449.632c1.972,39.606,9.2,62.729,21.607,77.717l-9.931,7.559q-1.63-1.487-3.231-3.1c-20.177-20.385-33.771-55.1-9.03-81.565.187-.2.382-.406.586-.606" transform="translate(-919.118 -449.632)" fill="#ea4f26"/>
                </g>
              </g>
            </g>
            <path id="Trazado_935554" data-name="Trazado 935554" d="M1055.555,968.208a7.341,7.341,0,1,1-7.338-7.522,7.432,7.432,0,0,1,7.338,7.522" transform="translate(-879.935 -812.142)" fill="#cc820a"/>
            <path id="Trazado_935555" data-name="Trazado 935555" d="M1068.541,984.5a4.433,4.433,0,1,1-4.432-4.542,4.488,4.488,0,0,1,4.432,4.542" transform="translate(-895.828 -828.433)" fill="#f4c83d"/>
            <path id="Trazado_935556" data-name="Trazado 935556" d="M1324.477,1505.285c.012.716.035,1.447.06,2.188.088,2.369.237,4.813.4,7.024.055.756.114,1.485.169,2.176.277,3.41.541,5.858.541,5.858,0,.42.013.836.04,1.248a20.033,20.033,0,0,0,11.609,17c.4.184.808.355,1.222.512a19.685,19.685,0,0,0,7.011,1.275l1.429,0a19.68,19.68,0,0,0,10.483-3.027,20.107,20.107,0,0,0,8.89-12.595,19.756,19.756,0,0,0,.374-2.271,20.552,20.552,0,0,0,.117-2.193s.013-.256.036-.716c.036-.709.093-1.91.157-3.415.073-1.694.154-3.774.225-5.979.036-1.167.069-2.368.1-3.568.047-2.11.073-4.208.061-6.084-.007-1.2-.031-2.3-.074-3.265a9.762,9.762,0,0,0-.512-3.519c-1.319-1.762-38.534-1.789-41.178.053-1,.694-1.24,4.645-1.156,9.3" transform="translate(-1119.67 -1263.511)" fill="#575759"/>
            <g id="Grupo_1164320" data-name="Grupo 1164320" transform="translate(205.103 240.867)" opacity="0.6">
              <g id="Grupo_1164319" data-name="Grupo 1164319">
                <g id="Grupo_1164318" data-name="Grupo 1164318" clip-path="url(#clip-path-18)">
                  <path id="Trazado_935557" data-name="Trazado 935557" d="M1326.611,1566.825c6.187-1.706,36.533-5.973,42.253-6.877-.056-.757-.113-1.486-.169-2.176l-42.135,4.3a28.867,28.867,0,0,0,.051,4.75" transform="translate(-1326.483 -1557.773)" fill="#2c2c42"/>
                </g>
              </g>
            </g>
            <g id="Grupo_1164323" data-name="Grupo 1164323" transform="translate(205.487 251.346)" opacity="0.6">
              <g id="Grupo_1164322" data-name="Grupo 1164322">
                <g id="Grupo_1164321" data-name="Grupo 1164321" clip-path="url(#clip-path-19)">
                  <path id="Trazado_935558" data-name="Trazado 935558" d="M1329.654,1634.481c8.163-1.752,35.964-5.929,41.2-6.771a19.851,19.851,0,0,0-.248-2.164l-41.639,3.856a25.077,25.077,0,0,0,.686,5.079" transform="translate(-1328.964 -1625.546)" fill="#2c2c42"/>
                </g>
              </g>
            </g>
            <path id="Trazado_935559" data-name="Trazado 935559" d="M1357.447,1530.212l.064.564a2.871,2.871,0,0,1-2.549,3.15l-41.372,4.807a2.851,2.851,0,0,1-3.187-2.483l-.064-.565a2.871,2.871,0,0,1,2.549-3.15l41.372-4.807a2.851,2.851,0,0,1,3.186,2.483" transform="translate(-1107.717 -1291.491)" fill="#aaaaaf"/>
            <path id="Trazado_935560" data-name="Trazado 935560" d="M1360.289,1598.385l.064.565a2.857,2.857,0,0,1-2.519,3.146l-40.956,4.762a2.836,2.836,0,0,1-3.158-2.486l-.064-.565a2.856,2.856,0,0,1,2.52-3.146l40.956-4.763a2.836,2.836,0,0,1,3.157,2.486" transform="translate(-1110.521 -1349.121)" fill="#aaaaaf"/>
            <g id="Grupo_1164326" data-name="Grupo 1164326" transform="translate(206.959 261.163)" opacity="0.6">
              <g id="Grupo_1164325" data-name="Grupo 1164325">
                <g id="Grupo_1164324" data-name="Grupo 1164324" clip-path="url(#clip-path-20)">
                  <path id="Trazado_935561" data-name="Trazado 935561" d="M1338.478,1693.129a20.034,20.034,0,0,0,2.192,4.369c9.389-1.659,30.946-5.276,37.511-6.19a19.764,19.764,0,0,0,.374-2.271Z" transform="translate(-1338.478 -1689.037)" fill="#2c2c42"/>
                </g>
              </g>
            </g>
            <path id="Trazado_935562" data-name="Trazado 935562" d="M1371.67,1666.786l.064.565a2.771,2.771,0,0,1-2.344,3.126l-38.435,4.472a2.751,2.751,0,0,1-2.983-2.506l-.064-.565a2.771,2.771,0,0,1,2.344-3.126l38.435-4.473a2.751,2.751,0,0,1,2.983,2.506" transform="translate(-1122.567 -1406.93)" fill="#aaaaaf"/>
            <path id="Trazado_935563" data-name="Trazado 935563" d="M496.777,480.012c4.242,0,12.959,7.524.5,8.73s-31.116.651-38.667.676c-12.324.041-15.382-.463-15.284-5.5.057-2.914,1.63-4.8,8.127-5.566,6.758-.8,3.306-8.312,11.556-8.084,7.027.194,7.744,10.033,14.174,7.622s5.083,4.16,9.786,5.365c5.168,1.325,5.566-3.245,9.807-3.245" transform="translate(-374.777 -397.551)" fill="#fff"/>
            <path id="Trazado_935564" data-name="Trazado 935564" d="M2004.512,1385.26a67.722,67.722,0,0,1-19.763-1.633,4.7,4.7,0,0,1-2.773-1.385,3.776,3.776,0,0,1,.394-4.658,5.15,5.15,0,0,1,4.37-1.395,7.3,7.3,0,0,0,2.985.1c1.2-.382,2-1.592,2.808-2.645s1.9-2.1,3.144-1.93a7.5,7.5,0,0,1,2.5,1.377,1.782,1.782,0,0,0,2.51-.355c1.018-1.9-.411-7.123,4.831-7.123,7.567,0,6.331,5.253,7.242,6.368,1.381,1.69,3.839,1.318,5.839.746s4.382-1.114,5.925.4c1.338,1.31,1.476,3.713,2.9,4.91,1.515,1.275,3.666.594,5.5.022s4.2-.782,5.266.957a3.851,3.851,0,0,1-1.043,4.645,7.631,7.631,0,0,1-4.541,1.436c-10.365.69-19.776-.383-28.09.171" transform="translate(-1674.982 -1154.455)" fill="#fff"/>
            <path id="Trazado_935565" data-name="Trazado 935565" d="M1298,581.334c5.386-.773,6.155-3,7.154-9.884.7,6.536,1.589,9.015,7.064,9.76-4.776,1.864-6.455,2.54-7.307,10.095-1.177-7.651-2.226-8.328-6.912-9.97" transform="translate(-1097.298 -483.091)" fill="#fff"/>
            <path id="Trazado_935566" data-name="Trazado 935566" d="M1868.638,1076.155c5.386-.773,6.155-3,7.154-9.884.7,6.536,1.589,9.015,7.064,9.76-4.776,1.864-6.455,2.54-7.307,10.095-1.177-7.651-2.226-8.327-6.912-9.97" transform="translate(-1579.705 -901.402)" fill="#fff"/>
            <path id="Trazado_935567" data-name="Trazado 935567" d="M1625.758,479.731c6.557-.941,7.494-3.647,8.711-12.034.85,7.958,1.934,10.976,8.6,11.883-5.815,2.269-7.859,3.093-8.9,12.291-1.433-9.315-2.71-10.139-8.416-12.139" transform="translate(-1374.38 -395.38)" fill="#fff"/>
          </g>
        </g>
      </g>
    </g>
  </g>
</svg>
