<svg xmlns="http://www.w3.org/2000/svg" width="50" height="50" viewBox="0 0 50 50">
  <g id="Grupo_1185024" data-name="Grupo 1185024" transform="translate(-382.742 -1684)">
    <rect id="Rectángulo_438975" data-name="Rectángulo 438975" width="50" height="50" rx="10" transform="translate(382.742 1684)" fill="#128477"/>
    <g id="Grupo_1185023" data-name="Grupo 1185023" transform="translate(383.802 1691)">
      <path id="Trazado_949978" data-name="Trazado 949978" d="M149,167.05h-.175a6.128,6.128,0,0,0,2.485-4.926v-.281l.069,0a.709.709,0,0,0,.67-.708v-.971a6.862,6.862,0,0,0-13.724,0v.969a.709.709,0,0,0,.67.708l.069,0v.281a6.086,6.086,0,0,0,1.793,4.33,6.166,6.166,0,0,0,.691.6h-.175a4.646,4.646,0,0,0-4.647,4.647v6.331a.709.709,0,0,0,.709.709h15.5a.709.709,0,0,0,.709-.709V171.7A4.646,4.646,0,0,0,149,167.05Zm-7.655-10.736a5.323,5.323,0,0,1,3.826-1.6h.024a5.463,5.463,0,0,1,5.434,5.433s0,.007,0,.01v.3c-.18.009-.317.015-.356.016A5.886,5.886,0,0,1,147,159.439a8.5,8.5,0,0,1-1.313-1.081.709.709,0,0,0-1,0,8.505,8.505,0,0,1-1.314,1.081,5.885,5.885,0,0,1-3.272,1.035c-.038,0-.175-.007-.357-.016v-.3s0-.01,0-.015A5.32,5.32,0,0,1,141.349,156.314Zm-.864,5.81v-.243a7.344,7.344,0,0,0,3.671-1.257,9.493,9.493,0,0,0,1.034-.792,9.5,9.5,0,0,0,1.033.792,7.346,7.346,0,0,0,3.671,1.258v.243a4.71,4.71,0,0,1-2.787,4.3.714.714,0,0,0-.332.989l.259.473a1.314,1.314,0,0,1-.535.47,2.644,2.644,0,0,1-2.62,0,1.311,1.311,0,0,1-.535-.47l.259-.473a.714.714,0,0,0-.332-.988,4.71,4.71,0,0,1-2.786-4.3Zm11.747,15.195h-2.4v-3.945a.709.709,0,0,0-1.419,0v3.945h-6.456v-3.945a.709.709,0,0,0-1.419,0v3.945h-2.4V171.7a3.227,3.227,0,0,1,3.228-3.228h.676a2.565,2.565,0,0,0,1.123,1.116,4.068,4.068,0,0,0,4.029,0,2.567,2.567,0,0,0,1.123-1.116H149a3.228,3.228,0,0,1,3.228,3.228Z" transform="translate(-121.511 -142.417)" fill="#f3d02c"/>
      <path id="Trazado_949979" data-name="Trazado 949979" d="M291.841,4.239a.709.709,0,1,0-.265,1.394,16.314,16.314,0,0,1,7.768,28.234.709.709,0,1,0,.942,1.061,17.733,17.733,0,0,0-8.444-30.689Z" transform="translate(-264.837 -3.926)" fill="#f3d02c"/>
      <path id="Trazado_949980" data-name="Trazado 949980" d="M12.852,33.871A16.314,16.314,0,0,1,20.619,5.636a.709.709,0,1,0-.265-1.394,17.733,17.733,0,0,0-8.445,30.688.709.709,0,0,0,.942-1.061Z" transform="translate(0 -3.93)" fill="#f3d02c"/>
      <circle id="Elipse_11772" data-name="Elipse 11772" cx="0.709" cy="0.709" r="0.709" transform="translate(22.969)" fill="#f3d02c"/>
      <path id="Trazado_949981" data-name="Trazado 949981" d="M101.571,83.84a11.793,11.793,0,0,0-9.718,18.471.709.709,0,0,0,1.168-.8,10.373,10.373,0,1,1,17.1,0,.709.709,0,1,0,1.168.8,11.793,11.793,0,0,0-9.718-18.471Z" transform="translate(-77.893 -77.893)" fill="#f3d02c"/>
    </g>
  </g>
</svg>
