<svg xmlns="http://www.w3.org/2000/svg" xmlns:xlink="http://www.w3.org/1999/xlink" width="94.049" height="94.049" viewBox="0 0 94.049 94.049">
  <defs>
    <filter id="plant-growing-soil-with-sun-shining-it" x="0" y="0" width="94.049" height="94.049" filterUnits="userSpaceOnUse">
      <feOffset dy="3" input="SourceAlpha"/>
      <feGaussianBlur stdDeviation="3" result="blur"/>
      <feFlood flood-opacity="0.161"/>
      <feComposite operator="in" in2="blur"/>
      <feComposite in="SourceGraphic"/>
    </filter>
  </defs>
  <g id="Grupo_1177690" data-name="Grupo 1177690" transform="translate(9 6)">
    <g transform="matrix(1, 0, 0, 1, -9, -6)" filter="url(#plant-growing-soil-with-sun-shining-it)">
      <g id="plant-growing-soil-with-sun-shining-it-2" data-name="plant-growing-soil-with-sun-shining-it" transform="translate(9 6)" fill="#f7f1d8">
        <path d="M 38.024658203125 73.54931640625 C 33.22776412963867 73.54931640625 28.57567024230957 72.61039733886719 24.19762229919434 70.75864410400391 C 19.96767044067383 68.96952056884766 16.16825866699219 66.40771484375 12.90492916107178 63.14438629150391 C 9.641599655151367 59.88105773925781 7.079799175262451 56.08164596557617 5.290681838989258 51.85169219970703 C 3.438916921615601 47.47364807128906 2.499999284744263 42.82156372070312 2.499999284744263 38.024658203125 C 2.499999284744263 33.22776412963867 3.438916921615601 28.57567024230957 5.290681838989258 24.19762229919434 C 7.079799175262451 19.96767044067383 9.641599655151367 16.16825866699219 12.90492916107178 12.90492916107178 C 16.16825866699219 9.641599655151367 19.96767044067383 7.079799175262451 24.19762229919434 5.290681838989258 C 28.57567024230957 3.438916921615601 33.22776412963867 2.499999284744263 38.024658203125 2.499999284744263 C 42.82155227661133 2.499999284744263 47.4736328125 3.438916921615601 51.85168075561523 5.290681838989258 C 56.08163452148438 7.079799175262451 59.88104629516602 9.641599655151367 63.14437484741211 12.90492916107178 C 66.40770721435547 16.16825866699219 68.96952056884766 19.96767044067383 70.75863647460938 24.19762229919434 C 72.61039733886719 28.57567024230957 73.54931640625 33.22776412963867 73.54931640625 38.024658203125 C 73.54931640625 42.82156372070312 72.61039733886719 47.47364807128906 70.75863647460938 51.85169219970703 C 68.96952056884766 56.08164596557617 66.40770721435547 59.88105773925781 63.14437484741211 63.14438629150391 C 59.88104629516602 66.40771484375 56.08163452148438 68.96952056884766 51.85168075561523 70.75864410400391 C 47.4736328125 72.61039733886719 42.82155227661133 73.54931640625 38.024658203125 73.54931640625 Z" stroke="none"/>
        <path d="M 38.024658203125 5 C 33.56415939331055 5 29.23973083496094 5.872474670410156 25.17150115966797 7.593185424804688 C 21.23954391479492 9.256271362304688 17.70724487304688 11.63816070556641 14.67270278930664 14.67270278930664 C 11.63816070556641 17.70724487304688 9.256271362304688 21.23954391479492 7.593185424804688 25.17150115966797 C 5.872474670410156 29.23973083496094 5 33.56415939331055 5 38.024658203125 C 5 42.48515701293945 5.872474670410156 46.80958557128906 7.593185424804688 50.87781524658203 C 9.256271362304688 54.80977249145508 11.63816070556641 58.34207153320312 14.67270278930664 61.37661743164062 C 17.70724487304688 64.41115570068359 21.23954391479492 66.79304504394531 25.17150115966797 68.45613098144531 C 29.23973083496094 70.17684173583984 33.56415939331055 71.04931640625 38.024658203125 71.04931640625 C 42.48515701293945 71.04931640625 46.80958557128906 70.17684173583984 50.87779998779297 68.45613098144531 C 54.80976104736328 66.79304504394531 58.34207153320312 64.41115570068359 61.37661743164062 61.37661743164062 C 64.41115570068359 58.34207153320312 66.79304504394531 54.80977249145508 68.45613098144531 50.87781524658203 C 70.17684173583984 46.80958557128906 71.04931640625 42.48515701293945 71.04931640625 38.024658203125 C 71.04931640625 33.56415939331055 70.17684173583984 29.23973083496094 68.45613098144531 25.17150115966797 C 66.79304504394531 21.23954391479492 64.41115570068359 17.70724487304688 61.37661743164062 14.67270278930664 C 58.34207153320312 11.63816070556641 54.80976104736328 9.256271362304688 50.87779998779297 7.593185424804688 C 46.80958557128906 5.872474670410156 42.48515701293945 5 38.024658203125 5 M 38.024658203125 0 C 59.02508544921875 0 76.04931640625 17.02421569824219 76.04931640625 38.024658203125 C 76.04931640625 59.02510070800781 59.02508544921875 76.04931640625 38.024658203125 76.04931640625 C 17.02421569824219 76.04931640625 0 59.02510070800781 0 38.024658203125 C 0 17.02421569824219 17.02421569824219 0 38.024658203125 0 Z" stroke="none" fill="#66b4ab"/>
      </g>
    </g>
    <g id="Grupo_1177637" data-name="Grupo 1177637" transform="translate(3.543 3.541)">
      <path id="Trazado_944761" data-name="Trazado 944761" d="M228.312,344h-2.464v3.26A17.507,17.507,0,0,1,224,355.089h6.161a17.506,17.506,0,0,1-1.848-7.829Z" transform="translate(-191.982 -302.741)" fill="#b28d49"/>
      <path id="Trazado_944762" data-name="Trazado 944762" d="M203.089,152.625c0,4.439-2.156,8.1-4.928,8.572a3.6,3.6,0,0,1-1.232,0c-2.772-.477-4.929-4.132-4.929-8.572,0-4.764,2.483-8.625,5.545-8.625S203.089,147.861,203.089,152.625Z" transform="translate(-162.447 -118.143)" fill="#5fb856"/>
      <g id="Grupo_1177618" data-name="Grupo 1177618" transform="translate(22.777 36.946)">
        <path id="Trazado_944763" data-name="Trazado 944763" d="M104.614,294.16a.616.616,0,0,1-.169-1.209l3.938-1.125.552-3.312a.616.616,0,0,1,1.215.2l-.616,3.7a.616.616,0,0,1-.438.491l-4.312,1.232A.619.619,0,0,1,104.614,294.16Z" transform="translate(-103.998 -287.999)" fill="#765e30"/>
      </g>
      <g id="Grupo_1177619" data-name="Grupo 1177619" transform="translate(18.464 35.098)">
        <path id="Trazado_944764" data-name="Trazado 944764" d="M52.928,270.159a.616.616,0,0,1-.195-.032l-3.7-1.232a.616.616,0,0,1-.413-.483l-.616-3.7a.616.616,0,0,1,1.215-.2l.555,3.331,3.345,1.115a.616.616,0,0,1-.195,1.2Z" transform="translate(-47.999 -263.998)" fill="#765e30"/>
      </g>
      <path id="Trazado_944765" data-name="Trazado 944765" d="M61.545,288H59.08v6.894A13.29,13.29,0,0,1,56,303.4h8.625a13.29,13.29,0,0,1-3.08-8.508Z" transform="translate(-36.92 -251.054)" fill="#b28d49"/>
      <path id="Trazado_944766" data-name="Trazado 944766" d="M372.312,304h-2.464v2.78A36.017,36.017,0,0,1,368,318.169h6.161a36.016,36.016,0,0,1-1.848-11.389Z" transform="translate(-324.893 -265.822)" fill="#b28d49"/>
      <path id="Trazado_944767" data-name="Trazado 944767" d="M32.625,26.464h-.633a2.772,2.772,0,0,0-5.51,0h-.633a1.848,1.848,0,1,0,0,3.7h6.777a1.848,1.848,0,1,0,0-3.7Z" transform="translate(-7.384 -7.384)" fill="#b8e3ff"/>
      <path id="Trazado_944768" data-name="Trazado 944768" d="M38.95,411.7a2.163,2.163,0,0,0-.967.228A5.775,5.775,0,0,0,32.625,408a5.7,5.7,0,0,0-5.031,3.177,2.7,2.7,0,0,0-.719-.1A2.983,2.983,0,0,0,24,414.161H41.25A2.386,2.386,0,0,0,38.95,411.7Z" transform="translate(-7.384 -361.813)" fill="#37647f"/>
      <path id="Trazado_944769" data-name="Trazado 944769" d="M335.628,440a5.185,5.185,0,0,0-3.777,1.5,3.657,3.657,0,0,0-.917-.116c-1.62,0-2.934,1.034-2.934,2.31h12.321C340.321,441.655,338.22,440,335.628,440Z" transform="translate(-287.974 -391.349)" fill="#37647f"/>
      <path id="Trazado_944770" data-name="Trazado 944770" d="M344.713,153.329l2.376.528L341.545,144,336,153.857l2.376-.528L336,157.553l2.376-.528L336,161.25l2.844-.632a12.4,12.4,0,0,1,5.4,0l2.844.632-2.376-4.224,2.376.528Z" transform="translate(-295.357 -118.143)" fill="#77e36d"/>
      <circle id="Elipse_11762" data-name="Elipse 11762" cx="1.853" cy="1.853" r="1.853" transform="translate(16 33.2)" fill="#32622e"/>
      <path id="Trazado_944771" data-name="Trazado 944771" d="M39.4,142.777a3.081,3.081,0,0,0-3.873-2.977,3.7,3.7,0,0,0-6-1.612,2.464,2.464,0,1,0-4.485,1.663,3.08,3.08,0,0,0,1.422,5.328c0,.021,0,.041,0,.061a3.7,3.7,0,0,0,6.108,2.8,3.08,3.08,0,0,0,4.312-2.236A3.081,3.081,0,0,0,39.4,142.777Z" transform="translate(-7.384 -110.759)" fill="#77e36d"/>
      <path id="Trazado_944772" data-name="Trazado 944772" d="M140.929,240.616a1.843,1.843,0,0,0-1.349.585,1.848,1.848,0,1,0-2.217,2.43,1.848,1.848,0,1,0,3.566.681,1.848,1.848,0,0,0,0-3.7Z" transform="translate(-110.759 -206.75)" fill="#32622e"/>
      <g id="Grupo_1177620" data-name="Grupo 1177620" transform="translate(34.482 28.321)">
        <path id="Trazado_944773" data-name="Trazado 944773" d="M257.232,176.616v14.116a3.6,3.6,0,0,1-1.232,0V176.616a.616.616,0,1,1,1.232,0Z" transform="translate(-256 -176)" fill="#386c32"/>
      </g>
      <g id="Grupo_1177621" data-name="Grupo 1177621" transform="translate(34.482 38.178)">
        <path id="Trazado_944774" data-name="Trazado 944774" d="M256.615,306.463a.616.616,0,0,1-.276-1.167l2.464-1.232a.616.616,0,0,1,.551,1.1L256.89,306.4A.615.615,0,0,1,256.615,306.463Z" transform="translate(-255.999 -303.998)" fill="#386c32"/>
      </g>
      <g id="Grupo_1177622" data-name="Grupo 1177622" transform="translate(32.634 36.946)">
        <path id="Trazado_944775" data-name="Trazado 944775" d="M234.462,289.847a.615.615,0,0,1-.195-.032l-1.848-.616a.616.616,0,1,1,.39-1.169l1.848.616a.616.616,0,0,1-.195,1.2Z" transform="translate(-231.998 -287.998)" fill="#386c32"/>
      </g>
      <g id="Grupo_1177623" data-name="Grupo 1177623" transform="translate(34.482 33.25)">
        <path id="Trazado_944776" data-name="Trazado 944776" d="M256.616,243.079a.616.616,0,0,1-.37-1.109l2.464-1.848a.616.616,0,1,1,.739.986l-2.464,1.848A.613.613,0,0,1,256.616,243.079Z" transform="translate(-256 -239.998)" fill="#386c32"/>
      </g>
      <g id="Grupo_1177624" data-name="Grupo 1177624" transform="translate(33.25 33.25)">
        <path id="Trazado_944777" data-name="Trazado 944777" d="M241.846,241.847a.613.613,0,0,1-.275-.065l-1.232-.616a.616.616,0,0,1,.551-1.1l1.232.616a.616.616,0,0,1-.276,1.167Z" transform="translate(-239.999 -239.998)" fill="#386c32"/>
      </g>
      <g id="Grupo_1177625" data-name="Grupo 1177625" transform="translate(34.482 29.553)">
        <path id="Trazado_944778" data-name="Trazado 944778" d="M256.616,194.464a.616.616,0,0,1-.342-1.129l1.848-1.232a.616.616,0,0,1,.683,1.025l-1.848,1.232A.614.614,0,0,1,256.616,194.464Z" transform="translate(-255.999 -191.999)" fill="#386c32"/>
      </g>
      <circle id="Elipse_11763" data-name="Elipse 11763" cx="2.47" cy="2.47" r="2.47" transform="translate(38.234 19.613)" fill="#edbc61"/>
      <g id="Grupo_1177626" data-name="Grupo 1177626" transform="translate(40.643 16)">
        <path id="Trazado_944779" data-name="Trazado 944779" d="M336.616,17.848a.616.616,0,0,1-.616-.616v-.616a.616.616,0,0,1,1.232,0v.616A.616.616,0,0,1,336.616,17.848Z" transform="translate(-336 -16)" fill="#9e7d41"/>
      </g>
      <g id="Grupo_1177627" data-name="Grupo 1177627" transform="translate(37.158 17.443)">
        <path id="Trazado_944780" data-name="Trazado 944780" d="M291.8,36.412a.614.614,0,0,1-.436-.18l-.436-.436a.616.616,0,1,1,.871-.871l.436.436a.616.616,0,0,1-.436,1.052Z" transform="translate(-290.745 -34.745)" fill="#9e7d41"/>
      </g>
      <g id="Grupo_1177628" data-name="Grupo 1177628" transform="translate(35.714 20.929)">
        <path id="Trazado_944781" data-name="Trazado 944781" d="M273.232,81.232h-.616a.616.616,0,0,1,0-1.232h.616a.616.616,0,1,1,0,1.232Z" transform="translate(-272 -80)" fill="#9e7d41"/>
      </g>
      <g id="Grupo_1177629" data-name="Grupo 1177629" transform="translate(37.158 23.978)">
        <path id="Trazado_944782" data-name="Trazado 944782" d="M291.361,121.266a.616.616,0,0,1-.436-1.052l.436-.436a.616.616,0,1,1,.871.871l-.436.436A.614.614,0,0,1,291.361,121.266Z" transform="translate(-290.745 -119.598)" fill="#9e7d41"/>
      </g>
      <g id="Grupo_1177630" data-name="Grupo 1177630" transform="translate(40.643 25.241)">
        <path id="Trazado_944783" data-name="Trazado 944783" d="M336.616,137.848a.616.616,0,0,1-.616-.616v-.616a.616.616,0,0,1,1.232,0v.616A.616.616,0,0,1,336.616,137.848Z" transform="translate(-336 -136)" fill="#9e7d41"/>
      </g>
      <g id="Grupo_1177631" data-name="Grupo 1177631" transform="translate(43.692 23.978)">
        <path id="Trazado_944784" data-name="Trazado 944784" d="M376.65,121.265a.614.614,0,0,1-.436-.18l-.436-.436a.616.616,0,1,1,.871-.871l.436.436a.616.616,0,0,1-.436,1.052Z" transform="translate(-375.598 -119.598)" fill="#9e7d41"/>
      </g>
      <g id="Grupo_1177632" data-name="Grupo 1177632" transform="translate(44.955 20.929)">
        <path id="Trazado_944785" data-name="Trazado 944785" d="M393.232,81.232h-.616a.616.616,0,1,1,0-1.232h.616a.616.616,0,0,1,0,1.232Z" transform="translate(-392 -80)" fill="#9e7d41"/>
      </g>
      <g id="Grupo_1177633" data-name="Grupo 1177633" transform="translate(43.692 17.444)">
        <path id="Trazado_944786" data-name="Trazado 944786" d="M376.214,36.413a.616.616,0,0,1-.436-1.052l.436-.436a.616.616,0,1,1,.871.871l-.436.436A.614.614,0,0,1,376.214,36.413Z" transform="translate(-375.598 -34.745)" fill="#9e7d41"/>
      </g>
      <g id="Grupo_1177634" data-name="Grupo 1177634" transform="translate(46.803 16)">
        <path id="Trazado_944787" data-name="Trazado 944787" d="M421.545,18.464a.616.616,0,0,1-.616-.616.616.616,0,1,0-1.232,0,.616.616,0,1,1-1.232,0,.616.616,0,1,0-1.232,0,.616.616,0,1,1-1.232,0,3.318,3.318,0,0,1,6.161,0A.616.616,0,0,1,421.545,18.464Z" transform="translate(-416 -16)" fill="#37647f"/>
      </g>
      <g id="Grupo_1177635" data-name="Grupo 1177635" transform="translate(29.553 17.848)">
        <path id="Trazado_944788" data-name="Trazado 944788" d="M197.545,42.464a.616.616,0,0,1-.616-.616.616.616,0,0,0-1.232,0,.616.616,0,1,1-1.232,0,.616.616,0,1,0-1.232,0,.616.616,0,0,1-1.232,0,1.847,1.847,0,0,1,3.08-1.376,1.847,1.847,0,0,1,3.08,1.376A.616.616,0,0,1,197.545,42.464Z" transform="translate(-192 -40)" fill="#37647f"/>
      </g>
      <g id="Grupo_1177636" data-name="Grupo 1177636" transform="translate(16 16)">
        <path id="Trazado_944789" data-name="Trazado 944789" d="M18.464,23.393h6.777a2.464,2.464,0,1,0,0-4.929h-.128a3.389,3.389,0,0,0-6.521,0h-.128a2.464,2.464,0,1,0,0,4.929Zm0-3.7H19.1a.616.616,0,0,0,.612-.548,2.156,2.156,0,0,1,4.285,0,.616.616,0,0,0,.612.548h.634a1.232,1.232,0,1,1,0,2.464H18.464a1.232,1.232,0,1,1,0-2.464Z" transform="translate(-16 -16)"/>
        <path id="Trazado_944790" data-name="Trazado 944790" d="M48.773,151.508a35.4,35.4,0,0,1-.675-5.183q.329.054.657.127l2.844.632a.616.616,0,0,0,.671-.9l-1.7-3.022,1.029.229a.616.616,0,0,0,.671-.9l-1.7-3.022,1.029.229a.616.616,0,0,0,.671-.9l-5.545-9.857a.616.616,0,0,0-1.074,0l-4.432,7.879a11.609,11.609,0,0,0-1.682-5.384,5.382,5.382,0,0,0-4.439-2.809,5.382,5.382,0,0,0-4.439,2.809c-.113.176-.22.359-.322.547a3.689,3.689,0,0,0-1.8-.254,4.315,4.315,0,0,0-6.036-1.925,3.081,3.081,0,0,0-5.6,2.572,3.687,3.687,0,0,0-.267,4.469,2.46,2.46,0,0,0,2.132,4.085l.328,1.968a.616.616,0,0,0,.413.483l2.043.681v3.164a12.653,12.653,0,0,1-.46,3.377,6.678,6.678,0,0,0-1.194,1.459,3.325,3.325,0,0,0-.4-.024,3.6,3.6,0,0,0-3.491,3.7.616.616,0,0,0,.616.616H38.178a.616.616,0,0,0,.551-.892,16.976,16.976,0,0,1-1.783-7.554v-1.209a6.318,6.318,0,0,0,2.591-2.4,9.483,9.483,0,0,0,.617-1.129.616.616,0,0,0,.622.227l1.029-.229-1.7,3.022a.616.616,0,0,0,.671.9l2.844-.632q.33-.073.661-.127a35.321,35.321,0,0,1-.972,6.487q-.173-.014-.348-.014c-1.957,0-3.55,1.313-3.55,2.926a.616.616,0,0,0,.616.616H52.348a.616.616,0,0,0,.616-.616C52.964,153.657,51.165,151.926,48.773,151.508Zm-30.309-11.8a1.23,1.23,0,0,1-.983-1.971,3.671,3.671,0,0,0,1,.535,4.279,4.279,0,0,0,.368,1.373A1.218,1.218,0,0,1,18.464,139.705Zm.74-2.513a2.464,2.464,0,0,1-1.137-4.263.616.616,0,0,0,.1-.809,1.848,1.848,0,1,1,3.364-1.248.616.616,0,0,0,1.026.388,3.08,3.08,0,0,1,5,1.343.616.616,0,0,0,.745.408,2.462,2.462,0,0,1,2.679,3.752,2.455,2.455,0,0,0-1.981.157,2.463,2.463,0,1,0-3.81,3.12.616.616,0,0,0-.4.149,3.079,3.079,0,0,1-5.09-2.333l0-.051A.616.616,0,0,0,19.2,137.192Zm7.885,3.746a1.226,1.226,0,0,1,.087-.454.616.616,0,0,0-.411-.822,1.232,1.232,0,1,1,1.479-1.62.616.616,0,0,0,1.027.205,1.22,1.22,0,0,1,.9-.39,1.232,1.232,0,1,1,0,2.464.616.616,0,0,0-.616.616,1.232,1.232,0,1,1-2.464,0Zm.232,2.251-.16.96-1.921.549v-3.3l.05-.035a3.643,3.643,0,0,0,.635.153A2.474,2.474,0,0,0,27.321,143.189Zm-3.189,5.862a6.084,6.084,0,0,0-1.56.521,13.835,13.835,0,0,0,.2-2.356v-5.045a4.307,4.307,0,0,0,1.232-.181v5.226A13.845,13.845,0,0,0,24.132,149.051Zm-3.889-6.732-.186-1.118a4.305,4.305,0,0,0,1.488.79v.763ZM17.3,155.107a2.308,2.308,0,0,1,2.187-1.848,2.086,2.086,0,0,1,.555.075.616.616,0,0,0,.711-.311,4.982,4.982,0,0,1,9.263.675.616.616,0,0,0,.853.341,1.544,1.544,0,0,1,.693-.164,1.705,1.705,0,0,1,1.588,1.232Zm15.946-7.213a16.946,16.946,0,0,1-.736,4.917,2.771,2.771,0,0,0-1.569-.1,6.67,6.67,0,0,0-2.055-2.543,6.065,6.065,0,0,0-3.528-1.221,12.6,12.6,0,0,1-.121-1.734v-1.236l2.634-.752a.616.616,0,0,0,.438-.491l.224-1.343a2.453,2.453,0,0,0,1.361-.563,9.55,9.55,0,0,0,.762,1.459,6.318,6.318,0,0,0,2.591,2.4v1.209Zm3.962,7.213H34.423a3.129,3.129,0,0,0-.836-1.6,18.2,18.2,0,0,0,.895-5.612v-.84a4.284,4.284,0,0,0,1.232,0v.84A18.227,18.227,0,0,0,37.212,155.107ZM38.5,143.623a4.57,4.57,0,0,1-2.786,2.179v-2.02l2.124-1.062a.616.616,0,0,0-.551-1.1l-1.573.786V139.4l2.218-1.663a.616.616,0,1,0-.739-.986l-1.479,1.109v-2.751l1.574-1.049a.616.616,0,0,0-.683-1.025l-.89.594v-1.313a.616.616,0,1,0-1.232,0v4.548l-.341-.17a.616.616,0,0,0-.551,1.1l.892.446V140.7l-1.037-.346a.616.616,0,1,0-.39,1.169l1.427.476v3.8a4.57,4.57,0,0,1-2.786-2.179,8.931,8.931,0,0,1-.977-2.116l0-.016a2.463,2.463,0,0,0,1.283-4.042,3.686,3.686,0,0,0-.622-4.823c.1-.184.2-.363.311-.534a4.207,4.207,0,0,1,3.4-2.243,4.208,4.208,0,0,1,3.4,2.243,11.654,11.654,0,0,1,0,11.531Zm2.362-2.485a13.006,13.006,0,0,0,.286-1.53l.656-.146Zm2.49,4.111-1.5.333,1.7-3.022a.616.616,0,0,0-.671-.9l-1.029.229,1.7-3.022a.616.616,0,0,0-.671-.9l-1.029.229,4.331-7.7,4.331,7.7-1.029-.229a.616.616,0,0,0-.671.9l1.7,3.022-1.029-.229a.616.616,0,0,0-.671.9l1.7,3.022-1.5-.333a12.973,12.973,0,0,0-5.669,0Zm4.144,6.165a6.17,6.17,0,0,0-2.763.7,36.534,36.534,0,0,0,.788-5.928,11.661,11.661,0,0,1,1.332,0,36.615,36.615,0,0,0,.642,5.227Zm-6.7,3.693a2.424,2.424,0,0,1,2.159-1.078,3.04,3.04,0,0,1,.762.1.616.616,0,0,0,.6-.175,4.6,4.6,0,0,1,3.328-1.307c1.969,0,3.617,1.06,4,2.464Z" transform="translate(-16 -119.375)"/>
        <path id="Trazado_944791" data-name="Trazado 944791" d="M307.08,54.161A3.08,3.08,0,1,0,304,51.08,3.084,3.084,0,0,0,307.08,54.161Zm0-4.929a1.848,1.848,0,1,1-1.848,1.848A1.85,1.85,0,0,1,307.08,49.232Z" transform="translate(-281.822 -45.536)"/>
        <path id="Trazado_944792" data-name="Trazado 944792" d="M336.616,17.848a.616.616,0,0,0,.616-.616v-.616a.616.616,0,0,0-1.232,0v.616A.616.616,0,0,0,336.616,17.848Z" transform="translate(-311.357 -16)"/>
        <path id="Trazado_944793" data-name="Trazado 944793" d="M291.361,36.232a.616.616,0,1,0,.871-.871l-.436-.436a.616.616,0,1,0-.871.871Z" transform="translate(-269.588 -33.301)"/>
        <path id="Trazado_944794" data-name="Trazado 944794" d="M272.616,81.232h.616a.616.616,0,1,0,0-1.232h-.616a.616.616,0,0,0,0,1.232Z" transform="translate(-252.286 -75.071)"/>
        <path id="Trazado_944795" data-name="Trazado 944795" d="M291.361,119.779l-.436.436a.616.616,0,1,0,.871.871l.436-.436a.616.616,0,1,0-.871-.871Z" transform="translate(-269.588 -111.62)"/>
        <path id="Trazado_944796" data-name="Trazado 944796" d="M336,136.616v.616a.616.616,0,0,0,1.232,0v-.616a.616.616,0,0,0-1.232,0Z" transform="translate(-311.357 -126.759)"/>
        <path id="Trazado_944797" data-name="Trazado 944797" d="M375.778,119.778a.616.616,0,0,0,0,.871l.436.436a.616.616,0,1,0,.871-.871l-.436-.436A.616.616,0,0,0,375.778,119.778Z" transform="translate(-347.905 -111.62)"/>
        <path id="Trazado_944798" data-name="Trazado 944798" d="M392,80.616a.616.616,0,0,0,.616.616h.616a.616.616,0,0,0,0-1.232h-.616A.616.616,0,0,0,392,80.616Z" transform="translate(-363.045 -75.071)"/>
        <path id="Trazado_944799" data-name="Trazado 944799" d="M376.214,36.413a.614.614,0,0,0,.436-.18l.436-.436a.616.616,0,1,0-.871-.871l-.436.436a.616.616,0,0,0,.436,1.052Z" transform="translate(-347.906 -33.302)"/>
        <path id="Trazado_944800" data-name="Trazado 944800" d="M416.616,18.464a.616.616,0,0,0,.616-.616.616.616,0,1,1,1.232,0,.616.616,0,1,0,1.232,0,.616.616,0,1,1,1.232,0,.616.616,0,0,0,1.232,0,3.318,3.318,0,0,0-6.161,0A.616.616,0,0,0,416.616,18.464Z" transform="translate(-385.197 -16)"/>
        <path id="Trazado_944801" data-name="Trazado 944801" d="M192.616,42.464a.616.616,0,0,0,.616-.616.616.616,0,1,1,1.232,0,.616.616,0,1,0,1.232,0,.616.616,0,0,1,1.232,0,.616.616,0,1,0,1.232,0,1.847,1.847,0,0,0-3.08-1.376A1.847,1.847,0,0,0,192,41.848.616.616,0,0,0,192.616,42.464Z" transform="translate(-178.447 -38.152)"/>
      </g>
    </g>
  </g>
</svg>
